<svg width="68" height="82" viewBox="0 0 68 82" fill="none" xmlns="http://www.w3.org/2000/svg">
    <path
        d="M45.0735 20.5852L45.073 20.5853C43.4603 20.9768 41.9259 21.5816 40.3535 22.2013C39.6115 22.4938 38.8609 22.7896 38.0897 23.0679M45.0735 20.5852L37.9191 22.5979M45.0735 20.5852C49.9819 19.3883 54.6827 20.1503 59.0387 22.7253C61.1634 23.9961 62.9901 25.5949 64.5695 27.5257C59.049 31.7437 55.147 36.9056 56.062 44.3194L56.0623 44.3213C56.9484 51.2843 60.5134 56.5943 67.1006 59.7966C66.9604 60.1256 66.8224 60.454 66.6847 60.7817C66.3791 61.509 66.075 62.2328 65.7517 62.9514C64.0266 66.7528 62.1752 70.4531 59.5824 73.7067L59.582 73.7071C57.6805 76.0988 55.2076 77.8962 52.5825 79.6035L52.5818 79.604C50.6644 80.8559 48.5597 80.7339 46.3446 80.0108L46.3428 80.0102C44.7154 79.4856 43.1324 78.9684 41.6144 78.3143C37.8811 76.7055 34.1662 76.7948 30.419 78.2047L30.4176 78.2053C28.4093 78.9679 26.4059 79.6685 24.3645 80.2683C21.7396 81.0376 19.3621 80.2659 17.0597 78.7953L17.0594 78.7951C14.0751 76.8924 11.8364 74.2544 9.81456 71.3743C6.00804 65.9115 3.48108 59.8871 1.99209 53.4348C0.908443 48.6888 0.326281 43.9458 1.11344 39.1817C2.44817 31.1205 6.51299 24.9324 14.2749 21.545L14.2753 21.5448C18.3691 19.7542 22.6935 19.9586 26.9366 21.613M45.0735 20.5852L14.0749 21.0867C18.313 19.233 22.7773 19.4547 27.1182 21.1472M38.0897 23.0679C38.0894 23.068 38.0891 23.0681 38.0888 23.0682L37.9191 22.5979M38.0897 23.0679C38.09 23.0678 38.0903 23.0677 38.0905 23.0676L37.9191 22.5979M38.0897 23.0679C35.753 23.9208 33.3545 24.1906 30.8988 23.1813L30.8979 23.1809C29.891 22.7649 28.8854 22.373 27.8649 21.9754C27.557 21.8554 27.2477 21.7349 26.9366 21.613M37.9191 22.5979C35.6561 23.424 33.393 23.6658 31.0888 22.7188C30.0768 22.3007 29.0648 21.9063 28.0434 21.5083C27.7359 21.3885 27.4276 21.2684 27.1182 21.1472M26.9366 21.613L27.1182 21.1472M26.9366 21.613C26.9364 21.6129 26.9361 21.6128 26.9359 21.6127L27.1182 21.1472M42.787 3.25076L42.7876 3.2504C44.9257 2.08296 47.1449 1.19652 49.4962 0.667195C50.273 5.17588 49.2339 10.6991 44.4814 14.0695C41.547 16.1355 38.2987 17.3988 34.6909 18.0094C34.5924 16.4294 34.7651 14.8961 35.0571 13.341C35.9299 8.73783 38.637 5.50879 42.787 3.25076Z"
        stroke="#00FFC8" stroke-miterlimit="10" stroke-linecap="round" stroke-linejoin="round" />
</svg>
