<svg width="25" height="25" viewBox="0 0 25 25" fill="none" xmlns="http://www.w3.org/2000/svg">
    <path fill-rule="evenodd" clip-rule="evenodd"
        d="M24.5543 3.14708L24.5602 3.07649L24.8514 3.10591L24.8455 3.17649C23.672 14.6412 14.5014 23.8118 3.03667 24.9883L2.96608 24.9941L2.93667 24.7L3.00726 24.6941C14.3337 23.5324 23.3955 14.4706 24.5543 3.14708ZM22.022 0.297081L22.4043 0.288258V0.582375L22.172 0.588257C16.4073 0.650023 10.9778 2.93826 6.88667 7.02649C2.7955 11.1147 0.510202 16.5441 0.448438 22.3118L0.442555 22.5471H0.148438L0.15432 22.1647H0.157261C0.25432 16.3736 2.56314 10.9265 6.67491 6.81767C10.7867 2.70885 16.2308 0.39414 22.022 0.297081ZM8.7602 11.6794C8.7602 12.8353 9.69844 13.7706 10.8514 13.7706C12.0073 13.7706 12.9426 12.8324 12.9426 11.6794C12.9426 10.5236 12.0073 9.58826 10.8514 9.58826C9.6955 9.58826 8.7602 10.5236 8.7602 11.6794ZM22.1631 0.764729L22.3131 0.761787L22.3102 0.911789C22.2484 6.62944 19.9808 12.0088 15.9249 16.0647C11.872 20.1206 6.48961 22.3883 0.771967 22.45L0.621967 22.453V22.303C0.686673 16.5853 2.95432 11.203 7.0102 7.15002C11.0631 3.09414 16.4455 0.826492 22.1631 0.764729ZM7.21608 7.35885C3.25138 11.3236 1.01903 16.5736 0.919026 22.1559C6.50432 22.0559 11.7543 19.8236 15.7161 15.8588C19.6808 11.8941 21.9131 6.64414 22.0131 1.06179C16.4308 1.16179 11.1808 3.39414 7.21608 7.35885Z"
        fill="#00FFC8" />
</svg>
