<svg width="25" height="25" viewBox="0 0 25 25" fill="none" xmlns="http://www.w3.org/2000/svg">
    <path fill-rule="evenodd" clip-rule="evenodd"
        d="M0.445681 3.14708L0.439798 3.07649L0.148623 3.10591L0.154505 3.17649C1.32803 14.6412 10.4986 23.8118 21.9633 24.9883L22.0339 24.9941L22.0633 24.7L21.9927 24.6941C10.6663 23.5324 1.6045 14.4706 0.445681 3.14708ZM2.97803 0.297081L2.59568 0.288258V0.582375L2.82803 0.588257C8.59274 0.650023 14.0222 2.93826 18.1133 7.02649C22.2045 11.1147 24.4898 16.5441 24.5516 22.3118L24.5574 22.5471H24.8516L24.8457 22.1647H24.8427C24.7457 16.3736 22.4369 10.9265 18.3251 6.81767C14.2133 2.70885 8.76921 0.39414 2.97803 0.297081ZM16.2398 11.6794C16.2398 12.8353 15.3016 13.7706 14.1486 13.7706C12.9927 13.7706 12.0574 12.8324 12.0574 11.6794C12.0574 10.5236 12.9927 9.58826 14.1486 9.58826C15.3045 9.58826 16.2398 10.5236 16.2398 11.6794ZM2.83686 0.764729L2.68686 0.761787L2.6898 0.911789C2.75156 6.62944 5.01921 12.0088 9.07509 16.0647C13.128 20.1206 18.5104 22.3883 24.228 22.45L24.378 22.453V22.303C24.3133 16.5853 22.0457 11.203 17.9898 7.15002C13.9369 3.09414 8.5545 0.826492 2.83686 0.764729ZM17.7839 7.35885C21.7486 11.3236 23.981 16.5736 24.081 22.1559C18.4957 22.0559 13.2457 19.8236 9.28391 15.8588C5.31921 11.8941 3.08685 6.64414 2.98686 1.06179C8.56921 1.16179 13.8192 3.39414 17.7839 7.35885Z"
        fill="#00FFC8" />
</svg>
