<svg width="120" height="729" viewBox="0 0 120 729" fill="none" xmlns="http://www.w3.org/2000/svg">
<g opacity="0.4">
<g opacity="0.7">
<path d="M5.00025 19.8697C4.99679 21.9115 5.70891 23.8829 7.00025 25.4065L53.9002 81.7013C54.651 82.5973 55.5743 83.315 56.6087 83.8065C57.6432 84.2981 58.7652 84.5523 59.9002 84.5523C61.0353 84.5523 62.1573 84.2981 63.1918 83.8065C64.2262 83.315 65.1495 82.5973 65.9002 81.7013L112.68 25.596C114.019 23.9851 114.725 21.898 114.654 19.759C114.584 17.6199 113.742 15.5894 112.3 14.0802C111.563 13.2953 110.685 12.6731 109.716 12.2502C108.748 11.8272 107.709 11.612 106.66 11.617C105.609 11.6162 104.569 11.8333 103.597 12.2559C102.626 12.6785 101.744 13.2984 101 14.0802C100.777 14.3176 100.57 14.5708 100.38 14.8381L100.24 14.9855L62.9402 59.7644C62.5649 60.2124 62.1032 60.5713 61.586 60.817C61.0688 61.0628 60.5078 61.1899 59.9402 61.1899C59.3727 61.1899 58.8117 61.0628 58.2945 60.817C57.7773 60.5713 57.3156 60.2124 56.9402 59.7644L19.4202 14.796L19.3002 14.6276C19.1002 14.3749 18.9002 14.1223 18.6803 13.8907C17.5613 12.7031 16.1317 11.8932 14.5737 11.5642C13.0157 11.2351 11.3999 11.402 9.9324 12.0434C8.46485 12.6848 7.212 13.7717 6.33359 15.1656C5.45518 16.5594 4.99101 18.197 5.00025 19.8697ZM1.00025 19.8697C0.994404 17.3669 1.69502 14.9187 3.0132 12.8357C4.33137 10.7527 6.20768 9.12891 8.40403 8.1703C10.6004 7.21168 13.0178 6.96149 15.3494 7.45145C17.6811 7.94142 19.8219 9.14947 21.5002 10.9223C21.8402 11.2802 22.1403 11.6381 22.4403 12.017L59.9002 57.0276L97.2402 12.2065C97.5318 11.8215 97.8457 11.4559 98.1802 11.1118C100.429 8.75272 103.475 7.42813 106.65 7.42813C109.825 7.42813 112.871 8.75272 115.12 11.1118C116.234 12.2878 117.116 13.6834 117.716 15.2187C118.317 16.754 118.624 18.3988 118.62 20.0591C118.628 23.1217 117.567 26.0806 115.64 28.3749L68.9602 84.396C67.8341 85.7401 66.4492 86.8165 64.8975 87.5539C63.3458 88.2912 61.6628 88.6726 59.9602 88.6726C58.2577 88.6726 56.5747 88.2912 55.023 87.5539C53.4713 86.8165 52.0864 85.7401 50.9602 84.396L3.90025 28.1855C2.01164 25.8729 0.981585 22.9192 1.00025 19.8697Z" fill="#FFC000"/>
<path d="M91.8983 2.10244C91.898 1.80353 91.8372 1.50812 91.7199 1.23587C91.6027 0.963626 91.4317 0.720781 91.2183 0.523496C90.8203 0.15549 90.2998 -0.0312428 89.7711 0.00428007C89.2424 0.0398029 88.7487 0.29468 88.3983 0.71297L59.8983 34.8603L31.2783 0.71297C30.9214 0.321743 30.4347 0.0906678 29.9198 0.0679226C29.4049 0.0451773 28.9016 0.232517 28.5147 0.590883C28.1278 0.94925 27.8873 1.45098 27.8433 1.99146C27.7992 2.53194 27.9551 3.06945 28.2783 3.49192L58.4384 39.4288C58.626 39.6528 58.8569 39.8322 59.1155 39.9551C59.3741 40.078 59.6546 40.1415 59.9384 40.1415C60.2221 40.1415 60.5026 40.078 60.7612 39.9551C61.0198 39.8322 61.2507 39.6528 61.4384 39.4288L91.3183 3.49192C91.6691 3.12077 91.8759 2.6254 91.8983 2.10244Z" fill="#FFC000"/>
</g>
<g opacity="0.6">
<path d="M5.00025 99.8697C4.99679 101.911 5.70891 103.883 7.00025 105.407L53.9002 161.701C54.651 162.597 55.5743 163.315 56.6087 163.807C57.6432 164.298 58.7652 164.552 59.9002 164.552C61.0353 164.552 62.1573 164.298 63.1918 163.807C64.2262 163.315 65.1495 162.597 65.9002 161.701L112.68 105.596C114.019 103.985 114.725 101.898 114.654 99.759C114.584 97.6199 113.742 95.5894 112.3 94.0802C111.563 93.2953 110.685 92.6731 109.716 92.2502C108.748 91.8272 107.709 91.612 106.66 91.617C105.609 91.6162 104.569 91.8333 103.597 92.2559C102.626 92.6785 101.744 93.2984 101 94.0802C100.777 94.3176 100.57 94.5708 100.38 94.8381L100.24 94.9855L62.9402 139.764C62.5649 140.212 62.1032 140.571 61.586 140.817C61.0688 141.063 60.5078 141.19 59.9402 141.19C59.3727 141.19 58.8117 141.063 58.2945 140.817C57.7773 140.571 57.3156 140.212 56.9402 139.764L19.4202 94.796L19.3002 94.6276C19.1002 94.3749 18.9002 94.1223 18.6803 93.8907C17.5613 92.7031 16.1317 91.8932 14.5737 91.5642C13.0157 91.2351 11.3999 91.402 9.9324 92.0434C8.46485 92.6848 7.212 93.7717 6.33359 95.1656C5.45518 96.5594 4.99101 98.197 5.00025 99.8697ZM1.00025 99.8697C0.994404 97.3669 1.69502 94.9187 3.0132 92.8357C4.33137 90.7527 6.20768 89.1289 8.40403 88.1703C10.6004 87.2117 13.0178 86.9615 15.3494 87.4515C17.6811 87.9414 19.8219 89.1495 21.5002 90.9223C21.8402 91.2802 22.1403 91.6381 22.4403 92.017L59.9002 137.028L97.2402 92.2065C97.5318 91.8215 97.8457 91.4559 98.1802 91.1118C100.429 88.7527 103.475 87.4281 106.65 87.4281C109.825 87.4281 112.871 88.7527 115.12 91.1118C116.234 92.2878 117.116 93.6834 117.716 95.2187C118.317 96.754 118.624 98.3988 118.62 100.059C118.628 103.122 117.567 106.081 115.64 108.375L68.9602 164.396C67.8341 165.74 66.4492 166.817 64.8975 167.554C63.3458 168.291 61.6628 168.673 59.9602 168.673C58.2577 168.673 56.5747 168.291 55.023 167.554C53.4713 166.817 52.0864 165.74 50.9602 164.396L3.90025 108.185C2.01164 105.873 0.981585 102.919 1.00025 99.8697Z" fill="#FFC000"/>
<path d="M91.8983 82.1024C91.898 81.8035 91.8372 81.5081 91.7199 81.2359C91.6027 80.9636 91.4317 80.7208 91.2183 80.5235C90.8203 80.1555 90.2998 79.9688 89.7711 80.0043C89.2424 80.0398 88.7487 80.2947 88.3983 80.713L59.8983 114.86L31.2783 80.713C30.9214 80.3217 30.4347 80.0907 29.9198 80.0679C29.4049 80.0452 28.9016 80.2325 28.5147 80.5909C28.1278 80.9492 27.8873 81.451 27.8433 81.9915C27.7992 82.5319 27.9551 83.0694 28.2783 83.4919L58.4384 119.429C58.626 119.653 58.8569 119.832 59.1155 119.955C59.3741 120.078 59.6546 120.142 59.9384 120.142C60.2221 120.142 60.5026 120.078 60.7612 119.955C61.0198 119.832 61.2507 119.653 61.4384 119.429L91.3183 83.4919C91.6691 83.1208 91.8759 82.6254 91.8983 82.1024Z" fill="#FFC000"/>
</g>
<g opacity="0.5">
<path d="M5.00025 179.87C4.99679 181.911 5.70891 183.883 7.00025 185.407L53.9002 241.701C54.651 242.597 55.5743 243.315 56.6087 243.807C57.6432 244.298 58.7652 244.552 59.9002 244.552C61.0353 244.552 62.1573 244.298 63.1918 243.807C64.2262 243.315 65.1495 242.597 65.9002 241.701L112.68 185.596C114.019 183.985 114.725 181.898 114.654 179.759C114.584 177.62 113.742 175.589 112.3 174.08C111.563 173.295 110.685 172.673 109.716 172.25C108.748 171.827 107.709 171.612 106.66 171.617C105.609 171.616 104.569 171.833 103.597 172.256C102.626 172.679 101.744 173.298 101 174.08C100.777 174.318 100.57 174.571 100.38 174.838L100.24 174.985L62.9402 219.764C62.5649 220.212 62.1032 220.571 61.586 220.817C61.0688 221.063 60.5078 221.19 59.9402 221.19C59.3727 221.19 58.8117 221.063 58.2945 220.817C57.7773 220.571 57.3156 220.212 56.9402 219.764L19.4202 174.796L19.3002 174.628C19.1002 174.375 18.9002 174.122 18.6803 173.891C17.5613 172.703 16.1317 171.893 14.5737 171.564C13.0157 171.235 11.3999 171.402 9.9324 172.043C8.46485 172.685 7.212 173.772 6.33359 175.166C5.45518 176.559 4.99101 178.197 5.00025 179.87ZM1.00025 179.87C0.994404 177.367 1.69502 174.919 3.0132 172.836C4.33137 170.753 6.20768 169.129 8.40403 168.17C10.6004 167.212 13.0178 166.961 15.3494 167.451C17.6811 167.941 19.8219 169.149 21.5002 170.922C21.8402 171.28 22.1403 171.638 22.4403 172.017L59.9002 217.028L97.2402 172.207C97.5318 171.822 97.8457 171.456 98.1802 171.112C100.429 168.753 103.475 167.428 106.65 167.428C109.825 167.428 112.871 168.753 115.12 171.112C116.234 172.288 117.116 173.683 117.716 175.219C118.317 176.754 118.624 178.399 118.62 180.059C118.628 183.122 117.567 186.081 115.64 188.375L68.9602 244.396C67.8341 245.74 66.4492 246.817 64.8975 247.554C63.3458 248.291 61.6628 248.673 59.9602 248.673C58.2577 248.673 56.5747 248.291 55.023 247.554C53.4713 246.817 52.0864 245.74 50.9602 244.396L3.90025 188.185C2.01164 185.873 0.981585 182.919 1.00025 179.87Z" fill="#FFC000"/>
<path d="M91.8983 162.102C91.898 161.804 91.8372 161.508 91.7199 161.236C91.6027 160.964 91.4317 160.721 91.2183 160.523C90.8203 160.155 90.2998 159.969 89.7711 160.004C89.2424 160.04 88.7487 160.295 88.3983 160.713L59.8983 194.86L31.2783 160.713C30.9214 160.322 30.4347 160.091 29.9198 160.068C29.4049 160.045 28.9016 160.233 28.5147 160.591C28.1278 160.949 27.8873 161.451 27.8433 161.991C27.7992 162.532 27.9551 163.069 28.2783 163.492L58.4384 199.429C58.626 199.653 58.8569 199.832 59.1155 199.955C59.3741 200.078 59.6546 200.142 59.9384 200.142C60.2221 200.142 60.5026 200.078 60.7612 199.955C61.0198 199.832 61.2507 199.653 61.4384 199.429L91.3183 163.492C91.6691 163.121 91.8759 162.625 91.8983 162.102Z" fill="#FFC000"/>
</g>
<g opacity="0.4">
<path d="M5.00025 259.87C4.99679 261.911 5.70891 263.883 7.00025 265.407L53.9002 321.701C54.651 322.597 55.5743 323.315 56.6087 323.807C57.6432 324.298 58.7652 324.552 59.9002 324.552C61.0353 324.552 62.1573 324.298 63.1918 323.807C64.2262 323.315 65.1495 322.597 65.9002 321.701L112.68 265.596C114.019 263.985 114.725 261.898 114.654 259.759C114.584 257.62 113.742 255.589 112.3 254.08C111.563 253.295 110.685 252.673 109.716 252.25C108.748 251.827 107.709 251.612 106.66 251.617C105.609 251.616 104.569 251.833 103.597 252.256C102.626 252.679 101.744 253.298 101 254.08C100.777 254.318 100.57 254.571 100.38 254.838L100.24 254.985L62.9402 299.764C62.5649 300.212 62.1032 300.571 61.586 300.817C61.0688 301.063 60.5078 301.19 59.9402 301.19C59.3727 301.19 58.8117 301.063 58.2945 300.817C57.7773 300.571 57.3156 300.212 56.9402 299.764L19.4202 254.796L19.3002 254.628C19.1002 254.375 18.9002 254.122 18.6803 253.891C17.5613 252.703 16.1317 251.893 14.5737 251.564C13.0157 251.235 11.3999 251.402 9.9324 252.043C8.46485 252.685 7.212 253.772 6.33359 255.166C5.45518 256.559 4.99101 258.197 5.00025 259.87ZM1.00025 259.87C0.994404 257.367 1.69502 254.919 3.0132 252.836C4.33137 250.753 6.20768 249.129 8.40403 248.17C10.6004 247.212 13.0178 246.961 15.3494 247.451C17.6811 247.941 19.8219 249.149 21.5002 250.922C21.8402 251.28 22.1403 251.638 22.4403 252.017L59.9002 297.028L97.2402 252.207C97.5318 251.822 97.8457 251.456 98.1802 251.112C100.429 248.753 103.475 247.428 106.65 247.428C109.825 247.428 112.871 248.753 115.12 251.112C116.234 252.288 117.116 253.683 117.716 255.219C118.317 256.754 118.624 258.399 118.62 260.059C118.628 263.122 117.567 266.081 115.64 268.375L68.9602 324.396C67.8341 325.74 66.4492 326.817 64.8975 327.554C63.3458 328.291 61.6628 328.673 59.9602 328.673C58.2577 328.673 56.5747 328.291 55.023 327.554C53.4713 326.817 52.0864 325.74 50.9602 324.396L3.90025 268.185C2.01164 265.873 0.981585 262.919 1.00025 259.87Z" fill="#FFC000"/>
<path d="M91.8983 242.102C91.898 241.804 91.8372 241.508 91.7199 241.236C91.6027 240.964 91.4317 240.721 91.2183 240.523C90.8203 240.155 90.2998 239.969 89.7711 240.004C89.2424 240.04 88.7487 240.295 88.3983 240.713L59.8983 274.86L31.2783 240.713C30.9214 240.322 30.4347 240.091 29.9198 240.068C29.4049 240.045 28.9016 240.233 28.5147 240.591C28.1278 240.949 27.8873 241.451 27.8433 241.991C27.7992 242.532 27.9551 243.069 28.2783 243.492L58.4384 279.429C58.626 279.653 58.8569 279.832 59.1155 279.955C59.3741 280.078 59.6546 280.142 59.9384 280.142C60.2221 280.142 60.5026 280.078 60.7612 279.955C61.0198 279.832 61.2507 279.653 61.4384 279.429L91.3183 243.492C91.6691 243.121 91.8759 242.625 91.8983 242.102Z" fill="#FFC000"/>
</g>
<g opacity="0.3">
<path d="M5.00025 339.87C4.99679 341.911 5.70891 343.883 7.00025 345.407L53.9002 401.701C54.651 402.597 55.5743 403.315 56.6087 403.807C57.6432 404.298 58.7652 404.552 59.9002 404.552C61.0353 404.552 62.1573 404.298 63.1918 403.807C64.2262 403.315 65.1495 402.597 65.9002 401.701L112.68 345.596C114.019 343.985 114.725 341.898 114.654 339.759C114.584 337.62 113.742 335.589 112.3 334.08C111.563 333.295 110.685 332.673 109.716 332.25C108.748 331.827 107.709 331.612 106.66 331.617C105.609 331.616 104.569 331.833 103.597 332.256C102.626 332.679 101.744 333.298 101 334.08C100.777 334.318 100.57 334.571 100.38 334.838L100.24 334.985L62.9402 379.764C62.5649 380.212 62.1032 380.571 61.586 380.817C61.0688 381.063 60.5078 381.19 59.9402 381.19C59.3727 381.19 58.8117 381.063 58.2945 380.817C57.7773 380.571 57.3156 380.212 56.9402 379.764L19.4202 334.796L19.3002 334.628C19.1002 334.375 18.9002 334.122 18.6803 333.891C17.5613 332.703 16.1317 331.893 14.5737 331.564C13.0157 331.235 11.3999 331.402 9.9324 332.043C8.46485 332.685 7.212 333.772 6.33359 335.166C5.45518 336.559 4.99101 338.197 5.00025 339.87ZM1.00025 339.87C0.994404 337.367 1.69502 334.919 3.0132 332.836C4.33137 330.753 6.20768 329.129 8.40403 328.17C10.6004 327.212 13.0178 326.961 15.3494 327.451C17.6811 327.941 19.8219 329.149 21.5002 330.922C21.8402 331.28 22.1403 331.638 22.4403 332.017L59.9002 377.028L97.2402 332.207C97.5318 331.822 97.8457 331.456 98.1802 331.112C100.429 328.753 103.475 327.428 106.65 327.428C109.825 327.428 112.871 328.753 115.12 331.112C116.234 332.288 117.116 333.683 117.716 335.219C118.317 336.754 118.624 338.399 118.62 340.059C118.628 343.122 117.567 346.081 115.64 348.375L68.9602 404.396C67.8341 405.74 66.4492 406.817 64.8975 407.554C63.3458 408.291 61.6628 408.673 59.9602 408.673C58.2577 408.673 56.5747 408.291 55.023 407.554C53.4713 406.817 52.0864 405.74 50.9602 404.396L3.90025 348.185C2.01164 345.873 0.981585 342.919 1.00025 339.87Z" fill="#FFC000"/>
<path d="M91.8983 322.102C91.898 321.804 91.8372 321.508 91.7199 321.236C91.6027 320.964 91.4317 320.721 91.2183 320.523C90.8203 320.155 90.2998 319.969 89.7711 320.004C89.2424 320.04 88.7487 320.295 88.3983 320.713L59.8983 354.86L31.2783 320.713C30.9214 320.322 30.4347 320.091 29.9198 320.068C29.4049 320.045 28.9016 320.233 28.5147 320.591C28.1278 320.949 27.8873 321.451 27.8433 321.991C27.7992 322.532 27.9551 323.069 28.2783 323.492L58.4384 359.429C58.626 359.653 58.8569 359.832 59.1155 359.955C59.3741 360.078 59.6546 360.142 59.9384 360.142C60.2221 360.142 60.5026 360.078 60.7612 359.955C61.0198 359.832 61.2507 359.653 61.4384 359.429L91.3183 323.492C91.6691 323.121 91.8759 322.625 91.8983 322.102Z" fill="#FFC000"/>
</g>
<g opacity="0.2">
<path d="M5.00025 419.87C4.99679 421.911 5.70891 423.883 7.00025 425.407L53.9002 481.701C54.651 482.597 55.5743 483.315 56.6087 483.807C57.6432 484.298 58.7652 484.552 59.9002 484.552C61.0353 484.552 62.1573 484.298 63.1918 483.807C64.2262 483.315 65.1495 482.597 65.9002 481.701L112.68 425.596C114.019 423.985 114.725 421.898 114.654 419.759C114.584 417.62 113.742 415.589 112.3 414.08C111.563 413.295 110.685 412.673 109.716 412.25C108.748 411.827 107.709 411.612 106.66 411.617C105.609 411.616 104.569 411.833 103.597 412.256C102.626 412.679 101.744 413.298 101 414.08C100.777 414.318 100.57 414.571 100.38 414.838L100.24 414.985L62.9402 459.764C62.5649 460.212 62.1032 460.571 61.586 460.817C61.0688 461.063 60.5078 461.19 59.9402 461.19C59.3727 461.19 58.8117 461.063 58.2945 460.817C57.7773 460.571 57.3156 460.212 56.9402 459.764L19.4202 414.796L19.3002 414.628C19.1002 414.375 18.9002 414.122 18.6803 413.891C17.5613 412.703 16.1317 411.893 14.5737 411.564C13.0157 411.235 11.3999 411.402 9.9324 412.043C8.46485 412.685 7.212 413.772 6.33359 415.166C5.45518 416.559 4.99101 418.197 5.00025 419.87ZM1.00025 419.87C0.994404 417.367 1.69502 414.919 3.0132 412.836C4.33137 410.753 6.20768 409.129 8.40403 408.17C10.6004 407.212 13.0178 406.961 15.3494 407.451C17.6811 407.941 19.8219 409.149 21.5002 410.922C21.8402 411.28 22.1403 411.638 22.4403 412.017L59.9002 457.028L97.2402 412.207C97.5318 411.822 97.8457 411.456 98.1802 411.112C100.429 408.753 103.475 407.428 106.65 407.428C109.825 407.428 112.871 408.753 115.12 411.112C116.234 412.288 117.116 413.683 117.716 415.219C118.317 416.754 118.624 418.399 118.62 420.059C118.628 423.122 117.567 426.081 115.64 428.375L68.9602 484.396C67.8341 485.74 66.4492 486.817 64.8975 487.554C63.3458 488.291 61.6628 488.673 59.9602 488.673C58.2577 488.673 56.5747 488.291 55.023 487.554C53.4713 486.817 52.0864 485.74 50.9602 484.396L3.90025 428.185C2.01164 425.873 0.981585 422.919 1.00025 419.87Z" fill="#FFC000"/>
<path d="M91.8983 402.102C91.898 401.804 91.8372 401.508 91.7199 401.236C91.6027 400.964 91.4317 400.721 91.2183 400.523C90.8203 400.155 90.2998 399.969 89.7711 400.004C89.2424 400.04 88.7487 400.295 88.3983 400.713L59.8983 434.86L31.2783 400.713C30.9214 400.322 30.4347 400.091 29.9198 400.068C29.4049 400.045 28.9016 400.233 28.5147 400.591C28.1278 400.949 27.8873 401.451 27.8433 401.991C27.7992 402.532 27.9551 403.069 28.2783 403.492L58.4384 439.429C58.626 439.653 58.8569 439.832 59.1155 439.955C59.3741 440.078 59.6546 440.142 59.9384 440.142C60.2221 440.142 60.5026 440.078 60.7612 439.955C61.0198 439.832 61.2507 439.653 61.4384 439.429L91.3183 403.492C91.6691 403.121 91.8759 402.625 91.8983 402.102Z" fill="#FFC000"/>
</g>
<path d="M5.00025 499.87C4.99679 501.911 5.70891 503.883 7.00025 505.407L53.9002 561.701C54.651 562.597 55.5743 563.315 56.6087 563.807C57.6432 564.298 58.7652 564.552 59.9002 564.552C61.0353 564.552 62.1573 564.298 63.1918 563.807C64.2262 563.315 65.1495 562.597 65.9002 561.701L112.68 505.596C114.019 503.985 114.725 501.898 114.654 499.759C114.584 497.62 113.742 495.589 112.3 494.08C111.563 493.295 110.685 492.673 109.716 492.25C108.748 491.827 107.709 491.612 106.66 491.617C105.609 491.616 104.569 491.833 103.597 492.256C102.626 492.679 101.744 493.298 101 494.08C100.777 494.318 100.57 494.571 100.38 494.838L100.24 494.985L62.9402 539.764C62.5649 540.212 62.1032 540.571 61.586 540.817C61.0688 541.063 60.5078 541.19 59.9402 541.19C59.3727 541.19 58.8117 541.063 58.2945 540.817C57.7773 540.571 57.3156 540.212 56.9402 539.764L19.4202 494.796L19.3002 494.628C19.1002 494.375 18.9002 494.122 18.6803 493.891C17.5613 492.703 16.1317 491.893 14.5737 491.564C13.0157 491.235 11.3999 491.402 9.9324 492.043C8.46485 492.685 7.212 493.772 6.33359 495.166C5.45518 496.559 4.99101 498.197 5.00025 499.87ZM1.00025 499.87C0.994404 497.367 1.69502 494.919 3.0132 492.836C4.33137 490.753 6.20768 489.129 8.40403 488.17C10.6004 487.212 13.0178 486.961 15.3494 487.451C17.6811 487.941 19.8219 489.149 21.5002 490.922C21.8402 491.28 22.1403 491.638 22.4403 492.017L59.9002 537.028L97.2402 492.207C97.5318 491.822 97.8457 491.456 98.1802 491.112C100.429 488.753 103.475 487.428 106.65 487.428C109.825 487.428 112.871 488.753 115.12 491.112C116.234 492.288 117.116 493.683 117.716 495.219C118.317 496.754 118.624 498.399 118.62 500.059C118.628 503.122 117.567 506.081 115.64 508.375L68.9602 564.396C67.8341 565.74 66.4492 566.817 64.8975 567.554C63.3458 568.291 61.6628 568.673 59.9602 568.673C58.2577 568.673 56.5747 568.291 55.023 567.554C53.4713 566.817 52.0864 565.74 50.9602 564.396L3.90025 508.185C2.01164 505.873 0.981585 502.919 1.00025 499.87Z" fill="#FFC000"/>
<path d="M91.8983 482.102C91.898 481.804 91.8372 481.508 91.7199 481.236C91.6027 480.964 91.4317 480.721 91.2183 480.523C90.8203 480.155 90.2998 479.969 89.7711 480.004C89.2424 480.04 88.7487 480.295 88.3983 480.713L59.8983 514.86L31.2783 480.713C30.9214 480.322 30.4347 480.091 29.9198 480.068C29.4049 480.045 28.9016 480.233 28.5147 480.591C28.1278 480.949 27.8873 481.451 27.8433 481.991C27.7992 482.532 27.9551 483.069 28.2783 483.492L58.4384 519.429C58.626 519.653 58.8569 519.832 59.1155 519.955C59.3741 520.078 59.6546 520.142 59.9384 520.142C60.2221 520.142 60.5026 520.078 60.7612 519.955C61.0198 519.832 61.2507 519.653 61.4384 519.429L91.3183 483.492C91.6691 483.121 91.8759 482.625 91.8983 482.102Z" fill="#FFC000"/>
<g opacity="0.9">
<path d="M5.00025 579.87C4.99679 581.911 5.70891 583.883 7.00025 585.407L53.9002 641.701C54.651 642.597 55.5743 643.315 56.6087 643.807C57.6432 644.298 58.7652 644.552 59.9002 644.552C61.0353 644.552 62.1573 644.298 63.1918 643.807C64.2262 643.315 65.1495 642.597 65.9002 641.701L112.68 585.596C114.019 583.985 114.725 581.898 114.654 579.759C114.584 577.62 113.742 575.589 112.3 574.08C111.563 573.295 110.685 572.673 109.716 572.25C108.748 571.827 107.709 571.612 106.66 571.617C105.609 571.616 104.569 571.833 103.597 572.256C102.626 572.679 101.744 573.298 101 574.08C100.777 574.318 100.57 574.571 100.38 574.838L100.24 574.985L62.9402 619.764C62.5649 620.212 62.1032 620.571 61.586 620.817C61.0688 621.063 60.5078 621.19 59.9402 621.19C59.3727 621.19 58.8117 621.063 58.2945 620.817C57.7773 620.571 57.3156 620.212 56.9402 619.764L19.4202 574.796L19.3002 574.628C19.1002 574.375 18.9002 574.122 18.6803 573.891C17.5613 572.703 16.1317 571.893 14.5737 571.564C13.0157 571.235 11.3999 571.402 9.9324 572.043C8.46485 572.685 7.212 573.772 6.33359 575.166C5.45518 576.559 4.99101 578.197 5.00025 579.87ZM1.00025 579.87C0.994404 577.367 1.69502 574.919 3.0132 572.836C4.33137 570.753 6.20768 569.129 8.40403 568.17C10.6004 567.212 13.0178 566.961 15.3494 567.451C17.6811 567.941 19.8219 569.149 21.5002 570.922C21.8402 571.28 22.1403 571.638 22.4403 572.017L59.9002 617.028L97.2402 572.207C97.5318 571.822 97.8457 571.456 98.1802 571.112C100.429 568.753 103.475 567.428 106.65 567.428C109.825 567.428 112.871 568.753 115.12 571.112C116.234 572.288 117.116 573.683 117.716 575.219C118.317 576.754 118.624 578.399 118.62 580.059C118.628 583.122 117.567 586.081 115.64 588.375L68.9602 644.396C67.8341 645.74 66.4492 646.817 64.8975 647.554C63.3458 648.291 61.6628 648.673 59.9602 648.673C58.2577 648.673 56.5747 648.291 55.023 647.554C53.4713 646.817 52.0864 645.74 50.9602 644.396L3.90025 588.185C2.01164 585.873 0.981585 582.919 1.00025 579.87Z" fill="#FFC000"/>
<path d="M91.8983 562.102C91.898 561.804 91.8372 561.508 91.7199 561.236C91.6027 560.964 91.4317 560.721 91.2183 560.523C90.8203 560.155 90.2998 559.969 89.7711 560.004C89.2424 560.04 88.7487 560.295 88.3983 560.713L59.8983 594.86L31.2783 560.713C30.9214 560.322 30.4347 560.091 29.9198 560.068C29.4049 560.045 28.9016 560.233 28.5147 560.591C28.1278 560.949 27.8873 561.451 27.8433 561.991C27.7992 562.532 27.9551 563.069 28.2783 563.492L58.4384 599.429C58.626 599.653 58.8569 599.832 59.1155 599.955C59.3741 600.078 59.6546 600.142 59.9384 600.142C60.2221 600.142 60.5026 600.078 60.7612 599.955C61.0198 599.832 61.2507 599.653 61.4384 599.429L91.3183 563.492C91.6691 563.121 91.8759 562.625 91.8983 562.102Z" fill="#FFC000"/>
</g>
<g opacity="0.8">
<path d="M5.00025 659.87C4.99679 661.911 5.70891 663.883 7.00025 665.407L53.9002 721.701C54.651 722.597 55.5743 723.315 56.6087 723.807C57.6432 724.298 58.7652 724.552 59.9002 724.552C61.0353 724.552 62.1573 724.298 63.1918 723.807C64.2262 723.315 65.1495 722.597 65.9002 721.701L112.68 665.596C114.019 663.985 114.725 661.898 114.654 659.759C114.584 657.62 113.742 655.589 112.3 654.08C111.563 653.295 110.685 652.673 109.716 652.25C108.748 651.827 107.709 651.612 106.66 651.617C105.609 651.616 104.569 651.833 103.597 652.256C102.626 652.679 101.744 653.298 101 654.08C100.777 654.318 100.57 654.571 100.38 654.838L100.24 654.985L62.9402 699.764C62.5649 700.212 62.1032 700.571 61.586 700.817C61.0688 701.063 60.5078 701.19 59.9402 701.19C59.3727 701.19 58.8117 701.063 58.2945 700.817C57.7773 700.571 57.3156 700.212 56.9402 699.764L19.4202 654.796L19.3002 654.628C19.1002 654.375 18.9002 654.122 18.6803 653.891C17.5613 652.703 16.1317 651.893 14.5737 651.564C13.0157 651.235 11.3999 651.402 9.9324 652.043C8.46485 652.685 7.212 653.772 6.33359 655.166C5.45518 656.559 4.99101 658.197 5.00025 659.87ZM1.00025 659.87C0.994404 657.367 1.69502 654.919 3.0132 652.836C4.33137 650.753 6.20768 649.129 8.40403 648.17C10.6004 647.212 13.0178 646.961 15.3494 647.451C17.6811 647.941 19.8219 649.149 21.5002 650.922C21.8402 651.28 22.1403 651.638 22.4403 652.017L59.9002 697.028L97.2402 652.207C97.5318 651.822 97.8457 651.456 98.1802 651.112C100.429 648.753 103.475 647.428 106.65 647.428C109.825 647.428 112.871 648.753 115.12 651.112C116.234 652.288 117.116 653.683 117.716 655.219C118.317 656.754 118.624 658.399 118.62 660.059C118.628 663.122 117.567 666.081 115.64 668.375L68.9602 724.396C67.8341 725.74 66.4492 726.817 64.8975 727.554C63.3458 728.291 61.6628 728.673 59.9602 728.673C58.2577 728.673 56.5747 728.291 55.023 727.554C53.4713 726.817 52.0864 725.74 50.9602 724.396L3.90025 668.185C2.01164 665.873 0.981585 662.919 1.00025 659.87Z" fill="#FFC000"/>
<path d="M91.8983 642.102C91.898 641.804 91.8372 641.508 91.7199 641.236C91.6027 640.964 91.4317 640.721 91.2183 640.523C90.8203 640.155 90.2998 639.969 89.7711 640.004C89.2424 640.04 88.7487 640.295 88.3983 640.713L59.8983 674.86L31.2783 640.713C30.9214 640.322 30.4347 640.091 29.9198 640.068C29.4049 640.045 28.9016 640.233 28.5147 640.591C28.1278 640.949 27.8873 641.451 27.8433 641.991C27.7992 642.532 27.9551 643.069 28.2783 643.492L58.4384 679.429C58.626 679.653 58.8569 679.832 59.1155 679.955C59.3741 680.078 59.6546 680.142 59.9384 680.142C60.2221 680.142 60.5026 680.078 60.7612 679.955C61.0198 679.832 61.2507 679.653 61.4384 679.429L91.3183 643.492C91.6691 643.121 91.8759 642.625 91.8983 642.102Z" fill="#FFC000"/>
</g>
</g>
</svg>
