<svg width="375" height="596" viewBox="0 0 375 596" fill="none" xmlns="http://www.w3.org/2000/svg">
<g opacity="0.1" clip-path="url(#clip0_15664_223794)">
<path d="M52.2591 316.185C62.2759 316.185 70.3961 308.064 70.3961 298.046C70.3961 288.029 62.2759 279.908 52.2591 279.908C42.2423 279.908 34.1221 288.029 34.1221 298.046C34.1221 308.064 42.2423 316.185 52.2591 316.185Z" stroke="#00FFC8" stroke-width="0.5" stroke-miterlimit="10" stroke-linecap="round"/>
<path d="M300.296 321.127C313.042 321.127 323.375 310.794 323.375 298.047C323.375 285.299 313.042 274.966 300.296 274.966C287.55 274.966 277.217 285.299 277.217 298.047C277.217 310.794 287.55 321.127 300.296 321.127Z" stroke="#00FFC8" stroke-width="0.5" stroke-miterlimit="10" stroke-linecap="round"/>
<path opacity="0.3" d="M255.105 365.953C292.606 365.953 323.006 335.55 323.006 298.047C323.006 260.543 292.606 230.14 255.105 230.14C217.604 230.14 187.204 260.543 187.204 298.047C187.204 335.55 217.604 365.953 255.105 365.953Z" stroke="#00FFC8" stroke-width="0.5" stroke-miterlimit="10" stroke-linecap="round"/>
<path opacity="0.3" d="M118.99 365.883C156.663 365.883 187.202 335.48 187.202 297.976C187.202 260.472 156.663 230.07 118.99 230.07C81.3179 230.07 50.7784 260.472 50.7784 297.976C50.7784 335.48 81.3179 365.883 118.99 365.883Z" stroke="#00FFC8" stroke-width="0.5" stroke-miterlimit="10" stroke-linecap="round"/>
<path d="M60.749 307.694C66.077 307.694 70.3961 303.375 70.3961 298.047C70.3961 292.718 66.077 288.399 60.749 288.399C55.4211 288.399 51.1019 292.718 51.1019 298.047C51.1019 303.375 55.4211 307.694 60.749 307.694Z" stroke="#00FFC8" stroke-width="0.5" stroke-miterlimit="10" stroke-linecap="round"/>
<path opacity="0.3" d="M187.202 357.11C219.819 357.11 246.26 330.666 246.26 298.047C246.26 265.427 219.819 238.983 187.202 238.983C154.585 238.983 128.144 265.427 128.144 298.047C128.144 330.666 154.585 357.11 187.202 357.11Z" stroke="#00FFC8" stroke-width="0.5" stroke-miterlimit="10" stroke-linecap="round"/>
<path opacity="0.3" d="M187.202 352.446C217.243 352.446 241.597 328.09 241.597 298.047C241.597 268.003 217.243 243.648 187.202 243.648C157.161 243.648 132.808 268.003 132.808 298.047C132.808 328.09 157.161 352.446 187.202 352.446Z" stroke="#00FFC8" stroke-width="0.5" stroke-miterlimit="10" stroke-linecap="round"/>
<path d="M307.046 314.377C316.064 314.377 323.375 307.065 323.375 298.047C323.375 289.028 316.064 281.716 307.046 281.716C298.028 281.716 290.718 289.028 290.718 298.047C290.718 307.065 298.028 314.377 307.046 314.377Z" stroke="#00FFC8" stroke-width="0.5" stroke-miterlimit="10" stroke-linecap="round"/>
<path d="M313.691 307.732C319.039 307.732 323.375 303.395 323.375 298.046C323.375 292.697 319.039 288.361 313.691 288.361C308.342 288.361 304.006 292.697 304.006 298.046C304.006 303.395 308.342 307.732 313.691 307.732Z" stroke="#00FFC8" stroke-width="0.5" stroke-miterlimit="10" stroke-linecap="round"/>
<path d="M187.221 388.071C236.926 388.071 277.22 347.774 277.22 298.065C277.22 248.356 236.926 208.059 187.221 208.059C137.516 208.059 97.2222 248.356 97.2222 298.065C97.2222 347.774 137.516 388.071 187.221 388.071Z" stroke="#00FFC8" stroke-width="0.5" stroke-miterlimit="10"/>
<path d="M270.573 298.063C270.573 344.104 233.246 381.435 187.221 381.435C76.6525 377.044 76.6899 219.088 187.221 214.712C233.258 214.712 270.573 252.043 270.573 298.084V298.063Z" stroke="#00FFC8" stroke-width="0.5" stroke-miterlimit="10" stroke-dasharray="30.07 10.02"/>
<path d="M187.237 451.158C271.801 451.158 340.353 382.6 340.353 298.03C340.353 213.46 271.801 144.902 187.237 144.902C102.674 144.902 34.1221 213.46 34.1221 298.03C34.1221 382.6 102.674 451.158 187.237 451.158Z" stroke="#00FFC8" stroke-width="0.5" stroke-miterlimit="10"/>
<path d="M187.237 434.179C262.424 434.179 323.375 373.223 323.375 298.03C323.375 222.837 262.424 161.881 187.237 161.881C112.051 161.881 51.0999 222.837 51.0999 298.03C51.0999 373.223 112.051 434.179 187.237 434.179Z" stroke="#00FFC8" stroke-width="0.5" stroke-miterlimit="10"/>
<path d="M187.237 414.881C251.767 414.881 304.079 362.565 304.079 298.03C304.079 233.495 251.767 181.179 187.237 181.179C122.708 181.179 70.3961 233.495 70.3961 298.03C70.3961 362.565 122.708 414.881 187.237 414.881Z" stroke="#00FFC8" stroke-width="0.5" stroke-miterlimit="10"/>
<path d="M187.221 453.122C272.84 453.122 342.248 383.708 342.248 298.082C342.248 212.455 272.84 143.041 187.221 143.041C101.602 143.041 32.1934 212.455 32.1934 298.082C32.1934 383.708 101.602 453.122 187.221 453.122Z" stroke="#00FFC8" stroke-width="0.5" stroke-miterlimit="10" stroke-linecap="round"/>
<path opacity="0.8" d="M187.221 454.968C273.859 454.968 344.094 384.728 344.094 298.082C344.094 211.436 273.859 141.196 187.221 141.196C100.582 141.196 30.3478 211.436 30.3478 298.082C30.3478 384.728 100.582 454.968 187.221 454.968Z" stroke="#00FFC8" stroke-width="0.5" stroke-miterlimit="10" stroke-linecap="round"/>
<path opacity="0.6" d="M187.221 456.812C274.878 456.812 345.938 385.746 345.938 298.082C345.938 210.418 274.878 139.352 187.221 139.352C99.5641 139.352 28.5043 210.418 28.5043 298.082C28.5043 385.746 99.5641 456.812 187.221 456.812Z" stroke="#00FFC8" stroke-width="0.5" stroke-miterlimit="10" stroke-linecap="round"/>
<path opacity="0.4" d="M187.221 458.657C275.897 458.657 347.783 386.765 347.783 298.082C347.783 209.398 275.897 137.506 187.221 137.506C98.5447 137.506 26.6586 209.398 26.6586 298.082C26.6586 386.765 98.5447 458.657 187.221 458.657Z" stroke="#00FFC8" stroke-width="0.5" stroke-miterlimit="10" stroke-linecap="round"/>
<path opacity="0.2" d="M187.221 460.503C276.916 460.503 349.629 387.785 349.629 298.082C349.629 208.379 276.916 135.66 187.221 135.66C97.5255 135.66 24.813 208.379 24.813 298.082C24.813 387.785 97.5255 460.503 187.221 460.503Z" stroke="#00FFC8" stroke-width="0.5" stroke-miterlimit="10" stroke-linecap="round"/>
<path opacity="0.55" d="M187.221 445.024C268.285 445.024 334.001 379.302 334.001 298.231C334.001 217.16 268.285 151.439 187.221 151.439C106.156 151.439 40.4408 217.16 40.4408 298.231C40.4408 379.302 106.156 445.024 187.221 445.024Z" stroke="#00FFC8" stroke-width="0.5" stroke-miterlimit="10"/>
<path d="M187.221 442.809C267.062 442.809 331.786 378.079 331.786 298.231C331.786 218.383 267.062 153.654 187.221 153.654C107.38 153.654 42.6555 218.383 42.6555 298.231C42.6555 378.079 107.38 442.809 187.221 442.809Z" stroke="#00FFC8" stroke-width="0.5" stroke-miterlimit="10" stroke-dasharray="0.1 12"/>
<path d="M187.221 389.428C237.675 389.428 278.576 348.523 278.576 298.065C278.576 247.607 237.675 206.703 187.221 206.703C136.767 206.703 95.8658 247.607 95.8658 298.065C95.8658 348.523 136.767 389.428 187.221 389.428Z" stroke="#00FFC8" stroke-width="0.5" stroke-miterlimit="10"/>
<path opacity="0.8" d="M187.221 391.274C238.694 391.274 280.421 349.543 280.421 298.065C280.421 246.588 238.694 204.857 187.221 204.857C135.748 204.857 94.0203 246.588 94.0203 298.065C94.0203 349.543 135.748 391.274 187.221 391.274Z" stroke="#00FFC8" stroke-width="0.5" stroke-miterlimit="10" stroke-linecap="round"/>
<path opacity="0.6" d="M187.221 393.119C239.713 393.119 282.267 350.562 282.267 298.065C282.267 245.568 239.713 203.011 187.221 203.011C134.728 203.011 92.1746 245.568 92.1746 298.065C92.1746 350.562 134.728 393.119 187.221 393.119Z" stroke="#00FFC8" stroke-width="0.5" stroke-miterlimit="10" stroke-linecap="round"/>
<path opacity="0.4" d="M187.221 394.965C240.733 394.965 284.113 351.582 284.113 298.065C284.113 244.549 240.733 201.165 187.221 201.165C133.709 201.165 90.329 244.549 90.329 298.065C90.329 351.582 133.709 394.965 187.221 394.965Z" stroke="#00FFC8" stroke-width="0.5" stroke-miterlimit="10" stroke-linecap="round"/>
<path opacity="0.2" d="M187.221 396.811C241.752 396.811 285.958 352.601 285.958 298.065C285.958 243.529 241.752 199.319 187.221 199.319C132.69 199.319 88.4834 243.529 88.4834 298.065C88.4834 352.601 132.69 396.811 187.221 396.811Z" stroke="#00FFC8" stroke-width="0.5" stroke-miterlimit="10" stroke-linecap="round"/>
<path d="M175.595 393.534C132.242 388.324 98.0247 353.41 93.8896 309.733" stroke="#00FFC8" stroke-width="0.5" stroke-miterlimit="10" stroke-linecap="round"/>
<path d="M93.732 308.833C94.3859 308.833 94.9161 308.303 94.9161 307.649C94.9161 306.995 94.3859 306.465 93.732 306.465C93.078 306.465 92.5479 306.995 92.5479 307.649C92.5479 308.303 93.078 308.833 93.732 308.833Z" stroke="#00FFC8" stroke-width="0.5" stroke-miterlimit="10"/>
<path d="M94.5553 316.185C95.2093 316.185 95.7394 315.655 95.7394 315.001C95.7394 314.347 95.2093 313.817 94.5553 313.817C93.9014 313.817 93.3712 314.347 93.3712 315.001C93.3712 315.655 93.9014 316.185 94.5553 316.185Z" stroke="#00FFC8" stroke-width="0.5" stroke-miterlimit="10"/>
<path d="M95.9509 323.429C96.6049 323.429 97.1351 322.899 97.1351 322.245C97.1351 321.591 96.6049 321.061 95.9509 321.061C95.297 321.061 94.7668 321.591 94.7668 322.245C94.7668 322.899 95.297 323.429 95.9509 323.429Z" stroke="#00FFC8" stroke-width="0.5" stroke-miterlimit="10"/>
<path d="M97.9107 330.547C98.5646 330.547 99.0948 330.017 99.0948 329.363C99.0948 328.709 98.5646 328.179 97.9107 328.179C97.2567 328.179 96.7266 328.709 96.7266 329.363C96.7266 330.017 97.2567 330.547 97.9107 330.547Z" stroke="#00FFC8" stroke-width="0.5" stroke-miterlimit="10"/>
<path d="M100.426 337.447C101.08 337.447 101.61 336.917 101.61 336.263C101.61 335.609 101.08 335.079 100.426 335.079C99.7721 335.079 99.2419 335.609 99.2419 336.263C99.2419 336.917 99.7721 337.447 100.426 337.447Z" stroke="#00FFC8" stroke-width="0.5" stroke-miterlimit="10"/>
<path d="M103.516 344.148C104.17 344.148 104.7 343.618 104.7 342.964C104.7 342.31 104.17 341.779 103.516 341.779C102.862 341.779 102.332 342.31 102.332 342.964C102.332 343.618 102.862 344.148 103.516 344.148Z" stroke="#00FFC8" stroke-width="0.5" stroke-miterlimit="10"/>
<path d="M107.116 350.608C107.77 350.608 108.3 350.078 108.3 349.424C108.3 348.77 107.77 348.24 107.116 348.24C106.462 348.24 105.932 348.77 105.932 349.424C105.932 350.078 106.462 350.608 107.116 350.608Z" stroke="#00FFC8" stroke-width="0.5" stroke-miterlimit="10"/>
<path d="M111.185 356.753C111.839 356.753 112.369 356.223 112.369 355.569C112.369 354.915 111.839 354.385 111.185 354.385C110.531 354.385 110.001 354.915 110.001 355.569C110.001 356.223 110.531 356.753 111.185 356.753Z" stroke="#00FFC8" stroke-width="0.5" stroke-miterlimit="10"/>
<path d="M115.743 362.529C116.397 362.529 116.927 361.999 116.927 361.345C116.927 360.691 116.397 360.161 115.743 360.161C115.089 360.161 114.559 360.691 114.559 361.345C114.559 361.999 115.089 362.529 115.743 362.529Z" stroke="#00FFC8" stroke-width="0.5" stroke-miterlimit="10"/>
<path d="M120.734 367.959C121.388 367.959 121.918 367.428 121.918 366.774C121.918 366.12 121.388 365.59 120.734 365.59C120.08 365.59 119.55 366.12 119.55 366.774C119.55 367.428 120.08 367.959 120.734 367.959Z" stroke="#00FFC8" stroke-width="0.5" stroke-miterlimit="10"/>
<path d="M126.132 372.953C126.786 372.953 127.316 372.422 127.316 371.768C127.316 371.114 126.786 370.584 126.132 370.584C125.478 370.584 124.948 371.114 124.948 371.768C124.948 372.422 125.478 372.953 126.132 372.953Z" stroke="#00FFC8" stroke-width="0.5" stroke-miterlimit="10"/>
<path d="M131.93 377.54C132.584 377.54 133.115 377.01 133.115 376.356C133.115 375.702 132.584 375.172 131.93 375.172C131.276 375.172 130.746 375.702 130.746 376.356C130.746 377.01 131.276 377.54 131.93 377.54Z" stroke="#00FFC8" stroke-width="0.5" stroke-miterlimit="10"/>
<path d="M138.044 381.663C138.698 381.663 139.228 381.133 139.228 380.479C139.228 379.825 138.698 379.295 138.044 379.295C137.39 379.295 136.86 379.825 136.86 380.479C136.86 381.133 137.39 381.663 138.044 381.663Z" stroke="#00FFC8" stroke-width="0.5" stroke-miterlimit="10"/>
<path d="M144.458 385.23C145.112 385.23 145.642 384.7 145.642 384.046C145.642 383.392 145.112 382.862 144.458 382.862C143.804 382.862 143.274 383.392 143.274 384.046C143.274 384.7 143.804 385.23 144.458 385.23Z" stroke="#00FFC8" stroke-width="0.5" stroke-miterlimit="10"/>
<path d="M151.148 388.306C151.802 388.306 152.332 387.776 152.332 387.122C152.332 386.468 151.802 385.937 151.148 385.937C150.494 385.937 149.964 386.468 149.964 387.122C149.964 387.776 150.494 388.306 151.148 388.306Z" stroke="#00FFC8" stroke-width="0.5" stroke-miterlimit="10"/>
<path d="M158.085 390.871C158.739 390.871 159.269 390.341 159.269 389.687C159.269 389.033 158.739 388.503 158.085 388.503C157.431 388.503 156.901 389.033 156.901 389.687C156.901 390.341 157.431 390.871 158.085 390.871Z" stroke="#00FFC8" stroke-width="0.5" stroke-miterlimit="10"/>
<path d="M165.177 392.866C165.831 392.866 166.361 392.336 166.361 391.682C166.361 391.028 165.831 390.498 165.177 390.498C164.523 390.498 163.993 391.028 163.993 391.682C163.993 392.336 164.523 392.866 165.177 392.866Z" stroke="#00FFC8" stroke-width="0.5" stroke-miterlimit="10"/>
<path d="M172.414 394.287C173.068 394.287 173.598 393.757 173.598 393.103C173.598 392.449 173.068 391.919 172.414 391.919C171.76 391.919 171.23 392.449 171.23 393.103C171.23 393.757 171.76 394.287 172.414 394.287Z" stroke="#00FFC8" stroke-width="0.5" stroke-miterlimit="10"/>
<path d="M179.726 395.129C180.38 395.129 180.91 394.599 180.91 393.945C180.91 393.291 180.38 392.761 179.726 392.761C179.072 392.761 178.542 393.291 178.542 393.945C178.542 394.599 179.072 395.129 179.726 395.129Z" stroke="#00FFC8" stroke-width="0.5" stroke-miterlimit="10"/>
<path d="M52.1263 226.822C52.636 226.822 53.0491 226.409 53.0491 225.899C53.0491 225.389 52.636 224.976 52.1263 224.976C51.6167 224.976 51.2035 225.389 51.2035 225.899C51.2035 226.409 51.6167 226.822 52.1263 226.822Z" stroke="#00FFC8" stroke-width="0.5" stroke-miterlimit="10"/>
<path d="M112.715 165.145C113.225 165.145 113.638 164.732 113.638 164.222C113.638 163.713 113.225 163.299 112.715 163.299C112.205 163.299 111.792 163.713 111.792 164.222C111.792 164.732 112.205 165.145 112.715 165.145Z" stroke="#00FFC8" stroke-width="0.5" stroke-miterlimit="10"/>
<path d="M187.202 183.947C188.731 183.947 189.971 182.708 189.971 181.179C189.971 179.65 188.731 178.41 187.202 178.41C185.673 178.41 184.434 179.65 184.434 181.179C184.434 182.708 185.673 183.947 187.202 183.947Z" stroke="#00FFC8" stroke-width="0.5" stroke-miterlimit="10"/>
<path d="M70.3961 298.582C70.6916 298.582 70.9311 298.342 70.9311 298.046C70.9311 297.751 70.6916 297.511 70.3961 297.511C70.1006 297.511 69.8611 297.751 69.8611 298.046C69.8611 298.342 70.1006 298.582 70.3961 298.582Z" stroke="#00FFC8" stroke-width="0.5" stroke-miterlimit="10"/>
<path d="M40.4408 298.582C40.7363 298.582 40.9758 298.342 40.9758 298.046C40.9758 297.751 40.7363 297.511 40.4408 297.511C40.1453 297.511 39.9058 297.751 39.9058 298.046C39.9058 298.342 40.1453 298.582 40.4408 298.582Z" stroke="#00FFC8" stroke-width="0.5" stroke-miterlimit="10"/>
<path d="M51.1019 298.582C51.3974 298.582 51.6369 298.342 51.6369 298.046C51.6369 297.751 51.3974 297.511 51.1019 297.511C50.8064 297.511 50.5669 297.751 50.5669 298.046C50.5669 298.342 50.8064 298.582 51.1019 298.582Z" stroke="#00FFC8" stroke-width="0.5" stroke-miterlimit="10"/>
<path d="M310.109 298.582C310.405 298.582 310.644 298.342 310.644 298.046C310.644 297.751 310.405 297.511 310.109 297.511C309.814 297.511 309.574 297.751 309.574 298.046C309.574 298.342 309.814 298.582 310.109 298.582Z" stroke="#00FFC8" stroke-width="0.5" stroke-miterlimit="10"/>
<path d="M323.375 298.582C323.671 298.582 323.91 298.342 323.91 298.046C323.91 297.751 323.671 297.511 323.375 297.511C323.08 297.511 322.84 297.751 322.84 298.046C322.84 298.342 323.08 298.582 323.375 298.582Z" stroke="#00FFC8" stroke-width="0.5" stroke-miterlimit="10"/>
<path d="M187.202 423.554C187.498 423.554 187.737 423.315 187.737 423.019C187.737 422.724 187.498 422.484 187.202 422.484C186.907 422.484 186.667 422.724 186.667 423.019C186.667 423.315 186.907 423.554 187.202 423.554Z" stroke="#00FFC8" stroke-width="0.5" stroke-miterlimit="10"/>
<path d="M187.202 174.507C187.498 174.507 187.737 174.267 187.737 173.972C187.737 173.676 187.498 173.437 187.202 173.437C186.907 173.437 186.667 173.676 186.667 173.972C186.667 174.267 186.907 174.507 187.202 174.507Z" stroke="#00FFC8" stroke-width="0.5" stroke-miterlimit="10"/>
<path d="M187.202 417.65C188.731 417.65 189.971 416.41 189.971 414.881C189.971 413.352 188.731 412.112 187.202 412.112C185.673 412.112 184.434 413.352 184.434 414.881C184.434 416.41 185.673 417.65 187.202 417.65Z" stroke="#00FFC8" stroke-width="0.5" stroke-miterlimit="10"/>
<path d="M267.212 168.335C267.721 168.335 268.134 167.922 268.134 167.412C268.134 166.902 267.721 166.489 267.212 166.489C266.702 166.489 266.289 166.902 266.289 167.412C266.289 167.922 266.702 168.335 267.212 168.335Z" stroke="#00FFC8" stroke-width="0.5" stroke-miterlimit="10"/>
<path d="M323.087 228.319C323.596 228.319 324.01 227.906 324.01 227.396C324.01 226.887 323.596 226.473 323.087 226.473C322.577 226.473 322.164 226.887 322.164 227.396C322.164 227.906 322.577 228.319 323.087 228.319Z" stroke="#00FFC8" stroke-width="0.5" stroke-miterlimit="10"/>
<path d="M320.011 375.271C320.521 375.271 320.934 374.858 320.934 374.348C320.934 373.839 320.521 373.425 320.011 373.425C319.502 373.425 319.089 373.839 319.089 374.348C319.089 374.858 319.502 375.271 320.011 375.271Z" stroke="#00FFC8" stroke-width="0.5" stroke-miterlimit="10"/>
<path d="M258.207 434.6C258.717 434.6 259.13 434.187 259.13 433.677C259.13 433.167 258.717 432.754 258.207 432.754C257.698 432.754 257.285 433.167 257.285 433.677C257.285 434.187 257.698 434.6 258.207 434.6Z" stroke="#00FFC8" stroke-width="0.5" stroke-miterlimit="10"/>
<path d="M109.847 431.07C110.357 431.07 110.77 430.657 110.77 430.147C110.77 429.638 110.357 429.224 109.847 429.224C109.337 429.224 108.924 429.638 108.924 430.147C108.924 430.657 109.337 431.07 109.847 431.07Z" stroke="#00FFC8" stroke-width="0.5" stroke-miterlimit="10"/>
<path d="M52.2446 371.358C52.7542 371.358 53.1674 370.945 53.1674 370.435C53.1674 369.925 52.7542 369.512 52.2446 369.512C51.7349 369.512 51.3218 369.925 51.3218 370.435C51.3218 370.945 51.7349 371.358 52.2446 371.358Z" stroke="#00FFC8" stroke-width="0.5" stroke-miterlimit="10"/>
<path d="M187.221 474.098C284.424 474.098 363.222 395.293 363.222 298.082C363.222 200.871 284.424 122.066 187.221 122.066C90.018 122.066 11.2195 200.871 11.2195 298.082C11.2195 395.293 90.018 474.098 187.221 474.098Z" stroke="#00FFC8" stroke-width="0.5" stroke-miterlimit="10" stroke-linecap="round"/>
<path d="M112.844 227.541C113.15 227.541 113.397 227.293 113.397 226.988C113.397 226.682 113.15 226.434 112.844 226.434C112.538 226.434 112.29 226.682 112.29 226.988C112.29 227.293 112.538 227.541 112.844 227.541Z" stroke="#00FFC8" stroke-width="0.5" stroke-miterlimit="10"/>
<path d="M111.736 258.814C112.042 258.814 112.29 258.566 112.29 258.26C112.29 257.955 112.042 257.707 111.736 257.707C111.431 257.707 111.183 257.955 111.183 258.26C111.183 258.566 111.431 258.814 111.736 258.814Z" stroke="#00FFC8" stroke-width="0.5" stroke-miterlimit="10"/>
<path d="M110.631 342.142C110.937 342.142 111.185 341.894 111.185 341.589C111.185 341.283 110.937 341.035 110.631 341.035C110.325 341.035 110.077 341.283 110.077 341.589C110.077 341.894 110.325 342.142 110.631 342.142Z" stroke="#00FFC8" stroke-width="0.5" stroke-miterlimit="10"/>
<path d="M112.844 375.197C113.15 375.197 113.397 374.949 113.397 374.643C113.397 374.337 113.15 374.089 112.844 374.089C112.538 374.089 112.29 374.337 112.29 374.643C112.29 374.949 112.538 375.197 112.844 375.197Z" stroke="#00FFC8" stroke-width="0.5" stroke-miterlimit="10"/>
<path d="M112.844 380.479C113.15 380.479 113.397 380.231 113.397 379.925C113.397 379.619 113.15 379.371 112.844 379.371C112.538 379.371 112.29 379.619 112.29 379.925C112.29 380.231 112.538 380.479 112.844 380.479Z" stroke="#00FFC8" stroke-width="0.5" stroke-miterlimit="10"/>
<path d="M107.57 375.203C107.876 375.203 108.124 374.955 108.124 374.649C108.124 374.343 107.876 374.095 107.57 374.095C107.264 374.095 107.016 374.343 107.016 374.649C107.016 374.955 107.264 375.203 107.57 375.203Z" stroke="#00FFC8" stroke-width="0.5" stroke-miterlimit="10"/>
<path d="M88.1142 356.123C88.42 356.123 88.6679 355.875 88.6679 355.569C88.6679 355.263 88.42 355.015 88.1142 355.015C87.8084 355.015 87.5605 355.263 87.5605 355.569C87.5605 355.875 87.8084 356.123 88.1142 356.123Z" stroke="#00FFC8" stroke-width="0.5" stroke-miterlimit="10"/>
<path d="M260.609 375.197C260.915 375.197 261.163 374.949 261.163 374.643C261.163 374.337 260.915 374.089 260.609 374.089C260.303 374.089 260.055 374.337 260.055 374.643C260.055 374.949 260.303 375.197 260.609 375.197Z" stroke="#00FFC8" stroke-width="0.5" stroke-miterlimit="10"/>
<path d="M260.489 221.699C260.794 221.699 261.042 221.451 261.042 221.145C261.042 220.84 260.794 220.592 260.489 220.592C260.183 220.592 259.935 220.84 259.935 221.145C259.935 221.451 260.183 221.699 260.489 221.699Z" stroke="#00FFC8" stroke-width="0.5" stroke-miterlimit="10"/>
<path d="M266.278 227.49C266.584 227.49 266.832 227.242 266.832 226.936C266.832 226.63 266.584 226.382 266.278 226.382C265.973 226.382 265.725 226.63 265.725 226.936C265.725 227.242 265.973 227.49 266.278 227.49Z" stroke="#00FFC8" stroke-width="0.5" stroke-miterlimit="10"/>
<path d="M260.489 227.49C260.794 227.49 261.042 227.242 261.042 226.936C261.042 226.63 260.794 226.382 260.489 226.382C260.183 226.382 259.935 226.63 259.935 226.936C259.935 227.242 260.183 227.49 260.489 227.49Z" stroke="#00FFC8" stroke-width="0.5" stroke-miterlimit="10"/>
<path d="M227.236 227.49C227.542 227.49 227.79 227.242 227.79 226.936C227.79 226.63 227.542 226.382 227.236 226.382C226.93 226.382 226.682 226.63 226.682 226.936C226.682 227.242 226.93 227.49 227.236 227.49Z" stroke="#00FFC8" stroke-width="0.5" stroke-miterlimit="10"/>
<path d="M241.111 202.254C241.417 202.254 241.665 202.006 241.665 201.7C241.665 201.395 241.417 201.147 241.111 201.147C240.806 201.147 240.558 201.395 240.558 201.7C240.558 202.006 240.806 202.254 241.111 202.254Z" stroke="#00FFC8" stroke-width="0.5" stroke-miterlimit="10"/>
<path d="M285.589 246.92C285.895 246.92 286.143 246.672 286.143 246.366C286.143 246.061 285.895 245.813 285.589 245.813C285.283 245.813 285.036 246.061 285.036 246.366C285.036 246.672 285.283 246.92 285.589 246.92Z" stroke="#00FFC8" stroke-width="0.5" stroke-miterlimit="10"/>
<path d="M262.571 259.874C262.876 259.874 263.124 259.626 263.124 259.32C263.124 259.014 262.876 258.766 262.571 258.766C262.265 258.766 262.017 259.014 262.017 259.32C262.017 259.626 262.265 259.874 262.571 259.874Z" stroke="#00FFC8" stroke-width="0.5" stroke-miterlimit="10"/>
<path d="M132.484 400.115C132.79 400.115 133.038 399.867 133.038 399.561C133.038 399.255 132.79 399.007 132.484 399.007C132.178 399.007 131.93 399.255 131.93 399.561C131.93 399.867 132.178 400.115 132.484 400.115Z" stroke="#00FFC8" stroke-width="0.5" stroke-miterlimit="10"/>
<path d="M362.853 299.892C363.872 299.892 364.699 299.066 364.699 298.047C364.699 297.027 363.872 296.201 362.853 296.201C361.834 296.201 361.007 297.027 361.007 298.047C361.007 299.066 361.834 299.892 362.853 299.892Z" stroke="#00FFC8" stroke-width="0.5" stroke-miterlimit="10"/>
<path d="M362.853 298.582C363.149 298.582 363.388 298.342 363.388 298.046C363.388 297.751 363.149 297.511 362.853 297.511C362.558 297.511 362.318 297.751 362.318 298.046C362.318 298.342 362.558 298.582 362.853 298.582Z" stroke="#00FFC8" stroke-width="0.5" stroke-miterlimit="10"/>
<path opacity="0.5" d="M12.9407 472.144L361.464 123.592" stroke="#00FFC8" stroke-width="0.5" stroke-miterlimit="10" stroke-linecap="round"/>
<path d="M187.202 325.731C202.491 325.731 214.885 313.337 214.885 298.047C214.885 282.757 202.491 270.362 187.202 270.362C171.914 270.362 159.52 282.757 159.52 298.047C159.52 313.337 171.914 325.731 187.202 325.731Z" stroke="#00FFC8" stroke-width="0.5" stroke-miterlimit="10" stroke-linecap="round"/>
<path d="M187.202 322.583C201.621 322.583 213.311 310.893 213.311 296.472C213.311 282.052 201.621 270.362 187.202 270.362C172.783 270.362 161.094 282.052 161.094 296.472C161.094 310.893 172.783 322.583 187.202 322.583Z" stroke="#00FFC8" stroke-width="0.5" stroke-miterlimit="10" stroke-linecap="round"/>
<path d="M187.202 319.286C200.711 319.286 211.662 308.334 211.662 294.824C211.662 281.314 200.711 270.362 187.202 270.362C173.693 270.362 162.742 281.314 162.742 294.824C162.742 308.334 173.693 319.286 187.202 319.286Z" stroke="#00FFC8" stroke-width="0.5" stroke-miterlimit="10" stroke-linecap="round"/>
<path d="M201.044 311.89C208.689 311.89 214.887 305.692 214.887 298.047C214.887 290.401 208.689 284.203 201.044 284.203C193.4 284.203 187.202 290.401 187.202 298.047C187.202 305.692 193.4 311.89 201.044 311.89Z" stroke="#00FFC8" stroke-width="0.5" stroke-miterlimit="10" stroke-linecap="round"/>
<path d="M187.202 288.82C192.299 288.82 196.43 284.688 196.43 279.591C196.43 274.494 192.299 270.362 187.202 270.362C182.106 270.362 177.974 274.494 177.974 279.591C177.974 284.688 182.106 288.82 187.202 288.82Z" stroke="#00FFC8" stroke-width="0.5" stroke-miterlimit="10" stroke-linecap="round"/>
<path d="M187.202 279.591C189.75 279.591 191.816 277.525 191.816 274.976C191.816 272.428 189.75 270.362 187.202 270.362C184.654 270.362 182.588 272.428 182.588 274.976C182.588 277.525 184.654 279.591 187.202 279.591Z" stroke="#00FFC8" stroke-width="0.5" stroke-miterlimit="10" stroke-linecap="round"/>
<path d="M187.202 273.245C187.998 273.245 188.643 272.599 188.643 271.803C188.643 271.007 187.998 270.362 187.202 270.362C186.406 270.362 185.761 271.007 185.761 271.803C185.761 272.599 186.406 273.245 187.202 273.245Z" stroke="#00FFC8" stroke-width="0.5" stroke-miterlimit="10" stroke-linecap="round"/>
<path d="M187.202 325.733C192.299 325.733 196.43 321.602 196.43 316.505C196.43 311.407 192.299 307.276 187.202 307.276C182.106 307.276 177.974 311.407 177.974 316.505C177.974 321.602 182.106 325.733 187.202 325.733Z" stroke="#00FFC8" stroke-width="0.5" stroke-miterlimit="10" stroke-linecap="round"/>
<path d="M150.627 266.201C153.242 266.201 155.362 264.082 155.362 261.467C155.362 258.852 153.242 256.732 150.627 256.732C148.013 256.732 145.893 258.852 145.893 261.467C145.893 264.082 148.013 266.201 150.627 266.201Z" stroke="#00FFC8" stroke-width="0.5" stroke-miterlimit="10" stroke-linecap="round"/>
<path d="M218.646 330.601C219.258 330.601 219.754 330.105 219.754 329.493C219.754 328.882 219.258 328.386 218.646 328.386C218.035 328.386 217.539 328.882 217.539 329.493C217.539 330.105 218.035 330.601 218.646 330.601Z" stroke="#00FFC8" stroke-width="0.5" stroke-miterlimit="10" stroke-linecap="round"/>
<path d="M230.05 343.262C231.357 343.262 232.416 342.203 232.416 340.896C232.416 339.589 231.357 338.53 230.05 338.53C228.743 338.53 227.684 339.589 227.684 340.896C227.684 342.203 228.743 343.262 230.05 343.262Z" stroke="#00FFC8" stroke-width="0.5" stroke-miterlimit="10" stroke-linecap="round"/>
<path d="M136.719 350.903C138.026 350.903 139.085 349.843 139.085 348.536C139.085 347.229 138.026 346.17 136.719 346.17C135.412 346.17 134.353 347.229 134.353 348.536C134.353 349.843 135.412 350.903 136.719 350.903Z" stroke="#00FFC8" stroke-width="0.5" stroke-miterlimit="10" stroke-linecap="round"/>
<path d="M238.324 249.287C239.631 249.287 240.69 248.227 240.69 246.92C240.69 245.613 239.631 244.554 238.324 244.554C237.018 244.554 235.958 245.613 235.958 246.92C235.958 248.227 237.018 249.287 238.324 249.287Z" stroke="#00FFC8" stroke-width="0.5" stroke-miterlimit="10" stroke-linecap="round"/>
<path d="M173.362 311.89C181.007 311.89 187.204 305.692 187.204 298.047C187.204 290.401 181.007 284.203 173.362 284.203C165.717 284.203 159.52 290.401 159.52 298.047C159.52 305.692 165.717 311.89 173.362 311.89Z" stroke="#00FFC8" stroke-width="0.5" stroke-miterlimit="10" stroke-linecap="round"/>
<path d="M187.202 299.417C187.998 299.417 188.643 298.772 188.643 297.976C188.643 297.18 187.998 296.535 187.202 296.535C186.406 296.535 185.761 297.18 185.761 297.976C185.761 298.772 186.406 299.417 187.202 299.417Z" stroke="#00FFC8" stroke-width="0.5" stroke-miterlimit="10" stroke-linecap="round"/>
<path d="M238.465 246.781L135.941 349.312" stroke="#00FFC8" stroke-width="0.5" stroke-miterlimit="10" stroke-linecap="round"/>
<path d="M150.706 261.545L231.083 341.931" stroke="#00FFC8" stroke-width="0.5" stroke-miterlimit="10" stroke-linecap="round"/>
<path d="M142.556 272.236L240.983 329.063" stroke="#00FFC8" stroke-width="0.5" stroke-miterlimit="10" stroke-linecap="round"/>
<path d="M223.506 235.244L150.992 360.837" stroke="#00FFC8" stroke-width="0.5" stroke-miterlimit="10" stroke-linecap="round"/>
<path opacity="0.5" d="M63.9495 511.343L310.455 84.3933" stroke="#00FFC8" stroke-width="0.5" stroke-miterlimit="10" stroke-linecap="round"/>
<path d="M194.408 324.782C209.176 320.822 217.942 305.639 213.988 290.87C210.033 276.101 194.856 267.339 180.088 271.299C165.321 275.259 156.555 290.442 160.509 305.211C164.463 319.98 179.64 328.742 194.408 324.782Z" stroke="#00FFC8" stroke-width="0.5" stroke-miterlimit="10" stroke-linecap="round"/>
<path d="M193.594 321.741C207.522 318.006 215.79 303.687 212.06 289.757C208.331 275.828 194.017 267.564 180.089 271.299C166.161 275.034 157.893 289.353 161.622 303.283C165.352 317.212 179.666 325.476 193.594 321.741Z" stroke="#00FFC8" stroke-width="0.5" stroke-miterlimit="10" stroke-linecap="round"/>
<path d="M192.741 318.556C205.79 315.057 213.535 301.641 210.041 288.592C206.547 275.542 193.137 267.8 180.088 271.299C167.04 274.798 159.294 288.213 162.788 301.263C166.282 314.313 179.693 322.055 192.741 318.556Z" stroke="#00FFC8" stroke-width="0.5" stroke-miterlimit="10" stroke-linecap="round"/>
<path d="M204.199 307.827C211.583 305.847 215.967 298.255 213.99 290.87C212.012 283.485 204.423 279.103 197.039 281.083C189.654 283.064 185.271 290.655 187.248 298.041C189.226 305.426 196.815 309.807 204.199 307.827Z" stroke="#00FFC8" stroke-width="0.5" stroke-miterlimit="10" stroke-linecap="round"/>
<path d="M184.862 289.128C189.785 287.808 192.707 282.747 191.389 277.823C190.071 272.9 185.011 269.979 180.089 271.299C175.166 272.619 172.243 277.68 173.562 282.604C174.88 287.527 179.939 290.448 184.862 289.128Z" stroke="#00FFC8" stroke-width="0.5" stroke-miterlimit="10" stroke-linecap="round"/>
<path d="M182.475 280.214C184.937 279.553 186.398 277.023 185.739 274.561C185.08 272.099 182.55 270.639 180.088 271.299C177.627 271.959 176.166 274.49 176.825 276.951C177.484 279.413 180.014 280.874 182.475 280.214Z" stroke="#00FFC8" stroke-width="0.5" stroke-miterlimit="10" stroke-linecap="round"/>
<path d="M180.834 274.084C181.603 273.877 182.059 273.087 181.853 272.318C181.647 271.549 180.857 271.093 180.088 271.299C179.32 271.505 178.863 272.296 179.069 273.065C179.275 273.834 180.065 274.29 180.834 274.084Z" stroke="#00FFC8" stroke-width="0.5" stroke-miterlimit="10" stroke-linecap="round"/>
<path d="M194.409 324.784C199.332 323.464 202.254 318.403 200.936 313.479C199.617 308.556 194.558 305.635 189.635 306.955C184.712 308.275 181.79 313.336 183.108 318.26C184.426 323.183 189.486 326.104 194.409 324.784Z" stroke="#00FFC8" stroke-width="0.5" stroke-miterlimit="10" stroke-linecap="round"/>
<path d="M143.684 276.754C146.21 276.077 147.709 273.48 147.033 270.954C146.356 268.429 143.761 266.93 141.235 267.607C138.709 268.284 137.21 270.881 137.886 273.407C138.563 275.933 141.158 277.431 143.684 276.754Z" stroke="#00FFC8" stroke-width="0.5" stroke-miterlimit="10" stroke-linecap="round"/>
<path d="M226.04 321.341C226.631 321.182 226.982 320.575 226.824 319.984C226.665 319.394 226.058 319.043 225.467 319.201C224.877 319.36 224.526 319.967 224.684 320.558C224.842 321.149 225.45 321.499 226.04 321.341Z" stroke="#00FFC8" stroke-width="0.5" stroke-miterlimit="10" stroke-linecap="round"/>
<path d="M240.33 330.617C241.592 330.279 242.341 328.981 242.003 327.718C241.665 326.456 240.368 325.707 239.106 326.046C237.843 326.384 237.094 327.682 237.432 328.944C237.77 330.207 239.067 330.956 240.33 330.617Z" stroke="#00FFC8" stroke-width="0.5" stroke-miterlimit="10" stroke-linecap="round"/>
<path d="M152.155 362.172C153.417 361.833 154.166 360.535 153.828 359.273C153.49 358.011 152.193 357.262 150.931 357.6C149.668 357.939 148.919 359.236 149.257 360.499C149.595 361.761 150.892 362.51 152.155 362.172Z" stroke="#00FFC8" stroke-width="0.5" stroke-miterlimit="10" stroke-linecap="round"/>
<path d="M224.018 237.7C225.281 237.362 226.03 236.064 225.692 234.802C225.354 233.539 224.057 232.79 222.794 233.129C221.532 233.467 220.783 234.765 221.121 236.027C221.459 237.29 222.756 238.039 224.018 237.7Z" stroke="#00FFC8" stroke-width="0.5" stroke-miterlimit="10" stroke-linecap="round"/>
<path d="M177.46 314.997C184.844 313.017 189.228 305.425 187.25 298.04C185.273 290.655 177.684 286.274 170.299 288.254C162.915 290.234 158.532 297.826 160.509 305.211C162.486 312.596 170.075 316.977 177.46 314.997Z" stroke="#00FFC8" stroke-width="0.5" stroke-miterlimit="10" stroke-linecap="round"/>
<path d="M187.603 299.365C188.372 299.158 188.828 298.368 188.622 297.599C188.416 296.83 187.626 296.374 186.857 296.58C186.088 296.786 185.632 297.577 185.838 298.346C186.044 299.115 186.834 299.571 187.603 299.365Z" stroke="#00FFC8" stroke-width="0.5" stroke-miterlimit="10" stroke-linecap="round"/>
<path d="M187.202 297.607C187.202 297.607 177.574 447.529 37.2927 447.529" stroke="#00FFC8" stroke-width="0.5" stroke-miterlimit="10" stroke-linecap="round"/>
<path d="M337.109 147.602C337.109 147.602 187.2 157.229 187.2 297.524" stroke="#00FFC8" stroke-width="0.5" stroke-miterlimit="10" stroke-linecap="round"/>
<path d="M337.257 148.842C337.686 148.842 338.034 148.494 338.034 148.064C338.034 147.635 337.686 147.287 337.257 147.287C336.827 147.287 336.479 147.635 336.479 148.064C336.479 148.494 336.827 148.842 337.257 148.842Z" stroke="#00FFC8" stroke-width="0.5" stroke-miterlimit="10" stroke-linecap="round"/>
<path d="M37.523 448.754C37.9525 448.754 38.3007 448.406 38.3007 447.977C38.3007 447.547 37.9525 447.199 37.523 447.199C37.0935 447.199 36.7454 447.547 36.7454 447.977C36.7454 448.406 37.0935 448.754 37.523 448.754Z" stroke="#00FFC8" stroke-width="0.5" stroke-miterlimit="10" stroke-linecap="round"/>
<path d="M361.387 124.299C361.591 124.299 361.756 124.134 361.756 123.93C361.756 123.726 361.591 123.561 361.387 123.561C361.183 123.561 361.018 123.726 361.018 123.93C361.018 124.134 361.183 124.299 361.387 124.299Z" stroke="#00FFC8" stroke-width="0.5" stroke-miterlimit="10"/>
<path d="M197.403 240.371C197.709 240.371 197.957 240.123 197.957 239.817C197.957 239.511 197.709 239.263 197.403 239.263C197.097 239.263 196.849 239.511 196.849 239.817C196.849 240.123 197.097 240.371 197.403 240.371Z" stroke="#00FFC8" stroke-width="0.5" stroke-miterlimit="10"/>
<path d="M212.971 245.135C213.123 245.135 213.246 245.011 213.246 244.859C213.246 244.706 213.123 244.583 212.971 244.583C212.818 244.583 212.695 244.706 212.695 244.859C212.695 245.011 212.818 245.135 212.971 245.135Z" stroke="#00FFC8" stroke-width="0.5" stroke-miterlimit="10"/>
<path d="M246.261 298.252C246.413 298.252 246.536 298.128 246.536 297.976C246.536 297.824 246.413 297.7 246.261 297.7C246.108 297.7 245.985 297.824 245.985 297.976C245.985 298.128 246.108 298.252 246.261 298.252Z" stroke="#00FFC8" stroke-width="0.5" stroke-miterlimit="10"/>
<path d="M241.597 298.252C241.749 298.252 241.872 298.128 241.872 297.976C241.872 297.824 241.749 297.7 241.597 297.7C241.444 297.7 241.321 297.824 241.321 297.976C241.321 298.128 241.444 298.252 241.597 298.252Z" stroke="#00FFC8" stroke-width="0.5" stroke-miterlimit="10"/>
<path d="M228.103 298.252C228.255 298.252 228.379 298.128 228.379 297.976C228.379 297.824 228.255 297.7 228.103 297.7C227.95 297.7 227.827 297.824 227.827 297.976C227.827 298.128 227.95 298.252 228.103 298.252Z" stroke="#00FFC8" stroke-width="0.5" stroke-miterlimit="10"/>
<path d="M187.202 194.894C187.355 194.894 187.478 194.77 187.478 194.618C187.478 194.466 187.355 194.342 187.202 194.342C187.05 194.342 186.926 194.466 186.926 194.618C186.926 194.77 187.05 194.894 187.202 194.894Z" stroke="#00FFC8" stroke-width="0.5" stroke-miterlimit="10"/>
<path d="M187.202 408.257C187.355 408.257 187.478 408.133 187.478 407.981C187.478 407.829 187.355 407.705 187.202 407.705C187.05 407.705 186.926 407.829 186.926 407.981C186.926 408.133 187.05 408.257 187.202 408.257Z" stroke="#00FFC8" stroke-width="0.5" stroke-miterlimit="10"/>
<path d="M147.044 298.252C147.196 298.252 147.32 298.128 147.32 297.976C147.32 297.824 147.196 297.7 147.044 297.7C146.892 297.7 146.768 297.824 146.768 297.976C146.768 298.128 146.892 298.252 147.044 298.252Z" stroke="#00FFC8" stroke-width="0.5" stroke-miterlimit="10"/>
<path d="M132.81 298.252C132.962 298.252 133.086 298.128 133.086 297.976C133.086 297.824 132.962 297.7 132.81 297.7C132.657 297.7 132.534 297.824 132.534 297.976C132.534 298.128 132.657 298.252 132.81 298.252Z" stroke="#00FFC8" stroke-width="0.5" stroke-miterlimit="10"/>
<path d="M128.163 298.252C128.315 298.252 128.438 298.128 128.438 297.976C128.438 297.824 128.315 297.7 128.163 297.7C128.01 297.7 127.887 297.824 127.887 297.976C127.887 298.128 128.01 298.252 128.163 298.252Z" stroke="#00FFC8" stroke-width="0.5" stroke-miterlimit="10"/>
<path d="M212.971 351.57C213.123 351.57 213.246 351.447 213.246 351.295C213.246 351.142 213.123 351.019 212.971 351.019C212.818 351.019 212.695 351.142 212.695 351.295C212.695 351.447 212.818 351.57 212.971 351.57Z" stroke="#00FFC8" stroke-width="0.5" stroke-miterlimit="10"/>
<path d="M204.192 355.2C204.498 355.2 204.746 354.952 204.746 354.646C204.746 354.34 204.498 354.092 204.192 354.092C203.887 354.092 203.639 354.34 203.639 354.646C203.639 354.952 203.887 355.2 204.192 355.2Z" stroke="#00FFC8" stroke-width="0.5" stroke-miterlimit="10"/>
<path d="M172.912 356.021C173.218 356.021 173.466 355.773 173.466 355.467C173.466 355.161 173.218 354.914 172.912 354.914C172.606 354.914 172.358 355.161 172.358 355.467C172.358 355.773 172.606 356.021 172.912 356.021Z" stroke="#00FFC8" stroke-width="0.5" stroke-miterlimit="10"/>
<path d="M161.094 352.157C161.705 352.157 162.201 351.661 162.201 351.05C162.201 350.438 161.705 349.942 161.094 349.942C160.482 349.942 159.986 350.438 159.986 351.05C159.986 351.661 160.482 352.157 161.094 352.157Z" stroke="#00FFC8" stroke-width="0.5" stroke-miterlimit="10"/>
<path d="M161.755 245.271C162.061 245.271 162.309 245.023 162.309 244.718C162.309 244.412 162.061 244.164 161.755 244.164C161.449 244.164 161.201 244.412 161.201 244.718C161.201 245.023 161.449 245.271 161.755 245.271Z" stroke="#00FFC8" stroke-width="0.5" stroke-miterlimit="10"/>
<path d="M170.689 241.665C170.893 241.665 171.058 241.5 171.058 241.296C171.058 241.092 170.893 240.927 170.689 240.927C170.485 240.927 170.32 241.092 170.32 241.296C170.32 241.5 170.485 241.665 170.689 241.665Z" stroke="#00FFC8" stroke-width="0.5" stroke-miterlimit="10"/>
<path d="M170.253 354.934C170.406 354.934 170.529 354.811 170.529 354.658C170.529 354.506 170.406 354.383 170.253 354.383C170.101 354.383 169.978 354.506 169.978 354.658C169.978 354.811 170.101 354.934 170.253 354.934Z" stroke="#00FFC8" stroke-width="0.5" stroke-miterlimit="10"/>
<path d="M203.726 241.681C203.93 241.681 204.095 241.516 204.095 241.312C204.095 241.108 203.93 240.943 203.726 240.943C203.522 240.943 203.357 241.108 203.357 241.312C203.357 241.516 203.522 241.681 203.726 241.681Z" stroke="#00FFC8" stroke-width="0.5" stroke-miterlimit="10"/>
<path d="M12.8931 472.824C13.0969 472.824 13.2622 472.659 13.2622 472.455C13.2622 472.251 13.0969 472.086 12.8931 472.086C12.6892 472.086 12.5239 472.251 12.5239 472.455C12.5239 472.659 12.6892 472.824 12.8931 472.824Z" stroke="#00FFC8" stroke-width="0.5" stroke-miterlimit="10"/>
<path opacity="0.2" d="M187.202 228.887C216.743 228.887 240.691 204.938 240.691 175.395C240.691 145.851 216.743 121.902 187.202 121.902C157.661 121.902 133.714 145.851 133.714 175.395C133.714 204.938 157.661 228.887 187.202 228.887Z" stroke="#00FFC8" stroke-width="0.5" stroke-miterlimit="10"/>
<path opacity="0.2" d="M187.202 298.065C235.844 298.065 275.276 258.63 275.276 209.984C275.276 161.337 235.844 121.902 187.202 121.902C138.56 121.902 99.1279 161.337 99.1279 209.984C99.1279 258.63 138.56 298.065 187.202 298.065Z" stroke="#00FFC8" stroke-width="0.5" stroke-miterlimit="10"/>
<path opacity="0.2" d="M187.202 474.052C216.743 474.052 240.69 450.103 240.69 420.559C240.69 391.016 216.743 367.067 187.202 367.067C157.661 367.067 133.714 391.016 133.714 420.559C133.714 450.103 157.661 474.052 187.202 474.052Z" stroke="#00FFC8" stroke-width="0.5" stroke-miterlimit="10"/>
<path opacity="0.2" d="M187.202 474.052C203.437 474.052 216.598 460.89 216.598 444.654C216.598 428.418 203.437 415.256 187.202 415.256C170.968 415.256 157.807 428.418 157.807 444.654C157.807 460.89 170.968 474.052 187.202 474.052Z" stroke="#00FFC8" stroke-width="0.5" stroke-miterlimit="10"/>
<path opacity="0.2" d="M187.202 445.023C193.256 445.023 198.164 440.115 198.164 434.061C198.164 428.006 193.256 423.098 187.202 423.098C181.148 423.098 176.24 428.006 176.24 434.061C176.24 440.115 181.148 445.023 187.202 445.023Z" stroke="#00FFC8" stroke-width="0.5" stroke-miterlimit="10"/>
<path opacity="0.1" d="M187.202 474.092C235.785 474.092 275.169 434.704 275.169 386.118C275.169 337.531 235.785 298.144 187.202 298.144C138.62 298.144 99.2357 337.531 99.2357 386.118C99.2357 434.704 138.62 474.092 187.202 474.092Z" stroke="#00FFC8" stroke-width="0.5" stroke-miterlimit="10"/>
<path d="M362.853 298.047H33.137" stroke="#00FFC8" stroke-width="0.5" stroke-miterlimit="10"/>
<path d="M-22.7817 298.022H397.395" stroke="#00FFC8" stroke-width="0.5" stroke-miterlimit="10"/>
<path d="M12.761 275.264L-38.3546 269.174" stroke="#00FFC8" stroke-width="0.5" stroke-miterlimit="10" stroke-linecap="round"/>
<path d="M413.978 326.014L362.862 319.924" stroke="#00FFC8" stroke-width="0.5" stroke-miterlimit="10" stroke-linecap="round"/>
<path d="M24.5006 230.683L-23.2983 211.561" stroke="#00FFC8" stroke-width="0.5" stroke-miterlimit="10" stroke-linecap="round"/>
<path d="M398.922 383.627L351.123 364.504" stroke="#00FFC8" stroke-width="0.5" stroke-miterlimit="10" stroke-linecap="round"/>
<path d="M47.3696 190.662L6.14478 159.811" stroke="#00FFC8" stroke-width="0.5" stroke-miterlimit="10" stroke-linecap="round"/>
<path d="M369.479 435.377L328.254 404.525" stroke="#00FFC8" stroke-width="0.5" stroke-miterlimit="10" stroke-linecap="round"/>
<path d="M79.8093 157.929L47.968 117.45" stroke="#00FFC8" stroke-width="0.5" stroke-miterlimit="10" stroke-linecap="round"/>
<path d="M327.655 477.738L295.814 437.259" stroke="#00FFC8" stroke-width="0.5" stroke-miterlimit="10" stroke-linecap="round"/>
<path d="M119.609 134.713L99.3215 87.3662" stroke="#00FFC8" stroke-width="0.5" stroke-miterlimit="10" stroke-linecap="round"/>
<path d="M276.302 507.822L256.014 460.475" stroke="#00FFC8" stroke-width="0.5" stroke-miterlimit="10" stroke-linecap="round"/>
<path d="M164.057 122.597L156.706 71.6089" stroke="#00FFC8" stroke-width="0.5" stroke-miterlimit="10" stroke-linecap="round"/>
<path d="M218.918 523.579L211.566 472.591" stroke="#00FFC8" stroke-width="0.5" stroke-miterlimit="10" stroke-linecap="round"/>
<path d="M210.124 122.407L216.209 71.252" stroke="#00FFC8" stroke-width="0.5" stroke-miterlimit="10" stroke-linecap="round"/>
<path d="M159.414 523.936L165.499 472.781" stroke="#00FFC8" stroke-width="0.5" stroke-miterlimit="10" stroke-linecap="round"/>
<path d="M254.67 134.156L273.778 86.32" stroke="#00FFC8" stroke-width="0.5" stroke-miterlimit="10" stroke-linecap="round"/>
<path d="M101.846 508.868L120.953 461.032" stroke="#00FFC8" stroke-width="0.5" stroke-miterlimit="10" stroke-linecap="round"/>
<path d="M294.66 157.043L325.488 115.786" stroke="#00FFC8" stroke-width="0.5" stroke-miterlimit="10" stroke-linecap="round"/>
<path d="M50.1355 479.402L80.9633 438.145" stroke="#00FFC8" stroke-width="0.5" stroke-miterlimit="10" stroke-linecap="round"/>
<path d="M327.368 189.508L367.816 157.642" stroke="#00FFC8" stroke-width="0.5" stroke-miterlimit="10" stroke-linecap="round"/>
<path d="M7.80792 437.546L48.255 405.68" stroke="#00FFC8" stroke-width="0.5" stroke-miterlimit="10" stroke-linecap="round"/>
<path d="M350.566 229.339L397.876 209.035" stroke="#00FFC8" stroke-width="0.5" stroke-miterlimit="10" stroke-linecap="round"/>
<path d="M-22.2529 386.153L25.0571 365.849" stroke="#00FFC8" stroke-width="0.5" stroke-miterlimit="10" stroke-linecap="round"/>
<path d="M362.672 273.821L413.621 266.464" stroke="#00FFC8" stroke-width="0.5" stroke-miterlimit="10" stroke-linecap="round"/>
<path d="M-37.9979 328.724L12.9509 321.367" stroke="#00FFC8" stroke-width="0.5" stroke-miterlimit="10" stroke-linecap="round"/>
<path d="M187 121.798V-0.00012207" stroke="#00FFC8" stroke-width="0.5" stroke-miterlimit="10" stroke-linecap="round"/>
<path d="M187 596V474.202" stroke="#00FFC8" stroke-width="0.5" stroke-miterlimit="10" stroke-linecap="round"/>
<path d="M362.964 298.101L437 298.101" stroke="#00FFC8" stroke-width="0.5" stroke-miterlimit="10" stroke-linecap="round"/>
<path d="M-62.9996 298.101L11.0369 298.101" stroke="#00FFC8" stroke-width="0.5" stroke-miterlimit="10" stroke-linecap="round"/>
<path d="M311.425 422.623L363.777 475.015" stroke="#00FFC8" stroke-width="0.5" stroke-miterlimit="10" stroke-linecap="round"/>
<path d="M10.2237 121.187L62.5754 173.58" stroke="#00FFC8" stroke-width="0.5" stroke-miterlimit="10" stroke-linecap="round"/>
<path d="M274.982 450.609L312 514.776" stroke="#00FFC8" stroke-width="0.5" stroke-miterlimit="10" stroke-linecap="round"/>
<path d="M62.0003 81.4269L99.0186 145.594" stroke="#00FFC8" stroke-width="0.5" stroke-miterlimit="10" stroke-linecap="round"/>
<path d="M232.543 468.201L251.705 539.77" stroke="#00FFC8" stroke-width="0.5" stroke-miterlimit="10" stroke-linecap="round"/>
<path d="M122.296 56.4324L141.458 128.002" stroke="#00FFC8" stroke-width="0.5" stroke-miterlimit="10" stroke-linecap="round"/>
<path d="M141.458 468.201L122.296 539.77" stroke="#00FFC8" stroke-width="0.5" stroke-miterlimit="10" stroke-linecap="round"/>
<path d="M251.705 56.4324L232.543 128.002" stroke="#00FFC8" stroke-width="0.5" stroke-miterlimit="10" stroke-linecap="round"/>
<path d="M339.389 386.151L403.507 423.198" stroke="#00FFC8" stroke-width="0.5" stroke-miterlimit="10" stroke-linecap="round"/>
<path d="M-29.506 173.004L34.6115 210.051" stroke="#00FFC8" stroke-width="0.5" stroke-miterlimit="10" stroke-linecap="round"/>
<path d="M34.6115 386.151L-29.506 423.198" stroke="#00FFC8" stroke-width="0.5" stroke-miterlimit="10" stroke-linecap="round"/>
<path d="M403.507 173.004L339.389 210.051" stroke="#00FFC8" stroke-width="0.5" stroke-miterlimit="10" stroke-linecap="round"/>
<path d="M17.0327 343.679L-54.4811 362.856" stroke="#00FFC8" stroke-width="0.5" stroke-miterlimit="10" stroke-linecap="round"/>
<path d="M428.482 233.346L356.968 252.523" stroke="#00FFC8" stroke-width="0.5" stroke-miterlimit="10" stroke-linecap="round"/>
<path d="M17.0327 252.523L-54.4811 233.346" stroke="#00FFC8" stroke-width="0.5" stroke-miterlimit="10" stroke-linecap="round"/>
<path d="M428.482 362.856L356.968 343.679" stroke="#00FFC8" stroke-width="0.5" stroke-miterlimit="10" stroke-linecap="round"/>
</g>
<defs>
<clipPath id="clip0_15664_223794">
<rect width="500" height="596" fill="white" transform="translate(-62.9996 -0.00012207)"/>
</clipPath>
</defs>
</svg>
