<?xml version="1.0" encoding="utf-8"?>
<!-- Generator: Adobe Illustrator 26.3.1, SVG Export Plug-In . SVG Version: 6.00 Build 0)  -->
<svg version="1.1" id="Layer_1" xmlns="http://www.w3.org/2000/svg" xmlns:xlink="http://www.w3.org/1999/xlink" x="0px" y="0px"
	 viewBox="0 0 375 812" style="enable-background:new 0 0 375 812;" xml:space="preserve">
<g>
	<g>
		<g class="st0">
			<path class="st1" d="M358.3,449.7c0,0.1-0.2,0.2-0.3,0.2c0,0-0.1,0-0.1,0l-9.1-2.3c-0.2,0-0.3-0.2-0.2-0.4c0-0.2,0.2-0.3,0.4-0.2
				l9.1,2.3C358.2,449.4,358.3,449.6,358.3,449.7z M359,471.4c-0.2-0.1-0.3,0-0.4,0.2c-0.1,0.2,0,0.4,0.2,0.4l2.3,0.9v-0.7
				L359,471.4z M350.8,468.3l-8.2-3.2c-0.2-0.1-0.4,0-0.4,0.2c-0.1,0.2,0,0.4,0.2,0.4l8.2,3.2c0,0,0.1,0,0.1,0
				c0.1,0,0.2-0.1,0.3-0.2C351.1,468.5,351,468.3,350.8,468.3z M342.7,486.7l-7.9-4.2c-0.2-0.1-0.4,0-0.4,0.1
				c-0.1,0.2,0,0.3,0.1,0.4l7.9,4.2c0,0,0.1,0,0.1,0c0.1,0,0.2-0.1,0.3-0.2C343,487,342.9,486.8,342.7,486.7z M358.6,495.1l-7.9-4.2
				c-0.2-0.1-0.4,0-0.4,0.1c-0.1,0.2,0,0.3,0.1,0.4l7.9,4.2c0,0,0.1,0,0.1,0c0.1,0,0.2-0.1,0.3-0.2
				C358.8,495.3,358.7,495.1,358.6,495.1z M317.3,509c-0.1-0.1-0.3-0.1-0.5,0c-0.1,0.1-0.1,0.3,0,0.5l6.8,5.5c0.1,0,0.1,0.1,0.2,0.1
				c0.1,0,0.2,0,0.2-0.1c0.1-0.1,0.1-0.3,0-0.5L317.3,509z M358.2,542.2c-0.1-0.1-0.3-0.1-0.5,0c-0.1,0.1-0.1,0.3,0,0.5l3.2,2.6
				v-0.8L358.2,542.2z M344.6,531.1c-0.1-0.1-0.3-0.1-0.5,0c-0.1,0.1-0.1,0.3,0,0.5l6.8,5.5c0.1,0,0.1,0.1,0.2,0.1
				c0.1,0,0.2,0,0.2-0.1c0.1-0.1,0.1-0.3,0-0.5L344.6,531.1z M330.9,520.1c-0.1-0.1-0.3-0.1-0.5,0c-0.1,0.1-0.1,0.3,0,0.5l6.8,5.5
				c0.1,0,0.1,0.1,0.2,0.1c0.1,0,0.2,0,0.2-0.1c0.1-0.1,0.1-0.3,0-0.5L330.9,520.1z M325.2,534.1c-0.1-0.1-0.3-0.1-0.5,0
				c-0.1,0.1-0.1,0.3,0,0.5l3.1,3c0.1,0.1,0.1,0.1,0.2,0.1c0.1,0,0.2,0,0.2-0.1c0.1-0.1,0.1-0.3,0-0.5L325.2,534.1z M310.1,519.7
				c-0.1-0.1-0.3-0.1-0.5,0c-0.1,0.1-0.1,0.3,0,0.5l7.6,7.2c0.1,0.1,0.1,0.1,0.2,0.1c0.1,0,0.2,0,0.2-0.1c0.1-0.1,0.1-0.3,0-0.5
				L310.1,519.7z M346.9,579.8c-0.1-0.1-0.3-0.1-0.5,0c-0.1,0.1-0.1,0.3,0,0.5l2.9,3.2c0.1,0.1,0.2,0.1,0.2,0.1c0.1,0,0.2,0,0.2-0.1
				c0.1-0.1,0.1-0.3,0-0.5L346.9,579.8z M311.5,540.6c-0.1-0.1-0.3-0.1-0.5,0c-0.1,0.1-0.1,0.3,0,0.5l5.9,6.5
				c0.1,0.1,0.2,0.1,0.2,0.1c0.1,0,0.2,0,0.2-0.1c0.1-0.1,0.1-0.3,0-0.5L311.5,540.6z M323.3,553.7c-0.1-0.1-0.3-0.1-0.5,0
				c-0.1,0.1-0.1,0.3,0,0.5l5.9,6.5c0.1,0.1,0.2,0.1,0.2,0.1c0.1,0,0.2,0,0.2-0.1c0.1-0.1,0.1-0.3,0-0.5L323.3,553.7z M299.7,527.5
				c-0.1-0.1-0.3-0.1-0.5,0c-0.1,0.1-0.1,0.3,0,0.5l5.9,6.5c0.1,0.1,0.2,0.1,0.2,0.1c0.1,0,0.2,0,0.2-0.1c0.1-0.1,0.1-0.3,0-0.5
				L299.7,527.5z M335.1,566.7c-0.1-0.1-0.3-0.1-0.5,0s-0.1,0.3,0,0.5l5.9,6.5c0.1,0.1,0.2,0.1,0.2,0.1c0.1,0,0.2,0,0.2-0.1
				c0.1-0.1,0.1-0.3,0-0.5L335.1,566.7z M337.5,613.7c-0.1-0.1-0.3-0.2-0.4-0.1c-0.1,0.1-0.2,0.3-0.1,0.4l2.5,3.5
				c0.1,0.1,0.2,0.1,0.3,0.1c0.1,0,0.1,0,0.2-0.1c0.1-0.1,0.2-0.3,0.1-0.4L337.5,613.7z M285,539.7c-0.1-0.1-0.3-0.2-0.4-0.1
				c-0.1,0.1-0.2,0.3-0.1,0.4l5.3,7.4c0.1,0.1,0.2,0.1,0.3,0.1c0.1,0,0.1,0,0.2-0.1c0.1-0.1,0.2-0.3,0.1-0.4L285,539.7z M306,569.3
				c-0.1-0.1-0.3-0.2-0.4-0.1c-0.1,0.1-0.2,0.3-0.1,0.4l5.3,7.4c0.1,0.1,0.2,0.1,0.3,0.1c0.1,0,0.1,0,0.2-0.1
				c0.1-0.1,0.2-0.3,0.1-0.5L306,569.3z M295.5,554.5c-0.1-0.1-0.3-0.2-0.4-0.1c-0.1,0.1-0.2,0.3-0.1,0.4l5.3,7.4
				c0.1,0.1,0.2,0.1,0.3,0.1c0.1,0,0.1,0,0.2-0.1c0.1-0.1,0.2-0.3,0.1-0.4L295.5,554.5z M327,598.9c-0.1-0.1-0.3-0.2-0.4-0.1
				c-0.1,0.1-0.2,0.3-0.1,0.4l5.3,7.4c0.1,0.1,0.2,0.1,0.3,0.1c0.1,0,0.1,0,0.2-0.1c0.1-0.1,0.2-0.3,0.1-0.4L327,598.9z
				 M316.5,584.1c-0.1-0.1-0.3-0.2-0.4-0.1c-0.1,0.1-0.2,0.3-0.1,0.5l5.3,7.4c0.1,0.1,0.2,0.1,0.3,0.1c0.1,0,0.1,0,0.2-0.1
				c0.1-0.1,0.2-0.3,0.1-0.4L316.5,584.1z M311.4,612.3c-0.1-0.2-0.3-0.2-0.4-0.1c-0.2,0.1-0.2,0.3-0.1,0.4l2.2,3.7
				c0.1,0.1,0.2,0.2,0.3,0.2c0.1,0,0.1,0,0.2,0c0.2-0.1,0.2-0.3,0.1-0.4L311.4,612.3z M273.3,547.7c-0.1-0.2-0.3-0.2-0.4-0.1
				c-0.2,0.1-0.2,0.3-0.1,0.4l4.8,8.1c0.1,0.1,0.2,0.2,0.3,0.2c0.1,0,0.1,0,0.2,0c0.2-0.1,0.2-0.3,0.1-0.4L273.3,547.7z
				 M301.9,596.1c-0.1-0.2-0.3-0.2-0.4-0.1c-0.2,0.1-0.2,0.3-0.1,0.4l4.8,8.1c0.1,0.1,0.2,0.2,0.3,0.2c0.1,0,0.1,0,0.2,0
				c0.2-0.1,0.2-0.3,0.1-0.4L301.9,596.1z M292.4,580c-0.1-0.2-0.3-0.2-0.4-0.1c-0.2,0.1-0.2,0.3-0.1,0.4l4.8,8.1
				c0.1,0.1,0.2,0.2,0.3,0.2c0.1,0,0.1,0,0.2,0c0.2-0.1,0.2-0.3,0.1-0.4L292.4,580z M282.9,563.8c-0.1-0.2-0.3-0.2-0.4-0.1
				c-0.2,0.1-0.2,0.3-0.1,0.4l4.8,8.1c0.1,0.1,0.2,0.2,0.3,0.2c0.1,0,0.1,0,0.2,0c0.2-0.1,0.2-0.3,0.1-0.4L282.9,563.8z
				 M312.9,684.7c-0.1-0.2-0.3-0.2-0.4-0.2c-0.2,0.1-0.2,0.3-0.2,0.4l1.7,3.9c0.1,0.1,0.2,0.2,0.3,0.2c0,0,0.1,0,0.1,0
				c0.2-0.1,0.2-0.3,0.2-0.4L312.9,684.7z M284.5,620.3c-0.1-0.2-0.3-0.2-0.4-0.2c-0.2,0.1-0.2,0.3-0.2,0.4l3.6,8
				c0.1,0.1,0.2,0.2,0.3,0.2c0,0,0.1,0,0.1,0c0.2-0.1,0.2-0.3,0.2-0.4L284.5,620.3z M291.6,636.4c-0.1-0.2-0.3-0.2-0.4-0.2
				c-0.2,0.1-0.2,0.3-0.2,0.4l3.6,8c0.1,0.1,0.2,0.2,0.3,0.2c0,0,0.1,0,0.1,0c0.2-0.1,0.2-0.3,0.2-0.4L291.6,636.4z M298.7,652.5
				c-0.1-0.2-0.3-0.2-0.4-0.2c-0.2,0.1-0.2,0.3-0.2,0.4l3.6,8c0.1,0.1,0.2,0.2,0.3,0.2c0,0,0.1,0,0.1,0c0.2-0.1,0.2-0.3,0.2-0.4
				L298.7,652.5z M277.3,604.2c-0.1-0.2-0.3-0.2-0.4-0.2c-0.2,0.1-0.2,0.3-0.2,0.4l3.6,8c0.1,0.1,0.2,0.2,0.3,0.2c0,0,0.1,0,0.1,0
				c0.2-0.1,0.2-0.3,0.2-0.4L277.3,604.2z M305.8,668.6c-0.1-0.2-0.3-0.2-0.4-0.2c-0.2,0.1-0.2,0.3-0.2,0.4l3.6,8
				c0.1,0.1,0.2,0.2,0.3,0.2c0,0,0.1,0,0.1,0c0.2-0.1,0.2-0.3,0.2-0.4L305.8,668.6z M256,555.9c-0.1-0.2-0.3-0.2-0.4-0.2
				c-0.2,0.1-0.2,0.3-0.2,0.4l3.6,8c0.1,0.1,0.2,0.2,0.3,0.2c0,0,0.1,0,0.1,0c0.2-0.1,0.2-0.3,0.2-0.4L256,555.9z M263.1,572
				c-0.1-0.2-0.3-0.2-0.4-0.2c-0.2,0.1-0.2,0.3-0.2,0.4l3.6,8c0.1,0.1,0.2,0.2,0.3,0.2c0,0,0.1,0,0.1,0c0.2-0.1,0.2-0.3,0.2-0.4
				L263.1,572z M270.2,588.1c-0.1-0.2-0.3-0.2-0.4-0.2c-0.2,0.1-0.2,0.3-0.2,0.4l3.6,8c0.1,0.1,0.2,0.2,0.3,0.2c0,0,0.1,0,0.1,0
				c0.2-0.1,0.2-0.3,0.2-0.4L270.2,588.1z M275.1,682.4c-0.1-0.2-0.2-0.3-0.4-0.2c-0.2,0.1-0.3,0.2-0.2,0.4l1.3,4.1
				c0,0.1,0.2,0.2,0.3,0.2c0,0,0.1,0,0.1,0c0.2-0.1,0.3-0.2,0.2-0.4L275.1,682.4z M248.7,597c-0.1-0.2-0.2-0.3-0.4-0.2
				c-0.2,0.1-0.3,0.2-0.2,0.4l2.6,8.5c0,0.1,0.2,0.2,0.3,0.2c0,0,0.1,0,0.1,0c0.2-0.1,0.3-0.2,0.2-0.4L248.7,597z M243.4,579.9
				c-0.1-0.2-0.2-0.3-0.4-0.2c-0.2,0.1-0.3,0.2-0.2,0.4l2.6,8.5c0,0.1,0.2,0.2,0.3,0.2c0,0,0.1,0,0.1,0c0.2-0.1,0.3-0.2,0.2-0.4
				L243.4,579.9z M264.5,648.2c-0.1-0.2-0.2-0.3-0.4-0.2c-0.2,0.1-0.3,0.2-0.2,0.4l2.6,8.5c0,0.1,0.2,0.2,0.3,0.2c0,0,0.1,0,0.1,0
				c0.2-0.1,0.3-0.2,0.2-0.4L264.5,648.2z M254,614.1c-0.1-0.2-0.2-0.3-0.4-0.2c-0.2,0.1-0.3,0.2-0.2,0.4l2.6,8.5
				c0,0.1,0.2,0.2,0.3,0.2c0,0,0.1,0,0.1,0c0.2-0.1,0.3-0.2,0.2-0.4L254,614.1z M269.8,665.3c-0.1-0.2-0.2-0.3-0.4-0.2
				c-0.2,0.1-0.3,0.2-0.2,0.4l2.6,8.5c0,0.1,0.2,0.2,0.3,0.2c0,0,0.1,0,0.1,0c0.2-0.1,0.3-0.2,0.2-0.4L269.8,665.3z M238.1,562.8
				c-0.1-0.2-0.2-0.3-0.4-0.2c-0.2,0.1-0.3,0.2-0.2,0.4l2.6,8.5c0,0.1,0.2,0.2,0.3,0.2c0,0,0.1,0,0.1,0c0.2-0.1,0.3-0.2,0.2-0.4
				L238.1,562.8z M259.3,631.1c-0.1-0.2-0.2-0.3-0.4-0.2c-0.2,0.1-0.3,0.2-0.2,0.4l2.6,8.5c0,0.1,0.2,0.2,0.3,0.2c0,0,0.1,0,0.1,0
				c0.2-0.1,0.3-0.2,0.2-0.4L259.3,631.1z M214,638.8c-0.2,0-0.3,0.2-0.3,0.4l0.9,8.7c0,0.2,0.2,0.3,0.3,0.3c0,0,0,0,0,0
				c0.2,0,0.3-0.2,0.3-0.4l-0.9-8.7C214.3,638.9,214.1,638.8,214,638.8z M206.6,568.8c-0.2,0-0.3,0.2-0.3,0.4l0.9,8.7
				c0,0.2,0.2,0.3,0.3,0.3c0,0,0,0,0,0c0.2,0,0.3-0.2,0.3-0.4l-0.9-8.7C207,568.9,206.8,568.8,206.6,568.8z M208.5,586.3
				c-0.2,0-0.3,0.2-0.3,0.4l0.9,8.7c0,0.2,0.2,0.3,0.3,0.3c0,0,0,0,0,0c0.2,0,0.3-0.2,0.3-0.4l-0.9-8.7
				C208.8,586.4,208.7,586.3,208.5,586.3z M215.8,656.3c-0.2,0-0.3,0.2-0.3,0.4l0.9,8.7c0,0.2,0.2,0.3,0.3,0.3c0,0,0,0,0,0
				c0.2,0,0.3-0.2,0.3-0.4l-0.9-8.7C216.1,656.4,216,656.3,215.8,656.3z M219.4,691.3c-0.2,0-0.3,0.2-0.3,0.4l0.9,8.7
				c0,0.2,0.2,0.3,0.3,0.3c0,0,0,0,0,0c0.2,0,0.3-0.2,0.3-0.4l-0.9-8.7C219.8,691.4,219.6,691.3,219.4,691.3z M217.6,673.8
				c-0.2,0-0.3,0.2-0.3,0.4l0.9,8.7c0,0.2,0.2,0.3,0.3,0.3c0,0,0,0,0,0c0.2,0,0.3-0.2,0.3-0.4l-0.9-8.7
				C217.9,673.9,217.8,673.8,217.6,673.8z M210.3,603.8c-0.2,0-0.3,0.2-0.3,0.4l0.9,8.7c0,0.2,0.2,0.3,0.3,0.3c0,0,0,0,0,0
				c0.2,0,0.3-0.2,0.3-0.4l-0.9-8.7C210.6,603.9,210.5,603.8,210.3,603.8z M212.1,621.3c-0.2,0-0.3,0.2-0.3,0.4l0.9,8.7
				c0,0.2,0.2,0.3,0.3,0.3c0,0,0,0,0,0c0.2,0,0.3-0.2,0.3-0.4l-0.9-8.7C212.5,621.4,212.3,621.3,212.1,621.3z M194.6,592.1
				c-0.2,0-0.3,0.2-0.3,0.3l0.1,4.3c0,0.2,0.1,0.3,0.3,0.3c0,0,0,0,0,0c0.2,0,0.3-0.2,0.3-0.3l-0.1-4.3
				C194.9,592.2,194.8,592.1,194.6,592.1z M194,571.2C194,571.2,194,571.2,194,571.2c-0.2,0-0.3,0.2-0.3,0.3L194,582
				c0,0.2,0.1,0.3,0.3,0.3c0,0,0,0,0,0c0.2,0,0.3-0.2,0.3-0.3l-0.3-10.4C194.4,571.4,194.2,571.2,194,571.2z M177.6,639.8
				c-0.2,0-0.3,0.1-0.3,0.3l-0.2,4.3c0,0.2,0.1,0.3,0.3,0.3c0,0,0,0,0,0c0.2,0,0.3-0.1,0.3-0.3l0.2-4.3
				C177.9,640,177.8,639.8,177.6,639.8z M180.4,587.1c-0.2,0-0.3,0.1-0.3,0.3l-0.5,8.8c0,0.2,0.1,0.3,0.3,0.3c0,0,0,0,0,0
				c0.2,0,0.3-0.1,0.3-0.3l0.5-8.8C180.7,587.2,180.5,587.1,180.4,587.1z M179.4,604.7c-0.2,0-0.3,0.1-0.3,0.3l-0.5,8.8
				c0,0.2,0.1,0.3,0.3,0.3c0,0,0,0,0,0c0.2,0,0.3-0.1,0.3-0.3l0.5-8.8C179.8,604.8,179.6,604.7,179.4,604.7z M181.3,569.5
				c-0.2,0-0.3,0.1-0.3,0.3l-0.5,8.8c0,0.2,0.1,0.3,0.3,0.3c0,0,0,0,0,0c0.2,0,0.3-0.1,0.3-0.3l0.5-8.8
				C181.6,569.6,181.5,569.5,181.3,569.5z M178.5,622.2c-0.2,0-0.3,0.1-0.3,0.3l-0.5,8.8c0,0.2,0.1,0.3,0.3,0.3c0,0,0,0,0,0
				c0.2,0,0.3-0.1,0.3-0.3l0.5-8.8C178.8,622.4,178.7,622.3,178.5,622.2z M147,657.1c-0.2,0-0.3,0.1-0.4,0.3l-0.7,4.2
				c0,0.2,0.1,0.3,0.3,0.4c0,0,0,0,0.1,0c0.2,0,0.3-0.1,0.3-0.3l0.7-4.2C147.3,657.3,147.2,657.1,147,657.1z M156.1,603.4
				c-0.2,0-0.3,0.1-0.4,0.3l-1.5,8.9c0,0.2,0.1,0.3,0.3,0.4c0,0,0,0,0.1,0c0.2,0,0.3-0.1,0.3-0.3l1.5-8.9
				C156.4,603.6,156.3,603.4,156.1,603.4z M159.2,585.5c-0.2,0-0.3,0.1-0.4,0.3l-1.5,8.9c0,0.2,0.1,0.3,0.3,0.4c0,0,0,0,0.1,0
				c0.2,0,0.3-0.1,0.3-0.3l1.5-8.9C159.5,585.7,159.4,585.5,159.2,585.5z M153.1,621.3c-0.2,0-0.3,0.1-0.4,0.3l-1.5,8.9
				c0,0.2,0.1,0.3,0.3,0.4c0,0,0,0,0.1,0c0.2,0,0.3-0.1,0.3-0.3l1.5-8.9C153.4,621.5,153.3,621.3,153.1,621.3z M150.1,639.2
				c-0.2,0-0.3,0.1-0.4,0.3l-1.5,8.9c0,0.2,0.1,0.3,0.3,0.4c0,0,0,0,0.1,0c0.2,0,0.3-0.1,0.3-0.3l1.5-8.9
				C150.3,639.4,150.2,639.2,150.1,639.2z M162.2,567.6c-0.2,0-0.3,0.1-0.4,0.3l-1.5,8.9c0,0.2,0.1,0.3,0.3,0.4c0,0,0,0,0.1,0
				c0.2,0,0.3-0.1,0.3-0.3l1.5-8.9C162.5,567.8,162.4,567.7,162.2,567.6z M129.6,637.6c-0.2,0-0.3,0.1-0.4,0.2l-1.1,4.2
				c0,0.2,0.1,0.3,0.2,0.4c0,0,0.1,0,0.1,0c0.1,0,0.3-0.1,0.3-0.2l1.1-4.2C129.9,637.8,129.8,637.6,129.6,637.6z M139,601.3
				c-0.2,0-0.3,0.1-0.4,0.2l-2.3,9.1c0,0.2,0.1,0.3,0.2,0.4c0,0,0.1,0,0.1,0c0.1,0,0.3-0.1,0.3-0.2l2.3-9.1
				C139.3,601.5,139.2,601.3,139,601.3z M148.4,565c-0.2,0-0.3,0.1-0.4,0.2l-2.3,9.1c0,0.2,0.1,0.3,0.2,0.4c0,0,0.1,0,0.1,0
				c0.1,0,0.3-0.1,0.3-0.2l2.3-9.1C148.6,565.2,148.5,565,148.4,565z M143.7,583.1c-0.2,0-0.3,0.1-0.4,0.2l-2.3,9.1
				c0,0.2,0.1,0.3,0.2,0.4c0,0,0.1,0,0.1,0c0.1,0,0.3-0.1,0.3-0.2l2.3-9.1C143.9,583.3,143.8,583.2,143.7,583.1z M134.3,619.4
				c-0.2,0-0.3,0.1-0.4,0.2l-2.3,9.1c0,0.2,0.1,0.3,0.2,0.4c0,0,0.1,0,0.1,0c0.1,0,0.3-0.1,0.3-0.2l2.3-9.1
				C134.6,619.7,134.5,619.5,134.3,619.4z M79.5,689.8c-0.2-0.1-0.4,0-0.4,0.2l-1.5,4c-0.1,0.2,0,0.4,0.2,0.4c0,0,0.1,0,0.1,0
				c0.1,0,0.2-0.1,0.3-0.2l1.5-4C79.8,690.1,79.7,689.9,79.5,689.8z M130.3,558.6c-0.2-0.1-0.4,0-0.4,0.2l-3.2,8.2
				c-0.1,0.2,0,0.4,0.2,0.4c0,0,0.1,0,0.1,0c0.1,0,0.3-0.1,0.3-0.2l3.2-8.2C130.6,558.8,130.5,558.6,130.3,558.6z M124,575
				c-0.2-0.1-0.4,0-0.4,0.2l-3.2,8.2c-0.1,0.2,0,0.4,0.2,0.4c0,0,0.1,0,0.1,0c0.1,0,0.2-0.1,0.3-0.2l3.2-8.2
				C124.2,575.2,124.1,575,124,575z M117.6,591.4c-0.2-0.1-0.4,0-0.4,0.2l-3.2,8.2c-0.1,0.2,0,0.4,0.2,0.4c0,0,0.1,0,0.1,0
				c0.1,0,0.2-0.1,0.3-0.2l3.2-8.2C117.9,591.6,117.8,591.5,117.6,591.4z M92.2,657c-0.2-0.1-0.4,0-0.4,0.2l-3.2,8.2
				c-0.1,0.2,0,0.4,0.2,0.4c0,0,0.1,0,0.1,0c0.1,0,0.2-0.1,0.3-0.2l3.2-8.2C92.5,657.3,92.4,657.1,92.2,657z M85.9,673.4
				c-0.2-0.1-0.4,0-0.4,0.2l-3.2,8.2c-0.1,0.2,0,0.4,0.2,0.4c0,0,0.1,0,0.1,0c0.1,0,0.2-0.1,0.3-0.2l3.2-8.2
				C86.1,673.7,86.1,673.5,85.9,673.4z M111.3,607.8c-0.2-0.1-0.4,0-0.4,0.2l-3.2,8.2c-0.1,0.2,0,0.4,0.2,0.4c0,0,0.1,0,0.1,0
				c0.1,0,0.2-0.1,0.3-0.2l3.2-8.2C111.5,608,111.4,607.9,111.3,607.8z M98.6,640.6c-0.2-0.1-0.4,0-0.4,0.2L95,649
				c-0.1,0.2,0,0.4,0.2,0.4c0,0,0.1,0,0.1,0c0.1,0,0.2-0.1,0.3-0.2l3.2-8.2C98.8,640.9,98.7,640.7,98.6,640.6z M104.9,624.2
				c-0.2-0.1-0.4,0-0.4,0.2l-3.2,8.2c-0.1,0.2,0,0.4,0.2,0.4c0,0,0.1,0,0.1,0c0.1,0,0.2-0.1,0.3-0.2l3.2-8.2
				C105.2,624.5,105.1,624.3,104.9,624.2z M54.4,661.4c-0.2-0.1-0.4,0-0.4,0.1l-2,3.8c-0.1,0.2,0,0.3,0.1,0.4c0,0,0.1,0,0.1,0
				c0.1,0,0.2-0.1,0.3-0.2l2-3.8C54.6,661.7,54.6,661.5,54.4,661.4z M104.6,566.6c-0.2-0.1-0.4,0-0.4,0.1l-4.2,7.9
				c-0.1,0.2,0,0.3,0.1,0.4c0,0,0.1,0,0.1,0c0.1,0,0.2-0.1,0.3-0.2l4.2-7.9C104.8,566.9,104.7,566.7,104.6,566.6z M96.2,582.4
				c-0.2-0.1-0.4,0-0.4,0.1l-4.2,7.9c-0.1,0.2,0,0.3,0.1,0.4c0,0,0.1,0,0.1,0c0.1,0,0.2-0.1,0.3-0.2l4.2-7.9
				C96.4,582.7,96.4,582.5,96.2,582.4z M87.9,598.2c-0.2-0.1-0.4,0-0.4,0.1l-4.2,7.9c-0.1,0.2,0,0.3,0.1,0.4c0,0,0.1,0,0.1,0
				c0.1,0,0.2-0.1,0.3-0.2l4.2-7.9C88.1,598.5,88,598.3,87.9,598.2z M62.8,645.6c-0.2-0.1-0.4,0-0.4,0.1l-4.2,7.9
				c-0.1,0.2,0,0.3,0.1,0.4c0,0,0.1,0,0.1,0c0.1,0,0.2-0.1,0.3-0.2l4.2-7.9C63,645.9,62.9,645.7,62.8,645.6z M71.1,629.8
				c-0.2-0.1-0.4,0-0.4,0.1l-4.2,7.9c-0.1,0.2,0,0.3,0.1,0.4c0,0,0.1,0,0.1,0c0.1,0,0.2-0.1,0.3-0.2l4.2-7.9
				C71.4,630.1,71.3,629.9,71.1,629.8z M79.5,614c-0.2-0.1-0.4,0-0.4,0.1l-4.2,7.9c-0.1,0.2,0,0.3,0.1,0.4c0,0,0.1,0,0.1,0
				c0.1,0,0.2-0.1,0.3-0.2l4.2-7.9C79.7,614.3,79.6,614.1,79.5,614z M112.9,550.8c-0.2-0.1-0.4,0-0.4,0.1l-4.2,7.9
				c-0.1,0.2,0,0.3,0.1,0.4c0,0,0.1,0,0.1,0c0.1,0,0.2-0.1,0.3-0.2l4.2-7.9C113.1,551.1,113.1,550.9,112.9,550.8z M41.7,587.9
				l-5.5,6.8c-0.1,0.1-0.1,0.3,0,0.5c0.1,0,0.1,0.1,0.2,0.1c0.1,0,0.2,0,0.2-0.1l5.5-6.8c0.1-0.1,0.1-0.3,0-0.5
				C42.1,587.7,41.9,587.7,41.7,587.9z M52.8,574.2l-5.5,6.8c-0.1,0.1-0.1,0.3,0,0.5c0.1,0,0.1,0.1,0.2,0.1c0.1,0,0.2,0,0.2-0.1
				l5.5-6.8c0.1-0.1,0.1-0.3,0-0.5C53.2,574,52.9,574.1,52.8,574.2z M63.9,560.5l-5.5,6.8c-0.1,0.1-0.1,0.3,0,0.5
				c0.1,0,0.1,0.1,0.2,0.1c0.1,0,0.2,0,0.2-0.1l5.5-6.8c0.1-0.1,0.1-0.3,0-0.5C64.2,560.4,64,560.4,63.9,560.5z M75,546.9l-5.5,6.8
				c-0.1,0.1-0.1,0.3,0,0.5c0.1,0,0.1,0.1,0.2,0.1c0.1,0,0.2,0,0.2-0.1l5.5-6.8c0.1-0.1,0.1-0.3,0-0.5
				C75.3,546.7,75.1,546.7,75,546.9z M86.1,533.2l-5.5,6.8c-0.1,0.1-0.1,0.3,0,0.5c0.1,0,0.1,0.1,0.2,0.1c0.1,0,0.2,0,0.2-0.1
				l5.5-6.8c0.1-0.1,0.1-0.3,0-0.5C86.4,533.1,86.2,533.1,86.1,533.2z M20,615.1c-0.1-0.1-0.3-0.1-0.5,0l-1.4,1.8v1l1.9-2.4
				C20.2,615.4,20.2,615.2,20,615.1z M30.7,601.5l-5.5,6.8c-0.1,0.1-0.1,0.3,0,0.5c0.1,0,0.1,0.1,0.2,0.1c0.1,0,0.2,0,0.2-0.1
				l5.5-6.8c0.1-0.1,0.1-0.3,0-0.5C31,601.4,30.8,601.4,30.7,601.5z M61,541.1l-3,3.1c-0.1,0.1-0.1,0.3,0,0.5
				c0.1,0.1,0.1,0.1,0.2,0.1c0.1,0,0.2,0,0.2-0.1l3-3.1c0.1-0.1,0.1-0.3,0-0.5C61.4,541,61.2,541,61,541.1z M75.4,526l-7.2,7.6
				c-0.1,0.1-0.1,0.3,0,0.5c0.1,0.1,0.1,0.1,0.2,0.1c0.1,0,0.2,0,0.2-0.1l7.2-7.6c0.1-0.1,0.1-0.3,0-0.5
				C75.7,525.9,75.5,525.9,75.4,526z M54.6,527.4l-6.5,5.9c-0.1,0.1-0.1,0.3,0,0.5c0.1,0.1,0.2,0.1,0.2,0.1c0.1,0,0.2,0,0.2-0.1
				l6.5-5.9c0.1-0.1,0.1-0.3,0-0.5C54.9,527.3,54.7,527.3,54.6,527.4z M67.7,515.7l-6.5,5.9c-0.1,0.1-0.1,0.3,0,0.5
				c0.1,0.1,0.2,0.1,0.2,0.1c0.1,0,0.2,0,0.2-0.1l6.5-5.9c0.1-0.1,0.1-0.3,0-0.5C68,515.5,67.8,515.5,67.7,515.7z M41.5,539.2
				l-6.5,5.9c-0.1,0.1-0.1,0.3,0,0.5c0.1,0.1,0.2,0.1,0.2,0.1c0.1,0,0.2,0,0.2-0.1l6.5-5.9c0.1-0.1,0.1-0.3,0-0.5
				C41.8,539.1,41.6,539.1,41.5,539.2z M28.4,551l-6.5,5.9c-0.1,0.1-0.1,0.3,0,0.5c0.1,0.1,0.2,0.1,0.2,0.1c0.1,0,0.2,0,0.2-0.1
				l6.5-5.9c0.1-0.1,0.1-0.3,0-0.5C28.7,550.9,28.5,550.9,28.4,551z M55.5,500.9l-7.4,5.3c-0.1,0.1-0.2,0.3-0.1,0.4
				c0.1,0.1,0.2,0.1,0.3,0.1c0.1,0,0.1,0,0.2-0.1l7.4-5.3c0.1-0.1,0.2-0.3,0.1-0.4C55.8,500.8,55.6,500.8,55.5,500.9z M40.7,511.4
				l-7.4,5.3c-0.1,0.1-0.2,0.3-0.1,0.4c0.1,0.1,0.2,0.1,0.3,0.1c0.1,0,0.1,0,0.2-0.1l7.4-5.3c0.1-0.1,0.2-0.3,0.1-0.4
				C41,511.3,40.8,511.3,40.7,511.4z M25.9,521.9l-7.4,5.3c-0.1,0.1-0.2,0.3-0.1,0.4c0.1,0.1,0.2,0.1,0.3,0.1c0.1,0,0.1,0,0.2-0.1
				l7.4-5.3c0.1-0.1,0.2-0.3,0.1-0.4C26.2,521.8,26,521.8,25.9,521.9z M47.6,489.2l-8.1,4.8c-0.2,0.1-0.2,0.3-0.1,0.4
				c0.1,0.1,0.2,0.2,0.3,0.2c0.1,0,0.1,0,0.2,0l8.1-4.8c0.2-0.1,0.2-0.3,0.1-0.4C47.9,489.1,47.7,489.1,47.6,489.2z M31.4,498.7
				l-8.1,4.8c-0.2,0.1-0.2,0.3-0.1,0.4c0.1,0.1,0.2,0.2,0.3,0.2c0.1,0,0.1,0,0.2,0l8.1-4.8c0.2-0.1,0.2-0.3,0.1-0.4
				C31.8,498.7,31.6,498.6,31.4,498.7z M23.7,479.1c-0.1-0.2-0.3-0.2-0.4-0.2l-5.2,2.3v0.7l5.4-2.4
				C23.7,479.4,23.8,479.2,23.7,479.1z M39.4,471.8l-8,3.6c-0.2,0.1-0.2,0.3-0.2,0.4c0.1,0.1,0.2,0.2,0.3,0.2c0,0,0.1,0,0.1,0l8-3.6
				c0.2-0.1,0.2-0.3,0.2-0.4C39.7,471.8,39.5,471.7,39.4,471.8z M32.6,453.9l-8.5,2.6c-0.2,0.1-0.3,0.2-0.2,0.4
				c0,0.1,0.2,0.2,0.3,0.2c0,0,0.1,0,0.1,0l8.5-2.6c0.2-0.1,0.3-0.2,0.2-0.4C32.9,454,32.7,453.9,32.6,453.9z M26.8,423.1
				c0-0.2-0.2-0.3-0.4-0.3l-8.3,0.9v0.6l8.3-0.9C26.6,423.4,26.8,423.2,26.8,423.1z M24.3,410.4c0-0.2-0.1-0.3-0.3-0.3l-5.9,0.2v0.6
				l5.9-0.2C24.2,410.8,24.3,410.6,24.3,410.4z M25.8,398c0.2,0,0.3-0.1,0.3-0.3c0-0.2-0.1-0.3-0.3-0.3l-7.6-0.4v0.6L25.8,398
				C25.7,398,25.7,398,25.8,398z M27.7,378.3l-9-1.5c-0.2,0-0.3,0.1-0.4,0.3c0,0.2,0.1,0.3,0.3,0.4l9,1.5c0,0,0,0,0.1,0
				c0.2,0,0.3-0.1,0.3-0.3C28,378.5,27.8,378.3,27.7,378.3z M30.4,364.4l-9.1-2.3c-0.2,0-0.3,0.1-0.4,0.2c0,0.2,0.1,0.3,0.2,0.4
				l9.1,2.3c0,0,0.1,0,0.1,0c0.1,0,0.3-0.1,0.3-0.2C30.6,364.6,30.5,364.4,30.4,364.4z M36.8,346.3l-8.2-3.2c-0.2-0.1-0.4,0-0.4,0.2
				c-0.1,0.2,0,0.4,0.2,0.4l8.2,3.2c0,0,0.1,0,0.1,0c0.1,0,0.2-0.1,0.3-0.2C37,346.6,37,346.4,36.8,346.3z M20.3,340.6
				c0.1,0,0.2-0.1,0.3-0.2c0.1-0.2,0-0.4-0.2-0.4l-2.3-0.9v0.7l2,0.8C20.2,340.6,20.2,340.6,20.3,340.6z M28.8,320.6l-7.9-4.2
				c-0.2-0.1-0.4,0-0.4,0.1c-0.1,0.2,0,0.4,0.1,0.4l7.9,4.2c0,0,0.1,0,0.1,0c0.1,0,0.2-0.1,0.3-0.2C29.1,320.8,29,320.6,28.8,320.6z
				 M44.7,328.9l-7.9-4.2c-0.2-0.1-0.4,0-0.4,0.1c-0.1,0.2,0,0.4,0.1,0.4l7.9,4.2c0,0,0.1,0,0.1,0c0.1,0,0.2-0.1,0.3-0.2
				C44.9,329.2,44.8,329,44.7,328.9z M41.8,285.9c-0.1-0.1-0.3-0.1-0.5,0c-0.1,0.1-0.1,0.3,0,0.5l6.8,5.5c0.1,0,0.1,0.1,0.2,0.1
				c0.1,0,0.2,0,0.2-0.1c0.1-0.1,0.1-0.3,0-0.5L41.8,285.9z M21.1,269.8c0.1,0,0.2,0,0.2-0.1c0.1-0.1,0.1-0.3,0-0.5l-3.2-2.6v0.8
				l2.8,2.3C21,269.8,21.1,269.8,21.1,269.8z M55.5,297c-0.1-0.1-0.3-0.1-0.5,0c-0.1,0.1-0.1,0.3,0,0.5l6.8,5.5
				c0.1,0,0.1,0.1,0.2,0.1c0.1,0,0.2,0,0.2-0.1c0.1-0.1,0.1-0.3,0-0.5L55.5,297z M28.2,274.8c-0.1-0.1-0.3-0.1-0.5,0
				c-0.1,0.1-0.1,0.3,0,0.5l6.8,5.5c0.1,0,0.1,0.1,0.2,0.1c0.1,0,0.2,0,0.2-0.1c0.1-0.1,0.1-0.3,0-0.5L28.2,274.8z M51.3,274.5
				c-0.1-0.1-0.3-0.1-0.5,0c-0.1,0.1-0.1,0.3,0,0.5l3.1,3c0.1,0.1,0.1,0.1,0.2,0.1c0.1,0,0.2,0,0.2-0.1c0.1-0.1,0.1-0.3,0-0.5
				L51.3,274.5z M62,284.7c-0.1-0.1-0.3-0.1-0.5,0c-0.1,0.1-0.1,0.3,0,0.5l7.6,7.2c0.1,0.1,0.1,0.1,0.2,0.1c0.1,0,0.2,0,0.2-0.1
				c0.1-0.1,0.1-0.3,0-0.5L62,284.7z M29.9,228.6c-0.1-0.1-0.3-0.1-0.5,0c-0.1,0.1-0.1,0.3,0,0.5l2.9,3.2c0.1,0.1,0.2,0.1,0.2,0.1
				c0.1,0,0.2,0,0.2-0.1c0.1-0.1,0.1-0.3,0-0.5L29.9,228.6z M62.2,264.5c-0.1-0.1-0.3-0.1-0.5,0c-0.1,0.1-0.1,0.3,0,0.5l5.9,6.5
				c0.1,0.1,0.2,0.1,0.2,0.1c0.1,0,0.2,0,0.2-0.1c0.1-0.1,0.1-0.3,0-0.5L62.2,264.5z M38.6,238.3c-0.1-0.1-0.3-0.1-0.5,0
				c-0.1,0.1-0.1,0.3,0,0.5l5.9,6.5c0.1,0.1,0.2,0.1,0.2,0.1c0.1,0,0.2,0,0.2-0.1c0.1-0.1,0.1-0.3,0-0.5L38.6,238.3z M50.4,251.4
				c-0.1-0.1-0.3-0.1-0.5,0c-0.1,0.1-0.1,0.3,0,0.5l5.9,6.5c0.1,0.1,0.2,0.1,0.2,0.1c0.1,0,0.2,0,0.2-0.1c0.1-0.1,0.1-0.3,0-0.5
				L50.4,251.4z M74,277.5c-0.1-0.1-0.3-0.1-0.5,0c-0.1,0.1-0.1,0.3,0,0.5l5.9,6.5c0.1,0.1,0.2,0.1,0.2,0.1c0.1,0,0.2,0,0.2-0.1
				c0.1-0.1,0.1-0.3,0-0.5L74,277.5z M39.7,194.4c-0.1-0.1-0.3-0.2-0.4-0.1c-0.1,0.1-0.2,0.3-0.1,0.4l2.5,3.5
				c0.1,0.1,0.2,0.1,0.3,0.1c0.1,0,0.1,0,0.2-0.1c0.1-0.1,0.2-0.3,0.1-0.4L39.7,194.4z M57.9,220.1c-0.1-0.1-0.3-0.2-0.4-0.1
				c-0.1,0.1-0.2,0.3-0.1,0.4l5.3,7.4c0.1,0.1,0.2,0.1,0.3,0.1c0.1,0,0.1,0,0.2-0.1c0.1-0.1,0.2-0.3,0.1-0.4L57.9,220.1z
				 M47.4,205.3c-0.1-0.1-0.3-0.2-0.4-0.1c-0.1,0.1-0.2,0.3-0.1,0.4l5.3,7.4c0.1,0.1,0.2,0.1,0.3,0.1c0.1,0,0.1,0,0.2-0.1
				c0.1-0.1,0.2-0.3,0.1-0.4L47.4,205.3z M68.4,234.9c-0.1-0.1-0.3-0.2-0.4-0.1c-0.1,0.1-0.2,0.3-0.1,0.4l5.3,7.4
				c0.1,0.1,0.2,0.1,0.3,0.1c0.1,0,0.1,0,0.2-0.1c0.1-0.1,0.2-0.3,0.1-0.4L68.4,234.9z M89.5,264.5c-0.1-0.1-0.3-0.2-0.4-0.1
				c-0.1,0.1-0.2,0.3-0.1,0.4l5.3,7.4c0.1,0.1,0.2,0.1,0.3,0.1c0.1,0,0.1,0,0.2-0.1c0.1-0.1,0.2-0.3,0.1-0.4L89.5,264.5z M79,249.7
				c-0.1-0.1-0.3-0.2-0.4-0.1c-0.1,0.1-0.2,0.3-0.1,0.4l5.3,7.4c0.1,0.1,0.2,0.1,0.3,0.1c0.1,0,0.1,0,0.2-0.1
				c0.1-0.1,0.2-0.3,0.1-0.4L79,249.7z M66.1,195.7c-0.1-0.2-0.3-0.2-0.4-0.1c-0.2,0.1-0.2,0.3-0.1,0.4l2.2,3.7
				c0.1,0.1,0.2,0.2,0.3,0.2c0.1,0,0.1,0,0.2,0c0.2-0.1,0.2-0.3,0.1-0.4L66.1,195.7z M82.6,223.6c-0.1-0.2-0.3-0.2-0.4-0.1
				c-0.2,0.1-0.2,0.3-0.1,0.4l4.8,8.1c0.1,0.1,0.2,0.2,0.3,0.2c0.1,0,0.1,0,0.2,0c0.2-0.1,0.2-0.3,0.1-0.4L82.6,223.6z M73.1,207.4
				c-0.1-0.2-0.3-0.2-0.4-0.1c-0.2,0.1-0.2,0.3-0.1,0.4l4.8,8.1c0.1,0.1,0.2,0.2,0.3,0.2c0.1,0,0.1,0,0.2,0c0.2-0.1,0.2-0.3,0.1-0.4
				L73.1,207.4z M101.6,255.9c-0.1-0.2-0.3-0.2-0.4-0.1c-0.2,0.1-0.2,0.3-0.1,0.4l4.8,8.1c0.1,0.1,0.2,0.2,0.3,0.2
				c0.1,0,0.1,0,0.2,0c0.2-0.1,0.2-0.3,0.1-0.4L101.6,255.9z M92.1,239.8c-0.1-0.2-0.3-0.2-0.4-0.1c-0.2,0.1-0.2,0.3-0.1,0.4
				l4.8,8.1c0.1,0.1,0.2,0.2,0.3,0.2c0.1,0,0.1,0,0.2,0c0.2-0.1,0.2-0.3,0.1-0.4L92.1,239.8z M65.1,123.2c-0.1-0.2-0.3-0.2-0.4-0.2
				c-0.2,0.1-0.2,0.3-0.2,0.4l1.7,3.9c0.1,0.1,0.2,0.2,0.3,0.2c0,0,0.1,0,0.1,0c0.2-0.1,0.2-0.3,0.2-0.4L65.1,123.2z M98.9,199.5
				c-0.1-0.2-0.3-0.2-0.4-0.2c-0.2,0.1-0.2,0.3-0.2,0.4l3.6,8c0.1,0.1,0.2,0.2,0.3,0.2c0,0,0.1,0,0.1,0c0.2-0.1,0.2-0.3,0.2-0.4
				L98.9,199.5z M84.6,167.3c-0.1-0.2-0.3-0.2-0.4-0.2c-0.2,0.1-0.2,0.3-0.2,0.4l3.6,8c0.1,0.1,0.2,0.2,0.3,0.2c0,0,0.1,0,0.1,0
				c0.2-0.1,0.2-0.3,0.2-0.4L84.6,167.3z M77.5,151.2c-0.1-0.2-0.3-0.2-0.4-0.2c-0.2,0.1-0.2,0.3-0.2,0.4l3.6,8
				c0.1,0.1,0.2,0.2,0.3,0.2c0,0,0.1,0,0.1,0c0.2-0.1,0.2-0.3,0.2-0.4L77.5,151.2z M91.8,183.4c-0.1-0.2-0.3-0.2-0.4-0.2
				c-0.2,0.1-0.2,0.3-0.2,0.4l3.6,8c0.1,0.1,0.2,0.2,0.3,0.2c0,0,0.1,0,0.1,0c0.2-0.1,0.2-0.3,0.2-0.4L91.8,183.4z M113.1,231.7
				c-0.1-0.2-0.3-0.2-0.4-0.2c-0.2,0.1-0.2,0.3-0.2,0.4l3.6,8c0.1,0.1,0.2,0.2,0.3,0.2c0,0,0.1,0,0.1,0c0.2-0.1,0.2-0.3,0.2-0.4
				L113.1,231.7z M120.2,247.8c-0.1-0.2-0.3-0.2-0.4-0.2c-0.2,0.1-0.2,0.3-0.2,0.4l3.6,8c0.1,0.1,0.2,0.2,0.3,0.2c0,0,0.1,0,0.1,0
				c0.2-0.1,0.2-0.3,0.2-0.4L120.2,247.8z M106,215.6c-0.1-0.2-0.3-0.2-0.4-0.2c-0.2,0.1-0.2,0.3-0.2,0.4l3.6,8
				c0.1,0.1,0.2,0.2,0.3,0.2c0,0,0.1,0,0.1,0c0.2-0.1,0.2-0.3,0.2-0.4L106,215.6z M70.4,135.1c-0.1-0.2-0.3-0.2-0.4-0.2
				c-0.2,0.1-0.2,0.3-0.2,0.4l3.6,8c0.1,0.1,0.2,0.2,0.3,0.2c0,0,0.1,0,0.1,0c0.2-0.1,0.2-0.3,0.2-0.4L70.4,135.1z M103.4,125.3
				c-0.1-0.2-0.2-0.3-0.4-0.2c-0.2,0.1-0.3,0.2-0.2,0.4l1.3,4.1c0,0.1,0.2,0.2,0.3,0.2c0,0,0.1,0,0.1,0c0.2-0.1,0.3-0.2,0.2-0.4
				L103.4,125.3z M117.9,172.1c-0.1-0.2-0.2-0.3-0.4-0.2c-0.2,0.1-0.3,0.2-0.2,0.4l2.6,8.5c0,0.1,0.2,0.2,0.3,0.2c0,0,0.1,0,0.1,0
				c0.2-0.1,0.3-0.2,0.2-0.4L117.9,172.1z M139,240.5c-0.1-0.2-0.2-0.3-0.4-0.2c-0.2,0.1-0.3,0.2-0.2,0.4l2.6,8.5
				c0,0.1,0.2,0.2,0.3,0.2c0,0,0.1,0,0.1,0c0.2-0.1,0.3-0.2,0.2-0.4L139,240.5z M107.3,138c-0.1-0.2-0.2-0.3-0.4-0.2
				c-0.2,0.1-0.3,0.2-0.2,0.4l2.6,8.5c0,0.1,0.2,0.2,0.3,0.2c0,0,0.1,0,0.1,0c0.2-0.1,0.3-0.2,0.2-0.4L107.3,138z M128.5,206.3
				c-0.1-0.2-0.2-0.3-0.4-0.2c-0.2,0.1-0.3,0.2-0.2,0.4l2.6,8.5c0,0.1,0.2,0.2,0.3,0.2c0,0,0.1,0,0.1,0c0.2-0.1,0.3-0.2,0.2-0.4
				L128.5,206.3z M133.7,223.4c-0.1-0.2-0.2-0.3-0.4-0.2c-0.2,0.1-0.3,0.2-0.2,0.4l2.6,8.5c0,0.1,0.2,0.2,0.3,0.2c0,0,0.1,0,0.1,0
				c0.2-0.1,0.3-0.2,0.2-0.4L133.7,223.4z M112.6,155c-0.1-0.2-0.2-0.3-0.4-0.2c-0.2,0.1-0.3,0.2-0.2,0.4l2.6,8.5
				c0,0.1,0.2,0.2,0.3,0.2c0,0,0.1,0,0.1,0c0.2-0.1,0.3-0.2,0.2-0.4L112.6,155z M123.2,189.2c-0.1-0.2-0.2-0.3-0.4-0.2
				c-0.2,0.1-0.3,0.2-0.2,0.4l2.6,8.5c0,0.1,0.2,0.2,0.3,0.2c0,0,0.1,0,0.1,0c0.2-0.1,0.3-0.2,0.2-0.4L123.2,189.2z M169.7,216.3
				c-0.2,0-0.3,0.2-0.3,0.4l0.9,8.7c0,0.2,0.2,0.3,0.3,0.3c0,0,0,0,0,0c0.2,0,0.3-0.2,0.3-0.4l-0.9-8.7
				C170.1,216.4,169.9,216.3,169.7,216.3z M164.2,163.8c-0.2,0-0.3,0.2-0.3,0.4l0.9,8.7c0,0.2,0.2,0.3,0.3,0.3c0,0,0,0,0,0
				c0.2,0,0.3-0.2,0.3-0.4l-0.9-8.7C164.6,163.9,164.4,163.8,164.2,163.8z M167.9,198.8c-0.2,0-0.3,0.2-0.3,0.4l0.9,8.7
				c0,0.2,0.2,0.3,0.3,0.3c0,0,0,0,0,0c0.2,0,0.3-0.2,0.3-0.4l-0.9-8.7C168.2,198.9,168.1,198.8,167.9,198.8z M166.1,181.3
				c-0.2,0-0.3,0.2-0.3,0.4l0.9,8.7c0,0.2,0.2,0.3,0.3,0.3c0,0,0,0,0,0c0.2,0,0.3-0.2,0.3-0.4l-0.9-8.7
				C166.4,181.4,166.2,181.3,166.1,181.3z M158.8,111.3c-0.2,0-0.3,0.2-0.3,0.4l0.9,8.7c0,0.2,0.2,0.3,0.3,0.3c0,0,0,0,0,0
				c0.2,0,0.3-0.2,0.3-0.4l-0.9-8.7C159.1,111.4,158.9,111.3,158.8,111.3z M162.4,146.3c-0.2,0-0.3,0.2-0.3,0.4l0.9,8.7
				c0,0.2,0.2,0.3,0.3,0.3c0,0,0,0,0,0c0.2,0,0.3-0.2,0.3-0.4l-0.9-8.7C162.7,146.4,162.6,146.3,162.4,146.3z M171.6,233.8
				c-0.2,0-0.3,0.2-0.3,0.4l0.9,8.7c0,0.2,0.2,0.3,0.3,0.3c0,0,0,0,0,0c0.2,0,0.3-0.2,0.3-0.4l-0.9-8.7
				C171.9,233.9,171.7,233.8,171.6,233.8z M160.6,128.8c-0.2,0-0.3,0.2-0.3,0.4l0.9,8.7c0,0.2,0.2,0.3,0.3,0.3c0,0,0,0,0,0
				c0.2,0,0.3-0.2,0.3-0.4l-0.9-8.7C160.9,128.9,160.8,128.8,160.6,128.8z M184.5,215c-0.2,0-0.3,0.2-0.3,0.3l0.1,4.3
				c0,0.2,0.1,0.3,0.3,0.3c0,0,0,0,0,0c0.2,0,0.3-0.2,0.3-0.3l-0.1-4.3C184.8,215.1,184.7,215,184.5,215z M184.9,229.7
				c-0.2,0-0.3,0.2-0.3,0.3l0.3,10.4c0,0.2,0.1,0.3,0.3,0.3c0,0,0,0,0,0c0.2,0,0.3-0.2,0.3-0.3l-0.3-10.4
				C185.2,229.8,185.1,229.7,184.9,229.7z M201.9,167.2c-0.2,0-0.3,0.1-0.3,0.3l-0.2,4.3c0,0.2,0.1,0.3,0.3,0.3c0,0,0,0,0,0
				c0.2,0,0.3-0.1,0.3-0.3l0.2-4.3C202.2,167.4,202,167.3,201.9,167.2z M198.4,233.1c-0.2,0-0.3,0.1-0.3,0.3l-0.5,8.8
				c0,0.2,0.1,0.3,0.3,0.3c0,0,0,0,0,0c0.2,0,0.3-0.1,0.3-0.3l0.5-8.8C198.7,233.2,198.6,233.1,198.4,233.1z M201.2,180.3
				c-0.2,0-0.3,0.1-0.3,0.3l-0.5,8.8c0,0.2,0.1,0.3,0.3,0.3c0,0,0,0,0,0c0.2,0,0.3-0.1,0.3-0.3l0.5-8.8
				C201.5,180.5,201.3,180.3,201.2,180.3z M200.2,197.9c-0.2,0-0.3,0.1-0.3,0.3l-0.5,8.8c0,0.2,0.1,0.3,0.3,0.3c0,0,0,0,0,0
				c0.2,0,0.3-0.1,0.3-0.3l0.5-8.8C200.6,198.1,200.4,197.9,200.2,197.9z M199.3,215.5c-0.2,0-0.3,0.1-0.3,0.3l-0.5,8.8
				c0,0.2,0.1,0.3,0.3,0.3c0,0,0,0,0,0c0.2,0,0.3-0.1,0.3-0.3l0.5-8.8C199.6,215.7,199.5,215.5,199.3,215.5z M233,150.1
				c-0.2,0-0.3,0.1-0.4,0.3l-0.7,4.2c0,0.2,0.1,0.3,0.3,0.4c0,0,0,0,0.1,0c0.2,0,0.3-0.1,0.3-0.3l0.7-4.2
				C233.3,150.3,233.2,150.1,233,150.1z M224.7,199c-0.2,0-0.3,0.1-0.4,0.3l-1.5,8.9c0,0.2,0.1,0.3,0.3,0.4c0,0,0,0,0.1,0
				c0.2,0,0.3-0.1,0.3-0.3l1.5-8.9C225,199.2,224.8,199,224.7,199z M227.7,181.1c-0.2,0-0.3,0.1-0.4,0.3l-1.5,8.9
				c0,0.2,0.1,0.3,0.3,0.4c0,0,0,0,0.1,0c0.2,0,0.3-0.1,0.3-0.3l1.5-8.9C228,181.3,227.9,181.1,227.7,181.1z M230.8,163.2
				c-0.2,0-0.3,0.1-0.4,0.3l-1.5,8.9c0,0.2,0.1,0.3,0.3,0.4c0,0,0,0,0.1,0c0.2,0,0.3-0.1,0.3-0.3l1.5-8.9
				C231.1,163.4,230.9,163.3,230.8,163.2z M221.6,216.9c-0.2,0-0.3,0.1-0.4,0.3l-1.5,8.9c0,0.2,0.1,0.3,0.3,0.4c0,0,0,0,0.1,0
				c0.2,0,0.3-0.1,0.3-0.3l1.5-8.9C221.9,217.1,221.8,216.9,221.6,216.9z M218.6,234.8c-0.2,0-0.3,0.1-0.4,0.3l-1.5,8.9
				c0,0.2,0.1,0.3,0.3,0.4c0,0,0,0,0.1,0c0.2,0,0.3-0.1,0.3-0.3l1.5-8.9C218.9,235,218.7,234.8,218.6,234.8z M250.8,169.6
				c-0.2,0-0.3,0.1-0.4,0.2l-1.1,4.2c0,0.2,0.1,0.3,0.2,0.4c0,0,0.1,0,0.1,0c0.1,0,0.3-0.1,0.3-0.2l1.1-4.2
				C251.1,169.8,251,169.7,250.8,169.6z M238,219.2c-0.2,0-0.3,0.1-0.4,0.2l-2.3,9.1c0,0.2,0.1,0.3,0.2,0.4c0,0,0.1,0,0.1,0
				c0.1,0,0.3-0.1,0.3-0.2l2.3-9.1C238.3,219.4,238.2,219.2,238,219.2z M242.7,201c-0.2,0-0.3,0.1-0.4,0.2l-2.3,9.1
				c0,0.2,0.1,0.3,0.2,0.4c0,0,0.1,0,0.1,0c0.1,0,0.3-0.1,0.3-0.2l2.3-9.1C243,201.2,242.9,201.1,242.7,201z M233.3,237.3
				c-0.2,0-0.3,0.1-0.4,0.2l-2.3,9.1c0,0.2,0.1,0.3,0.2,0.4c0,0,0.1,0,0.1,0c0.1,0,0.3-0.1,0.3-0.2l2.3-9.1
				C233.6,237.6,233.5,237.4,233.3,237.3z M247.4,182.9c-0.2,0-0.3,0.1-0.4,0.2l-2.3,9.1c0,0.2,0.1,0.3,0.2,0.4c0,0,0.1,0,0.1,0
				c0.1,0,0.3-0.1,0.3-0.2l2.3-9.1C247.7,183.1,247.6,182.9,247.4,182.9z M301.4,117.6c-0.2-0.1-0.4,0-0.4,0.2l-1.5,4
				c-0.1,0.2,0,0.4,0.2,0.4c0,0,0.1,0,0.1,0c0.1,0,0.2-0.1,0.3-0.2l1.5-4C301.7,117.8,301.6,117.6,301.4,117.6z M252.3,244.6
				c-0.2-0.1-0.3,0-0.4,0.2l-3.2,8.2c-0.1,0.2,0,0.4,0.2,0.4c0,0,0.1,0,0.1,0c0.1,0,0.2-0.1,0.3-0.2l3.2-8.2
				C252.5,244.9,252.4,244.7,252.3,244.6z M258.6,228.2c-0.2-0.1-0.3,0-0.4,0.2l-3.2,8.2c-0.1,0.2,0,0.4,0.2,0.4c0,0,0.1,0,0.1,0
				c0.1,0,0.2-0.1,0.3-0.2l3.2-8.2C258.9,228.5,258.8,228.3,258.6,228.2z M265,211.8c-0.2-0.1-0.3,0-0.4,0.2l-3.2,8.2
				c-0.1,0.2,0,0.4,0.2,0.4c0,0,0.1,0,0.1,0c0.1,0,0.2-0.1,0.3-0.2l3.2-8.2C265.2,212.1,265.1,211.9,265,211.8z M284,162.6
				c-0.2-0.1-0.3,0-0.4,0.2l-3.2,8.2c-0.1,0.2,0,0.4,0.2,0.4c0,0,0.1,0,0.1,0c0.1,0,0.2-0.1,0.3-0.2l3.2-8.2
				C284.3,162.8,284.2,162.6,284,162.6z M296.7,129.8c-0.2-0.1-0.3,0-0.4,0.2l-3.2,8.2c-0.1,0.2,0,0.4,0.2,0.4c0,0,0.1,0,0.1,0
				c0.1,0,0.2-0.1,0.3-0.2l3.2-8.2C296.9,130,296.9,129.8,296.7,129.8z M277.7,179c-0.2-0.1-0.3,0-0.4,0.2l-3.2,8.2
				c-0.1,0.2,0,0.4,0.2,0.4c0,0,0.1,0,0.1,0c0.1,0,0.2-0.1,0.3-0.2l3.2-8.2C277.9,179.2,277.8,179.1,277.7,179z M271.3,195.4
				c-0.2-0.1-0.3,0-0.4,0.2l-3.2,8.2c-0.1,0.2,0,0.4,0.2,0.4c0,0,0.1,0,0.1,0c0.1,0,0.2-0.1,0.3-0.2l3.2-8.2
				C271.6,195.6,271.5,195.5,271.3,195.4z M290.4,146.2c-0.2-0.1-0.3,0-0.4,0.2l-3.2,8.2c-0.1,0.2,0,0.4,0.2,0.4c0,0,0.1,0,0.1,0
				c0.1,0,0.2-0.1,0.3-0.2l3.2-8.2C290.6,146.4,290.5,146.2,290.4,146.2z M327.1,146.2c-0.2-0.1-0.4,0-0.4,0.1l-2,3.8
				c-0.1,0.2,0,0.4,0.1,0.4c0,0,0.1,0,0.1,0c0.1,0,0.2-0.1,0.3-0.2l2-3.8C327.3,146.5,327.2,146.3,327.1,146.2z M279.1,236.9
				c-0.2-0.1-0.4,0-0.4,0.1l-4.2,7.9c-0.1,0.2,0,0.4,0.1,0.4c0,0,0.1,0,0.1,0c0.1,0,0.2-0.1,0.3-0.2l4.2-7.9
				C279.3,237.2,279.3,237,279.1,236.9z M320.9,157.9c-0.2-0.1-0.3,0-0.4,0.1l-4.2,7.9c-0.1,0.2,0,0.4,0.1,0.4c0,0,0.1,0,0.1,0
				c0.1,0,0.2-0.1,0.3-0.2l4.2-7.9C321.1,158.2,321,158,320.9,157.9z M304.2,189.5c-0.2-0.1-0.4,0-0.4,0.1l-4.2,7.9
				c-0.1,0.2,0,0.4,0.1,0.4c0,0,0.1,0,0.1,0c0.1,0,0.2-0.1,0.3-0.2l4.2-7.9C304.4,189.8,304.3,189.6,304.2,189.5z M287.5,221.1
				c-0.2-0.1-0.4,0-0.4,0.1l-4.2,7.9c-0.1,0.2,0,0.4,0.1,0.4c0,0,0.1,0,0.1,0c0.1,0,0.2-0.1,0.3-0.2l4.2-7.9
				C287.7,221.4,287.6,221.2,287.5,221.1z M312.5,173.7c-0.2-0.1-0.4,0-0.4,0.1l-4.2,7.9c-0.1,0.2,0,0.4,0.1,0.4c0,0,0.1,0,0.1,0
				c0.1,0,0.2-0.1,0.3-0.2l4.2-7.9C312.7,174,312.7,173.8,312.5,173.7z M295.8,205.3c-0.2-0.1-0.4,0-0.4,0.1l-4.2,7.9
				c-0.1,0.2,0,0.4,0.1,0.4c0,0,0.1,0,0.1,0c0.1,0,0.2-0.1,0.3-0.2l4.2-7.9C296,205.6,296,205.4,295.8,205.3z M270.7,252.8
				c-0.2-0.1-0.4,0-0.4,0.1l-4.2,7.9c-0.1,0.2,0,0.4,0.1,0.4c0,0,0.1,0,0.1,0c0.1,0,0.2-0.1,0.3-0.2l4.2-7.9
				C271,253,270.9,252.8,270.7,252.8z M320.3,244.2l-5.5,6.8c-0.1,0.1-0.1,0.3,0,0.5c0.1,0,0.1,0.1,0.2,0.1c0.1,0,0.2,0,0.2-0.1
				l5.5-6.8c0.1-0.1,0.1-0.3,0-0.5C320.6,244.1,320.4,244.1,320.3,244.2z M309.2,257.9l-5.5,6.8c-0.1,0.1-0.1,0.3,0,0.5
				c0.1,0,0.1,0.1,0.2,0.1c0.1,0,0.2,0,0.2-0.1l5.5-6.8c0.1-0.1,0.1-0.3,0-0.5C309.5,257.7,309.3,257.7,309.2,257.9z M331.4,230.6
				l-5.5,6.8c-0.1,0.1-0.1,0.3,0,0.5c0.1,0,0.1,0.1,0.2,0.1c0.1,0,0.2,0,0.2-0.1l5.5-6.8c0.1-0.1,0.1-0.3,0-0.5
				C331.7,230.4,331.5,230.4,331.4,230.6z M342.5,216.9l-5.5,6.8c-0.1,0.1-0.1,0.3,0,0.5c0.1,0,0.1,0.1,0.2,0.1c0.1,0,0.2,0,0.2-0.1
				l5.5-6.8c0.1-0.1,0.1-0.3,0-0.5C342.8,216.7,342.6,216.8,342.5,216.9z M359.1,196.4c-0.1,0.1-0.1,0.3,0,0.5
				c0.1,0,0.1,0.1,0.2,0.1c0.1,0,0.2,0,0.2-0.1l1.4-1.8v-1L359.1,196.4z M353.6,203.2l-5.5,6.8c-0.1,0.1-0.1,0.3,0,0.5
				c0.1,0,0.1,0.1,0.2,0.1c0.1,0,0.2,0,0.2-0.1l5.5-6.8c0.1-0.1,0.1-0.3,0-0.5C353.9,203.1,353.7,203.1,353.6,203.2z M298.1,271.5
				l-5.5,6.8c-0.1,0.1-0.1,0.3,0,0.5c0.1,0,0.1,0.1,0.2,0.1c0.1,0,0.2,0,0.2-0.1l5.5-6.8c0.1-0.1,0.1-0.3,0-0.5
				C298.4,271.4,298.2,271.4,298.1,271.5z M320.6,267.3l-3,3.1c-0.1,0.1-0.1,0.3,0,0.5c0.1,0.1,0.1,0.1,0.2,0.1c0.1,0,0.2,0,0.2-0.1
				l3-3.1c0.1-0.1,0.1-0.3,0-0.5C321,267.2,320.7,267.2,320.6,267.3z M310.5,278l-7.2,7.6c-0.1,0.1-0.1,0.3,0,0.5
				c0.1,0.1,0.1,0.1,0.2,0.1c0.1,0,0.2,0,0.2-0.1l7.2-7.6c0.1-0.1,0.1-0.3,0-0.5C310.8,277.9,310.6,277.9,310.5,278z M317.6,290
				l-6.5,5.9c-0.1,0.1-0.1,0.3,0,0.5c0.1,0.1,0.2,0.1,0.2,0.1c0.1,0,0.2,0,0.2-0.1l6.5-5.9c0.1-0.1,0.1-0.3,0-0.5
				C318,289.9,317.8,289.9,317.6,290z M330.7,278.2l-6.5,5.9c-0.1,0.1-0.1,0.3,0,0.5c0.1,0.1,0.2,0.1,0.2,0.1c0.1,0,0.2,0,0.2-0.1
				l6.5-5.9c0.1-0.1,0.1-0.3,0-0.5C331.1,278.1,330.9,278.1,330.7,278.2z M343.8,266.4l-6.5,5.9c-0.1,0.1-0.1,0.3,0,0.5
				c0.1,0.1,0.2,0.1,0.2,0.1c0.1,0,0.2,0,0.2-0.1l6.5-5.9c0.1-0.1,0.1-0.3,0-0.5C344.1,266.3,343.9,266.3,343.8,266.4z M356.9,254.6
				l-6.5,5.9c-0.1,0.1-0.1,0.3,0,0.5c0.1,0.1,0.2,0.1,0.2,0.1c0.1,0,0.2,0,0.2-0.1l6.5-5.9c0.1-0.1,0.1-0.3,0-0.5
				C357.2,254.5,357,254.5,356.9,254.6z M330.7,305.4l-7.4,5.3c-0.1,0.1-0.2,0.3-0.1,0.4c0.1,0.1,0.2,0.1,0.3,0.1
				c0.1,0,0.1,0,0.2-0.1l7.4-5.3c0.1-0.1,0.2-0.3,0.1-0.5C331.1,305.3,330.9,305.3,330.7,305.4z M360.4,284.4l-7.4,5.3
				c-0.1,0.1-0.2,0.3-0.1,0.4c0.1,0.1,0.2,0.1,0.3,0.1c0.1,0,0.1,0,0.2-0.1l7.4-5.3c0.1-0.1,0.2-0.3,0.1-0.4
				C360.7,284.3,360.5,284.3,360.4,284.4z M345.5,294.9l-7.4,5.3c-0.1,0.1-0.2,0.3-0.1,0.4c0.1,0.1,0.2,0.1,0.3,0.1
				c0.1,0,0.1,0,0.2-0.1l7.4-5.3c0.1-0.1,0.2-0.3,0.1-0.5C345.9,294.8,345.7,294.8,345.5,294.9z M339.4,317.5l-8.1,4.8
				c-0.2,0.1-0.2,0.3-0.1,0.4c0.1,0.1,0.2,0.2,0.3,0.2c0.1,0,0.1,0,0.2,0l8.1-4.8c0.2-0.1,0.2-0.3,0.1-0.4
				C339.7,317.5,339.5,317.4,339.4,317.5z M355.5,308l-8.1,4.8c-0.2,0.1-0.2,0.3-0.1,0.4c0.1,0.1,0.2,0.2,0.3,0.2c0.1,0,0.1,0,0.2,0
				l8.1-4.8c0.2-0.1,0.2-0.3,0.1-0.4C355.9,308,355.7,307.9,355.5,308z M355.6,332.5c-0.2,0.1-0.2,0.3-0.2,0.4
				c0.1,0.1,0.2,0.2,0.3,0.2c0,0,0.1,0,0.1,0l5.2-2.3v-0.7L355.6,332.5z M347.6,336l-8,3.6c-0.2,0.1-0.2,0.3-0.2,0.4
				c0.1,0.1,0.2,0.2,0.3,0.2c0,0,0.1,0,0.1,0l8-3.6c0.2-0.1,0.2-0.3,0.2-0.4C347.9,336,347.7,336,347.6,336z M355,354.8l-8.5,2.6
				c-0.2,0.1-0.3,0.2-0.2,0.4c0,0.1,0.2,0.2,0.3,0.2c0,0,0.1,0,0.1,0l8.5-2.6c0.2-0.1,0.3-0.2,0.2-0.4
				C355.3,354.9,355.1,354.8,355,354.8z M352.7,388.6c-0.2,0-0.3,0.2-0.3,0.4c0,0.2,0.2,0.3,0.3,0.3c0,0,0,0,0,0l8.3-0.9v-0.6
				L352.7,388.6z M355.2,401.2c-0.2,0-0.3,0.2-0.3,0.3c0,0.2,0.1,0.3,0.3,0.3c0,0,0,0,0,0l5.9-0.2l50.9-0.6L355.2,401.2z
				 M361.1,407.7l38.6,0.6l-51.3-0.2c-0.1,3.9-0.2,7.8-0.6,11.7l49.4,5.8l-36.2-4l-13.3-1.2c-0.2,1.8-0.4,3.7-0.6,5.5l13.9,1.8
				l47.8,7.1l-61.8-8.3c-0.5,3.9-1.2,7.8-2,11.6l32.5,6.5l-16.6-2.5l-16.1-3.4c0,0.2-0.1,0.4-0.1,0.6l16.2,3.5l22.4,5.5l-38.7-8.4
				c-0.9,3.9-1.8,7.7-3,11.4l19.3,5.8l14.1,4.6l-33.6-9.8c-0.5,1.8-1.1,3.5-1.7,5.3l21.2,7.3l14.1,4.6L339.7,458
				c-1.3,3.7-2.7,7.3-4.2,10.9l25.6,11.1l14.1,5.6l-40-16.1c-0.7,1.7-1.5,3.4-2.3,5l44.8,21.6l-16.6-7.4l-28.5-13.6
				c-1.7,3.5-3.5,6.9-5.5,10.3l33.9,19.7l17.8,9.3l-52.1-28.5c-0.9,1.6-1.9,3.2-2.9,4.7l37.1,23.5l26.3,17.2l-63.7-40.1
				c-1,1.5-2,3.1-3.1,4.6l40.5,27.9l26.3,18.4l-67.2-45.8c-1,1.5-2.1,3-3.2,4.5l44.1,33l28.1,21.2l-72.6-53.7
				c-2.3,3.1-4.8,6.1-7.4,9.1l51.8,45.5l22.4,20.2l-74.6-65.3c-2.6,2.9-5.3,5.8-8,8.5l74.4,75.9l-14.1-13l-60.8-62.4
				c-2.8,2.7-5.7,5.3-8.7,7.9l69.5,83.4v1l-70-84c-1.4,1.2-2.9,2.3-4.3,3.5l43.5,56.6c0.1,0.1,0.1,0.3-0.1,0.4
				c-0.1,0-0.1,0.1-0.2,0.1c-0.1,0-0.2,0-0.3-0.1l-43.5-56.6c-3.1,2.4-6.3,4.7-9.6,6.8l35.3,54c0.1,0.1,0.1,0.3-0.1,0.4
				c-0.1,0-0.1,0.1-0.2,0.1c-0.1,0-0.2-0.1-0.3-0.1l-35.3-54c-0.2,0.1-0.3,0.2-0.5,0.3l9.9,15.3c0.1,0.1,0.1,0.3-0.1,0.4
				c-0.1,0-0.1,0.1-0.2,0.1c-0.1,0-0.2-0.1-0.3-0.1l-9.9-15.3c-3.3,2.1-6.7,4.1-10.1,6l47.6,88.5c0.1,0.2,0,0.4-0.1,0.4
				c0,0-0.1,0-0.2,0c-0.1,0-0.2-0.1-0.3-0.2L264.5,546c-1.6,0.9-3.3,1.7-4.9,2.5l36.6,74.8c0.1,0.2,0,0.4-0.1,0.4c0,0-0.1,0-0.1,0
				c-0.1,0-0.2-0.1-0.3-0.2L259,548.9c-3.5,1.7-7.1,3.3-10.7,4.7l45.2,114.1c0.1,0.2,0,0.4-0.2,0.4c0,0-0.1,0-0.1,0
				c-0.1,0-0.2-0.1-0.3-0.2l-45.2-114.1c-1.7,0.7-3.4,1.3-5.2,1.9l49.9,141.7c0.1,0.2,0,0.4-0.2,0.4c0,0-0.1,0-0.1,0
				c-0.1,0-0.3-0.1-0.3-0.2L241.8,556c-3.7,1.3-7.4,2.4-11.2,3.4l30.8,115.3c0,0.2-0.1,0.3-0.2,0.4c0,0-0.1,0-0.1,0
				c-0.1,0-0.3-0.1-0.3-0.2L230,559.6c-1.8,0.5-3.6,0.9-5.4,1.3l14.9,66.3c0,0.2-0.1,0.3-0.2,0.4c0,0,0,0-0.1,0
				c-0.1,0-0.3-0.1-0.3-0.3L224,561c-1.8,0.4-3.6,0.8-5.4,1.1L245.2,706h-0.7L218,562.3c-1.8,0.3-3.6,0.6-5.4,0.9l16.6,114.8
				c0,0.2-0.1,0.3-0.3,0.4c0,0,0,0,0,0c-0.2,0-0.3-0.1-0.3-0.3l-16.6-114.8c-3.8,0.5-7.7,0.9-11.6,1.2l9.2,141.6h-0.6l-9.2-141.5
				c-1.9,0.1-3.7,0.2-5.6,0.3c-1.5,0-3,0.1-4.5,0.1c-0.5,0-1,0-1.5,0L186.1,706h-0.6l1.9-141.2c-3.9-0.1-7.8-0.2-11.7-0.6
				l-10.1,110.3c0,0.2-0.2,0.3-0.3,0.3c0,0,0,0,0,0c-0.2,0-0.3-0.2-0.3-0.3l10.1-110.3c-1.8-0.2-3.7-0.4-5.5-0.6l-9.2,70.7
				c0,0.2-0.2,0.3-0.3,0.3c0,0,0,0,0,0c-0.2,0-0.3-0.2-0.3-0.4l9.2-70.7c-3.9-0.5-7.8-1.2-11.6-2L144,624.6c0,0.2-0.2,0.3-0.3,0.3
				c0,0,0,0-0.1,0c-0.2,0-0.3-0.2-0.2-0.4l13.2-63.1c-0.2,0-0.4-0.1-0.6-0.1l-3.9,17.8c0,0.1-0.2,0.3-0.3,0.3c0,0,0,0-0.1,0
				c-0.2,0-0.3-0.2-0.2-0.4l3.9-17.8c-3.9-0.8-7.7-1.8-11.4-3l-28.8,96.2c0,0.1-0.2,0.2-0.3,0.2c0,0-0.1,0-0.1,0
				c-0.2-0.1-0.3-0.2-0.2-0.4l28.8-96.2c-1.8-0.5-3.5-1.1-5.3-1.7l-27,78.8c0,0.1-0.2,0.2-0.3,0.2c0,0-0.1,0-0.1,0
				c-0.2-0.1-0.3-0.2-0.2-0.4l27-78.8c-3.7-1.3-7.3-2.7-10.9-4.2L77.9,664.5c-0.1,0.1-0.2,0.2-0.3,0.2c0,0-0.1,0-0.1,0
				c-0.2-0.1-0.2-0.3-0.2-0.4l48.7-112.7c-1.7-0.7-3.4-1.5-5-2.3l-65,135.5c-0.1,0.1-0.2,0.2-0.3,0.2c0,0-0.1,0-0.1,0
				c-0.2-0.1-0.2-0.3-0.2-0.4l65-135.5c-3.5-1.7-6.9-3.5-10.3-5.5L50.3,646.8c-0.1,0.1-0.2,0.2-0.3,0.2c-0.1,0-0.1,0-0.2,0
				c-0.2-0.1-0.2-0.3-0.1-0.4l59.9-103.3c-1.6-0.9-3.2-1.9-4.7-2.9l-36.4,57.5c-0.1,0.1-0.2,0.1-0.3,0.1c-0.1,0-0.1,0-0.2-0.1
				c-0.1-0.1-0.2-0.3-0.1-0.4l36.4-57.5c-1.5-1-3.1-2-4.6-3L18.1,655.3v-1.1l81.1-117.6c-1.5-1-3-2.1-4.5-3.2l-69.6,92.8
				c-0.1,0.1-0.2,0.1-0.3,0.1c-0.1,0-0.1,0-0.2-0.1c-0.1-0.1-0.2-0.3-0.1-0.4L94.3,533c-3.1-2.3-6.1-4.8-9.1-7.4l-67.1,76.3v-1
				l66.6-75.8c-2.9-2.6-5.8-5.3-8.5-8l-58.1,56.6v-0.9l57.6-56.1c-2.7-2.8-5.3-5.7-7.9-8.7l-49.8,41.5v-0.8l49.4-41.1
				c-1.2-1.4-2.4-2.9-3.5-4.3L2,546.8l16.1-9.1l45.5-35c-2.4-3.1-4.7-6.3-6.8-9.6l-38.7,25.3l-39.9,24.1l78.3-49.9
				c-0.1-0.2-0.2-0.3-0.3-0.5l-15.4,9.9c-0.1,0-0.1,0.1-0.2,0.1c-0.1,0-0.2-0.1-0.3-0.1c-0.1-0.1-0.1-0.3,0.1-0.4l15.3-9.9
				c-2.1-3.3-4.1-6.7-6-10.1l-64.3,30.3l32.6-14l31.4-16.9c-0.9-1.6-1.7-3.3-2.5-4.9l-58.6,27.8l29.8-14.4l28.6-14
				c-1.7-3.5-3.3-7.1-4.7-10.7l-66.6,21.7l42.7-13l23.6-9.3c-0.7-1.7-1.3-3.4-1.9-5.2l-52.6,15l30.9-8.1l21.4-7.5
				c-1.3-3.7-2.4-7.4-3.4-11.2l-64.7,12.5l46.7-8.4l17.8-4.8c-0.5-1.8-0.9-3.6-1.3-5.4l-41.8,5.8l25.3-2.8l16.4-3.7
				c-0.4-1.8-0.8-3.6-1.1-5.4l-43.4,5.6l28.1-3.4l15.2-2.8c-0.3-1.8-0.6-3.6-0.9-5.4l-52.5,6.1l38.2-4.6l14.2-2
				c-0.5-3.8-0.9-7.7-1.2-11.6l-13,0.8l-55.1-0.6l68.1-0.8c-0.1-1.9-0.2-3.7-0.3-5.6c-0.1-2-0.1-4,0-6l-43-0.2l30.3-0.6l12.6,0.2
				c0.1-3.9,0.2-7.8,0.6-11.7l-13.2-1.2l-32.6-3.7l45.9,4.3c0.2-1.8,0.4-3.7,0.6-5.5l-13.9-1.8l-30.3-4.9l44.3,6
				c0.5-3.9,1.2-7.8,1.9-11.6l-41.1-10.8l25.3,6.8l16,3.4c0-0.2,0.1-0.4,0.1-0.6L18.1,369l-36-12.3l52.2,15.2
				c0.8-3.8,1.8-7.6,2.9-11.4l-19.2-5.8L3,348.4l34.5,11.4c0.5-1.8,1.1-3.5,1.7-5.3l-21.1-7.2l-22.5-9.2l43.8,15.8
				c1.3-3.7,2.7-7.3,4.2-10.9l-48-21.9l22.5,10.1l25.8,11.1c0.7-1.7,1.5-3.4,2.3-5L18.1,324L-15,306.2l61.5,30.7
				c1.7-3.5,3.5-6.9,5.5-10.3l-33.9-19.6l-11.2-7.5L52.3,326c0.9-1.6,1.9-3.2,2.9-4.7l-37-23.5L3.6,287.5l52,33.2c1-1.5,2-3.1,3-4.6
				l-40.4-27.9v-0.8l40.8,28.1c1-1.5,2.1-3,3.2-4.5l-44-33L3.6,265.2l59,45.4c2.3-3.1,4.8-6.1,7.4-9.1l-51.8-45.5v-0.9l52.2,45.9
				c1.2-1.4,2.5-2.8,3.8-4.2c1.4-1.5,2.8-2.9,4.2-4.3l-60.3-61.9v-0.9l60.7,62.3c2.8-2.7,5.7-5.4,8.7-7.9L18.1,201v-1L88,283.9
				c1.4-1.2,2.9-2.3,4.3-3.5l-43.5-56.5c-0.1-0.1-0.1-0.3,0.1-0.4c0.1-0.1,0.3-0.1,0.4,0.1L92.9,280c3.1-2.4,6.3-4.7,9.6-6.8
				l-35.2-53.9c-0.1-0.1-0.1-0.3,0.1-0.4c0.1-0.1,0.3-0.1,0.4,0.1l35.2,53.9c0.2-0.1,0.3-0.2,0.5-0.3l-9.8-15.3
				c-0.1-0.1-0.1-0.3,0.1-0.4s0.3-0.1,0.4,0.1l9.8,15.3c3.3-2.1,6.7-4.1,10.1-6l-47.6-88.4c-0.1-0.2,0-0.4,0.1-0.4
				c0.2-0.1,0.4,0,0.4,0.1l47.6,88.4c1.6-0.9,3.3-1.7,4.9-2.5L83,188.6c-0.1-0.2,0-0.4,0.1-0.4c0.2-0.1,0.4,0,0.4,0.1l36.6,74.8
				c3.5-1.7,7.1-3.3,10.7-4.7L85.7,144.3c-0.1-0.2,0-0.4,0.2-0.4c0.2-0.1,0.4,0,0.4,0.2l45.2,114.1c1.7-0.7,3.5-1.3,5.2-1.9
				L86.8,114.5c-0.1-0.2,0-0.4,0.2-0.4c0.2-0.1,0.4,0,0.4,0.2L137.3,256c3.7-1.3,7.4-2.4,11.2-3.4l-30.7-115.3
				c0-0.2,0.1-0.3,0.2-0.4c0.2,0,0.3,0.1,0.4,0.2l30.7,115.3c1.8-0.5,3.6-0.9,5.4-1.3l-14.9-66.2c0-0.2,0.1-0.3,0.2-0.4
				c0.2,0,0.3,0.1,0.4,0.2l14.9,66.2c1.8-0.4,3.6-0.8,5.4-1.1L134,106h0.7l26.5,143.7c1.8-0.3,3.6-0.6,5.4-0.9l-16.6-114.8
				c0-0.2,0.1-0.3,0.3-0.4c0.2,0,0.3,0.1,0.4,0.3l16.6,114.8c3.8-0.5,7.7-0.9,11.6-1.2L169.7,106h0.6l9.2,141.5
				c1.9-0.1,3.7-0.2,5.6-0.3c2-0.1,4-0.1,6,0l1.9-141.2h0.6l-1.9,141.2c3.9,0.1,7.8,0.2,11.7,0.6l10.1-110.3c0-0.2,0.2-0.3,0.3-0.3
				c0.2,0,0.3,0.2,0.3,0.3l-10.1,110.3c1.8,0.2,3.7,0.4,5.5,0.6l9.2-70.7c0-0.2,0.2-0.3,0.4-0.3c0.2,0,0.3,0.2,0.3,0.4l-9.2,70.7
				c3.9,0.5,7.8,1.2,11.6,2l13.2-63.1c0-0.2,0.2-0.3,0.4-0.2c0.2,0,0.3,0.2,0.2,0.4l-13.2,63.1c0.2,0,0.4,0.1,0.6,0.1L227,233
				c0-0.2,0.2-0.3,0.4-0.2c0.2,0,0.3,0.2,0.2,0.4l-3.9,17.8c3.9,0.8,7.7,1.8,11.4,3l28.8-96.2c0.1-0.2,0.2-0.3,0.4-0.2
				c0.2,0.1,0.3,0.2,0.2,0.4L235.8,254c1.8,0.5,3.5,1.1,5.3,1.7l27-78.8c0.1-0.2,0.2-0.3,0.4-0.2c0.2,0.1,0.3,0.2,0.2,0.4l-27,78.8
				c3.7,1.3,7.3,2.7,10.9,4.2l48.7-112.8c0.1-0.2,0.3-0.2,0.4-0.2c0.2,0.1,0.2,0.3,0.2,0.4l-48.7,112.7c1.7,0.7,3.4,1.5,5,2.3
				l65-135.5c0.1-0.2,0.3-0.2,0.4-0.2c0.2,0.1,0.2,0.3,0.2,0.4l-65,135.5c3.5,1.7,6.9,3.5,10.3,5.5l59.9-103.3
				c0.1-0.2,0.3-0.2,0.4-0.1c0.2,0.1,0.2,0.3,0.1,0.4l-59.9,103.3c1.6,0.9,3.2,1.9,4.7,2.9l36.4-57.5c0.1-0.1,0.3-0.2,0.4-0.1
				c0.2,0.1,0.2,0.3,0.1,0.4L274.8,272c1.5,1,3.1,2,4.6,3.1l81.7-118.4v1.1l-81.1,117.6c1.5,1,3,2.1,4.5,3.2l69.6-92.8
				c0.1-0.1,0.3-0.2,0.4-0.1c0.1,0.1,0.2,0.3,0.1,0.4L284.9,279c3.1,2.3,6.1,4.8,9.1,7.4l67.1-76.3v1l-66.6,75.8
				c2.9,2.6,5.8,5.3,8.5,8l58.1-56.6v0.9l-57.6,56.1c2.7,2.8,5.3,5.7,7.9,8.7l69-55.7l-19.2,15.1l-49.4,41.1
				c1.2,1.4,2.3,2.9,3.5,4.3l45.9-35.3v0.8l-45.5,35c2.4,3.1,4.7,6.3,6.8,9.6l38.7-25.3l30.1-18.5l-68.4,44.3
				c0.1,0.2,0.2,0.3,0.3,0.5l15.3-9.9c0.1-0.1,0.3-0.1,0.4,0.1c0.1,0.1,0.1,0.3-0.1,0.4l-15.3,9.9c2.1,3.3,4.1,6.7,6,10.1l31.7-17
				v0.7l-31.4,16.9c0.9,1.6,1.7,3.3,2.5,4.9l51.2-24.3l-22.4,10.9l-28.6,14c1.7,3.5,3.3,7.1,4.7,10.7l55.7-20.7l-31.9,11.9
				l-23.6,9.3c0.7,1.7,1.3,3.4,1.9,5.2l21.7-7.6l28.2-7.9l-49.7,16.1c1.3,3.7,2.4,7.4,3.4,11.2l32.1-6.1l-14.1,2l-17.8,4.8
				c0.5,1.8,0.9,3.6,1.3,5.4l30.7-5.8l-14.1,2.7l-16.4,3.7c0.4,1.8,0.8,3.6,1.1,5.4l15.3-2.8l29.5-3.5l-44.6,6.9
				c0.3,1.8,0.6,3.6,0.9,5.4l46.7-2.7l-32.5,1.3l-14.2,2c0.5,3.8,0.9,7.7,1.2,11.6l49.2-0.9l-36.2,0.7l-12.9,0.8
				c0.1,1.9,0.2,3.7,0.3,5.6c0.1,2,0.1,4,0,6L361.1,407.7z M346.7,401.6c-0.1-1.9-0.1-3.7-0.3-5.6c0-0.2,0-0.4,0-0.6
				c-0.3-3.9-0.7-7.7-1.2-11.5c0-0.2-0.1-0.4-0.1-0.6c-0.3-1.8-0.5-3.6-0.9-5.4c0-0.2-0.1-0.4-0.1-0.6c-0.3-1.8-0.7-3.6-1.1-5.3
				c0-0.2-0.1-0.4-0.1-0.6c-0.4-1.8-0.8-3.5-1.3-5.3c-0.1-0.2-0.1-0.4-0.2-0.6c-1-3.7-2.1-7.4-3.4-11c-0.1-0.2-0.1-0.4-0.2-0.6
				c-0.6-1.7-1.2-3.4-1.9-5.1c-0.1-0.2-0.2-0.4-0.2-0.6c-1.4-3.6-3-7.1-4.7-10.6c-0.1-0.2-0.2-0.4-0.3-0.6c-0.8-1.6-1.6-3.3-2.5-4.9
				c-0.1-0.2-0.2-0.4-0.3-0.6c-1.8-3.4-3.8-6.7-5.9-10c-0.1-0.2-0.2-0.4-0.3-0.5c-0.1-0.2-0.2-0.3-0.3-0.5c-0.1-0.2-0.2-0.4-0.4-0.5
				c-2.1-3.2-4.4-6.4-6.7-9.4c-0.1-0.2-0.3-0.3-0.4-0.5c-1.1-1.4-2.3-2.9-3.4-4.3c-0.1-0.2-0.3-0.3-0.4-0.5c-2.5-3-5.1-5.8-7.8-8.6
				c-0.1-0.2-0.3-0.3-0.4-0.5c-2.7-2.8-5.5-5.4-8.4-8c-0.2-0.1-0.3-0.3-0.5-0.4c-2.9-2.5-5.9-5-9-7.3c-0.2-0.1-0.3-0.3-0.5-0.4
				c-1.5-1.1-2.9-2.1-4.4-3.2c-0.2-0.1-0.4-0.2-0.5-0.4c-1.5-1-3-2-4.5-3c-0.2-0.1-0.4-0.2-0.5-0.3c-1.5-1-3.1-1.9-4.7-2.8
				c-0.2-0.1-0.4-0.2-0.6-0.3c-3.3-1.9-6.7-3.7-10.2-5.4c-0.2-0.1-0.4-0.2-0.6-0.3c-1.6-0.8-3.3-1.5-5-2.3c-0.2-0.1-0.4-0.2-0.6-0.3
				c-3.5-1.5-7.1-2.9-10.8-4.2c-0.2-0.1-0.4-0.1-0.6-0.2c-1.7-0.6-3.5-1.2-5.2-1.7c-0.2-0.1-0.4-0.1-0.6-0.2
				c-3.7-1.1-7.5-2.1-11.3-2.9c-0.2,0-0.4-0.1-0.6-0.1c-0.2,0-0.4-0.1-0.6-0.1c-0.2,0-0.4-0.1-0.6-0.1c-3.8-0.8-7.6-1.4-11.5-1.9
				c-0.2,0-0.4-0.1-0.6-0.1c-1.8-0.2-3.6-0.4-5.4-0.6c-0.2,0-0.4,0-0.6-0.1c-3.8-0.3-7.7-0.5-11.6-0.6c-0.2,0-0.4,0-0.6,0
				c-2,0-4,0-6,0c-1.9,0.1-3.7,0.1-5.6,0.3c-0.2,0-0.4,0-0.6,0c-3.9,0.3-7.7,0.7-11.5,1.2c-0.2,0-0.4,0.1-0.6,0.1
				c-1.8,0.3-3.6,0.5-5.4,0.9c-0.2,0-0.4,0.1-0.6,0.1c-1.8,0.3-3.6,0.7-5.3,1.1c-0.2,0-0.4,0.1-0.6,0.1c-1.8,0.4-3.5,0.8-5.3,1.3
				c-0.2,0.1-0.4,0.1-0.6,0.2c-3.7,1-7.4,2.1-11.1,3.4c-0.2,0.1-0.4,0.1-0.6,0.2c-1.7,0.6-3.4,1.2-5.1,1.9c-0.2,0.1-0.4,0.2-0.6,0.2
				c-3.6,1.4-7.1,3-10.6,4.7c-0.2,0.1-0.4,0.2-0.6,0.3c-1.6,0.8-3.3,1.6-4.9,2.5c-0.2,0.1-0.4,0.2-0.6,0.3c-3.4,1.8-6.7,3.8-10,5.9
				c-0.2,0.1-0.4,0.2-0.5,0.4c-0.2,0.1-0.3,0.2-0.5,0.3c-0.2,0.1-0.4,0.2-0.5,0.4c-3.2,2.1-6.4,4.4-9.5,6.7
				c-0.2,0.1-0.3,0.3-0.5,0.4c-1.4,1.1-2.9,2.3-4.3,3.4c-0.2,0.1-0.3,0.3-0.5,0.4c-2.9,2.5-5.8,5.1-8.6,7.8
				c-0.2,0.1-0.3,0.3-0.5,0.4c-1.4,1.4-2.8,2.8-4.2,4.3c-1.3,1.4-2.5,2.7-3.8,4.1c-0.1,0.2-0.3,0.3-0.4,0.5c-2.5,2.9-5,5.9-7.3,9
				c-0.1,0.2-0.3,0.3-0.4,0.5c-1.1,1.5-2.2,2.9-3.2,4.4c-0.1,0.2-0.2,0.4-0.4,0.5c-1,1.5-2,3-3,4.5c-0.1,0.2-0.2,0.4-0.3,0.5
				c-1,1.5-1.9,3.1-2.8,4.7c-0.1,0.2-0.2,0.4-0.3,0.6c-1.9,3.3-3.7,6.7-5.4,10.2c-0.1,0.2-0.2,0.4-0.3,0.6c-0.8,1.6-1.5,3.3-2.3,5
				c-0.1,0.2-0.2,0.4-0.3,0.6c-1.5,3.5-2.9,7.1-4.2,10.8c-0.1,0.2-0.1,0.4-0.2,0.6c-0.6,1.7-1.2,3.5-1.7,5.2
				c-0.1,0.2-0.1,0.4-0.2,0.6c-1.1,3.7-2.1,7.5-2.9,11.3c0,0.2-0.1,0.4-0.1,0.6c0,0.2-0.1,0.4-0.1,0.6c0,0.2-0.1,0.4-0.1,0.6
				c-0.8,3.8-1.4,7.6-1.9,11.5c0,0.2-0.1,0.4-0.1,0.6c-0.2,1.8-0.4,3.6-0.6,5.4c0,0.2,0,0.4-0.1,0.6c-0.3,3.8-0.5,7.7-0.6,11.5
				c0,0.2,0,0.4,0,0.6c0,2,0,4,0,6c0.1,1.9,0.1,3.7,0.3,5.6c0,0.2,0,0.4,0,0.6c0.3,3.9,0.7,7.7,1.2,11.5c0,0.2,0.1,0.4,0.1,0.6
				c0.3,1.8,0.5,3.6,0.9,5.4c0,0.2,0.1,0.4,0.1,0.6c0.3,1.8,0.7,3.6,1.1,5.3c0,0.2,0.1,0.4,0.1,0.6c0.4,1.8,0.8,3.5,1.3,5.3
				c0.1,0.2,0.1,0.4,0.2,0.6c1,3.7,2.1,7.4,3.4,11c0.1,0.2,0.1,0.4,0.2,0.6c0.6,1.7,1.2,3.4,1.9,5.1c0.1,0.2,0.2,0.4,0.2,0.6
				c1.4,3.6,3,7.1,4.7,10.6c0.1,0.2,0.2,0.4,0.3,0.6c0.8,1.6,1.6,3.3,2.5,4.9c0.1,0.2,0.2,0.4,0.3,0.6c1.8,3.4,3.8,6.7,5.9,10
				c0.1,0.2,0.2,0.4,0.3,0.5c0.1,0.2,0.2,0.3,0.3,0.5c0.1,0.2,0.2,0.4,0.4,0.5c2.1,3.2,4.4,6.4,6.7,9.4c0.1,0.2,0.3,0.3,0.4,0.5
				c1.1,1.4,2.3,2.9,3.4,4.3c0.1,0.2,0.3,0.3,0.4,0.5c2.5,3,5.1,5.8,7.8,8.6c0.1,0.2,0.3,0.3,0.4,0.5c2.7,2.8,5.5,5.4,8.4,8
				c0.2,0.1,0.3,0.3,0.5,0.4c2.9,2.5,5.9,5,9,7.3c0.2,0.1,0.3,0.3,0.5,0.4c1.5,1.1,2.9,2.1,4.4,3.2c0.2,0.1,0.4,0.2,0.5,0.4
				c1.5,1,3,2,4.5,3c0.2,0.1,0.4,0.2,0.5,0.3c1.5,1,3.1,1.9,4.7,2.8c0.2,0.1,0.4,0.2,0.6,0.3c3.3,1.9,6.7,3.7,10.2,5.4
				c0.2,0.1,0.4,0.2,0.6,0.3c1.6,0.8,3.3,1.5,5,2.3c0.2,0.1,0.4,0.2,0.6,0.3c3.5,1.5,7.1,2.9,10.8,4.2c0.2,0.1,0.4,0.1,0.6,0.2
				c1.7,0.6,3.5,1.2,5.2,1.7c0.2,0.1,0.4,0.1,0.6,0.2c3.7,1.1,7.5,2.1,11.3,2.9c0.2,0,0.4,0.1,0.6,0.1c0.2,0,0.4,0.1,0.6,0.1
				c0.2,0,0.4,0.1,0.6,0.1c3.8,0.8,7.6,1.4,11.5,1.9c0.2,0,0.4,0.1,0.6,0.1c1.8,0.2,3.6,0.4,5.4,0.6c0.2,0,0.4,0,0.6,0.1
				c3.8,0.3,7.7,0.5,11.6,0.6c0.2,0,0.4,0,0.6,0c2,0,4,0,6,0c1.9-0.1,3.7-0.1,5.6-0.3c0.2,0,0.4,0,0.6,0c3.9-0.3,7.7-0.7,11.5-1.2
				c0.2,0,0.4-0.1,0.6-0.1c1.8-0.3,3.6-0.5,5.4-0.9c0.2,0,0.4-0.1,0.6-0.1c1.8-0.3,3.6-0.7,5.3-1.1c0.2,0,0.4-0.1,0.6-0.1
				c1.8-0.4,3.5-0.8,5.3-1.3c0.2-0.1,0.4-0.1,0.6-0.2c3.7-1,7.4-2.1,11.1-3.4c0.2-0.1,0.4-0.1,0.6-0.2c1.7-0.6,3.4-1.2,5.1-1.9
				c0.2-0.1,0.4-0.2,0.6-0.2c3.6-1.4,7.1-3,10.6-4.7c0.2-0.1,0.4-0.2,0.6-0.3c1.6-0.8,3.3-1.6,4.9-2.5c0.2-0.1,0.4-0.2,0.6-0.3
				c3.4-1.8,6.7-3.8,10-5.9c0.2-0.1,0.4-0.2,0.5-0.3c0.2-0.1,0.3-0.2,0.5-0.3c0.2-0.1,0.4-0.2,0.5-0.4c3.2-2.1,6.4-4.4,9.5-6.7
				c0.2-0.1,0.3-0.3,0.5-0.4c1.4-1.1,2.9-2.3,4.3-3.4c0.2-0.1,0.3-0.3,0.5-0.4c3-2.5,5.8-5.1,8.6-7.8c0.2-0.1,0.3-0.3,0.5-0.5
				c2.8-2.7,5.4-5.5,8-8.4c0.1-0.2,0.3-0.3,0.4-0.5c2.5-2.9,5-5.9,7.3-9c0.1-0.2,0.3-0.3,0.4-0.5c1.1-1.5,2.1-2.9,3.2-4.4
				c0.1-0.2,0.2-0.4,0.4-0.5c1-1.5,2-3,3-4.5c0.1-0.2,0.2-0.4,0.3-0.5c1-1.5,1.9-3.1,2.8-4.7c0.1-0.2,0.2-0.4,0.3-0.6
				c1.9-3.3,3.7-6.7,5.4-10.2c0.1-0.2,0.2-0.4,0.3-0.6c0.8-1.6,1.5-3.3,2.3-5c0.1-0.2,0.2-0.4,0.3-0.6c1.5-3.5,2.9-7.1,4.2-10.8
				c0.1-0.2,0.1-0.4,0.2-0.6c0.6-1.7,1.2-3.5,1.7-5.2c0.1-0.2,0.1-0.4,0.2-0.6c1.1-3.7,2.1-7.5,2.9-11.3c0-0.2,0.1-0.4,0.1-0.6
				c0-0.2,0.1-0.4,0.1-0.6c0-0.2,0.1-0.4,0.1-0.6c0.8-3.8,1.4-7.6,1.9-11.5c0-0.2,0.1-0.4,0.1-0.6c0.2-1.8,0.4-3.6,0.6-5.4
				c0-0.2,0-0.4,0.1-0.6c0.3-3.8,0.5-7.7,0.6-11.5c0-0.2,0-0.4,0-0.6C346.7,405.6,346.7,403.6,346.7,401.6z M353.4,414
				c-0.2,0-0.3,0.1-0.3,0.3c0,0.2,0.1,0.3,0.3,0.3l7.6,0.4l36.2,1.4L353.4,414z M360.6,434.6l-9-1.5c-0.2,0-0.3,0.1-0.4,0.3
				c0,0.2,0.1,0.3,0.3,0.4l9,1.5c0,0,0,0,0.1,0c0.2,0,0.3-0.1,0.3-0.3C360.9,434.8,360.7,434.6,360.6,434.6z"/>
		</g>
	</g>
</g>
</svg>
