<svg width="5" height="24" viewBox="0 0 5 24" fill="none" xmlns="http://www.w3.org/2000/svg">
<path d="M2.5 16C3.03043 16 3.53914 15.7893 3.91421 15.4142C4.28929 15.0391 4.5 14.5304 4.5 14V2C4.5 1.46957 4.28929 0.96086 3.91421 0.585787C3.53914 0.210714 3.03043 0 2.5 0C1.96957 0 1.46086 0.210714 1.08579 0.585787C0.710714 0.96086 0.5 1.46957 0.5 2V14C0.5 14.5304 0.710714 15.0391 1.08579 15.4142C1.46086 15.7893 1.96957 16 2.5 16ZM2.5 24C2.99445 24 3.4778 23.8534 3.88892 23.5787C4.30005 23.304 4.62048 22.9135 4.8097 22.4567C4.99892 21.9999 5.04843 21.4972 4.95196 21.0123C4.8555 20.5273 4.6174 20.0819 4.26777 19.7322C3.91813 19.3826 3.47268 19.1445 2.98773 19.048C2.50277 18.9516 2.00011 19.0011 1.54329 19.1903C1.08648 19.3795 0.696029 19.6999 0.421326 20.1111C0.146622 20.5222 0 21.0055 0 21.5C0 22.163 0.263392 22.7989 0.732233 23.2678C1.20107 23.7366 1.83696 24 2.5 24Z" fill="#FFC000"/>
</svg>
