<svg width="46" height="90" viewBox="0 0 46 90" fill="none" xmlns="http://www.w3.org/2000/svg">
    <path
        d="M29.5632 16.5482C30.4488 15.4606 32.2389 14.6822 34.772 14.6822C37.1394 14.6822 39.9692 15.0442 42.6478 15.8241L44.8828 3.2882C40.2804 1.61675 35.5238 1.14307 30.6131 1.14307C25.698 1.14307 21.8256 1.92298 18.7166 3.78904C15.5887 5.57213 13.5034 7.60563 12.3227 10.5578C11.1317 13.2053 10.5369 17.6329 10.5369 23.2054V28.1368H1.00781V42.4543H10.5369V87.4992C14.5373 88.4465 18.7166 88.8931 23.0267 88.8931C24.6481 88.8931 26.2986 88.8931 27.9273 88.5868V42.4543H40.5596V28.1368H27.9273V23.5131C27.9287 19.9741 28.3781 17.8018 29.5632 16.5482Z"
        stroke="#00FFC8" />
</svg>
