<svg width="121" height="121" viewBox="0 0 121 121" fill="none" xmlns="http://www.w3.org/2000/svg">
<path opacity="0.12" d="M113.187 28.0371L100.45 15.2998L65.4497 50.2998L80.4497 65.2998L113.187 32.5625C113.979 31.7705 114.375 31.3745 114.523 30.9178C114.654 30.5162 114.654 30.0835 114.523 29.6818C114.375 29.2251 113.979 28.8291 113.187 28.0371Z" fill="#00FFC8"/>
<path fill-rule="evenodd" clip-rule="evenodd" d="M100.98 14.7695C100.687 14.4766 100.212 14.4766 99.9194 14.7695L64.9194 49.7695C64.6265 50.0624 64.6265 50.5372 64.9194 50.8301C65.2123 51.123 65.6871 51.123 65.98 50.8301L100.45 16.3605L112.657 28.5674C113.061 28.9722 113.333 29.2443 113.525 29.4706C113.711 29.6902 113.779 29.8169 113.81 29.9135C113.892 30.1646 113.892 30.435 113.81 30.6861C113.779 30.7827 113.711 30.9094 113.525 31.129C113.333 31.3554 113.061 31.6274 112.657 32.0322L79.9194 64.7695C79.6265 65.0624 79.6265 65.5372 79.9194 65.8301C80.2123 66.123 80.6871 66.123 80.98 65.8301L113.717 33.0929L113.739 33.0715L113.739 33.0714C114.117 32.6937 114.432 32.3784 114.668 32.0998C114.915 31.8092 115.12 31.5096 115.237 31.1496C115.416 30.5973 115.416 30.0023 115.237 29.45C115.12 29.09 114.915 28.7904 114.668 28.4998C114.432 28.2212 114.117 27.906 113.739 27.5283L113.739 27.5281L113.717 27.5067L100.98 14.7695ZM55.9808 59.7702C55.9805 59.77 55.9803 59.7697 55.98 59.7695C55.9798 59.7692 55.9795 59.769 55.9793 59.7687L48.7452 52.5346L50.9659 36.9898L50.9783 36.9031C51.0495 36.4071 51.1055 36.017 51.0529 35.6333C51.0066 35.2954 50.8978 34.9692 50.7322 34.6711C50.544 34.3325 50.2651 34.054 49.9106 33.7L49.8487 33.6381L30.98 14.7695C30.6871 14.4766 30.2123 14.4766 29.9194 14.7695C29.6265 15.0624 29.6265 15.5372 29.9194 15.8301L48.788 34.6988C49.2336 35.1443 49.348 35.2683 49.421 35.3997C49.4963 35.5352 49.5457 35.6835 49.5668 35.8371C49.5872 35.986 49.5701 36.1539 49.481 36.7777L47.4194 51.2088L18.48 22.2695C18.1871 21.9766 17.7123 21.9766 17.4194 22.2695C17.1265 22.5624 17.1265 23.0372 17.4194 23.3301L46.3587 52.2695L31.9276 54.3311C31.3038 54.4202 31.1359 54.4373 30.987 54.4169C30.8334 54.3958 30.6851 54.3464 30.5496 54.2711C30.4182 54.1981 30.2942 54.0837 29.8487 53.6381L10.98 34.7695C10.6871 34.4766 10.2123 34.4766 9.91938 34.7695C9.62648 35.0624 9.62648 35.5372 9.91938 35.8301L28.788 54.6988L28.8499 54.7607C29.2039 55.1152 29.4824 55.3941 29.821 55.5823C30.1191 55.7479 30.4453 55.8567 30.7832 55.903C31.167 55.9556 31.557 55.8996 32.053 55.8284L32.1397 55.816L47.6845 53.5953L54.389 60.2998L39.9194 74.7695L9.91938 104.769C9.62648 105.062 9.62648 105.537 9.91938 105.83C10.2123 106.123 10.6871 106.123 10.98 105.83L40.98 75.8301L55.4497 61.3605L99.9194 105.83C100.212 106.123 100.687 106.123 100.98 105.83C101.273 105.537 101.273 105.062 100.98 104.769L55.9808 59.7702Z" fill="#00FFC8"/>
</svg>
