<svg width="19" height="24" viewBox="0 0 19 24" fill="none" xmlns="http://www.w3.org/2000/svg">
<path fill-rule="evenodd" clip-rule="evenodd" d="M17.2347 9.72588C16.1665 7.95662 16.3668 6.72147 16.3668 6.65472V6.65472C16.4142 6.41619 16.3239 6.17123 16.1331 6.02045V6.02045C15.9379 5.85569 15.6657 5.81681 15.4321 5.92031V5.92031C14.4704 6.45372 13.7703 7.35904 13.4959 8.42397V8.42397C13.3588 8.88087 13.2693 9.35072 13.2289 9.82603C13.0286 9.49221 12.8617 9.15838 12.7281 8.89133C11.2927 5.78677 11.9603 2.18148 11.9937 2.11473V2.11473C12.0315 1.8835 11.9571 1.64809 11.7934 1.48046V1.48046C11.6235 1.32108 11.3789 1.26959 11.1592 1.34693C10.9922 1.4137 6.88623 2.64884 5.95152 7.8231L5.95152 7.8231C5.66573 9.46235 5.71113 11.1422 6.08505 12.7637H6.08505C5.61495 12.4229 5.2177 11.9916 4.91667 11.4952L4.91667 11.4952C4.50829 10.7312 4.18371 9.92535 3.94858 9.09163V9.09163C3.86356 8.73284 3.50377 8.5109 3.14498 8.59593C2.96108 8.6395 2.80426 8.75898 2.71344 8.92472C2.64667 9.02486 1.11108 11.7956 1.11108 14.3327C1.11108 19.1397 4.683 22.6449 9.72373 22.6449C14.7645 22.6449 18.4699 19.1397 18.4699 14.3327C18.4699 12.3631 18.2028 11.3282 17.2347 9.72591V9.72588Z" stroke="#D6D6E7" stroke-linejoin="round"/>
</svg>
