<svg width="375" height="108" viewBox="0 0 375 108" fill="none" xmlns="http://www.w3.org/2000/svg">
    <defs>
        <linearGradient id="paint0_linear_2646_46558" x1="-88.5885" y1="22.1963" x2="-73.3238"
            y2="105.082" gradientUnits="userSpaceOnUse">
            <stop stop-color="#C50BDE" />
            <stop offset="1" stop-color="#FF0063" />
        </linearGradient>
        <linearGradient id="paint1_linear_2646_46558" x1="114.968" y1="107.358" x2="262.925"
            y2="107.358" gradientUnits="userSpaceOnUse">
            <stop stop-color="#FF0468" />
            <stop offset="1" stop-color="#F081FF" />
            <stop offset="1" stop-color="#FF0063" />
        </linearGradient>
    </defs>
    <g opacity="0.2">
        <path fill-rule="evenodd" clip-rule="evenodd"
            d="M54.6392 3.63389L65.9329 3.63389V8.93215L54.7787 8.93215H53.0358V9.21101C53.0358 11.9996 51.2232 12.2087 50.5958 12.2087L20.9674 12.2087C19.5731 12.2087 18.4576 12.3481 17.5514 12.6967C16.7845 12.9756 16.1571 13.3938 15.6691 14.0213C15.6691 14.0561 15.6517 14.091 15.6342 14.1258C15.6168 14.1607 15.5994 14.1956 15.5994 14.2304H16.6451L27.5205 14.2304L27.2416 14.8578C26.9628 15.4853 26.7536 16.1824 26.6142 16.8795C26.4748 17.507 26.405 18.2738 26.3353 19.0407V19.5287H17.8302H16.9937C16.9937 19.8961 16.9776 20.2795 16.961 20.679L16.961 20.679C16.9429 21.1132 16.9239 21.5664 16.9239 22.0384L16.9239 29.6372H17.8302H25.1502V32.0772H22.8496H22.2222L22.2222 39.1183H16.6451H15.5297C15.5297 40.0887 15.6045 40.9468 15.6719 41.72C15.6965 42.0023 15.7202 42.2733 15.7388 42.5343H18.5274L24.941 42.5343L25.0108 43.3709C25.2896 44.556 25.6382 45.6017 26.1262 46.2292C26.6142 46.9263 27.1719 47.3446 27.9388 47.6234C28.845 47.9023 30.0302 48.0417 31.4245 48.0417H50.9444C51.781 48.0417 52.0598 47.7629 52.2689 47.484C52.4084 47.2052 52.757 46.3686 52.757 44.2772V43.5103H43.6244L43.5547 38.1423H50.2472V35.0052H33.3764C32.8187 35.0052 31.0062 34.7961 31.0062 32.0075V31.1012H32.4702V30.6132H25.7079V26.7092C25.7079 23.9207 27.5205 23.7115 28.1479 23.7115L52.757 23.7115C53.6632 23.7115 55.6849 24.0601 55.6849 27.2669V29.6372L57.1489 29.6372H62.4472V32.0772H60.9832V39.1183H55.6849H54.2209V42.5343H63.4232V45.9503C63.4232 47.2749 63.3535 48.5297 63.2141 49.7149V50.1331H53.1752H52.9661V50.6211H54.4998H64.1901L64.1203 51.1788C63.8415 53.0611 63.3535 54.5251 62.6563 55.6405L62.5169 55.9194H54.4998H53.3844C53.3844 55.9891 53.3147 56.0588 53.245 56.1285L53.2449 56.1285C51.7809 58.2897 49.6198 59.4051 46.901 59.4051L22.9891 59.4051C19.9216 59.4051 17.2028 58.9868 14.9719 58.1502C13.508 57.6623 12.1137 56.8257 10.9285 55.78L9.95253 54.9434H17.2725C17.1679 54.804 17.0634 54.682 16.9588 54.56C16.8542 54.438 16.7496 54.316 16.6451 54.1766C16.0177 53.4097 15.5297 52.5731 15.0417 51.5971H2.21428L2.07485 51.3183C1.86571 50.8303 1.65657 50.3423 1.44742 49.7846L1.23828 49.1571H14.9022C14.651 48.529 14.5129 47.9009 14.3861 47.3238L14.3445 47.1354C14.0657 46.0897 13.8565 44.8349 13.7171 43.5103H4.58455L4.51484 43.0223C4.37541 41.6977 4.3057 40.2337 4.23598 38.7L4.23598 38.1423H10.9285V37.0269V32.0772H1.72628L1.72628 29.6372H5.63026L5.63026 23.2235C5.63026 22.015 5.6883 20.7485 5.75141 19.371L5.76969 18.971L5.83941 18.5527H10.3011C10.3708 17.3675 10.5102 16.1824 10.6497 15.1367L3.53884 15.1367L3.67827 14.3001C3.71313 14.1258 3.74799 13.9341 3.78284 13.7424C3.8177 13.5507 3.85256 13.359 3.88741 13.1847C4.3057 11.3721 4.93312 9.69901 5.76969 8.1653L5.90912 7.95616L18.7365 7.95616C19.1548 7.25902 19.5034 6.7013 19.9216 6.2133C20.3399 5.65559 20.8976 5.09788 21.4553 4.54017L10.0222 4.54017L11.2771 3.7036C12.1834 3.07617 13.1594 2.51846 14.2051 2.16989C16.4359 1.33332 19.0851 0.915039 22.2222 0.915039L52.1992 0.915039C52.7569 0.915039 54.4998 1.12418 54.6392 3.63389ZM51.9915 50.133L16.2282 50.133H15.6008H2.63396C2.70368 50.2724 2.77339 50.4118 2.84311 50.621H15.3219H15.6705L51.9218 50.621C51.9915 50.4118 51.9915 50.2724 51.9915 50.133ZM6.60711 30.6131L15.9488 30.6131H17.8311H24.175V31.1011H22.8505H21.2471L11.9054 31.1011H11.4174H2.70312V30.6131H6.11911H6.60711ZM52.0607 8.93197L19.3648 8.93197H19.086L6.46776 8.93197C5.77062 10.2565 5.2129 11.7902 4.86433 13.3937L4.65519 14.2302L11.278 14.2302H11.8357H14.4849C14.6243 13.9514 14.7637 13.6725 14.9032 13.4634C15.4609 12.6965 16.2277 12.1388 17.2037 11.7902C18.2494 11.4417 19.5043 11.2325 20.9683 11.2325L50.5967 11.2325C51.2939 11.2325 52.0607 10.884 52.0607 9.21082V8.93197ZM11.9041 39.1183H14.5533C14.623 40.3732 14.6927 41.5583 14.7624 42.5343H14.623H14.135H5.42072C5.35101 41.4886 5.28129 40.3732 5.21158 39.1183H11.4161H11.9041ZM16.0884 19.5285L11.2084 19.5285H10.7204H6.74669C6.67698 20.7833 6.60726 22.0382 6.60726 23.2233L6.60726 29.637L15.9489 29.637L15.9489 22.0382C15.9489 21.1319 16.0187 20.2953 16.0884 19.5285ZM11.6967 15.1367H14.067H16.6464L26.0578 15.1367C25.9184 15.6246 25.7789 16.1823 25.6395 16.7399L25.6395 16.7401L25.6395 16.7402C25.5698 17.2979 25.5001 17.8556 25.4303 18.5527H17.8315H16.0887L11.2784 18.5527C11.3481 17.3676 11.4875 16.1824 11.6967 15.1367ZM21.2456 32.0771H11.9039V37.0268V38.1422H14.5531H16.6445H21.2456L21.2456 32.0771ZM19.7818 55.9192L52.1988 55.9192C50.9439 57.5923 49.1314 58.4289 46.9005 58.4289L22.9886 58.4289C19.9909 58.4289 17.4115 58.0106 15.3201 57.2438C14.3441 56.9649 13.5075 56.4769 12.6709 55.9192H18.5269H19.7818ZM22.8504 3.63353H24.3842L53.6641 3.63353C53.5943 2.23925 52.8275 1.89068 52.2001 1.89068L22.223 1.89068C19.2253 1.89068 16.6459 2.30897 14.5545 3.07582C14.1362 3.21525 13.7179 3.42439 13.2996 3.63353L13.2996 3.63353L22.8504 3.63353ZM14.6922 43.5101H14.9013H18.5264L24.1036 43.5101C24.3127 44.9044 24.731 46.0198 25.3584 46.7867C25.9161 47.6232 26.683 48.181 27.659 48.5295C28.635 48.8781 29.8898 49.0175 31.4235 49.0175H50.9435C51.9195 49.0175 52.6166 48.7387 53.0349 48.0415C53.5229 47.3444 53.732 46.0895 53.732 44.277V43.5101H62.4463V45.9501C62.4463 47.0655 62.3766 48.181 62.3069 49.1569H53.1743H52.1286L15.947 49.1569C15.7314 48.5641 15.5575 47.9712 15.393 47.4105L15.393 47.4104C15.3448 47.2459 15.2973 47.0842 15.2499 46.9261C15.0407 45.9501 14.8316 44.765 14.6922 43.5101ZM51.7809 51.597L16.157 51.597C16.5056 52.2941 16.9239 52.9913 17.3421 53.549C17.7604 54.037 18.1787 54.4553 18.6667 54.9433L52.8266 54.9433H54.4997H61.9591C62.4471 54.037 62.7957 52.9215 63.0746 51.597H54.4997H51.7809ZM54.1524 4.5402L64.9581 4.5402V7.95619L54.7799 7.95619L52.061 7.95619L19.9228 7.95619C20.132 7.5379 20.4108 7.11962 20.62 6.84076C21.3171 5.93448 22.1537 5.23734 23.06 4.5402L53.6644 4.5402H54.1524ZM32.9586 29.6369H33.4466L54.7094 29.6369V27.2667C54.7094 25.5238 54.082 24.6872 52.7574 24.6872L28.1484 24.6872C27.4512 24.6872 26.6844 25.0358 26.6844 26.7089V29.6369H32.9586ZM51.153 34.3079L51.0135 34.029H33.3759C32.7485 34.029 31.9816 33.6805 31.9119 32.0771H32.9576H33.4456L60.0066 32.0771V38.1422H55.6844H53.3141H51.2227C51.2227 34.5079 51.2227 34.3821 51.1599 34.315L51.153 34.3079ZM54.7087 30.6131L33.4459 30.6131V31.1011L60.0069 31.1011H60.4949H61.4709V30.6131H57.1486L54.7087 30.6131ZM53.3136 39.1183V42.5343H44.5296V39.1183H50.7342H51.2222H53.3136Z"
            fill="#FF0063" />
        <path fill-rule="evenodd" clip-rule="evenodd"
            d="M115.012 10.1873H110.62V9.76899C110.551 9.49013 110.551 9.3507 110.551 9.21128V4.88901L118.359 4.88901V4.47072L110.551 4.47072V3.77358C110.551 1.05474 112.433 0.775879 112.991 0.775879L153.007 0.775879C153.564 0.775879 155.377 0.985021 155.447 3.49473H155.516L163.255 3.49473V5.865L155.516 5.865H155.447V9.21128H156.213H159.839L159.769 9.76899C159.56 11.5118 158.375 12.1393 157.399 12.1393L117.313 12.0696C116.825 12.0696 115.431 11.9301 115.012 10.1873ZM118.845 3.49476H119.333L154.469 3.49476C154.399 2.10048 153.633 1.75191 153.005 1.75191L112.989 1.75191C112.362 1.75191 111.595 2.10048 111.525 3.49476L118.845 3.49476ZM115.848 9.21137H115.429H111.525V5.86509L118.845 5.86509H119.333L154.469 5.86509V9.21137L115.848 9.21137ZM161.792 47.4145H159.282C159.422 47.7631 159.491 48.2511 159.491 48.8785V52.9917H159.77H165.278V55.3619H161.374H159.631V56.4774C159.631 58.6385 158.306 59.4054 157.121 59.4054L132.373 59.4054C129.236 59.4054 126.586 58.9871 124.356 58.1505C122.613 57.5231 121.009 56.5471 119.685 55.2225L118.848 54.386H124.634L124.425 54.1768C124.382 54.1337 124.366 54.0906 124.343 54.0311C124.329 53.9943 124.312 53.9512 124.286 53.898H118.5L118.36 53.6888C117.105 51.946 116.129 49.7151 115.572 47.1357L115.432 46.578L115.99 46.4386H121.497C121.458 46.1421 121.413 45.84 121.367 45.5323C121.25 44.7547 121.129 43.9414 121.079 43.0923H115.362L115.293 42.674C115.223 41.4889 115.153 40.3037 115.084 39.0489V38.5609H121.916V38.3517V37.7243H115.084L115.153 35.1449H119.336V34.7266H115.084L115.153 29.5678L118.36 29.498C118.395 29.3586 118.447 29.2018 118.5 29.0449C118.552 28.888 118.604 28.7312 118.639 28.5918H115.362L115.85 27.7552C115.85 27.7203 115.868 27.6855 115.885 27.6506C115.903 27.6158 115.92 27.5809 115.92 27.5461C117.036 25.6638 118.918 24.5483 121.079 24.3392L157.121 24.2695C157.679 24.2695 159.491 24.4786 159.491 27.1975V27.6158H159.77H162.768V30.5438H159.491V32.7049C159.491 33.0535 159.491 33.402 159.422 33.7506H159.77H163.814L163.395 34.4477C162.838 35.4935 161.792 35.5632 161.374 35.5632L130.7 35.5632V35.6329L130.63 36.1209H127.841H126.447V36.818H130.002L152.171 36.818V39.5369L128.469 39.5369H126.377V40.0946V40.234C126.412 40.3734 126.43 40.5477 126.447 40.722C126.464 40.8963 126.482 41.0706 126.517 41.21C126.586 41.5586 126.656 41.8374 126.726 42.1162L126.726 42.1163H127.841H132.373L132.512 42.4649C132.721 43.162 132.93 43.7197 133.279 44.138C133.767 44.7654 134.325 45.2534 135.161 45.5323C135.998 45.8111 137.183 45.9506 138.577 45.9506H163.117C163.535 45.9506 164.162 46.0203 164.79 46.5083L165.766 47.4145H161.792ZM115.989 10.1873L154.401 10.1873H156.214H158.654C158.445 10.9542 157.817 11.1633 157.399 11.1633L117.313 11.0936C116.825 11.0936 116.268 10.9542 115.989 10.1873ZM119.823 33.7506H120.311L158.374 33.7506C158.391 33.6848 158.411 33.6152 158.433 33.5416L158.433 33.5415C158.502 33.3033 158.584 33.0245 158.584 32.7049V30.5438L119.335 30.5438H118.847H116.128L116.058 33.7506H119.823ZM122.89 36.8182H122.402H116.058V36.121H119.823H120.311H125.469V36.8182H122.89ZM121.496 42.1166H121.914H125.748C125.713 42.012 125.679 41.89 125.644 41.768L125.644 41.7679C125.609 41.6459 125.574 41.524 125.539 41.4194C125.504 41.2451 125.487 41.0534 125.469 40.8617C125.452 40.67 125.435 40.4783 125.4 40.304V40.1646V39.5371H122.89H122.402H116.058C116.128 40.4434 116.198 41.28 116.267 42.1166H121.496ZM122.749 47.4146L158.094 47.4146C158.373 47.6934 158.582 48.1814 158.582 48.8786V52.9917L124.771 52.9917H124.562H118.985C117.939 51.458 117.172 49.5757 116.614 47.4146H122.122H122.749ZM119.406 27.6158H120.173L158.585 27.6158V27.1975C158.585 25.5941 157.749 25.2455 157.121 25.2455L121.149 25.3152C119.476 25.4547 118.012 26.2912 117.036 27.6158H119.406ZM119.334 4.47092L154.469 4.47092H155.515L162.277 4.47092V4.8892L155.515 4.8892H154.469L119.334 4.8892V4.47092ZM158.583 28.5917L119.682 28.5917C119.65 28.6712 119.619 28.747 119.588 28.8209L119.588 28.8209C119.483 29.0711 119.387 29.2986 119.334 29.5677L158.583 29.5677H159.001H161.789V28.5917H159.768H158.583ZM120.311 34.7268H129.932C129.826 34.7797 129.8 34.8727 129.764 35.0057C129.752 35.0481 129.739 35.0946 129.723 35.1451H127.84H125.54H120.311V34.7268ZM158.652 55.362L126.863 55.362H125.747H121.286C122.262 56.1985 123.447 56.826 124.702 57.2442C126.793 58.0111 129.372 58.4294 132.37 58.4294L157.119 58.4294C157.816 58.4294 158.652 58.0808 158.652 56.4774V55.362ZM122.053 43.0924H125.957H127.839H131.673C131.882 43.7198 132.161 44.2775 132.51 44.6958C133.067 45.5323 133.834 46.0901 134.81 46.4386L122.541 46.4386C122.331 45.4626 122.122 44.3472 122.053 43.0924ZM125.468 37.7246H122.889V38.2823V38.5611H125.398H128.466L151.193 38.5611V37.7246L130 37.7246H125.468ZM125.539 53.898L158.583 53.898H159.768H164.3V54.3859H161.372H158.653L125.957 54.3859C125.818 54.2465 125.678 54.1071 125.539 53.898Z"
            fill="#FF0063" />
        <path fill-rule="evenodd" clip-rule="evenodd"
            d="M264.268 9.14129H270.821V13.603H263.85H263.152V17.6464H264.756L267.963 17.6464V30.5435H268.172H270.751V33.1926H265.523H264.895V41.3492H264.059H262.804V45.4623H269.357V49.8543C269.357 51.3183 269.287 52.5731 269.078 53.6886L269.008 54.1068H264.059H263.292C263.277 54.1651 263.263 54.2202 263.249 54.273C263.196 54.473 263.152 54.6385 263.152 54.804H263.919L263.71 55.4314C263.501 56.1983 263.222 56.756 262.874 57.1743C261.758 58.6383 260.085 59.3354 257.924 59.3354H252.835C251.859 59.3354 251.022 59.2657 250.395 59.196C249.628 59.0565 248.931 58.7777 248.303 58.3594C247.746 57.9411 247.188 57.3834 246.63 56.6863L246.63 56.6862C246.421 56.4074 246.212 56.1285 246.003 55.78H245.724H242.168L242.029 55.5708C241.681 55.1526 241.332 54.6646 240.983 54.0371L240.356 53.1309H249.488L245.654 46.4383H244.539H239.101L235.755 40.4429H237.846L233.245 32.2166H237.777L237.358 31.5195H235.894L228.644 18.6224H226.901V30.5435H227.529H231.99V33.1926H225.925H223.834V40.4429H225.925H227.738V54.1068H222.858V54.804H224.252H228.505V56.4771C228.505 59.1263 226.622 59.3354 226.065 59.3354H219.86C219.233 59.3354 217.35 59.1263 217.35 56.4771V55.78H211.703V53.1309H216.305H216.583V46.4383H210.379V40.4429H212.679V33.1926H211.355V30.5435H215.747V18.6224H210.937V12.627H215.259V10.3961V10.1173H211.285V9.62929C211.355 7.39844 211.564 5.65559 212.052 4.40074L212.191 4.12188L217.35 4.12188C217.559 3.7036 217.769 3.35503 217.978 3.07617C219.093 1.61218 220.697 0.915039 222.858 0.915039L228.086 0.915039C229.062 0.915039 229.969 0.984753 230.666 1.05447C231.433 1.1939 232.199 1.54247 232.757 1.96075C233.385 2.37903 233.873 2.93675 234.43 3.7036L234.849 4.33103L235.337 5.09788L230.108 5.09788L230.108 5.09792C230.317 5.44648 230.526 5.79504 230.735 6.21331L232.409 9.14129H236.382L238.892 13.603L235.476 13.603H234.57L236.87 17.6464H238.753H241.681L248.931 30.5435H249.07H250.395L251.859 33.1926H247.536H247.327L251.719 41.0703V40.4429H253.811V33.1926H253.253V30.5435H256.948V18.6224H246.421V12.627L256.39 12.627V10.1173H252.416V4.12188H257.575V3.77331C257.575 1.68189 258.83 0.915039 260.015 0.915039L266.22 0.915039C267.405 0.915039 268.66 1.68189 268.66 3.77331V5.09788L263.85 5.09788H263.501V9.14129H264.268ZM222.856 41.349H213.654H213.166H211.353V45.4621H217.558V53.1307H221.88H222.368H226.76V41.349H225.924H222.856ZM235.755 17.6461H229.202H225.925L216.723 17.6461H216.235H211.913V13.6027H215.747L216.235 13.6027L233.455 13.6027L235.755 17.6461ZM215.748 9.14118L216.236 9.14118L231.294 9.14118L229.899 6.70119C229.551 6.07376 229.272 5.58577 228.993 5.09777L218.048 5.09777H217.7L212.889 5.09777C212.541 6.07376 212.332 7.46804 212.262 9.14118H215.748ZM216.723 31.5195L225.925 31.5195H227.529H231.014V32.2166H225.925H222.858H213.656H213.168H212.331V31.5195H215.747H216.723ZM221.882 54.8038V54.1066H217.56H216.305H212.68V54.8038H217.839H218.327H221.882ZM213.654 33.1926H222.857V40.4428H213.654V33.1926ZM232.13 10.117H231.851L216.235 10.117V10.3959V12.6267L232.897 12.6267H235.476H237.219L235.825 10.117H232.13ZM216.722 18.6224L225.925 18.6224V30.5435L216.722 30.5435V18.6224ZM221.881 55.7797H218.326V56.4768C218.326 58.0803 219.162 58.3591 219.859 58.3591H226.064C226.691 58.3591 227.528 58.0803 227.528 56.4768V55.7797H224.251H221.881ZM218.606 3.87753C218.659 3.79039 218.711 3.70325 218.746 3.63353C219.652 2.44839 221.046 1.89068 222.859 1.89068L228.087 1.89068C229.063 1.89068 229.83 1.9604 230.458 2.03011C231.155 2.16954 231.713 2.37868 232.201 2.72725C232.689 3.07582 233.107 3.56382 233.525 4.12153H229.273H228.366L218.467 4.12153C218.502 4.05182 218.554 3.96467 218.606 3.87753ZM237.636 30.5435H237.915L247.814 30.5435L241.122 18.6224H238.751H236.311H229.758L236.451 30.5435H237.636ZM248.163 40.4428H238.961L234.847 33.1926H238.612H239.448H246.211L250.254 40.4428H249.487H248.163ZM246.212 45.4621H251.022L248.722 41.349H239.52H238.683H237.428L239.659 45.4621H244.539H246.212ZM238.475 31.5195L248.374 31.5195H249.071H249.838L250.187 32.2166H247.538H245.655L238.893 32.2166L238.475 31.5195ZM262.316 54.1066H251.092H250.255H242.168C242.308 54.3855 242.447 54.5946 242.656 54.8038H245.724H246.56H262.107L262.107 54.8037C262.176 54.5946 262.246 54.3855 262.316 54.1066ZM261.829 46.4382H262.317H268.382V49.8542C268.382 51.1091 268.312 52.2245 268.173 53.1308H264.059H262.526H250.535L246.77 46.4382H261.829ZM262.526 55.7797H262.456H261.759H247.188C247.223 55.8494 247.258 55.9017 247.293 55.954C247.328 56.0063 247.363 56.0586 247.398 56.1283C247.886 56.7557 248.374 57.2437 248.862 57.5923C249.35 57.8711 249.907 58.15 250.535 58.2197C251.162 58.3591 251.929 58.3591 252.835 58.3591H257.924C259.807 58.3591 261.201 57.8014 262.107 56.6163C262.247 56.4071 262.386 56.1283 262.526 55.7797ZM257.366 13.6027L262.176 13.6027V17.6461H257.854H257.435H247.327V13.6027L256.878 13.6027H257.366ZM251.721 41.349H249.838L251.721 44.765V41.349ZM254.787 41.349H261.828V45.4621H252.696V41.349H254.299H254.787ZM256.879 9.14118H257.367L262.526 9.14118V5.09777H258.552H258.064L253.394 5.09777V9.14118H256.879ZM257.855 31.5195L266.987 31.5195H268.173H269.776V32.2166L265.523 32.2166H263.92H254.787H254.299H254.23V31.5195H257.437H257.855ZM263.919 33.1926H254.786V40.4428H261.827H263.919V33.1926ZM262.526 10.117H264.269H269.846V12.6267H263.85H262.177L257.367 12.6267V10.117L262.526 10.117ZM262.176 18.6224H257.854V30.5435L266.987 30.5435V18.6224L264.756 18.6224H262.176ZM258.552 4.12153V3.77296C258.552 2.23925 259.389 1.89068 260.016 1.89068L266.221 1.89068C266.918 1.89068 267.685 2.23925 267.685 3.77296V4.12153H263.85H262.526L258.552 4.12153Z"
            fill="#FF0063" />
        <path fill-rule="evenodd" clip-rule="evenodd"
            d="M372.185 13.9521C372.742 16.6012 372.952 19.7383 372.952 23.224V27.4069L369.466 27.4069H369.187V28.104H369.466L371.836 28.104V36.3303H371.906H372.952V37.0274C372.952 38.7005 372.882 40.304 372.812 41.9074L372.742 42.3257H370.93H370.651C370.512 44.1382 370.233 45.7417 369.954 47.1359C369.745 47.9725 369.536 48.7394 369.187 49.7154L369.117 49.9942H367.793H366.398C366.259 50.2731 366.189 50.4822 366.12 50.7611H366.468H370.651L370.372 51.4582C369.814 52.5039 369.326 53.4102 368.699 54.1771C368.002 55.0833 367.096 55.9199 366.05 56.6868L365.91 56.7565H363.958H362.146C361.24 57.3142 360.264 57.8022 359.288 58.1507C357.057 58.9873 354.338 59.3359 351.271 59.3359L334.26 59.3359C331.123 59.3359 328.474 58.9873 326.243 58.1507C325.197 57.8022 324.221 57.3142 323.315 56.6868L322.06 55.7805H325.964C325.407 55.2925 324.849 54.7348 324.431 54.1771C323.873 53.4799 323.385 52.6433 322.897 51.7371H316.483L316.344 51.4582C316.258 51.2284 316.16 50.9986 316.06 50.764L316.059 50.7639L316.059 50.7638L316.059 50.7638C315.917 50.4289 315.77 50.0842 315.647 49.7154L315.438 49.0879H319.969C319.76 48.3908 319.62 47.7634 319.481 47.1359C319.132 45.7417 318.923 44.1382 318.714 42.3257H316.553V41.9074C316.413 40.304 316.344 38.7005 316.344 37.0274V36.3303H318.853V29.08H315.577V26.4309H320.596V23.224C320.596 20.0172 320.875 17.0892 321.293 14.5795L316.204 14.5795L316.413 13.6732C316.413 13.5581 316.435 13.4641 316.454 13.3795C316.469 13.3105 316.483 13.2479 316.483 13.1852C316.832 11.6515 317.32 10.1875 318.017 8.79321L318.156 8.58407H321.363C321.851 7.60807 322.339 6.84122 322.827 6.21379L322.827 6.21379L322.827 6.21379L322.827 6.21379L322.827 6.21378L322.827 6.21378L322.827 6.21378L322.827 6.21377L322.827 6.21377L322.827 6.21377L322.827 6.21377L322.827 6.21376L322.827 6.21376L322.827 6.21376L322.827 6.21375L322.827 6.21375L322.827 6.21375C323.106 5.86519 323.385 5.51664 323.733 5.2378L323.873 5.09837H327.707C328.962 3.7738 330.496 2.79781 332.239 2.17038C334.469 1.33381 337.188 0.915527 340.256 0.915527L357.266 0.915527C360.403 0.915527 363.052 1.33381 365.283 2.17038C367.165 2.79781 368.769 3.84352 370.093 5.2378L370.86 6.07437L367.026 6.07437C367.026 6.07437 367.096 6.14408 367.096 6.21379C367.723 6.91093 368.211 7.7475 368.699 8.79321L369.048 9.49035H365.771C366.329 10.6755 366.677 11.9303 366.956 13.1852C367.026 13.3246 367.026 13.4641 367.026 13.6035H367.514H372.115L372.185 13.9521ZM319.342 28.1038H319.83L329.172 28.1038H330.217H344.857V27.4066H331.751H330.984L321.573 27.4066H321.085H316.553V28.1038H319.342ZM321.365 49.9938L365.354 49.9938C365.285 50.1332 365.232 50.2552 365.18 50.3772C365.128 50.4992 365.075 50.6212 365.006 50.7606L323.526 50.7606H323.177H317.112C317.077 50.6212 317.025 50.4992 316.973 50.3772C316.92 50.2552 316.868 50.1332 316.833 49.9938H320.668H321.365ZM319.203 41.3495H319.621H326.802C326.732 40.3735 326.662 39.3975 326.662 38.2821V37.3061H319.83H319.342H317.32C317.32 38.7004 317.32 40.0249 317.46 41.3495H319.203ZM322.479 13.6034H321.921L317.39 13.6034V13.3942C317.738 12 318.156 10.7451 318.714 9.49026L321.642 9.49026H321.991L364.725 9.49026C365.283 10.7451 365.701 12 366.05 13.3942V13.6034L361.1 13.6034H360.821H356.011C356.011 13.5685 355.994 13.5511 355.976 13.5337C355.959 13.5162 355.941 13.4988 355.941 13.464C355.384 12.6971 354.617 12.1394 353.641 11.7908C352.595 11.4422 351.34 11.2331 349.876 11.2331L333.563 11.2331C332.099 11.2331 330.775 11.4422 329.799 11.7908C328.823 12.1394 328.056 12.6971 327.498 13.464C327.498 13.4988 327.481 13.5162 327.463 13.5337C327.446 13.5511 327.428 13.5685 327.428 13.6034H322.479ZM369.676 42.3254H362.425H362.007H360.334C360.264 42.7436 360.194 43.1619 360.125 43.5105C359.916 44.9048 359.497 46.0202 358.94 46.7871C358.312 47.6236 357.545 48.1813 356.569 48.5299C355.593 48.8088 354.338 49.0179 352.805 49.0179L336.561 49.0179C335.028 49.0179 333.773 48.8088 332.797 48.5299C331.821 48.1813 331.054 47.6236 330.496 46.7871C329.869 46.0202 329.451 44.9048 329.241 43.5105C329.172 43.1619 329.102 42.7437 329.032 42.3254L329.032 42.3254L329.032 42.3254H328.544H326.871H319.691C319.9 44.0682 320.109 45.6019 320.388 46.9265C320.527 47.6236 320.736 48.3208 321.015 49.0876L365.702 49.0876H367.793H368.421C368.466 48.9211 368.512 48.758 368.556 48.5973L368.557 48.5961C368.718 48.0173 368.869 47.4719 368.978 46.9265C369.327 45.6019 369.536 44.0682 369.676 42.3254ZM326.661 36.33H319.829V29.0797L329.171 29.0797V36.33H328.543H326.661ZM331.961 14.5791H327.708H326.872H322.271C321.852 17.0191 321.574 19.9471 321.574 23.2236V26.4305L330.985 26.4305V22.0385C330.985 19.9471 331.055 18.2042 331.333 16.8099C331.473 15.9734 331.682 15.2065 331.961 14.5791ZM364.307 8.58384L322.479 8.58384C322.827 7.8867 323.176 7.25927 323.594 6.77127C323.662 6.70397 323.729 6.62945 323.799 6.55235L323.799 6.55234C323.945 6.38986 324.102 6.21597 324.291 6.07413H327.847H328.056L365.702 6.07413L366.399 6.77127C366.504 6.93899 366.615 7.10671 366.728 7.27823C366.993 7.67704 367.27 8.09635 367.514 8.58384H365.074H364.307ZM364.586 51.7368L324.013 51.7368C324.361 52.3642 324.78 53.0614 325.198 53.5494C325.825 54.3859 326.592 55.1528 327.499 55.7802L361.868 55.7802H363.959H365.632C366.538 55.1528 367.305 54.3859 367.933 53.5494C368.351 52.9916 368.769 52.4339 369.118 51.7368H366.469H364.586ZM328.892 56.7561L360.193 56.7561C359.984 56.8258 359.775 56.9129 359.566 57.0001L359.566 57.0001L359.566 57.0001L359.566 57.0001L359.566 57.0002L359.566 57.0002L359.565 57.0002C359.356 57.0873 359.147 57.1744 358.938 57.2441C356.847 58.0109 354.268 58.3595 351.27 58.3595L334.26 58.3595C331.262 58.3595 328.682 58.0109 326.591 57.2441C326.173 57.1046 325.755 56.9652 325.336 56.7561H327.358H328.892ZM356.15 29.0797V26.4306H361.658V22.0386C361.658 20.0169 361.518 18.2741 361.309 16.9495C361.1 15.9735 360.891 15.2066 360.542 14.5792H355.453L355.244 14.1609C355.174 14.1609 355.174 14.0912 355.174 14.0215C354.686 13.3941 354.059 12.9758 353.292 12.6969C352.386 12.3484 351.27 12.2089 349.876 12.2089L333.563 12.2089C332.169 12.2089 330.983 12.3484 330.147 12.6969C329.519 12.9061 329.031 13.1849 328.683 13.6032L333.633 13.6032L333.214 14.3004C332.796 14.9975 332.447 15.9038 332.308 16.9495C332.029 18.2741 331.89 20.0169 331.89 22.0386V26.4306H345.833V29.0797H330.217H330.147V37.306H328.543H327.637V38.282C327.637 39.3277 327.637 40.3734 327.777 41.3494H328.543H329.938L330.007 41.7677C330.007 42.3254 330.077 42.8831 330.147 43.3014C330.426 44.5562 330.774 45.5322 331.262 46.2294C331.681 46.8568 332.308 47.3448 333.075 47.6237C333.981 47.9025 335.166 48.0419 336.561 48.0419L352.804 48.0419C354.268 48.0419 355.383 47.9025 356.29 47.6237C357.057 47.3448 357.684 46.8568 358.102 46.2294C358.59 45.5322 359.009 44.5562 359.218 43.3014C359.287 42.8831 359.357 42.3254 359.427 41.7677V41.3494H361.518C361.658 40.4431 361.658 39.3974 361.658 38.282V37.306H357.893V29.0797H356.15ZM364.726 5.09786L329.102 5.09786C330.148 4.19157 331.333 3.56415 332.588 3.07615C334.679 2.23958 337.259 1.89101 340.256 1.89101L357.267 1.89101C360.264 1.89101 362.844 2.23958 365.005 3.07615C366.26 3.56415 367.445 4.19157 368.49 5.09786L365.911 5.09786H364.726ZM368.28 27.4066H362.633H362.145H357.126V28.1038H358.381H358.869H368.28V27.4066ZM358.87 29.0797H368.282H369.467L370.861 29.0797V36.33H362.635H362.147H358.87V29.0797ZM371.977 23.2236C371.977 19.9471 371.768 17.0191 371.349 14.5791H367.515H366.26L361.589 14.5791C361.868 15.2065 362.077 15.9734 362.287 16.8099C362.496 18.2042 362.635 19.9471 362.635 22.0385V26.4305H368.282H369.467L371.977 26.4305V23.2236ZM362.634 37.3061H370.86H371.906H371.976C371.976 38.7004 371.976 40.0249 371.836 41.3495H370.93H369.745H362.495C362.564 40.3735 362.634 39.3975 362.634 38.2821V37.3061Z"
            fill="#FF0063" />
    </g>
    <path fill-rule="evenodd" clip-rule="evenodd"
        d="M119.047 9.21128C119.256 10.8844 120.441 11.0936 120.999 11.0936L160.178 11.1633C160.666 11.1633 161.851 10.8844 162.06 9.21128H158.574C158.574 9.1486 158.589 9.08593 158.604 9.01693L158.604 9.01675C158.623 8.93229 158.644 8.83833 158.644 8.72328V4.88901H162.06V3.49473L158.644 3.49473V3.21587C158.644 1.05474 157.25 0.775879 156.692 0.775879L120.092 0.775879C119.465 0.775879 118.14 1.05473 118.14 3.28558V3.49473L122.463 3.49473V4.88901L118.14 4.88901V8.72328C118.14 8.86271 118.14 9.07185 118.21 9.21128H119.047ZM84.0516 29.6375L73.3853 29.6375V26.7793C73.3853 24.1301 71.8516 23.7119 70.9454 23.7119L49.6826 23.7119C49.1249 23.7119 47.7306 23.9907 47.7306 26.2216V29.6375H51.0769V31.1015H49.6129V31.5198C49.6129 33.7507 50.9374 34.0295 51.4951 34.0295H67.0414H68.8539C68.8539 34.0295 68.9236 35.9815 68.9236 38.1427H58.8848C58.8848 39.0167 58.9055 39.9115 58.9244 40.7253L58.9244 40.7255V40.7256V40.7256L58.9244 40.7259L58.9244 40.7261C58.9401 41.405 58.9545 42.0275 58.9545 42.5346H71.3636C71.3636 43.3015 71.4334 43.7895 71.4334 43.7895C71.4334 45.9506 71.0848 46.8569 70.8059 47.2752C70.4574 47.8329 69.8996 48.042 69.0631 48.042H64.8105L49.5431 48.042H45.2906C43.8266 48.042 42.5717 47.9026 41.6655 47.554C40.7592 47.2752 40.1318 46.7872 39.574 46.0203C39.086 45.3232 38.6678 44.2775 38.4586 42.9529C38.3889 42.8135 38.3889 42.6741 38.3889 42.5346H33.5089C33.2998 41.3495 33.2301 39.8855 33.2301 38.1427H38.0403V37.7244V29.6375H34.6243L34.6243 21.5507C34.6243 20.4353 34.6243 19.4593 34.6941 18.553L52.1923 18.553C52.262 17.7164 52.3317 17.0193 52.4711 16.3222C52.6106 15.4856 52.8197 14.7885 53.0986 14.2307L32.9512 14.2307C33.0465 13.9925 33.1743 13.7543 33.2902 13.5384L33.2902 13.5384L33.2902 13.5384C33.3439 13.4383 33.3951 13.343 33.4392 13.2548C33.9969 12.5576 34.6941 12.0696 35.5306 11.721C36.5066 11.4422 37.6918 11.233 39.1558 11.233L45.2906 11.233L68.7842 11.233C69.3419 11.233 70.7362 11.0239 70.7362 8.79305V7.95648L76.871 7.95648V3.63422L72.2699 3.63422V3.35536C72.2699 1.19422 70.9454 0.915369 70.3876 0.915369L44.942 0.915369C41.8746 0.915369 39.2255 1.33365 37.0643 2.10051C36.0186 2.51879 35.1123 3.00679 34.2758 3.63422L41.038 3.63422C40.062 4.26164 39.1558 5.09821 38.4586 6.00449C37.9706 6.63192 37.5523 7.25934 37.2038 7.95648L30.4415 7.95648C29.6746 9.35077 29.0472 10.9542 28.6289 12.8365C28.5592 13.2547 28.4895 13.7427 28.4198 14.2307L28.4198 14.2307H29.3958C29.1867 15.5553 28.9775 16.9496 28.9078 18.553H27.8621C27.7924 19.8776 27.7227 21.2719 27.7227 22.7359V31.1015H29.5352L29.5352 36.5392C29.5352 36.8274 29.5538 37.1156 29.5718 37.3941C29.5887 37.6547 29.6049 37.9068 29.6049 38.1427H27.7227C27.7924 39.7461 27.8621 41.1404 28.0015 42.5346H32.3238C32.4632 43.9986 32.6724 45.3232 32.9512 46.578C33.1603 47.4843 33.4392 48.3209 33.718 49.1574L33.7181 49.1575H29.3958L30.0232 50.6215H33.5089C33.9969 51.6672 34.4849 52.5735 35.1821 53.41C35.6003 53.9677 36.0883 54.4557 36.6461 54.9437H33.1604C34.2758 55.9197 35.6003 56.6866 37.0643 57.2443C39.2255 58.0112 41.8746 58.4294 44.942 58.4294L65.0197 58.4294C67.5991 58.4294 69.6208 57.3837 71.0151 55.362C71.0848 55.2226 71.1545 55.0832 71.2939 54.9437H80.8447C81.4722 53.8283 81.9602 52.434 82.239 50.6215H70.5271L70.7362 49.1575H76.5922C76.7316 48.042 76.8013 46.8569 76.8013 45.4626V42.5346H71.9214V38.1427H84.0516V29.6375ZM161.435 46.4385C161.853 46.7871 162.202 47.3448 162.202 48.3905V52.9917H164.642V54.3859H162.272V55.9894C162.272 57.5231 161.575 58.0808 160.947 58.2899L137.942 58.2899C134.874 58.2899 132.225 57.9414 130.064 57.1048C128.391 56.5471 126.927 55.5711 125.672 54.3859H128.879C128.53 54.0374 128.251 53.7585 127.972 53.41C127.891 53.3283 127.833 53.2227 127.785 53.1352C127.751 53.0733 127.722 53.0205 127.694 52.9917H124.487C123.232 51.2488 122.256 49.0877 121.698 46.4385H125.254C124.975 45.114 124.766 43.7197 124.626 42.1163H117.724C117.703 41.7367 117.676 41.3508 117.648 40.9566C117.583 40.0474 117.515 39.0941 117.515 38.0729L117.446 37.7243L117.515 35.1449H122.953V33.7506H120.862L120.931 28.9403C121.071 28.3129 121.28 27.7552 121.628 27.1975C122.535 25.6638 123.999 24.6878 125.672 24.3392L160.25 24.2695C160.808 24.2695 162.202 24.5483 162.202 26.7095V32.2169C162.202 32.914 162.063 33.402 161.853 33.7506H163.875C163.457 34.378 162.76 34.5175 162.341 34.5175L131.179 34.5175V35.1449H129.088C129.088 36.4694 129.018 39.6066 129.018 39.6066C129.053 39.8157 129.07 40.0249 129.088 40.234C129.105 40.4432 129.123 40.6523 129.158 40.8614C129.227 41.2797 129.367 41.7677 129.506 42.1163H131.598C131.807 42.8134 132.086 43.3711 132.364 43.8591C132.922 44.5563 133.619 45.0443 134.526 45.3928C135.432 45.6717 136.687 45.8808 138.151 45.8808L139.894 45.8808C140.451 45.9506 141.079 45.9506 141.706 45.9506H163.317C163.596 46.0203 163.875 46.1597 164.084 46.4385H161.435ZM254.501 4.12221L251.573 4.12221V9.14162L257.708 9.14162V12.6273L251.225 12.6273V17.6467H254.501V32.217H252.967V40.4432H250.876V45.4626H254.501V49.4363C254.501 50.8306 254.431 52.0855 254.292 53.1312H251.503C251.364 53.7586 251.225 54.3163 251.015 54.8043H251.782C251.573 55.4317 251.364 55.9894 251.015 56.4077C250.039 57.7323 248.506 58.4294 246.484 58.4294H243.486C242.51 58.4294 241.743 58.3597 241.116 58.2203C240.419 58.0809 239.791 57.8717 239.234 57.4534C238.676 57.1049 238.188 56.6169 237.7 55.9197C237.212 55.2923 236.654 54.4557 236.027 53.3403L235.957 53.1312H238.815L234.493 45.4626L223.827 45.4626L216.368 32.217H227.173L226.197 30.5438H224.733L217.483 17.6467H216.019L213.997 14.161C213.858 13.9519 213.788 13.9519 213.788 13.9519H213.44V14.0913V32.217H211.906V40.4432H213.44V53.1312H210.93V54.8043H213.44V55.9894C213.44 58.1506 212.045 58.4294 211.488 58.4294H208.42C207.793 58.4294 206.398 58.1506 206.398 55.9894V54.8043H203.261V53.1312H205.632V45.4626H203.261V30.5438H204.795V17.6467H203.261V12.6273H204.307V9.90848V9.14162H203.261C203.331 6.98049 203.61 5.30735 204.028 4.12221H206.259C206.468 3.63422 206.677 3.21593 206.886 2.86736C207.932 1.61251 209.466 0.915369 211.488 0.915369L214.416 0.915369C215.392 0.915369 216.228 0.985083 216.925 1.0548C217.622 1.19422 218.32 1.47308 218.877 1.89136C219.365 2.23993 219.853 2.79765 220.341 3.49479L220.76 4.12221L217.832 4.12221C218.18 4.67993 218.529 5.23764 218.877 6.00449L220.69 9.14162L237.003 9.14162L238.955 12.6273L222.293 12.6273L225.151 17.6467H228.428L236.585 32.217H235.051L239.652 40.4432H237.561L240.21 45.1838C240.279 45.3929 240.349 45.3929 240.419 45.3929H240.767V45.2535V40.4432H241.186L243.835 45.1838C243.974 45.3929 244.044 45.3929 244.044 45.3929H244.462V45.2535V30.5438H245.996V17.6467H244.462V12.6273H245.438V9.14162H244.462V4.12221L246.623 4.12221V3.35536C246.623 1.12451 248.018 0.915369 248.575 0.915369L252.619 0.915369C253.177 0.915369 254.501 1.12451 254.501 3.35536V4.12221ZM345.618 26.4307V28.1038H346.803V36.5392C346.803 40.4432 346.524 43.7895 345.897 46.5083C345.687 47.4146 345.478 48.2512 345.199 49.0878H342.899L342.271 50.7609H344.502C344.014 51.7369 343.526 52.5735 342.899 53.41C342.202 54.3163 341.295 55.0832 340.319 55.7803H338.855C338.019 56.338 337.043 56.8957 335.997 57.2443C333.836 58.0112 331.187 58.4294 328.119 58.4294L312.643 58.4294C309.576 58.4294 306.926 58.0112 304.765 57.2443C303.72 56.8957 302.813 56.338 301.907 55.7803H304.277C303.301 55.0832 302.395 54.3163 301.698 53.3403C301.07 52.5735 300.582 51.7369 300.094 50.7609H297.794C297.515 50.2032 297.306 49.6455 297.097 49.0878H297.585C297.306 48.2512 297.027 47.4146 296.818 46.5083C296.469 45.0443 296.26 43.3015 296.051 41.3495H295.633C295.493 39.8855 295.424 38.2821 295.424 36.5392V36.3301H296.19V28.1038H295.424V26.4307H298.003V22.7359C298.003 19.2502 298.282 16.1827 298.77 13.6033L296.19 13.6033C296.26 13.3245 296.33 13.0456 296.33 12.8365C296.748 11.233 297.236 9.83876 297.864 8.58391H298.561C298.979 7.60791 299.537 6.77135 300.094 6.00449C300.373 5.65592 300.652 5.37707 300.931 5.09821L304.765 5.09821C306.02 3.77364 307.554 2.79765 309.297 2.10051C311.458 1.33365 314.107 0.915369 317.174 0.915369L329.583 0.915369C332.651 0.915369 335.3 1.33365 337.461 2.10051C339.692 2.93708 341.505 4.26164 342.899 6.00449C343.526 6.77135 344.014 7.60791 344.433 8.58391H341.923C342.55 9.83876 343.038 11.233 343.387 12.8365C343.424 12.9476 343.441 13.0783 343.46 13.2183C343.476 13.3419 343.494 13.4726 343.526 13.6033H346.036C346.524 16.1827 346.803 19.2502 346.803 22.7359V26.4307H345.618ZM338.647 16.3917C338.926 17.786 339.066 19.5289 339.066 21.5506V26.4306H336.765V36.3299H339.066V37.7939C339.066 39.1185 338.996 40.3036 338.856 41.3494H336.765L336.764 41.3552C336.695 41.911 336.625 42.4665 336.556 42.9528C336.347 44.2076 335.928 45.3231 335.44 46.0202C334.883 46.787 334.186 47.275 333.349 47.5539C332.373 47.9025 331.188 48.0419 329.724 48.0419H329.236L313.48 48.0419H312.992C311.529 48.0419 310.274 47.9025 309.367 47.5539C308.461 47.275 307.834 46.787 307.276 46.0202C306.788 45.3231 306.37 44.2076 306.161 42.9528C306.021 42.4648 305.951 41.9071 305.951 41.3494H300.932C300.793 40.3036 300.793 39.1185 300.793 37.7939V36.3299H305.742V21.5506C305.742 19.5289 305.882 17.786 306.161 16.3917C306.37 15.2066 306.649 14.3003 307.137 13.6032H304.627C304.627 13.5011 304.664 13.4364 304.712 13.3544C304.729 13.3243 304.748 13.292 304.766 13.2546C305.324 12.5575 305.951 12.0695 306.858 11.7209C307.834 11.442 309.019 11.2329 310.483 11.2329H312.992L326.726 11.2329H329.236C330.7 11.2329 331.955 11.442 332.861 11.7209C333.767 12.0695 334.395 12.5575 334.952 13.2546C334.971 13.292 334.99 13.3243 335.007 13.3544C335.054 13.4364 335.092 13.5011 335.092 13.6032H337.671C338.159 14.3003 338.438 15.2763 338.647 16.3917Z"
        fill="url(#paint0_linear_2646_46558)" />
    <path
        d="M170.377 55.069C170.426 55.1178 170.356 55.2293 170.168 55.4175C169.052 56.6236 167.797 57.7878 166.403 58.9033C165.009 60.0187 163.594 61.0644 162.151 62.0404C159.92 63.5741 157.703 64.9544 155.493 66.1884C153.283 67.4223 151.254 68.2658 149.393 68.7329C149.023 68.8236 148.605 68.9351 148.138 69.0466C147.671 69.1652 147.218 69.2558 146.779 69.3255C146.339 69.3952 145.942 69.451 145.593 69.4998C145.245 69.5486 145.001 69.5486 144.861 69.4998C144.492 69.4092 144.255 69.2 144.164 68.8724C144.074 68.5517 144.143 68.2449 144.374 67.9661C144.464 67.8266 144.778 67.6175 145.315 67.3386C145.851 67.0598 146.207 66.8716 146.395 66.7809C146.444 66.7391 146.59 66.6555 146.848 66.5369C147.106 66.4184 147.385 66.279 147.685 66.1187C147.985 65.9583 148.291 65.798 148.591 65.6307C148.891 65.4703 149.135 65.3169 149.323 65.1775C150.209 64.571 151.115 63.8669 152.042 63.0512C152.969 62.2356 153.869 61.399 154.726 60.5415C155.584 59.684 156.42 58.8266 157.236 57.9621C158.051 57.1046 158.783 56.3029 159.432 55.557C160.498 54.1627 161.544 52.6429 162.569 50.9907C163.594 49.3385 164.43 47.7699 165.079 46.285C163.873 46.4732 162.52 47.017 161.035 47.9233C159.55 48.8296 157.989 49.9659 156.364 51.3393C154.74 52.7126 153.088 54.2464 151.415 55.9404C149.741 57.6345 148.152 59.3425 146.639 61.0644C145.126 62.7863 143.725 64.4664 142.422 66.1187C141.118 67.7709 140.03 69.2418 139.145 70.5455C137.242 73.3341 135.359 76.0878 133.498 78.8066C131.637 81.5255 129.734 84.2792 127.782 87.0677C125.83 89.8981 123.843 92.7494 121.821 95.6077C119.799 98.466 117.694 101.241 115.512 103.939C115.045 104.496 114.585 105.054 114.118 105.612C113.651 106.169 113.142 106.678 112.584 107.145C112.444 107.236 112.235 107.368 111.956 107.529C111.678 107.689 111.489 107.585 111.399 107.215C111.35 106.985 111.378 106.727 111.468 106.448C111.559 106.169 111.657 105.911 111.747 105.681C111.936 105.214 112.117 104.761 112.305 104.322C112.493 103.883 112.702 103.451 112.932 103.032C114.327 100.244 115.847 97.5597 117.499 94.9803C119.151 92.4008 120.789 89.8075 122.414 87.2071C123.668 85.2552 124.923 83.3241 126.178 81.4209C127.433 79.5177 128.737 77.5866 130.082 75.6346C130.779 74.6586 131.595 73.4944 132.522 72.1489C133.449 70.7965 134.425 69.4161 135.45 68.0009C136.475 66.5857 137.486 65.1915 138.483 63.8181C139.48 62.4517 140.379 61.2178 141.167 60.1232C141.954 59.0287 142.84 57.8087 143.816 56.4633C144.882 55.1178 145.858 53.8838 146.744 52.7684C147.532 51.8412 148.264 50.9419 148.94 50.0844C149.616 49.2269 150.069 48.6762 150.299 48.4461C150.348 48.3973 150.543 48.2021 150.892 47.8536C151.24 47.505 151.638 47.1076 152.077 46.6684C152.516 46.2292 152.997 45.797 153.506 45.3787C154.015 44.9604 154.461 44.6607 154.831 44.4724C155.158 44.2842 155.409 44.2424 155.597 44.333C155.828 44.4236 155.897 44.6328 155.807 44.9604C155.618 45.7482 155.409 46.4454 155.179 47.0519C154.949 47.6584 154.677 48.237 154.377 48.7947C154.078 49.3524 153.75 49.9101 153.401 50.4679C153.053 51.0256 152.649 51.6739 152.181 52.4198C152.412 52.1898 152.635 51.9876 152.844 51.8273C153.053 51.6669 153.248 51.4926 153.436 51.3044C155.298 49.5895 157.075 48.1952 158.769 47.1216C160.464 46.055 161.997 45.2393 163.371 44.6816C164.744 44.1239 165.929 43.7892 166.926 43.6707C167.923 43.5522 168.634 43.5871 169.052 43.7753C169.749 44.103 170.084 44.6676 170.063 45.4833C170.042 46.299 169.798 47.2262 169.331 48.2719C168.864 49.3176 168.271 50.433 167.553 51.6181C166.835 52.8033 166.103 53.9187 165.357 54.9644C164.611 56.0101 163.942 56.9164 163.336 57.6833C162.729 58.4501 162.339 58.9521 162.151 59.1821L160.687 60.925C162.032 59.9978 163.385 59.0775 164.73 58.1713C166.075 57.265 167.498 56.4145 168.983 55.6267C169.073 55.5361 169.317 55.3966 169.715 55.2084C170.112 55.0202 170.335 54.9784 170.377 55.069Z"
        fill="#231F20" />
    <path fill-rule="evenodd" clip-rule="evenodd"
        d="M188.957 55.9055C189.445 55.3966 189.877 54.9295 190.247 54.5112C190.616 54.0929 190.763 53.835 190.665 53.7443C189.689 54.3927 188.908 54.9434 188.33 55.3826C187.751 55.8218 187.2 56.2331 186.691 56.6026C186.182 56.9721 185.876 57.1812 185.785 57.23C184.481 58.0666 183.045 59.0077 181.463 60.0534C179.88 61.0992 178.277 62.0961 176.652 63.0512C175.028 64.0062 173.397 64.794 171.772 65.4214C170.148 66.0489 168.656 66.3626 167.311 66.3626C167.778 64.7382 168.517 63.2533 169.542 61.9009C171.445 61.392 173.146 60.8203 174.631 60.1929C176.116 59.5654 177.608 58.8335 179.092 57.9969C181.184 56.742 183.066 55.2083 184.739 53.3958C185.158 52.9287 185.555 52.4686 185.924 52.0015C186.294 51.5344 186.67 51.0464 187.04 50.5375C187.828 49.3314 188.274 48.1533 188.364 47.0169C188.455 45.8806 187.946 44.9813 186.831 44.3329C186.273 44.0541 185.666 43.9286 185.018 43.9495C184.37 43.9704 183.763 44.075 183.206 44.2632C181.999 44.6327 180.835 45.1137 179.72 45.6924C178.604 46.271 177.538 46.9333 176.513 47.6792C175.446 48.4251 174.422 49.199 173.446 50.0146C172.47 50.8303 171.542 51.7017 170.657 52.6289C168.893 54.5391 167.29 56.5608 165.847 58.694C164.404 60.8342 163.546 63.2254 163.267 65.8746C163.128 67.0806 163.49 68.0496 164.348 68.7677C165.205 69.4858 166.195 69.8483 167.311 69.8483C168.614 69.7995 169.869 69.5136 171.075 68.9768C172.281 68.44 173.446 67.8475 174.561 67.1991C176.882 65.8955 179.023 64.4663 180.975 62.9117C182.927 61.3571 184.83 59.7606 186.691 58.1363C186.782 58.0457 187.061 57.7738 187.528 57.3346C187.988 56.8954 188.469 56.4144 188.957 55.9055ZM171.738 58.8335C171.996 58.464 172.351 58.0178 172.818 57.5089C174.77 55.4175 176.743 53.4376 178.744 51.5832C180.745 49.7219 182.969 48.216 185.437 47.0518C184.879 48.6761 184.098 50.1889 183.101 51.5832C182.104 52.9775 180.961 54.2324 179.685 55.3478C178.41 56.4632 177.015 57.4322 175.502 58.2409C173.99 59.0566 172.449 59.67 170.866 60.0883C171.056 59.8175 171.232 59.563 171.397 59.325C171.516 59.1525 171.63 58.9887 171.738 58.8335Z"
        fill="#231F20" />
    <path
        d="M256.612 20.909C258.425 20.7696 259.331 20.7696 259.331 20.909C259.38 20.9578 258.494 21.167 256.682 21.5365C255.845 21.7247 254.814 21.9199 253.58 22.129C252.346 22.3382 250.965 22.5822 249.432 22.861C245.339 23.5094 241.38 24.1507 237.545 24.7782C233.711 25.4056 229.633 26.047 225.311 26.6953C223.17 27.023 221.093 27.3227 219.071 27.6016C217.05 27.8804 215.084 28.1384 213.18 28.3684C211.786 30.4599 210.545 32.2933 209.451 33.8759C208.356 35.4584 207.624 36.5041 207.255 37.013C205.533 39.4321 203.804 41.8093 202.061 44.1587C200.318 46.508 198.561 48.8644 196.798 51.2346C195.313 53.1866 193.849 55.1247 192.406 57.0558C190.963 58.9868 189.547 60.9458 188.153 62.9466C189.777 61.7893 191.43 60.66 193.103 59.5655C194.776 58.4779 196.47 57.3904 198.192 56.3238C198.561 56.0937 198.938 55.8846 199.307 55.6963C199.677 55.5081 200.053 55.3269 200.423 55.1386C200.841 54.9504 201.05 54.9086 201.05 54.9992C201.05 55.1386 200.785 55.4523 200.248 55.9403C199.712 56.4283 199.098 56.9512 198.401 57.5089C197.704 58.0666 197.028 58.5895 196.379 59.0775C195.731 59.5655 195.285 59.9001 195.055 60.0883C193.849 61.0643 192.636 62.0403 191.43 63.0163C190.224 63.9923 189.011 65.0171 187.804 66.0837C187.337 66.4602 186.884 66.8506 186.445 67.2689C186.006 67.6872 185.553 68.1054 185.086 68.5237C184.709 68.8514 184.319 69.1302 183.901 69.3603C183.482 69.5903 182.994 69.6182 182.437 69.43C181.788 69.1999 181.377 68.8514 181.217 68.3843C181.056 67.9172 181.042 67.4083 181.182 66.8506C181.321 66.2929 181.544 65.7491 181.844 65.2123C182.144 64.6755 182.416 64.2293 182.646 63.8529C183.113 63.0651 183.573 62.3192 184.04 61.622C184.507 60.9249 184.995 60.2068 185.504 59.4609C187.268 56.8118 189.073 54.2323 190.907 51.7226C192.74 49.2129 194.567 46.6544 196.379 44.0541C196.888 43.357 197.578 42.4298 198.436 41.2655C199.293 40.1013 200.228 38.8465 201.224 37.501C202.221 36.1555 203.281 34.7473 204.396 33.2833C205.512 31.8193 206.578 30.4111 207.603 29.0656C206.537 29.1562 205.372 29.2747 204.118 29.4142C202.863 29.5536 201.608 29.6721 200.353 29.7627C199.098 29.8534 197.892 29.937 196.728 30.0067C195.564 30.0764 194.546 30.1113 193.66 30.1113C191.799 30.1113 190.872 29.951 190.872 29.6233C190.823 29.4839 191.032 29.3235 191.499 29.1353C191.966 28.9471 192.615 28.7379 193.451 28.5079C195.863 27.8107 198.54 27.2739 201.468 26.9044C204.396 26.535 207.304 26.0888 210.183 25.5799C211.019 24.5133 211.716 23.607 212.274 22.861C212.832 22.1151 213.18 21.6759 213.32 21.5365C215.132 19.2568 216.952 16.9841 218.792 14.7045C220.626 12.4248 222.592 10.2637 224.683 8.22109C224.732 8.17229 224.857 8.06075 225.067 7.87252C225.276 7.68429 225.485 7.53789 225.694 7.41938C225.903 7.30086 226.064 7.26601 226.182 7.31481C226.301 7.36361 226.287 7.54486 226.147 7.87252C225.541 9.218 224.878 10.5007 224.16 11.7068C223.442 12.9128 222.648 14.1816 221.79 15.5062C220.933 16.8308 219.991 18.246 218.967 19.7588C217.942 21.2716 216.806 22.9795 215.551 24.8827C217.036 24.6945 218.569 24.5202 220.152 24.3599C221.734 24.1995 223.338 24.0253 224.962 23.837C229.284 23.4187 233.377 23.0144 237.232 22.617C241.087 22.2197 245.088 21.8362 249.223 21.4668C250.805 21.3273 252.206 21.2088 253.44 21.1182C254.674 21.0206 255.727 20.9509 256.612 20.909Z"
        fill="#231F20" />
    <path
        d="M214.644 44.7511C214.693 45.26 214.595 45.7271 214.365 46.1454C214.135 46.5637 213.843 46.9471 213.494 47.2957C213.145 47.6443 212.769 47.9789 212.379 48.3066C211.981 48.6342 211.667 49.0037 211.437 49.422C210.97 50.2097 210.566 51.0463 210.217 51.9317C209.869 52.817 209.555 53.6954 209.276 54.5808C208.997 55.5568 208.733 56.498 208.475 57.4042C208.217 58.3105 207.973 59.2307 207.743 60.1579C207.276 61.7892 206.557 63.323 205.581 64.7591C204.605 66.2021 203.372 67.3176 201.887 68.1053C200.123 68.9907 198.38 69.3602 196.658 69.2208C195.731 69.0813 194.964 68.8304 194.358 68.4539C194.309 68.4539 194.169 68.3842 193.939 68.2448C193.709 68.1053 193.465 67.9659 193.207 67.8265C192.949 67.6871 192.74 67.5407 192.58 67.3733C192.419 67.213 192.357 67.0805 192.406 66.9899C192.454 66.8993 192.705 66.9341 193.172 67.0945C193.639 67.2548 193.918 67.3385 194.009 67.3385C194.615 67.5267 195.285 67.6173 196.031 67.6173C197.376 67.5267 198.561 67.0805 199.586 66.2928C200.471 65.6444 201.273 64.78 201.991 63.7134C202.709 62.6467 203.141 61.5731 203.281 60.5065C203.469 59.4399 203.643 58.3314 203.804 57.1951C203.964 56.0588 204.117 54.8876 204.257 53.6745C203.093 54.7412 201.657 55.8845 199.935 57.0905C198.213 58.2966 196.533 59.405 194.88 60.4019C193.228 61.3988 191.799 62.2145 190.593 62.8419C189.387 63.4694 188.711 63.7134 188.571 63.5739C188.481 63.4345 189.094 62.8628 190.419 61.8659C191.743 60.869 193.347 59.6351 195.229 58.1711C197.111 56.7071 199.042 55.0897 201.015 53.326C202.988 51.5622 204.585 49.8193 205.791 48.0974C206.209 47.4491 206.627 46.8077 207.045 46.1803C207.464 45.5528 207.931 44.9115 208.44 44.2631C208.949 43.7542 209.52 43.3081 210.148 42.9386C210.775 42.5691 211.458 42.3809 212.204 42.3809C212.853 42.3809 213.41 42.6109 213.877 43.078C214.345 43.5381 214.595 44.1028 214.644 44.7511Z"
        fill="#231F20" />
    <path fill-rule="evenodd" clip-rule="evenodd"
        d="M257.031 20.8745C258.265 20.7839 259.318 20.7142 260.203 20.6654C262.015 20.526 262.922 20.526 262.922 20.6654C262.971 20.7142 262.085 20.9233 260.273 21.2928C259.436 21.481 258.404 21.6762 257.17 21.8854C255.936 22.0945 254.556 22.3385 253.022 22.6174C248.93 23.2657 244.97 23.9071 241.136 24.5345C237.302 25.1619 233.224 25.8033 228.901 26.4517C226.761 26.7793 224.684 27.0791 222.662 27.3579C220.64 27.6368 218.674 27.8947 216.771 28.1248C215.377 30.2162 214.136 32.0497 213.041 33.6322C211.947 35.2147 211.215 36.2604 210.845 36.7693C209.123 39.1884 207.395 41.5657 205.652 43.915C204.397 45.6058 203.136 47.3001 201.87 49.0007C201.377 49.6631 200.883 50.3265 200.388 50.991C198.903 52.943 197.439 54.881 195.996 56.8121C194.553 58.7432 193.138 60.7022 191.744 62.7029C193.368 61.5457 195.02 60.4163 196.693 59.3218C197.059 59.0794 197.435 58.8422 197.811 58.6055C198.051 58.4541 198.29 58.3029 198.527 58.1506C198.631 58.0739 198.722 58.0042 198.82 57.9275C200.702 56.4635 202.633 54.8462 204.606 53.0824C206.579 51.3186 208.175 49.5758 209.381 47.8539C209.8 47.2055 210.218 46.5642 210.636 45.9367C211.055 45.3093 211.522 44.6679 212.031 44.0196C212.539 43.5107 213.111 43.0715 213.739 42.695C214.366 42.3255 215.049 42.1373 215.795 42.1373C216.443 42.1373 217.001 42.3674 217.468 42.8344C217.935 43.3015 218.186 43.8592 218.235 44.5076C218.277 45.0165 218.186 45.4836 217.956 45.9019C217.726 46.3202 217.433 46.7036 217.085 47.0522C216.736 47.4007 216.367 47.7353 215.969 48.063C215.572 48.3907 215.258 48.7601 215.028 49.1784C214.561 49.9662 214.157 50.8028 213.808 51.6881C213.46 52.5735 213.146 53.4519 212.867 54.3373C212.704 54.9068 212.546 55.4644 212.392 56.0102C212.281 56.3997 212.173 56.7832 212.065 57.1607C211.807 58.067 211.563 58.9872 211.333 59.9144C210.866 61.5387 210.148 63.0724 209.172 64.5155C208.196 65.9586 206.962 67.074 205.477 67.8618C203.714 68.7472 201.971 69.1166 200.249 68.9772C199.322 68.8378 198.555 68.5868 197.948 68.2104C197.906 68.2104 197.76 68.1406 197.53 68.0012C197.3 67.8618 197.056 67.7224 196.798 67.5829C196.54 67.4435 196.331 67.2901 196.171 67.1298C196.01 66.9694 195.947 66.837 195.996 66.7464C196.045 66.6557 196.296 66.6906 196.763 66.8509C197.23 67.0113 197.509 67.0949 197.6 67.0949C198.206 67.2832 198.875 67.3738 199.621 67.3738C200.967 67.2832 202.152 66.837 203.177 66.0492C204.062 65.4009 204.857 64.5364 205.582 63.4698C206.3 62.4032 206.732 61.3366 206.872 60.263C207.06 59.1963 207.234 58.0879 207.395 56.9515C207.555 55.8152 207.708 54.637 207.848 53.431C206.683 54.4976 205.247 55.6409 203.525 56.847C201.803 58.053 200.123 59.1615 198.471 60.1584C198.185 60.3327 197.92 60.493 197.649 60.6534C197.209 61.0054 196.772 61.3592 196.334 61.713C195.897 62.0668 195.46 62.4206 195.02 62.7727C193.814 63.7487 192.601 64.7735 191.395 65.8401C190.928 66.2096 190.475 66.6069 190.036 67.0252C189.597 67.4435 189.143 67.8618 188.676 68.2801C188.307 68.6077 187.909 68.8866 187.491 69.1166C187.073 69.3467 186.585 69.3746 186.027 69.1864C185.379 68.9563 184.968 68.6077 184.807 68.1406C184.647 67.6736 184.633 67.1646 184.772 66.6069C184.912 66.0492 185.135 65.5055 185.435 64.9687C185.734 64.4319 186.006 63.9857 186.236 63.6092C186.703 62.8215 187.164 62.0755 187.631 61.3784C188.098 60.6812 188.586 59.9632 189.095 59.2173C189.178 59.0918 189.264 58.968 189.349 58.8442C189.434 58.7205 189.52 58.5968 189.604 58.4713C187.958 59.8935 186.278 61.3017 184.563 62.6681C182.611 64.2227 180.471 65.6519 178.15 66.9555C177.034 67.6038 175.87 68.1964 174.664 68.7332C173.458 69.27 172.203 69.5558 170.899 69.6046C169.784 69.6046 168.794 69.2421 167.936 68.5241C167.079 67.806 166.716 66.837 166.856 65.6309C167.086 63.4628 167.713 61.469 168.717 59.6425C167.734 60.3884 166.744 61.1135 165.74 61.7967C163.51 63.3304 161.293 64.7107 159.083 65.9446C156.873 67.1786 154.844 68.0221 152.983 68.4892C152.613 68.5868 152.195 68.6914 151.728 68.8029C151.261 68.9214 150.808 69.0121 150.368 69.0818C149.929 69.1515 149.532 69.2073 149.183 69.2561C148.835 69.3049 148.591 69.3049 148.451 69.2561C148.082 69.1654 147.845 68.9563 147.754 68.6286C147.664 68.301 147.733 68.0012 147.963 67.7224C148.054 67.5829 148.368 67.3738 148.904 67.0949C149.051 67.0189 149.184 66.9495 149.304 66.8871C149.623 66.7206 149.848 66.6031 149.985 66.5372C150.034 66.4954 150.18 66.4117 150.438 66.2932C150.696 66.1747 150.975 66.0353 151.275 65.8749C151.425 65.7947 151.576 65.7128 151.728 65.6308C151.88 65.5489 152.031 65.4671 152.181 65.3869C152.481 65.2266 152.725 65.0732 152.913 64.9338C153.798 64.3343 154.705 63.6232 155.632 62.8075C156.559 61.9919 157.458 61.1553 158.316 60.2978C159.173 59.4403 160.01 58.5759 160.826 57.7184C161.641 56.8609 162.373 56.0592 163.022 55.3133C164.088 53.919 165.134 52.3992 166.159 50.747C167.183 49.0948 168.02 47.5262 168.668 46.0413C167.462 46.2295 166.11 46.7733 164.625 47.6796C163.14 48.5859 161.578 49.7222 159.954 51.0956C158.33 52.4689 156.678 54.0026 155.004 55.6967C153.331 57.3907 151.742 59.1057 150.229 60.8207C148.716 62.5426 147.315 64.2227 146.011 65.8749C144.708 67.5272 143.62 68.9981 142.735 70.3018C140.832 73.0903 138.949 75.844 137.088 78.5629C135.227 81.2817 133.323 84.0354 131.371 86.824C129.419 89.6544 127.433 92.5057 125.411 95.364C123.389 98.2222 121.284 100.997 119.102 103.695C118.868 103.974 118.636 104.253 118.404 104.532C118.173 104.81 117.941 105.089 117.707 105.368C117.24 105.926 116.731 106.435 116.174 106.902C116.034 106.992 115.825 107.125 115.546 107.285C115.267 107.445 115.079 107.341 114.989 106.971C114.94 106.741 114.968 106.483 115.058 106.204C115.149 105.926 115.247 105.668 115.337 105.438L115.392 105.302C115.561 104.882 115.725 104.475 115.895 104.078C116.083 103.639 116.292 103.207 116.522 102.789C117.917 100 119.436 97.316 121.089 94.7365C122.741 92.1571 124.379 89.5638 126.003 86.9634C127.258 85.0114 128.513 83.0873 129.768 81.1772C131.023 79.267 132.326 77.3429 133.672 75.3909C134.369 74.4149 135.185 73.2507 136.112 71.9052C137.039 70.5597 138.015 69.1724 139.04 67.7572C140.065 66.342 141.076 64.9477 142.073 63.5744C142.446 63.0598 142.806 62.5658 143.151 62.0916C143.728 61.3002 144.264 60.564 144.756 59.8795C145.498 58.8486 146.327 57.7064 147.236 56.4529L147.406 56.2195C147.847 55.6627 148.273 55.1249 148.683 54.6068C149.265 53.873 149.815 53.1785 150.334 52.5247C151.121 51.5975 151.853 50.6982 152.53 49.8407C153.206 48.9832 153.659 48.4325 153.889 48.2024L154.482 47.6099L155.667 46.4247C156.106 45.9855 156.587 45.5533 157.096 45.135C157.605 44.7167 158.051 44.417 158.42 44.2287C158.748 44.0405 158.999 43.9987 159.187 44.0893C159.417 44.1799 159.487 44.3891 159.396 44.7167C159.208 45.5045 158.999 46.2016 158.769 46.8082C158.539 47.4147 158.267 47.9933 157.967 48.551C157.668 49.1087 157.34 49.6664 156.991 50.2241C156.881 50.4006 156.765 50.5869 156.643 50.7825C156.381 51.205 156.091 51.671 155.771 52.1761C156.001 51.9461 156.224 51.7439 156.434 51.5836C156.643 51.4232 156.838 51.2489 157.026 51.0607C158.888 49.3457 160.665 47.9515 162.359 46.8779C164.053 45.8112 165.587 44.9956 166.96 44.4379C168.334 43.8802 169.519 43.5455 170.516 43.427C171.513 43.3085 172.224 43.3434 172.642 43.5316C173.339 43.8592 173.674 44.4239 173.653 45.2396C173.632 46.0552 173.388 46.9824 172.921 48.0281C172.454 49.0739 171.861 50.1893 171.143 51.3744C170.425 52.5596 169.693 53.675 168.947 54.7207C168.201 55.7664 167.532 56.6727 166.926 57.4395C166.688 57.7405 166.483 58.0007 166.31 58.2196C166.044 58.5585 165.855 58.7986 165.74 58.9384L164.276 60.6812C165.622 59.754 166.974 58.8338 168.32 57.9275C169.184 57.3489 170.084 56.7982 171.004 56.2683C172.015 54.9298 173.095 53.6262 174.246 52.3853C175.131 51.4581 176.058 50.5867 177.034 49.771C178.01 48.9553 179.035 48.1815 180.101 47.4356C181.126 46.6896 182.193 46.0274 183.308 45.4487C184.424 44.8701 185.588 44.3891 186.794 44.0196C187.352 43.8314 187.958 43.7268 188.607 43.7059C189.255 43.685 189.861 43.8104 190.419 44.0893C191.535 44.7376 192.044 45.637 191.953 46.7733C191.862 47.9096 191.416 49.0878 190.628 50.2939C190.259 50.8028 189.882 51.2908 189.513 51.7578C189.143 52.2249 188.746 52.685 188.328 53.1521C186.655 54.9647 184.772 56.4984 182.681 57.7533C181.196 58.5898 179.704 59.3218 178.219 59.9492C176.734 60.5767 175.033 61.1483 173.13 61.6572C172.105 63.0097 171.366 64.4946 170.899 66.1189C172.245 66.1189 173.737 65.8052 175.361 65.1778C176.985 64.5504 178.617 63.7626 180.241 62.8075C181.865 61.8524 183.469 60.8555 185.051 59.8098C186.634 58.7641 188.07 57.823 189.373 56.9864C189.464 56.9376 189.771 56.7354 190.28 56.359C190.768 56.0034 191.291 55.613 191.841 55.1947C192.72 53.9399 193.605 52.699 194.497 51.479C196.331 48.9693 198.157 46.4108 199.97 43.8104C200.267 43.4029 200.627 42.9168 201.045 42.3507C201.343 41.9484 201.67 41.5056 202.027 41.0219C202.607 40.2338 203.223 39.4042 203.869 38.533C204.178 38.1172 204.493 37.692 204.815 37.2573C205.812 35.9118 206.872 34.5036 207.987 33.0396C208.572 32.2714 209.144 31.5185 209.704 30.782C210.21 30.1149 210.707 29.4614 211.194 28.8219C210.127 28.9126 208.963 29.0311 207.708 29.1705C206.453 29.3099 205.199 29.4284 203.944 29.5191C202.689 29.6097 201.483 29.6934 200.319 29.7631C199.154 29.8328 198.137 29.8676 197.251 29.8676C195.39 29.8676 194.463 29.7073 194.463 29.3796C194.414 29.2402 194.623 29.0799 195.09 28.8916C195.557 28.7034 196.205 28.4943 197.042 28.2642C199.454 27.5671 202.131 27.0303 205.059 26.6608C207.987 26.2913 210.894 25.8451 213.773 25.3362C214.61 24.2696 215.307 23.3633 215.865 22.6174C216.423 21.8714 216.771 21.4322 216.91 21.2928C218.723 19.0132 220.55 16.7405 222.383 14.4608C224.217 12.1812 226.182 10.0201 228.274 7.97744C228.313 7.9382 228.402 7.85842 228.544 7.73083C228.579 7.69972 228.616 7.66577 228.657 7.62887C228.866 7.44064 229.076 7.29424 229.285 7.17573C229.494 7.05721 229.654 7.02235 229.773 7.07115C229.891 7.11995 229.877 7.30121 229.738 7.62887C229.131 8.97435 228.469 10.2571 227.751 11.4631C227.033 12.6692 226.238 13.938 225.381 15.2626C224.523 16.5871 223.582 18.0023 222.557 19.5151C221.533 21.0279 220.396 22.7359 219.141 24.6391C220.626 24.4509 222.16 24.2766 223.742 24.1162C225.325 23.9559 226.928 23.7816 228.553 23.5934C232.875 23.1751 236.967 22.7708 240.822 22.3734C244.678 21.976 248.679 21.5926 252.813 21.2231C254.396 21.0837 255.797 20.9652 257.031 20.8745ZM176.406 57.2654C175.939 57.7743 175.584 58.2205 175.326 58.59C175.217 58.7452 175.104 58.909 174.985 59.0815C174.82 59.3195 174.644 59.574 174.454 59.8448C176.037 59.4266 177.577 58.8131 179.09 57.9974C180.603 57.1818 181.997 56.2197 183.273 55.1043C184.549 53.9889 185.692 52.734 186.689 51.3397C187.686 49.9454 188.467 48.4327 189.025 46.8083C186.564 47.9725 184.333 49.4784 182.332 51.3397C180.331 53.2011 178.358 55.174 176.406 57.2654Z"
        fill="url(#paint1_linear_2646_46558)" />
</svg>
