<svg width="182" height="219" viewBox="0 0 182 219" fill="none" xmlns="http://www.w3.org/2000/svg">
<g opacity="0.5" clip-path="url(#clip0_1463_121704)">
<path d="M78.7293 153.35C78.9027 152.775 79.105 152.21 79.3355 151.656C79.3355 151.656 82.2108 146.52 84.6406 143.761L89.8472 136.351C83.2314 134.99 70.093 134.389 65.0884 134.203C63.9541 136.294 62.6328 138.278 61.1407 140.131V140.131C61.1407 140.131 62.0939 147.059 58.944 158.657C58.944 158.657 55.2139 167.604 60.1097 176.385L71.9374 207.611C77.3098 189.748 82.6771 195.615 82.6771 195.615" stroke="#00FFC8" stroke-width="0.5" stroke-linecap="round" stroke-linejoin="round"/>
<path d="M71.9375 207.627L74.8594 215.337C74.8594 215.337 75.3775 216.548 79.3356 216.331L84.6407 216.382C84.6407 216.382 86.2985 216.331 85.6354 213.845L78.3409 168.971C78.3409 168.971 78.0871 167.832 77.885 166.03L77.8591 166.397C67.2852 158.243 75.6055 144.392 75.6055 144.392C77.5009 141.531 78.9638 138.407 79.9469 135.119" stroke="#00FFC8" stroke-width="0.5" stroke-linecap="round" stroke-linejoin="round"/>
<path d="M139.562 202.584C141.872 208.461 143.929 213.271 145.095 215.01C145.095 215.01 146.204 217.33 147.747 216.998L155.819 217.03C155.819 217.03 158.358 217.107 157.373 214.348C156.715 212.525 152.975 199.565 150.224 188.459" stroke="#00FFC8" stroke-width="0.5" stroke-linecap="round" stroke-linejoin="round"/>
<path d="M146.245 160.469C146.262 159.976 146.321 159.486 146.421 159.004C147.198 155.799 147.198 155.799 148.965 151.895C148.965 151.895 157.746 137.433 158.912 134.368C158.912 134.368 163.663 118.794 161.456 112.28C161.456 112.28 158.643 106.01 154.98 102.231C155.985 110.127 154.358 116.438 152.068 121.15C148.727 128.026 144.349 131.65 144.349 131.65C146.198 136.657 148.064 143.61 145.556 150.025M132.962 138.79C132.221 145.234 130.614 151.549 128.185 157.564C128.185 157.564 125.864 162.535 127.522 169.607C127.522 169.607 134.21 188.956 139.562 202.584C145.613 186.015 150.214 188.459 150.214 188.459C148.799 182.764 147.623 177.54 147.307 174.578C147.307 174.578 147.001 172.295 146.717 169.442C136.246 166.998 144.577 152.107 144.577 152.107C144.953 151.441 145.28 150.749 145.556 150.036M153.306 118.266C156.353 123.749 159.005 131.055 156.886 137.884" stroke="#00FFC8" stroke-width="0.5" stroke-linecap="round" stroke-linejoin="round"/>
<path d="M13.3896 94.0033C12.3299 93.5951 11.2044 93.3846 10.0688 93.382C7.59553 93.382 5.22359 94.3638 3.47474 96.1116C1.7259 97.8594 0.743408 100.23 0.743408 102.702C0.743408 105.174 1.7259 107.544 3.47474 109.292C5.22359 111.04 7.59553 112.022 10.0688 112.022C12.3811 112.017 14.6094 111.154 16.3211 109.601C18.0328 108.047 19.1059 105.913 19.3319 103.613C16.6269 100.918 14.5917 97.6266 13.3896 94.0033Z" stroke="#00FFC8" stroke-width="0.5" stroke-linecap="round" stroke-linejoin="round"/>
<path d="M19.3321 103.587C22.9856 107.229 27.7025 109.617 32.802 110.406C32.843 107.569 33.1904 104.745 33.8382 101.982C29.7423 101.816 25.8694 100.073 23.0303 97.1182C20.1912 94.163 18.6061 90.2248 18.6068 86.1281C18.6061 84.045 19.0161 81.9822 19.8132 80.0575C20.6104 78.1327 21.7792 76.3838 23.2528 74.9106C24.7264 73.4374 26.476 72.2688 28.4016 71.4715C30.3272 70.6741 32.3911 70.2638 34.4754 70.2638C38.6809 70.2706 42.7119 71.945 45.6832 74.9194C48.6545 77.8938 50.3234 81.925 50.3234 86.1281L48.4065 88.0386C48.7536 88.2457 49.0903 88.4631 49.4426 88.6806C52.281 85.0654 56.0153 82.2543 60.2756 80.5258C58.9845 75.2128 55.9452 70.4873 51.6453 67.1072C47.3453 63.7272 42.0339 61.8884 36.5633 61.8862C30.0903 61.8862 23.8824 64.4562 19.3052 69.0305C14.7281 73.6049 12.1567 79.8091 12.1567 86.2782C12.1577 88.8966 12.5793 91.4977 13.4053 93.9825" stroke="#00FFC8" stroke-width="0.5" stroke-linecap="round" stroke-linejoin="round"/>
<path d="M60.3584 99.4294C63.7267 104.076 66.5107 109.119 68.6476 114.445" stroke="#00FFC8" stroke-width="0.5" stroke-linecap="round" stroke-linejoin="round"/>
<path d="M141.168 105.601C125.211 91.4456 123.875 67.8044 123.875 67.8044C122.02 67.965 119.984 67.9546 119.212 67.2867C119.212 67.2867 119.367 66.7275 119.668 65.8162L120.222 64.0403C113.202 66.3495 108.85 73.1684 108.85 73.1684C108.85 73.1684 101.887 82.1154 89.9509 80.1272C89.9509 80.1272 65.0833 77.1449 60.4207 80.4586" stroke="#00FFC8" stroke-width="0.5" stroke-linecap="round" stroke-linejoin="round"/>
<path d="M113.87 91.0054C120.45 91.5904 134.438 94.956 131.283 113.243C133.07 115.579 134.293 117.251 134.293 117.251C134.862 118.103 135.368 118.996 135.806 119.923" stroke="#00FFC8" stroke-width="0.5" stroke-linecap="round" stroke-linejoin="round"/>
<path d="M113.87 91.0054C112.787 90.9025 111.699 90.8697 110.612 90.907C100.333 90.2443 103.426 77.6677 103.426 77.6677" stroke="#00FFC8" stroke-width="0.5" stroke-linecap="round" stroke-linejoin="round"/>
<path d="M113.99 97.5656C115.963 97.6758 117.917 98.0234 119.807 98.6011" stroke="#00FFC8" stroke-width="0.5" stroke-linecap="round" stroke-linejoin="round"/>
<path d="M113.99 97.5655C111.08 97.3909 108.161 97.6015 105.307 98.192C90.0545 98.5233 95.0073 80.355 95.0073 80.355" stroke="#00FFC8" stroke-width="0.5" stroke-linecap="round" stroke-linejoin="round"/>
<path d="M103.908 130.35C103.458 127.852 103.152 125.33 102.991 122.796C102.816 120.371 102.806 117.937 102.96 115.511C104.729 109.331 108.104 103.729 112.741 99.274C113.336 98.7815 114.051 98.4563 114.813 98.3318" stroke="#00FFC8" stroke-width="0.5" stroke-linecap="round" stroke-linejoin="round"/>
<path d="M58.4985 97.0011C59.1409 97.7812 59.754 98.5682 60.3377 99.3621" stroke="#00FFC8" stroke-width="0.5" stroke-linecap="round" stroke-linejoin="round"/>
<path d="M60.4362 80.4689L60.26 80.5309" stroke="#00FFC8" stroke-width="0.5" stroke-linecap="round" stroke-linejoin="round"/>
<path d="M89.8472 136.351C90.7851 136.525 91.7057 136.781 92.5981 137.118C96.9294 138.695 101.367 139.965 105.876 140.918C105.602 138.07 105.198 135.958 105.198 135.958C104.654 134.027 104.234 132.137 103.908 130.335" stroke="#00FFC8" stroke-width="0.5" stroke-linecap="round" stroke-linejoin="round"/>
<path d="M133.868 132.799C132.977 135.217 131.972 137.672 131.019 139.877C131.257 139.743 131.495 139.603 131.723 139.453C131.723 139.453 132.2 139.204 132.962 138.79C132.962 138.79 138.298 139.142 144.359 131.65" stroke="#00FFC8" stroke-width="0.5" stroke-linecap="round" stroke-linejoin="round"/>
<path d="M154.98 102.231C154.187 95.9657 151.736 88.7118 146.644 80.4845C142.442 73.6862 138.401 69.3317 134.63 66.7067C134.24 66.7074 133.851 66.6883 133.464 66.6497C133.464 66.6497 132.117 66.7378 130.682 66.8724" stroke="#00FFC8" stroke-width="0.5" stroke-linecap="round" stroke-linejoin="round"/>
<path d="M149.732 86.299C151.529 91.9944 152.115 96.4989 152.058 99.9783" stroke="#00FFC8" stroke-width="0.5" stroke-linecap="round" stroke-linejoin="round"/>
<path d="M130.34 66.8879C129.383 66.9543 128.433 67.0909 127.496 67.2969C127.496 67.2969 125.776 67.6334 123.869 67.8146" stroke="#00FFC8" stroke-width="0.5" stroke-linecap="round" stroke-linejoin="round"/>
<path d="M32.828 110.406C32.7773 114.201 33.1351 117.99 33.8952 121.709C34.5303 117.987 35.3867 114.306 36.4597 110.686" stroke="#00FFC8" stroke-width="0.5" stroke-linecap="round" stroke-linejoin="round"/>
<path d="M33.9004 121.724C34.4938 124.704 35.2724 127.644 36.2318 130.527C36.2318 130.527 40.2106 147.426 35.5686 155.379C35.5686 155.379 30.2635 162.338 31.5898 168.323C31.5898 168.323 31.5898 172.631 38.2212 186.88L52.2092 216.424C52.3818 216.806 52.6617 217.13 53.0148 217.356C53.368 217.582 53.7792 217.701 54.1986 217.697C57.9288 217.615 64.9228 218.008 64.3944 216.041C64.3944 216.041 52.3491 174.728 52.4786 164.347C52.4786 164.347 50.9244 150.041 57.4521 144.154C58.7904 142.945 60.0243 141.625 61.1408 140.209M48.9091 209.356C53.9603 190.96 59.0115 198.157 59.0115 198.157M36.5478 132.069C36.9882 129.02 37.604 125.998 38.3921 123.019L36.5478 132.069ZM52.5719 166.382C48.2667 163.058 47.0958 158.791 47.2202 154.903L52.5719 166.382ZM55.271 132.276C54.753 135.777 53.2557 139.795 50.3234 144.377C50.3234 144.377 47.4015 149.244 47.215 154.903L55.271 132.276Z" stroke="#00FFC8" stroke-width="0.5" stroke-linecap="round" stroke-linejoin="round"/>
<path d="M65.0884 134.218C65.7045 133.084 66.258 131.918 66.7462 130.723" stroke="#00FFC8" stroke-width="0.5" stroke-linecap="round" stroke-linejoin="round"/>
<path d="M63.3735 119.659C64.8455 123.23 65.9748 126.933 66.7462 130.718C68.745 125.942 69.5385 120.748 69.0568 115.594C69.0568 115.594 68.9169 115.185 68.6268 114.46" stroke="#00FFC8" stroke-width="0.5" stroke-linecap="round" stroke-linejoin="round"/>
<path d="M43.9924 99.2999C44.4055 99.2951 44.8154 99.3708 45.1995 99.5226C45.1995 99.5226 48.6551 100.641 52.9033 104.415" stroke="#00FFC8" stroke-width="0.5" stroke-linecap="round" stroke-linejoin="round"/>
<path d="M58.4985 97.0012C55.9172 93.7888 52.866 90.9838 49.4478 88.6807" stroke="#00FFC8" stroke-width="0.5" stroke-linecap="round" stroke-linejoin="round"/>
<path d="M169.014 46.6692L169.19 47.0005C186.655 44.2357 171.62 23.4733 171.62 23.4733C167.196 16.9339 160.953 12.0824 155.389 8.66516" stroke="#00FFC8" stroke-width="0.5" stroke-linecap="round" stroke-linejoin="round"/>
<path d="M156.788 23.8253C155.529 18.9997 154.881 15.365 154.881 15.365C154.166 11.3368 154.596 9.45724 155.399 8.66506C152.426 6.84997 149.327 5.24946 146.126 3.87573" stroke="#00FFC8" stroke-width="0.5" stroke-linecap="round" stroke-linejoin="round"/>
<path d="M128.75 44.6602C129.325 39.933 132.314 36.1016 140.018 35.3094" stroke="#00FFC8" stroke-width="0.5" stroke-linecap="round" stroke-linejoin="round"/>
<path d="M103.296 42.6617C108.073 40.4819 114.399 39.1357 120.559 42.5271C121.676 43.2266 122.857 43.8178 124.087 44.2926" stroke="#00FFC8" stroke-width="0.5" stroke-linecap="round" stroke-linejoin="round"/>
<path d="M122.497 27.8379C120.571 27.8424 118.655 28.1018 116.798 28.6094C102.115 31.9231 92.5777 15.0751 92.5777 15.0751C90.4794 21.9251 103.188 42.47 103.188 42.47L97.2196 45.8925C93.9609 47.715 95.6654 49.1544 95.6654 49.1544C103.437 60.5039 120.217 64.0454 120.217 64.0454L120.3 64.0143C121.802 60.0016 124.823 53.4518 129.18 51.1633C128.726 49.1903 128.564 47.1617 128.698 45.1417C127.117 45.1898 125.545 44.8984 124.087 44.2874" stroke="#00FFC8" stroke-width="0.5" stroke-linecap="round" stroke-linejoin="round"/>
<path d="M136.469 28.7855C133.477 25.9636 130.142 23.5283 126.542 21.5368C123.806 20.2677 121.517 18.2019 119.976 15.6103C118.435 13.0186 117.714 10.0221 117.906 7.01343C117.077 8.39586 117.689 10.8811 117.689 10.8811C117.575 12.9522 106.524 13.0868 106.524 13.0868C94.9191 12.7554 92.5981 15.0751 92.5981 15.0751" stroke="#00FFC8" stroke-width="0.5" stroke-linecap="round" stroke-linejoin="round"/>
<path d="M148.126 27.4651C144.888 19.4864 144.183 11.5438 144.313 8.66505C144.499 4.44008 146.11 3.8809 146.126 3.87572C143.94 2.93856 142.572 2.48296 142.572 2.48296C133.008 -1.21389 132.153 2.18274 132.153 2.18274C131.381 3.28558 130.853 11.7614 130.853 11.7614L128.656 10.7259C119.139 3.99492 117.922 7.02377 117.922 7.02377" stroke="#00FFC8" stroke-width="0.5" stroke-linecap="round" stroke-linejoin="round"/>
<path d="M122.496 27.838C125.896 27.7665 129.275 28.3855 132.428 29.6573C135.581 30.9291 138.444 32.8272 140.841 35.2369H141.033C132.096 24.9903 131.19 11.7717 131.19 11.7717" stroke="#00FFC8" stroke-width="0.5" stroke-linecap="round" stroke-linejoin="round"/>
<path d="M148.177 70.0307C159.202 71.3251 170.517 69.4197 170.517 69.4197C172.944 69.0311 175.14 67.754 176.677 65.8368C177.013 65.438 177.328 65.0214 177.62 64.5889C177.91 64.1592 178.174 63.714 178.423 63.2636C179.902 60.3909 180.855 57.2765 181.236 54.068C181.24 53.6356 181.14 53.2086 180.944 52.8229C180.749 52.4372 180.463 52.1043 180.112 51.852L179.879 51.6811C179.464 51.4058 179.019 51.1799 178.552 51.008C178.277 50.9025 177.997 50.8109 177.713 50.7335C177.526 50.6817 177.345 50.6403 177.169 50.5989C176.91 50.5368 176.651 50.4903 176.428 50.454L176.008 50.3918L175.822 50.3659L175.527 50.335H175.268C170.543 53.6228 166.108 52.7011 162.73 50.7905" stroke="#00FFC8" stroke-width="0.5" stroke-linecap="round" stroke-linejoin="round"/>
<path d="M180.951 52.8461C181.511 57.5733 174.076 58.236 165.15 57.3558" stroke="#00FFC8" stroke-width="0.5" stroke-linecap="round" stroke-linejoin="round"/>
<path d="M130.268 141.586C130.511 141.037 130.786 140.468 131.019 139.877C130.894 139.945 130.77 140.017 130.646 140.079C130.545 140.588 130.419 141.09 130.268 141.586V141.586Z" stroke="#00FFC8" stroke-width="0.5" stroke-linecap="round" stroke-linejoin="round"/>
<path d="M105.876 140.949C106.234 144.599 106.395 149.451 105.198 152.609C105.198 152.609 100.893 161.779 100.893 163.658C100.893 165.538 103.431 186.958 123.102 216.398C123.102 216.398 124.455 218.303 125.118 218.251H133.355C133.355 218.251 136.339 218.443 135.562 215.932C134.785 213.421 123.988 186.419 123.543 181.552C123.543 181.552 120.227 165.201 122.217 159.459C122.217 159.459 126.087 149.824 127.496 147.587C127.496 147.587 128.724 145.086 130.267 141.607M114.161 201.362C120.212 184.793 126.263 190.856 126.263 190.856M121.994 171.399C116.046 170.089 116.031 164.849 117.176 160.464L121.994 171.399ZM122.294 142.342C122.611 146.411 121.719 150.483 119.73 154.048C118.641 156.09 117.785 158.247 117.176 160.479L122.294 142.342Z" stroke="#00FFC8" stroke-width="0.5" stroke-linecap="round" stroke-linejoin="round"/>
<path d="M133.868 132.799C135.521 128.3 136.749 123.956 136.365 121.724C136.31 121.091 136.119 120.476 135.806 119.923" stroke="#00FFC8" stroke-width="0.5" stroke-linecap="round" stroke-linejoin="round"/>
<path d="M172.89 49.6671C171.46 49.089 170.191 48.1741 169.191 47.0005L169.144 47.0264V47.0782H169.087" stroke="#00FFC8" stroke-width="0.5" stroke-linecap="round" stroke-linejoin="round"/>
<path d="M138.168 65.1119C137.724 65.4446 137.24 65.7211 136.728 65.9352L135.692 66.5305L135.562 66.3235C135.187 66.4166 134.806 66.4857 134.422 66.5305L134.619 66.6704C135.011 66.667 135.403 66.6359 135.79 66.5772C139.225 68.379 143.395 69.4042 147.638 69.9427C149.322 57.7079 162.502 57.2833 164.813 57.3041C161.367 56.952 157.71 56.372 154.213 55.7145" stroke="#00FFC8" stroke-width="0.5" stroke-linecap="round" stroke-linejoin="round"/>
<path d="M135.573 66.3442C135.967 66.2366 136.353 66.0998 136.728 65.9352L138.173 65.0913C138.875 64.5435 139.46 63.8603 139.893 63.0823" stroke="#00FFC8" stroke-width="0.5" stroke-linecap="round" stroke-linejoin="round"/>
<path d="M139.888 63.103C140.5 61.9986 140.854 60.7702 140.924 59.5097C140.86 58.5282 140.65 57.5616 140.303 56.6413V56.6413C139.495 54.538 138.063 52.7315 136.199 51.4636C136.199 51.4636 138.173 52.0849 143.168 53.2603C143.424 53.9386 143.818 54.5571 144.323 55.0776V55.0776C144.631 55.3874 144.999 55.6318 145.404 55.7964C145.809 55.9609 146.243 56.0422 146.68 56.0354V56.0354C147.559 55.9851 148.389 55.617 149.017 54.9999L149.726 54.71L153.55 55.5643" stroke="#00FFC8" stroke-width="0.5" stroke-linecap="round" stroke-linejoin="round"/>
<path d="M169.097 47.0523L168.999 47.0057C166.488 47.0533 163.979 46.8399 161.513 46.3689C160.577 46.2135 159.668 46.0288 158.788 45.8148" stroke="#00FFC8" stroke-width="0.5" stroke-linecap="round" stroke-linejoin="round"/>
<path d="M169.144 47.0264L169.191 47.0005H169.134L169.144 47.0264Z" stroke="#00FFC8" stroke-width="0.5" stroke-linecap="round" stroke-linejoin="round"/>
<path d="M162.539 50.656C160.175 49.223 158.1 47.3617 156.42 45.1676L156.55 45.2039C152.396 43.9691 148.524 41.9339 145.152 39.2133C143.884 38.2242 142.689 37.1444 141.577 35.9825C139.436 35.5197 137.201 35.8012 135.241 36.7803C133.282 37.7595 131.716 39.3777 130.801 41.3673C130.801 41.3673 127.734 47.0006 136.189 51.4741L143.157 53.2707C142.733 52.172 142.483 51.0137 142.416 49.8379C141.577 40.4715 144.644 41.9471 144.644 41.9471C147.478 42.9154 150.172 47.0783 150.224 50.8269C150.224 50.8269 151.006 53.4156 151.851 54.6117" stroke="#00FFC8" stroke-width="0.5" stroke-linecap="round" stroke-linejoin="round"/>
<path d="M169.134 47.0005H169.191H169.128H169.134Z" stroke="#00FFC8" stroke-width="0.5" stroke-linecap="round" stroke-linejoin="round"/>
<path d="M141.033 35.2266C142.297 36.6727 143.684 38.0067 145.178 39.2133C149.97 42.8827 155.58 45.3379 161.528 46.3689C163.993 46.7753 166.486 46.9847 168.983 46.9954L168.724 46.8815C163.029 45.5301 157.934 42.3511 154.218 37.8309" stroke="#00FFC8" stroke-width="0.5" stroke-linecap="round" stroke-linejoin="round"/>
<path d="M155.389 8.66516L155.394 8.67039L155.389 8.66516Z" stroke="#00FFC8" stroke-width="0.5" stroke-linecap="round" stroke-linejoin="round"/>
<path d="M168.999 47.0056H168.968H168.999Z" stroke="#00FFC8" stroke-width="0.5" stroke-linecap="round" stroke-linejoin="round"/>
<path d="M169.103 47.0525L169.144 47.0264L169.103 47.0525Z" stroke="#00FFC8" stroke-width="0.5" stroke-linecap="round" stroke-linejoin="round"/>
<path d="M140.842 35.2368L140.018 35.3094L141.572 35.9824C141.339 35.7235 141.09 35.4802 140.842 35.2368Z" stroke="#00FFC8" stroke-width="0.5" stroke-linecap="round" stroke-linejoin="round"/>
<path d="M146.116 3.87585H146.11H146.116Z" stroke="#00FFC8" stroke-width="0.5" stroke-linecap="round" stroke-linejoin="round"/>
<path d="M169.108 46.9282L169.192 47.0013L169.103 46.9177L169.108 46.9282Z" stroke="#00FFC8" stroke-width="0.5" stroke-linecap="round" stroke-linejoin="round"/>
<path d="M165.108 43.7903C164.68 43.2481 164.278 42.6847 163.906 42.1024" stroke="#00FFC8" stroke-width="0.5" stroke-linecap="round" stroke-linejoin="round"/>
<path d="M148.125 27.4652C149.607 31.2139 151.666 34.7079 154.228 37.8205" stroke="#00FFC8" stroke-width="0.5" stroke-linecap="round" stroke-linejoin="round"/>
<path d="M169.108 46.9177L169.02 46.6743" stroke="#00FFC8" stroke-width="0.5" stroke-linecap="round" stroke-linejoin="round"/>
<path d="M156.788 23.8253C158.301 29.6191 160.694 37.1267 163.906 42.1025" stroke="#00FFC8" stroke-width="0.5" stroke-linecap="round" stroke-linejoin="round"/>
<path d="M168.709 46.8814L169.128 46.985V46.9281C167.776 45.7735 166.44 44.7327 165.129 43.7904C166.073 45.0777 167.297 46.1345 168.709 46.8814V46.8814Z" stroke="#00FFC8" stroke-width="0.5" stroke-linecap="round" stroke-linejoin="round"/>
<path d="M136.21 51.4741C133.583 49.9571 131.242 50.0916 129.19 51.1686" stroke="#00FFC8" stroke-width="0.5" stroke-linecap="round" stroke-linejoin="round"/>
<path d="M130.34 66.8879L130.682 66.8568" stroke="#00FFC8" stroke-width="0.5" stroke-linecap="round" stroke-linejoin="round"/>
<path d="M172.89 49.667C173.652 49.9804 174.451 50.1978 175.268 50.3142L172.89 49.667Z" stroke="#00FFC8" stroke-width="0.5" stroke-linecap="round" stroke-linejoin="round"/>
<path d="M162.539 50.6559L162.73 50.7698" stroke="#00FFC8" stroke-width="0.5" stroke-linecap="round" stroke-linejoin="round"/>
<path d="M158.788 45.8148L156.55 45.2039C157.275 45.4265 158.021 45.6336 158.788 45.8148Z" stroke="#00FFC8" stroke-width="0.5" stroke-linecap="round" stroke-linejoin="round"/>
<path d="M164.823 57.3248L165.15 57.3558H165.181L164.823 57.3248Z" stroke="#00FFC8" stroke-width="0.5" stroke-linecap="round" stroke-linejoin="round"/>
<path d="M131.283 113.244L127.708 108.677C124.393 104.535 120.673 100.248 118.689 99.0463C118.689 99.0463 116.855 98.1558 116.098 98.218C115.687 98.227 115.278 98.2721 114.875 98.3526" stroke="#00FFC8" stroke-width="0.5" stroke-linecap="round" stroke-linejoin="round"/>
<path d="M127.693 108.656C128.988 110.271 130.226 111.861 131.267 113.223C130.231 104.255 125.164 100.242 119.792 98.5699" stroke="#00FFC8" stroke-width="0.5" stroke-linecap="round" stroke-linejoin="round"/>
<path d="M60.3583 99.4294L60.3169 99.3673V99.5227C60.3327 99.4925 60.3466 99.4613 60.3583 99.4294Z" stroke="#00FFC8" stroke-width="0.5" stroke-linecap="round" stroke-linejoin="round"/>
<path d="M141.168 105.601C143.373 107.561 145.79 109.268 148.374 110.691C148.374 110.691 151.934 108.019 152.058 99.9783" stroke="#00FFC8" stroke-width="0.5" stroke-linecap="round" stroke-linejoin="round"/>
<path d="M152.068 121.15C149.752 108.982 136.365 121.724 136.365 121.724" stroke="#00FFC8" stroke-width="0.5" stroke-linecap="round" stroke-linejoin="round"/>
<path d="M130.273 141.591V141.586V141.591Z" stroke="#00FFC8" stroke-width="0.5" stroke-linecap="round" stroke-linejoin="round"/>
<path d="M130.646 140.079C133.314 127.202 120.559 113.243 120.559 113.243C108.876 101.335 103.022 122.687 102.991 122.796" stroke="#00FFC8" stroke-width="0.5" stroke-linecap="round" stroke-linejoin="round"/>
<path d="M106.742 125.38C108.892 122.6 112.042 120.487 115.419 124.862C117.719 127.963 119.529 131.398 120.787 135.047" stroke="#00FFC8" stroke-width="0.5" stroke-linecap="round" stroke-linejoin="round"/>
<path d="M66.7463 130.723H66.7516V130.718L66.7463 130.723Z" stroke="#00FFC8" stroke-width="0.5" stroke-linecap="round" stroke-linejoin="round"/>
<path d="M43.9924 99.3C40.7181 99.3725 38.1796 105.058 36.4751 110.691H36.5632" stroke="#00FFC8" stroke-width="0.5" stroke-linecap="round" stroke-linejoin="round"/>
<path d="M63.3735 119.659C60.3013 112.28 56.3329 107.476 52.8877 104.416" stroke="#00FFC8" stroke-width="0.5" stroke-linecap="round" stroke-linejoin="round"/>
<path d="M42.1169 114.455C43.0547 113.394 44.1115 112.876 45.2927 113.244C45.2927 113.244 54.4679 117.619 55.4211 127.622" stroke="#00FFC8" stroke-width="0.5" stroke-linecap="round" stroke-linejoin="round"/>
<path d="M106.742 125.38C105.599 126.916 104.647 128.585 103.908 130.35" stroke="#00FFC8" stroke-width="0.5" stroke-linecap="round" stroke-linejoin="round"/>
<path d="M122.294 142.326C122.11 139.855 121.603 137.418 120.787 135.078" stroke="#00FFC8" stroke-width="0.5" stroke-linecap="round" stroke-linejoin="round"/>
<path d="M146.716 169.442L146.841 169.478L146.245 160.469C146.208 163.467 146.366 166.464 146.716 169.442V169.442Z" stroke="#00FFC8" stroke-width="0.5" stroke-linecap="round" stroke-linejoin="round"/>
<path d="M55.271 132.266C55.5127 130.725 55.5632 129.16 55.4212 127.606" stroke="#00FFC8" stroke-width="0.5" stroke-linecap="round" stroke-linejoin="round"/>
<path d="M42.1171 114.455C40.5317 116.262 39.2935 119.633 38.3921 122.957" stroke="#00FFC8" stroke-width="0.5" stroke-linecap="round" stroke-linejoin="round"/>
<path d="M78.7293 153.35C77.3201 157.921 77.5325 162.928 77.8848 166.004" stroke="#00FFC8" stroke-width="0.5" stroke-linecap="round" stroke-linejoin="round"/>
<path d="M48.4065 88.0437C47.6605 87.5984 46.8938 87.1739 46.1063 86.7907L45.8213 86.6613C44.1894 85.8794 43.231 85.9364 42.1948 87.0237C39.936 89.0947 35.7811 93.8324 33.8486 101.982" stroke="#00FFC8" stroke-width="0.5" stroke-linecap="round" stroke-linejoin="round"/>
<path d="M42.9201 86.1281C42.9201 83.8829 42.0276 81.7297 40.4391 80.1421C38.8506 78.5545 36.6961 77.6626 34.4495 77.6626C32.203 77.6626 30.0485 78.5545 28.46 80.1421C26.8714 81.7297 25.979 83.8829 25.979 86.1281C25.979 88.3733 26.8714 90.5266 28.46 92.1141C30.0485 93.7017 32.203 94.5936 34.4495 94.5936" stroke="#00FFC8" stroke-width="0.5" stroke-linecap="round" stroke-linejoin="round"/>
<path d="M152.306 55.088C152.13 54.9574 151.979 54.7959 151.861 54.6116" stroke="#00FFC8" stroke-width="0.5" stroke-linecap="round" stroke-linejoin="round"/>
<path d="M147.882 44.5722C147.882 44.5722 147.877 44.5565 147.882 44.5722V44.5722Z" stroke="#00FFC8" stroke-width="0.5" stroke-linecap="round" stroke-linejoin="round"/>
<path d="M144.323 55.088C151.576 54.6997 147.95 45.0226 147.882 44.5721" stroke="#00FFC8" stroke-width="0.5" stroke-linecap="round" stroke-linejoin="round"/>
<path d="M145.732 47.948C145.732 46.0737 144.908 44.5566 143.888 44.5566C143.636 44.5615 143.393 44.6467 143.193 44.8L142.577 45.4265V50.3452C142.685 50.6137 142.864 50.8479 143.095 51.0229C143.326 51.1979 143.6 51.3073 143.888 51.3394C144.908 51.3394 145.732 49.8223 145.732 47.948Z" stroke="#00FFC8" stroke-width="0.5" stroke-linecap="round" stroke-linejoin="round"/>
<path d="M146.68 56.0459C146.68 56.0459 150.234 55.3832 150.234 50.8269" stroke="#00FFC8" stroke-width="0.5" stroke-linecap="round" stroke-linejoin="round"/>
</g>
<defs>
<clipPath id="clip0_1463_121704">
<rect width="181" height="218" fill="white" transform="translate(0.5 0.5)"/>
</clipPath>
</defs>
</svg>
