<svg width="82" height="82" viewBox="0 0 82 82" fill="none" xmlns="http://www.w3.org/2000/svg">
    <path
        d="M80.9329 38.6244H42.0738L42.1409 49.2825H68.3826C65.2953 62.252 55.698 70.2135 42.8792 70.2135C26.0336 70.2135 12.3423 57.1156 12.3423 41C12.3423 24.8844 25.9664 11.7865 42.8792 11.7865C50.8658 11.7865 58.1812 14.74 63.6175 19.5554L72.2081 12.4286C64.6242 5.36597 54.2215 1 42.8121 1C19.7248 1 1 18.9133 1 41C1 63.0867 19.7248 81 42.8121 81C64.9597 81 81 64.8202 81 42.7335L80.9329 38.6244Z"
        stroke="#00FFC8" stroke-miterlimit="10" />
</svg>
