<svg width="25" height="24" viewBox="0 0 25 24" fill="none" xmlns="http://www.w3.org/2000/svg">
    <path
        d="M19.1576 4.8586V10.5753L24.889 24.0001H3.55566L8.67566 16.6295L11.4386 19.7602L18.424 10.5085V6.14161C16.595 8.1864 13.8061 7.68188 12.461 5.14594L12.0526 4.37413C13.1921 4.43427 13.6864 4.36077 14.8233 3.95983C18.4604 2.67682 18.1222 4.8586 19.1576 4.8586Z"
        fill="#00FFC8" />
    <path
        d="M10.7519 1.4816C11.0506 1.47717 11.3263 1.45691 11.6048 1.41505C12.1284 1.33634 12.6396 1.18455 13.3128 0.945667L13.3128 0.945652C15.3608 0.218731 16.117 0.530792 16.5057 0.832271C16.675 0.963619 16.788 1.09602 16.9226 1.25361C16.9849 1.32664 17.0519 1.40509 17.1312 1.49134C17.2681 1.64022 17.4425 1.80655 17.6741 1.91435L16.9726 2.70348C16.0096 3.78684 14.8315 4.1631 13.7412 3.97505C12.6425 3.78555 11.5568 3.0087 10.832 1.63396C10.832 1.63387 10.832 1.63378 10.8319 1.6337L10.7519 1.4816ZM17.7507 8.45624L24.1336 23.5H0.952759L6.02039 16.1595L8.82085 19.3524L9.22699 19.8154L9.59667 19.3228L17.7463 8.46212L17.7507 8.45624Z"
        stroke="#00FFC8" stroke-opacity="0.2" />
</svg>
