<svg width="301" height="185" viewBox="0 0 301 185" fill="none" xmlns="http://www.w3.org/2000/svg">
    <defs>
        <linearGradient id="paint0_linear_2139:19354" x1="228.553" y1="99.5065" x2="205.006"
            y2="39.5452" gradientUnits="userSpaceOnUse">
            <stop stop-color="#00FFC8" />
            <stop offset="1" stop-color="#00FFC8" stop-opacity="0" />
        </linearGradient>
        <linearGradient id="paint1_linear_2139:19354" x1="136.929" y1="81.6718" x2="117.708"
            y2="62.9786" gradientUnits="userSpaceOnUse">
            <stop stop-color="#00FFC8" />
            <stop offset="1" stop-color="#00FFC8" stop-opacity="0" />
        </linearGradient>
        <linearGradient id="paint2_linear_2139:19354" x1="193.692" y1="81.6718" x2="174.471"
            y2="62.9787" gradientUnits="userSpaceOnUse">
            <stop stop-color="#00FFC8" />
            <stop offset="1" stop-color="#00FFC8" stop-opacity="0" />
        </linearGradient>
        <linearGradient id="paint3_linear_2139:19354" x1="229.219" y1="151.277" x2="189.082"
            y2="76.9725" gradientUnits="userSpaceOnUse">
            <stop stop-color="#00FFC8" />
            <stop offset="1" stop-color="#00FFC8" stop-opacity="0" />
        </linearGradient>
        <linearGradient id="paint4_linear_2139:19354" x1="213.175" y1="147.445" x2="183.112"
            y2="140.505" gradientUnits="userSpaceOnUse">
            <stop stop-color="#00FFC8" />
            <stop offset="1" stop-color="#00FFC8" stop-opacity="0" />
        </linearGradient>
        <linearGradient id="paint5_linear_2139:19354" x1="112.22" y1="147.395" x2="82.1599"
            y2="140.45" gradientUnits="userSpaceOnUse">
            <stop stop-color="#00FFC8" />
            <stop offset="1" stop-color="#00FFC8" stop-opacity="0" />
        </linearGradient>
        <linearGradient id="paint6_linear_2139:19354" x1="201.817" y1="141.413" x2="169.006"
            y2="129.142" gradientUnits="userSpaceOnUse">
            <stop stop-color="#00FFC8" />
            <stop offset="1" stop-color="#00FFC8" stop-opacity="0" />
        </linearGradient>
        <linearGradient id="paint7_linear_2139:19354" x1="128.802" y1="141.413" x2="95.994"
            y2="129.146" gradientUnits="userSpaceOnUse">
            <stop stop-color="#00FFC8" />
            <stop offset="1" stop-color="#00FFC8" stop-opacity="0" />
        </linearGradient>
        <linearGradient id="paint8_linear_2139:19354" x1="228.553" y1="74.3594" x2="204.997"
            y2="14.3878" gradientUnits="userSpaceOnUse">
            <stop stop-color="#00FFC8" />
            <stop offset="1" stop-color="#00FFC8" stop-opacity="0" />
        </linearGradient>
        <linearGradient id="paint9_linear_2139:19354" x1="136.929" y1="56.5255" x2="117.704"
            y2="37.8324" gradientUnits="userSpaceOnUse">
            <stop stop-color="#00FFC8" />
            <stop offset="1" stop-color="#00FFC8" stop-opacity="0" />
        </linearGradient>
        <linearGradient id="paint10_linear_2139:19354" x1="193.692" y1="56.5255" x2="174.467"
            y2="37.8325" gradientUnits="userSpaceOnUse">
            <stop stop-color="#00FFC8" />
            <stop offset="1" stop-color="#00FFC8" stop-opacity="0" />
        </linearGradient>
        <linearGradient id="paint11_linear_2139:19354" x1="263.257" y1="138.794" x2="179.218"
            y2="28.2529" gradientUnits="userSpaceOnUse">
            <stop stop-color="#00FFC8" />
            <stop offset="1" stop-color="#00FFC8" stop-opacity="0" />
        </linearGradient>
        <linearGradient id="paint12_linear_2139:19354" x1="112.22" y1="122.245" x2="82.1599"
            y2="115.3" gradientUnits="userSpaceOnUse">
            <stop stop-color="#00FFC8" />
            <stop offset="1" stop-color="#00FFC8" stop-opacity="0" />
        </linearGradient>
        <linearGradient id="paint13_linear_2139:19354" x1="201.817" y1="116.263" x2="169.006"
            y2="103.993" gradientUnits="userSpaceOnUse">
            <stop stop-color="#00FFC8" />
            <stop offset="1" stop-color="#00FFC8" stop-opacity="0" />
        </linearGradient>
        <linearGradient id="paint14_linear_2139:19354" x1="128.802" y1="116.263" x2="95.994"
            y2="103.996" gradientUnits="userSpaceOnUse">
            <stop stop-color="#00FFC8" />
            <stop offset="1" stop-color="#00FFC8" stop-opacity="0" />
        </linearGradient>
        <linearGradient id="paint15_linear_2139:19354" x1="228.553" y1="49.1645" x2="204.997"
            y2="-10.807" gradientUnits="userSpaceOnUse">
            <stop stop-color="#00FFC8" />
            <stop offset="1" stop-color="#00FFC8" stop-opacity="0" />
        </linearGradient>
        <linearGradient id="paint16_linear_2139:19354" x1="136.929" y1="31.3247" x2="117.708"
            y2="12.6315" gradientUnits="userSpaceOnUse">
            <stop stop-color="#00FFC8" />
            <stop offset="1" stop-color="#00FFC8" stop-opacity="0" />
        </linearGradient>
        <linearGradient id="paint17_linear_2139:19354" x1="193.692" y1="31.3247" x2="174.471"
            y2="12.6316" gradientUnits="userSpaceOnUse">
            <stop stop-color="#00FFC8" />
            <stop offset="1" stop-color="#00FFC8" stop-opacity="0" />
        </linearGradient>
        <linearGradient id="paint18_linear_2139:19354" x1="229.219" y1="100.93" x2="189.082"
            y2="26.6253" gradientUnits="userSpaceOnUse">
            <stop stop-color="#00FFC8" />
            <stop offset="1" stop-color="#00FFC8" stop-opacity="0" />
        </linearGradient>
        <linearGradient id="paint19_linear_2139:19354" x1="213.175" y1="97.0956" x2="183.112"
            y2="90.1558" gradientUnits="userSpaceOnUse">
            <stop stop-color="#00FFC8" />
            <stop offset="1" stop-color="#00FFC8" stop-opacity="0" />
        </linearGradient>
        <linearGradient id="paint20_linear_2139:19354" x1="112.22" y1="97.048" x2="82.1599"
            y2="90.1031" gradientUnits="userSpaceOnUse">
            <stop stop-color="#00FFC8" />
            <stop offset="1" stop-color="#00FFC8" stop-opacity="0" />
        </linearGradient>
        <linearGradient id="paint21_linear_2139:19354" x1="201.817" y1="91.0638" x2="169.006"
            y2="78.7929" gradientUnits="userSpaceOnUse">
            <stop stop-color="#00FFC8" />
            <stop offset="1" stop-color="#00FFC8" stop-opacity="0" />
        </linearGradient>
        <linearGradient id="paint22_linear_2139:19354" x1="128.802" y1="91.0638" x2="95.994"
            y2="78.7961" gradientUnits="userSpaceOnUse">
            <stop stop-color="#00FFC8" />
            <stop offset="1" stop-color="#00FFC8" stop-opacity="0" />
        </linearGradient>
        <linearGradient id="paint23_linear_2139:19354" x1="276.361" y1="97.5447" x2="180.329"
            y2="-35.8016" gradientUnits="userSpaceOnUse">
            <stop stop-color="#00FFC8" />
            <stop offset="1" stop-color="#00FFC8" stop-opacity="0" />
        </linearGradient>
        <linearGradient id="paint24_linear_2139:19354" x1="209.819" y1="62.9319" x2="187.556"
            y2="12.8094" gradientUnits="userSpaceOnUse">
            <stop stop-color="#00FFC8" />
            <stop offset="1" stop-color="#00FFC8" stop-opacity="0" />
        </linearGradient>
        <linearGradient id="paint25_linear_2139:19354" x1="55.0938" y1="95.8722" x2="-12.7134"
            y2="64.4868" gradientUnits="userSpaceOnUse">
            <stop stop-color="#00FFC8" />
            <stop offset="1" stop-color="#00FFC8" stop-opacity="0" />
        </linearGradient>
        <linearGradient id="paint26_linear_2139:19354" x1="88.41" y1="95.8722" x2="20.5998"
            y2="64.4833" gradientUnits="userSpaceOnUse">
            <stop stop-color="#00FFC8" />
            <stop offset="1" stop-color="#00FFC8" stop-opacity="0" />
        </linearGradient>
        <linearGradient id="paint27_linear_2139:19354" x1="109.258" y1="52.9405" x2="53.0223"
            y2="-25.1498" gradientUnits="userSpaceOnUse">
            <stop stop-color="#00FFC8" />
            <stop offset="1" stop-color="#00FFC8" stop-opacity="0" />
        </linearGradient>
        <linearGradient id="paint28_linear_2139:19354" x1="287.606" y1="212.294" x2="219.797"
            y2="180.91" gradientUnits="userSpaceOnUse">
            <stop stop-color="#00FFC8" />
            <stop offset="1" stop-color="#00FFC8" stop-opacity="0" />
        </linearGradient>
        <linearGradient id="paint29_linear_2139:19354" x1="320.92" y1="212.294" x2="253.108"
            y2="180.906" gradientUnits="userSpaceOnUse">
            <stop stop-color="#00FFC8" />
            <stop offset="1" stop-color="#00FFC8" stop-opacity="0" />
        </linearGradient>
        <linearGradient id="paint30_linear_2139:19354" x1="341.769" y1="169.359" x2="285.534"
            y2="91.2686" gradientUnits="userSpaceOnUse">
            <stop stop-color="#00FFC8" />
            <stop offset="1" stop-color="#00FFC8" stop-opacity="0" />
        </linearGradient>
        <linearGradient id="paint31_linear_2139:19354" x1="280.324" y1="97.6725" x2="212.514"
            y2="66.2835" gradientUnits="userSpaceOnUse">
            <stop stop-color="#00FFC8" />
            <stop offset="1" stop-color="#00FFC8" stop-opacity="0" />
        </linearGradient>
        <linearGradient id="paint32_linear_2139:19354" x1="313.633" y1="97.6725" x2="245.826"
            y2="66.2871" gradientUnits="userSpaceOnUse">
            <stop stop-color="#00FFC8" />
            <stop offset="1" stop-color="#00FFC8" stop-opacity="0" />
        </linearGradient>
        <linearGradient id="paint33_linear_2139:19354" x1="334.484" y1="54.7408" x2="278.249"
            y2="-23.3496" gradientUnits="userSpaceOnUse">
            <stop stop-color="#00FFC8" />
            <stop offset="1" stop-color="#00FFC8" stop-opacity="0" />
        </linearGradient>
    </defs>
    <path fill-rule="evenodd" clip-rule="evenodd"
        d="M206.258 84.593C206.017 84.7409 205.798 84.8751 205.607 84.992C205.571 85.0141 205.528 84.9962 205.51 84.9521C205.492 84.908 205.506 84.8545 205.542 84.8324C205.732 84.7155 205.951 84.5813 206.193 84.4334C206.229 84.4114 206.272 84.4292 206.29 84.4733C206.308 84.5175 206.294 84.5714 206.258 84.593ZM207.689 83.7158C207.466 83.8528 207.248 83.9866 207.039 84.1147C207.003 84.1368 206.959 84.119 206.941 84.0748C206.923 84.0307 206.938 83.9772 206.974 83.9551C207.183 83.827 207.401 83.6932 207.625 83.5562C207.661 83.5341 207.704 83.5519 207.722 83.5961C207.739 83.6402 207.725 83.6937 207.689 83.7158ZM209.121 82.838C208.903 82.9713 208.685 83.1046 208.47 83.237C208.434 83.2591 208.39 83.2412 208.372 83.1971C208.354 83.153 208.369 83.0995 208.405 83.0774C208.62 82.9455 208.838 82.8122 209.055 82.6784C209.091 82.6564 209.135 82.6742 209.153 82.7183C209.171 82.7625 209.156 82.8164 209.121 82.838ZM210.626 81.9152C210.385 82.0631 210.165 82.1973 209.975 82.3142C209.939 82.3363 209.896 82.3184 209.878 82.2743C209.86 82.2302 209.874 82.1767 209.91 82.1546C210.101 82.0382 210.319 81.9035 210.561 81.7556C210.597 81.7336 210.641 81.7514 210.659 81.7955C210.676 81.8397 210.661 81.8936 210.626 81.9152ZM212.057 81.038C211.833 81.175 211.616 81.3088 211.406 81.4369C211.37 81.459 211.327 81.4411 211.309 81.397C211.291 81.3529 211.305 81.2994 211.341 81.2773C211.55 81.1492 211.768 81.0154 211.992 80.8784C212.028 80.8563 212.072 80.8741 212.09 80.9183C212.108 80.9624 212.093 81.0159 212.057 81.038ZM213.488 80.1602C213.271 80.2935 213.053 80.4268 212.838 80.5592C212.802 80.5812 212.758 80.5634 212.74 80.5193C212.722 80.4752 212.736 80.4217 212.772 80.3996C212.988 80.2677 213.205 80.1339 213.423 80.0006C213.459 79.9786 213.503 79.9964 213.521 80.0405C213.539 80.0846 213.524 80.1386 213.488 80.1602ZM244.462 61.1705C244.249 61.3005 214.489 79.5463 214.269 79.6819C214.233 79.704 214.189 79.6861 214.171 79.642C214.153 79.5979 214.168 79.5444 214.204 79.5223C214.424 79.3871 244.184 61.1414 244.397 61.0109C244.433 60.9889 244.476 61.0067 244.494 61.0508C244.512 61.0949 244.498 61.1485 244.462 61.1705Z"
        fill="#00FFC8" fill-opacity="0.2" />
    <path fill-rule="evenodd" clip-rule="evenodd"
        d="M45.6081 61.0099L91.4614 85.8509C91.4977 85.8706 91.5123 85.9182 91.4942 85.9575C91.4761 85.9968 91.4321 86.0127 91.3958 85.993L45.5425 61.152C45.5063 61.1323 45.4916 61.0847 45.5097 61.0454C45.5279 61.0061 45.5718 60.9902 45.6081 61.0099Z"
        fill="#00FFC8" fill-opacity="0.2" />
    <path fill-rule="evenodd" clip-rule="evenodd"
        d="M45.6081 61.0099L91.4614 85.8509C91.4977 85.8706 91.5123 85.9182 91.4942 85.9575C91.4761 85.9968 91.4321 86.0127 91.3958 85.993L45.5425 61.152C45.5063 61.1323 45.4916 61.0847 45.5097 61.0454C45.5279 61.0061 45.5718 60.9902 45.6081 61.0099Z"
        fill="#00FFC8" fill-opacity="0.2" />
    <path fill-rule="evenodd" clip-rule="evenodd"
        d="M184.624 126.01L237.455 150.851C237.497 150.871 237.514 150.918 237.493 150.958C237.472 150.997 237.421 151.013 237.38 150.993L184.549 126.152C184.507 126.132 184.49 126.085 184.511 126.045C184.532 126.006 184.582 125.99 184.624 126.01Z"
        fill="#00FFC8" fill-opacity="0.2" />
    <path fill-rule="evenodd" clip-rule="evenodd"
        d="M205.157 100.018C205.157 115.738 179.669 128.499 148.276 128.499C116.883 128.499 91.3945 115.738 91.3945 100.018H205.157Z"
        fill="#00FFC8" fill-opacity="0.2" />
    <path fill-rule="evenodd" clip-rule="evenodd"
        d="M205.589 100.015C205.589 99.7772 205.394 99.5845 205.156 99.5845H91.3914C91.1537 99.5845 90.9612 99.7772 90.959 100.015V100.018C90.959 106.432 95.0866 112.384 102.128 117.191C112.539 124.299 129.335 128.931 148.273 128.931C167.211 128.931 184.006 124.299 194.417 117.191C201.459 112.382 205.589 106.43 205.589 100.015ZM204.717 100.448H91.8307C92.0141 106.443 96.0104 111.962 102.617 116.474C112.915 123.508 129.539 128.065 148.275 128.065C167.011 128.065 183.633 123.508 193.933 116.474C200.537 111.964 204.534 106.443 204.717 100.448Z"
        fill="#00FFC8" fill-opacity="0.2" />
    <path fill-rule="evenodd" clip-rule="evenodd"
        d="M99.6789 86.5088C99.8986 73.1744 121.59 62.3794 148.276 62.3794C174.961 62.3794 196.653 73.1721 196.872 86.5088H205.159C205.159 102.229 179.671 114.989 148.278 114.989C116.885 114.989 91.3965 102.229 91.3965 86.5088H99.6789Z"
        fill="#00FFC8" fill-opacity="0.2" />
    <path fill-rule="evenodd" clip-rule="evenodd"
        d="M99.2596 86.0757C99.5222 80.7814 103.066 75.8748 108.95 71.8955C117.862 65.8688 132.161 61.9463 148.273 61.9463C164.385 61.9463 178.683 65.8688 187.595 71.8955C193.48 75.8748 197.023 80.7814 197.286 86.0757H205.154C205.392 86.0757 205.584 86.2684 205.586 86.5065C205.586 86.5065 205.586 86.5065 205.586 86.5088C205.586 92.9232 201.459 98.8751 194.417 103.682C184.006 110.79 167.211 115.422 148.273 115.422C129.335 115.422 112.539 110.79 102.128 103.682C95.0866 98.8728 90.959 92.9209 90.959 86.5088V86.5065C90.959 86.2684 91.1537 86.0757 91.3914 86.0757H99.2596ZM204.717 86.9396H196.869C196.634 86.9396 196.441 86.7491 196.437 86.5133C196.351 81.3029 192.88 76.5097 187.111 72.6098C178.31 66.6579 164.183 62.8102 148.273 62.8102C132.362 62.8102 118.234 66.6602 109.433 72.6098C103.666 76.5097 100.192 81.3029 100.109 86.5133C100.104 86.7491 99.9116 86.9396 99.6762 86.9396H91.8284C92.0118 92.9345 96.0082 98.4556 102.615 102.965C112.913 109.999 129.536 114.556 148.273 114.556C167.009 114.556 183.631 109.999 193.93 102.965C200.537 98.4556 204.534 92.9345 204.717 86.9396Z"
        fill="#00FFC8" fill-opacity="0.2" />
    <path fill-rule="evenodd" clip-rule="evenodd"
        d="M127.457 101.201C133.315 103.317 140.506 104.562 148.272 104.562C156.038 104.562 163.229 103.315 169.087 101.201L184.218 108.779C174.417 112.788 161.9 115.193 148.272 115.193C134.641 115.193 122.125 112.788 112.325 108.779L127.457 101.201ZM177.213 76.2896L192.345 68.7121C200.351 73.6187 205.155 79.8857 205.155 86.7105C205.155 93.5353 200.351 99.8024 192.345 104.709L177.213 97.1314C181.436 94.1974 183.924 90.5968 183.924 86.7083C183.924 82.8242 181.436 79.2236 177.213 76.2896ZM119.333 76.2896C115.11 79.2236 112.622 82.822 112.622 86.7105C112.622 90.5991 115.11 94.1997 119.333 97.1337L104.201 104.711C96.1953 99.8046 91.3906 93.5376 91.3906 86.7128C91.3906 79.888 96.1953 73.6209 104.201 68.7143L119.333 76.2896ZM127.457 72.222L112.325 64.6444C122.127 60.6357 134.644 58.23 148.272 58.23C161.902 58.23 174.419 60.6357 184.218 64.6444L169.087 72.222C163.229 70.1088 156.038 68.8617 148.272 68.8617C140.506 68.8617 133.317 70.1088 127.457 72.222Z"
        fill="#00FFC8" fill-opacity="0.2" />
    <path fill-rule="evenodd" clip-rule="evenodd"
        d="M127.605 100.796C127.494 100.755 127.372 100.762 127.265 100.816L112.133 108.394C111.982 108.468 111.889 108.627 111.896 108.797C111.903 108.967 112.007 109.117 112.163 109.18C122.008 113.207 134.581 115.627 148.275 115.627C161.966 115.627 174.539 113.207 184.386 109.18C184.543 109.117 184.649 108.965 184.656 108.797C184.663 108.627 184.57 108.471 184.418 108.394L169.286 100.816C169.18 100.764 169.058 100.755 168.947 100.796C163.13 102.895 155.991 104.131 148.279 104.131C140.567 104.131 133.422 102.895 127.605 100.796ZM127.487 101.673L113.381 108.736C122.999 112.511 135.117 114.76 148.275 114.76C161.432 114.76 173.55 112.511 183.168 108.736L169.062 101.673C163.194 103.766 156.021 104.997 148.277 104.997C140.529 104.995 133.356 103.764 127.487 101.673ZM177.019 75.9043C176.883 75.9724 176.792 76.1084 176.781 76.2603C176.77 76.4122 176.84 76.5596 176.967 76.6458C181.054 79.4845 183.492 82.9491 183.492 86.7129C183.492 90.4768 181.054 93.9413 176.967 96.7801C176.842 96.8685 176.772 97.0136 176.781 97.1678C176.792 97.3197 176.883 97.4558 177.019 97.5238L192.15 105.101C192.284 105.167 192.442 105.163 192.569 105.083C200.727 100.081 205.586 93.6692 205.586 86.7152C205.586 79.7611 200.727 73.349 192.569 68.3472C192.442 68.2701 192.284 68.2633 192.15 68.329L177.019 75.9043ZM119.58 76.6458C119.705 76.5596 119.775 76.4122 119.766 76.2603C119.755 76.1084 119.664 75.9724 119.528 75.9043L104.397 68.3268C104.263 68.261 104.105 68.2678 103.978 68.3449C95.8199 73.3445 90.9609 79.7589 90.9609 86.7129C90.9609 93.667 95.8199 100.081 103.978 105.081C104.105 105.158 104.263 105.165 104.397 105.099L119.528 97.5215C119.664 97.4535 119.755 97.3174 119.766 97.1655C119.777 97.0136 119.707 96.8662 119.58 96.7778C115.494 93.9391 113.055 90.4745 113.055 86.7107C113.053 82.9491 115.494 79.4845 119.58 76.6458ZM192.322 69.2088L178.047 76.3578C182.045 79.3077 184.355 82.8833 184.355 86.7129C184.355 90.5425 182.043 94.1204 178.047 97.0703L192.322 104.217C200.055 99.4216 204.724 93.3495 204.724 86.7129C204.724 80.0763 200.055 74.002 192.322 69.2088ZM104.222 69.2088C96.4901 74.0043 91.8213 80.0763 91.8213 86.7129C91.8213 93.3495 96.4901 99.4216 104.222 104.217L118.498 97.0703C114.5 94.1204 112.19 90.5448 112.19 86.7129C112.19 82.8811 114.502 79.3077 118.498 76.3578L104.222 69.2088ZM127.265 72.6098C127.372 72.662 127.494 72.6711 127.605 72.6302C133.422 70.5306 140.561 69.2949 148.272 69.2949C155.984 69.2949 163.123 70.5306 168.94 72.6302C169.051 72.6711 169.173 72.6642 169.28 72.6098L184.411 65.0323C184.563 64.9574 184.656 64.7987 184.649 64.6287C184.642 64.4586 184.538 64.309 184.382 64.2455C174.537 60.2186 161.964 57.7993 148.27 57.7993C134.579 57.7993 122.005 60.2186 112.161 64.2455C112.004 64.309 111.898 64.4609 111.891 64.6287C111.884 64.7987 111.977 64.9552 112.129 65.0323L127.265 72.6098ZM183.166 64.6899C173.548 60.9147 161.43 58.6655 148.272 58.6655C135.115 58.6655 122.999 60.9147 113.379 64.6899L127.485 71.7528C133.354 69.6622 140.527 68.4288 148.272 68.4288C156.016 68.4288 163.191 69.66 169.058 71.7528L183.166 64.6899Z"
        fill="#00FFC8" fill-opacity="0.2" />
    <path fill-rule="evenodd" clip-rule="evenodd"
        d="M177.214 76.2894C181.437 79.2234 183.925 82.8217 183.925 86.7103C183.925 87.2567 183.875 87.7964 183.78 88.3315C183.191 85.0642 180.843 82.0508 177.214 79.5295V76.2894ZM119.334 76.2894V79.5295C115.705 82.0508 113.357 85.0642 112.768 88.3315C112.671 87.7964 112.623 87.2567 112.623 86.7103C112.623 82.824 115.111 79.2234 119.334 76.2894ZM169.088 75.4641C163.23 73.3486 156.039 72.1039 148.273 72.1039C140.507 72.1039 133.316 73.3509 127.458 75.4641V72.224C133.318 70.1086 140.507 68.8638 148.273 68.8638C156.039 68.8638 163.23 70.1108 169.088 72.224V75.4641Z"
        fill="url(#paint0_linear_2139:19354)" fill-opacity="0.3" />
    <path fill-rule="evenodd" clip-rule="evenodd"
        d="M177.459 75.9336C177.328 75.8406 177.156 75.8315 177.013 75.9063C176.87 75.9812 176.782 76.1285 176.782 76.2895V79.5296C176.782 79.6725 176.852 79.804 176.968 79.8856C180.488 82.3298 182.784 85.2411 183.355 88.4087C183.391 88.615 183.572 88.7646 183.781 88.7646C183.989 88.7646 184.17 88.615 184.206 88.4087C184.306 87.8486 184.358 87.2841 184.358 86.7104C184.358 82.6971 181.82 78.9628 177.459 75.9336ZM119.767 76.2895C119.767 76.1285 119.677 75.9812 119.536 75.9063C119.394 75.8315 119.221 75.8429 119.09 75.9336C114.732 78.9605 112.193 82.6971 112.193 86.7104C112.193 87.2818 112.245 87.8486 112.345 88.4087C112.381 88.615 112.56 88.7646 112.771 88.7646C112.979 88.7646 113.158 88.615 113.196 88.4087C113.767 85.2411 116.063 82.3321 119.584 79.8856C119.699 79.804 119.769 79.6725 119.769 79.5296V76.2895H119.767ZM118.902 77.1353C115.526 79.6543 113.421 82.6291 113.097 85.8465C114.172 83.4567 116.167 81.2415 118.902 79.3051V77.1353ZM177.645 77.1353V79.3074C180.378 81.2415 182.375 83.459 183.45 85.8488C183.129 82.6291 181.023 79.6543 177.645 77.1353ZM127.028 75.4619V72.2219C127.028 72.0405 127.144 71.8772 127.314 71.8137C133.214 69.6847 140.453 68.4263 148.276 68.4263C156.096 68.4263 163.337 69.6824 169.238 71.8137C169.41 71.875 169.523 72.0382 169.523 72.2196V75.4619C169.523 75.6025 169.455 75.734 169.34 75.8157C169.224 75.8973 169.077 75.9154 168.946 75.8678C163.129 73.7682 155.99 72.5325 148.278 72.5325C140.566 72.5325 133.427 73.7682 127.61 75.8678C127.459 75.9222 127.289 75.8882 127.171 75.7794C127.076 75.6977 127.026 75.5821 127.028 75.4619ZM168.658 72.528C162.893 70.4896 155.861 69.2947 148.276 69.2947C140.691 69.2947 133.658 70.4896 127.893 72.528V74.852C133.685 72.8477 140.709 71.6709 148.276 71.6709C155.843 71.6709 162.866 72.8477 168.658 74.852V72.528Z"
        fill="#00FFC8" fill-opacity="0.2" />
    <path fill-rule="evenodd" clip-rule="evenodd"
        d="M112.326 70.3538V64.6445L127.458 72.2221V75.4622L114.76 69.1045C113.947 69.4922 113.162 69.8935 112.405 70.3084L112.326 70.3538Z"
        fill="url(#paint1_linear_2139:19354)" fill-opacity="0.3" />
    <path fill-rule="evenodd" clip-rule="evenodd"
        d="M114.757 69.5873C114.019 69.9433 113.303 70.3106 112.613 70.6893L112.533 70.7324C112.4 70.8049 112.237 70.8027 112.105 70.7256C111.974 70.6485 111.893 70.5056 111.893 70.3537V64.6445C111.893 64.4948 111.97 64.3542 112.099 64.2771C112.225 64.1978 112.386 64.191 112.52 64.259L127.651 71.8366C127.799 71.9091 127.891 72.0588 127.891 72.2243V75.4644C127.891 75.614 127.814 75.7546 127.685 75.8317C127.559 75.9111 127.4 75.9179 127.264 75.8498L114.757 69.5873ZM127.026 74.7638V72.4896L112.758 65.3451V69.6281C113.346 69.3153 113.953 69.0114 114.573 68.7144C114.693 68.6577 114.834 68.6577 114.954 68.7189L127.026 74.7638Z"
        fill="#00FFC8" fill-opacity="0.2" />
    <path fill-rule="evenodd" clip-rule="evenodd"
        d="M184.221 70.3538V64.6445L169.09 72.2221V75.4622L181.787 69.1045C182.6 69.4922 183.386 69.8935 184.142 70.3084L184.221 70.3538Z"
        fill="url(#paint2_linear_2139:19354)" fill-opacity="0.3" />
    <path fill-rule="evenodd" clip-rule="evenodd"
        d="M181.789 69.5875L169.28 75.85C169.146 75.9181 168.987 75.909 168.858 75.8319C168.732 75.7526 168.652 75.6142 168.652 75.4646V72.2245C168.652 72.0613 168.745 71.9116 168.892 71.8368L184.024 64.2592C184.158 64.1912 184.316 64.2003 184.445 64.2773C184.572 64.3567 184.651 64.495 184.651 64.6447V70.3517C184.651 70.5058 184.57 70.6464 184.438 70.7235C184.307 70.8006 184.144 70.8051 184.01 70.7303C184.01 70.7303 183.931 70.6872 183.933 70.6872C183.243 70.3108 182.527 69.9435 181.789 69.5875ZM183.789 69.6284V65.3453L169.52 72.4898V74.764L181.592 68.7191C181.712 68.6602 181.85 68.6579 181.97 68.7146C182.593 69.0116 183.2 69.3155 183.789 69.6284Z"
        fill="#00FFC8" fill-opacity="0.2" />
    <path fill-rule="evenodd" clip-rule="evenodd"
        d="M184.221 108.779V129.364C174.419 133.373 161.903 135.779 148.275 135.779H147.908C140.848 135.756 134.089 135.089 127.861 133.854C122.189 132.77 116.954 131.239 112.328 129.346V108.781C122.13 112.79 134.646 115.195 148.275 115.195C161.903 115.193 174.419 112.788 184.221 108.779Z"
        fill="url(#paint3_linear_2139:19354)" fill-opacity="0.3" />
    <path fill-rule="evenodd" clip-rule="evenodd"
        d="M184.654 108.779C184.654 108.636 184.582 108.5 184.464 108.42C184.344 108.341 184.192 108.325 184.059 108.38C174.302 112.37 161.843 114.762 148.275 114.762C134.708 114.762 122.248 112.37 112.492 108.38C112.358 108.325 112.207 108.341 112.087 108.42C111.967 108.5 111.896 108.636 111.896 108.779V129.344C111.896 129.521 112.003 129.677 112.166 129.745C116.817 131.65 122.079 133.187 127.78 134.278C134.034 135.518 140.817 136.189 147.909 136.212H148.278C161.969 136.212 174.542 133.792 184.389 129.766C184.552 129.7 184.659 129.541 184.659 129.364V108.779H184.654ZM183.789 109.42C174.035 113.302 161.693 115.626 148.273 115.626C134.853 115.626 122.511 113.302 112.757 109.42V129.054C117.292 130.886 122.405 132.369 127.941 133.427C134.145 134.659 140.874 135.323 147.904 135.346H148.271C161.713 135.346 174.069 132.999 183.787 129.074V109.42H183.789Z"
        fill="#00FFC8" fill-opacity="0.2" />
    <path fill-rule="evenodd" clip-rule="evenodd"
        d="M192.346 104.711C200.352 99.8047 205.157 93.5377 205.157 86.7129V107.298C205.157 114.123 200.352 120.39 192.346 125.297V104.711Z"
        fill="url(#paint4_linear_2139:19354)" fill-opacity="0.3" />
    <path fill-rule="evenodd" clip-rule="evenodd"
        d="M192.12 104.342C191.991 104.421 191.914 104.559 191.914 104.711V125.297C191.914 125.453 191.998 125.598 192.136 125.673C192.272 125.75 192.439 125.746 192.573 125.664C200.731 120.664 205.59 114.25 205.59 107.296V86.7104C205.59 86.4723 205.397 86.2773 205.157 86.2773C204.92 86.2773 204.725 86.4701 204.725 86.7104C204.725 93.406 199.975 99.5279 192.12 104.342ZM204.725 91.7485C203.009 96.6891 198.813 101.21 192.779 104.954V124.517C200.24 119.769 204.725 113.803 204.725 107.298V91.7485Z"
        fill="#00FFC8" fill-opacity="0.2" />
    <path fill-rule="evenodd" clip-rule="evenodd"
        d="M104.201 125.265C96.1907 120.381 91.3906 114.119 91.3906 107.298V86.7129C91.3906 93.5377 96.1953 99.8047 104.201 104.711V125.265Z"
        fill="url(#paint5_linear_2139:19354)" fill-opacity="0.3" />
    <path fill-rule="evenodd" clip-rule="evenodd"
        d="M90.959 86.7129C90.959 86.4748 91.1514 86.2798 91.3914 86.2798C91.6292 86.2798 91.8239 86.4725 91.8239 86.7129C91.8239 93.4084 96.5742 99.5281 104.429 104.342C104.558 104.421 104.635 104.559 104.635 104.711V125.265C104.635 125.422 104.551 125.564 104.415 125.641C104.279 125.719 104.112 125.716 103.978 125.635C95.8134 120.658 90.9612 114.248 90.9612 107.298V86.7129H90.959ZM91.8239 91.7487V107.298C91.8239 113.801 96.3047 119.762 103.77 124.487V104.954C97.7357 101.21 93.5379 96.6893 91.8239 91.7487Z"
        fill="#00FFC8" fill-opacity="0.2" />
    <path fill-rule="evenodd" clip-rule="evenodd"
        d="M188.783 120.005V106.496L177.215 100.703V97.1338L192.347 104.711V125.265L185.187 121.68C186.403 121.157 187.603 120.601 188.783 120.005Z"
        fill="url(#paint6_linear_2139:19354)" fill-opacity="0.3" />
    <path fill-rule="evenodd" clip-rule="evenodd"
        d="M188.349 106.763L177.019 101.09C176.872 101.018 176.781 100.868 176.781 100.703V97.1337C176.781 96.9841 176.858 96.8435 176.985 96.7664C177.112 96.687 177.273 96.6802 177.406 96.7483L192.538 104.326C192.685 104.398 192.776 104.548 192.776 104.714V125.267C192.776 125.417 192.699 125.558 192.572 125.635C192.445 125.714 192.284 125.721 192.151 125.653L184.991 122.068C184.84 121.993 184.747 121.837 184.754 121.669C184.758 121.501 184.86 121.349 185.016 121.284C186.141 120.798 187.255 120.286 188.351 119.739V106.763H188.349ZM186.205 121.708L191.913 124.567V104.981L177.644 97.8366V100.437L188.974 106.11C189.121 106.183 189.212 106.332 189.212 106.498V120.007C189.212 120.17 189.121 120.32 188.974 120.392C188.064 120.853 187.14 121.29 186.205 121.708Z"
        fill="#00FFC8" fill-opacity="0.2" />
    <path fill-rule="evenodd" clip-rule="evenodd"
        d="M107.765 120.005V106.496L119.333 100.703V97.1338L104.203 104.711V125.265L111.363 121.68C110.147 121.157 108.947 120.601 107.765 120.005Z"
        fill="url(#paint7_linear_2139:19354)" fill-opacity="0.3" />
    <path fill-rule="evenodd" clip-rule="evenodd"
        d="M108.196 119.737C109.292 120.286 110.404 120.798 111.531 121.281C111.685 121.347 111.787 121.497 111.794 121.667C111.798 121.835 111.706 121.991 111.556 122.066L104.397 125.651C104.263 125.719 104.105 125.712 103.976 125.632C103.849 125.553 103.77 125.415 103.77 125.265V104.711C103.77 104.548 103.862 104.398 104.007 104.324L119.139 96.746C119.273 96.678 119.431 96.6871 119.56 96.7642C119.687 96.8435 119.766 96.9818 119.766 97.1315V100.7C119.766 100.864 119.673 101.013 119.526 101.088L108.196 106.761V119.737ZM118.901 100.435V97.8344L104.632 104.979V124.567L110.34 121.708C109.405 121.29 108.481 120.855 107.567 120.393C107.422 120.32 107.329 120.17 107.329 120.007V106.498C107.329 106.335 107.422 106.185 107.567 106.11L118.901 100.435Z"
        fill="#00FFC8" fill-opacity="0.2" />
    <path fill-rule="evenodd" clip-rule="evenodd"
        d="M205.157 74.8657C205.157 90.5855 179.669 103.346 148.276 103.346C116.883 103.346 91.3945 90.5855 91.3945 74.8657H205.157Z"
        fill="#00FFC8" fill-opacity="0.2" />
    <path fill-rule="evenodd" clip-rule="evenodd"
        d="M205.589 74.8654C205.589 74.6273 205.394 74.4346 205.156 74.4346H91.3914C91.1537 74.4346 90.9612 74.6273 90.959 74.8654V74.8676C90.959 81.2821 95.0866 87.2339 102.128 92.0408C112.539 99.149 129.335 103.781 148.273 103.781C167.211 103.781 184.006 99.149 194.417 92.0408C201.459 87.2317 205.589 81.2798 205.589 74.8654ZM204.717 75.2984H91.8307C92.0141 81.2934 96.0104 86.8145 102.617 91.3243C112.915 98.3577 129.539 102.915 148.275 102.915C167.011 102.915 183.633 98.3577 193.933 91.3243C200.537 86.8145 204.534 81.2934 204.717 75.2984Z"
        fill="#00FFC8" fill-opacity="0.2" />
    <path fill-rule="evenodd" clip-rule="evenodd"
        d="M99.6776 61.3565C99.8972 48.0198 121.588 37.2271 148.274 37.2271C174.96 37.2271 196.651 48.0198 196.871 61.3565H205.158C205.158 77.0762 179.67 89.837 148.276 89.837C116.883 89.837 91.3906 77.0762 91.3906 61.3565H99.6776Z"
        fill="#00FFC8" fill-opacity="0.2" />
    <path fill-rule="evenodd" clip-rule="evenodd"
        d="M99.2596 60.9258C99.5222 55.6315 103.066 50.7249 108.95 46.7456C117.862 40.719 132.161 36.7964 148.273 36.7964C164.385 36.7964 178.683 40.719 187.595 46.7456C193.48 50.7249 197.023 55.6315 197.286 60.9258H205.154C205.392 60.9258 205.584 61.1186 205.586 61.3566C205.586 61.3566 205.586 61.3566 205.586 61.3589C205.586 67.7733 201.459 73.7252 194.417 78.532C184.006 85.6403 167.211 90.2725 148.273 90.2725C129.335 90.2725 112.539 85.6403 102.128 78.532C95.0866 73.7229 90.959 67.771 90.959 61.3589V61.3566C90.959 61.1186 91.1537 60.9258 91.3914 60.9258H99.2596ZM204.717 61.7897H196.869C196.634 61.7897 196.441 61.5992 196.437 61.3634C196.351 56.153 192.88 51.3598 187.111 47.4599C178.31 41.508 164.183 37.6603 148.273 37.6603C132.362 37.6603 118.234 41.508 109.433 47.4599C103.666 51.3598 100.192 56.153 100.109 61.3634C100.104 61.5992 99.9116 61.7897 99.6762 61.7897H91.8284C92.0118 67.7847 96.0082 73.3057 102.615 77.8155C112.913 84.8489 129.536 89.4064 148.273 89.4064C167.009 89.4064 183.631 84.8489 193.93 77.8155C200.537 73.3057 204.534 67.7847 204.717 61.7897Z"
        fill="#00FFC8" fill-opacity="0.2" />
    <path fill-rule="evenodd" clip-rule="evenodd"
        d="M127.457 76.0514C133.315 78.1646 140.506 79.4117 148.272 79.4117C156.038 79.4117 163.229 78.1646 169.087 76.0514L184.218 83.629C174.417 87.6377 161.9 90.0434 148.272 90.0434C134.641 90.0434 122.125 87.6377 112.325 83.629L127.457 76.0514ZM177.213 51.1397L192.345 43.5622C200.351 48.4688 205.155 54.7358 205.155 61.5606C205.155 68.3854 200.351 74.6525 192.345 79.5591L177.213 71.9815C181.436 69.0475 183.924 65.4492 183.924 61.5584C183.924 57.6675 181.436 54.0737 177.213 51.1397ZM119.333 51.1397C115.11 54.0737 112.622 57.6721 112.622 61.5606C112.622 65.4492 115.11 69.0498 119.333 71.9838L104.201 79.5613C96.1953 74.6547 91.3906 68.3877 91.3906 61.5629C91.3906 54.7381 96.1953 48.471 104.201 43.5644L119.333 51.1397ZM127.457 47.0721L112.325 39.4945C122.127 35.4858 134.644 33.0801 148.272 33.0801C161.902 33.0801 174.419 35.4858 184.218 39.4945L169.087 47.0721C163.229 44.9589 156.038 43.7118 148.272 43.7118C140.506 43.7118 133.317 44.9566 127.457 47.0721Z"
        fill="#00FFC8" fill-opacity="0.2" />
    <path fill-rule="evenodd" clip-rule="evenodd"
        d="M127.605 75.6457C127.494 75.6049 127.372 75.6117 127.265 75.6661L112.133 83.2437C111.982 83.3208 111.889 83.4772 111.896 83.6473C111.903 83.8173 112.007 83.967 112.163 84.0305C122.008 88.0573 134.581 90.4766 148.275 90.4766C161.966 90.4766 174.539 88.0573 184.386 84.0305C184.543 83.967 184.649 83.8151 184.656 83.6473C184.663 83.4772 184.57 83.3185 184.418 83.2437L169.286 75.6661C169.18 75.6139 169.058 75.6049 168.947 75.6457C163.13 77.7453 155.991 78.981 148.279 78.981C140.567 78.981 133.422 77.7453 127.605 75.6457ZM127.487 76.5209L113.381 83.5838C122.999 87.359 135.117 89.6082 148.275 89.6082C161.432 89.6082 173.55 87.359 183.168 83.5838L169.062 76.5209C163.194 78.6114 156.021 79.8449 148.277 79.8449C140.529 79.8449 133.356 78.6137 127.487 76.5209ZM177.019 50.7522C176.883 50.8202 176.792 50.9562 176.781 51.1081C176.77 51.26 176.84 51.4074 176.967 51.4936C181.054 54.3323 183.492 57.7969 183.492 61.5607C183.492 65.3246 181.054 68.7891 176.967 71.6279C176.842 71.7141 176.772 71.8614 176.781 72.0134C176.792 72.1653 176.883 72.3013 177.019 72.3693L192.15 79.9469C192.284 80.0127 192.442 80.0059 192.569 79.9288C200.727 74.9269 205.586 68.5148 205.586 61.5607C205.586 54.6067 200.727 48.1946 192.569 43.1927C192.442 43.1156 192.284 43.1088 192.15 43.1746L177.019 50.7522ZM119.58 51.4959C119.705 51.4097 119.775 51.2623 119.766 51.1104C119.755 50.9585 119.664 50.8224 119.528 50.7544L104.397 43.1768C104.263 43.1111 104.105 43.1179 103.978 43.195C95.8199 48.1946 90.9609 54.609 90.9609 61.563C90.9609 68.5171 95.8199 74.9292 103.978 79.931C104.105 80.0081 104.263 80.0149 104.397 79.9492L119.528 72.3716C119.664 72.3036 119.755 72.1675 119.766 72.0156C119.777 71.8637 119.707 71.7163 119.58 71.6302C115.494 68.7914 113.055 65.3269 113.055 61.563C113.053 57.7992 115.494 54.3346 119.58 51.4959ZM192.322 44.0589L178.047 51.2079C182.045 54.1578 184.355 57.7334 184.355 61.563C184.355 65.3926 182.043 68.9705 178.047 71.9204L192.322 79.0694C200.055 74.2739 204.724 68.2019 204.724 61.5653C204.724 54.9264 200.055 48.8521 192.322 44.0589ZM104.222 44.0589C96.4901 48.8544 91.8213 54.9264 91.8213 61.563C91.8213 68.1996 96.4901 74.2717 104.222 79.0672L118.498 71.9181C114.5 68.9683 112.19 65.3926 112.19 61.5607C112.19 57.7311 114.502 54.1555 118.498 51.2056L104.222 44.0589ZM127.265 47.4599C127.372 47.5121 127.494 47.5211 127.605 47.4803C133.422 45.3807 140.561 44.145 148.272 44.145C155.984 44.145 163.123 45.3807 168.94 47.4803C169.051 47.5211 169.173 47.5143 169.28 47.4599L184.411 39.8823C184.563 39.8075 184.656 39.6488 184.649 39.4788C184.642 39.3087 184.538 39.1591 184.382 39.0956C174.537 35.0687 161.964 32.6494 148.27 32.6494C134.579 32.6494 122.005 35.0687 112.161 39.0956C112.004 39.1591 111.898 39.311 111.891 39.4788C111.884 39.6488 111.977 39.8075 112.129 39.8823L127.265 47.4599ZM183.166 39.54C173.548 35.7648 161.43 33.5156 148.272 33.5156C135.115 33.5156 122.999 35.7648 113.379 39.54L127.485 46.6029C133.354 44.5101 140.527 43.2789 148.272 43.2789C156.016 43.2789 163.191 44.5101 169.058 46.6029L183.166 39.54Z"
        fill="#00FFC8" fill-opacity="0.2" />
    <path fill-rule="evenodd" clip-rule="evenodd"
        d="M177.214 51.1397C181.437 54.0737 183.925 57.672 183.925 61.5606C183.925 62.107 183.875 62.6466 183.78 63.1817C183.191 59.9144 180.843 56.9011 177.214 54.3798V51.1397ZM119.334 51.1397V54.3798C115.705 56.9011 113.357 59.9144 112.768 63.1817C112.671 62.6489 112.623 62.107 112.623 61.5606C112.623 57.6743 115.111 54.0737 119.334 51.1397ZM169.088 50.3121C163.23 48.1966 156.039 46.9518 148.273 46.9518C140.507 46.9518 133.316 48.1989 127.458 50.3121V47.0697C133.318 44.9565 140.507 43.7095 148.273 43.7095C156.039 43.7095 163.23 44.9565 169.088 47.0697V50.3121Z"
        fill="url(#paint8_linear_2139:19354)" fill-opacity="0.3" />
    <path fill-rule="evenodd" clip-rule="evenodd"
        d="M177.459 50.7838C177.328 50.6931 177.156 50.6818 177.013 50.7566C176.87 50.8314 176.782 50.9788 176.782 51.1398V54.3799C176.782 54.5227 176.852 54.6542 176.968 54.7359C180.488 57.1824 182.784 60.0914 183.355 63.2589C183.391 63.4653 183.572 63.6149 183.781 63.6149C183.989 63.6149 184.17 63.4653 184.206 63.2589C184.306 62.6989 184.358 62.1343 184.358 61.5607C184.358 57.5474 181.82 53.813 177.459 50.7838ZM119.767 51.1398C119.767 50.9788 119.677 50.8314 119.536 50.7566C119.394 50.6818 119.221 50.6931 119.09 50.7838C114.732 53.8108 112.193 57.5474 112.193 61.5607C112.193 62.1321 112.245 62.6989 112.345 63.2589C112.381 63.4653 112.56 63.6149 112.771 63.6149C112.979 63.6149 113.158 63.4653 113.196 63.2589C113.767 60.0914 116.063 57.1824 119.584 54.7359C119.699 54.6542 119.769 54.5227 119.769 54.3799V51.1398H119.767ZM118.902 51.9833C115.526 54.5023 113.421 57.4771 113.097 60.6945C114.172 58.3047 116.167 56.0895 118.902 54.1554V51.9833ZM177.645 51.9833V54.1554C180.378 56.0895 182.375 58.307 183.45 60.6945C183.129 57.4771 181.023 54.5023 177.645 51.9833ZM127.028 50.3122V47.0721C127.028 46.8907 127.144 46.7275 127.314 46.6663C133.214 44.5372 140.453 43.2788 148.276 43.2788C156.096 43.2788 163.337 44.5349 169.238 46.6663C169.41 46.7275 169.523 46.8907 169.523 47.0721V50.3145C169.523 50.4551 169.455 50.5866 169.34 50.6682C169.224 50.7498 169.077 50.768 168.946 50.7203C163.129 48.6208 155.99 47.385 148.278 47.385C140.566 47.385 133.427 48.6208 127.61 50.7203C127.459 50.7748 127.289 50.7408 127.171 50.6319C127.076 50.548 127.026 50.4324 127.028 50.3122ZM168.658 47.3782C162.893 45.3399 155.861 44.1449 148.276 44.1449C140.691 44.1449 133.658 45.3399 127.893 47.3782V49.7023C133.685 47.6979 140.709 46.5212 148.276 46.5212C155.843 46.5212 162.866 47.6979 168.658 49.7023V47.3782Z"
        fill="#00FFC8" fill-opacity="0.2" />
    <path fill-rule="evenodd" clip-rule="evenodd"
        d="M112.326 45.2016V39.4946L127.458 47.0722V50.3146L114.76 43.9568C113.947 44.3446 113.162 44.7459 112.405 45.1608L112.326 45.2016Z"
        fill="url(#paint9_linear_2139:19354)" fill-opacity="0.3" />
    <path fill-rule="evenodd" clip-rule="evenodd"
        d="M114.757 44.4376C114.019 44.7936 113.303 45.1609 112.613 45.5395L112.533 45.5826C112.4 45.6575 112.237 45.6529 112.105 45.5758C111.974 45.4987 111.893 45.3559 111.893 45.204V39.497C111.893 39.3473 111.97 39.2068 112.099 39.1297C112.225 39.0503 112.386 39.0435 112.52 39.1115L127.651 46.6891C127.799 46.7617 127.891 46.9113 127.891 47.0768V50.3192C127.891 50.4688 127.814 50.6094 127.685 50.6865C127.559 50.7659 127.4 50.7727 127.264 50.7046L114.757 44.4376ZM127.026 49.614V47.3398L112.758 40.1953V44.4784C113.346 44.1655 113.953 43.8617 114.573 43.5647C114.693 43.508 114.834 43.508 114.954 43.5692L127.026 49.614Z"
        fill="#00FFC8" fill-opacity="0.2" />
    <path fill-rule="evenodd" clip-rule="evenodd"
        d="M184.221 45.2016V39.4946L169.09 47.0722V50.3146L181.787 43.9568C182.6 44.3446 183.386 44.7459 184.142 45.1608L184.221 45.2016Z"
        fill="url(#paint10_linear_2139:19354)" fill-opacity="0.3" />
    <path fill-rule="evenodd" clip-rule="evenodd"
        d="M181.789 44.4375L169.28 50.7C169.146 50.768 168.987 50.7589 168.858 50.6818C168.732 50.6025 168.652 50.4641 168.652 50.3145V47.0722C168.652 46.9089 168.745 46.7593 168.892 46.6844L184.024 39.1069C184.158 39.0388 184.316 39.0479 184.445 39.125C184.572 39.2044 184.651 39.3427 184.651 39.4923V45.1993C184.651 45.3512 184.57 45.4941 184.438 45.5712C184.307 45.6482 184.144 45.6528 184.01 45.578C184.01 45.578 183.931 45.5349 183.933 45.5349C183.243 45.1608 182.527 44.7934 181.789 44.4375ZM183.789 44.4783V40.1952L169.52 47.3397V49.6139L181.592 43.5691C181.712 43.5101 181.85 43.5078 181.97 43.5645C182.593 43.8616 183.2 44.1654 183.789 44.4783Z"
        fill="#00FFC8" fill-opacity="0.2" />
    <path fill-rule="evenodd" clip-rule="evenodd"
        d="M184.221 83.6291V104.215C174.419 108.223 161.903 110.629 148.275 110.629H147.908C140.848 110.606 134.089 109.94 127.861 108.704C122.189 107.62 116.954 106.09 112.328 104.197V83.6314C122.13 87.6401 134.646 90.0458 148.275 90.0458C161.903 90.0435 174.419 87.6378 184.221 83.6291ZM192.345 79.5614C200.351 74.6548 205.156 68.3878 205.156 61.563V82.1485C205.156 88.9733 200.351 95.2404 192.345 100.147V79.5614Z"
        fill="url(#paint11_linear_2139:19354)" fill-opacity="0.3" />
    <path fill-rule="evenodd" clip-rule="evenodd"
        d="M184.654 83.6291C184.654 83.484 184.582 83.3502 184.464 83.2708C184.344 83.1915 184.192 83.1756 184.059 83.23C174.302 87.2206 161.843 89.6127 148.275 89.6127C134.708 89.6127 122.248 87.2206 112.492 83.23C112.358 83.1756 112.207 83.1915 112.087 83.2708C111.967 83.3525 111.896 83.4862 111.896 83.6291V104.194C111.896 104.371 112.003 104.528 112.166 104.596C116.817 106.5 122.079 108.037 127.78 109.128C134.034 110.368 140.817 111.039 147.909 111.062H148.278C161.969 111.062 174.542 108.643 184.389 104.616C184.552 104.55 184.659 104.391 184.659 104.215V83.6291H184.654ZM183.789 84.2707C174.035 88.1525 161.693 90.4766 148.273 90.4766C134.853 90.4766 122.511 88.1525 112.757 84.2707V103.904C117.292 105.738 122.405 107.219 127.941 108.278C134.145 109.509 140.874 110.173 147.904 110.196H148.271C161.713 110.196 174.069 107.849 183.787 103.922V84.2707H183.789ZM192.119 79.1918C191.99 79.2712 191.913 79.4095 191.913 79.5614V100.147C191.913 100.303 191.997 100.448 192.135 100.526C192.271 100.603 192.439 100.598 192.572 100.517C200.73 95.5169 205.589 89.1025 205.589 82.1485V61.563C205.589 61.3249 205.397 61.1299 205.157 61.1299C204.919 61.1299 204.724 61.3226 204.724 61.563C204.724 68.2563 199.974 74.3782 192.119 79.1918ZM204.724 66.5988C203.008 71.5417 198.812 76.0628 192.778 79.804V99.3669C200.239 94.6191 204.724 88.6536 204.724 82.1485V66.5988Z"
        fill="#00FFC8" fill-opacity="0.2" />
    <path fill-rule="evenodd" clip-rule="evenodd"
        d="M104.201 100.115C96.1907 95.2336 91.3906 88.9688 91.3906 82.1485V61.563C91.3906 68.3878 96.1953 74.6548 104.201 79.5614V100.115Z"
        fill="url(#paint12_linear_2139:19354)" fill-opacity="0.3" />
    <path fill-rule="evenodd" clip-rule="evenodd"
        d="M90.959 61.563C90.959 61.3249 91.1514 61.1299 91.3914 61.1299C91.6292 61.1299 91.8239 61.3226 91.8239 61.563C91.8239 68.2585 96.5742 74.3782 104.429 79.1918C104.558 79.2712 104.635 79.4095 104.635 79.5614V100.115C104.635 100.272 104.551 100.417 104.415 100.492C104.279 100.569 104.112 100.564 103.978 100.485C95.8134 95.5079 90.9612 89.098 90.9612 82.1485V61.563H90.959ZM91.8239 66.5988V82.1485C91.8239 88.6513 96.3047 94.6123 103.77 99.3375V79.804C97.7357 76.0606 93.5379 71.5394 91.8239 66.5988Z"
        fill="#00FFC8" fill-opacity="0.2" />
    <path fill-rule="evenodd" clip-rule="evenodd"
        d="M188.783 94.8549V81.3459L177.215 75.5527V71.9839L192.347 79.5615V100.115L185.187 96.5305C186.403 96.0068 187.603 95.4513 188.783 94.8549Z"
        fill="url(#paint13_linear_2139:19354)" fill-opacity="0.3" />
    <path fill-rule="evenodd" clip-rule="evenodd"
        d="M188.349 81.6134L177.019 75.9404C176.872 75.8678 176.781 75.7182 176.781 75.5527V71.9838C176.781 71.8342 176.858 71.6936 176.985 71.6165C177.112 71.5371 177.273 71.5303 177.406 71.5983L192.538 79.1759C192.685 79.2485 192.776 79.3981 192.776 79.5636V100.117C192.776 100.267 192.699 100.408 192.572 100.485C192.445 100.564 192.284 100.571 192.151 100.503L184.991 96.9182C184.84 96.8433 184.747 96.6869 184.754 96.5191C184.758 96.3513 184.86 96.1994 185.016 96.1336C186.141 95.6484 187.255 95.136 188.351 94.5896V81.6134H188.349ZM186.205 96.5554L191.913 99.4145V79.8289L177.644 72.6844V75.2851L188.974 80.9581C189.121 81.0306 189.212 81.1803 189.212 81.3458V94.8548C189.212 95.0181 189.121 95.1677 188.974 95.2403C188.064 95.7028 187.14 96.1404 186.205 96.5554Z"
        fill="#00FFC8" fill-opacity="0.2" />
    <path fill-rule="evenodd" clip-rule="evenodd"
        d="M107.765 94.8549V81.3459L119.333 75.5527V71.9839L104.203 79.5615V100.115L111.363 96.5305C110.147 96.0068 108.947 95.4513 107.765 94.8549Z"
        fill="url(#paint14_linear_2139:19354)" fill-opacity="0.3" />
    <path fill-rule="evenodd" clip-rule="evenodd"
        d="M108.196 94.5873C109.292 95.136 110.404 95.6484 111.531 96.1314C111.685 96.1972 111.787 96.3491 111.794 96.5169C111.798 96.6846 111.706 96.8411 111.556 96.9159L104.397 100.501C104.263 100.569 104.105 100.56 103.976 100.482C103.849 100.403 103.77 100.265 103.77 100.115V79.5614C103.77 79.3982 103.862 79.2485 104.007 79.1737L119.139 71.5961C119.273 71.5281 119.431 71.5372 119.56 71.6143C119.687 71.6936 119.766 71.8319 119.766 71.9816V75.5504C119.766 75.7137 119.673 75.8633 119.526 75.9381L108.196 81.6111V94.5873ZM118.901 75.2851V72.6845L104.632 79.829V99.4146L110.34 96.5554C109.405 96.1382 108.481 95.7006 107.567 95.2403C107.422 95.1655 107.329 95.0181 107.329 94.8549V81.3458C107.329 81.1826 107.422 81.0329 107.567 80.9581L118.901 75.2851Z"
        fill="#00FFC8" fill-opacity="0.2" />
    <path fill-rule="evenodd" clip-rule="evenodd"
        d="M205.157 49.6685C205.157 65.3882 179.669 78.149 148.276 78.149C116.883 78.149 91.3945 65.3859 91.3945 49.6685H205.157Z"
        fill="#00FFC8" fill-opacity="0.2" />
    <path fill-rule="evenodd" clip-rule="evenodd"
        d="M205.589 49.6662C205.589 49.4281 205.394 49.2354 205.156 49.2354H91.3914C91.1537 49.2354 90.9612 49.4281 90.959 49.6662V49.6684C90.959 56.0828 95.0866 62.0347 102.128 66.8415C112.539 73.9498 129.335 78.582 148.273 78.582C167.211 78.582 184.006 73.9498 194.417 66.8415C201.459 62.0347 205.589 56.0828 205.589 49.6662ZM204.717 50.1015H91.8307C92.0141 56.0964 96.0104 61.6175 102.617 66.1273C112.915 73.1607 129.539 77.7159 148.275 77.7159C167.011 77.7159 183.633 73.1584 193.933 66.1273C200.537 61.6152 204.534 56.0942 204.717 50.1015Z"
        fill="#00FFC8" fill-opacity="0.2" />
    <path fill-rule="evenodd" clip-rule="evenodd"
        d="M99.6776 36.1592C99.8972 22.8225 121.588 12.0298 148.274 12.0298C174.96 12.0298 196.649 22.8225 196.871 36.1592H205.158C205.158 51.879 179.67 64.6398 148.276 64.6398C116.883 64.6398 91.3906 51.879 91.3906 36.1592H99.6776Z"
        fill="#00FFC8" fill-opacity="0.2" />
    <path fill-rule="evenodd" clip-rule="evenodd"
        d="M99.2596 35.7261C99.5222 30.4318 103.068 25.5252 108.95 21.5459C117.862 15.5192 132.161 11.5967 148.273 11.5967C164.385 11.5967 178.683 15.5192 187.595 21.5459C193.48 25.5252 197.023 30.4318 197.286 35.7261H205.154C205.392 35.7261 205.584 35.9188 205.586 36.1569C205.586 36.1569 205.586 36.1569 205.586 36.1592C205.586 42.5736 201.459 48.5232 194.417 53.3323C184.006 60.4405 167.211 65.0728 148.273 65.0728C129.335 65.0728 112.539 60.4405 102.128 53.3323C95.0866 48.5232 90.959 42.5713 90.959 36.1592V36.1569C90.959 35.9188 91.1537 35.7261 91.3914 35.7261H99.2596ZM204.717 36.5923H196.869C196.634 36.5923 196.441 36.4041 196.437 36.166C196.351 30.9556 192.878 26.1623 187.111 22.2624C178.31 16.3106 164.183 12.4628 148.273 12.4628C132.362 12.4628 118.236 16.3128 109.435 22.2624C103.668 26.1623 100.195 30.9556 100.109 36.166C100.104 36.4018 99.9116 36.5923 99.6762 36.5923H91.8284C92.0118 42.5872 96.0082 48.1083 102.615 52.6181C112.913 59.6515 129.536 64.2089 148.273 64.2089C167.009 64.2089 183.631 59.6515 193.93 52.6181C200.537 48.106 204.534 42.5849 204.717 36.5923Z"
        fill="#00FFC8" fill-opacity="0.2" />
    <path fill-rule="evenodd" clip-rule="evenodd"
        d="M177.214 25.9426C181.437 28.8766 183.925 32.4749 183.925 36.3657C183.925 36.9121 183.875 37.4518 183.78 37.9869C183.191 34.7196 180.843 31.7063 177.214 29.1849V25.9426ZM119.334 25.9426V29.1827C115.705 31.704 113.357 34.7173 112.768 37.9846C112.671 37.4518 112.623 36.9099 112.623 36.3634C112.623 32.4749 115.111 28.8743 119.334 25.9426ZM169.088 25.115C163.23 22.9995 156.039 21.7547 148.273 21.7547C140.507 21.7547 133.316 23.0018 127.458 25.115V21.8749C133.318 19.7594 140.507 18.5146 148.273 18.5146C156.039 18.5146 163.23 19.7617 169.088 21.8749V25.115Z"
        fill="url(#paint15_linear_2139:19354)" fill-opacity="0.3" />
    <path fill-rule="evenodd" clip-rule="evenodd"
        d="M177.459 25.5864C177.328 25.4934 177.156 25.4844 177.013 25.5592C176.87 25.634 176.782 25.7814 176.782 25.9424V29.1825C176.782 29.3253 176.852 29.4568 176.968 29.5384C180.488 31.9849 182.784 34.894 183.355 38.0615C183.391 38.2678 183.572 38.4175 183.781 38.4175C183.989 38.4175 184.17 38.2678 184.206 38.0615C184.306 37.5015 184.358 36.9369 184.358 36.3632C184.358 32.35 181.82 28.6133 177.459 25.5864ZM119.767 25.9424C119.767 25.7814 119.677 25.634 119.536 25.5592C119.394 25.4844 119.221 25.4957 119.09 25.5864C114.732 28.6133 112.193 32.35 112.193 36.3632C112.193 36.9346 112.245 37.5015 112.345 38.0615C112.381 38.2678 112.56 38.4175 112.771 38.4175C112.979 38.4175 113.158 38.2678 113.196 38.0615C113.767 34.894 116.063 31.9849 119.584 29.5384C119.699 29.4568 119.769 29.3253 119.769 29.1825V25.9424H119.767ZM118.902 26.7858C115.526 29.3049 113.421 32.2797 113.097 35.4971C114.172 33.1073 116.167 30.8921 118.902 28.958V26.7858ZM177.645 26.7858V28.958C180.378 30.8921 182.375 33.1096 183.45 35.4971C183.129 32.2797 181.023 29.3049 177.645 26.7858ZM127.028 25.1148V21.8747C127.028 21.691 127.144 21.53 127.314 21.4666C133.214 19.3375 140.453 18.0791 148.276 18.0791C156.096 18.0791 163.337 19.3352 169.238 21.4643C169.41 21.5255 169.523 21.6888 169.523 21.8724V25.1125C169.523 25.2531 169.455 25.3846 169.34 25.4662C169.224 25.5478 169.077 25.566 168.946 25.5184C163.129 23.4188 155.99 22.1831 148.278 22.1831C140.566 22.1831 133.427 23.4188 127.61 25.5184C127.459 25.5728 127.289 25.5388 127.171 25.4299C127.076 25.3506 127.026 25.2327 127.028 25.1148ZM168.658 22.1785C162.893 20.1401 155.861 18.9452 148.276 18.9452C140.691 18.9452 133.658 20.1401 127.893 22.1785V24.5026C133.685 22.4982 140.709 21.3215 148.276 21.3215C155.843 21.3215 162.866 22.4982 168.658 24.5026V22.1785Z"
        fill="#00FFC8" fill-opacity="0.2" />
    <path fill-rule="evenodd" clip-rule="evenodd"
        d="M112.326 20.0044V14.2974L127.458 21.8749V25.115L114.76 18.7573C113.947 19.145 113.162 19.5463 112.405 19.9613L112.326 20.0044Z"
        fill="url(#paint16_linear_2139:19354)" fill-opacity="0.3" />
    <path fill-rule="evenodd" clip-rule="evenodd"
        d="M114.757 19.2379C114.019 19.5939 113.303 19.9612 112.613 20.3398L112.533 20.3829C112.4 20.4555 112.237 20.4532 112.105 20.3761C111.974 20.299 111.893 20.1562 111.893 20.0043V14.2973C111.893 14.1476 111.97 14.0071 112.099 13.93C112.225 13.8506 112.386 13.8438 112.52 13.9118L127.651 21.4894C127.799 21.562 127.891 21.7116 127.891 21.8771V25.1172C127.891 25.2669 127.814 25.4074 127.685 25.4845C127.559 25.5639 127.4 25.5707 127.264 25.5027L114.757 19.2379ZM127.026 24.4143V22.1401L112.758 14.9956V19.2787C113.346 18.9658 113.953 18.662 114.573 18.365C114.693 18.3083 114.834 18.3083 114.954 18.3695L127.026 24.4143Z"
        fill="#00FFC8" fill-opacity="0.2" />
    <path fill-rule="evenodd" clip-rule="evenodd"
        d="M184.221 20.0044V14.2974L169.09 21.8749V25.115L181.787 18.7573C182.6 19.145 183.386 19.5463 184.142 19.9613L184.221 20.0044Z"
        fill="url(#paint17_linear_2139:19354)" fill-opacity="0.3" />
    <path fill-rule="evenodd" clip-rule="evenodd"
        d="M181.789 19.2379L169.28 25.5004C169.146 25.5662 168.987 25.5594 168.858 25.4823C168.732 25.4029 168.652 25.2646 168.652 25.115V21.8749C168.652 21.7116 168.745 21.562 168.892 21.4872L184.024 13.9096C184.158 13.8416 184.316 13.8506 184.445 13.9277C184.574 14.0048 184.651 14.1454 184.651 14.295V20.002C184.651 20.154 184.57 20.2968 184.438 20.3739C184.307 20.451 184.144 20.4532 184.01 20.3807C184.01 20.3807 183.931 20.3376 183.933 20.3376C183.243 19.9612 182.527 19.5939 181.789 19.2379ZM183.789 19.2787V14.9957L169.52 22.1402V24.4144L181.592 18.3695C181.712 18.3106 181.85 18.3083 181.97 18.365C182.593 18.662 183.2 18.9681 183.789 19.2787Z"
        fill="#00FFC8" fill-opacity="0.2" />
    <path fill-rule="evenodd" clip-rule="evenodd"
        d="M184.221 58.4316V79.0172C174.419 83.0259 161.903 85.4316 148.275 85.4316H147.908C140.848 85.4089 134.089 84.7423 127.861 83.5066C122.189 82.4228 116.954 80.8923 112.328 78.999V58.4339C122.13 62.4426 134.646 64.8483 148.275 64.8483C161.903 64.8438 174.419 62.4381 184.221 58.4316Z"
        fill="url(#paint18_linear_2139:19354)" fill-opacity="0.3" />
    <path fill-rule="evenodd" clip-rule="evenodd"
        d="M184.654 58.4317C184.654 58.2866 184.582 58.1528 184.464 58.0735C184.344 57.9918 184.192 57.9782 184.059 58.0327C174.302 62.0232 161.843 64.4153 148.275 64.4153C134.708 64.4153 122.248 62.0232 112.492 58.0327C112.358 57.9782 112.207 57.9941 112.087 58.0735C111.967 58.1528 111.896 58.2889 111.896 58.4317V78.9968C111.896 79.1714 112.003 79.3301 112.166 79.3981C116.817 81.3027 122.079 82.84 127.78 83.9306C134.034 85.1709 140.817 85.842 147.909 85.8647H148.278C161.969 85.8647 174.542 83.4454 184.389 79.4185C184.552 79.3528 184.659 79.1941 184.659 79.0172V58.4317H184.654ZM183.789 59.0711C174.035 62.9529 161.693 65.2769 148.273 65.2769C134.853 65.2769 122.511 62.9529 112.757 59.0711V78.7043C117.292 80.5386 122.405 82.0192 127.941 83.0781C134.145 84.3093 140.874 84.9736 147.904 84.9963H148.271C161.713 84.9963 174.069 82.6496 183.787 78.7247V59.0711H183.789Z"
        fill="#00FFC8" fill-opacity="0.2" />
    <path fill-rule="evenodd" clip-rule="evenodd"
        d="M192.346 54.3617C200.352 49.4551 205.157 43.1881 205.157 36.3633V56.9488C205.157 63.7736 200.352 70.0407 192.346 74.9473V54.3617Z"
        fill="url(#paint19_linear_2139:19354)" fill-opacity="0.3" />
    <path fill-rule="evenodd" clip-rule="evenodd"
        d="M192.12 53.9946C191.991 54.0739 191.914 54.2122 191.914 54.3641V74.9497C191.914 75.1061 191.998 75.2512 192.136 75.3283C192.272 75.4054 192.439 75.4009 192.573 75.3192C200.731 70.3197 205.59 63.9053 205.59 56.9512V36.3657C205.59 36.1276 205.397 35.9326 205.157 35.9326C204.92 35.9326 204.725 36.1253 204.725 36.3657C204.725 43.059 199.975 49.1786 192.12 53.9946ZM204.725 41.3993C203.009 46.3421 198.813 50.8633 192.779 54.6045V74.1674C200.24 69.4195 204.725 63.4541 204.725 56.9489V41.3993Z"
        fill="#00FFC8" fill-opacity="0.2" />
    <path fill-rule="evenodd" clip-rule="evenodd"
        d="M104.201 74.9179C96.1907 70.0363 91.3906 63.7715 91.3906 56.9512V36.3657C91.3906 43.1905 96.1953 49.4576 104.201 54.3642V74.9179Z"
        fill="url(#paint20_linear_2139:19354)" fill-opacity="0.3" />
    <path fill-rule="evenodd" clip-rule="evenodd"
        d="M90.959 36.3632C90.959 36.1252 91.1514 35.9302 91.3914 35.9302C91.6292 35.9302 91.8239 36.1229 91.8239 36.3632C91.8239 43.0588 96.5742 49.1785 104.429 53.9921C104.558 54.0715 104.635 54.2098 104.635 54.3617V74.9155C104.635 75.0719 104.551 75.217 104.415 75.2919C104.279 75.3689 104.112 75.3644 103.978 75.285C95.8134 70.3082 90.9612 63.8983 90.9612 56.9488V36.3632H90.959ZM91.8239 41.3991V56.9488C91.8239 63.4516 96.3047 69.4125 103.77 74.1378V54.602C97.7357 50.8631 93.5379 46.342 91.8239 41.3991Z"
        fill="#00FFC8" fill-opacity="0.2" />
    <path fill-rule="evenodd" clip-rule="evenodd"
        d="M188.783 69.6552V56.1462L177.215 50.353V46.7842L192.347 54.3618V74.9156L185.187 71.3308C186.403 70.8093 187.603 70.2538 188.783 69.6552Z"
        fill="url(#paint21_linear_2139:19354)" fill-opacity="0.3" />
    <path fill-rule="evenodd" clip-rule="evenodd"
        d="M188.349 56.4137L177.019 50.7407C176.872 50.6681 176.781 50.5185 176.781 50.353V46.7841C176.781 46.6345 176.858 46.4939 176.985 46.4168C177.112 46.3374 177.273 46.3306 177.406 46.3986L192.538 53.9762C192.685 54.0488 192.776 54.1984 192.776 54.3639V74.9177C192.776 75.0674 192.699 75.208 192.572 75.285C192.445 75.3644 192.284 75.3712 192.151 75.3032L184.991 71.7185C184.84 71.6436 184.747 71.4872 184.754 71.3194C184.758 71.1516 184.86 70.9997 185.016 70.9339C186.141 70.4487 187.255 69.9363 188.351 69.3899V56.4137H188.349ZM186.205 71.3579L191.913 74.2171V54.6315L177.644 47.487V50.0877L188.974 55.7606C189.121 55.8332 189.212 55.9829 189.212 56.1484V69.6574C189.212 69.8207 189.121 69.9703 188.974 70.0429C188.064 70.5031 187.14 70.9407 186.205 71.3579Z"
        fill="#00FFC8" fill-opacity="0.2" />
    <path fill-rule="evenodd" clip-rule="evenodd"
        d="M107.765 69.6552V56.1462L119.333 50.353V46.7842L104.203 54.3618V74.9156L111.363 71.3308C110.147 70.8093 108.947 70.2538 107.765 69.6552Z"
        fill="url(#paint22_linear_2139:19354)" fill-opacity="0.3" />
    <path fill-rule="evenodd" clip-rule="evenodd"
        d="M108.196 69.3901C109.292 69.9388 110.404 70.4512 111.531 70.9341C111.685 70.9999 111.787 71.1518 111.794 71.3196C111.798 71.4874 111.706 71.6438 111.556 71.7187L104.397 75.3034C104.263 75.3714 104.105 75.3623 103.976 75.2852C103.849 75.2059 103.77 75.0676 103.77 74.9179V54.3641C103.77 54.2009 103.862 54.0513 104.007 53.9764L119.139 46.3989C119.273 46.3308 119.431 46.3399 119.56 46.417C119.687 46.4963 119.766 46.6347 119.766 46.7843V50.3532C119.766 50.5164 119.673 50.6661 119.526 50.7409L108.196 56.4139V69.3901ZM118.901 50.0879V47.4872L104.632 54.6317V74.2173L110.34 71.3581C109.405 70.9409 108.481 70.5033 107.567 70.0431C107.422 69.9705 107.329 69.8209 107.329 69.6576V56.1486C107.329 55.9853 107.422 55.8357 107.567 55.7609L118.901 50.0879Z"
        fill="#00FFC8" fill-opacity="0.2" />
    <path fill-rule="evenodd" clip-rule="evenodd"
        d="M127.457 50.8541C133.315 52.9696 140.506 54.2144 148.272 54.2144C156.038 54.2144 163.229 52.9673 169.087 50.8541L184.218 58.4317C174.417 62.4404 161.9 64.8461 148.272 64.8461C134.641 64.8461 122.125 62.4404 112.325 58.4317L127.457 50.8541ZM177.213 25.9425L192.345 18.3649C200.351 23.2715 205.155 29.5385 205.155 36.3633C205.155 43.1881 200.351 49.4552 192.345 54.3618L177.213 46.7842C181.436 43.8502 183.924 40.2519 183.924 36.3633C183.924 32.4748 181.436 28.8742 177.213 25.9425ZM119.333 25.9425C115.11 28.8765 112.622 32.4748 112.622 36.3656C112.622 40.2542 115.11 43.8548 119.333 46.7865L104.201 54.3618C96.1953 49.4552 91.3906 43.1881 91.3906 36.3633C91.3906 29.5385 96.1953 23.2715 104.201 18.3649L119.333 25.9425ZM148.272 22.6797C163.356 22.6797 175.603 28.813 175.603 36.3656C175.603 43.9182 163.356 50.0515 148.272 50.0515C133.188 50.0515 120.941 43.9182 120.941 36.3656C120.941 28.8107 133.188 22.6797 148.272 22.6797ZM127.457 21.8748L112.325 14.2972C122.127 10.2885 134.644 7.88281 148.272 7.88281C161.902 7.88281 174.419 10.2885 184.218 14.2972L169.087 21.8748C163.229 19.7593 156.038 18.5145 148.272 18.5145C140.506 18.5123 133.317 19.7593 127.457 21.8748Z"
        fill="url(#paint23_linear_2139:19354)" fill-opacity="0.3" />
    <path fill-rule="evenodd" clip-rule="evenodd"
        d="M127.605 50.4463C127.494 50.4055 127.372 50.4123 127.265 50.4667L112.133 58.0443C111.982 58.1191 111.889 58.2778 111.896 58.4479C111.903 58.6179 112.007 58.7676 112.163 58.8311C122.008 62.8579 134.581 65.2772 148.275 65.2772C161.966 65.2772 174.539 62.8579 184.386 58.8311C184.543 58.7676 184.649 58.6157 184.656 58.4479C184.663 58.2778 184.57 58.1214 184.418 58.0443L169.286 50.4667C169.18 50.4146 169.058 50.4055 168.947 50.4463C163.13 52.5459 155.991 53.7816 148.279 53.7816C140.567 53.7816 133.422 52.5459 127.605 50.4463ZM127.487 51.3238L113.381 58.3867C122.999 62.1618 135.117 64.4111 148.275 64.4111C161.432 64.4111 173.55 62.1618 183.168 58.3867L169.062 51.3238C163.194 53.4166 156.021 54.6478 148.277 54.6478C140.529 54.6478 133.356 53.4143 127.487 51.3238ZM177.019 25.555C176.883 25.6231 176.792 25.7591 176.781 25.911C176.77 26.0629 176.84 26.2103 176.967 26.2965C181.054 29.1352 183.492 32.5998 183.492 36.3636C183.492 40.1275 181.054 43.592 176.967 46.4308C176.842 46.5169 176.772 46.6643 176.781 46.8162C176.792 46.9682 176.883 47.1042 177.019 47.1722L192.15 54.7498C192.284 54.8155 192.442 54.811 192.569 54.7317C200.727 49.7321 205.586 43.3177 205.586 36.3636C205.586 29.4096 200.727 22.9952 192.569 17.9956C192.442 17.9185 192.284 17.9117 192.15 17.9775L177.019 25.555ZM119.58 26.2987C119.705 26.2103 119.775 26.0652 119.766 25.911C119.755 25.7591 119.664 25.6231 119.528 25.555L104.397 17.9775C104.263 17.9094 104.105 17.9162 103.978 17.9956C95.8199 22.9952 90.9609 29.4096 90.9609 36.3636C90.9609 43.3177 95.8199 49.7298 103.978 54.7317C104.105 54.8087 104.263 54.8155 104.397 54.7498L119.528 47.1722C119.664 47.1042 119.755 46.9682 119.766 46.8162C119.777 46.6643 119.707 46.5169 119.58 46.4308C115.494 43.592 113.055 40.1275 113.055 36.3636C113.053 32.5998 115.494 29.1375 119.58 26.2987ZM192.322 18.8595L178.047 26.0062C182.045 28.9561 184.355 32.5318 184.355 36.3636C184.355 40.1932 182.043 43.7689 178.047 46.7187L192.322 53.8678C200.055 49.0723 204.724 43.0002 204.724 36.3636C204.724 29.727 200.055 23.655 192.322 18.8595ZM104.222 18.8595C96.4901 23.655 91.8213 29.727 91.8213 36.3636C91.8213 43.0002 96.4901 49.0723 104.222 53.8678L118.498 46.721C114.5 43.7711 112.19 40.1955 112.19 36.3659C112.19 32.5363 114.502 28.9606 118.498 26.0085L104.222 18.8595ZM148.272 22.2469C139.121 22.2469 131.006 24.4916 125.972 27.9267C122.517 30.2871 120.507 33.2165 120.507 36.3636C120.507 39.5107 122.517 42.4425 125.972 44.8005C131.003 48.2356 139.118 50.4803 148.272 50.4803C157.424 50.4803 165.542 48.2356 170.57 44.8005C174.025 42.4402 176.036 39.5107 176.036 36.3636C176.036 33.2165 174.025 30.2848 170.57 27.9267C165.542 24.4916 157.424 22.2469 148.272 22.2469ZM148.272 23.1108C157.223 23.1108 165.166 25.2807 170.083 28.6409C173.262 30.8108 175.171 33.4682 175.171 36.3636C175.171 39.2591 173.262 41.9164 170.083 44.0863C165.163 47.4466 157.221 49.6164 148.272 49.6164C139.322 49.6164 131.379 47.4466 126.461 44.0863C123.282 41.9164 121.374 39.2591 121.374 36.3636C121.374 33.4682 123.282 30.8108 126.461 28.6409C131.381 25.2829 139.324 23.1108 148.272 23.1108ZM127.265 22.2605C127.372 22.3127 127.494 22.3218 127.605 22.2809C133.422 20.1813 140.561 18.9456 148.272 18.9456C155.984 18.9456 163.123 20.1813 168.94 22.2809C169.051 22.3218 169.173 22.315 169.28 22.2605L184.411 14.683C184.563 14.6081 184.656 14.4494 184.649 14.2794C184.642 14.1093 184.538 13.9597 184.382 13.8939C174.537 9.86705 161.964 7.44775 148.27 7.44775C134.579 7.44775 122.005 9.86705 112.161 13.8939C112.004 13.9574 111.898 14.107 111.891 14.2771C111.884 14.4471 111.977 14.6036 112.129 14.6807L127.265 22.2605ZM183.166 14.3406C173.548 10.5654 161.43 8.31616 148.272 8.31616C135.115 8.31616 122.999 10.5654 113.379 14.3406L127.485 21.4035C133.354 19.3129 140.527 18.0795 148.272 18.0795C156.016 18.0795 163.191 19.3107 169.058 21.4035L183.166 14.3406Z"
        fill="#00FFC8" fill-opacity="0.2" />
    <path fill-rule="evenodd" clip-rule="evenodd"
        d="M175.606 39.3407H175.601C175.603 39.4132 175.606 39.4835 175.606 39.5561C175.606 47.1087 163.359 53.242 148.275 53.242C133.19 53.242 120.943 47.111 120.943 39.5561V36.3636V36.4067C120.991 43.9389 133.22 50.0472 148.275 50.0472C163.359 50.0472 175.606 43.914 175.606 36.3613V39.3407Z"
        fill="url(#paint24_linear_2139:19354)" fill-opacity="0.3" />
    <path fill-rule="evenodd" clip-rule="evenodd"
        d="M175.174 36.3631C175.174 36.125 175.367 35.93 175.607 35.93C175.845 35.93 176.039 36.1227 176.039 36.3631V39.3401C176.039 39.356 176.039 39.3696 176.037 39.3832C176.039 39.4399 176.039 39.4966 176.039 39.5533C176.039 42.7004 174.029 45.6321 170.574 47.9902C165.542 51.4252 157.428 53.67 148.276 53.67C139.124 53.67 131.009 51.4252 125.976 47.9902C122.52 45.6298 120.51 42.7004 120.51 39.5533V36.3608C120.51 36.1227 120.702 35.9277 120.942 35.9277C121.18 35.9277 121.375 36.1205 121.375 36.3585V36.4016C121.393 39.2903 123.311 41.9385 126.492 44.1016C131.414 47.4505 139.343 49.6114 148.276 49.6114C157.226 49.6114 165.169 47.4415 170.087 44.0812C173.266 41.9159 175.174 39.2585 175.174 36.3631ZM121.384 39.9047C121.531 42.6641 123.412 45.1945 126.462 47.2782C131.382 50.6385 139.325 52.8083 148.273 52.8083C157.224 52.8083 165.167 50.6385 170.084 47.2782C173.134 45.1945 175.016 42.6641 175.163 39.9047C174.262 41.6959 172.688 43.3557 170.571 44.8C165.54 48.2351 157.425 50.4798 148.273 50.4798C139.14 50.4798 131.038 48.2441 126.005 44.8204C123.874 43.3715 122.289 41.705 121.384 39.9047Z"
        fill="#00FFC8" fill-opacity="0.2" />
    <path fill-rule="evenodd" clip-rule="evenodd"
        d="M34.2445 33.7921L0.933594 17.1133V50.4709L34.2445 67.1498V33.7921Z"
        fill="url(#paint25_linear_2139:19354)" fill-opacity="0.3" />
    <path fill-rule="evenodd" clip-rule="evenodd"
        d="M34.6778 33.7921C34.6778 33.6289 34.585 33.4792 34.4401 33.4044L1.12687 16.7256C0.993285 16.6598 0.834791 16.6666 0.705731 16.7437C0.576672 16.8208 0.501953 16.9636 0.501953 17.1133V50.471C0.501953 50.6342 0.594785 50.7839 0.739694 50.8587L34.0506 67.5375C34.1842 67.6055 34.3427 67.5987 34.4718 67.5194C34.6008 67.44 34.6756 67.3017 34.6756 67.1521V33.7921H34.6778ZM1.36688 50.2034L33.8152 66.4492V34.0597L1.36688 17.8139V50.2034Z"
        fill="#00FFC8" fill-opacity="0.2" />
    <path fill-rule="evenodd" clip-rule="evenodd"
        d="M34.2461 33.7921L67.5593 17.1133V50.4709L34.2461 67.1498V33.7921Z"
        fill="url(#paint26_linear_2139:19354)" fill-opacity="0.3" />
    <path fill-rule="evenodd" clip-rule="evenodd"
        d="M34.0522 33.4043C33.905 33.4769 33.8145 33.6265 33.8145 33.792V67.1497C33.8145 67.2993 33.8914 67.4399 34.0182 67.517C34.145 67.5964 34.3058 67.6032 34.4394 67.5351L67.7503 50.8563C67.8975 50.7838 67.9881 50.6341 67.9881 50.4686V17.1132C67.9881 16.9636 67.9111 16.8252 67.782 16.7459C67.6552 16.6665 67.4945 16.6597 67.3609 16.7277L34.0522 33.4043ZM34.6771 34.0596V66.4491L67.1254 50.2033V17.8138L34.6771 34.0596Z"
        fill="#00FFC8" fill-opacity="0.2" />
    <path fill-rule="evenodd" clip-rule="evenodd"
        d="M34.2445 0.43457L0.933594 17.1134L34.2445 33.7922L67.5577 17.1134L34.2445 0.43457Z"
        fill="url(#paint27_linear_2139:19354)" fill-opacity="0.3" />
    <path fill-rule="evenodd" clip-rule="evenodd"
        d="M34.4401 0.0459144C34.3178 -0.0153048 34.1752 -0.0153048 34.0529 0.0459144L0.739694 16.7247C0.594785 16.7996 0.501953 16.9492 0.501953 17.1125C0.501953 17.2757 0.594785 17.4254 0.739694 17.5002L34.0506 34.179C34.1729 34.2402 34.3156 34.2402 34.4378 34.179L67.7488 17.5002C67.8959 17.4276 67.9865 17.278 67.9865 17.1125C67.9865 16.9492 67.8937 16.7996 67.7488 16.7247L34.4401 0.0459144ZM1.90123 17.1125L34.2476 33.3083L66.594 17.1125L34.2454 0.916588L1.90123 17.1125Z"
        fill="#00FFC8" fill-opacity="0.2" />
    <path fill-rule="evenodd" clip-rule="evenodd"
        d="M34.2462 6.00781L12.0684 17.1134L34.2462 28.2168L56.4241 17.1134L34.2462 6.00781Z"
        fill="#00FFC8" fill-opacity="0.2" />
    <path fill-rule="evenodd" clip-rule="evenodd"
        d="M34.4395 5.62209C34.3172 5.56087 34.1746 5.56087 34.0523 5.62209L11.8745 16.7254C11.7273 16.798 11.6367 16.9476 11.6367 17.1132C11.6367 17.2764 11.7296 17.4261 11.8745 17.5009L34.0523 28.6042C34.1746 28.6655 34.3172 28.6655 34.4395 28.6042L56.6174 17.5009C56.7645 17.4283 56.8551 17.2787 56.8551 17.1132C56.8551 16.9499 56.7623 16.8003 56.6174 16.7254L34.4395 5.62209ZM13.0337 17.1132L34.2448 27.7336L55.4558 17.1132L34.2448 6.49276L13.0337 17.1132Z"
        fill="#00FFC8" fill-opacity="0.2" />
    <path fill-rule="evenodd" clip-rule="evenodd"
        d="M266.756 150.211L233.445 133.532V166.889L266.756 183.57V150.211Z"
        fill="url(#paint28_linear_2139:19354)" fill-opacity="0.3" />
    <path fill-rule="evenodd" clip-rule="evenodd"
        d="M267.188 150.211C267.188 150.048 267.095 149.898 266.95 149.823L233.639 133.144C233.505 133.076 233.347 133.083 233.218 133.162C233.091 133.242 233.012 133.38 233.012 133.53V166.887C233.012 167.051 233.105 167.2 233.249 167.275L266.56 183.954C266.694 184.02 266.852 184.013 266.982 183.936C267.108 183.856 267.188 183.718 267.188 183.568V150.211ZM233.877 166.622L266.325 182.868V150.478L233.877 134.233V166.622Z"
        fill="#00FFC8" fill-opacity="0.2" />
    <path fill-rule="evenodd" clip-rule="evenodd"
        d="M266.756 150.211L300.069 133.532V166.889L266.756 183.57V150.211Z"
        fill="url(#paint29_linear_2139:19354)" fill-opacity="0.3" />
    <path fill-rule="evenodd" clip-rule="evenodd"
        d="M266.564 149.825C266.417 149.898 266.324 150.047 266.324 150.213V183.57C266.324 183.72 266.401 183.861 266.53 183.938C266.657 184.017 266.816 184.024 266.951 183.956L300.262 167.277C300.41 167.205 300.5 167.055 300.5 166.889V133.532C300.5 133.382 300.423 133.241 300.294 133.164C300.167 133.085 300.009 133.078 299.873 133.146L266.564 149.825ZM267.189 150.478V182.87L299.637 166.624V134.232L267.189 150.478Z"
        fill="#00FFC8" fill-opacity="0.2" />
    <path fill-rule="evenodd" clip-rule="evenodd"
        d="M266.756 116.853L233.445 133.532L266.756 150.211L300.069 133.532L266.756 116.853Z"
        fill="url(#paint30_linear_2139:19354)" fill-opacity="0.3" />
    <path fill-rule="evenodd" clip-rule="evenodd"
        d="M266.952 116.465C266.829 116.404 266.687 116.404 266.564 116.465L233.253 133.144C233.106 133.217 233.016 133.366 233.016 133.532C233.016 133.695 233.108 133.845 233.253 133.92L266.564 150.598C266.687 150.66 266.829 150.66 266.952 150.598L300.262 133.92C300.41 133.847 300.5 133.697 300.5 133.532C300.5 133.369 300.407 133.219 300.262 133.144L266.952 116.465ZM234.413 133.532L266.759 149.728L299.105 133.532L266.759 117.336L234.413 133.532Z"
        fill="#00FFC8" fill-opacity="0.2" />
    <path fill-rule="evenodd" clip-rule="evenodd"
        d="M266.756 122.428L244.578 133.532L266.756 144.637L288.934 133.532L266.756 122.428Z"
        fill="#00FFC8" fill-opacity="0.2" />
    <path fill-rule="evenodd" clip-rule="evenodd"
        d="M266.951 122.041C266.829 121.979 266.686 121.979 266.564 122.041L244.386 133.146C244.239 133.219 244.148 133.368 244.148 133.534C244.148 133.697 244.241 133.847 244.386 133.922L266.564 145.025C266.686 145.086 266.829 145.086 266.951 145.025L289.129 133.922C289.276 133.849 289.369 133.699 289.369 133.534C289.369 133.371 289.276 133.221 289.129 133.146L266.951 122.041ZM245.545 133.532L266.757 144.152L287.968 133.532L266.757 122.911L245.545 133.532Z"
        fill="#00FFC8" fill-opacity="0.2" />
    <path fill-rule="evenodd" clip-rule="evenodd"
        d="M259.473 35.5924L226.16 18.9136V52.2712L259.473 68.9501V35.5924Z"
        fill="url(#paint31_linear_2139:19354)" fill-opacity="0.3" />
    <path fill-rule="evenodd" clip-rule="evenodd"
        d="M259.904 35.5924C259.904 35.4291 259.812 35.2795 259.667 35.2046L226.353 18.5258C226.22 18.4578 226.061 18.4669 225.932 18.5439C225.806 18.6233 225.729 18.7616 225.729 18.9113V52.2689C225.729 52.4322 225.821 52.5818 225.966 52.6566L259.277 69.3355C259.411 69.4035 259.569 69.3944 259.698 69.3173C259.825 69.238 259.904 69.0997 259.904 68.95V35.5924ZM226.591 52.0036L259.039 68.2494V35.8599L226.591 19.6141V52.0036Z"
        fill="#00FFC8" fill-opacity="0.2" />
    <path fill-rule="evenodd" clip-rule="evenodd"
        d="M259.473 35.5924L292.784 18.9136V52.2712L259.473 68.9501V35.5924Z"
        fill="url(#paint32_linear_2139:19354)" fill-opacity="0.3" />
    <path fill-rule="evenodd" clip-rule="evenodd"
        d="M259.277 35.2046C259.13 35.2772 259.037 35.4268 259.037 35.5923V68.95C259.037 69.0996 259.114 69.2402 259.243 69.3173C259.37 69.3967 259.531 69.4035 259.664 69.3354L292.975 52.6566C293.122 52.5841 293.213 52.4344 293.213 52.2689V18.9135C293.213 18.7638 293.136 18.6233 293.007 18.5462C292.88 18.4668 292.722 18.46 292.586 18.528L259.277 35.2046ZM259.904 35.8599V68.2516L292.353 52.0059V19.6141L259.904 35.8599Z"
        fill="#00FFC8" fill-opacity="0.2" />
    <path fill-rule="evenodd" clip-rule="evenodd"
        d="M259.473 2.23486L226.16 18.9137L259.473 35.5925L292.784 18.9137L259.473 2.23486Z"
        fill="url(#paint33_linear_2139:19354)" fill-opacity="0.3" />
    <path fill-rule="evenodd" clip-rule="evenodd"
        d="M259.664 1.84718C259.542 1.78596 259.399 1.78596 259.277 1.84718L225.966 18.526C225.819 18.5986 225.729 18.7482 225.729 18.9137C225.729 19.077 225.821 19.2266 225.966 19.3015L259.277 35.9803C259.399 36.0415 259.542 36.0415 259.664 35.9803L292.975 19.3015C293.122 19.2289 293.213 19.0793 293.213 18.9137C293.213 18.7505 293.12 18.6008 292.975 18.526L259.664 1.84718ZM227.126 18.9137L259.472 35.1096L291.818 18.9137L259.472 2.71786L227.126 18.9137Z"
        fill="#00FFC8" fill-opacity="0.2" />
    <path fill-rule="evenodd" clip-rule="evenodd"
        d="M259.473 7.80811L237.295 18.9137L259.473 30.0171L281.651 18.9137L259.473 7.80811Z"
        fill="#00FFC8" fill-opacity="0.2" />
    <path fill-rule="evenodd" clip-rule="evenodd"
        d="M259.664 7.42287C259.542 7.36165 259.399 7.36165 259.277 7.42287L237.099 18.5262C236.952 18.5988 236.861 18.7484 236.861 18.9139C236.861 19.0772 236.954 19.2268 237.099 19.3017L259.277 30.405C259.399 30.4662 259.542 30.4662 259.664 30.405L281.842 19.3017C281.989 19.2291 282.082 19.0795 282.082 18.9139C282.082 18.7507 281.989 18.601 281.842 18.5262L259.664 7.42287ZM238.261 18.9139L259.472 29.5343L280.683 18.9139L259.472 8.29354L238.261 18.9139Z"
        fill="#00FFC8" fill-opacity="0.2" />

</svg>
