<svg width="24" height="24" viewBox="0 0 24 24" fill="none" xmlns="http://www.w3.org/2000/svg">
<path d="M18.668 22L22.6673 7.11111L17.1443 11.4868C17.0569 11.5739 16.9279 11.6173 16.7946 11.6033C16.6632 11.5889 16.5486 11.5189 16.4874 11.4156L12.0873 4L7.68894 11.4156C7.62772 11.5189 7.51295 11.5891 7.38172 11.6033C7.25011 11.6183 7.11946 11.5741 7.03204 11.4868L1.51172 7.11111L5.33464 22H18.668Z" fill="#00FFC8"/>
<path d="M15.2286 10.7668L15.2306 10.7671C15.4901 10.7943 15.7601 10.7163 15.9608 10.5312L20.2836 7.10631L17.2444 18.4998H3.909L0.871761 7.10665L5.19194 10.5311C5.39137 10.7152 5.66323 10.7962 5.92522 10.7667C6.19492 10.7372 6.4574 10.5899 6.60726 10.3372C6.6073 10.3371 6.60733 10.3371 6.60736 10.337L10.5756 3.64648L14.5455 10.337C14.5456 10.3371 14.5456 10.3372 14.5457 10.3372C14.6959 10.5907 14.9589 10.7374 15.2286 10.7668Z" stroke="#00FFC8" stroke-opacity="0.2"/>
</svg>
