<svg width="149" height="170" viewBox="0 0 149 170" fill="none" xmlns="http://www.w3.org/2000/svg">
    <defs>
        <filter id="filter0_d_3557_38081" x="0.466797" y="0.3125" width="148.504" height="169.375"
            filterUnits="userSpaceOnUse" color-interpolation-filters="sRGB">
            <feFlood flood-opacity="0" result="BackgroundImageFix" />
            <feColorMatrix in="SourceAlpha" type="matrix"
                values="0 0 0 0 0 0 0 0 0 0 0 0 0 0 0 0 0 0 127 0" result="hardAlpha" />
            <feOffset />
            <feGaussianBlur stdDeviation="2.5" />
            <feComposite in2="hardAlpha" operator="out" />
            <feColorMatrix type="matrix"
                values="0 0 0 0 0 0 0 0 0 1 0 0 0 0 0.786112 0 0 0 0.5 0" />
            <feBlend mode="normal" in2="BackgroundImageFix"
                result="effect1_dropShadow_3557_38081" />
            <feBlend mode="normal" in="SourceGraphic" in2="effect1_dropShadow_3557_38081"
                result="shape" />
        </filter>
    </defs>
    <g filter="url(#filter0_d_3557_38081)">
        <path
            d="M93.2458 45.3484L93.1011 45.4442L93.2571 45.68L93.3967 45.4341L93.2458 45.3484ZM93.2426 45.3437L93.3874 45.2479L93.2329 45.0145L93.0925 45.2566L93.2426 45.3437ZM88.5782 48.3542L88.6613 48.5066L88.6617 48.5063L88.5782 48.3542ZM84.0912 50.8651V51.0386H84.1375L84.1776 51.0156L84.0912 50.8651ZM84.0826 50.8651V50.6916H84.0362L83.996 50.7147L84.0826 50.8651ZM74.7182 56.2553V56.4289H74.7646L74.8048 56.4057L74.7182 56.2553ZM74.7174 56.2553L74.6308 56.4057L74.671 56.4289H74.7174V56.2553ZM65.353 50.8651L65.4396 50.7147L65.3994 50.6916H65.353V50.8651ZM65.3428 50.8651L65.2563 51.0155L65.2964 51.0386H65.3428V50.8651ZM60.8645 48.355L60.7812 48.5072L60.7814 48.5073L60.8645 48.355ZM56.1938 45.3563H56.0203V45.4028L56.0435 45.4431L56.1938 45.3563ZM56.1938 45.3437H56.3673V45.2971L56.344 45.2568L56.1938 45.3437ZM55.9111 39.8168L56.0846 39.8206L56.0846 39.8205L55.9111 39.8168ZM55.9712 24.4605L55.7977 24.4597L55.7977 24.4599L55.9712 24.4605ZM56.9881 22.7106L56.9016 22.5602L56.9014 22.5603L56.9881 22.7106ZM74.7182 12.5093L74.8048 12.3589L74.7182 12.3091L74.6317 12.3589L74.7182 12.5093ZM92.4475 22.7106L92.5342 22.5603L92.5341 22.5602L92.4475 22.7106ZM93.4668 24.4605L93.6403 24.46L93.6403 24.4592L93.4668 24.4605ZM93.5245 39.8129L93.3511 39.8165L93.3511 39.8166L93.5245 39.8129ZM82.1577 67.7148L82.0712 67.8652L82.0716 67.8654L82.1577 67.7148ZM84.3164 68.9493H84.4899V68.8487L84.4025 68.7987L84.3164 68.9493ZM84.3164 68.9508H84.1429V69.0512L84.2299 69.1013L84.3164 68.9508ZM88.5706 71.3346L88.6538 71.1824L88.6536 71.1823L88.5706 71.3346ZM93.2437 74.3333H93.4172V74.2866L93.3937 74.2462L93.2437 74.3333ZM93.2437 74.346H93.0702V74.3927L93.0937 74.4332L93.2437 74.346ZM93.5256 79.8751L93.699 79.879L93.699 79.8788L93.5256 79.8751ZM93.5081 80.6637L93.3347 80.6599L93.3346 80.6607L93.5081 80.6637ZM55.9279 80.6637L56.1014 80.6605L56.1014 80.6602L55.9279 80.6637ZM55.9121 79.8751L56.0856 79.8717L56.0856 79.871L55.9121 79.8751ZM56.1948 74.346L56.0904 74.4846L56.2466 74.6022L56.3449 74.4331L56.1948 74.346ZM60.8599 71.3371L60.7767 71.1848L60.7766 71.1849L60.8599 71.3371ZM65.3438 68.8254V68.6519H65.2975L65.2573 68.675L65.3438 68.8254ZM65.3541 68.8254V68.9989H65.4004L65.4406 68.9758L65.3541 68.8254ZM71.1223 65.5063L71.2089 65.6567L71.2101 65.656L71.1223 65.5063ZM71.6308 64.6246H71.8043L71.8043 64.6238L71.6308 64.6246ZM71.1184 63.7476L71.2049 63.5972L71.2044 63.5969L71.1184 63.7476ZM66.9015 61.3387L66.9876 61.188L66.9871 61.1877L66.9015 61.3387ZM65.8878 61.341L65.9744 61.4914L65.9746 61.4913L65.8878 61.341ZM62.2292 63.4461L62.1426 63.2957L61.9675 63.3965L62.0936 63.5544L62.2292 63.4461ZM62.2323 63.4501L62.3189 63.6004L62.4939 63.4996L62.3679 63.3418L62.2323 63.4501ZM57.8555 65.8852L57.9387 66.0374L57.9388 66.0374L57.8555 65.8852ZM50.7963 71.2313L50.6462 71.1443L50.6228 71.1846V71.2313H50.7963ZM50.7963 71.2446L50.9465 71.3315L50.9699 71.2912V71.2446H50.7963ZM49.683 79.9967L49.8564 79.9931L49.8564 79.9931L49.683 79.9967ZM49.683 90.007L49.8564 90.0106L49.8564 90.0106L49.683 90.007ZM50.7963 98.7717L50.6462 98.8587L50.6963 98.9452H50.7963V98.7717ZM50.8011 98.7717L50.9511 98.6844L50.9009 98.5982H50.8011V98.7717ZM57.8602 104.123L57.7768 104.275L57.7771 104.275L57.8602 104.123ZM62.2323 106.551L62.3826 106.638L62.4696 106.487L62.3186 106.401L62.2323 106.551ZM62.2292 106.557L62.0789 106.47L61.9921 106.62L62.1426 106.707L62.2292 106.557ZM68.4845 110.159L68.5711 110.31L68.8322 110.159L68.5711 110.009L68.4845 110.159ZM62.2292 113.762L62.1426 113.611L61.5802 113.935H62.2292V113.762ZM62.2323 113.762L62.3191 113.912L62.8795 113.588H62.2323V113.762ZM57.8555 116.2L57.9386 116.352L57.9389 116.352L57.8555 116.2ZM50.7963 121.545L50.6462 121.458L50.6228 121.498V121.545H50.7963ZM50.7963 121.556L50.9466 121.643L50.9699 121.603V121.556H50.7963ZM49.683 130.312L49.8564 130.308L49.8564 130.308L49.683 130.312ZM49.7217 143.113L49.6351 143.263L49.8958 143.413L49.8952 143.113L49.7217 143.113ZM43.228 139.374L43.1327 139.229L42.8973 139.384L43.1415 139.524L43.228 139.374ZM43.2328 139.371L43.3281 139.516L43.5636 139.361L43.3194 139.22L43.2328 139.371ZM11.7455 121.247H11.572V121.347L11.659 121.397L11.7455 121.247ZM11.7455 48.7544L11.659 48.604L11.572 48.654V48.7544H11.7455ZM43.2328 30.6338L43.3194 30.7841L43.5361 30.6594L43.3434 30.5L43.2328 30.6338ZM43.228 30.6298L43.1415 30.4794L42.9248 30.6042L43.1175 30.7635L43.228 30.6298ZM49.7217 26.8916L49.8952 26.8919L49.8958 26.5911L49.6351 26.7412L49.7217 26.8916ZM49.683 39.6953L49.8564 39.6989L49.8564 39.6987L49.683 39.6953ZM50.7963 48.46L50.6462 48.5469L50.7174 48.67L50.8521 48.6243L50.7963 48.46ZM50.8011 48.4584L50.9511 48.3711L50.8797 48.2485L50.7454 48.294L50.8011 48.4584ZM57.8602 53.8092L57.7768 53.9614L57.777 53.9615L57.8602 53.8092ZM62.2323 56.2412L62.3076 56.3975L62.6041 56.2548L62.3188 56.0908L62.2323 56.2412ZM62.2292 56.2427L62.1539 56.0864L61.8577 56.229L62.1426 56.3931L62.2292 56.2427ZM84.0828 119.139L83.9962 119.289L84.0364 119.312H84.0828V119.139ZM84.0914 119.139L84.1779 118.988L84.1377 118.965H84.0914V119.139ZM88.5697 121.648L88.653 121.496L88.6528 121.496L88.5697 121.648ZM93.2428 124.647H93.4163V124.6L93.3929 124.56L93.2428 124.647ZM93.2428 124.658H93.0693V124.704L93.0927 124.745L93.2428 124.658ZM93.5247 130.186L93.3512 130.182L93.3512 130.182L93.5247 130.186ZM93.4669 145.542L93.6404 145.544L93.6404 145.543L93.4669 145.542ZM92.4508 147.291L92.3644 147.14L92.3643 147.14L92.4508 147.291ZM74.7184 157.494L74.6318 157.645L74.7184 157.695L74.8049 157.645L74.7184 157.494ZM56.9882 147.291L57.0748 147.14L57.0744 147.14L56.9882 147.291ZM55.969 145.542L55.7955 145.543L55.7955 145.543L55.969 145.542ZM55.9112 130.192L56.0847 130.188L56.0847 130.188L55.9112 130.192ZM56.19 124.655L56.2807 124.507L56.1275 124.413L56.039 124.57L56.19 124.655ZM56.194 124.658L56.1032 124.806L56.2545 124.898L56.3439 124.745L56.194 124.658ZM60.8591 121.648L60.7759 121.496L60.7757 121.496L60.8591 121.648ZM65.3429 119.139V118.965H65.2967L65.2566 118.988L65.3429 119.139ZM65.3532 119.139V119.312H65.3996L65.4397 119.289L65.3532 119.139ZM74.7184 113.748L74.8049 113.597L74.7184 113.547L74.6318 113.597L74.7184 113.748ZM142.269 44.3807L142.183 44.5311L142.183 44.5312L142.269 44.3807ZM109.259 25.3816L109.346 25.2312L109.306 25.2081H109.259V25.3816ZM109.245 25.3816L109.158 25.532L109.199 25.5551H109.245V25.3816ZM76.2325 6.38563L76.1458 6.53593L76.146 6.53602L76.2325 6.38563ZM74.7192 5.5127L74.8059 5.36239L74.7193 5.31242L74.6326 5.36233L74.7192 5.5127ZM73.2035 6.38563L73.2901 6.53602L73.2901 6.53599L73.2035 6.38563ZM40.1926 25.3816V25.5551H40.239L40.2792 25.532L40.1926 25.3816ZM40.1792 25.3816V25.2081H40.1328L40.0926 25.2312L40.1792 25.3816ZM7.16667 44.3807L7.25313 44.5312L7.25322 44.5311L7.16667 44.3807ZM5.64062 45.2577L5.55417 45.1073L5.46711 45.1573V45.2577H5.64062ZM5.64062 124.744H5.46711V124.844L5.55388 124.894L5.64062 124.744ZM7.16667 125.625L7.07993 125.775L7.08013 125.775L7.16667 125.625ZM40.1792 144.621L40.0926 144.772L40.1328 144.795H40.1792V144.621ZM40.1926 144.621L40.2792 144.471L40.239 144.448H40.1926V144.621ZM73.2035 163.617L73.117 163.768L73.1172 163.768L73.2035 163.617ZM74.7192 164.487L74.6329 164.638L74.7193 164.687L74.8057 164.638L74.7192 164.487ZM76.2325 163.617L76.319 163.768L76.319 163.768L76.2325 163.617ZM109.245 144.621V144.448H109.199L109.158 144.471L109.245 144.621ZM109.259 144.621V144.795H109.306L109.346 144.772L109.259 144.621ZM142.269 125.625L142.356 125.775L142.356 125.775L142.269 125.625ZM143.797 124.744L143.884 124.894L143.97 124.844V124.744H143.797ZM143.797 81.8735H143.97V81.7H143.797V81.8735ZM107.827 81.8735V81.7H107.654V81.8735H107.827ZM107.827 88.0864H107.654V88.2584L107.826 88.2599L107.827 88.0864ZM137.694 88.3367H137.867V88.1647L137.695 88.1632L137.694 88.3367ZM137.694 121.247L137.78 121.397L137.867 121.347V121.247H137.694ZM106.205 139.371L106.118 139.22L105.922 139.333L106.082 139.494L106.205 139.371ZM106.208 139.374L106.295 139.524L106.491 139.411L106.331 139.251L106.208 139.374ZM99.7175 143.113L99.544 143.113L99.5435 143.413L99.8041 143.263L99.7175 143.113ZM99.7547 130.306L99.5812 130.302L99.5812 130.303L99.7547 130.306ZM98.6405 121.545L98.7906 121.458L98.7405 121.371H98.6405V121.545ZM98.6349 121.545L98.4849 121.632L98.5351 121.718H98.6349V121.545ZM91.579 116.194L91.6624 116.041L91.6594 116.04L91.579 116.194ZM91.4642 116.134L91.5446 115.98L91.3821 115.895L91.3062 116.062L91.4642 116.134ZM91.4523 116.16L91.3663 116.31L91.5315 116.405L91.6103 116.232L91.4523 116.16ZM90.0285 115.347L89.9061 115.47L89.9225 115.486L89.9424 115.497L90.0285 115.347ZM90.0261 115.344L90.1484 115.221L90.1305 115.204L90.1083 115.192L90.0261 115.344ZM89.9572 115.307L89.8731 115.459L89.875 115.46L89.9572 115.307ZM87.2069 113.762V113.588H86.5563L87.1205 113.912L87.2069 113.762ZM87.21 113.762V113.935H87.8589L87.2966 113.611L87.21 113.762ZM82.0888 110.812L82.1754 110.662L82.1748 110.661L82.0888 110.812ZM66.0541 101.656L65.9061 101.565L65.8127 101.718L65.968 101.806L66.0541 101.656ZM66.0874 101.601L66.2354 101.692L66.3283 101.54L66.1742 101.451L66.0874 101.601ZM65.354 101.178L65.4409 101.027L65.4006 101.004H65.354V101.178ZM65.3438 101.178L65.2574 101.328L65.2975 101.351H65.3438V101.178ZM60.8655 98.6682L60.7818 98.8203L60.7822 98.8205L60.8655 98.6682ZM56.1948 95.6554H56.3683V95.6086L56.3448 95.5682L56.1948 95.6554ZM55.9121 90.1278L56.0856 90.1315L56.0856 90.1312L55.9121 90.1278ZM55.9279 89.3377L56.1014 89.3411L56.1014 89.3409L55.9279 89.3377ZM93.5081 89.3377L93.3346 89.3407L93.3346 89.3415L93.5081 89.3377ZM93.5255 90.1278L93.699 90.1241L93.699 90.1239L93.5255 90.1278ZM93.2468 95.661L93.0958 95.7464L93.2468 96.0134L93.3978 95.7464L93.2468 95.661ZM93.2437 95.6554L93.3947 95.57L93.2454 95.306L93.0935 95.5685L93.2437 95.6554ZM88.5792 98.6659L88.6624 98.8182L88.6627 98.8181L88.5792 98.6659ZM84.0922 101.178V101.351H84.1386L84.1787 101.328L84.0922 101.178ZM84.0836 101.178V101.004H84.0372L83.997 101.027L84.0836 101.178ZM78.2559 104.535L78.3421 104.685L78.3425 104.685L78.2559 104.535ZM78.2591 106.291L78.1724 106.441L78.1731 106.441L78.2591 106.291ZM82.4791 108.697L82.5661 108.547L82.5651 108.547L82.4791 108.697ZM83.4896 108.697L83.4031 108.547L83.4026 108.547L83.4896 108.697ZM87.21 106.557L87.2965 106.707L87.4469 106.621L87.3604 106.47L87.21 106.557ZM87.2069 106.551L87.1203 106.401L86.97 106.487L87.0565 106.638L87.2069 106.551ZM91.5822 104.119L91.6653 104.272L91.6655 104.272L91.5822 104.119ZM98.6405 98.7717L98.7907 98.8587L98.814 98.8183V98.7717H98.6405ZM98.6405 98.763L98.4903 98.6761L98.467 98.7164V98.763H98.6405ZM99.7547 90.007L99.5812 90.0106L99.5812 90.0106L99.7547 90.007ZM99.7547 79.996L99.5812 79.9924L99.5812 79.9924L99.7547 79.996ZM98.6405 71.2313L98.7906 71.1443L98.7405 71.0578H98.6405V71.2313ZM98.6349 71.2313L98.4849 71.3185L98.5351 71.4048H98.6349V71.2313ZM91.579 65.8812L91.6623 65.729L91.662 65.7288L91.579 65.8812ZM87.2069 63.4501L87.0712 63.3419L86.9454 63.4998L87.1203 63.6005L87.2069 63.4501ZM87.21 63.4461L87.3457 63.5542L87.4715 63.3964L87.2965 63.2957L87.21 63.4461ZM80.9515 59.8452L80.865 59.6948L80.6037 59.8452L80.865 59.9956L80.9515 59.8452ZM87.21 56.2427L87.2966 56.3931L87.5812 56.2292L87.2854 56.0865L87.21 56.2427ZM87.2069 56.2412L87.1199 56.091L86.8366 56.2551L87.1314 56.3975L87.2069 56.2412ZM91.5822 53.8061L91.6655 53.9583L91.6655 53.9583L91.5822 53.8061ZM98.6405 48.46L98.7907 48.5469L98.814 48.5066V48.46H98.6405ZM98.6405 48.4481L98.4903 48.3612L98.467 48.4015V48.4481H98.6405ZM99.7547 39.6929L99.5812 39.6961L99.5812 39.6965L99.7547 39.6929ZM99.7175 26.8924L99.8041 26.742L99.5435 26.5919L99.544 26.8927L99.7175 26.8924ZM106.208 30.6298L106.344 30.738L106.469 30.5802L106.295 30.4794L106.208 30.6298ZM106.205 30.6338L106.069 30.5256L105.943 30.6835L106.118 30.7841L106.205 30.6338ZM137.694 48.7544H137.867V48.654L137.78 48.604L137.694 48.7544ZM137.694 60.1149H137.52V60.2884H137.694V60.1149ZM143.797 60.1149V60.2884H143.97V60.1149H143.797ZM143.797 45.2577H143.97V45.1572L143.883 45.1072L143.797 45.2577ZM93.3905 45.2527L93.3874 45.2479L93.0979 45.4394L93.1011 45.4442L93.3905 45.2527ZM93.0925 45.2566C93.0114 45.3966 92.8678 45.5544 92.6424 45.7396C92.4182 45.9239 92.1216 46.1284 91.7435 46.3639C90.9867 46.8352 89.9217 47.4196 88.4948 48.202L88.6617 48.5063C90.0848 47.7259 91.16 47.1361 91.9269 46.6585C92.3107 46.4195 92.6217 46.2058 92.8628 46.0077C93.1027 45.8106 93.2819 45.6219 93.3927 45.4307L93.0925 45.2566ZM88.4952 48.2018C87.4008 48.7981 86.116 49.5029 84.0048 50.7146L84.1776 51.0156C86.2859 49.8055 87.5684 49.102 88.6613 48.5066L88.4952 48.2018ZM84.0912 50.6916H84.0826V51.0386H84.0912V50.6916ZM83.996 50.7147L74.6317 56.105L74.8048 56.4057L84.1692 51.0155L83.996 50.7147ZM74.7182 56.0818H74.7174V56.4289H74.7182V56.0818ZM74.804 56.105L65.4396 50.7147L65.2665 51.0155L74.6308 56.4057L74.804 56.105ZM65.353 50.6916H65.3428V51.0386H65.353V50.6916ZM65.4293 50.7147C63.3553 49.5219 62.042 48.7998 60.9476 48.2027L60.7814 48.5073C61.8742 49.1036 63.1852 49.8244 65.2563 51.0155L65.4293 50.7147ZM60.9478 48.2028C59.5149 47.4187 58.4457 46.8335 57.6875 46.3636C57.3086 46.1288 57.0119 45.9255 56.7885 45.7432C56.5637 45.5599 56.4223 45.4051 56.3441 45.2695L56.0435 45.4431C56.1521 45.6312 56.3302 45.8172 56.5691 46.0121C56.8093 46.2081 57.1203 46.4204 57.5047 46.6586C58.2728 47.1347 59.3521 47.7252 60.7812 48.5072L60.9478 48.2028ZM56.3673 45.3563V45.3437H56.0203V45.3563H56.3673ZM56.344 45.2568C56.2627 45.1164 56.1972 44.9135 56.1488 44.6267C56.1006 44.3414 56.071 43.9835 56.0554 43.54C56.0241 42.6523 56.0492 41.4424 56.0846 39.8206L55.7376 39.813C55.7024 41.4307 55.6768 42.6523 55.7086 43.5522C55.7244 44.0025 55.7547 44.3775 55.8066 44.6845C55.8582 44.9901 55.9328 45.2391 56.0436 45.4306L56.344 45.2568ZM56.0846 39.8205C56.1052 38.8341 56.1305 29.0269 56.1447 24.461L55.7977 24.4599C55.7835 29.0297 55.7581 38.831 55.7376 39.8132L56.0846 39.8205ZM56.1447 24.4612C56.1477 23.7802 56.4821 23.2026 57.0747 22.8609L56.9014 22.5603C56.2017 22.9636 55.8012 23.6552 55.7977 24.4597L56.1447 24.4612ZM57.0746 22.861L74.8048 12.6597L74.6317 12.3589L56.9016 22.5602L57.0746 22.861ZM74.6317 12.6597L92.361 22.861L92.5341 22.5602L74.8048 12.3589L74.6317 12.6597ZM92.3609 22.8609C92.9535 23.2025 93.2881 23.7803 93.2932 24.4618L93.6403 24.4592C93.6342 23.6551 93.234 22.9636 92.5342 22.5603L92.3609 22.8609ZM93.2932 24.4609C93.3051 29.0419 93.3304 38.8333 93.3511 39.8165L93.698 39.8092C93.6775 38.8302 93.6521 29.0446 93.6403 24.46L93.2932 24.4609ZM93.3511 39.8166C93.3856 41.4353 93.4111 42.6453 93.3807 43.535C93.3656 43.9795 93.3365 44.3388 93.2889 44.6261C93.241 44.9146 93.176 45.1199 93.0949 45.2628L93.3967 45.4341C93.5065 45.2407 93.5803 44.9901 93.6313 44.6828C93.6824 44.3743 93.7122 43.998 93.7276 43.5468C93.7584 42.6451 93.7324 41.4236 93.698 39.8092L93.3511 39.8166ZM82.0716 67.8654L84.2302 69.1L84.4025 68.7987L82.2439 67.5642L82.0716 67.8654ZM84.1429 68.9493V68.9508H84.4899V68.9493H84.1429ZM84.2299 69.1013C86.1747 70.2198 87.4335 70.9127 88.4875 71.487L88.6536 71.1823C87.6013 70.6089 86.3448 69.9174 84.4029 68.8004L84.2299 69.1013ZM88.4873 71.4869C89.9217 72.2709 90.9912 72.8563 91.7494 73.3263C92.1282 73.5611 92.4249 73.7644 92.6484 73.9467C92.8732 74.1301 93.0149 74.2849 93.0936 74.4204L93.3937 74.2462C93.2848 74.0585 93.1066 73.8726 92.8677 73.6778C92.6275 73.4819 92.3166 73.2696 91.9322 73.0313C91.164 72.5551 90.0845 71.9644 88.6538 71.1824L88.4873 71.4869ZM93.0702 74.3333V74.346H93.4172V74.3333H93.0702ZM93.0937 74.4332C93.1749 74.573 93.2404 74.7755 93.2887 75.0622C93.3367 75.3475 93.366 75.7054 93.3814 76.1492C93.4122 77.0375 93.3866 78.2484 93.3521 79.8714L93.699 79.8788C93.7335 78.2601 93.7594 77.0375 93.7282 76.1372C93.7126 75.6867 93.6826 75.3115 93.6309 75.0046C93.5795 74.699 93.5049 74.45 93.3937 74.2588L93.0937 74.4332ZM93.3521 79.8713L93.3347 80.6599L93.6816 80.6675L93.699 79.879L93.3521 79.8713ZM93.3346 80.6607C93.3244 81.2424 92.8481 81.7121 92.2625 81.7121V82.0591C93.0373 82.0591 93.6681 81.4379 93.6816 80.6667L93.3346 80.6607ZM92.2625 81.7121H57.1752V82.0591H92.2625V81.7121ZM57.1752 81.7121C56.5908 81.7121 56.1123 81.2421 56.1014 80.6605L55.7545 80.667C55.7689 81.4381 56.4021 82.0591 57.1752 82.0591V81.7121ZM56.1014 80.6602L56.0856 79.8717L55.7386 79.8786L55.7545 80.6672L56.1014 80.6602ZM56.0856 79.871C56.0844 79.8213 56.0587 78.3688 56.0814 76.966C56.0928 76.2638 56.1163 75.5785 56.1604 75.0885C56.1827 74.8413 56.2094 74.6539 56.2396 74.5404C56.256 74.4785 56.2676 74.4623 56.2643 74.4665C56.2615 74.4701 56.24 74.4966 56.1952 74.5059C56.1443 74.5164 56.106 74.4963 56.0904 74.4846L56.2992 74.2074C56.2595 74.1775 56.1981 74.1509 56.1249 74.1661C56.0579 74.1799 56.0151 74.2221 55.9918 74.2516C55.9476 74.3077 55.9219 74.3846 55.9041 74.4514C55.8659 74.5954 55.8373 74.8079 55.8148 75.0574C55.7694 75.5608 55.7458 76.2568 55.7344 76.9604C55.7116 78.3691 55.7374 79.8264 55.7387 79.8793L56.0856 79.871ZM56.3449 74.4331C56.4262 74.2931 56.57 74.1352 56.7954 73.95C57.0196 73.7658 57.3163 73.5613 57.6943 73.3259C58.451 72.8548 59.516 72.2709 60.9433 71.4893L60.7766 71.1849C59.353 71.9645 58.2778 72.5539 57.5109 73.0313C57.1272 73.2702 56.8161 73.4838 56.5751 73.6819C56.3351 73.879 56.1559 74.0677 56.0448 74.2588L56.3449 74.4331ZM60.9432 71.4893C62.0341 70.8931 63.3207 70.1899 65.4304 68.9758L65.2573 68.675C63.1508 69.8873 61.8668 70.5891 60.7767 71.1848L60.9432 71.4893ZM65.3438 68.9989H65.3541V68.6519H65.3438V68.9989ZM65.4406 68.9758L71.2089 65.6567L71.0358 65.3559L65.2675 68.675L65.4406 68.9758ZM71.2101 65.656C71.5855 65.4359 71.8043 65.0604 71.8043 64.6246H71.4573C71.4573 64.9354 71.3054 65.1978 71.0346 65.3566L71.2101 65.656ZM71.8043 64.6238C71.8024 64.1913 71.582 63.8141 71.2049 63.5972L71.0319 63.898C71.3027 64.0538 71.4559 64.3175 71.4573 64.6253L71.8043 64.6238ZM71.2044 63.5969L66.9876 61.188L66.8154 61.4893L71.0323 63.8983L71.2044 63.5969ZM66.9871 61.1877C66.6109 60.9745 66.1764 60.9742 65.8011 61.1907L65.9746 61.4913C66.2423 61.3368 66.5458 61.3365 66.8159 61.4896L66.9871 61.1877ZM65.8013 61.1906L62.1426 63.2957L62.3157 63.5965L65.9744 61.4914L65.8013 61.1906ZM62.0936 63.5544L62.0967 63.5583L62.3679 63.3418L62.3648 63.3379L62.0936 63.5544ZM62.1457 63.2997C60.7911 64.08 59.1504 64.979 57.7722 65.733L57.9388 66.0374C59.3163 65.2838 60.9604 64.3829 62.3189 63.6004L62.1457 63.2997ZM57.7722 65.7329C53.9186 67.8402 51.9307 68.9278 50.6462 71.1443L50.9465 71.3183C52.1724 69.2028 54.0584 68.1593 57.9387 66.0374L57.7722 65.7329ZM50.6228 71.2313V71.2446H50.9699V71.2313H50.6228ZM50.6462 71.1577C49.3672 73.3679 49.4179 75.624 49.5095 80.0003L49.8564 79.9931C49.7642 75.5859 49.7262 73.4405 50.9465 71.3315L50.6462 71.1577ZM49.5095 80.0002C49.5324 81.1159 49.5625 82.4319 49.5625 85.0026H49.9095C49.9095 82.4284 49.8794 81.1097 49.8564 79.9931L49.5095 80.0002ZM49.5625 85.0026C49.5625 87.5709 49.5324 88.8886 49.5095 90.0035L49.8564 90.0106C49.8794 88.8948 49.9095 87.5745 49.9095 85.0026H49.5625ZM49.5095 90.0034C49.4179 94.389 49.3656 96.6476 50.6462 98.8587L50.9465 98.6847C49.7246 96.575 49.7642 94.4275 49.8564 90.0106L49.5095 90.0034ZM50.7963 98.9452H50.8011V98.5982H50.7963V98.9452ZM50.6511 98.859C51.9474 101.086 53.9319 102.17 57.7768 104.275L57.9435 103.97C54.0721 101.851 52.1889 100.811 50.9511 98.6844L50.6511 98.859ZM57.7771 104.275C59.1518 105.024 60.7596 105.907 62.146 106.702L62.3186 106.401C60.9287 105.604 59.3182 104.719 57.9432 103.97L57.7771 104.275ZM62.082 106.465L62.0789 106.47L62.3795 106.643L62.3826 106.638L62.082 106.465ZM62.1426 106.707L68.3979 110.31L68.5711 110.009L62.3158 106.406L62.1426 106.707ZM68.3979 110.009L62.1426 113.611L62.3158 113.912L68.5711 110.31L68.3979 110.009ZM62.2292 113.935H62.2323V113.588H62.2292V113.935ZM62.1455 113.612C60.791 114.394 59.1505 115.292 57.7721 116.048L57.9389 116.352C59.3162 115.597 60.9605 114.697 62.3191 113.912L62.1455 113.612ZM57.7723 116.048C53.9187 118.152 51.9307 119.238 50.6462 121.458L50.9465 121.631C52.1724 119.513 54.0583 118.471 57.9386 116.352L57.7723 116.048ZM50.6228 121.545V121.556H50.9699V121.545H50.6228ZM50.6461 121.47C49.3673 123.683 49.4179 125.939 49.5095 130.315L49.8564 130.308C49.7642 125.901 49.7262 123.755 50.9466 121.643L50.6461 121.47ZM49.5095 130.315C49.5221 130.937 49.5379 138.03 49.5482 143.113L49.8952 143.113C49.885 138.033 49.8691 130.934 49.8564 130.308L49.5095 130.315ZM49.8083 142.963L43.3146 139.224L43.1415 139.524L49.6351 143.263L49.8083 142.963ZM43.3234 139.519L43.3281 139.516L43.1375 139.226L43.1327 139.229L43.3234 139.519ZM43.3194 139.22L11.8321 121.097L11.659 121.397L43.1462 139.521L43.3194 139.22ZM11.9191 121.247V85.0026H11.572V121.247H11.9191ZM11.9191 85.0026V48.7544H11.572V85.0026H11.9191ZM11.8321 48.9048L43.3194 30.7841L43.1463 30.4834L11.659 48.604L11.8321 48.9048ZM43.3434 30.5L43.3386 30.4961L43.1175 30.7635L43.1222 30.7675L43.3434 30.5ZM43.3146 30.7802L49.8082 27.0419L49.6351 26.7412L43.1415 30.4794L43.3146 30.7802ZM49.5482 26.8912C49.5379 31.9045 49.5221 39.06 49.5095 39.6918L49.8564 39.6987C49.8691 39.0628 49.885 31.9016 49.8952 26.8919L49.5482 26.8912ZM49.5095 39.6917C49.4179 44.0773 49.3656 46.3342 50.6462 48.5469L50.9465 48.3731C49.7246 46.2617 49.7642 44.1157 49.8564 39.6989L49.5095 39.6917ZM50.8521 48.6243L50.8568 48.6227L50.7454 48.294L50.7406 48.2956L50.8521 48.6243ZM50.6511 48.5456C51.9474 50.7736 53.9319 51.8564 57.7768 53.9614L57.9435 53.657C54.0721 51.5376 52.1889 50.4986 50.9511 48.3711L50.6511 48.5456ZM57.777 53.9615C59.1518 54.7122 60.7595 55.5946 62.1458 56.3916L62.3188 56.0908C60.9288 55.2916 59.3181 54.4076 57.9433 53.6569L57.777 53.9615ZM62.157 56.0849L62.1539 56.0864L62.3045 56.399L62.3076 56.3975L62.157 56.0849ZM62.1426 56.3931C68.797 60.2253 75.4206 64.0385 82.0712 67.8652L82.2442 67.5644C75.5937 63.7378 68.9702 59.9246 62.3158 56.0923L62.1426 56.3931ZM84.0828 119.312H84.0914V118.965H84.0828V119.312ZM84.0048 119.289C86.0789 120.483 87.3947 121.205 88.4866 121.8L88.6528 121.496C87.5623 120.901 86.2489 120.18 84.1779 118.988L84.0048 119.289ZM88.4864 121.8C89.9209 122.585 90.9903 123.17 91.7485 123.64C92.1274 123.875 92.4241 124.078 92.6476 124.26C92.8723 124.443 93.014 124.598 93.0927 124.734L93.3929 124.56C93.2839 124.372 93.1057 124.186 92.8668 123.991C92.6266 123.795 92.3156 123.583 91.9313 123.345C91.1631 122.869 90.0837 122.278 88.653 121.496L88.4864 121.8ZM93.0693 124.647V124.658H93.4163V124.647H93.0693ZM93.0927 124.745C93.174 124.885 93.2395 125.088 93.2878 125.375C93.3358 125.66 93.3651 126.018 93.3805 126.462C93.4113 127.35 93.3857 128.561 93.3512 130.182L93.6982 130.19C93.7326 128.572 93.7585 127.35 93.7273 126.45C93.7117 126 93.6817 125.624 93.63 125.317C93.5786 125.011 93.504 124.762 93.3929 124.571L93.0927 124.745ZM93.3512 130.182C93.3306 131.155 93.3053 140.814 93.2934 145.542L93.6404 145.543C93.6523 140.811 93.6776 131.158 93.6982 130.19L93.3512 130.182ZM93.2934 145.541C93.2883 146.221 92.9533 146.802 92.3644 147.14L92.5373 147.441C93.2345 147.041 93.6344 146.346 93.6404 145.544L93.2934 145.541ZM92.3643 147.14L74.6318 157.344L74.8049 157.645L92.5374 147.441L92.3643 147.14ZM74.8049 157.344L57.0748 147.14L56.9017 147.441L74.6318 157.645L74.8049 157.344ZM57.0744 147.14C56.4823 146.802 56.1462 146.221 56.1425 145.541L55.7955 145.543C55.7998 146.346 56.2018 147.041 56.9021 147.441L57.0744 147.14ZM56.1425 145.542C56.1291 140.814 56.1053 131.157 56.0847 130.188L55.7378 130.195C55.7583 131.16 55.782 140.811 55.7955 145.543L56.1425 145.542ZM56.0847 130.188C56.0494 128.569 56.0243 127.359 56.055 126.469C56.0704 126.024 56.0996 125.665 56.1473 125.377C56.1953 125.089 56.2602 124.883 56.341 124.741L56.039 124.57C55.9297 124.763 55.856 125.013 55.805 125.321C55.7538 125.629 55.7238 126.006 55.7082 126.457C55.677 127.359 55.7025 128.581 55.7378 130.195L56.0847 130.188ZM56.0993 124.803L56.1032 124.806L56.2847 124.51L56.2807 124.507L56.0993 124.803ZM56.3439 124.745C56.4253 124.605 56.5691 124.448 56.7945 124.262C57.0188 124.078 57.3154 123.874 57.6935 123.638C58.4502 123.167 59.5152 122.582 60.9424 121.8L60.7757 121.496C59.3521 122.276 58.2769 122.866 57.51 123.344C57.1263 123.583 56.8153 123.796 56.5742 123.994C56.3343 124.191 56.1551 124.38 56.044 124.57L56.3439 124.745ZM60.9422 121.8C62.0333 121.205 63.3198 120.5 65.4293 119.289L65.2566 118.988C63.1499 120.197 61.8658 120.901 60.7759 121.496L60.9422 121.8ZM65.3429 119.312H65.3532V118.965H65.3429V119.312ZM65.4397 119.289L74.8049 113.898L74.6318 113.597L65.2666 118.988L65.4397 119.289ZM74.6318 113.898L83.9962 119.289L84.1693 118.988L74.8049 113.597L74.6318 113.898ZM142.356 44.2303L109.346 25.2312L109.173 25.532L142.183 44.5311L142.356 44.2303ZM109.259 25.2081H109.245V25.5551H109.259V25.2081ZM109.332 25.2312L76.319 6.23523L76.146 6.53602L109.158 25.532L109.332 25.2312ZM76.3192 6.23533L74.8059 5.36239L74.6325 5.663L76.1458 6.53593L76.3192 6.23533ZM74.6326 5.36233L73.1169 6.23527L73.2901 6.53599L74.8058 5.66306L74.6326 5.36233ZM73.117 6.23523L40.1061 25.2312L40.2792 25.532L73.2901 6.53602L73.117 6.23523ZM40.1926 25.2081H40.1792V25.5551H40.1926V25.2081ZM40.0926 25.2312L7.08012 44.2303L7.25322 44.5311L40.2657 25.532L40.0926 25.2312ZM7.08022 44.2303L5.55417 45.1073L5.72708 45.4081L7.25313 44.5312L7.08022 44.2303ZM5.46711 45.2577V47.006H5.81414V45.2577H5.46711ZM5.46711 47.006V85.0026H5.81414V47.006H5.46711ZM5.46711 85.0026V122.999H5.81414V85.0026H5.46711ZM5.46711 122.999V124.744H5.81414V122.999H5.46711ZM5.55388 124.894L7.07993 125.775L7.25342 125.474L5.72737 124.593L5.55388 124.894ZM7.08013 125.775L40.0926 144.772L40.2657 144.471L7.25321 125.474L7.08013 125.775ZM40.1792 144.795H40.1926V144.448H40.1792V144.795ZM40.1061 144.772L73.117 163.768L73.2901 163.467L40.2792 144.471L40.1061 144.772ZM73.1172 163.768L74.6329 164.638L74.8056 164.337L73.2899 163.467L73.1172 163.768ZM74.8057 164.638L76.319 163.768L76.146 163.467L74.6328 164.337L74.8057 164.638ZM76.319 163.768L109.332 144.772L109.158 144.471L76.146 163.467L76.319 163.768ZM109.245 144.795H109.259V144.448H109.245V144.795ZM109.346 144.772L142.356 125.775L142.183 125.474L109.173 144.471L109.346 144.772ZM142.356 125.775L143.884 124.894L143.71 124.593L142.183 125.474L142.356 125.775ZM143.97 124.744V122.999H143.623V124.744H143.97ZM143.97 122.999V88.3367H143.623V122.999H143.97ZM143.97 88.3367V81.8735H143.623V88.3367H143.97ZM143.797 81.7H107.827V82.047H143.797V81.7ZM107.654 81.8735V88.0864H108.001V81.8735H107.654ZM107.826 88.2599L137.692 88.5102L137.695 88.1632L107.829 87.9129L107.826 88.2599ZM137.52 88.3367V121.247H137.867V88.3367H137.52ZM137.607 121.097L106.118 139.22L106.291 139.521L137.78 121.397L137.607 121.097ZM106.082 139.494L106.085 139.497L106.331 139.251L106.327 139.248L106.082 139.494ZM106.121 139.224L99.6309 142.963L99.8041 143.263L106.295 139.524L106.121 139.224ZM99.891 143.113C99.8997 138.03 99.9164 130.931 99.9282 130.309L99.5812 130.303C99.5693 130.928 99.5527 138.033 99.544 143.113L99.891 143.113ZM99.9282 130.31C100.02 125.925 100.072 123.669 98.7906 121.458L98.4904 121.632C99.7131 123.741 99.6734 125.886 99.5812 130.302L99.9282 130.31ZM98.6405 121.371H98.6349V121.718H98.6405V121.371ZM98.785 121.457C97.4903 119.23 95.5073 118.146 91.6624 116.041L91.4957 116.346C95.367 118.465 97.2487 119.505 98.4849 121.632L98.785 121.457ZM91.6594 116.04L91.5446 115.98L91.3838 116.287L91.4987 116.347L91.6594 116.04ZM91.3062 116.062L91.2944 116.088L91.6103 116.232L91.6221 116.205L91.3062 116.062ZM91.5384 116.009L90.1145 115.196L89.9424 115.497L91.3663 116.31L91.5384 116.009ZM90.1508 115.224L90.1484 115.221L89.9038 115.467L89.9061 115.47L90.1508 115.224ZM90.1083 115.192L90.0394 115.155L89.875 115.46L89.9439 115.497L90.1083 115.192ZM90.0413 115.156C89.111 114.64 88.1593 114.109 87.2933 113.611L87.1205 113.912C87.9888 114.411 88.9423 114.943 89.8731 115.459L90.0413 115.156ZM87.2069 113.935H87.21V113.588H87.2069V113.935ZM87.2966 113.611L82.1754 110.662L82.0022 110.962L87.1234 113.912L87.2966 113.611ZM82.1748 110.661L66.1401 101.505L65.968 101.806L82.0027 110.963L82.1748 110.661ZM66.202 101.746L66.2354 101.692L65.9394 101.511L65.9061 101.565L66.202 101.746ZM66.1742 101.451L65.4409 101.027L65.2672 101.328L66.0006 101.752L66.1742 101.451ZM65.354 101.004H65.3438V101.351H65.354V101.004ZM65.4302 101.027C63.3563 99.836 62.043 99.1147 60.9488 98.516L60.7822 98.8205C61.8753 99.4185 63.1863 100.139 65.2574 101.328L65.4302 101.027ZM60.9492 98.5162C60.7141 98.3869 59.5521 97.7755 58.4449 97.125C57.8912 96.7997 57.3561 96.4675 56.9609 96.1836C56.7627 96.0412 56.6048 95.9146 56.4981 95.8099C56.4446 95.7574 56.4085 95.7147 56.3868 95.682C56.3628 95.6457 56.3683 95.6394 56.3683 95.6554H56.0213C56.0213 95.7408 56.0597 95.8167 56.0976 95.8738C56.1378 95.9345 56.1925 95.9963 56.255 96.0576C56.3803 96.1806 56.5549 96.3192 56.7584 96.4655C57.1668 96.7588 57.7129 97.0974 58.2691 97.4242C59.3818 98.0779 60.5552 98.6955 60.7818 98.8203L60.9492 98.5162ZM56.3448 95.5682C56.2637 95.4287 56.1982 95.2265 56.1498 94.94C56.1016 94.6549 56.072 94.2971 56.0564 93.8534C56.0251 92.9654 56.0503 91.7545 56.0856 90.1315L55.7386 90.124C55.7034 91.7428 55.6779 92.9654 55.7096 93.8656C55.7254 94.3161 55.7557 94.691 55.8076 94.9978C55.8592 95.3031 55.9338 95.5518 56.0448 95.7426L56.3448 95.5682ZM56.0856 90.1312L56.1014 89.3411L55.7544 89.3342L55.7386 90.1243L56.0856 90.1312ZM56.1014 89.3409C56.1123 88.7612 56.5904 88.2924 57.1752 88.2924V87.9454C56.4026 87.9454 55.7689 88.5643 55.7544 89.3344L56.1014 89.3409ZM57.1752 88.2924H92.2624V87.9454H57.1752V88.2924ZM92.2624 88.2924C92.8485 88.2924 93.3244 88.7609 93.3346 89.3407L93.6816 89.3346C93.6681 88.5646 93.0369 87.9454 92.2624 87.9454V88.2924ZM93.3346 89.3415L93.3521 90.1316L93.699 90.1239L93.6816 89.3338L93.3346 89.3415ZM93.3521 90.1315C93.3866 91.7486 93.4121 92.9574 93.3818 93.8466C93.3666 94.2908 93.3376 94.6501 93.2899 94.9375C93.242 95.2262 93.177 95.432 93.0958 95.5755L93.3978 95.7464C93.5075 95.5525 93.5813 95.3016 93.6323 94.9943C93.6834 94.6856 93.7132 94.3094 93.7286 93.8584C93.7594 92.9572 93.7334 91.7369 93.699 90.1241L93.3521 90.1315ZM93.3978 95.5755L93.3947 95.57L93.0926 95.7409L93.0958 95.7464L93.3978 95.5755ZM93.0935 95.5685C93.0123 95.7088 92.8687 95.8668 92.6434 96.052C92.4192 96.2363 92.1226 96.4408 91.7445 96.6762C90.9877 97.1473 89.9228 97.7313 88.4958 98.5138L88.6627 98.8181C90.0858 98.0377 91.161 97.4483 91.9279 96.9708C92.3116 96.7319 92.6227 96.5183 92.8638 96.3201C93.1037 96.1228 93.283 95.9339 93.3938 95.7423L93.0935 95.5685ZM88.4961 98.5136C87.402 99.1114 86.1171 99.813 84.0057 101.027L84.1787 101.328C86.2868 100.116 87.5692 99.4155 88.6624 98.8182L88.4961 98.5136ZM84.0922 101.004H84.0836V101.351H84.0922V101.004ZM83.997 101.027L78.1692 104.384L78.3425 104.685L84.1702 101.328L83.997 101.027ZM78.1696 104.384C77.7913 104.601 77.5748 104.979 77.5748 105.412H77.9218C77.9218 105.102 78.0727 104.839 78.3421 104.685L78.1696 104.384ZM77.5748 105.412C77.5748 105.848 77.7982 106.225 78.1724 106.441L78.3458 106.14C78.0769 105.985 77.9218 105.722 77.9218 105.412H77.5748ZM78.1731 106.441L82.3932 108.848L82.5651 108.547L78.3451 106.14L78.1731 106.441ZM82.3921 108.848C82.7675 109.065 83.2013 109.065 83.5766 108.848L83.4026 108.547C83.1349 108.702 82.8338 108.702 82.5661 108.547L82.3921 108.848ZM83.5762 108.848L87.2965 106.707L87.1235 106.406L83.4031 108.547L83.5762 108.848ZM87.3604 106.47L87.3573 106.465L87.0565 106.638L87.0596 106.643L87.3604 106.47ZM87.2935 106.702C88.6433 105.924 90.2871 105.024 91.6653 104.272L91.499 103.967C90.1213 104.719 88.4741 105.621 87.1203 106.401L87.2935 106.702ZM91.6655 104.272C95.5182 102.161 97.507 101.075 98.7907 98.8587L98.4904 98.6847C97.2652 100.8 95.3785 101.842 91.4988 103.967L91.6655 104.272ZM98.814 98.7717V98.763H98.467V98.7717H98.814ZM98.7907 98.8499C100.072 96.6357 100.02 94.3773 99.9282 90.0034L99.5812 90.0106C99.6734 94.4156 99.7131 96.5632 98.4903 98.6761L98.7907 98.8499ZM99.9282 90.0035C99.9053 88.8823 99.8767 87.571 99.8767 85.0026H99.5297C99.5297 87.5744 99.5583 88.8883 99.5812 90.0106L99.9282 90.0035ZM99.8767 85.0026C99.8767 82.4312 99.9053 81.1143 99.9282 79.9995L99.5812 79.9924C99.5583 81.1083 99.5297 82.4278 99.5297 85.0026H99.8767ZM99.9282 79.9996C100.02 75.6131 100.072 73.3553 98.7906 71.1443L98.4904 71.3183C99.7131 73.4279 99.6734 75.5746 99.5812 79.9924L99.9282 79.9996ZM98.6405 71.0578H98.6349V71.4048H98.6405V71.0578ZM98.785 71.1441C97.4903 68.9168 95.5073 67.8332 91.6623 65.729L91.4957 66.0335C95.367 68.1521 97.2487 69.1918 98.4849 71.3185L98.785 71.1441ZM91.662 65.7288C90.2842 64.9791 88.6782 64.0966 87.2934 63.2997L87.1203 63.6005C88.5089 64.3995 90.1179 65.2837 91.4961 66.0337L91.662 65.7288ZM87.3426 63.5582L87.3457 63.5542L87.0743 63.338L87.0712 63.3419L87.3426 63.5582ZM87.2965 63.2957L81.0381 59.6948L80.865 59.9956L87.1235 63.5965L87.2965 63.2957ZM81.0381 59.9956L87.2966 56.3931L87.1234 56.0923L80.865 59.6948L81.0381 59.9956ZM87.2854 56.0865L87.2823 56.0849L87.1314 56.3975L87.1346 56.399L87.2854 56.0865ZM87.2938 56.3913C88.6434 55.6096 90.2869 54.7125 91.6655 53.9583L91.4989 53.6538C90.1216 54.4073 88.4739 55.3067 87.1199 56.091L87.2938 56.3913ZM91.6655 53.9583C95.5182 51.8495 97.507 50.7633 98.7907 48.5469L98.4904 48.373C97.2653 50.4883 95.3785 51.5303 91.4989 53.6539L91.6655 53.9583ZM98.814 48.46V48.4481H98.467V48.46H98.814ZM98.7907 48.5351C100.072 46.3216 100.02 44.064 99.9282 39.6892L99.5812 39.6965C99.6734 44.1023 99.7131 46.249 98.4903 48.3612L98.7907 48.5351ZM99.9282 39.6896C99.9164 39.0594 99.8997 31.9082 99.891 26.8921L99.544 26.8927C99.5527 31.9057 99.5693 39.062 99.5812 39.6961L99.9282 39.6896ZM99.6309 27.0427L106.121 30.7802L106.295 30.4794L99.8041 26.742L99.6309 27.0427ZM106.072 30.5217L106.069 30.5256L106.341 30.7419L106.344 30.738L106.072 30.5217ZM106.118 30.7841L137.607 48.9048L137.78 48.604L106.291 30.4834L106.118 30.7841ZM137.52 48.7544V60.1149H137.867V48.7544H137.52ZM137.694 60.2884H143.797V59.9414H137.694V60.2884ZM143.97 60.1149V47.006H143.623V60.1149H143.97ZM143.97 47.006V45.2577H143.623V47.006H143.97ZM143.883 45.1072L142.356 44.2302L142.183 44.5312L143.711 45.4082L143.883 45.1072Z"
            fill="#00FFC8" />
    </g>
</svg>
