<svg width="133" height="152" viewBox="0 0 133 152" fill="none" xmlns="http://www.w3.org/2000/svg">
    <defs>
        <filter id="filter0_d_3291_28120" x="0.5313" y="0.984425" width="132.164" height="150.031"
            filterUnits="userSpaceOnUse" color-interpolation-filters="sRGB">
            <feFlood flood-opacity="0" result="BackgroundImageFix" />
            <feColorMatrix in="SourceAlpha" type="matrix"
                values="0 0 0 0 0 0 0 0 0 0 0 0 0 0 0 0 0 0 127 0" result="hardAlpha" />
            <feOffset />
            <feGaussianBlur stdDeviation="3.39744" />
            <feComposite in2="hardAlpha" operator="out" />
            <feColorMatrix type="matrix"
                values="0 0 0 0 0 0 0 0 0 1 0 0 0 0 0.786112 0 0 0 0.5 0" />
            <feBlend mode="normal" in2="BackgroundImageFix"
                result="effect1_dropShadow_3291_28120" />
            <feBlend mode="normal" in="SourceGraphic" in2="effect1_dropShadow_3291_28120"
                result="shape" />
        </filter>
    </defs>
    <g opacity="0.1" filter="url(#filter0_d_3291_28120)">
        <path
            d="M82.4513 42.1044L82.2547 42.2345L82.4667 42.5549L82.6564 42.2208L82.4513 42.1044ZM82.4486 42.1003L82.6453 41.9702L82.4354 41.653L82.2446 41.982L82.4486 42.1003ZM78.4613 44.6738L78.5741 44.8809L78.5747 44.8806L78.4613 44.6738ZM74.6256 46.8202V47.056H74.6885L74.743 47.0247L74.6256 46.8202ZM74.6183 46.8202V46.5844H74.5553L74.5006 46.6158L74.6183 46.8202ZM66.6132 51.428V51.6638H66.6763L66.7309 51.6324L66.6132 51.428ZM66.6125 51.428L66.4949 51.6324L66.5495 51.6638H66.6125V51.428ZM58.6075 46.8202L58.7251 46.6158L58.6705 46.5844H58.6075V46.8202ZM58.5987 46.8202L58.4812 47.0246L58.5358 47.056H58.5987V46.8202ZM54.7705 44.6745L54.6573 44.8813L54.6576 44.8815L54.7705 44.6745ZM50.7778 42.1111H50.542V42.1743L50.5736 42.229L50.7778 42.1111ZM50.7778 42.1003H51.0136V42.037L50.9819 41.9822L50.7778 42.1003ZM50.5362 37.3757L50.7719 37.3809L50.7719 37.3807L50.5362 37.3757ZM50.5876 24.2485L50.3518 24.2475L50.3518 24.2478L50.5876 24.2485ZM51.4568 22.7527L51.3392 22.5483L51.3391 22.5484L51.4568 22.7527ZM66.6132 14.0322L66.7308 13.8278L66.6132 13.7601L66.4956 13.8278L66.6132 14.0322ZM81.7689 22.7527L81.8867 22.5484L81.8865 22.5483L81.7689 22.7527ZM82.6402 24.2485L82.876 24.2479L82.876 24.2468L82.6402 24.2485ZM82.6896 37.3724L82.4538 37.3773V37.3774L82.6896 37.3724ZM72.9725 61.224L72.8549 61.4284L72.8555 61.4287L72.9725 61.224ZM74.8178 62.2794H75.0536V62.1426L74.9349 62.0747L74.8178 62.2794ZM74.8178 62.2807H74.582V62.4171L74.7003 62.4851L74.8178 62.2807ZM78.4545 64.3184L78.5676 64.1115L78.5673 64.1114L78.4545 64.3184ZM82.4492 66.8818H82.6851V66.8183L82.6532 66.7634L82.4492 66.8818ZM82.4492 66.8926H82.2134V66.9562L82.2454 67.0111L82.4492 66.8926ZM82.6902 71.6192L82.926 71.6244V71.6242L82.6902 71.6192ZM82.6753 72.2933L82.4396 72.288L82.4396 72.2891L82.6753 72.2933ZM50.5503 72.2933L50.7861 72.2888L50.7861 72.2885L50.5503 72.2933ZM50.5368 71.6192L50.7726 71.6144L50.7725 71.6136L50.5368 71.6192ZM50.7785 66.8926L50.6366 67.081L50.8488 67.2408L50.9823 67.0111L50.7785 66.8926ZM54.7664 64.3205L54.6533 64.1136L54.6531 64.1137L54.7664 64.3205ZM58.5994 62.1734V61.9376H58.5364L58.4818 61.969L58.5994 62.1734ZM58.6081 62.1734V62.4092H58.6711L58.7257 62.3778L58.6081 62.1734ZM63.5391 59.3361L63.6567 59.5405L63.6583 59.5396L63.5391 59.3361ZM63.9737 58.5824H64.2095L64.2095 58.5814L63.9737 58.5824ZM63.5357 57.8327L63.6532 57.6283L63.6526 57.628L63.5357 57.8327ZM59.9309 55.7735L60.0479 55.5687L60.0472 55.5683L59.9309 55.7735ZM59.0644 55.7754L59.182 55.9798L59.1823 55.9797L59.0644 55.7754ZM55.9369 57.575L55.8193 57.3706L55.5813 57.5075L55.7526 57.7221L55.9369 57.575ZM55.9395 57.5784L56.0572 57.7827L56.295 57.6457L56.1238 57.4312L55.9395 57.5784ZM52.1981 59.66L52.3112 59.8669L52.3112 59.8669L52.1981 59.66ZM46.1636 64.2301L45.9596 64.1118L45.9278 64.1667V64.2301H46.1636ZM46.1636 64.2415L46.3677 64.3596L46.3994 64.3048V64.2415H46.1636ZM45.2119 71.7231L45.4476 71.7182L45.4476 71.7181L45.2119 71.7231ZM45.2119 80.2803L45.4476 80.2852L45.4476 80.2851L45.2119 80.2803ZM46.1636 87.7727L45.9596 87.8909L46.0277 88.0085H46.1636V87.7727ZM46.1677 87.7727L46.3715 87.6541L46.3033 87.5369H46.1677V87.7727ZM52.202 92.3468L52.0888 92.5536L52.0892 92.5539L52.202 92.3468ZM55.9395 94.423L56.1438 94.5408L56.262 94.336L56.0568 94.2184L55.9395 94.423ZM55.9369 94.4276L55.7326 94.3098L55.6147 94.5142L55.8192 94.632L55.9369 94.4276ZM61.2842 97.5073L61.4018 97.7116L61.7566 97.5073L61.4018 97.3029L61.2842 97.5073ZM55.9369 100.587L55.8192 100.382L55.0549 100.823H55.9369V100.587ZM55.9395 100.587L56.0575 100.791L56.819 100.351H55.9395V100.587ZM52.1981 102.671L52.3111 102.878L52.3114 102.878L52.1981 102.671ZM46.1636 107.24L45.9595 107.122L45.9278 107.176V107.24H46.1636ZM46.1636 107.25L46.3678 107.368L46.3994 107.313V107.25H46.1636ZM45.2119 114.734L45.4476 114.729L45.4476 114.729L45.2119 114.734ZM45.245 125.677L45.1273 125.882L45.4816 126.086L45.4808 125.677L45.245 125.677ZM39.694 122.481L39.5644 122.284L39.2445 122.494L39.5763 122.685L39.694 122.481ZM39.698 122.478L39.8276 122.675L40.1475 122.465L39.8157 122.274L39.698 122.478ZM12.7815 106.985H12.5457V107.122L12.6639 107.19L12.7815 106.985ZM12.7815 45.0159L12.6639 44.8116L12.5457 44.8796V45.0159H12.7815ZM39.698 29.5257L39.8156 29.7301L40.1102 29.5606L39.8483 29.344L39.698 29.5257ZM39.694 29.5224L39.5763 29.318L39.2818 29.4875L39.5437 29.7041L39.694 29.5224ZM45.245 26.3267L45.4808 26.3272L45.4816 25.9184L45.1273 26.1224L45.245 26.3267ZM45.2119 37.2719L45.4476 37.2768L45.4476 37.2766L45.2119 37.2719ZM46.1636 44.7643L45.9595 44.8824L46.0563 45.0496L46.2393 44.9876L46.1636 44.7643ZM46.1677 44.7629L46.3715 44.6443L46.2746 44.4777L46.092 44.5396L46.1677 44.7629ZM52.202 49.337L52.0888 49.5438L52.089 49.544L52.202 49.337ZM55.9395 51.416L56.0419 51.6284L56.4447 51.4344L56.0571 51.2115L55.9395 51.416ZM55.9369 51.4172L55.8345 51.2048L55.4321 51.3986L55.8192 51.6216L55.9369 51.4172ZM74.6184 105.183L74.5008 105.388L74.5554 105.419H74.6184V105.183ZM74.6258 105.183L74.7434 104.979L74.6888 104.947H74.6258V105.183ZM78.454 107.328L78.5672 107.121L78.5669 107.121L78.454 107.328ZM82.4488 109.891H82.6846V109.828L82.6527 109.773L82.4488 109.891ZM82.4488 109.901H82.213V109.964L82.2448 110.019L82.4488 109.901ZM82.6897 114.627L82.454 114.622V114.622L82.6897 114.627ZM82.6403 127.754L82.8761 127.756V127.755L82.6403 127.754ZM81.7718 129.249L81.6543 129.044L81.6542 129.044L81.7718 129.249ZM66.6134 137.971L66.4958 138.175L66.6134 138.243L66.731 138.175L66.6134 137.971ZM51.457 129.249L51.5746 129.044L51.574 129.044L51.457 129.249ZM50.5857 127.754L50.3499 127.755L50.3499 127.755L50.5857 127.754ZM50.5363 114.632L50.7721 114.627V114.626L50.5363 114.632ZM50.7746 109.899L50.8979 109.698L50.6897 109.57L50.5694 109.783L50.7746 109.899ZM50.778 109.901L50.6547 110.102L50.8603 110.228L50.9817 110.02L50.778 109.901ZM54.7659 107.328L54.6529 107.121L54.6526 107.121L54.7659 107.328ZM58.5989 105.183V104.947H58.536L58.4815 104.979L58.5989 105.183ZM58.6076 105.183V105.419H58.6707L58.7253 105.388L58.6076 105.183ZM66.6134 100.575L66.731 100.37L66.6134 100.302L66.4957 100.37L66.6134 100.575ZM124.358 41.2772L124.24 41.4815L124.241 41.4817L124.358 41.2772ZM96.1397 25.036L96.2574 24.8316L96.2028 24.8002H96.1397V25.036ZM96.1275 25.036L96.0099 25.2404L96.0645 25.2718H96.1275V25.036ZM67.9072 8.79749L67.7893 9.00174L67.7896 9.00187L67.9072 8.79749ZM66.6136 8.05127L66.7314 7.84701L66.6137 7.7791L66.4959 7.84693L66.6136 8.05127ZM65.3179 8.79749L65.4355 9.00187L65.4356 9.00182L65.3179 8.79749ZM37.0989 25.036V25.2718H37.1619L37.2165 25.2404L37.0989 25.036ZM37.0874 25.036V24.8002H37.0244L36.9698 24.8316L37.0874 25.036ZM8.86702 41.2772L8.98452 41.4816L8.98464 41.4815L8.86702 41.2772ZM7.5625 42.0268L7.44501 41.8224L7.3267 41.8904V42.0268H7.5625ZM7.5625 109.975H7.3267V110.111L7.44461 110.179L7.5625 109.975ZM8.86702 110.728L8.74914 110.932L8.74942 110.932L8.86702 110.728ZM37.0874 126.967L36.9698 127.171L37.0244 127.202H37.0874V126.967ZM37.0989 126.967L37.2165 126.762L37.1619 126.731H37.0989V126.967ZM65.3179 143.205L65.2003 143.41L65.2005 143.41L65.3179 143.205ZM66.6136 143.949L66.4962 144.153L66.6137 144.221L66.7311 144.153L66.6136 143.949ZM67.9072 143.205L68.0247 143.41L68.0248 143.41L67.9072 143.205ZM96.1275 126.967V126.731H96.0645L96.0099 126.762L96.1275 126.967ZM96.1397 126.967V127.202H96.2027L96.2574 127.171L96.1397 126.967ZM124.358 110.728L124.476 110.932L124.476 110.932L124.358 110.728ZM125.664 109.975L125.782 110.179L125.9 110.111V109.975H125.664ZM125.664 73.3274H125.9V73.0916H125.664V73.3274ZM94.9157 73.3274V73.0916H94.6799V73.3274H94.9157ZM94.9157 78.6384H94.6799V78.8723L94.9137 78.8742L94.9157 78.6384ZM120.447 78.8524H120.682V78.6186L120.449 78.6167L120.447 78.8524ZM120.447 106.985L120.564 107.19L120.682 107.122V106.985H120.447ZM93.5287 122.478L93.4111 122.274L93.144 122.428L93.3622 122.645L93.5287 122.478ZM93.5314 122.481L93.6491 122.685L93.916 122.532L93.6979 122.314L93.5314 122.481ZM87.9831 125.677L87.7473 125.677L87.7466 126.086L88.1008 125.882L87.9831 125.677ZM88.0149 114.729L87.7791 114.725L87.7791 114.725L88.0149 114.729ZM87.0624 107.24L87.2664 107.122L87.1983 107.004H87.0624V107.24ZM87.0576 107.24L86.8538 107.358L86.922 107.476H87.0576V107.24ZM81.026 102.666L81.1392 102.459L81.1352 102.457L81.026 102.666ZM80.9278 102.614L81.037 102.405L80.8162 102.29L80.7131 102.517L80.9278 102.614ZM80.9177 102.637L80.8007 102.841L81.0253 102.97L81.1323 102.734L80.9177 102.637ZM79.7005 101.942L79.5343 102.109L79.5564 102.131L79.5836 102.146L79.7005 101.942ZM79.6985 101.94L79.8647 101.772L79.8404 101.748L79.8102 101.732L79.6985 101.94ZM79.6396 101.908L79.5253 102.114L79.5279 102.116L79.6396 101.908ZM77.2885 100.587V100.351H76.4044L77.1711 100.791L77.2885 100.587ZM77.2912 100.587V100.823H78.173L77.4089 100.382L77.2912 100.587ZM72.9133 98.0652L73.031 97.8609L73.0302 97.8604L72.9133 98.0652ZM59.2062 90.2381L59.0051 90.115L58.8782 90.3223L59.0893 90.4429L59.2062 90.2381ZM59.2347 90.1916L59.4358 90.3147L59.5622 90.1084L59.3527 89.9874L59.2347 90.1916ZM58.6078 89.8293L58.7258 89.6251L58.6711 89.5935H58.6078V89.8293ZM58.5991 89.8293L58.4816 90.0337L58.5362 90.0651H58.5991V89.8293ZM54.7709 87.6842L54.6572 87.8908L54.6577 87.8911L54.7709 87.6842ZM50.7782 85.1087H51.014V85.0452L50.982 84.9902L50.7782 85.1087ZM50.5365 80.3835L50.7722 80.3886L50.7723 80.3882L50.5365 80.3835ZM50.55 79.7081L50.7858 79.7128L50.7858 79.7125L50.55 79.7081ZM82.675 79.7081L82.4393 79.7122L82.4393 79.7133L82.675 79.7081ZM82.6899 80.3835L82.9257 80.3785V80.3783L82.6899 80.3835ZM82.4516 85.1135L82.2464 85.2296L82.4516 85.5924L82.6569 85.2296L82.4516 85.1135ZM82.449 85.1087L82.6542 84.9927L82.4513 84.6339L82.2449 84.9907L82.449 85.1087ZM78.4616 87.6822L78.5747 87.8892L78.575 87.889L78.4616 87.6822ZM74.626 89.8293V90.0651H74.6889L74.7435 90.0337L74.626 89.8293ZM74.6186 89.8293V89.5935H74.5555L74.5009 89.6249L74.6186 89.8293ZM69.6368 92.699L69.754 92.9036L69.7545 92.9033L69.6368 92.699ZM69.6396 94.2002L69.5218 94.4045L69.5228 94.4051L69.6396 94.2002ZM73.247 96.2576L73.3652 96.0536L73.3638 96.0528L73.247 96.2576ZM74.1108 96.2576L73.9932 96.0532L73.9926 96.0536L74.1108 96.2576ZM77.2912 94.4277L77.4088 94.632L77.6132 94.5144L77.4955 94.31L77.2912 94.4277ZM77.2885 94.423L77.1708 94.2186L76.9665 94.3363L77.0841 94.5406L77.2885 94.423ZM81.0287 92.344L81.1417 92.551L81.1419 92.5508L81.0287 92.344ZM87.0624 87.7727L87.2664 87.8909L87.2982 87.836V87.7727H87.0624ZM87.0624 87.7652L86.8583 87.6471L86.8266 87.7019V87.7652H87.0624ZM88.0149 80.2803L87.7791 80.2851V80.2852L88.0149 80.2803ZM88.0149 71.7225L87.7791 71.7175V71.7176L88.0149 71.7225ZM87.0624 64.2301L87.2664 64.1118L87.1983 63.9943H87.0624V64.2301ZM87.0576 64.2301L86.8538 64.3486L86.922 64.4659H87.0576V64.2301ZM81.026 59.6566L81.1392 59.4498L81.1387 59.4495L81.026 59.6566ZM77.2885 57.5784L77.104 57.4314L76.9331 57.646L77.1709 57.7827L77.2885 57.5784ZM77.2912 57.575L77.4756 57.7219L77.6465 57.5074L77.4088 57.3706L77.2912 57.575ZM71.9412 54.4968L71.8235 54.2924L71.4684 54.4968L71.8236 54.7012L71.9412 54.4968ZM77.2912 51.4172L77.4088 51.6216L77.7956 51.3989L77.3937 51.2049L77.2912 51.4172ZM77.2885 51.416L77.1703 51.2119L76.7853 51.4349L77.186 51.6283L77.2885 51.416ZM81.0287 49.3343L81.1418 49.5412L81.1419 49.5412L81.0287 49.3343ZM87.0624 44.7643L87.2664 44.8824L87.2982 44.8276V44.7643H87.0624ZM87.0624 44.7542L86.8583 44.636L86.8266 44.6908V44.7542H87.0624ZM88.0149 37.2698L87.7791 37.2742L87.7791 37.2747L88.0149 37.2698ZM87.9831 26.3274L88.1007 26.1231L87.7465 25.9191L87.7473 26.3279L87.9831 26.3274ZM93.5314 29.5224L93.7158 29.6693L93.8867 29.4549L93.6491 29.318L93.5314 29.5224ZM93.5287 29.5257L93.3443 29.3787L93.1733 29.5933L93.4111 29.7301L93.5287 29.5257ZM120.447 45.0159H120.682V44.8796L120.564 44.8116L120.447 45.0159ZM120.447 54.7274H120.211V54.9632H120.447V54.7274ZM125.664 54.7274V54.9632H125.9V54.7274H125.664ZM125.664 42.0268H125.9V41.8903L125.781 41.8223L125.664 42.0268ZM82.648 41.9743L82.6453 41.9702L82.252 42.2304L82.2547 42.2345L82.648 41.9743ZM82.2446 41.982C82.1828 42.0887 82.069 42.2159 81.88 42.3712C81.6926 42.5252 81.4426 42.6978 81.1208 42.8982C80.4765 43.2995 79.5687 43.7976 78.3479 44.467L78.5747 44.8806C79.7903 44.214 80.712 43.7084 81.3701 43.2985C81.6996 43.0933 81.9691 42.9084 82.1794 42.7355C82.3882 42.564 82.5503 42.395 82.6526 42.2186L82.2446 41.982ZM78.3485 44.4667C77.4126 44.9767 76.3137 45.5795 74.5083 46.6157L74.743 47.0247C76.5445 45.9907 77.6403 45.3897 78.5741 44.8809L78.3485 44.4667ZM74.6256 46.5844H74.6183V47.056H74.6256V46.5844ZM74.5006 46.6158L66.4956 51.2236L66.7309 51.6324L74.7359 47.0246L74.5006 46.6158ZM66.6132 51.1922H66.6125V51.6638H66.6132V51.1922ZM66.7302 51.2236L58.7251 46.6158L58.4899 47.0246L66.4949 51.6324L66.7302 51.2236ZM58.6075 46.5844H58.5987V47.056H58.6075V46.5844ZM58.7163 46.6158C56.9427 45.5958 55.8194 44.9782 54.8835 44.4675L54.6576 44.8815C55.5914 45.391 56.7115 46.0069 58.4812 47.0246L58.7163 46.6158ZM54.8837 44.4676C53.6579 43.7969 52.7464 43.298 52.1008 42.8978C51.7783 42.698 51.5283 42.5265 51.3415 42.3741C51.153 42.2202 51.0413 42.0958 50.982 41.9932L50.5736 42.229C50.6741 42.403 50.8356 42.57 51.0434 42.7395C51.2529 42.9104 51.5224 43.0942 51.8523 43.2987C52.5115 43.7072 53.4366 44.2134 54.6573 44.8813L54.8837 44.4676ZM51.0136 42.1111V42.1003H50.542V42.1111H51.0136ZM50.9819 41.9822C50.92 41.8751 50.8662 41.7132 50.8256 41.4729C50.7853 41.2344 50.7602 40.9328 50.7469 40.5554C50.7203 39.7996 50.7417 38.7683 50.7719 37.3809L50.3004 37.3706C50.2703 38.7524 50.2484 39.7996 50.2756 40.572C50.2892 40.9586 50.3153 41.2835 50.3606 41.5514C50.4055 41.8174 50.4716 42.0418 50.5737 42.2184L50.9819 41.9822ZM50.7719 37.3807C50.7896 36.5365 50.8112 28.1514 50.8234 24.2493L50.3518 24.2478C50.3396 28.1552 50.318 36.5322 50.3004 37.3708L50.7719 37.3807ZM50.8234 24.2496C50.8258 23.6985 51.095 23.2334 51.5746 22.9569L51.3391 22.5484C50.7139 22.9087 50.3549 23.5286 50.3518 24.2475L50.8234 24.2496ZM51.5744 22.957L66.7308 14.2366L66.4956 13.8278L51.3392 22.5483L51.5744 22.957ZM66.4956 14.2366L81.6513 22.957L81.8865 22.5483L66.7308 13.8278L66.4956 14.2366ZM81.6512 22.9569C82.1308 23.2334 82.4003 23.6987 82.4044 24.2503L82.876 24.2468C82.8706 23.5285 82.5119 22.9088 81.8867 22.5484L81.6512 22.9569ZM82.4044 24.2492C82.4145 28.1643 82.4362 36.5357 82.4538 37.3773L82.9254 37.3674C82.9078 36.5316 82.8862 28.1679 82.876 24.2479L82.4044 24.2492ZM82.4538 37.3774C82.4834 38.7622 82.5051 39.7936 82.4793 40.5512C82.4663 40.9295 82.4417 41.2324 82.4019 41.4725C82.3617 41.7145 82.3083 41.8786 82.2462 41.9879L82.6564 42.2208C82.7575 42.0427 82.8228 41.817 82.8671 41.5497C82.9118 41.2806 82.9374 40.9546 82.9506 40.5672C82.977 39.7934 82.9548 38.7463 82.9253 37.3673L82.4538 37.3774ZM72.8555 61.4287L74.7008 62.4841L74.9349 62.0747L73.0896 61.0193L72.8555 61.4287ZM74.582 62.2794V62.2807H75.0536V62.2794H74.582ZM74.7003 62.4851C76.3635 63.4417 77.4402 64.0343 78.3417 64.5255L78.5673 64.1114C77.6682 63.6214 76.5947 63.0306 74.9354 62.0762L74.7003 62.4851ZM78.3414 64.5253C79.5685 65.196 80.4802 65.6951 81.1258 66.0953C81.4482 66.2952 81.6982 66.4667 81.8851 66.6191C82.0737 66.7729 82.1857 66.8975 82.2453 67.0002L82.6532 66.7634C82.5524 66.5898 82.391 66.4231 82.1832 66.2536C81.9736 66.0827 81.7042 65.899 81.3743 65.6945C80.715 65.2858 79.7897 64.7795 78.5676 64.1115L78.3414 64.5253ZM82.2134 66.8818V66.8926H82.6851V66.8818H82.2134ZM82.2454 67.0111C82.3073 67.1176 82.361 67.279 82.4015 67.5194C82.4416 67.7578 82.4665 68.0594 82.4795 68.4371C82.5057 69.1934 82.484 70.2256 82.4545 71.6141L82.926 71.6242C82.9554 70.2416 82.9776 69.1935 82.9509 68.4208C82.9375 68.034 82.9116 67.709 82.8665 67.4411C82.8217 67.1751 82.7557 66.9506 82.6531 66.7741L82.2454 67.0111ZM82.4545 71.6139L82.4396 72.288L82.9111 72.2985L82.926 71.6244L82.4545 71.6139ZM82.4396 72.2891C82.4317 72.7387 82.0634 73.102 81.6105 73.102V73.5736C82.3205 73.5736 82.8987 73.0043 82.9111 72.2974L82.4396 72.2891ZM81.6105 73.102H51.6166V73.5736H81.6105V73.102ZM51.6166 73.102C51.1646 73.102 50.7945 72.7383 50.7861 72.2888L50.3146 72.2977C50.3278 73.0047 50.9081 73.5736 51.6166 73.5736V73.102ZM50.7861 72.2885L50.7726 71.6144L50.301 71.6239L50.3146 72.298L50.7861 72.2885ZM50.7725 71.6136C50.7715 71.5718 50.7496 70.3314 50.769 69.1337C50.7787 68.5338 50.7987 67.9507 50.8362 67.5352C50.8552 67.3244 50.8775 67.1706 50.9013 67.0813C50.915 67.0296 50.9213 67.0311 50.9066 67.0498C50.8976 67.0612 50.8629 67.1012 50.7965 67.115C50.7217 67.1305 50.6638 67.1015 50.6366 67.081L50.9203 66.7042C50.8725 66.6682 50.7948 66.6337 50.701 66.6532C50.6156 66.6708 50.5627 66.7242 50.5362 66.7578C50.4865 66.8209 50.4609 66.902 50.4454 66.9603C50.4107 67.0911 50.3857 67.279 50.3665 67.4929C50.3274 67.9266 50.3072 68.5243 50.2974 69.1261C50.2779 70.3318 50.3 71.5788 50.3011 71.6248L50.7725 71.6136ZM50.9823 67.0111C51.0444 66.9043 51.1584 66.777 51.3474 66.6217C51.5348 66.4677 51.7848 66.2952 52.1065 66.0949C52.7508 65.6938 53.6586 65.196 54.8796 64.5273L54.6531 64.1137C53.4371 64.7796 52.5154 65.2848 51.8573 65.6945C51.5278 65.8997 51.2583 66.0846 51.048 66.2574C50.8392 66.4289 50.677 66.5979 50.5746 66.7741L50.9823 67.0111ZM54.8795 64.5274C55.8123 64.0176 56.9127 63.4161 58.717 62.3778L58.4818 61.969C56.6819 63.0049 55.5849 63.6044 54.6533 64.1136L54.8795 64.5274ZM58.5994 62.4092H58.6081V61.9376H58.5994V62.4092ZM58.7257 62.3778L63.6567 59.5405L63.4215 59.1317L58.4905 61.969L58.7257 62.3778ZM63.6583 59.5396C64.0056 59.336 64.2095 58.9865 64.2095 58.5824H63.7379C63.7379 58.8165 63.625 59.0124 63.4198 59.1327L63.6583 59.5396ZM64.2095 58.5814C64.2077 58.1802 64.0024 57.8291 63.6532 57.6283L63.4181 58.0371C63.6228 58.1548 63.7369 58.3517 63.7379 58.5834L64.2095 58.5814ZM63.6526 57.628L60.0479 55.5687L59.814 55.9782L63.4187 58.0375L63.6526 57.628ZM60.0472 55.5683C59.699 55.3709 59.2945 55.3705 58.9466 55.5712L59.1823 55.9797C59.3841 55.8633 59.6104 55.8628 59.8146 55.9786L60.0472 55.5683ZM58.9468 55.5711L55.8193 57.3706L56.0545 57.7794L59.182 55.9798L58.9468 55.5711ZM55.7526 57.7221L55.7553 57.7255L56.1238 57.4312L56.1211 57.4279L55.7526 57.7221ZM55.8218 57.374C54.6648 58.0405 53.2632 58.8085 52.0849 59.4531L52.3112 59.8669C53.4886 59.2227 54.895 58.4522 56.0572 57.7827L55.8218 57.374ZM52.0849 59.4531C48.7974 61.2508 47.0724 62.1916 45.9596 64.1118L46.3676 64.3483C47.4009 62.5654 48.9874 61.6844 52.3112 59.8669L52.0849 59.4531ZM45.9278 64.2301V64.2415H46.3994V64.2301H45.9278ZM45.9595 64.1234C44.8515 66.0383 44.898 67.9948 44.9761 71.728L45.4476 71.7181C45.3686 67.9429 45.3393 66.1369 46.3677 64.3596L45.9595 64.1234ZM44.9761 71.7279C44.9957 72.6814 45.0214 73.8057 45.0214 76.0023H45.493C45.493 73.8009 45.4672 72.6729 45.4476 71.7182L44.9761 71.7279ZM45.0214 76.0023C45.0214 78.1969 44.9957 79.3226 44.9761 80.2754L45.4476 80.2851C45.4672 79.3311 45.493 78.2017 45.493 76.0023H45.0214ZM44.9761 80.2754C44.898 84.0165 44.8501 85.9752 45.9596 87.8909L46.3677 87.6545C45.338 85.8766 45.3686 84.0688 45.4476 80.2852L44.9761 80.2754ZM46.1636 88.0085H46.1677V87.5369H46.1636V88.0085ZM45.9639 87.8913C47.0868 89.8204 48.8086 90.7578 52.0888 92.5536L52.3153 92.14C48.9993 90.3245 47.4149 89.4467 46.3715 87.6541L45.9639 87.8913ZM52.0892 92.5539C53.2642 93.1941 54.6379 93.9488 55.8223 94.6276L56.0568 94.2184C54.8678 93.5369 53.4903 92.7802 52.3149 92.1397L52.0892 92.5539ZM55.7353 94.3052L55.7326 94.3098L56.1411 94.5455L56.1438 94.5408L55.7353 94.3052ZM55.8192 94.632L61.1665 97.7116L61.4018 97.3029L56.0545 94.2233L55.8192 94.632ZM61.1665 97.3029L55.8192 100.382L56.0545 100.791L61.4018 97.7116L61.1665 97.3029ZM55.9369 100.823H55.9395V100.351H55.9369V100.823ZM55.8216 100.383C54.6647 101.051 53.2633 101.818 52.0847 102.464L52.3114 102.878C53.4885 102.233 54.8951 101.463 56.0575 100.791L55.8216 100.383ZM52.0851 102.464C48.7976 104.259 47.0724 105.199 45.9595 107.122L46.3677 107.358C47.4009 105.572 48.9873 104.693 52.3111 102.878L52.0851 102.464ZM45.9278 107.24V107.25H46.3994V107.24H45.9278ZM45.9595 107.132C44.8515 109.049 44.898 111.006 44.9761 114.739L45.4476 114.729C45.3686 110.954 45.3393 109.148 46.3678 107.368L45.9595 107.132ZM44.9761 114.739C44.9869 115.269 45.0004 121.331 45.0092 125.678L45.4808 125.677C45.472 121.335 45.4585 115.265 45.4476 114.729L44.9761 114.739ZM45.3626 125.473L39.8116 122.277L39.5763 122.685L45.1273 125.882L45.3626 125.473ZM39.8235 122.678L39.8276 122.675L39.5685 122.281L39.5644 122.284L39.8235 122.678ZM39.8157 122.274L12.8991 106.781L12.6639 107.19L39.5804 122.683L39.8157 122.274ZM13.0173 106.985V76.0023H12.5457V106.985H13.0173ZM13.0173 76.0023V45.0159H12.5457V76.0023H13.0173ZM12.8991 45.2203L39.8156 29.7301L39.5804 29.3213L12.6639 44.8116L12.8991 45.2203ZM39.8483 29.344L39.8442 29.3406L39.5437 29.7041L39.5478 29.7074L39.8483 29.344ZM39.8116 29.7267L45.3626 26.5311L45.1273 26.1224L39.5763 29.318L39.8116 29.7267ZM45.0092 26.3263C45.0004 30.6127 44.9869 36.7281 44.9761 37.2672L45.4476 37.2766C45.4585 36.7319 45.472 30.6088 45.4808 26.3272L45.0092 26.3263ZM44.9761 37.2669C44.898 41.0081 44.8501 42.9654 45.9595 44.8824L46.3677 44.6461C45.3379 42.8668 45.3686 41.0603 45.4476 37.2768L44.9761 37.2669ZM46.2393 44.9876L46.2434 44.9862L46.092 44.5396L46.0879 44.5409L46.2393 44.9876ZM45.9639 44.8815C47.0867 46.8114 48.8087 47.7481 52.0888 49.5438L52.3153 49.1302C48.9992 47.3147 47.4149 46.4377 46.3715 44.6443L45.9639 44.8815ZM52.089 49.544C53.2643 50.1857 54.6378 50.9396 55.822 51.6204L56.0571 51.2115C54.8679 50.5279 53.4902 49.7717 52.3151 49.13L52.089 49.544ZM55.8372 51.2035L55.8345 51.2048L56.0392 51.6297L56.0419 51.6284L55.8372 51.2035ZM55.8192 51.6216C61.5076 54.8975 67.1698 58.1572 72.8549 61.4284L73.0901 61.0196C67.405 57.7485 61.743 54.4888 56.0545 51.2129L55.8192 51.6216ZM74.6184 105.419H74.6258V104.947H74.6184V105.419ZM74.5082 105.388C76.2819 106.408 77.4073 107.026 78.3411 107.535L78.5669 107.121C77.6351 106.613 76.513 105.997 74.7434 104.979L74.5082 105.388ZM78.3408 107.535C79.568 108.206 80.4797 108.705 81.1253 109.105C81.4478 109.305 81.6978 109.476 81.8847 109.629C82.0732 109.783 82.1852 109.907 82.2448 110.01L82.6527 109.773C82.5519 109.599 82.3904 109.433 82.1826 109.263C81.9731 109.092 81.7036 108.909 81.3737 108.704C80.7145 108.296 79.7892 107.79 78.5672 107.121L78.3408 107.535ZM82.213 109.891V109.901H82.6846V109.891H82.213ZM82.2448 110.019C82.3068 110.126 82.3605 110.288 82.401 110.529C82.4411 110.767 82.466 111.069 82.4791 111.446C82.5053 112.203 82.4835 113.234 82.454 114.622L82.9255 114.632C82.9549 113.25 82.9771 112.203 82.9504 111.43C82.937 111.043 82.9111 110.718 82.866 110.45C82.8213 110.184 82.7552 109.959 82.6528 109.783L82.2448 110.019ZM82.454 114.622C82.4363 115.454 82.4147 123.713 82.4045 127.753L82.8761 127.755C82.8863 123.709 82.908 115.458 82.9255 114.632L82.454 114.622ZM82.4045 127.752C82.4004 128.303 82.1304 128.771 81.6543 129.044L81.8892 129.453C82.5125 129.095 82.8708 128.472 82.8761 127.756L82.4045 127.752ZM81.6542 129.044L66.4958 137.767L66.731 138.175L81.8894 129.453L81.6542 129.044ZM66.731 137.767L51.5746 129.044L51.3394 129.453L66.4958 138.175L66.731 137.767ZM51.574 129.044C51.0951 128.77 50.8244 128.303 50.8215 127.753L50.3499 127.755C50.3537 128.473 50.714 129.096 51.34 129.453L51.574 129.044ZM50.8215 127.753C50.81 123.713 50.7897 115.456 50.7721 114.627L50.3006 114.637C50.3181 115.46 50.3384 123.709 50.3499 127.755L50.8215 127.753ZM50.7721 114.626C50.7418 113.242 50.7204 112.21 50.7466 111.452C50.7597 111.074 50.7845 110.771 50.8244 110.531C50.8646 110.289 50.918 110.124 50.9798 110.015L50.5694 109.783C50.4688 109.961 50.4036 110.186 50.3592 110.453C50.3145 110.723 50.2887 111.049 50.2753 111.436C50.2485 112.21 50.2705 113.258 50.3006 114.637L50.7721 114.626ZM50.6513 110.1L50.6547 110.102L50.9013 109.7L50.8979 109.698L50.6513 110.1ZM50.9817 110.02C51.0438 109.913 51.1578 109.786 51.3468 109.631C51.5344 109.477 51.7843 109.304 52.1061 109.104C52.7504 108.702 53.6582 108.204 54.8792 107.535L54.6526 107.121C53.4366 107.788 52.5149 108.293 51.8567 108.703C51.5273 108.909 51.2578 109.094 51.0475 109.266C50.8388 109.438 50.6766 109.606 50.5742 109.782L50.9817 110.02ZM54.8789 107.535C55.8119 107.026 56.9122 106.423 58.7163 105.388L58.4815 104.979C56.6814 106.012 55.5843 106.613 54.6529 107.121L54.8789 107.535ZM58.5989 105.419H58.6076V104.947H58.5989V105.419ZM58.7253 105.388L66.731 100.779L66.4957 100.37L58.49 104.979L58.7253 105.388ZM66.4957 100.779L74.5008 105.388L74.7361 104.979L66.731 100.37L66.4957 100.779ZM124.476 41.0728L96.2574 24.8316L96.0221 25.2404L124.24 41.4815L124.476 41.0728ZM96.1397 24.8002H96.1275V25.2718H96.1397V24.8002ZM96.2451 24.8316L68.0248 8.5931L67.7896 9.00187L96.0099 25.2404L96.2451 24.8316ZM68.025 8.59323L66.7314 7.84701L66.4957 8.25553L67.7893 9.00174L68.025 8.59323ZM66.4959 7.84693L65.2002 8.59315L65.4356 9.00182L66.7312 8.25561L66.4959 7.84693ZM65.2003 8.59311L36.9813 24.8316L37.2165 25.2404L65.4355 9.00187L65.2003 8.59311ZM37.0989 24.8002H37.0874V25.2718H37.0989V24.8002ZM36.9698 24.8316L8.7494 41.0728L8.98464 41.4815L37.205 25.2404L36.9698 24.8316ZM8.74953 41.0727L7.44501 41.8224L7.67999 42.2313L8.98452 41.4816L8.74953 41.0727ZM7.3267 42.0268V43.5213H7.7983V42.0268H7.3267ZM7.3267 43.5213V76.0023H7.7983V43.5213H7.3267ZM7.3267 76.0023V108.483H7.7983V76.0023H7.3267ZM7.3267 108.483V109.975H7.7983V108.483H7.3267ZM7.44461 110.179L8.74914 110.932L8.98491 110.523L7.68039 109.77L7.44461 110.179ZM8.74942 110.932L36.9698 127.171L37.205 126.762L8.98463 110.523L8.74942 110.932ZM37.0874 127.202H37.0989V126.731H37.0874V127.202ZM36.9813 127.171L65.2003 143.41L65.4355 143.001L37.2165 126.762L36.9813 127.171ZM65.2005 143.41L66.4962 144.153L66.7309 143.744L65.4352 143.001L65.2005 143.41ZM66.7311 144.153L68.0247 143.41L67.7897 143.001L66.4961 143.744L66.7311 144.153ZM68.0248 143.41L96.2451 127.171L96.0099 126.762L67.7896 143.001L68.0248 143.41ZM96.1275 127.202H96.1397V126.731H96.1275V127.202ZM96.2574 127.171L124.476 110.932L124.24 110.523L96.0221 126.762L96.2574 127.171ZM124.476 110.932L125.782 110.179L125.546 109.77L124.24 110.523L124.476 110.932ZM125.9 109.975V108.483H125.428V109.975H125.9ZM125.9 108.483V78.8524H125.428V108.483H125.9ZM125.9 78.8524V73.3274H125.428V78.8524H125.9ZM125.664 73.0916H94.9157V73.5632H125.664V73.0916ZM94.6799 73.3274V78.6384H95.1515V73.3274H94.6799ZM94.9137 78.8742L120.445 79.0882L120.449 78.6167L94.9177 78.4026L94.9137 78.8742ZM120.211 78.8524V106.985H120.682V78.8524H120.211ZM120.329 106.781L93.4111 122.274L93.6463 122.683L120.564 107.19L120.329 106.781ZM93.3622 122.645L93.3648 122.648L93.6979 122.314L93.6952 122.311L93.3622 122.645ZM93.4137 122.277L87.8653 125.473L88.1008 125.882L93.6491 122.685L93.4137 122.277ZM88.2189 125.678C88.2263 121.332 88.2405 115.264 88.2506 114.734L87.7791 114.725C87.7689 115.261 87.7547 121.335 87.7473 125.677L88.2189 125.678ZM88.2506 114.734C88.3287 110.994 88.3767 109.037 87.2664 107.122L86.8584 107.358C87.8888 109.136 87.8581 110.942 87.7791 114.725L88.2506 114.734ZM87.0624 107.004H87.0576V107.476H87.0624V107.004ZM87.2615 107.121C86.14 105.192 84.4194 104.255 81.1392 102.459L80.9127 102.872C84.2287 104.688 85.8117 105.566 86.8538 107.358L87.2615 107.121ZM81.1352 102.457L81.037 102.405L80.8186 102.823L80.9168 102.875L81.1352 102.457ZM80.7131 102.517L80.703 102.539L81.1323 102.734L81.1424 102.712L80.7131 102.517ZM81.0346 102.432L79.8174 101.737L79.5836 102.146L80.8007 102.841L81.0346 102.432ZM79.8667 101.774L79.8647 101.772L79.5323 102.107L79.5343 102.109L79.8667 101.774ZM79.8102 101.732L79.7513 101.7L79.5279 102.116L79.5868 102.147L79.8102 101.732ZM79.7538 101.702C78.9587 101.261 78.1456 100.807 77.4059 100.382L77.1711 100.791C77.9139 101.218 78.7295 101.673 79.5253 102.114L79.7538 101.702ZM77.2885 100.823H77.2912V100.351H77.2885V100.823ZM77.4089 100.382L73.031 97.8609L72.7956 98.2695L77.1735 100.791L77.4089 100.382ZM73.0302 97.8604L59.3232 90.0334L59.0893 90.4429L72.7964 98.27L73.0302 97.8604ZM59.4073 90.3613L59.4358 90.3147L59.0336 90.0684L59.0051 90.115L59.4073 90.3613ZM59.3527 89.9874L58.7258 89.6251L58.4898 90.0334L59.1168 90.3957L59.3527 89.9874ZM58.6078 89.5935H58.5991V90.0651H58.6078V89.5935ZM58.7165 89.6248C56.9429 88.6062 55.8197 87.9893 54.884 87.4774L54.6577 87.8911C55.5918 88.4021 56.7119 89.0174 58.4816 90.0337L58.7165 89.6248ZM54.8845 87.4776C54.6815 87.3659 53.6911 86.8448 52.7459 86.2896C52.2733 86.0119 51.8186 85.7295 51.4841 85.4892C51.316 85.3685 51.1852 85.2633 51.0987 85.1784C51.0553 85.1357 51.0291 85.104 51.0152 85.0832C50.9981 85.0574 51.014 85.0695 51.014 85.1087H50.5424C50.5424 85.2073 50.5863 85.2897 50.6221 85.3437C50.6612 85.4027 50.7127 85.4603 50.7684 85.515C50.8802 85.6248 51.0336 85.7463 51.209 85.8723C51.5614 86.1254 52.0309 86.4165 52.5071 86.6962C53.4596 87.2558 54.4655 87.7853 54.6572 87.8908L54.8845 87.4776ZM50.982 84.9902C50.9202 84.884 50.8665 84.7227 50.8259 84.4826C50.7857 84.2443 50.7606 83.9428 50.7473 83.5652C50.7206 82.8092 50.742 81.7771 50.7722 80.3886L50.3008 80.3784C50.2707 81.7611 50.2487 82.8092 50.2759 83.5818C50.2896 83.9686 50.3157 84.2935 50.3609 84.5612C50.4058 84.8269 50.4719 85.0512 50.5743 85.2273L50.982 84.9902ZM50.7723 80.3882L50.7858 79.7128L50.3143 79.7034L50.3007 80.3788L50.7723 80.3882ZM50.7858 79.7125C50.7942 79.2649 51.1637 78.902 51.6163 78.902V78.4304C50.9084 78.4304 50.3275 78.9974 50.3143 79.7037L50.7858 79.7125ZM51.6163 78.902H81.6102V78.4304H51.6163V78.902ZM81.6102 78.902C82.0637 78.902 82.4314 79.2645 82.4393 79.7122L82.9108 79.7039C82.8984 78.9978 82.3196 78.4304 81.6102 78.4304V78.902ZM82.4393 79.7133L82.4542 80.3887L82.9257 80.3783L82.9108 79.7029L82.4393 79.7133ZM82.4542 80.3885C82.4837 81.772 82.5055 82.8024 82.4796 83.5595C82.4667 83.9376 82.442 84.2404 82.4022 84.4808C82.3621 84.7228 82.3086 84.8874 82.2464 84.9974L82.6569 85.2296C82.7578 85.0512 82.8231 84.8253 82.8675 84.5579C82.9121 84.2886 82.9377 83.9628 82.9509 83.5756C82.9773 82.8022 82.9551 81.7561 82.9257 80.3785L82.4542 80.3885ZM82.6569 84.9974L82.6542 84.9927L82.2437 85.2249L82.2464 85.2296L82.6569 84.9974ZM82.2449 84.9907C82.183 85.0976 82.0692 85.2249 81.8803 85.3802C81.6929 85.5343 81.443 85.7068 81.1212 85.9071C80.4768 86.3082 79.5691 86.806 78.3483 87.4755L78.575 87.889C79.7906 87.2224 80.7123 86.7172 81.3704 86.3075C81.6999 86.1023 81.9695 85.9174 82.1798 85.7445C82.3886 85.5729 82.5508 85.4036 82.6531 85.2268L82.2449 84.9907ZM78.3486 87.4753C77.4131 87.9864 76.3141 88.5865 74.5084 89.6248L74.7435 90.0337C76.5448 88.9978 77.6404 88.3997 78.5747 87.8892L78.3486 87.4753ZM74.626 89.5935H74.6186V90.0651H74.626V89.5935ZM74.5009 89.6249L69.5191 92.4947L69.7545 92.9033L74.7363 90.0336L74.5009 89.6249ZM69.5196 92.4944C69.1688 92.6953 68.9671 93.0476 68.9671 93.4493H69.4387C69.4387 93.2152 69.5511 93.0198 69.754 92.9036L69.5196 92.4944ZM68.9671 93.4493C68.9671 93.8538 69.1754 94.2048 69.5218 94.4045L69.7574 93.996C69.5541 93.8788 69.4387 93.6818 69.4387 93.4493H68.9671ZM69.5228 94.4051L73.1302 96.4624L73.3638 96.0528L69.7564 93.9954L69.5228 94.4051ZM73.1288 96.4616C73.4768 96.6633 73.8811 96.6633 74.229 96.4616L73.9926 96.0536C73.7909 96.1705 73.567 96.1705 73.3652 96.0536L73.1288 96.4616ZM74.2284 96.462L77.4088 94.632L77.1736 94.2233L73.9932 96.0532L74.2284 96.462ZM77.4955 94.31L77.4929 94.3054L77.0841 94.5406L77.0868 94.5452L77.4955 94.31ZM77.4061 94.6273C78.559 93.9635 79.9634 93.1943 81.1417 92.551L80.9157 92.1371C79.738 92.78 78.3291 93.5517 77.1708 94.2186L77.4061 94.6273ZM81.1419 92.5508C84.4285 90.7506 86.1544 89.811 87.2664 87.8909L86.8583 87.6545C85.8258 89.4373 84.2387 90.3168 80.9154 92.1372L81.1419 92.5508ZM87.2982 87.7727V87.7652H86.8266V87.7727H87.2982ZM87.2665 87.8834C88.3766 85.9651 88.3287 84.0065 88.2506 80.2753L87.7791 80.2852C87.8581 84.0585 87.8888 85.8665 86.8583 87.6471L87.2665 87.8834ZM88.2506 80.2755C88.231 79.3173 88.2066 78.1971 88.2066 76.0023H87.735C87.735 78.2016 87.7595 79.3255 87.7791 80.2851L88.2506 80.2755ZM88.2066 76.0023C88.2066 73.805 88.231 72.6799 88.2506 71.7273L87.7791 71.7176C87.7595 72.6718 87.735 73.8004 87.735 76.0023H88.2066ZM88.2506 71.7274C88.3287 67.9855 88.3767 66.0274 87.2664 64.1118L86.8584 64.3483C87.8888 66.1261 87.8581 67.9332 87.7791 71.7175L88.2506 71.7274ZM87.0624 63.9943H87.0576V64.4659H87.0624V63.9943ZM87.2615 64.1116C86.14 62.1823 84.4194 61.2449 81.1392 59.4498L80.9128 59.8635C84.2287 61.6782 85.8117 62.5559 86.8538 64.3486L87.2615 64.1116ZM81.1387 59.4495C79.9611 58.8087 78.5889 58.0547 77.4061 57.374L77.1709 57.7827C78.3588 58.4664 79.735 59.2226 80.9133 59.8638L81.1387 59.4495ZM77.4729 57.7253L77.4756 57.7219L77.1067 57.4281L77.104 57.4314L77.4729 57.7253ZM77.4088 57.3706L72.0588 54.2924L71.8236 54.7012L77.1736 57.7794L77.4088 57.3706ZM72.0588 54.7011L77.4088 51.6216L77.1735 51.2129L71.8235 54.2924L72.0588 54.7011ZM77.3937 51.2049L77.391 51.2036L77.186 51.6283L77.1886 51.6296L77.3937 51.2049ZM77.4067 51.62C78.5592 50.9524 79.963 50.1861 81.1418 49.5412L80.9155 49.1274C79.7384 49.7714 78.3289 50.5408 77.1703 51.2119L77.4067 51.62ZM81.1419 49.5412C84.4285 47.7422 86.1544 46.8026 87.2664 44.8824L86.8583 44.6461C85.8258 46.4288 84.2387 47.3085 80.9154 49.1275L81.1419 49.5412ZM87.2982 44.7643V44.7542H86.8266V44.7643H87.2982ZM87.2665 44.8723C88.3766 42.9546 88.3287 40.9968 88.2506 37.2649L87.7791 37.2747C87.8581 41.0488 87.8888 42.856 86.8583 44.636L87.2665 44.8723ZM88.2506 37.2654C88.2405 36.7276 88.2263 30.6158 88.2189 26.327L87.7473 26.3279C87.7547 30.6124 87.7689 36.7312 87.7791 37.2742L88.2506 37.2654ZM87.8654 26.5318L93.4137 29.7267L93.6491 29.318L88.1007 26.1231L87.8654 26.5318ZM93.347 29.3754L93.3443 29.3787L93.7131 29.6727L93.7158 29.6693L93.347 29.3754ZM93.4111 29.7301L120.329 45.2203L120.564 44.8116L93.6463 29.3213L93.4111 29.7301ZM120.211 45.0159V54.7274H120.682V45.0159H120.211ZM120.447 54.9632H125.664V54.4916H120.447V54.9632ZM125.9 54.7274V43.5213H125.428V54.7274H125.9ZM125.9 43.5213V42.0268H125.428V43.5213H125.9ZM125.781 41.8223L124.475 41.0727L124.241 41.4817L125.546 42.2313L125.781 41.8223Z"
            fill="#00FFC8" />
    </g>
</svg>
