<svg width="177" height="201" viewBox="0 0 177 201" fill="none" xmlns="http://www.w3.org/2000/svg">
    <defs>
        <filter id="filter0_d_2998_47599" x="0.113375" y="0.047945" width="176.422" height="200.271"
            filterUnits="userSpaceOnUse" color-interpolation-filters="sRGB">
            <feFlood flood-opacity="0" result="BackgroundImageFix" />
            <feColorMatrix in="SourceAlpha" type="matrix"
                values="0 0 0 0 0 0 0 0 0 0 0 0 0 0 0 0 0 0 127 0" result="hardAlpha" />
            <feOffset />
            <feGaussianBlur stdDeviation="4.53511" />
            <feComposite in2="hardAlpha" operator="out" />
            <feColorMatrix type="matrix"
                values="0 0 0 0 0 0 0 0 0 1 0 0 0 0 0.786112 0 0 0 0.5 0" />
            <feBlend mode="normal" in2="BackgroundImageFix"
                result="effect1_dropShadow_2998_47599" />
            <feBlend mode="normal" in="SourceGraphic" in2="effect1_dropShadow_2998_47599"
                result="shape" />
        </filter>
    </defs>
    <g opacity="0.1" filter="url(#filter0_d_2998_47599)">
        <path
            d="M109.468 54.9377L109.205 55.1114L109.488 55.5391L109.741 55.0931L109.468 54.9377ZM109.464 54.9323L109.726 54.7586L109.446 54.3352L109.192 54.7743L109.464 54.9323ZM104.141 58.3675L104.292 58.6439L104.293 58.6435L104.141 58.3675ZM99.0213 61.2327V61.5474H99.1053L99.178 61.5057L99.0213 61.2327ZM99.0115 61.2327V60.9179H98.9274L98.8545 60.9599L99.0115 61.2327ZM88.3259 67.3835V67.6982H88.41L88.4829 67.6563L88.3259 67.3835ZM88.325 67.3835L88.1679 67.6563L88.2408 67.6982H88.325V67.3835ZM77.6393 61.2327L77.7964 60.9599L77.7235 60.9179H77.6393V61.2327ZM77.6277 61.2327L77.4707 61.5055L77.5436 61.5474H77.6277V61.2327ZM72.5175 58.3684L72.3664 58.6446L72.3667 58.6448L72.5175 58.3684ZM67.1878 54.9467H66.8731V55.031L66.9152 55.1041L67.1878 54.9467ZM67.1878 54.9323H67.5026V54.8478L67.4603 54.7746L67.1878 54.9323ZM66.8652 48.6256L67.1799 48.6325L67.1799 48.6322L66.8652 48.6256ZM66.9338 31.1026L66.6191 31.1012L66.619 31.1016L66.9338 31.1026ZM68.0942 29.1058L67.9372 28.833L67.937 28.8331L68.0942 29.1058ZM88.3259 17.4652L88.4829 17.1924L88.3259 17.1021L88.1689 17.1924L88.3259 17.4652ZM108.557 29.1058L108.714 28.8331L108.714 28.833L108.557 29.1058ZM109.72 31.1026L110.034 31.1018L110.034 31.1002L109.72 31.1026ZM109.786 48.6211L109.471 48.6277L109.471 48.6278L109.786 48.6211ZM96.8131 80.4597L96.6561 80.7325L96.6568 80.7329L96.8131 80.4597ZM99.2763 81.8684H99.5911V81.6858L99.4326 81.5951L99.2763 81.8684ZM99.2763 81.8701H98.9615V82.0522L99.1194 82.1429L99.2763 81.8701ZM104.131 84.5902L104.282 84.314L104.281 84.3138L104.131 84.5902ZM109.463 88.012H109.778V87.9272L109.735 87.854L109.463 88.012ZM109.463 88.0264H109.148V88.1112L109.191 88.1846L109.463 88.0264ZM109.785 94.3357L110.1 94.3427L110.1 94.3424L109.785 94.3357ZM109.765 95.2355L109.45 95.2286L109.45 95.23L109.765 95.2355ZM66.8825 95.2355L67.1972 95.2296L67.1972 95.2292L66.8825 95.2355ZM66.8644 94.3357L67.1791 94.3294L67.1791 94.3282L66.8644 94.3357ZM67.187 88.0264L66.9977 88.2778L67.281 88.4912L67.4592 88.1846L67.187 88.0264ZM72.5104 84.593L72.3594 84.3168L72.3592 84.3169L72.5104 84.593ZM77.6269 81.7269V81.4121H77.5428L77.4699 81.4541L77.6269 81.7269ZM77.6386 81.7269V82.0417H77.7226L77.7955 81.9997L77.6386 81.7269ZM84.2207 77.9396L84.3777 78.2124L84.3799 78.2111L84.2207 77.9396ZM84.8009 76.9334H85.1156L85.1156 76.932L84.8009 76.9334ZM84.2162 75.9327L84.3731 75.6599L84.3723 75.6594L84.2162 75.9327ZM79.4043 73.1839L79.5605 72.9106L79.5595 72.91L79.4043 73.1839ZM78.2477 73.1865L78.4046 73.4594L78.405 73.4592L78.2477 73.1865ZM74.0728 75.5887L73.9158 75.3159L73.5981 75.4987L73.8268 75.7851L74.0728 75.5887ZM74.0764 75.5932L74.2335 75.8659L74.5509 75.6831L74.3224 75.3968L74.0764 75.5932ZM69.082 78.3719L69.233 78.6481L69.2331 78.648L69.082 78.3719ZM61.0269 84.4723L60.7545 84.3145L60.7121 84.3877V84.4723H61.0269ZM61.0269 84.4875L61.2993 84.6451L61.3416 84.572V84.4875H61.0269ZM59.7564 94.4744L60.0711 94.4679L60.0711 94.4678L59.7564 94.4744ZM59.7564 105.897L60.0711 105.904L60.0711 105.904L59.7564 105.897ZM61.0269 115.898L60.7545 116.056L60.8454 116.213H61.0269V115.898ZM61.0323 115.898L61.3043 115.74L61.2133 115.584H61.0323V115.898ZM69.0873 122.004L68.9362 122.28L68.9367 122.281L69.0873 122.004ZM74.0764 124.776L74.349 124.933L74.5067 124.66L74.2329 124.503L74.0764 124.776ZM74.0728 124.782L73.8001 124.625L73.6427 124.897L73.9157 125.055L74.0728 124.782ZM81.2107 128.893L81.3678 129.166L81.8414 128.893L81.3678 128.62L81.2107 128.893ZM74.0728 133.004L73.9157 132.731L72.8955 133.318H74.0728V133.004ZM74.0764 133.004L74.2338 133.276L75.2503 132.689H74.0764V133.004ZM69.082 135.786L69.2328 136.062L69.2333 136.062L69.082 135.786ZM61.0269 141.884L60.7544 141.727L60.7121 141.8V141.884H61.0269ZM61.0269 141.898L61.2994 142.055L61.3416 141.982V141.898H61.0269ZM59.7564 151.888L60.0711 151.882L60.0711 151.882L59.7564 151.888ZM59.8006 166.496L59.6435 166.769L60.1164 167.041L60.1153 166.495L59.8006 166.496ZM52.3907 162.229L52.2178 161.966L51.7908 162.247L52.2337 162.502L52.3907 162.229ZM52.3962 162.226L52.5691 162.489L52.9962 162.208L52.5532 161.953L52.3962 162.226ZM16.4663 141.545H16.1515V141.727L16.3093 141.818L16.4663 141.545ZM16.4663 58.8241L16.3093 58.5513L16.1515 58.642V58.8241H16.4663ZM52.3962 38.1468L52.5532 38.4196L52.9464 38.1933L52.5968 37.9042L52.3962 38.1468ZM52.3907 38.1423L52.2337 37.8695L51.8406 38.0958L52.1901 38.3848L52.3907 38.1423ZM59.8006 33.8766L60.1153 33.8772L60.1164 33.3315L59.6435 33.6038L59.8006 33.8766ZM59.7564 48.4868L60.0711 48.4934L60.0711 48.4931L59.7564 48.4868ZM61.0269 58.4881L60.7544 58.6458L60.8836 58.869L61.1279 58.7862L61.0269 58.4881ZM61.0323 58.4863L61.3044 58.328L61.175 58.1055L60.9312 58.1882L61.0323 58.4863ZM69.0873 64.5921L68.9362 64.8682L68.9365 64.8684L69.0873 64.5921ZM74.0764 67.3672L74.213 67.6508L74.7507 67.3918L74.2332 67.0943L74.0764 67.3672ZM74.0728 67.3689L73.9362 67.0853L73.3989 67.3441L73.9157 67.6417L74.0728 67.3689ZM99.0117 139.139L98.8546 139.412L98.9276 139.454H99.0117V139.139ZM99.0215 139.139L99.1785 138.867L99.1056 138.825H99.0215V139.139ZM104.132 142.003L104.283 141.726L104.282 141.726L104.132 142.003ZM109.464 145.424H109.779V145.34L109.736 145.266L109.464 145.424ZM109.464 145.437H109.149V145.522L109.192 145.595L109.464 145.437ZM109.786 151.745L109.471 151.739L109.471 151.739L109.786 151.745ZM109.72 169.268L110.035 169.271L110.035 169.269L109.72 169.268ZM108.56 171.263L108.404 170.99L108.403 170.991L108.56 171.263ZM88.3261 182.907L88.1691 183.179L88.3261 183.27L88.4831 183.18L88.3261 182.907ZM68.0944 171.263L68.2514 170.991L68.2506 170.99L68.0944 171.263ZM66.9313 169.268L66.6166 169.269L66.6166 169.27L66.9313 169.268ZM66.8654 151.752L67.1801 151.745L67.1801 151.745L66.8654 151.752ZM67.1835 145.434L67.3481 145.166L67.0701 144.995L66.9095 145.279L67.1835 145.434ZM67.188 145.437L67.0234 145.705L67.2979 145.874L67.46 145.595L67.188 145.437ZM72.5113 142.003L72.3605 141.726L72.3601 141.726L72.5113 142.003ZM77.6278 139.139V138.825H77.5439L77.4711 138.866L77.6278 139.139ZM77.6395 139.139V139.454H77.7236L77.7966 139.412L77.6395 139.139ZM88.3261 132.988L88.4831 132.715L88.3261 132.624L88.169 132.715L88.3261 132.988ZM165.406 53.8334L165.249 54.1063L165.249 54.1064L165.406 53.8334ZM127.738 32.1537L127.895 31.8809L127.823 31.8389H127.738V32.1537ZM127.722 32.1537L127.565 32.4265L127.638 32.4685H127.722V32.1537ZM90.0518 10.4775L89.8945 10.7502L89.8948 10.7504L90.0518 10.4775ZM88.325 9.48145L88.4823 9.20879L88.3252 9.11814L88.1679 9.20868L88.325 9.48145ZM86.5955 10.4775L86.7525 10.7504L86.7526 10.7503L86.5955 10.4775ZM48.927 32.1537V32.4685H49.0111L49.084 32.4265L48.927 32.1537ZM48.9117 32.1537V31.8389H48.8275L48.7546 31.8809L48.9117 32.1537ZM11.2414 53.8334L11.3982 54.1064L11.3984 54.1063L11.2414 53.8334ZM9.5 54.8342L9.34317 54.5612L9.18523 54.652V54.8342H9.5ZM9.5 145.535H9.18523V145.717L9.34264 145.808L9.5 145.535ZM11.2414 146.54L11.084 146.813L11.0844 146.813L11.2414 146.54ZM48.9117 168.217L48.7547 168.49L48.8276 168.532H48.9117V168.217ZM48.927 168.217L49.084 167.944L49.0111 167.902H48.927V168.217ZM86.5955 189.893L86.4385 190.166L86.4388 190.166L86.5955 189.893ZM88.325 190.886L88.1684 191.159L88.3252 191.249L88.4819 191.159L88.325 190.886ZM90.0518 189.893L90.2087 190.166L90.2088 190.166L90.0518 189.893ZM127.722 168.217V167.902H127.638L127.565 167.944L127.722 168.217ZM127.738 168.217V168.532H127.823L127.895 168.49L127.738 168.217ZM165.406 146.54L165.563 146.813L165.563 146.813L165.406 146.54ZM167.149 145.535L167.306 145.808L167.464 145.717V145.535H167.149ZM167.149 96.6161H167.464V96.3014H167.149V96.6161ZM126.105 96.6161V96.3014H125.79V96.6161H126.105ZM126.105 103.706H125.79V104.018L126.102 104.02L126.105 103.706ZM160.185 103.991H160.499V103.679L160.187 103.677L160.185 103.991ZM160.185 141.545L160.342 141.818L160.499 141.727V141.545H160.185ZM124.253 162.226L124.096 161.953L123.74 162.158L124.031 162.449L124.253 162.226ZM124.257 162.229L124.414 162.502L124.77 162.297L124.479 162.007L124.257 162.229ZM116.85 166.496L116.536 166.495L116.535 167.041L117.008 166.769L116.85 166.496ZM116.893 151.882L116.578 151.876L116.578 151.876L116.893 151.882ZM115.621 141.884L115.894 141.727L115.803 141.57H115.621V141.884ZM115.615 141.884L115.343 142.043L115.434 142.199H115.615V141.884ZM107.564 135.779L107.715 135.502L107.709 135.5L107.564 135.779ZM107.433 135.71L107.578 135.431L107.284 135.277L107.146 135.58L107.433 135.71ZM107.419 135.74L107.263 136.013L107.563 136.184L107.706 135.87L107.419 135.74ZM105.794 134.812L105.572 135.035L105.602 135.065L105.638 135.086L105.794 134.812ZM105.792 134.81L106.014 134.586L105.981 134.554L105.941 134.532L105.792 134.81ZM105.713 134.767L105.56 135.043L105.564 135.044L105.713 134.767ZM102.575 133.004V132.689H101.394L102.418 133.277L102.575 133.004ZM102.578 133.004V133.318H103.755L102.735 132.731L102.578 133.004ZM96.7343 129.638L96.8915 129.365L96.8904 129.364L96.7343 129.638ZM78.4373 119.19L78.1688 119.025L77.9994 119.302L78.2812 119.463L78.4373 119.19ZM78.4753 119.127L78.7438 119.292L78.9124 119.016L78.6328 118.855L78.4753 119.127ZM77.6385 118.644L77.796 118.371L77.7229 118.329H77.6385V118.644ZM77.6268 118.644L77.47 118.917L77.5429 118.959H77.6268V118.644ZM72.5167 115.78L72.3649 116.056L72.3656 116.057L72.5167 115.78ZM67.187 112.343H67.5017V112.258L67.4591 112.184L67.187 112.343ZM66.8644 106.035L67.1791 106.042L67.1791 106.041L66.8644 106.035ZM66.8824 105.133L67.1971 105.14L67.1971 105.139L66.8824 105.133ZM109.765 105.133L109.45 105.139L109.45 105.14L109.765 105.133ZM109.785 106.035L110.099 106.028L110.099 106.028L109.785 106.035ZM109.467 112.349L109.193 112.504L109.467 112.988L109.741 112.504L109.467 112.349ZM109.463 112.343L109.737 112.188L109.466 111.709L109.191 112.185L109.463 112.343ZM104.141 115.778L104.292 116.054L104.292 116.054L104.141 115.778ZM99.0205 118.644V118.959H99.1046L99.1774 118.917L99.0205 118.644ZM99.0107 118.644V118.329H98.9265L98.8536 118.371L99.0107 118.644ZM92.3607 122.475L92.5171 122.748L92.5178 122.747L92.3607 122.475ZM92.3644 124.478L92.2071 124.751L92.2084 124.752L92.3644 124.478ZM97.1798 127.225L97.3376 126.952L97.3357 126.951L97.1798 127.225ZM98.3329 127.225L98.1759 126.952L98.1751 126.952L98.3329 127.225ZM102.578 124.782L102.735 125.055L103.008 124.898L102.851 124.625L102.578 124.782ZM102.575 124.776L102.418 124.503L102.145 124.66L102.302 124.933L102.575 124.776ZM107.567 122.001L107.718 122.277L107.718 122.277L107.567 122.001ZM115.621 115.899L115.894 116.056L115.936 115.983V115.899H115.621ZM115.621 115.889L115.349 115.731L115.307 115.804V115.889H115.621ZM116.893 105.897L116.578 105.904L116.578 105.904L116.893 105.897ZM116.893 94.4737L116.578 94.4672L116.578 94.4673L116.893 94.4737ZM115.621 84.4724L115.894 84.3146L115.803 84.1576H115.621V84.4724ZM115.615 84.4724L115.343 84.6306L115.434 84.7872H115.615V84.4724ZM107.564 78.3675L107.715 78.0914L107.714 78.091L107.564 78.3675ZM102.575 75.5933L102.328 75.3972L102.1 75.6835L102.418 75.8661L102.575 75.5933ZM102.578 75.5888L102.824 75.785L103.053 75.4986L102.735 75.316L102.578 75.5888ZM95.4367 71.4798L95.2797 71.207L94.8056 71.4799L95.2797 71.7526L95.4367 71.4798ZM102.578 67.3691L102.735 67.6419L103.252 67.3446L102.715 67.0856L102.578 67.3691ZM102.575 67.3673L102.417 67.095L101.903 67.3926L102.438 67.6508L102.575 67.3673ZM107.567 64.5886L107.718 64.8648L107.718 64.8647L107.567 64.5886ZM115.621 58.4882L115.894 58.646L115.936 58.5728V58.4882H115.621ZM115.621 58.4747L115.349 58.317L115.307 58.3902V58.4747H115.621ZM116.893 48.4842L116.578 48.4901L116.578 48.4907L116.893 48.4842ZM116.85 33.8776L117.007 33.6048L116.535 33.3326L116.536 33.8782L116.85 33.8776ZM124.257 38.1424L124.503 38.3386L124.731 38.0523L124.414 37.8696L124.257 38.1424ZM124.253 38.1469L124.007 37.9507L123.779 38.2371L124.096 38.4197L124.253 38.1469ZM160.185 58.8242H160.499V58.6422L160.342 58.5514L160.185 58.8242ZM160.185 71.7876H159.87V72.1024H160.185V71.7876ZM167.149 71.7876V72.1024H167.464V71.7876H167.149ZM167.149 54.8342H167.464V54.6519L167.306 54.5612L167.149 54.8342ZM109.73 54.764L109.726 54.7586L109.201 55.1059L109.205 55.1114L109.73 54.764ZM109.192 54.7743C109.109 54.9168 108.957 55.0866 108.705 55.2939C108.455 55.4995 108.121 55.7298 107.692 55.9973C106.831 56.533 105.62 57.1979 103.99 58.0915L104.293 58.6435C105.915 57.7537 107.146 57.0789 108.024 56.5317C108.464 56.2578 108.824 56.0109 109.105 55.7802C109.383 55.5512 109.6 55.3256 109.736 55.0902L109.192 54.7743ZM103.991 58.0911C102.742 58.7718 101.275 59.5765 98.8647 60.9597L99.178 61.5057C101.583 60.1254 103.045 59.3231 104.292 58.6439L103.991 58.0911ZM99.0213 60.9179H99.0115V61.5474H99.0213V60.9179ZM98.8545 60.9599L88.1689 67.1107L88.4829 67.6563L99.1685 61.5055L98.8545 60.9599ZM88.3259 67.0687H88.325V67.6982H88.3259V67.0687ZM88.482 67.1107L77.7964 60.9599L77.4823 61.5055L88.1679 67.6563L88.482 67.1107ZM77.6393 60.9179H77.6277V61.5474H77.6393V60.9179ZM77.7846 60.9598C75.4171 59.5983 73.9176 58.7738 72.6683 58.0921L72.3667 58.6448C73.6133 59.3249 75.1084 60.147 77.4707 61.5055L77.7846 60.9598ZM72.6686 58.0923C71.0323 57.197 69.8156 56.531 68.9538 55.9968C68.5233 55.73 68.1896 55.5011 67.9402 55.2977C67.6885 55.0924 67.5395 54.9262 67.4604 54.7893L66.9152 55.1041C67.0494 55.3364 67.2649 55.5592 67.5423 55.7855C67.822 56.0137 68.1817 56.259 68.6221 56.5319C69.502 57.0773 70.737 57.753 72.3664 58.6446L72.6686 58.0923ZM67.5026 54.9467V54.9323H66.8731V54.9467H67.5026ZM67.4603 54.7746C67.3775 54.6316 67.3058 54.4156 67.2516 54.0947C67.1978 53.7763 67.1643 53.3738 67.1466 52.87C67.111 51.8612 67.1396 50.4845 67.1799 48.6325L66.5505 48.6188C66.5104 50.4632 66.4811 51.8611 66.5174 52.8922C66.5356 53.4083 66.5704 53.842 66.6308 54.1995C66.6908 54.5546 66.779 54.8542 66.9154 55.0899L67.4603 54.7746ZM67.1799 48.6322C67.2035 47.5053 67.2324 36.3124 67.2486 31.1036L66.619 31.1016C66.6028 36.3175 66.5739 47.4996 66.5505 48.619L67.1799 48.6322ZM67.2486 31.104C67.2518 30.3684 67.6111 29.7476 68.2514 29.3785L67.937 28.8331C67.1025 29.3142 66.6232 30.1417 66.6191 31.1012L67.2486 31.104ZM68.2512 29.3786L88.4829 17.738L88.1689 17.1924L67.9372 28.833L68.2512 29.3786ZM88.1689 17.738L108.4 29.3786L108.714 28.833L88.4829 17.1924L88.1689 17.738ZM108.399 29.3785C109.04 29.7476 109.399 30.3686 109.405 31.105L110.034 31.1002C110.027 30.1414 109.548 29.3142 108.714 28.8331L108.399 29.3785ZM109.405 31.1034C109.418 36.3296 109.447 47.5043 109.471 48.6277L110.1 48.6145C110.077 47.4988 110.048 36.3345 110.034 31.1018L109.405 31.1034ZM109.471 48.6278C109.51 50.4764 109.539 51.8531 109.505 52.8644C109.488 53.3693 109.455 53.7737 109.402 54.0943C109.348 54.4173 109.277 54.6363 109.194 54.7823L109.741 55.0931C109.876 54.8554 109.963 54.5541 110.023 54.1973C110.082 53.838 110.116 53.4029 110.134 52.8858C110.169 51.8529 110.14 50.4551 110.1 48.6144L109.471 48.6278ZM96.6568 80.7329L99.12 82.1416L99.4326 81.5951L96.9693 80.1864L96.6568 80.7329ZM98.9615 81.8684V81.8701H99.5911V81.8684H98.9615ZM99.1194 82.1429C101.34 83.4199 102.777 84.2109 103.98 84.8666L104.281 84.3138C103.081 83.6598 101.648 82.8712 99.4332 81.5972L99.1194 82.1429ZM103.98 84.8664C105.618 85.7617 106.835 86.4279 107.697 86.9621C108.127 87.2289 108.461 87.4579 108.71 87.6613C108.962 87.8667 109.111 88.0329 109.191 88.17L109.735 87.854C109.601 87.6222 109.385 87.3997 109.108 87.1735C108.828 86.9454 108.469 86.7001 108.028 86.427C107.148 85.8816 105.913 85.2057 104.282 84.314L103.98 84.8664ZM109.148 88.012V88.0264H109.778V88.012H109.148ZM109.191 88.1846C109.274 88.3268 109.345 88.5423 109.399 88.8631C109.453 89.1813 109.486 89.584 109.504 90.0881C109.539 91.0977 109.51 92.4755 109.47 94.329L110.1 94.3424C110.139 92.4968 110.169 91.0978 110.133 90.0663C110.115 89.55 110.08 89.1161 110.02 88.7586C109.96 88.4035 109.872 88.1038 109.735 87.8682L109.191 88.1846ZM109.47 94.3288L109.45 95.2286L110.08 95.2425L110.1 94.3427L109.47 94.3288ZM109.45 95.23C109.44 95.8301 108.948 96.3151 108.344 96.3151V96.9446C109.291 96.9446 110.063 96.1847 110.08 95.2411L109.45 95.23ZM108.344 96.3151H68.3058V96.9446H108.344V96.3151ZM68.3058 96.3151C67.7024 96.3151 67.2084 95.8296 67.1972 95.2296L66.5678 95.2414C66.5855 96.1852 67.3601 96.9446 68.3058 96.9446V96.3151ZM67.1972 95.2292L67.1791 94.3294L66.5497 94.342L66.5678 95.2419L67.1972 95.2292ZM67.1791 94.3282C67.1778 94.2725 67.1485 92.6167 67.1744 91.018C67.1874 90.2172 67.2141 89.4388 67.2641 88.8842C67.2894 88.6028 67.3193 88.3975 67.3509 88.2783C67.3692 88.2093 67.3777 88.2113 67.3581 88.2362C67.346 88.2514 67.2998 88.3049 67.2112 88.3232C67.1112 88.3439 67.034 88.3052 66.9977 88.2778L67.3764 87.775C67.3125 87.7269 67.2089 87.6808 67.0836 87.7068C66.9696 87.7304 66.899 87.8017 66.8637 87.8465C66.7973 87.9307 66.7631 88.0389 66.7425 88.1168C66.6962 88.2914 66.6628 88.5422 66.6371 88.8277C66.5849 89.4067 66.5579 90.2045 66.5449 91.0078C66.5189 92.6173 66.5483 94.2819 66.5498 94.3432L67.1791 94.3282ZM67.4592 88.1846C67.5421 88.042 67.6942 87.8721 67.9464 87.6649C68.1967 87.4593 68.5303 87.229 68.9598 86.9616C69.8199 86.4262 71.0316 85.7617 72.6616 84.8691L72.3592 84.3169C70.736 85.2058 69.5057 85.8802 68.6271 86.4272C68.1873 86.701 67.8275 86.9478 67.5468 87.1784C67.2681 87.4074 67.0516 87.633 66.9149 87.8683L67.4592 88.1846ZM72.6613 84.8692C73.9065 84.1887 75.3754 83.3858 77.7839 81.9997L77.4699 81.4541C75.0673 82.8368 73.6029 83.6371 72.3594 84.3168L72.6613 84.8692ZM77.6269 82.0417H77.6386V81.4121H77.6269V82.0417ZM77.7955 81.9997L84.3777 78.2124L84.0637 77.6667L77.4816 81.4541L77.7955 81.9997ZM84.3799 78.2111C84.8435 77.9393 85.1156 77.4729 85.1156 76.9334H84.4861C84.4861 77.246 84.3354 77.5074 84.0615 77.668L84.3799 78.2111ZM85.1156 76.932C85.1133 76.3966 84.8392 75.9279 84.3731 75.6599L84.0592 76.2056C84.3325 76.3627 84.4847 76.6254 84.4861 76.9348L85.1156 76.932ZM84.3723 75.6594L79.5605 72.9106L79.2482 73.4572L84.06 76.206L84.3723 75.6594ZM79.5595 72.91C79.0947 72.6465 78.5547 72.646 78.0904 72.9139L78.405 73.4592C78.6744 73.3038 78.9765 73.3032 79.2491 73.4577L79.5595 72.91ZM78.0907 72.9137L73.9158 75.3159L74.2298 75.8615L78.4046 73.4594L78.0907 72.9137ZM73.8268 75.7851L73.8304 75.7896L74.3224 75.3968L74.3188 75.3923L73.8268 75.7851ZM73.9193 75.3204C72.3748 76.21 70.5038 77.2353 68.9309 78.0957L69.2331 78.648C70.8047 77.7882 72.682 76.7596 74.2335 75.8659L73.9193 75.3204ZM68.931 78.0957C64.5426 80.4954 62.2399 81.7513 60.7545 84.3145L61.2992 84.6301C62.6784 82.2502 64.7962 81.0742 69.233 78.6481L68.931 78.0957ZM60.7121 84.4723V84.4875H61.3416V84.4723H60.7121ZM60.7544 84.3299C59.2753 86.886 59.3374 89.4976 59.4417 94.481L60.0711 94.4678C59.9656 89.4284 59.9265 87.0176 61.2993 84.6451L60.7544 84.3299ZM59.4417 94.4809C59.4678 95.7537 59.5021 97.2544 59.5021 100.187H60.1316C60.1316 97.2481 60.0972 95.7423 60.0711 94.4679L59.4417 94.4809ZM59.5021 100.187C59.5021 103.116 59.4678 104.619 59.4417 105.891L60.0711 105.904C60.0972 104.63 60.1316 103.123 60.1316 100.187H59.5021ZM59.4417 105.891C59.3374 110.884 59.2734 113.499 60.7545 116.056L61.2992 115.741C59.9247 113.367 59.9656 110.954 60.0711 105.904L59.4417 105.891ZM61.0269 116.213H61.0323V115.584H61.0269V116.213ZM60.7603 116.057C62.2591 118.632 64.5576 119.883 68.9362 122.28L69.2385 121.728C64.812 119.305 62.6972 118.133 61.3043 115.74L60.7603 116.057ZM68.9367 122.281C70.5052 123.135 72.3389 124.143 73.9198 125.049L74.2329 124.503C72.6457 123.593 70.807 122.583 69.2379 121.728L68.9367 122.281ZM73.8037 124.618L73.8001 124.625L74.3454 124.939L74.349 124.933L73.8037 124.618ZM73.9157 125.055L81.0536 129.166L81.3678 128.62L74.2299 124.509L73.9157 125.055ZM81.0536 128.62L73.9157 132.731L74.2299 133.276L81.3678 129.166L81.0536 128.62ZM74.0728 133.318H74.0764V132.689H74.0728V133.318ZM73.9189 132.731C72.3746 133.623 70.5039 134.647 68.9307 135.51L69.2333 136.062C70.8046 135.2 72.6822 134.173 74.2338 133.276L73.9189 132.731ZM68.9312 135.51C64.5428 137.906 62.2399 139.16 60.7544 141.727L61.2993 142.042C62.6784 139.659 64.7961 138.485 69.2328 136.062L68.9312 135.51ZM60.7121 141.884V141.898H61.3416V141.884H60.7121ZM60.7543 141.74C59.2754 144.3 59.3374 146.911 59.4417 151.895L60.0711 151.882C59.9656 146.842 59.9265 144.431 61.2994 142.055L60.7543 141.74ZM59.4417 151.895C59.4561 152.602 59.4741 160.695 59.4858 166.496L60.1153 166.495C60.1037 160.7 60.0856 152.597 60.0711 151.882L59.4417 151.895ZM59.9576 166.223L52.5478 161.956L52.2337 162.502L59.6435 166.769L59.9576 166.223ZM52.5637 162.492L52.5691 162.489L52.2232 161.963L52.2178 161.966L52.5637 162.492ZM52.5532 161.953L16.6233 141.272L16.3093 141.818L52.2392 162.498L52.5532 161.953ZM16.7811 141.545V100.187H16.1515V141.545H16.7811ZM16.7811 100.187V58.8241H16.1515V100.187H16.7811ZM16.6233 59.0969L52.5532 38.4196L52.2392 37.874L16.3093 58.5513L16.6233 59.0969ZM52.5968 37.9042L52.5913 37.8997L52.1901 38.3848L52.1956 38.3893L52.5968 37.9042ZM52.5478 38.4151L59.9576 34.1494L59.6435 33.6038L52.2337 37.8695L52.5478 38.4151ZM59.4858 33.8759C59.4741 39.5977 59.4561 47.7609 59.4417 48.4805L60.0711 48.4931C60.0856 47.766 60.1037 39.5926 60.1153 33.8772L59.4858 33.8759ZM59.4417 48.4802C59.3374 53.4742 59.2735 56.0868 60.7544 58.6458L61.2993 58.3304C59.9247 55.9553 59.9656 53.5438 60.0711 48.4934L59.4417 48.4802ZM61.1279 58.7862L61.1334 58.7844L60.9312 58.1882L60.9258 58.19L61.1279 58.7862ZM60.7602 58.6446C62.2591 61.2207 64.5577 62.4711 68.9362 64.8682L69.2385 64.316C64.812 61.8926 62.6972 60.7219 61.3044 58.328L60.7602 58.6446ZM68.9365 64.8684C70.5053 65.725 72.3388 66.7313 73.9195 67.6401L74.2332 67.0943C72.6459 66.1817 70.8069 65.1724 69.2382 64.3158L68.9365 64.8684ZM73.9398 67.0836L73.9362 67.0853L74.2094 67.6525L74.213 67.6508L73.9398 67.0836ZM73.9157 67.6417C81.509 72.0146 89.0672 76.3659 96.6561 80.7325L96.97 80.1868C89.3812 75.8203 81.8231 71.4691 74.2299 67.0962L73.9157 67.6417ZM99.0117 139.454H99.0215V138.825H99.0117V139.454ZM98.8645 139.412C101.232 140.775 102.735 141.599 103.981 142.279L104.282 141.726C103.039 141.048 101.541 140.226 99.1785 138.867L98.8645 139.412ZM103.981 142.279C105.619 143.175 106.836 143.841 107.698 144.375C108.128 144.642 108.462 144.87 108.711 145.074C108.963 145.279 109.112 145.445 109.192 145.582L109.736 145.266C109.602 145.034 109.386 144.812 109.109 144.586C108.829 144.358 108.47 144.113 108.029 143.84C107.149 143.295 105.914 142.619 104.283 141.726L103.981 142.279ZM109.149 145.424V145.437H109.779V145.424H109.149ZM109.192 145.595C109.275 145.738 109.346 145.954 109.4 146.275C109.454 146.593 109.487 146.996 109.505 147.5C109.54 148.509 109.511 149.886 109.471 151.739L110.1 151.752C110.14 149.908 110.169 148.509 110.134 147.478C110.116 146.962 110.081 146.528 110.021 146.17C109.961 145.815 109.873 145.515 109.736 145.279L109.192 145.595ZM109.471 151.739C109.448 152.85 109.419 163.874 109.405 169.268L110.035 169.269C110.048 163.869 110.077 152.855 110.1 151.752L109.471 151.739ZM109.405 169.266C109.4 170.001 109.039 170.625 108.404 170.99L108.717 171.536C109.549 171.058 110.027 170.227 110.035 169.271L109.405 169.266ZM108.403 170.991L88.1691 182.634L88.4831 183.18L108.717 171.536L108.403 170.991ZM88.4831 182.634L68.2514 170.991L67.9374 171.536L88.1691 183.179L88.4831 182.634ZM68.2506 170.99C67.6113 170.625 67.25 170.001 67.2461 169.267L66.6166 169.27C66.6217 170.227 67.1026 171.059 67.9382 171.537L68.2506 170.99ZM67.2461 169.267C67.2307 163.874 67.2037 152.852 67.1801 151.745L66.5507 151.758C66.5741 152.858 66.6012 163.869 66.6166 169.269L67.2461 169.267ZM67.1801 151.745C67.1398 149.897 67.1112 148.519 67.1462 147.508C67.1636 147.003 67.1967 146.598 67.25 146.277C67.3036 145.954 67.3749 145.735 67.4574 145.589L66.9095 145.279C66.7752 145.517 66.6882 145.818 66.629 146.174C66.5693 146.534 66.5349 146.969 66.517 147.486C66.4813 148.519 66.5105 149.918 66.5507 151.759L67.1801 151.745ZM67.0189 145.703L67.0234 145.705L67.3526 145.169L67.3481 145.166L67.0189 145.703ZM67.46 145.595C67.5429 145.453 67.695 145.283 67.9474 145.076C68.1977 144.871 68.5314 144.64 68.9609 144.373C69.8209 143.837 71.0327 143.172 72.6626 142.279L72.3601 141.726C70.7368 142.616 69.5065 143.291 68.628 143.838C68.1882 144.112 67.8285 144.359 67.5478 144.59C67.2691 144.819 67.0527 145.044 66.916 145.279L67.46 145.595ZM72.6621 142.279C73.9076 141.599 75.3763 140.795 77.7845 139.412L77.4711 138.866C75.0683 140.246 73.6038 141.048 72.3605 141.726L72.6621 142.279ZM77.6278 139.454H77.6395V138.825H77.6278V139.454ZM77.7966 139.412L88.4831 133.26L88.169 132.715L77.4825 138.867L77.7966 139.412ZM88.169 133.26L98.8546 139.412L99.1687 138.867L88.4831 132.715L88.169 133.26ZM165.563 53.5606L127.895 31.8809L127.581 32.4265L165.249 54.1063L165.563 53.5606ZM127.738 31.8389H127.722V32.4685H127.738V31.8389ZM127.879 31.8809L90.2088 10.2047L89.8948 10.7504L127.565 32.4265L127.879 31.8809ZM90.2091 10.2049L88.4823 9.20879L88.1678 9.7541L89.8945 10.7502L90.2091 10.2049ZM88.1679 9.20868L86.4384 10.2048L86.7526 10.7503L88.4821 9.75421L88.1679 9.20868ZM86.4385 10.2047L48.77 31.8809L49.084 32.4265L86.7525 10.7504L86.4385 10.2047ZM48.927 31.8389H48.9117V32.4685H48.927V31.8389ZM48.7546 31.8809L11.0844 53.5606L11.3984 54.1063L49.0687 32.4265L48.7546 31.8809ZM11.0845 53.5605L9.34317 54.5612L9.65683 55.1071L11.3982 54.1064L11.0845 53.5605ZM9.18523 54.8342V56.8291H9.81477V54.8342H9.18523ZM9.18523 56.8291V100.187H9.81477V56.8291H9.18523ZM9.18523 100.187V143.544H9.81477V100.187H9.18523ZM9.18523 143.544V145.535H9.81477V143.544H9.18523ZM9.34264 145.808L11.084 146.813L11.3987 146.268L9.65736 145.262L9.34264 145.808ZM11.0844 146.813L48.7547 168.49L49.0686 167.944L11.3984 146.267L11.0844 146.813ZM48.9117 168.532H48.927V167.902H48.9117V168.532ZM48.77 168.49L86.4385 190.166L86.7525 189.62L49.084 167.944L48.77 168.49ZM86.4388 190.166L88.1684 191.159L88.4817 190.613L86.7521 189.62L86.4388 190.166ZM88.4819 191.159L90.2087 190.166L89.895 189.62L88.1682 190.613L88.4819 191.159ZM90.2088 190.166L127.879 168.49L127.565 167.944L89.8948 189.62L90.2088 190.166ZM127.722 168.532H127.738V167.902H127.722V168.532ZM127.895 168.49L165.563 146.813L165.249 146.267L127.581 167.944L127.895 168.49ZM165.563 146.813L167.306 145.808L166.992 145.262L165.249 146.267L165.563 146.813ZM167.464 145.535V143.544H166.834V145.535H167.464ZM167.464 143.544V103.991H166.834V143.544H167.464ZM167.464 103.991V96.6161H166.834V103.991H167.464ZM167.149 96.3014H126.105V96.9309H167.149V96.3014ZM125.79 96.6161V103.706H126.419V96.6161H125.79ZM126.102 104.02L160.182 104.306L160.187 103.677L126.107 103.391L126.102 104.02ZM159.87 103.991V141.545H160.499V103.991H159.87ZM160.028 141.272L124.096 161.953L124.41 162.499L160.342 141.818L160.028 141.272ZM124.031 162.449L124.034 162.452L124.479 162.007L124.475 162.003L124.031 162.449ZM124.1 161.957L116.693 166.223L117.008 166.769L124.414 162.502L124.1 161.957ZM117.165 166.497C117.175 160.695 117.194 152.596 117.208 151.888L116.578 151.876C116.565 152.591 116.546 160.7 116.536 166.495L117.165 166.497ZM117.208 151.889C117.312 146.896 117.376 144.284 115.894 141.727L115.349 142.042C116.725 144.416 116.684 146.826 116.578 151.876L117.208 151.889ZM115.621 141.57H115.615V142.199H115.621V141.57ZM115.887 141.726C114.39 139.151 112.093 137.9 107.715 135.503L107.412 136.055C111.839 138.478 113.952 139.65 115.343 142.043L115.887 141.726ZM107.709 135.5L107.578 135.431L107.287 135.989L107.418 136.058L107.709 135.5ZM107.146 135.58L107.133 135.61L107.706 135.87L107.719 135.84L107.146 135.58ZM107.575 135.467L105.95 134.539L105.638 135.086L107.263 136.013L107.575 135.467ZM106.016 134.589L106.014 134.586L105.57 135.033L105.572 135.035L106.016 134.589ZM105.941 134.532L105.862 134.49L105.564 135.044L105.642 135.087L105.941 134.532ZM105.865 134.492C104.804 133.904 103.719 133.298 102.731 132.731L102.418 133.277C103.409 133.846 104.498 134.454 105.56 135.043L105.865 134.492ZM102.575 133.318H102.578V132.689H102.575V133.318ZM102.735 132.731L96.8915 129.365L96.5772 129.91L102.421 133.276L102.735 132.731ZM96.8904 129.364L78.5934 118.916L78.2812 119.463L96.5783 129.911L96.8904 129.364ZM78.7057 119.354L78.7438 119.292L78.2069 118.963L78.1688 119.025L78.7057 119.354ZM78.6328 118.855L77.796 118.371L77.481 118.916L78.3178 119.4L78.6328 118.855ZM77.6385 118.329H77.6268V118.959H77.6385V118.329ZM77.7836 118.371C75.4161 117.011 73.9167 116.188 72.6677 115.504L72.3656 116.057C73.6125 116.739 75.1077 117.56 77.47 118.917L77.7836 118.371ZM72.6684 115.505C72.3974 115.356 71.0753 114.66 69.8137 113.919C69.1827 113.548 68.5758 113.171 68.1293 112.85C67.9049 112.689 67.7303 112.549 67.6149 112.436C67.5568 112.379 67.5219 112.336 67.5034 112.308C67.4806 112.274 67.5017 112.29 67.5017 112.343H66.8722C66.8722 112.474 66.9309 112.584 66.9787 112.656C67.0308 112.735 67.0995 112.812 67.1739 112.885C67.3232 113.031 67.5279 113.194 67.762 113.362C68.2324 113.7 68.8592 114.088 69.4948 114.462C70.7663 115.209 72.1091 115.915 72.3649 116.056L72.6684 115.505ZM67.4591 112.184C67.3766 112.043 67.3049 111.827 67.2507 111.507C67.197 111.189 67.1635 110.786 67.1457 110.282C67.1102 109.273 67.1387 107.895 67.1791 106.042L66.5497 106.028C66.5095 107.874 66.4802 109.273 66.5166 110.304C66.5348 110.821 66.5696 111.254 66.63 111.612C66.69 111.966 66.7782 112.266 66.9149 112.501L67.4591 112.184ZM67.1791 106.041L67.1971 105.14L66.5677 105.127L66.5497 106.029L67.1791 106.041ZM67.1971 105.139C67.2084 104.542 67.7016 104.057 68.3057 104.057V103.428C67.3608 103.428 66.5854 104.185 66.5677 105.128L67.1971 105.139ZM68.3057 104.057H108.343V103.428H68.3057V104.057ZM108.343 104.057C108.949 104.057 109.44 104.541 109.45 105.139L110.08 105.128C110.063 104.185 109.29 103.428 108.343 103.428V104.057ZM109.45 105.14L109.47 106.042L110.099 106.028L110.08 105.127L109.45 105.14ZM109.47 106.042C109.509 107.888 109.539 109.264 109.504 110.275C109.487 110.779 109.454 111.184 109.401 111.504C109.347 111.827 109.276 112.047 109.193 112.194L109.741 112.504C109.875 112.266 109.963 111.964 110.022 111.607C110.081 111.248 110.116 110.813 110.133 110.296C110.168 109.264 110.139 107.867 110.099 106.028L109.47 106.042ZM109.741 112.194L109.737 112.188L109.189 112.498L109.193 112.504L109.741 112.194ZM109.191 112.185C109.108 112.328 108.956 112.498 108.704 112.705C108.454 112.911 108.12 113.141 107.691 113.408C106.831 113.944 105.619 114.608 103.989 115.502L104.292 116.054C105.915 115.164 107.145 114.49 108.023 113.943C108.463 113.669 108.823 113.422 109.104 113.191C109.383 112.962 109.599 112.736 109.736 112.5L109.191 112.185ZM103.99 115.502C102.741 116.184 101.274 116.985 98.8636 118.371L99.1774 118.917C101.582 117.534 103.044 116.735 104.292 116.054L103.99 115.502ZM99.0205 118.329H99.0107V118.959H99.0205V118.329ZM98.8536 118.371L92.2035 122.202L92.5178 122.747L99.1678 118.917L98.8536 118.371ZM92.2042 122.201C91.7359 122.47 91.4667 122.94 91.4667 123.476H92.0963C92.0963 123.164 92.2463 122.903 92.5171 122.748L92.2042 122.201ZM91.4667 123.476C91.4667 124.016 91.7447 124.485 92.2071 124.751L92.5216 124.206C92.2502 124.049 92.0963 123.786 92.0963 123.476H91.4667ZM92.2084 124.752L97.0238 127.498L97.3357 126.951L92.5203 124.205L92.2084 124.752ZM97.022 127.497C97.4865 127.766 98.0262 127.766 98.4907 127.497L98.1751 126.952C97.9058 127.108 97.6069 127.108 97.3376 126.952L97.022 127.497ZM98.4898 127.498L102.735 125.055L102.421 124.509L98.1759 126.952L98.4898 127.498ZM102.851 124.625L102.847 124.619L102.302 124.933L102.305 124.939L102.851 124.625ZM102.732 125.049C104.271 124.162 106.145 123.136 107.718 122.277L107.416 121.724C105.844 122.583 103.964 123.613 102.418 124.503L102.732 125.049ZM107.718 122.277C112.106 119.874 114.409 118.619 115.894 116.056L115.349 115.741C113.971 118.121 111.852 119.295 107.416 121.725L107.718 122.277ZM115.936 115.899V115.889H115.307V115.899H115.936ZM115.894 116.046C117.376 113.486 117.312 110.871 117.208 105.891L116.578 105.904C116.684 110.941 116.725 113.354 115.349 115.731L115.894 116.046ZM117.208 105.891C117.181 104.612 117.149 103.116 117.149 100.187H116.519C116.519 103.123 116.552 104.623 116.578 105.904L117.208 105.891ZM117.149 100.187C117.149 97.2536 117.181 95.7518 117.208 94.4802L116.578 94.4673C116.552 95.741 116.519 97.2475 116.519 100.187H117.149ZM117.208 94.4803C117.312 89.4854 117.376 86.8717 115.894 84.3146L115.349 84.6302C116.725 87.0034 116.684 89.4156 116.578 94.4672L117.208 94.4803ZM115.621 84.1576H115.615V84.7872H115.621V84.1576ZM115.887 84.3142C114.39 81.7389 112.093 80.4876 107.715 78.0914L107.413 78.6436C111.839 81.066 113.952 82.2377 115.343 84.6306L115.887 84.3142ZM107.714 78.091C106.142 77.2356 104.31 76.2291 102.732 75.3205L102.418 75.8661C104.003 76.7786 105.84 77.7881 107.413 78.644L107.714 78.091ZM102.821 75.7894L102.824 75.785L102.332 75.3927L102.328 75.3972L102.821 75.7894ZM102.735 75.316L95.5937 71.207L95.2797 71.7526L102.421 75.8616L102.735 75.316ZM95.5937 71.7526L102.735 67.6419L102.421 67.0963L95.2797 71.207L95.5937 71.7526ZM102.715 67.0856L102.711 67.0839L102.438 67.6508L102.441 67.6525L102.715 67.0856ZM102.732 67.6397C104.271 66.7486 106.145 65.7256 107.718 64.8648L107.416 64.3125C105.845 65.172 103.963 66.1991 102.417 67.095L102.732 67.6397ZM107.718 64.8647C112.106 62.4634 114.409 61.2091 115.894 58.646L115.349 58.3305C113.971 60.7102 111.852 61.8844 107.416 64.3125L107.718 64.8647ZM115.936 58.4882V58.4747H115.307V58.4882H115.936ZM115.894 58.6324C117.376 56.0726 117.312 53.4592 117.208 48.4776L116.578 48.4907C116.684 53.5287 116.725 55.9409 115.349 58.317L115.894 58.6324ZM117.208 48.4783C117.194 47.7604 117.175 39.602 117.165 33.8771L116.536 33.8782C116.546 39.5975 116.565 47.7651 116.578 48.4901L117.208 48.4783ZM116.693 34.1504L124.1 38.4152L124.414 37.8696L117.007 33.6048L116.693 34.1504ZM124.01 37.9462L124.007 37.9507L124.499 38.3431L124.503 38.3386L124.01 37.9462ZM124.096 38.4197L160.028 59.097L160.342 58.5514L124.41 37.8741L124.096 38.4197ZM159.87 58.8242V71.7876H160.499V58.8242H159.87ZM160.185 72.1024H167.149V71.4729H160.185V72.1024ZM167.464 71.7876V56.8291H166.834V71.7876H167.464ZM167.464 56.8291V54.8342H166.834V56.8291H167.464ZM167.306 54.5612L165.563 53.5605L165.249 54.1064L166.992 55.1071L167.306 54.5612Z"
            fill="#00FFC8" />
    </g>
</svg>
