<svg width="81" height="81" viewBox="0 0 81 81" fill="none" xmlns="http://www.w3.org/2000/svg">
<g opacity="0.3">
<path fill-rule="evenodd" clip-rule="evenodd" d="M2.50391 33.2355V70.9286C2.50391 73.0633 3.35192 75.1106 4.86138 76.6201C6.37085 78.1295 8.41812 78.9775 10.5528 78.9775H69.8854C72.0201 78.9775 74.0674 78.1295 75.5769 76.6201C77.0863 75.1106 77.9343 73.0633 77.9343 70.9286V33.2355C77.935 31.9566 77.6309 30.6959 77.0472 29.5579C76.4635 28.4199 75.617 27.4374 74.5779 26.6918L42.5674 3.73224C41.8835 3.24149 41.0629 2.97754 40.2211 2.97754C39.3794 2.97754 38.5588 3.24149 37.8749 3.73224L5.86433 26.6918C4.82392 27.4374 3.97633 28.4203 3.3919 29.5591C2.80747 30.6979 2.50305 31.9596 2.50391 33.2396V33.2355Z" stroke="#00FFC8"/>
<path d="M77.8837 31.1503C77.7573 32.2682 77.3979 33.3472 76.8288 34.3176C76.2597 35.2881 75.4935 36.1285 74.5796 36.7846L65.5286 43.28L62.6149 45.3727L42.565 59.7521C41.8811 60.2429 41.0605 60.5068 40.2188 60.5068C39.377 60.5068 38.5564 60.2429 37.8725 59.7521L5.86197 36.7926C4.97649 36.1575 4.22921 35.3491 3.66541 34.4166C3.10162 33.4841 2.73304 32.4468 2.58203 31.3676" stroke="#00FFC8"/>
</g>
</svg>
