<svg width="120" height="102" viewBox="0 0 120 102" fill="none" xmlns="http://www.w3.org/2000/svg">
<path d="M16.256 49.923L0 6.44629V74.5638L21.1234 50.8493H17.5909C17.3004 50.8498 17.0167 50.7613 16.778 50.5957C16.5394 50.4301 16.3571 50.1953 16.256 49.923V49.923Z" fill="#00FFC8"/>
<path d="M42.0282 0H0.628906L18.5761 48.0029H24.021L58.0704 34.3569L42.0282 0Z" fill="#00FFC8"/>
<path d="M49.1783 40.9868L25.1375 50.6204L7.82031 70.0676L49.1783 40.9868Z" fill="#00FFC8"/>
<path d="M56.2558 39.4902L3.07422 76.8771H37.8024L56.2558 39.4902Z" fill="#00FFC8"/>
<path d="M102.408 50.8493H98.8789L119.999 74.5638V6.44629L103.743 49.923C103.641 50.1953 103.459 50.4301 103.22 50.5957C102.982 50.7613 102.698 50.8498 102.408 50.8493V50.8493Z" fill="#00FFC8"/>
<path d="M77.9718 0L61.9258 34.3569L95.9827 48.0029H101.424L119.375 0H77.9718Z" fill="#00FFC8"/>
<path d="M70.8242 40.9868L112.186 70.0676L94.8688 50.6204L70.8242 40.9868Z" fill="#00FFC8"/>
<path d="M116.924 76.8771L63.7422 39.4902L82.1956 76.8771H116.924Z" fill="#00FFC8"/>
<path d="M55.9492 46.3564H64.0528L59.9991 38.144L55.9492 46.3564Z" fill="#00FFC8"/>
<path d="M2.11121 99.8119V99.0807H4.19618C4.21453 99.1872 4.22331 99.2951 4.22242 99.4032C4.22317 99.8209 4.09998 100.229 3.86845 100.577C3.63691 100.925 3.30745 101.196 2.92174 101.356C2.53603 101.517 2.11142 101.559 1.70164 101.478C1.29186 101.397 0.915322 101.196 0.619689 100.901C0.324055 100.606 0.122608 100.23 0.0408425 99.8202C-0.0409236 99.4105 0.000666204 98.9859 0.160348 98.5999C0.32003 98.2139 0.590627 97.8839 0.937895 97.6518C1.28516 97.4196 1.69349 97.2957 2.11121 97.2957C2.6693 97.2863 3.20847 97.498 3.61118 97.8845L3.0337 98.4694C2.91567 98.3396 2.77138 98.2363 2.61039 98.1665C2.44941 98.0967 2.27542 98.0619 2.09996 98.0645C1.76222 98.0897 1.44652 98.2418 1.21615 98.49C0.985774 98.7383 0.857756 99.0645 0.857756 99.4032C0.857756 99.7419 0.985774 100.068 1.21615 100.316C1.44652 100.565 1.76222 100.717 2.09996 100.742C2.37711 100.746 2.64753 100.656 2.86738 100.488C3.08723 100.319 3.24362 100.081 3.31119 99.8119H2.11121Z" fill="#00FFC8"/>
<path d="M23.2734 101.432L24.9534 97.3936H26.1721L27.8371 101.451H26.9409L26.6071 100.641H24.4659L24.1322 101.451L23.2734 101.432ZM26.3071 99.891L25.5571 98.106H25.4784L24.7472 99.891H26.3071Z" fill="#00FFC8"/>
<path d="M49.359 99.0807H49.4153L50.6828 97.3745H51.414V101.432H50.6003V98.5932C50.5462 98.7547 50.4692 98.9075 50.3715 99.047L49.8053 99.797H48.9915L48.4253 99.047C48.3276 98.9075 48.2506 98.7547 48.1965 98.5932V98.5932V101.432H47.3828V97.3933H48.1328L49.359 99.0807Z" fill="#00FFC8"/>
<path d="M71.3125 101.432V97.3936H72.1262V101.451L71.3125 101.432Z" fill="#00FFC8"/>
<path d="M92.8255 98.6348V101.432H92.0117V97.3936H92.743L95.2592 100.195V97.3936H96.0729V101.451H95.3417L92.8255 98.6348Z" fill="#00FFC8"/>
<path d="M117.889 99.812V99.0807H119.977C119.992 99.1876 120 99.2953 120 99.4032C120.001 99.8209 119.877 100.229 119.646 100.577C119.414 100.925 119.085 101.196 118.699 101.356C118.313 101.517 117.889 101.559 117.479 101.478C117.069 101.397 116.693 101.196 116.397 100.901C116.101 100.606 115.9 100.23 115.818 99.8202C115.736 99.4106 115.778 98.9859 115.938 98.5999C116.097 98.2139 116.368 97.884 116.715 97.6518C117.063 97.4197 117.471 97.2958 117.889 97.2958C118.447 97.2856 118.986 97.4973 119.389 97.8845L118.811 98.4695C118.693 98.3396 118.549 98.2364 118.388 98.1666C118.227 98.0967 118.053 98.062 117.877 98.0645C117.54 98.0898 117.224 98.2418 116.993 98.4901C116.763 98.7384 116.635 99.0645 116.635 99.4032C116.635 99.7419 116.763 100.068 116.993 100.316C117.224 100.565 117.54 100.717 117.877 100.742C118.155 100.747 118.425 100.657 118.645 100.489C118.865 100.32 119.022 100.081 119.089 99.812H117.889Z" fill="#00FFC8"/>
<path d="M1.22248 86.7657V92.3194H0V84.2383H1.01998L4.52242 89.5632L7.97986 84.2383H8.95484V92.3194H7.75111V86.7657L4.94241 91.1044H4.11368L1.22248 86.7657Z" fill="#00FFC8"/>
<path d="M22.4348 84.2383C25.926 84.2383 27.0959 85.8357 27.0959 88.2845C27.0959 90.7332 25.9035 92.3419 22.4348 92.3419C18.9661 92.3419 17.7773 90.7069 17.7773 88.2845C17.7773 85.862 18.9698 84.2383 22.4348 84.2383ZM22.4348 85.3633C19.7723 85.3633 19.0036 86.3382 19.0036 88.277C19.0036 90.2157 19.7536 91.1869 22.4348 91.1869C25.116 91.1869 25.8697 90.1932 25.8697 88.277C25.8697 86.3607 25.101 85.3708 22.4348 85.3708V85.3633Z" fill="#00FFC8"/>
<path d="M38.1023 92.3194H36.9023V84.2383H37.8323L43.9185 90.4032V84.2383H45.141V92.3194H44.1885L38.1136 86.1432L38.1023 92.3194Z" fill="#00FFC8"/>
<path d="M56.3369 92.3199H54.9531L59.6893 84.2163L64.4255 92.3199H63.0305L61.4893 89.6762H57.8631L56.3369 92.3199ZM58.5156 88.57H60.848L59.693 86.5638L58.5156 88.57Z" fill="#00FFC8"/>
<path d="M79.989 84.2383C82.0402 84.2383 83.3639 84.692 83.3639 86.4582V86.7882C83.3639 88.2282 82.4339 88.8957 80.6452 88.9969L83.7952 92.3194H82.1527L79.0252 88.9969H76.4528V92.3194H75.2266V84.2383H79.989ZM80.2065 87.8645C81.3615 87.8645 82.1452 87.752 82.1452 86.7395V86.4545C82.1452 85.412 81.2265 85.367 80.049 85.367H76.4565V87.8495L80.2065 87.8645Z" fill="#00FFC8"/>
<path d="M101.449 85.2024C101.639 85.3666 101.798 85.5619 101.922 85.7799L101.948 85.8136L101.052 86.6761L100.996 86.5598C100.996 86.5261 100.962 86.4923 100.951 86.4586C100.486 85.5886 99.0757 85.3711 97.9507 85.3711C95.2995 85.3711 94.5158 86.3461 94.5158 88.2736C94.5158 90.201 95.2995 91.1723 97.9507 91.1723C99.1057 91.1723 100.501 90.9698 100.951 90.0848C100.951 90.051 100.984 90.0173 100.996 89.9835L101.074 89.8935L101.971 90.7448L101.944 90.7785C101.819 90.9951 101.659 91.1901 101.472 91.356C100.609 92.0797 99.1807 92.3197 97.9582 92.3197C94.5008 92.3197 93.3008 90.7073 93.3008 88.2848C93.3008 85.8624 94.5008 84.2499 97.9582 84.2499C99.1657 84.2386 100.594 84.4749 101.449 85.2024Z" fill="#00FFC8"/>
<path d="M112.973 88.7044V92.3194H111.758V84.2383H112.973V87.5682H118.774V84.2383H119.996V92.3194H118.774V88.7044H112.973Z" fill="#00FFC8"/>
</svg>
