<svg width="292" height="292" viewBox="0 0 292 292" fill="none" xmlns="http://www.w3.org/2000/svg">
    <defs>
        <filter id="filter0_d_2415_45997" x="98.6134" y="91.567" width="96.7733" height="107.866"
            filterUnits="userSpaceOnUse" color-interpolation-filters="sRGB">
            <feFlood flood-opacity="0" result="BackgroundImageFix" />
            <feColorMatrix in="SourceAlpha" type="matrix"
                values="0 0 0 0 0 0 0 0 0 0 0 0 0 0 0 0 0 0 127 0" result="hardAlpha" />
            <feOffset />
            <feGaussianBlur stdDeviation="4.53511" />
            <feComposite in2="hardAlpha" operator="out" />
            <feColorMatrix type="matrix"
                values="0 0 0 0 0 0 0 0 0 1 0 0 0 0 0.786112 0 0 0 0.5 0" />
            <feBlend mode="normal" in2="BackgroundImageFix"
                result="effect1_dropShadow_2415_45997" />
            <feBlend mode="normal" in="SourceGraphic" in2="effect1_dropShadow_2415_45997"
                result="shape" />
        </filter>
        <filter id="filter1_d_2415_45997" x="45.1581" y="45.1581" width="201.684" height="201.684"
            filterUnits="userSpaceOnUse" color-interpolation-filters="sRGB">
            <feFlood flood-opacity="0" result="BackgroundImageFix" />
            <feColorMatrix in="SourceAlpha" type="matrix"
                values="0 0 0 0 0 0 0 0 0 0 0 0 0 0 0 0 0 0 127 0" result="hardAlpha" />
            <feOffset />
            <feGaussianBlur stdDeviation="3.26667" />
            <feColorMatrix type="matrix" values="0 0 0 0 0 0 0 0 0 1 0 0 0 0 0.786112 0 0 0 1 0" />
            <feBlend mode="normal" in2="BackgroundImageFix"
                result="effect1_dropShadow_2415_45997" />
            <feBlend mode="normal" in="SourceGraphic" in2="effect1_dropShadow_2415_45997"
                result="shape" />
        </filter>
        <filter id="filter2_d_2415_45997" x="11.7012" y="11.6988" width="268.601" height="268.602"
            filterUnits="userSpaceOnUse" color-interpolation-filters="sRGB">
            <feFlood flood-opacity="0" result="BackgroundImageFix" />
            <feColorMatrix in="SourceAlpha" type="matrix"
                values="0 0 0 0 0 0 0 0 0 0 0 0 0 0 0 0 0 0 127 0" result="hardAlpha" />
            <feOffset />
            <feGaussianBlur stdDeviation="10.8974" />
            <feColorMatrix type="matrix" values="0 0 0 0 0 0 0 0 0 1 0 0 0 0 0.786112 0 0 0 1 0" />
            <feBlend mode="normal" in2="BackgroundImageFix"
                result="effect1_dropShadow_2415_45997" />
            <feBlend mode="normal" in="SourceGraphic" in2="effect1_dropShadow_2415_45997"
                result="shape" />
        </filter>
        <filter id="filter3_d_2415_45997" x="26.1895" y="26.1885" width="239.621" height="239.623"
            filterUnits="userSpaceOnUse" color-interpolation-filters="sRGB">
            <feFlood flood-opacity="0" result="BackgroundImageFix" />
            <feColorMatrix in="SourceAlpha" type="matrix"
                values="0 0 0 0 0 0 0 0 0 0 0 0 0 0 0 0 0 0 127 0" result="hardAlpha" />
            <feOffset />
            <feGaussianBlur stdDeviation="10.8974" />
            <feColorMatrix type="matrix" values="0 0 0 0 0 0 0 0 0 1 0 0 0 0 0.786112 0 0 0 1 0" />
            <feBlend mode="normal" in2="BackgroundImageFix"
                result="effect1_dropShadow_2415_45997" />
            <feBlend mode="normal" in="SourceGraphic" in2="effect1_dropShadow_2415_45997"
                result="shape" />
        </filter>
        <filter id="filter4_d_2415_45997" x="0.662159" y="0.660206" width="290.676" height="290.68"
            filterUnits="userSpaceOnUse" color-interpolation-filters="sRGB">
            <feFlood flood-opacity="0" result="BackgroundImageFix" />
            <feColorMatrix in="SourceAlpha" type="matrix"
                values="0 0 0 0 0 0 0 0 0 0 0 0 0 0 0 0 0 0 127 0" result="hardAlpha" />
            <feOffset />
            <feGaussianBlur stdDeviation="10.8974" />
            <feColorMatrix type="matrix" values="0 0 0 0 0 0 0 0 0 1 0 0 0 0 0.786112 0 0 0 1 0" />
            <feBlend mode="normal" in2="BackgroundImageFix"
                result="effect1_dropShadow_2415_45997" />
            <feBlend mode="normal" in="SourceGraphic" in2="effect1_dropShadow_2415_45997"
                result="shape" />
        </filter>
    </defs>
    <g opacity="0.4">
        <g filter="url(#filter0_d_2415_45997)">
            <path
                d="M157.46 123.302L157.198 123.476L157.48 123.899L157.733 123.458L157.46 123.302ZM157.458 123.299L157.72 123.124L157.44 122.705L157.186 123.14L157.458 123.299ZM154.824 124.984L154.974 125.261L154.975 125.261L154.824 124.984ZM152.291 126.39V126.705H152.374L152.447 126.664L152.291 126.39ZM152.286 126.39V126.075H152.203L152.13 126.117L152.286 126.39ZM146.999 129.408V129.722H147.083L147.155 129.681L146.999 129.408ZM146.999 129.408L146.843 129.681L146.915 129.722H146.999V129.408ZM141.712 126.39L141.868 126.117L141.795 126.075H141.712V126.39ZM141.706 126.39L141.55 126.663L141.623 126.705H141.706V126.39ZM139.178 124.985L139.028 125.261L139.028 125.262L139.178 124.985ZM136.541 123.306H136.226V123.391L136.269 123.464L136.541 123.306ZM136.541 123.299H136.856V123.214L136.813 123.14L136.541 123.299ZM136.381 120.205L136.696 120.212L136.696 120.211L136.381 120.205ZM136.415 111.608L136.1 111.606V111.607L136.415 111.608ZM136.989 110.628L136.833 110.355L136.833 110.355L136.989 110.628ZM146.999 104.917L147.155 104.644L146.999 104.555L146.843 104.643L146.999 104.917ZM157.009 110.628L157.165 110.355L157.165 110.355L157.009 110.628ZM157.584 111.608L157.899 111.607L157.899 111.605L157.584 111.608ZM157.617 120.203L157.302 120.209V120.209L157.617 120.203ZM151.2 135.823L151.044 136.097L151.044 136.097L151.2 135.823ZM152.418 136.514H152.733V136.331L152.574 136.24L152.418 136.514ZM152.418 136.515H152.104V136.698L152.262 136.789L152.418 136.515ZM154.82 137.85L154.97 137.573L154.97 137.573L154.82 137.85ZM157.459 139.528H157.773V139.443L157.73 139.369L157.459 139.528ZM157.459 139.536H157.144V139.621L157.187 139.695L157.459 139.536ZM157.618 142.631L157.932 142.638L157.932 142.638L157.618 142.631ZM157.608 143.072L157.293 143.065L157.293 143.067L157.608 143.072ZM136.391 143.072L136.706 143.067L136.706 143.066L136.391 143.072ZM136.382 142.631L136.697 142.625L136.697 142.623L136.382 142.631ZM136.542 139.536L136.353 139.788L136.635 139.998L136.813 139.695L136.542 139.536ZM139.175 137.851L139.025 137.574L139.025 137.574L139.175 137.851ZM141.707 136.445V136.13H141.623L141.551 136.172L141.707 136.445ZM141.713 136.445V136.76H141.796L141.869 136.718L141.713 136.445ZM144.969 134.587L145.125 134.86L145.128 134.859L144.969 134.587ZM145.256 134.093H145.571L145.571 134.092L145.256 134.093ZM144.967 133.602L145.123 133.329L145.122 133.328L144.967 133.602ZM142.586 132.254L142.741 131.98L142.741 131.979L142.586 132.254ZM142.014 132.255L142.17 132.528L142.17 132.528L142.014 132.255ZM139.948 133.433L139.792 133.16L139.472 133.343L139.703 133.631L139.948 133.433ZM139.95 133.436L140.106 133.709L140.427 133.526L140.195 133.238L139.95 133.436ZM137.479 134.799L137.629 135.076L137.629 135.076L137.479 134.799ZM133.494 137.792L133.222 137.633L133.179 137.707V137.792H133.494ZM133.494 137.799L133.766 137.958L133.809 137.884V137.799H133.494ZM132.865 142.699L133.18 142.693L133.18 142.692L132.865 142.699ZM132.865 148.303L133.18 148.31L133.18 148.31L132.865 148.303ZM133.494 153.21L133.222 153.369L133.313 153.525H133.494V153.21ZM133.496 153.21L133.768 153.051L133.677 152.895H133.496V153.21ZM137.482 156.206L137.332 156.482L137.332 156.483L137.482 156.206ZM139.95 157.565L140.222 157.724L140.382 157.449L140.106 157.292L139.95 157.565ZM139.948 157.568L139.676 157.41L139.517 157.684L139.792 157.842L139.948 157.568ZM143.48 159.585L143.636 159.859L144.115 159.585L143.636 159.312L143.48 159.585ZM139.948 161.602L139.792 161.329L138.763 161.917H139.948V161.602ZM139.95 161.602L140.107 161.875L141.133 161.287H139.95V161.602ZM137.479 162.967L137.629 163.244L137.63 163.244L137.479 162.967ZM133.494 165.959L133.222 165.8L133.179 165.874V165.959H133.494ZM133.494 165.966L133.766 166.124L133.809 166.051V165.966H133.494ZM132.865 170.867L133.18 170.861L133.18 170.861L132.865 170.867ZM132.887 178.034L132.731 178.307L133.203 178.577L133.202 178.033L132.887 178.034ZM129.221 175.941L129.049 175.677L128.617 175.958L129.065 176.214L129.221 175.941ZM129.224 175.939L129.395 176.203L129.827 175.921L129.38 175.666L129.224 175.939ZM111.447 165.793H111.132V165.975L111.29 166.066L111.447 165.793ZM111.447 125.208L111.291 124.935L111.132 125.026V125.208H111.447ZM129.224 115.064L129.38 115.337L129.777 115.11L129.423 114.82L129.224 115.064ZM129.221 115.062L129.065 114.788L128.668 115.015L129.021 115.305L129.221 115.062ZM132.887 112.969L133.202 112.969L133.203 112.426L132.731 112.695L132.887 112.969ZM132.865 120.137L133.18 120.143L133.18 120.143L132.865 120.137ZM133.494 125.044L133.222 125.202L133.351 125.424L133.594 125.342L133.494 125.044ZM133.496 125.043L133.768 124.883L133.639 124.663L133.396 124.744L133.496 125.043ZM137.482 128.038L137.332 128.315L137.332 128.315L137.482 128.038ZM139.95 129.4L140.086 129.684L140.629 129.424L140.106 129.126L139.95 129.4ZM139.948 129.401L139.813 129.117L139.27 129.376L139.792 129.674L139.948 129.401ZM152.286 164.612L152.13 164.886L152.203 164.927H152.286V164.612ZM152.291 164.612L152.447 164.339L152.375 164.298H152.291V164.612ZM154.82 166.017L154.97 165.74L154.969 165.74L154.82 166.017ZM157.458 167.696H157.773V167.611L157.73 167.537L157.458 167.696ZM157.458 167.702H157.143V167.787L157.186 167.861L157.458 167.702ZM157.617 170.797L157.302 170.79V170.79L157.617 170.797ZM157.584 179.394L157.899 179.397L157.899 179.395L157.584 179.394ZM157.011 180.373L156.855 180.1L156.855 180.1L157.011 180.373ZM146.999 186.085L146.843 186.359L146.999 186.448L147.155 186.359L146.999 186.085ZM136.989 180.373L137.145 180.1L137.145 180.099L136.989 180.373ZM136.414 179.394L136.099 179.395L136.099 179.396L136.414 179.394ZM136.381 170.8L136.696 170.794L136.696 170.793L136.381 170.8ZM136.539 167.701L136.702 167.432L136.426 167.264L136.265 167.545L136.539 167.701ZM136.541 167.702L136.377 167.971L136.65 168.137L136.812 167.862L136.541 167.702ZM139.175 166.017L139.025 165.74L139.025 165.741L139.175 166.017ZM141.706 164.612V164.298H141.623L141.551 164.339L141.706 164.612ZM141.712 164.612V164.927H141.796L141.868 164.886L141.712 164.612ZM146.999 161.594L147.155 161.321L146.999 161.232L146.843 161.321L146.999 161.594ZM185.138 122.76L184.982 123.033L184.982 123.033L185.138 122.76ZM166.501 112.123L166.657 111.85L166.584 111.809H166.501V112.123ZM166.493 112.123L166.337 112.397L166.409 112.438H166.493V112.123ZM147.855 101.489L147.698 101.762L147.699 101.762L147.855 101.489ZM147 101L147.157 100.727L147 100.637L146.844 100.727L147 101ZM146.145 101.489L146.301 101.762L146.301 101.762L146.145 101.489ZM127.507 112.123V112.438H127.591L127.663 112.397L127.507 112.123ZM127.5 112.123V111.809H127.416L127.344 111.85L127.5 112.123ZM108.862 122.76L109.017 123.033L109.018 123.033L108.862 122.76ZM108 123.251L107.844 122.977L107.685 123.068V123.251H108ZM108 167.75H107.685V167.933L107.844 168.023L108 167.75ZM108.862 168.243L108.705 168.516L108.706 168.517L108.862 168.243ZM127.5 178.878L127.344 179.152L127.416 179.193H127.5V178.878ZM127.507 178.878L127.663 178.605L127.591 178.564H127.507V178.878ZM146.145 189.513L145.989 189.786L145.989 189.787L146.145 189.513ZM147 190L146.845 190.274L147 190.362L147.156 190.273L147 190ZM147.855 189.513L148.01 189.787L148.011 189.786L147.855 189.513ZM166.493 178.878V178.564H166.409L166.337 178.605L166.493 178.878ZM166.501 178.878V179.193H166.584L166.657 179.152L166.501 178.878ZM185.138 168.243L185.294 168.517L185.294 168.517L185.138 168.243ZM186 167.75L186.156 168.023L186.315 167.933V167.75H186ZM186 143.75H186.315V143.435H186V143.75ZM165.692 143.75V143.435H165.378V143.75H165.692ZM165.692 147.228H165.378V147.54L165.69 147.543L165.692 147.228ZM182.554 147.368H182.869V147.056L182.557 147.053L182.554 147.368ZM182.554 165.793L182.71 166.066L182.869 165.975V165.793H182.554ZM164.776 175.939L164.62 175.666L164.26 175.871L164.555 176.163L164.776 175.939ZM164.778 175.941L164.934 176.214L165.294 176.008L165 175.717L164.778 175.941ZM161.114 178.034L160.799 178.033L160.798 178.577L161.27 178.307L161.114 178.034ZM161.135 170.864L160.82 170.858L160.82 170.858L161.135 170.864ZM160.506 165.959L160.777 165.8L160.686 165.644H160.506V165.959ZM160.503 165.959L160.231 166.118L160.322 166.274H160.503V165.959ZM156.519 162.963L156.669 162.687L156.664 162.684L156.519 162.963ZM156.454 162.93L156.599 162.65L156.306 162.498L156.168 162.799L156.454 162.93ZM156.447 162.944L156.292 163.218L156.591 163.387L156.734 163.076L156.447 162.944ZM155.644 162.489L155.423 162.714L155.452 162.743L155.488 162.763L155.644 162.489ZM155.642 162.488L155.863 162.264L155.831 162.232L155.79 162.21L155.642 162.488ZM155.603 162.467L155.452 162.743L155.455 162.745L155.603 162.467ZM154.051 161.602V161.287H152.862L153.895 161.876L154.051 161.602ZM154.052 161.602V161.917H155.238L154.208 161.329L154.052 161.602ZM151.161 159.951L151.317 159.677L151.316 159.677L151.161 159.951ZM142.108 154.825L141.84 154.659L141.668 154.937L141.953 155.099L142.108 154.825ZM142.127 154.794L142.395 154.96L142.566 154.683L142.283 154.521L142.127 154.794ZM141.713 154.557L141.869 154.284L141.797 154.242H141.713V154.557ZM141.707 154.557L141.551 154.83L141.624 154.872H141.707V154.557ZM139.179 153.152L139.028 153.428L139.029 153.429L139.179 153.152ZM136.542 151.465H136.857V151.38L136.813 151.306L136.542 151.465ZM136.382 148.371L136.697 148.378L136.697 148.377L136.382 148.371ZM136.391 147.928L136.706 147.935L136.706 147.934L136.391 147.928ZM157.608 147.928L157.293 147.934L157.293 147.935L157.608 147.928ZM157.618 148.371L157.933 148.364L157.933 148.364L157.618 148.371ZM157.461 151.468L157.187 151.624L157.461 152.104L157.734 151.624L157.461 151.468ZM157.459 151.465L157.732 151.309L157.462 150.836L157.187 151.307L157.459 151.465ZM154.825 153.151L154.975 153.428L154.976 153.427L154.825 153.151ZM152.292 154.557V154.872H152.375L152.448 154.83L152.292 154.557ZM152.287 154.557V154.242H152.204L152.131 154.284L152.287 154.557ZM148.997 156.436L149.152 156.71L149.153 156.71L148.997 156.436ZM148.999 157.419L148.843 157.693L148.844 157.693L148.999 157.419ZM151.381 158.767L151.538 158.494L151.536 158.493L151.381 158.767ZM151.952 158.767L151.796 158.493L151.795 158.494L151.952 158.767ZM154.052 157.568L154.208 157.842L154.484 157.685L154.325 157.41L154.052 157.568ZM154.051 157.565L153.894 157.292L153.619 157.449L153.778 157.723L154.051 157.565ZM156.521 156.204L156.671 156.481L156.671 156.48L156.521 156.204ZM160.506 153.21L160.777 153.369L160.82 153.295V153.21H160.506ZM160.506 153.205L160.234 153.046L160.191 153.12V153.205H160.506ZM161.135 148.303L160.82 148.31L160.82 148.31L161.135 148.303ZM161.135 142.699L160.82 142.692L160.82 142.692L161.135 142.699ZM160.506 137.792L160.777 137.633L160.686 137.477H160.506V137.792ZM160.503 137.792L160.231 137.951L160.322 138.107H160.503V137.792ZM156.519 134.797L156.669 134.52L156.668 134.52L156.519 134.797ZM154.051 133.436L153.805 133.238L153.574 133.526L153.895 133.709L154.051 133.436ZM154.052 133.433L154.298 133.631L154.529 133.343L154.208 133.16L154.052 133.433ZM150.519 131.417L150.363 131.144L149.884 131.417L150.363 131.691L150.519 131.417ZM154.052 129.401L154.208 129.674L154.73 129.376L154.188 129.117L154.052 129.401ZM154.051 129.4L153.894 129.127L153.374 129.425L153.915 129.684L154.051 129.4ZM156.521 128.037L156.671 128.313L156.671 128.313L156.521 128.037ZM160.506 125.044L160.777 125.202L160.82 125.129V125.044H160.506ZM160.506 125.037L160.234 124.878L160.191 124.952V125.037H160.506ZM161.135 120.135L160.82 120.141L160.82 120.142L161.135 120.135ZM161.114 112.969L161.27 112.696L160.798 112.426L160.799 112.97L161.114 112.969ZM164.778 115.062L165.023 115.259L165.255 114.971L164.934 114.788L164.778 115.062ZM164.776 115.064L164.531 114.867L164.3 115.154L164.62 115.337L164.776 115.064ZM182.554 125.208H182.869V125.026L182.71 124.935L182.554 125.208ZM182.554 131.568H182.239V131.883H182.554V131.568ZM186 131.568V131.883H186.315V131.568H186ZM186 123.251H186.315V123.068L186.156 122.977L186 123.251ZM157.721 123.127L157.72 123.124L157.196 123.474L157.198 123.476L157.721 123.127ZM157.186 123.14C157.159 123.186 157.1 123.255 156.982 123.352C156.866 123.446 156.708 123.555 156.498 123.685C156.077 123.945 155.482 124.268 154.674 124.708L154.975 125.261C155.776 124.825 156.389 124.492 156.829 124.22C157.049 124.084 157.233 123.959 157.38 123.84C157.525 123.722 157.648 123.597 157.73 123.458L157.186 123.14ZM154.675 124.707C154.056 125.042 153.329 125.437 152.135 126.116L152.447 126.664C153.635 125.987 154.358 125.594 154.974 125.261L154.675 124.707ZM152.291 126.075H152.286V126.705H152.291V126.075ZM152.13 126.117L146.843 129.134L147.155 129.681L152.442 126.663L152.13 126.117ZM146.999 129.093H146.999V129.722H146.999V129.093ZM147.155 129.134L141.868 126.117L141.556 126.663L146.843 129.681L147.155 129.134ZM141.712 126.075H141.706V126.705H141.712V126.075ZM141.862 126.117C140.689 125.448 139.946 125.043 139.328 124.708L139.028 125.262C139.644 125.595 140.383 125.998 141.55 126.663L141.862 126.117ZM139.328 124.708C138.517 124.268 137.919 123.944 137.497 123.684C137.287 123.555 137.128 123.447 137.013 123.353C136.895 123.258 136.838 123.19 136.813 123.148L136.269 123.464C136.349 123.603 136.473 123.726 136.617 123.843C136.763 123.961 136.947 124.085 137.168 124.221C137.608 124.491 138.223 124.825 139.028 125.261L139.328 124.708ZM136.856 123.306V123.299H136.226V123.306H136.856ZM136.813 123.14C136.786 123.094 136.754 123.009 136.729 122.861C136.704 122.715 136.688 122.525 136.679 122.281C136.662 121.792 136.676 121.122 136.696 120.212L136.067 120.198C136.047 121.101 136.032 121.792 136.05 122.304C136.059 122.56 136.077 122.781 136.109 122.967C136.14 123.15 136.188 123.318 136.269 123.457L136.813 123.14ZM136.696 120.211C136.708 119.657 136.722 114.162 136.73 111.609L136.1 111.607C136.092 114.167 136.078 119.651 136.067 120.198L136.696 120.211ZM136.73 111.609C136.731 111.306 136.878 111.054 137.146 110.901L136.833 110.355C136.371 110.619 136.103 111.077 136.1 111.606L136.73 111.609ZM137.145 110.901L147.155 105.19L146.843 104.643L136.833 110.355L137.145 110.901ZM146.843 105.19L156.853 110.901L157.165 110.355L147.155 104.644L146.843 105.19ZM156.853 110.901C157.121 111.054 157.267 111.307 157.27 111.61L157.899 111.605C157.895 111.077 157.627 110.619 157.165 110.355L156.853 110.901ZM157.27 111.608C157.276 114.171 157.291 119.656 157.302 120.209L157.932 120.196C157.92 119.65 157.906 114.176 157.899 111.607L157.27 111.608ZM157.302 120.209C157.322 121.118 157.336 121.788 157.319 122.279C157.311 122.523 157.295 122.714 157.27 122.861C157.245 123.011 157.214 123.097 157.186 123.145L157.733 123.458C157.813 123.318 157.86 123.149 157.891 122.965C157.922 122.779 157.939 122.557 157.948 122.3C157.966 121.788 157.951 121.097 157.932 120.196L157.302 120.209ZM151.044 136.097L152.263 136.788L152.574 136.24L151.355 135.549L151.044 136.097ZM152.104 136.514V136.515H152.733V136.514H152.104ZM152.262 136.789C153.362 137.416 154.074 137.804 154.671 138.127L154.97 137.573C154.377 137.252 153.669 136.866 152.574 136.242L152.262 136.789ZM154.67 138.126C155.482 138.567 156.08 138.891 156.502 139.15C156.712 139.28 156.871 139.388 156.986 139.481C157.105 139.577 157.162 139.644 157.187 139.687L157.73 139.369C157.65 139.232 157.526 139.108 157.382 138.992C157.236 138.874 157.052 138.749 156.831 138.614C156.391 138.344 155.776 138.01 154.97 137.573L154.67 138.126ZM157.144 139.528V139.536H157.773V139.528H157.144ZM157.187 139.695C157.214 139.741 157.245 139.825 157.27 139.973C157.295 140.119 157.311 140.308 157.32 140.553C157.337 141.042 157.323 141.713 157.303 142.624L157.932 142.638C157.952 141.734 157.967 141.042 157.949 140.531C157.94 140.274 157.922 140.053 157.891 139.868C157.86 139.685 157.812 139.516 157.73 139.376L157.187 139.695ZM157.303 142.624L157.293 143.065L157.923 143.079L157.932 142.638L157.303 142.624ZM157.293 143.067C157.29 143.271 157.12 143.442 156.905 143.442V144.071C157.458 144.071 157.913 143.631 157.923 143.078L157.293 143.067ZM156.905 143.442H137.095V144.071H156.905V143.442ZM137.095 143.442C136.881 143.442 136.709 143.271 136.706 143.067L136.076 143.078C136.087 143.631 136.543 144.071 137.095 144.071V143.442ZM136.706 143.066L136.697 142.625L136.067 142.637L136.076 143.079L136.706 143.066ZM136.697 142.623C136.697 142.623 136.697 142.623 136.697 142.622C136.697 142.622 136.697 142.621 136.697 142.62C136.697 142.618 136.696 142.615 136.696 142.611C136.696 142.603 136.696 142.593 136.696 142.58C136.695 142.554 136.695 142.517 136.694 142.471C136.693 142.378 136.692 142.25 136.69 142.098C136.688 141.794 136.688 141.396 136.694 141.006C136.701 140.614 136.714 140.237 136.738 139.971C136.751 139.834 136.764 139.745 136.776 139.701C136.785 139.669 136.782 139.699 136.75 139.739C136.732 139.762 136.68 139.819 136.585 139.838C136.48 139.86 136.397 139.82 136.353 139.788L136.73 139.283C136.673 139.241 136.577 139.197 136.459 139.222C136.352 139.244 136.287 139.31 136.258 139.347C136.203 139.416 136.179 139.498 136.168 139.538C136.141 139.638 136.124 139.773 136.111 139.914C136.085 140.204 136.071 140.601 136.065 140.996C136.052 141.788 136.067 142.607 136.067 142.639L136.697 142.623ZM136.813 139.695C136.84 139.648 136.899 139.579 137.017 139.483C137.133 139.388 137.292 139.279 137.502 139.15C137.923 138.89 138.517 138.567 139.326 138.128L139.025 137.574C138.224 138.01 137.61 138.343 137.171 138.614C136.951 138.75 136.766 138.875 136.62 138.995C136.475 139.113 136.352 139.237 136.27 139.376L136.813 139.695ZM139.325 138.128C139.942 137.794 140.67 137.399 141.863 136.718L141.551 136.172C140.364 136.849 139.64 137.241 139.025 137.574L139.325 138.128ZM141.707 136.76H141.713V136.13H141.707V136.76ZM141.869 136.718L145.125 134.86L144.813 134.313L141.557 136.171L141.869 136.718ZM145.128 134.859C145.405 134.698 145.571 134.417 145.571 134.093H144.942C144.942 134.187 144.899 134.264 144.811 134.315L145.128 134.859ZM145.571 134.092C145.57 133.77 145.402 133.488 145.123 133.329L144.811 133.876C144.898 133.925 144.941 134.002 144.942 134.095L145.571 134.092ZM145.122 133.328L142.741 131.98L142.431 132.527L144.812 133.876L145.122 133.328ZM142.741 131.979C142.463 131.823 142.136 131.822 141.858 131.982L142.17 132.528C142.255 132.48 142.345 132.479 142.432 132.528L142.741 131.979ZM141.858 131.981L139.792 133.16L140.104 133.707L142.17 132.528L141.858 131.981ZM139.703 133.631L139.705 133.633L140.195 133.238L140.194 133.236L139.703 133.631ZM139.794 133.162C139.032 133.598 138.108 134.1 137.329 134.522L137.629 135.076C138.407 134.654 139.337 134.148 140.106 133.709L139.794 133.162ZM137.329 134.522C135.17 135.693 133.984 136.329 133.222 137.633L133.766 137.951C134.421 136.83 135.422 136.273 137.629 135.076L137.329 134.522ZM133.179 137.792V137.799H133.809V137.792H133.179ZM133.222 137.641C132.463 138.942 132.499 140.275 132.55 142.706L133.18 142.692C133.127 140.206 133.114 139.075 133.766 137.958L133.222 137.641ZM132.55 142.706C132.563 143.33 132.58 144.065 132.58 145.502H133.21C133.21 144.058 133.193 143.318 133.18 142.693L132.55 142.706ZM132.58 145.502C132.58 146.937 132.563 147.673 132.55 148.297L133.18 148.31C133.193 147.685 133.21 146.944 133.21 145.502H132.58ZM132.55 148.297C132.499 150.732 132.462 152.067 133.222 153.369L133.766 153.051C133.113 151.934 133.127 150.802 133.18 148.31L132.55 148.297ZM133.494 153.525H133.496V152.895H133.494V153.525ZM133.225 153.369C133.994 154.679 135.178 155.313 137.332 156.482L137.632 155.929C135.43 154.733 134.43 154.178 133.768 153.051L133.225 153.369ZM137.332 156.483C138.108 156.902 139.014 157.395 139.795 157.839L140.106 157.292C139.319 156.844 138.408 156.348 137.631 155.929L137.332 156.483ZM139.678 157.407L139.676 157.41L140.221 157.727L140.222 157.724L139.678 157.407ZM139.792 157.842L143.324 159.859L143.636 159.312L140.105 157.295L139.792 157.842ZM143.324 159.312L139.792 161.329L140.105 161.875L143.636 159.859L143.324 159.312ZM139.948 161.917H139.95V161.287H139.948V161.917ZM139.794 161.329C139.032 161.766 138.108 162.267 137.329 162.691L137.63 163.244C138.406 162.821 139.337 162.316 140.107 161.875L139.794 161.329ZM137.329 162.69C135.171 163.859 133.984 164.494 133.222 165.8L133.766 166.118C134.421 164.995 135.421 164.439 137.629 163.244L137.329 162.69ZM133.179 165.959V165.966H133.809V165.959H133.179ZM133.222 165.807C132.463 167.11 132.499 168.443 132.55 170.874L133.18 170.861C133.127 168.374 133.114 167.243 133.766 166.124L133.222 165.807ZM132.55 170.874C132.558 171.219 132.566 175.186 132.572 178.035L133.202 178.033C133.196 175.192 133.187 171.214 133.18 170.861L132.55 170.874ZM133.043 177.761L129.377 175.667L129.065 176.214L132.731 178.307L133.043 177.761ZM129.393 176.204L129.395 176.203L129.052 175.675L129.049 175.677L129.393 176.204ZM129.38 175.666L111.603 165.519L111.29 166.066L129.068 176.212L129.38 175.666ZM111.761 165.793V145.502H111.132V165.793H111.761ZM111.761 145.502V125.208H111.132V145.502H111.761ZM111.603 125.482L129.38 115.337L129.068 114.79L111.291 124.935L111.603 125.482ZM129.423 114.82L129.42 114.818L129.021 115.305L129.024 115.307L129.423 114.82ZM129.377 115.335L133.043 113.242L132.731 112.695L129.065 114.788L129.377 115.335ZM132.572 112.968C132.566 115.777 132.558 119.779 132.55 120.13L133.18 120.143C133.187 119.784 133.196 115.772 133.202 112.969L132.572 112.968ZM132.55 120.13C132.499 122.566 132.462 123.899 133.222 125.202L133.766 124.885C133.113 123.767 133.127 122.636 133.18 120.143L132.55 120.13ZM133.594 125.342L133.597 125.341L133.396 124.744L133.393 124.745L133.594 125.342ZM133.225 125.202C133.994 126.512 135.178 127.146 137.332 128.315L137.632 127.762C135.429 126.566 134.43 126.012 133.768 124.883L133.225 125.202ZM137.332 128.315C138.108 128.735 139.014 129.228 139.794 129.673L140.106 129.126C139.319 128.678 138.408 128.182 137.632 127.761L137.332 128.315ZM139.815 129.116L139.813 129.117L140.084 129.685L140.086 129.684L139.815 129.116ZM139.792 129.674C143.549 131.819 147.289 133.954 151.044 136.097L151.356 135.55C147.601 133.407 143.861 131.273 140.105 129.127L139.792 129.674ZM152.286 164.927H152.291V164.298H152.286V164.927ZM152.135 164.886C153.308 165.555 154.052 165.96 154.67 166.294L154.969 165.74C154.355 165.408 153.615 165.005 152.447 164.339L152.135 164.886ZM154.669 166.294C155.482 166.734 156.079 167.059 156.501 167.318C156.712 167.447 156.87 167.555 156.986 167.649C157.104 167.744 157.161 167.812 157.186 167.855L157.73 167.537C157.649 167.399 157.525 167.276 157.382 167.159C157.236 167.041 157.051 166.917 156.831 166.782C156.391 166.511 155.775 166.177 154.97 165.74L154.669 166.294ZM157.143 167.696V167.702H157.773V167.696H157.143ZM157.186 167.861C157.213 167.907 157.244 167.992 157.27 168.14C157.294 168.286 157.31 168.476 157.319 168.72C157.336 169.209 157.322 169.88 157.302 170.79L157.932 170.804C157.951 169.901 157.966 169.21 157.948 168.698C157.939 168.441 157.922 168.221 157.89 168.035C157.859 167.852 157.811 167.683 157.73 167.543L157.186 167.861ZM157.302 170.79C157.291 171.337 157.276 176.749 157.27 179.393L157.899 179.395C157.906 176.744 157.92 171.343 157.932 170.804L157.302 170.79ZM157.27 179.392C157.267 179.695 157.12 179.949 156.855 180.1L157.167 180.647C157.628 180.384 157.895 179.923 157.899 179.397L157.27 179.392ZM156.855 180.1L146.843 185.812L147.155 186.359L157.167 180.646L156.855 180.1ZM147.155 185.812L137.145 180.1L136.833 180.646L146.843 186.359L147.155 185.812ZM137.145 180.099C136.878 179.948 136.73 179.695 136.729 179.393L136.099 179.396C136.102 179.924 136.371 180.385 136.834 180.647L137.145 180.099ZM136.729 179.393C136.721 176.749 136.708 171.339 136.696 170.794L136.067 170.807C136.078 171.344 136.092 176.744 136.099 179.395L136.729 179.393ZM136.696 170.793C136.676 169.885 136.662 169.214 136.679 168.724C136.688 168.479 136.704 168.289 136.728 168.141C136.754 167.991 136.785 167.905 136.812 167.857L136.265 167.545C136.186 167.685 136.138 167.853 136.108 168.037C136.076 168.223 136.059 168.445 136.05 168.702C136.032 169.215 136.047 169.906 136.067 170.807L136.696 170.793ZM136.375 167.97L136.377 167.971L136.705 167.433L136.702 167.432L136.375 167.97ZM136.812 167.862C136.84 167.815 136.898 167.746 137.017 167.65C137.133 167.555 137.291 167.446 137.501 167.317C137.922 167.057 138.517 166.733 139.325 166.294L139.025 165.741C138.223 166.176 137.61 166.51 137.17 166.781C136.95 166.917 136.766 167.042 136.619 167.162C136.475 167.279 136.351 167.404 136.27 167.543L136.812 167.862ZM139.325 166.294C139.941 165.96 140.669 165.565 141.862 164.886L141.551 164.339C140.363 165.015 139.64 165.408 139.025 165.74L139.325 166.294ZM141.706 164.927H141.712V164.298H141.706V164.927ZM141.868 164.886L147.155 161.868L146.843 161.321L141.556 164.339L141.868 164.886ZM146.843 161.868L152.13 164.886L152.442 164.339L147.155 161.321L146.843 161.868ZM185.294 122.486L166.657 111.85L166.345 112.397L184.982 123.033L185.294 122.486ZM166.501 111.809H166.493V112.438H166.501V111.809ZM166.649 111.85L148.011 101.215L147.699 101.762L166.337 112.397L166.649 111.85ZM148.011 101.215L147.157 100.727L146.844 101.273L147.698 101.762L148.011 101.215ZM146.844 100.727L145.988 101.215L146.301 101.762L147.156 101.273L146.844 100.727ZM145.989 101.215L127.351 111.85L127.663 112.397L146.301 101.762L145.989 101.215ZM127.507 111.809H127.5V112.438H127.507V111.809ZM127.344 111.85L108.706 122.486L109.018 123.033L127.656 112.397L127.344 111.85ZM108.706 122.486L107.844 122.977L108.156 123.524L109.017 123.033L108.706 122.486ZM107.685 123.251V124.23H108.315V123.251H107.685ZM107.685 124.23V145.502H108.315V124.23H107.685ZM107.685 145.502V166.773H108.315V145.502H107.685ZM107.685 166.773V167.75H108.315V166.773H107.685ZM107.844 168.023L108.705 168.516L109.018 167.97L108.156 167.477L107.844 168.023ZM108.706 168.517L127.344 179.152L127.656 178.605L109.018 167.97L108.706 168.517ZM127.5 179.193H127.507V178.564H127.5V179.193ZM127.351 179.152L145.989 189.786L146.301 189.24L127.663 178.605L127.351 179.152ZM145.989 189.787L146.845 190.274L147.156 189.726L146.3 189.239L145.989 189.787ZM147.156 190.273L148.01 189.787L147.699 189.24L146.844 189.727L147.156 190.273ZM148.011 189.786L166.649 179.152L166.337 178.605L147.699 189.24L148.011 189.786ZM166.493 179.193H166.501V178.564H166.493V179.193ZM166.657 179.152L185.294 168.517L184.982 167.97L166.345 178.605L166.657 179.152ZM185.294 168.517L186.156 168.023L185.844 167.477L184.981 167.97L185.294 168.517ZM186.315 167.75V166.773H185.685V167.75H186.315ZM186.315 166.773V147.368H185.685V166.773H186.315ZM186.315 147.368V143.75H185.685V147.368H186.315ZM186 143.435H165.692V144.064H186V143.435ZM165.378 143.75V147.228H166.007V143.75H165.378ZM165.69 147.543L182.552 147.683L182.557 147.053L165.695 146.913L165.69 147.543ZM182.239 147.368V165.793H182.869V147.368H182.239ZM182.398 165.519L164.62 175.666L164.932 176.212L182.71 166.066L182.398 165.519ZM164.555 176.163L164.557 176.164L165 175.717L164.998 175.715L164.555 176.163ZM164.622 175.667L160.958 177.761L161.27 178.307L164.934 176.214L164.622 175.667ZM161.429 178.034C161.433 175.187 161.443 171.216 161.449 170.87L160.82 170.858C160.813 171.211 160.804 175.191 160.799 178.033L161.429 178.034ZM161.449 170.871C161.501 168.436 161.538 167.102 160.777 165.8L160.234 166.118C160.887 167.235 160.872 168.366 160.82 170.858L161.449 170.871ZM160.506 165.644H160.503V166.274H160.506V165.644ZM160.774 165.8C160.006 164.49 158.823 163.856 156.669 162.687L156.369 163.24C158.571 164.436 159.57 164.991 160.231 166.118L160.774 165.8ZM156.664 162.684L156.599 162.65L156.309 163.209L156.374 163.243L156.664 162.684ZM156.168 162.799L156.161 162.813L156.734 163.076L156.74 163.061L156.168 162.799ZM156.602 162.671L155.799 162.215L155.488 162.763L156.292 163.218L156.602 162.671ZM155.864 162.265L155.863 162.264L155.421 162.712L155.423 162.714L155.864 162.265ZM155.79 162.21L155.751 162.19L155.455 162.745L155.494 162.766L155.79 162.21ZM155.755 162.191C155.23 161.903 154.694 161.606 154.206 161.329L153.895 161.876C154.386 162.156 154.926 162.454 155.452 162.743L155.755 162.191ZM154.051 161.917H154.052V161.287H154.051V161.917ZM154.208 161.329L151.317 159.677L151.005 160.224L153.896 161.875L154.208 161.329ZM151.316 159.677L142.263 154.551L141.953 155.099L151.006 160.225L151.316 159.677ZM142.376 154.99L142.395 154.96L141.859 154.629L141.84 154.659L142.376 154.99ZM142.283 154.521L141.869 154.284L141.556 154.83L141.97 155.067L142.283 154.521ZM141.713 154.242H141.707V154.872H141.713V154.242ZM141.863 154.283C140.69 153.616 139.947 153.211 139.329 152.875L139.029 153.429C139.645 153.763 140.384 154.165 141.551 154.83L141.863 154.283ZM139.33 152.876C139.192 152.801 138.543 152.462 137.921 152.1C137.61 151.919 137.315 151.737 137.1 151.584C136.991 151.506 136.912 151.443 136.864 151.396C136.852 151.384 136.844 151.375 136.838 151.369C136.832 151.362 136.83 151.358 136.83 151.359C136.83 151.359 136.836 151.367 136.842 151.382C136.847 151.397 136.857 151.426 136.857 151.465H136.227C136.227 151.578 136.277 151.664 136.307 151.709C136.341 151.76 136.384 151.807 136.425 151.847C136.507 151.927 136.616 152.012 136.735 152.096C136.973 152.266 137.288 152.46 137.604 152.644C138.236 153.012 138.905 153.361 139.028 153.428L139.33 152.876ZM136.813 151.306C136.787 151.26 136.755 151.177 136.73 151.028C136.705 150.882 136.689 150.693 136.68 150.449C136.663 149.959 136.677 149.289 136.697 148.378L136.067 148.364C136.048 149.267 136.033 149.959 136.051 150.471C136.06 150.728 136.078 150.948 136.109 151.134C136.141 151.317 136.189 151.485 136.27 151.625L136.813 151.306ZM136.697 148.377L136.706 147.935L136.076 147.922L136.067 148.364L136.697 148.377ZM136.706 147.934C136.71 147.732 136.88 147.561 137.095 147.561V146.931C136.544 146.931 136.087 147.37 136.076 147.923L136.706 147.934ZM137.095 147.561H156.905V146.931H137.095V147.561ZM156.905 147.561C157.12 147.561 157.29 147.731 157.293 147.934L157.923 147.923C157.913 147.37 157.457 146.931 156.905 146.931V147.561ZM157.293 147.935L157.303 148.378L157.933 148.364L157.923 147.921L157.293 147.935ZM157.303 148.378C157.323 149.286 157.337 149.955 157.32 150.445C157.312 150.69 157.296 150.88 157.271 151.027C157.246 151.177 157.215 151.264 157.187 151.313L157.734 151.624C157.814 151.484 157.861 151.315 157.892 151.131C157.923 150.945 157.94 150.724 157.949 150.467C157.967 149.955 157.952 149.264 157.933 148.364L157.303 148.378ZM157.734 151.313L157.732 151.309L157.185 151.621L157.187 151.624L157.734 151.313ZM157.187 151.307C157.16 151.353 157.101 151.422 156.983 151.518C156.867 151.613 156.709 151.722 156.499 151.851C156.078 152.111 155.483 152.435 154.675 152.874L154.976 153.427C155.777 152.992 156.39 152.658 156.829 152.387C157.05 152.251 157.234 152.126 157.381 152.006C157.526 151.889 157.649 151.764 157.731 151.624L157.187 151.307ZM154.675 152.874C154.057 153.209 153.33 153.603 152.136 154.283L152.448 154.83C153.636 154.153 154.359 153.762 154.975 153.428L154.675 152.874ZM152.292 154.242H152.287V154.872H152.292V154.242ZM152.131 154.284L148.841 156.163L149.153 156.71L152.443 154.83L152.131 154.284ZM148.842 156.163C148.56 156.322 148.396 156.606 148.396 156.928H149.025C149.025 156.833 149.068 156.758 149.152 156.71L148.842 156.163ZM148.396 156.928C148.396 157.252 148.566 157.534 148.843 157.693L149.155 157.146C149.069 157.097 149.025 157.02 149.025 156.928H148.396ZM148.844 157.693L151.226 159.041L151.536 158.493L149.154 157.145L148.844 157.693ZM151.225 159.04C151.503 159.2 151.83 159.2 152.109 159.04L151.795 158.494C151.711 158.542 151.623 158.542 151.538 158.494L151.225 159.04ZM152.108 159.04L154.208 157.842L153.896 157.295L151.796 158.493L152.108 159.04ZM154.325 157.41L154.323 157.407L153.778 157.723L153.78 157.726L154.325 157.41ZM154.207 157.839C154.966 157.405 155.892 156.902 156.671 156.481L156.371 155.927C155.593 156.348 154.661 156.854 153.894 157.292L154.207 157.839ZM156.671 156.48C158.829 155.308 160.016 154.673 160.777 153.369L160.234 153.051C159.579 154.172 158.578 154.728 156.37 155.927L156.671 156.48ZM160.82 153.21V153.205H160.191V153.21H160.82ZM160.778 153.364C161.538 152.06 161.501 150.726 161.449 148.297L160.82 148.31C160.872 150.795 160.887 151.928 160.234 153.046L160.778 153.364ZM161.449 148.297C161.437 147.67 161.42 146.937 161.42 145.502H160.791C160.791 146.943 160.807 147.681 160.82 148.31L161.449 148.297ZM161.42 145.502C161.42 144.064 161.437 143.328 161.449 142.705L160.82 142.692C160.807 143.318 160.791 144.058 160.791 145.502H161.42ZM161.449 142.705C161.501 140.269 161.538 138.935 160.777 137.633L160.234 137.951C160.887 139.068 160.872 140.199 160.82 142.692L161.449 142.705ZM160.506 137.477H160.503V138.107H160.506V137.477ZM160.774 137.633C160.006 136.323 158.823 135.689 156.669 134.52L156.369 135.073C158.571 136.268 159.57 136.823 160.231 137.951L160.774 137.633ZM156.668 134.52C155.891 134.1 154.986 133.607 154.207 133.162L153.895 133.709C154.681 134.158 155.591 134.654 156.369 135.074L156.668 134.52ZM154.296 133.633L154.298 133.631L153.807 133.236L153.805 133.238L154.296 133.633ZM154.208 133.16L150.675 131.144L150.363 131.691L153.896 133.707L154.208 133.16ZM150.675 131.691L154.208 129.674L153.896 129.127L150.363 131.144L150.675 131.691ZM154.188 129.117L154.186 129.116L153.915 129.684L153.916 129.685L154.188 129.117ZM154.207 129.673C154.966 129.237 155.892 128.736 156.671 128.313L156.371 127.76C155.594 128.181 154.661 128.686 153.894 129.127L154.207 129.673ZM156.671 128.313C158.829 127.142 160.016 126.506 160.777 125.202L160.234 124.885C159.579 126.006 158.578 126.562 156.371 127.76L156.671 128.313ZM160.82 125.044V125.037H160.191V125.044H160.82ZM160.778 125.196C161.538 123.892 161.501 122.558 161.449 120.129L160.82 120.142C160.872 122.628 160.887 123.76 160.234 124.878L160.778 125.196ZM161.449 120.129C161.443 119.779 161.433 115.779 161.429 112.969L160.799 112.97C160.804 115.774 160.813 119.784 160.82 120.141L161.449 120.129ZM160.958 113.243L164.622 115.335L164.934 114.788L161.27 112.696L160.958 113.243ZM164.533 114.864L164.531 114.867L165.022 115.261L165.023 115.259L164.533 114.864ZM164.62 115.337L182.398 125.482L182.71 124.935L164.932 114.79L164.62 115.337ZM182.239 125.208V131.568H182.869V125.208H182.239ZM182.554 131.883H186V131.254H182.554V131.883ZM186.315 131.568V124.23H185.685V131.568H186.315ZM186.315 124.23V123.251H185.685V124.23H186.315ZM186.156 122.977L185.293 122.486L184.982 123.033L185.844 123.524L186.156 122.977Z"
                fill="#00FFC8" />
        </g>
    </g>
    <g opacity="0.4" filter="url(#filter1_d_2415_45997)">
        <circle cx="146" cy="146" r="94.0588" stroke="#00FFC8" stroke-width="0.5"
            stroke-dasharray="5 2" />
    </g>
    <g opacity="0.2">
        <g filter="url(#filter2_d_2415_45997)">
            <circle cx="146.001" cy="146" r="111.962" stroke="#00FFC8" stroke-width="1.08974" />
        </g>
        <g opacity="0.4" filter="url(#filter3_d_2415_45997)">
            <path
                d="M243.471 146C243.471 199.832 199.831 243.472 145.999 243.472M48.5273 146C48.5273 92.1679 92.1669 48.5283 145.999 48.5283"
                stroke="#00FFC8" stroke-width="1.08974" />
        </g>
        <g opacity="0.5" filter="url(#filter4_d_2415_45997)">
            <circle cx="146" cy="146" r="123" stroke="#00FFC8" stroke-width="1.08974"
                stroke-dasharray="2.18 2.18" />
        </g>
    </g>
</svg>
