<svg width="24" height="26" viewBox="0 0 24 26" fill="none" xmlns="http://www.w3.org/2000/svg">
<path d="M11.9999 12.228C9.12469 12.228 6.77259 9.87704 6.77259 7.00069H5.27259C5.27259 10.7057 8.29648 13.728 11.9999 13.728V12.228ZM6.77259 7.00069C6.77259 4.11697 9.13203 1.72803 11.9999 1.72803V0.228027C8.28914 0.228027 5.27259 3.30308 5.27259 7.00069H6.77259ZM11.9999 1.72803C14.8751 1.72803 17.2273 4.07902 17.2273 6.95536H18.7273C18.7273 3.25037 15.7034 0.228027 11.9999 0.228027V1.72803ZM17.2273 6.95536C17.2273 9.83908 14.8678 12.228 11.9999 12.228V13.728C15.7107 13.728 18.7273 10.653 18.7273 6.95536H17.2273ZM21.3333 24.228H2.66659V25.728H21.3333V24.228ZM2.66659 24.228C2.34747 24.228 2.08325 23.9638 2.08325 23.6447H0.583252C0.583252 24.7922 1.51904 25.728 2.66659 25.728V24.228ZM2.08325 23.6447V22.3114H0.583252V23.6447H2.08325ZM2.08325 22.3114C2.08325 19.7922 4.14747 17.728 6.66659 17.728V16.228C3.31904 16.228 0.583252 18.9638 0.583252 22.3114H2.08325ZM6.66659 17.728H17.3333V16.228H6.66659V17.728ZM17.3333 17.728C19.8524 17.728 21.9166 19.7922 21.9166 22.3114H23.4166C23.4166 18.9638 20.6808 16.228 17.3333 16.228V17.728ZM21.9166 22.3114V23.6447H23.4166V22.3114H21.9166ZM21.9166 23.6447C21.9166 23.9638 21.6524 24.228 21.3333 24.228V25.728C22.4808 25.728 23.4166 24.7922 23.4166 23.6447H21.9166Z" fill="#D6D6E7"/>
</svg>
