<svg width="25" height="24" viewBox="0 0 25 24" fill="none" xmlns="http://www.w3.org/2000/svg">
    <path fill-rule="evenodd" clip-rule="evenodd"
        d="M12.4532 12.9087H12.5983C10.7113 12.3317 9.33222 10.5288 9.33222 8.4375C9.33222 5.84135 11.4371 3.75 14.05 3.75C16.6629 3.75 18.7677 5.84135 18.7677 8.4375C18.7677 10.5288 17.3887 12.3317 15.429 12.9087H15.5742C19.058 12.9087 21.8887 15.7212 21.8887 19.1827V22.5H6.13867V19.1827C6.13867 15.7212 8.96932 12.9087 12.4532 12.9087Z"
        fill="#00FFC8" />
    <path
        d="M11.3421 12.2404L11.4936 11.2639C9.53376 10.6407 8.07353 8.67751 8.07353 6.375C8.07353 3.52018 10.2937 1.25 13.0171 1.25C15.7405 1.25 17.9606 3.52018 17.9606 6.375C17.9606 8.6739 16.5044 10.6369 14.4619 11.2623L14.6083 12.2404H14.7758C18.5041 12.2404 21.5617 15.3759 21.5617 19.2692V22.75H4.38867V19.2692C4.38867 15.3759 7.44627 12.2404 11.1747 12.2404H11.3421Z"
        stroke="#00FFC8" stroke-opacity="0.2" />
</svg>
