<svg width="36" height="36" viewBox="0 0 36 36" fill="none" xmlns="http://www.w3.org/2000/svg">
<path d="M7.16834 9.60234C7.85867 8.71375 8.66055 7.909 9.55344 7.20819L9.99656 6.85984L6.89181 4.64746L6.64113 4.86424C5.67953 5.6977 4.81038 6.63555 4.0566 7.65309L3.77752 8.02955L6.94081 9.89561L7.16834 9.60234ZM5.01999 7.78206C5.60047 7.04421 6.24563 6.35358 6.94577 5.72207L8.59682 6.89926C7.91867 7.47453 7.2941 8.10924 6.73336 8.79403L5.01999 7.78206Z" stroke="#00FFC8" stroke-width="0.25"/>
<path d="M5.17557 13.1633C5.46741 12.3869 5.83778 11.6264 6.27627 10.9034L6.49797 10.5382L3.34514 8.67676L3.12923 9.03496C2.53947 10.0125 2.04389 11.0538 1.65787 12.1301L1.5037 12.5602L5.04143 13.5235L5.17557 13.1633ZM2.61159 11.9867C2.90199 11.2448 3.2457 10.5226 3.6404 9.83139L5.33782 10.8347C5.03063 11.3775 4.75792 11.9383 4.52551 12.5086L2.61159 11.9867Z" stroke="#00FFC8" stroke-width="0.25"/>
<path d="M4.31347 18.4416C4.30448 18.195 4.30361 17.9478 4.30883 17.7023L4.31926 17.2549L0.648806 17.3856L0.645328 17.789C0.64301 18.0513 0.643879 18.3127 0.653732 18.5753L0.669672 18.9964L4.32937 18.8645L4.31347 18.4416Z" stroke="#00FFC8" stroke-width="0.25"/>
<path d="M4.43069 16.1234C4.49532 15.6456 4.58921 15.1541 4.71035 14.6631L4.80802 14.2628L1.27637 13.3027L1.17174 13.7192C0.970037 14.5133 0.826003 15.3221 0.741959 16.1246L0.690952 16.6074L4.38226 16.4756L4.43069 16.1234ZM3.64649 15.6569L1.63873 15.7287C1.7019 15.2662 1.78537 14.8033 1.88883 14.3434L3.79607 14.8628C3.73897 15.1294 3.68938 15.3944 3.64649 15.6569Z" stroke="#00FFC8" stroke-width="0.25"/>
<path d="M31.1507 21.4347C30.1462 25.2367 27.544 28.4255 24.0098 30.184L23.5264 30.4246L25.9764 33.2949L26.2775 33.1288C30.935 30.5643 34.213 25.9149 35.0476 20.6914L35.1531 20.0283L31.2108 21.2076L31.1507 21.4347ZM34.0931 21.2257C33.1605 25.8093 30.2444 29.863 26.1695 32.2208L24.863 30.6915C28.3016 28.8197 30.8435 25.6439 31.9045 21.8806L34.0931 21.2257Z" stroke="#00FFC8" stroke-width="0.25"/>
<path d="M17.0751 4.3408C17.2049 4.33036 17.335 4.32051 17.4663 4.31529C19.4518 4.244 21.3869 4.59844 23.2159 5.36643L24.225 5.79042L22.0526 1.13663L21.8518 1.09026C20.3708 0.747126 18.8499 0.600769 17.3339 0.655833C16.5593 0.682786 15.753 0.768856 14.938 0.912602L14.2689 1.03026L16.7184 4.36887L17.0751 4.3408ZM17.3643 1.4989C18.7392 1.44905 20.1164 1.57338 21.4622 1.86725L22.5585 4.21584C20.9104 3.65883 19.1918 3.40901 17.4355 3.47133C17.3292 3.47568 17.2251 3.48206 17.1208 3.48988L15.761 1.63629C16.3056 1.56326 16.8424 1.51744 17.3643 1.4989Z" stroke="#00FFC8" stroke-width="0.25"/>
<path d="M26.5048 7.33054C27.2328 7.91653 27.9052 8.58222 28.4961 9.29831L28.9337 9.82924L30.5618 6.09913L30.3636 5.89568C30.2372 5.76614 30.1094 5.63862 29.9793 5.51255C28.4697 4.05484 26.7317 2.89412 24.8129 2.06236L23.7918 1.62012L26.4291 7.26822L26.5048 7.33054ZM29.5594 6.28407L28.7024 8.24725C28.2109 7.70501 27.6771 7.1987 27.1108 6.73501L25.5232 3.33557C27.0062 4.105 28.3608 5.08485 29.5594 6.28407Z" stroke="#00FFC8" stroke-width="0.25"/>
<path d="M35.2549 17.335C35.1323 13.9034 34.0046 10.6181 31.9934 7.83634L31.5601 7.2373L29.8212 11.221L29.9215 11.4033C30.9547 13.2824 31.5175 15.3227 31.5928 17.4658C31.6119 17.9889 31.5992 18.5141 31.5525 19.0714L31.5018 19.6878L35.2574 18.5648L35.2627 18.2561C35.2682 17.9513 35.2671 17.644 35.2549 17.335ZM32.4322 18.5285C32.4481 18.1567 32.4495 17.7906 32.4374 17.4353C32.3585 15.2285 31.7943 13.1256 30.7603 11.1804L31.7343 8.94795C33.3807 11.4571 34.3038 14.3517 34.411 17.3657C34.4188 17.5558 34.4214 17.7453 34.4217 17.934L32.4322 18.5285Z" stroke="#00FFC8" stroke-width="0.25"/>
<path d="M10.9298 6.25771C12.0529 5.58129 13.2781 5.06916 14.5713 4.73768L15.1764 4.58263L12.851 1.41504L12.5597 1.51126C10.9272 2.05001 9.3953 2.81858 8.0077 3.79753L7.52169 4.14038L10.6922 6.40091L10.9298 6.25771ZM12.5351 2.41104L13.7651 4.08643C12.7012 4.40753 11.6848 4.8454 10.734 5.39375L8.99108 4.15045C10.0912 3.43375 11.2804 2.8504 12.5351 2.41104Z" stroke="#00FFC8" stroke-width="0.25"/>
<path d="M21.902 31.0216C20.781 31.3603 19.6174 31.5534 18.4431 31.5963C14.7124 31.729 11.1744 30.3692 8.47997 27.7661C7.88007 27.1871 7.3306 26.5501 6.84576 25.8737L6.71419 25.6885L2.53396 25.84L2.87594 26.4443C3.69872 27.902 4.72953 29.2331 5.93863 30.4014C9.3555 33.7014 13.8437 35.4252 18.5741 35.2554C20.4802 35.1885 22.3527 34.8065 24.1397 34.1214L24.697 33.9075L22.1661 30.9413L21.902 31.0216ZM18.5442 34.412C14.0438 34.5732 9.77483 32.9337 6.52451 29.7942C5.54296 28.8468 4.68509 27.7853 3.96811 26.6333L6.29356 26.549C6.77435 27.199 7.3122 27.8122 7.89356 28.3739C10.7543 31.1373 14.5116 32.5814 18.4732 32.44C19.6278 32.3985 20.7723 32.2188 21.8802 31.9073L23.2725 33.5389C21.7446 34.0612 20.1573 34.3552 18.5442 34.412Z" stroke="#00FFC8" stroke-width="0.25"/>
</svg>
