<svg width="25" height="24" viewBox="0 0 25 24" fill="none" xmlns="http://www.w3.org/2000/svg">
    <path
        d="M12.8934 16.9492C12.4703 16.9492 12.0567 17.0747 11.7049 17.3097C11.3532 17.5448 11.079 17.8789 10.9171 18.2698C10.7552 18.6606 10.7128 19.0908 10.7953 19.5057C10.8779 19.9207 11.0816 20.3019 11.3808 20.601C11.6799 20.9002 12.0611 21.1039 12.4761 21.1865C12.891 21.269 13.3212 21.2266 13.712 21.0647C14.1029 20.9028 14.437 20.6286 14.6721 20.2769C14.9071 19.9251 15.0326 19.5115 15.0326 19.0884C15.0326 18.521 14.8072 17.9769 14.406 17.5758C14.0049 17.1746 13.4608 16.9492 12.8934 16.9492Z"
        fill="#00FFC8" />
    <path
        d="M18.57 17.067C18.1707 17.0665 17.7802 17.1844 17.448 17.4058C17.1157 17.6272 16.8565 17.9421 16.7033 18.3108C16.55 18.6795 16.5095 19.0853 16.5869 19.477C16.6643 19.8687 16.8561 20.2287 17.138 20.5114C17.42 20.7941 17.7794 20.9868 18.1709 21.0652C18.5624 21.1436 18.9684 21.1042 19.3375 20.9518C19.7065 20.7995 20.0222 20.5412 20.2444 20.2095C20.4667 19.8778 20.5856 19.4877 20.5861 19.0884C20.5861 18.5532 20.3738 18.0399 19.9959 17.6609C19.6179 17.282 19.1052 17.0684 18.57 17.067Z"
        fill="#00FFC8" />
    <path
        d="M8.63861 5.76367L8.14898 4.25027C8.08249 4.0435 7.95211 3.86314 7.77661 3.73517C7.60112 3.60719 7.38954 3.53819 7.17234 3.53809H3.53809V5.59348H6.41826L9.88755 16.1061H20.7353L23.0002 8.68836L8.63861 5.76367Z"
        fill="#00FFC8" />
    <path
        d="M5.63911 3.10111L5.55034 2.82247L4.9718 1.00639L4.97153 1.00555C4.92446 0.856891 4.83261 0.728621 4.71065 0.638306C4.58889 0.548129 4.44309 0.50012 4.29422 0.5L5.63911 3.10111ZM5.63911 3.10111L5.92549 3.16034M5.63911 3.10111L5.92549 3.16034M5.92549 3.16034L22.3603 6.55936M5.92549 3.16034L22.3603 6.55936M22.3603 6.55936L19.9484 14.5816H7.86576L3.87872 2.31195L3.76646 1.96647H3.4032H0.5V0.5H4.29409L22.3603 6.55936ZM17.7609 16.7347C17.3898 16.7342 17.0262 16.8455 16.7161 17.0554C16.4059 17.2653 16.1628 17.5647 16.0187 17.9167C15.8745 18.2688 15.8363 18.6567 15.9092 19.0313C15.9821 19.4058 16.1624 19.7489 16.4264 20.0176C16.6902 20.2863 17.0256 20.4685 17.3898 20.5426C17.7539 20.6166 18.1315 20.5794 18.4752 20.4354C18.819 20.2913 19.1143 20.0463 19.3228 19.7303C19.5313 19.4143 19.6433 19.0417 19.6438 18.6598L17.7609 16.7347ZM17.7609 16.7347C18.2582 16.7362 18.7362 16.9378 19.0897 17.2978C19.4436 17.658 19.6437 18.1476 19.6438 18.6597L17.7609 16.7347ZM9.93067 16.9397C10.2639 16.7136 10.6549 16.5933 11.0542 16.5933C11.5895 16.5933 12.1044 16.8092 12.4852 17.196C12.8664 17.5831 13.0819 18.1097 13.0819 18.6604C13.0819 19.0709 12.9619 19.4716 12.7382 19.8117C12.5144 20.1518 12.1973 20.4156 11.8276 20.5711C11.4581 20.7266 11.0519 20.7671 10.6601 20.688C10.2683 20.6088 9.90725 20.4132 9.62316 20.1247C9.339 19.8361 9.14462 19.4675 9.0658 19.0651C8.98697 18.6626 9.0275 18.2455 9.18194 17.8668C9.33635 17.4883 9.59732 17.1659 9.93067 16.9397Z"
        stroke="#00FFC8" stroke-opacity="0.2" />
</svg>
