<svg width="188" height="180" viewBox="0 0 188 180" fill="none" xmlns="http://www.w3.org/2000/svg">
    <defs>
        <linearGradient id="paint0_linear_2797_54661" x1="70.5955" y1="165.693" x2="53.5021"
            y2="142.631" gradientUnits="userSpaceOnUse">
            <stop stop-color="#00FFC8" />
            <stop offset="1" stop-color="#00FFC8" stop-opacity="0" />
        </linearGradient>
        <linearGradient id="paint1_linear_2797_54661" x1="72.7022" y1="175.63" x2="39.8308"
            y2="130.537" gradientUnits="userSpaceOnUse">
            <stop stop-color="#00FFC8" />
            <stop offset="1" stop-color="#00FFC8" stop-opacity="0" />
        </linearGradient>
        <linearGradient id="paint2_linear_2797_54661" x1="92.2085" y1="185.344" x2="59.3365"
            y2="140.251" gradientUnits="userSpaceOnUse">
            <stop stop-color="#00FFC8" />
            <stop offset="1" stop-color="#00FFC8" stop-opacity="0" />
        </linearGradient>
        <linearGradient id="paint3_linear_2797_54661" x1="49.0017" y1="168.584" x2="38.3931"
            y2="153.773" gradientUnits="userSpaceOnUse">
            <stop stop-color="#00FFC8" />
            <stop offset="1" stop-color="#00FFC8" stop-opacity="0" />
        </linearGradient>
        <linearGradient id="paint4_linear_2797_54661" x1="49.7306" y1="169.273" x2="37.8739"
            y2="153.483" gradientUnits="userSpaceOnUse">
            <stop stop-color="#00FFC8" />
            <stop offset="1" stop-color="#00FFC8" stop-opacity="0" />
        </linearGradient>
        <linearGradient id="paint5_linear_2797_54661" x1="20.9041" y1="173.336" x2="10.2956"
            y2="158.525" gradientUnits="userSpaceOnUse">
            <stop stop-color="#00FFC8" />
            <stop offset="1" stop-color="#00FFC8" stop-opacity="0" />
        </linearGradient>
        <linearGradient id="paint6_linear_2797_54661" x1="21.631" y1="174.029" x2="9.77091"
            y2="158.239" gradientUnits="userSpaceOnUse">
            <stop stop-color="#00FFC8" />
            <stop offset="1" stop-color="#00FFC8" stop-opacity="0" />
        </linearGradient>
        <linearGradient id="paint7_linear_2797_54661" x1="40.408" y1="183.052" x2="29.7994"
            y2="168.241" gradientUnits="userSpaceOnUse">
            <stop stop-color="#00FFC8" />
            <stop offset="1" stop-color="#00FFC8" stop-opacity="0" />
        </linearGradient>
        <linearGradient id="paint8_linear_2797_54661" x1="41.1368" y1="183.743" x2="29.2768"
            y2="167.953" gradientUnits="userSpaceOnUse">
            <stop stop-color="#00FFC8" />
            <stop offset="1" stop-color="#00FFC8" stop-opacity="0" />
        </linearGradient>
        <linearGradient id="paint9_linear_2797_54661" x1="271.483" y1="193.499" x2="138.154"
            y2="7.41143" gradientUnits="userSpaceOnUse">
            <stop stop-color="#00FFC8" />
            <stop offset="1" stop-color="#00FFC8" stop-opacity="0" />
        </linearGradient>
        <linearGradient id="paint10_linear_2797_54661" x1="272.248" y1="194.218" x2="137.615"
            y2="7.0878" gradientUnits="userSpaceOnUse">
            <stop stop-color="#00FFC8" />
            <stop offset="1" stop-color="#00FFC8" stop-opacity="0" />
        </linearGradient>
        <linearGradient id="paint11_linear_2797_54661" x1="271.488" y1="206.486" x2="176.012"
            y2="37.9274" gradientUnits="userSpaceOnUse">
            <stop stop-color="#00FFC8" />
            <stop offset="1" stop-color="#00FFC8" stop-opacity="0" />
        </linearGradient>
        <linearGradient id="paint12_linear_2797_54661" x1="272.247" y1="207.204" x2="175.431"
            y2="37.3722" gradientUnits="userSpaceOnUse">
            <stop stop-color="#00FFC8" />
            <stop offset="1" stop-color="#00FFC8" stop-opacity="0" />
        </linearGradient>
        <linearGradient id="paint13_linear_2797_54661" x1="131.34" y1="164.57" x2="110.818"
            y2="145.543" gradientUnits="userSpaceOnUse">
            <stop stop-color="#00FFC8" />
            <stop offset="1" stop-color="#00FFC8" stop-opacity="0" />
        </linearGradient>
        <linearGradient id="paint14_linear_2797_54661" x1="132.106" y1="165.301" x2="110.403"
            y2="145.461" gradientUnits="userSpaceOnUse">
            <stop stop-color="#00FFC8" />
            <stop offset="1" stop-color="#00FFC8" stop-opacity="0" />
        </linearGradient>
        <linearGradient id="paint15_linear_2797_54661" x1="168.191" y1="140.356" x2="153.425"
            y2="132.884" gradientUnits="userSpaceOnUse">
            <stop stop-color="#00FFC8" />
            <stop offset="1" stop-color="#00FFC8" stop-opacity="0" />
        </linearGradient>
        <linearGradient id="paint16_linear_2797_54661" x1="168.957" y1="141.087" x2="153.005"
            y2="132.83" gradientUnits="userSpaceOnUse">
            <stop stop-color="#00FFC8" />
            <stop offset="1" stop-color="#00FFC8" stop-opacity="0" />
        </linearGradient>
        <linearGradient id="paint17_linear_2797_54661" x1="157.439" y1="145.713" x2="142.672"
            y2="138.241" gradientUnits="userSpaceOnUse">
            <stop stop-color="#00FFC8" />
            <stop offset="1" stop-color="#00FFC8" stop-opacity="0" />
        </linearGradient>
        <linearGradient id="paint18_linear_2797_54661" x1="158.203" y1="146.441" x2="142.252"
            y2="138.184" gradientUnits="userSpaceOnUse">
            <stop stop-color="#00FFC8" />
            <stop offset="1" stop-color="#00FFC8" stop-opacity="0" />
        </linearGradient>
        <linearGradient id="paint19_linear_2797_54661" x1="257.487" y1="166.641" x2="208.392"
            y2="42.6331" gradientUnits="userSpaceOnUse">
            <stop stop-color="#00FFC8" />
            <stop offset="1" stop-color="#00FFC8" stop-opacity="0" />
        </linearGradient>
        <linearGradient id="paint20_linear_2797_54661" x1="258.254" y1="167.362" x2="207.907"
            y2="41.6953" gradientUnits="userSpaceOnUse">
            <stop stop-color="#00FFC8" />
            <stop offset="1" stop-color="#00FFC8" stop-opacity="0" />
        </linearGradient>
        <linearGradient id="paint21_linear_2797_54661" x1="271.483" y1="159.261" x2="138.154"
            y2="-26.8268" gradientUnits="userSpaceOnUse">
            <stop stop-color="#00FFC8" />
            <stop offset="1" stop-color="#00FFC8" stop-opacity="0" />
        </linearGradient>
        <linearGradient id="paint22_linear_2797_54661" x1="272.248" y1="159.975" x2="137.622"
            y2="-27.153" gradientUnits="userSpaceOnUse">
            <stop stop-color="#00FFC8" />
            <stop offset="1" stop-color="#00FFC8" stop-opacity="0" />
        </linearGradient>
        <linearGradient id="paint23_linear_2797_54661" x1="271.485" y1="172.247" x2="176.009"
            y2="3.68992" gradientUnits="userSpaceOnUse">
            <stop stop-color="#00FFC8" />
            <stop offset="1" stop-color="#00FFC8" stop-opacity="0" />
        </linearGradient>
        <linearGradient id="paint24_linear_2797_54661" x1="272.247" y1="172.966" x2="175.431"
            y2="3.13389" gradientUnits="userSpaceOnUse">
            <stop stop-color="#00FFC8" />
            <stop offset="1" stop-color="#00FFC8" stop-opacity="0" />
        </linearGradient>
        <linearGradient id="paint25_linear_2797_54661" x1="131.34" y1="130.246" x2="110.814"
            y2="111.219" gradientUnits="userSpaceOnUse">
            <stop stop-color="#00FFC8" />
            <stop offset="1" stop-color="#00FFC8" stop-opacity="0" />
        </linearGradient>
        <linearGradient id="paint26_linear_2797_54661" x1="132.106" y1="130.976" x2="110.403"
            y2="111.135" gradientUnits="userSpaceOnUse">
            <stop stop-color="#00FFC8" />
            <stop offset="1" stop-color="#00FFC8" stop-opacity="0" />
        </linearGradient>
        <linearGradient id="paint27_linear_2797_54661" x1="168.191" y1="106.118" x2="153.424"
            y2="98.6465" gradientUnits="userSpaceOnUse">
            <stop stop-color="#00FFC8" />
            <stop offset="1" stop-color="#00FFC8" stop-opacity="0" />
        </linearGradient>
        <linearGradient id="paint28_linear_2797_54661" x1="168.957" y1="106.849" x2="153.005"
            y2="98.5913" gradientUnits="userSpaceOnUse">
            <stop stop-color="#00FFC8" />
            <stop offset="1" stop-color="#00FFC8" stop-opacity="0" />
        </linearGradient>
        <linearGradient id="paint29_linear_2797_54661" x1="157.258" y1="111.564" x2="142.49"
            y2="104.092" gradientUnits="userSpaceOnUse">
            <stop stop-color="#00FFC8" />
            <stop offset="1" stop-color="#00FFC8" stop-opacity="0" />
        </linearGradient>
        <linearGradient id="paint30_linear_2797_54661" x1="158.024" y1="112.292" x2="142.072"
            y2="104.035" gradientUnits="userSpaceOnUse">
            <stop stop-color="#00FFC8" />
            <stop offset="1" stop-color="#00FFC8" stop-opacity="0" />
        </linearGradient>
        <linearGradient id="paint31_linear_2797_54661" x1="271.485" y1="125.023" x2="138.155"
            y2="-61.0662" gradientUnits="userSpaceOnUse">
            <stop stop-color="#00FFC8" />
            <stop offset="1" stop-color="#00FFC8" stop-opacity="0" />
        </linearGradient>
        <linearGradient id="paint32_linear_2797_54661" x1="272.248" y1="125.737" x2="137.622"
            y2="-61.3913" gradientUnits="userSpaceOnUse">
            <stop stop-color="#00FFC8" />
            <stop offset="1" stop-color="#00FFC8" stop-opacity="0" />
        </linearGradient>
        <linearGradient id="paint33_linear_2797_54661" x1="215.369" y1="98.3562" x2="123.827"
            y2="-29.4088" gradientUnits="userSpaceOnUse">
            <stop stop-color="#00FFC8" />
            <stop offset="1" stop-color="#00FFC8" stop-opacity="0" />
        </linearGradient>
        <linearGradient id="paint34_linear_2797_54661" x1="271.485" y1="138.01" x2="176.005"
            y2="-30.5495" gradientUnits="userSpaceOnUse">
            <stop stop-color="#00FFC8" />
            <stop offset="1" stop-color="#00FFC8" stop-opacity="0" />
        </linearGradient>
        <linearGradient id="paint35_linear_2797_54661" x1="272.247" y1="138.728" x2="175.431"
            y2="-31.1044" gradientUnits="userSpaceOnUse">
            <stop stop-color="#00FFC8" />
            <stop offset="1" stop-color="#00FFC8" stop-opacity="0" />
        </linearGradient>
        <linearGradient id="paint36_linear_2797_54661" x1="257.487" y1="132.403" x2="208.392"
            y2="8.39487" gradientUnits="userSpaceOnUse">
            <stop stop-color="#00FFC8" />
            <stop offset="1" stop-color="#00FFC8" stop-opacity="0" />
        </linearGradient>
        <linearGradient id="paint37_linear_2797_54661" x1="258.254" y1="133.124" x2="207.907"
            y2="7.45706" gradientUnits="userSpaceOnUse">
            <stop stop-color="#00FFC8" />
            <stop offset="1" stop-color="#00FFC8" stop-opacity="0" />
        </linearGradient>
        <linearGradient id="paint38_linear_2797_54661" x1="168.191" y1="71.8801" x2="153.424"
            y2="64.4082" gradientUnits="userSpaceOnUse">
            <stop stop-color="#00FFC8" />
            <stop offset="1" stop-color="#00FFC8" stop-opacity="0" />
        </linearGradient>
        <linearGradient id="paint39_linear_2797_54661" x1="168.957" y1="72.6103" x2="153.005"
            y2="64.353" gradientUnits="userSpaceOnUse">
            <stop stop-color="#00FFC8" />
            <stop offset="1" stop-color="#00FFC8" stop-opacity="0" />
        </linearGradient>
        <linearGradient id="paint40_linear_2797_54661" x1="157.258" y1="77.3235" x2="142.491"
            y2="69.8508" gradientUnits="userSpaceOnUse">
            <stop stop-color="#00FFC8" />
            <stop offset="1" stop-color="#00FFC8" stop-opacity="0" />
        </linearGradient>
        <linearGradient id="paint41_linear_2797_54661" x1="158.024" y1="78.0542" x2="142.072"
            y2="69.7966" gradientUnits="userSpaceOnUse">
            <stop stop-color="#00FFC8" />
            <stop offset="1" stop-color="#00FFC8" stop-opacity="0" />
        </linearGradient>
        <linearGradient id="paint42_linear_2797_54661" x1="131.34" y1="96.0444" x2="110.817"
            y2="77.0177" gradientUnits="userSpaceOnUse">
            <stop stop-color="#00FFC8" />
            <stop offset="1" stop-color="#00FFC8" stop-opacity="0" />
        </linearGradient>
        <linearGradient id="paint43_linear_2797_54661" x1="132.106" y1="96.7763" x2="110.4"
            y2="76.9361" gradientUnits="userSpaceOnUse">
            <stop stop-color="#00FFC8" />
            <stop offset="1" stop-color="#00FFC8" stop-opacity="0" />
        </linearGradient>
        <linearGradient id="paint44_linear_2797_54661" x1="163.415" y1="186.562" x2="130.706"
            y2="157.091" gradientUnits="userSpaceOnUse">
            <stop stop-color="#00FFC8" />
            <stop offset="1" stop-color="#00FFC8" stop-opacity="0" />
        </linearGradient>
        <linearGradient id="paint45_linear_2797_54661" x1="201.088" y1="167.523" x2="183.749"
            y2="132.442" gradientUnits="userSpaceOnUse">
            <stop stop-color="#00FFC8" />
            <stop offset="1" stop-color="#00FFC8" stop-opacity="0" />
        </linearGradient>
        <linearGradient id="paint46_linear_2797_54661" x1="195.89" y1="183.459" x2="163.02"
            y2="138.367" gradientUnits="userSpaceOnUse">
            <stop stop-color="#00FFC8" />
            <stop offset="1" stop-color="#00FFC8" stop-opacity="0" />
        </linearGradient>
        <linearGradient id="paint47_linear_2797_54661" x1="188.125" y1="179.891" x2="177.516"
            y2="165.08" gradientUnits="userSpaceOnUse">
            <stop stop-color="#00FFC8" />
            <stop offset="1" stop-color="#00FFC8" stop-opacity="0" />
        </linearGradient>
        <linearGradient id="paint48_linear_2797_54661" x1="188.852" y1="180.583" x2="176.992"
            y2="164.792" gradientUnits="userSpaceOnUse">
            <stop stop-color="#00FFC8" />
            <stop offset="1" stop-color="#00FFC8" stop-opacity="0" />
        </linearGradient>
        <linearGradient id="paint49_linear_2797_54661" x1="194.965" y1="159.892" x2="184.356"
            y2="145.082" gradientUnits="userSpaceOnUse">
            <stop stop-color="#00FFC8" />
            <stop offset="1" stop-color="#00FFC8" stop-opacity="0" />
        </linearGradient>
        <linearGradient id="paint50_linear_2797_54661" x1="195.692" y1="160.585" x2="183.831"
            y2="144.795" gradientUnits="userSpaceOnUse">
            <stop stop-color="#00FFC8" />
            <stop offset="1" stop-color="#00FFC8" stop-opacity="0" />
        </linearGradient>
        <linearGradient id="paint51_linear_2797_54661" x1="147.97" y1="183.297" x2="137.362"
            y2="168.486" gradientUnits="userSpaceOnUse">
            <stop stop-color="#00FFC8" />
            <stop offset="1" stop-color="#00FFC8" stop-opacity="0" />
        </linearGradient>
        <linearGradient id="paint52_linear_2797_54661" x1="148.697" y1="183.988" x2="136.837"
            y2="168.198" gradientUnits="userSpaceOnUse">
            <stop stop-color="#00FFC8" />
            <stop offset="1" stop-color="#00FFC8" stop-opacity="0" />
        </linearGradient>
        <clipPath id="clip0_2797_54661">
            <rect width="187.364" height="180" fill="white" />
        </clipPath>
    </defs>
    <g clip-path="url(#clip0_2797_54661)">
        <path fill-rule="evenodd" clip-rule="evenodd"
            d="M57.8954 149.908L39.073 159.281C38.9044 159.365 38.8364 159.568 38.9214 159.736C39.0049 159.902 39.2106 159.971 39.3777 159.887L58.2 150.513C58.3686 150.43 58.4367 150.227 58.3516 150.059C58.2665 149.892 58.0624 149.824 57.8954 149.908Z"
            fill="url(#paint0_linear_2797_54661)" fill-opacity="0.3" />
        <path fill-rule="evenodd" clip-rule="evenodd"
            d="M48.2216 145.09L10.5769 163.838C10.4083 163.921 10.3403 164.124 10.4253 164.292C10.5088 164.458 10.713 164.528 10.8816 164.443L48.5263 145.696C48.6933 145.612 48.7629 145.409 48.6779 145.241C48.5928 145.075 48.3886 145.007 48.2216 145.09Z"
            fill="url(#paint1_linear_2797_54661)" fill-opacity="0.3" />
        <path fill-rule="evenodd" clip-rule="evenodd"
            d="M67.7275 154.805L30.0828 173.552C29.9142 173.635 29.8461 173.839 29.9312 174.006C30.0147 174.174 30.2189 174.242 30.3874 174.157L68.0322 155.41C68.2007 155.327 68.2688 155.122 68.1837 154.956C68.1002 154.789 67.8945 154.721 67.7275 154.805Z"
            fill="url(#paint2_linear_2797_54661)" fill-opacity="0.3" />
        <path fill-rule="evenodd" clip-rule="evenodd"
            d="M34.7506 158.662C31.2584 158.662 28.4219 160.074 28.4219 161.813C28.4219 163.553 31.2584 164.965 34.7506 164.965C38.2429 164.965 41.0794 163.553 41.0794 161.813C41.0794 160.073 38.2429 158.662 34.7506 158.662Z"
            fill="url(#paint3_linear_2797_54661)" fill-opacity="0.3" />
        <path fill-rule="evenodd" clip-rule="evenodd"
            d="M34.7516 158.34C32.5802 158.34 30.6562 158.876 29.4622 159.686C28.5899 160.278 28.0996 161.023 28.0996 161.812C28.0996 162.602 28.5914 163.346 29.4622 163.939C30.6562 164.75 32.5802 165.286 34.7516 165.286C36.9231 165.286 38.8471 164.75 40.0411 163.939C40.9118 163.348 41.4036 162.602 41.4036 161.812C41.4036 161.023 40.9118 160.278 40.0411 159.686C38.8471 158.876 36.9231 158.34 34.7516 158.34ZM34.7516 158.982C36.7715 158.982 38.5656 159.463 39.6761 160.218C40.3411 160.669 40.7571 161.21 40.7571 161.812C40.7571 162.414 40.3411 162.955 39.6761 163.406C38.5656 164.161 36.7715 164.642 34.7516 164.642C32.7317 164.642 30.9377 164.161 29.8272 163.406C29.1621 162.955 28.7461 162.414 28.7461 161.812C28.7461 161.21 29.1621 160.669 29.8272 160.218C30.9377 159.464 32.7317 158.982 34.7516 158.982Z"
            fill="url(#paint4_linear_2797_54661)" fill-opacity="0.3" />
        <path fill-rule="evenodd" clip-rule="evenodd"
            d="M6.65298 163.414C3.16072 163.414 0.324219 164.827 0.324219 166.566C0.324219 168.305 3.15917 169.718 6.65298 169.718C10.1453 169.718 12.9818 168.305 12.9818 166.566C12.9818 164.827 10.1453 163.414 6.65298 163.414Z"
            fill="url(#paint5_linear_2797_54661)" fill-opacity="0.3" />
        <path fill-rule="evenodd" clip-rule="evenodd"
            d="M6.65201 163.094C4.48055 163.094 2.55656 163.63 1.36257 164.44C0.491825 165.032 0 165.777 0 166.567C0 167.356 0.491825 168.102 1.36257 168.695C2.55656 169.505 4.48055 170.041 6.65201 170.041C8.82346 170.041 10.7475 169.505 11.9414 168.695C12.8137 168.103 13.304 167.358 13.304 166.567C13.304 165.777 12.8122 165.033 11.9414 164.44C10.7475 163.63 8.82346 163.094 6.65201 163.094ZM6.65201 163.736C8.67189 163.736 10.466 164.217 11.5764 164.972C12.2415 165.423 12.6575 165.965 12.6575 166.566C12.6575 167.168 12.2415 167.709 11.5764 168.16C10.466 168.915 8.67189 169.396 6.65201 169.396C4.63212 169.396 2.83804 168.915 1.72757 168.16C1.06253 167.709 0.646487 167.168 0.646487 166.566C0.646487 165.964 1.06253 165.423 1.72757 164.972C2.8365 164.217 4.63212 163.736 6.65201 163.736Z"
            fill="url(#paint6_linear_2797_54661)" fill-opacity="0.3" />
        <path fill-rule="evenodd" clip-rule="evenodd"
            d="M26.1569 173.13C22.6646 173.13 19.8281 174.542 19.8281 176.282C19.8281 178.021 22.6631 179.433 26.1569 179.433C29.6492 179.433 32.4857 178.021 32.4857 176.282C32.4857 174.541 29.6492 173.13 26.1569 173.13Z"
            fill="url(#paint7_linear_2797_54661)" fill-opacity="0.3" />
        <path fill-rule="evenodd" clip-rule="evenodd"
            d="M26.1579 172.808C23.9864 172.808 22.0624 173.344 20.8684 174.154C19.9961 174.746 19.5059 175.491 19.5059 176.281C19.5059 177.072 19.9977 177.816 20.8684 178.409C22.0624 179.219 23.9864 179.755 26.1579 179.755C28.3293 179.755 30.2533 179.219 31.4473 178.409C32.3196 177.817 32.8099 177.072 32.8099 176.281C32.8099 175.491 32.318 174.747 31.4473 174.154C30.2533 173.344 28.3293 172.808 26.1579 172.808ZM26.1579 173.452C28.1777 173.452 29.9718 173.932 31.0823 174.687C31.7473 175.138 32.1634 175.679 32.1634 176.281C32.1634 176.884 31.7473 177.424 31.0823 177.876C29.9718 178.631 28.1777 179.111 26.1579 179.111C24.138 179.111 22.3439 178.631 21.2334 177.876C20.5684 177.424 20.1523 176.882 20.1523 176.281C20.1523 175.679 20.5684 175.138 21.2334 174.687C22.3439 173.932 24.138 173.452 26.1579 173.452Z"
            fill="url(#paint8_linear_2797_54661)" fill-opacity="0.3" />
        <path fill-rule="evenodd" clip-rule="evenodd"
            d="M79.5158 71.9043C86.655 68.3489 97.0901 67.7727 102.803 70.6195L168.323 103.268C174.036 106.115 172.876 111.312 165.737 114.868L105.364 144.933C98.2253 148.488 87.7902 149.065 82.077 146.218L16.5576 113.569C10.8459 110.722 12.0044 105.525 19.1451 101.969L79.5158 71.9043Z"
            fill="url(#paint9_linear_2797_54661)" fill-opacity="0.3" />
        <path fill-rule="evenodd" clip-rule="evenodd"
            d="M79.3644 71.6008L18.9921 101.668C16.3536 102.982 14.5178 104.521 13.514 106.079C12.8165 107.162 12.5134 108.261 12.6062 109.311C12.7577 111.043 13.9873 112.668 16.4062 113.874L81.9256 146.523C87.7131 149.407 98.2842 148.84 105.516 145.238L165.888 115.173C168.527 113.859 170.363 112.32 171.367 110.761C172.064 109.678 172.367 108.58 172.274 107.529C172.123 105.798 170.893 104.172 168.474 102.966L102.955 70.3161C97.1676 67.4323 86.5964 67.9992 79.3644 71.6008ZM79.6676 72.2078C86.714 68.6986 97.0114 68.1132 102.65 70.923L168.17 103.572C170.321 104.644 171.463 106.047 171.597 107.588C171.698 108.737 171.235 109.943 170.261 111.118C169.245 112.343 167.675 113.526 165.584 114.567L105.213 144.63C98.1667 148.139 87.8693 148.724 82.2303 145.914L16.7093 113.267C14.5595 112.195 13.4166 110.792 13.282 109.251C13.1815 108.102 13.6439 106.896 14.6183 105.721C15.636 104.496 17.2043 103.313 19.2953 102.271L79.6676 72.2078Z"
            fill="url(#paint10_linear_2797_54661)" fill-opacity="0.3" />
        <path fill-rule="evenodd" clip-rule="evenodd"
            d="M171.952 107.91C171.944 110.268 169.816 112.836 165.738 114.868L105.365 144.933C98.2262 148.489 87.7911 149.065 82.0779 146.218L16.5585 113.569C14.1519 112.369 12.9641 110.753 12.9316 109.017V131.451V131.471V131.474C12.9425 133.23 14.1287 134.866 16.56 136.079L82.081 168.727C87.7927 171.574 98.2277 170.998 105.368 167.442L165.741 137.377C169.815 135.348 171.941 132.784 171.955 130.428V130.397V130.385V130.383V107.91H171.952Z"
            fill="url(#paint11_linear_2797_54661)" fill-opacity="0.3" />
        <path fill-rule="evenodd" clip-rule="evenodd"
            d="M12.5898 131.476V131.473V131.453V109.019C12.5898 108.832 12.7399 108.681 12.927 108.68C13.1126 108.678 13.2657 108.826 13.2688 109.013C13.3013 110.644 14.4458 112.14 16.7085 113.267L82.2279 145.916C87.8653 148.726 98.1643 148.14 105.211 144.631L165.583 114.566C169.51 112.611 171.602 110.18 171.61 107.91C171.61 107.723 171.762 107.574 171.947 107.572C172.039 107.572 172.125 107.608 172.19 107.671C172.255 107.734 172.291 107.82 172.291 107.911C172.291 107.911 172.291 130.385 172.291 130.38V130.385C172.291 130.385 172.291 130.399 172.291 130.397V130.428V130.43C172.277 132.874 170.115 135.575 165.888 137.681L105.515 167.746C98.2818 171.347 87.7107 171.914 81.9248 169.031L16.4069 136.382C13.8287 135.097 12.6022 133.338 12.5914 131.477V131.476H12.5898ZM171.612 110.334C170.67 112.043 168.754 113.743 165.889 115.17L105.517 145.237C98.2834 148.838 87.7122 149.405 81.9263 146.521L16.4069 113.873C14.9221 113.133 13.8859 112.235 13.2719 111.252V131.454C13.2719 131.454 13.2719 131.474 13.2719 131.469V131.473V131.474C13.2812 133.124 14.4272 134.638 16.7116 135.777L82.231 168.425C87.8684 171.235 98.1674 170.65 105.214 167.14L165.586 137.075C169.507 135.122 171.599 132.696 171.613 130.427V130.397C171.613 130.397 171.613 130.383 171.613 130.388V130.383V110.334H171.612ZM12.5898 131.476V131.479C12.5898 131.474 12.5898 131.476 12.5898 131.476Z"
            fill="url(#paint12_linear_2797_54661)" fill-opacity="0.3" />
        <path fill-rule="evenodd" clip-rule="evenodd"
            d="M106.236 155.978C106.236 157.563 107.269 158.335 108.544 157.702L119.369 152.312C120.642 151.677 121.676 149.876 121.676 148.29C121.676 146.705 120.643 145.933 119.369 146.566L108.544 151.958C107.269 152.591 106.236 154.393 106.236 155.978Z"
            fill="url(#paint13_linear_2797_54661)" fill-opacity="0.3" />
        <path fill-rule="evenodd" clip-rule="evenodd"
            d="M105.898 155.978C105.898 156.902 106.223 157.58 106.71 157.944C107.219 158.324 107.921 158.392 108.698 158.005L119.523 152.615C120.894 151.933 122.017 149.998 122.017 148.291C122.017 147.367 121.693 146.689 121.205 146.325C120.696 145.945 119.994 145.877 119.218 146.264L108.393 151.655C107.023 152.336 105.898 154.271 105.898 155.978ZM106.579 155.978C106.579 154.515 107.522 152.845 108.698 152.259L119.523 146.868C120.021 146.62 120.471 146.621 120.797 146.865C121.145 147.125 121.337 147.626 121.337 148.288C121.337 149.751 120.393 151.421 119.218 152.007L108.393 157.397C107.895 157.645 107.445 157.643 107.119 157.4C106.771 157.141 106.579 156.64 106.579 155.978Z"
            fill="url(#paint14_linear_2797_54661)" fill-opacity="0.3" />
        <path fill-rule="evenodd" clip-rule="evenodd"
            d="M159.742 124.479C161.813 123.448 163.494 124.764 163.494 127.415C163.494 130.066 161.813 133.056 159.742 134.087C157.671 135.117 155.99 133.802 155.99 131.151C155.992 128.5 157.673 125.51 159.742 124.479Z"
            fill="url(#paint15_linear_2797_54661)" fill-opacity="0.3" />
        <path fill-rule="evenodd" clip-rule="evenodd"
            d="M159.592 124.175C157.425 125.255 155.652 128.376 155.652 131.15C155.652 132.605 156.136 133.683 156.882 134.265C157.654 134.869 158.719 134.975 159.896 134.388C162.063 133.309 163.836 130.188 163.836 127.413C163.836 125.959 163.351 124.881 162.606 124.298C161.834 123.695 160.769 123.588 159.592 124.175ZM159.896 124.781C160.79 124.335 161.601 124.372 162.187 124.831C162.801 125.312 163.157 126.216 163.157 127.415C163.157 129.943 161.567 132.802 159.593 133.785C158.699 134.23 157.889 134.193 157.303 133.734C156.689 133.253 156.333 132.349 156.333 131.15C156.333 128.623 157.921 125.765 159.896 124.781Z"
            fill="url(#paint16_linear_2797_54661)" fill-opacity="0.3" />
        <path fill-rule="evenodd" clip-rule="evenodd"
            d="M148.99 129.833C151.061 128.803 152.743 130.118 152.743 132.77C152.743 135.421 151.061 138.411 148.99 139.443C146.919 140.473 145.238 139.158 145.238 136.507C145.238 133.856 146.919 130.864 148.99 129.833Z"
            fill="url(#paint17_linear_2797_54661)" fill-opacity="0.3" />
        <path fill-rule="evenodd" clip-rule="evenodd"
            d="M148.838 129.53C146.671 130.61 144.898 133.731 144.898 136.505C144.898 137.959 145.383 139.038 146.128 139.62C146.9 140.224 147.965 140.33 149.142 139.743C151.309 138.663 153.082 135.542 153.082 132.768C153.082 131.314 152.598 130.236 151.852 129.653C151.079 129.049 150.015 128.945 148.838 129.53ZM149.141 130.137C150.035 129.692 150.845 129.729 151.431 130.188C152.045 130.668 152.401 131.573 152.401 132.771C152.401 135.299 150.811 138.158 148.838 139.141C147.944 139.586 147.133 139.549 146.547 139.09C145.933 138.61 145.577 137.705 145.577 136.507C145.577 133.977 147.167 131.12 149.141 130.137Z"
            fill="url(#paint18_linear_2797_54661)" fill-opacity="0.3" />
        <path fill-rule="evenodd" clip-rule="evenodd"
            d="M19.1465 103.129V107.452V107.47V107.472C19.1558 109.089 20.2492 110.599 22.4903 111.716L82.8889 141.812C88.1551 144.435 97.7735 143.905 104.356 140.627L160.008 112.911C163.763 111.041 165.724 108.677 165.737 106.505V106.475V106.463V103.136L105.366 133.204C98.2267 136.759 87.7917 137.335 82.0784 134.489L19.1465 103.129Z"
            fill="url(#paint19_linear_2797_54661)" fill-opacity="0.3" />
        <path fill-rule="evenodd" clip-rule="evenodd"
            d="M18.8047 107.474V107.47V107.452V103.129C18.8047 103.012 18.865 102.903 18.9655 102.841C19.0661 102.78 19.1913 102.774 19.2965 102.826L82.23 134.185C87.8674 136.995 98.1664 136.41 105.213 132.9L165.585 102.835C165.69 102.783 165.815 102.789 165.916 102.851C166.017 102.912 166.077 103.022 166.077 103.139C166.077 103.139 166.077 106.466 166.077 106.461V106.466V106.478V106.508V106.509C166.065 108.771 164.069 111.269 160.16 113.216L104.506 140.931C97.8307 144.255 88.0747 144.777 82.7357 142.115L22.3372 112.019C19.9492 110.83 18.8155 109.199 18.8047 107.475V107.474ZM19.4852 103.678V107.452C19.4852 107.452 19.4852 107.47 19.4852 107.466V107.469V107.47C19.4945 108.983 20.5477 110.37 22.6418 111.414L83.0404 141.51C88.2324 144.097 97.7132 143.557 104.203 140.325L159.855 112.609C163.458 110.815 165.384 108.589 165.396 106.505V106.478C165.396 106.478 165.396 106.466 165.396 106.471V106.466V103.687L105.516 133.507C98.2824 137.109 87.7112 137.676 81.9253 134.792L19.4852 103.678ZM18.8047 107.472V107.475C18.8047 107.472 18.8047 107.472 18.8047 107.472Z"
            fill="url(#paint20_linear_2797_54661)" fill-opacity="0.3" />
        <path fill-rule="evenodd" clip-rule="evenodd"
            d="M79.5158 37.666C86.655 34.1106 97.0901 33.5345 102.803 36.3812L168.323 69.0298C174.036 71.8766 172.876 77.0741 165.737 80.6295L105.364 110.695C98.2253 114.25 87.7902 114.826 82.077 111.979L16.5576 79.3309C10.8459 76.4841 12.0044 71.2866 19.1451 67.7312L79.5158 37.666Z"
            fill="url(#paint21_linear_2797_54661)" fill-opacity="0.3" />
        <path fill-rule="evenodd" clip-rule="evenodd"
            d="M79.3644 37.3626L18.9921 67.4278C16.3536 68.7418 14.5178 70.2807 13.514 71.8397C12.8165 72.9226 12.5134 74.021 12.6062 75.07C12.7577 76.8015 13.9873 78.4267 16.4062 79.6329L81.9256 112.281C87.7131 115.165 98.2842 114.598 105.516 110.997L165.888 80.9315C168.527 79.6175 170.363 78.0785 171.367 76.5196C172.064 75.4366 172.367 74.3383 172.274 73.2877C172.123 71.5562 170.893 69.931 168.474 68.7248L102.955 36.0778C97.1676 33.1941 86.5964 33.761 79.3644 37.3626ZM79.6676 37.9695C86.714 34.4603 97.0114 33.875 102.65 36.6848L168.17 69.3333C170.321 70.4055 171.463 71.8089 171.597 73.3493C171.698 74.497 171.235 75.7047 170.261 76.8801C169.245 78.1047 167.675 79.2878 165.584 80.3292L105.213 110.391C98.1667 113.9 87.8693 114.486 82.2303 111.676L16.7093 79.029C14.5595 77.9568 13.4166 76.5535 13.282 75.013C13.1815 73.8638 13.6439 72.6576 14.6183 71.4823C15.636 70.2576 17.2043 69.0761 19.2953 68.0332L79.6676 37.9695Z"
            fill="url(#paint22_linear_2797_54661)" fill-opacity="0.3" />
        <path fill-rule="evenodd" clip-rule="evenodd"
            d="M171.952 73.6714C171.944 76.0298 169.816 78.5978 165.738 80.6297L105.365 110.695C98.2261 114.25 87.7911 114.826 82.0779 111.98L16.5585 79.331C14.1519 78.131 12.9641 76.5151 12.9316 74.779V97.2127V97.2328V97.2359C12.9425 98.9904 14.1287 100.628 16.56 101.84L82.0794 134.489C87.7911 137.336 98.2262 136.76 105.367 133.204L165.739 103.139C169.813 101.11 171.94 98.5452 171.953 96.1899V96.1591V96.1452V96.1437V73.6714H171.952Z"
            fill="url(#paint23_linear_2797_54661)" fill-opacity="0.3" />
        <path fill-rule="evenodd" clip-rule="evenodd"
            d="M12.5898 97.2374V97.2343V97.2143V74.7805C12.5898 74.5941 12.7399 74.4431 12.927 74.4416C13.1126 74.44 13.2657 74.5879 13.2688 74.7743C13.3013 76.4057 14.4458 77.9015 16.7085 79.0291L82.2279 111.678C87.8653 114.487 98.1643 113.902 105.211 110.393L165.583 80.3277C169.51 78.3728 171.602 75.942 171.61 73.6713C171.61 73.4865 171.762 73.3355 171.947 73.334C172.039 73.334 172.125 73.3694 172.19 73.4326C172.255 73.4957 172.291 73.582 172.291 73.6729C172.291 73.6729 172.291 96.1467 172.291 96.1421V96.1467C172.291 96.1467 172.291 96.1606 172.291 96.159V96.1898V96.1914C172.277 98.6361 170.115 101.337 165.888 103.442L105.517 133.508C98.2834 137.109 87.7122 137.676 81.9263 134.792L16.4069 102.144C13.8287 100.859 12.6022 99.0998 12.5914 97.2389V97.2374H12.5898ZM171.612 76.096C170.67 77.8044 168.754 79.5051 165.889 80.9316L105.517 110.998C98.2834 114.6 87.7122 115.167 81.9263 112.283L16.4069 79.6345C14.9221 78.8951 13.8859 77.997 13.2719 77.0142V97.2158C13.2719 97.2158 13.2719 97.2358 13.2719 97.2312V97.2343V97.2358C13.2812 98.8857 14.4272 100.4 16.7116 101.538L82.231 134.187C87.8684 136.997 98.1674 136.411 105.214 132.902L165.586 102.837C169.507 100.884 171.599 98.4574 171.613 96.1883V96.159C171.613 96.159 171.613 96.1452 171.613 96.1498V96.1452V76.096H171.612ZM12.5898 97.2374V97.2404C12.5898 97.2358 12.5898 97.2374 12.5898 97.2374Z"
            fill="url(#paint24_linear_2797_54661)" fill-opacity="0.3" />
        <path fill-rule="evenodd" clip-rule="evenodd"
            d="M106.236 121.652C106.236 123.237 107.269 124.011 108.544 123.376L119.369 117.984C120.642 117.35 121.676 115.549 121.676 113.962C121.676 112.377 120.643 111.605 119.369 112.238L108.544 117.63C107.269 118.265 106.236 120.067 106.236 121.652Z"
            fill="url(#paint25_linear_2797_54661)" fill-opacity="0.3" />
        <path fill-rule="evenodd" clip-rule="evenodd"
            d="M105.898 121.652C105.898 122.577 106.223 123.254 106.71 123.618C107.219 123.998 107.921 124.066 108.698 123.68L119.523 118.289C120.894 117.607 122.017 115.672 122.017 113.965C122.017 113.041 121.693 112.363 121.205 112C120.696 111.619 119.994 111.551 119.218 111.938L108.393 117.33C107.023 118.011 105.898 119.944 105.898 121.652ZM106.579 121.652C106.579 120.189 107.522 118.519 108.698 117.934L119.523 112.542C120.021 112.294 120.471 112.295 120.797 112.539C121.145 112.799 121.337 113.3 121.337 113.962C121.337 115.426 120.393 117.096 119.218 117.681L108.393 123.073C107.895 123.321 107.445 123.319 107.119 123.076C106.771 122.814 106.579 122.313 106.579 121.652Z"
            fill="url(#paint26_linear_2797_54661)" fill-opacity="0.3" />
        <path fill-rule="evenodd" clip-rule="evenodd"
            d="M159.742 90.2388C161.813 89.2082 163.494 90.5237 163.494 93.1749C163.494 95.826 161.813 98.8161 159.742 99.8482C157.671 100.879 155.99 99.5632 155.99 96.9121C155.992 94.2609 157.673 91.2709 159.742 90.2388Z"
            fill="url(#paint27_linear_2797_54661)" fill-opacity="0.3" />
        <path fill-rule="evenodd" clip-rule="evenodd"
            d="M159.592 89.9369C157.425 91.0168 155.652 94.1377 155.652 96.9121C155.652 98.3663 156.136 99.4446 156.882 100.027C157.654 100.631 158.719 100.737 159.896 100.15C162.063 99.0703 163.836 95.9493 163.836 93.1749C163.836 91.7208 163.351 90.6424 162.606 90.0601C161.834 89.4563 160.769 89.35 159.592 89.9369ZM159.896 90.5423C160.79 90.0971 161.601 90.1341 162.187 90.5931C162.801 91.0738 163.157 91.978 163.157 93.1765C163.157 95.7044 161.567 98.5635 159.593 99.5463C158.699 99.9915 157.889 99.9545 157.303 99.4955C156.689 99.0149 156.333 98.1106 156.333 96.9121C156.333 94.3842 157.921 91.5251 159.896 90.5423Z"
            fill="url(#paint28_linear_2797_54661)" fill-opacity="0.3" />
        <path fill-rule="evenodd" clip-rule="evenodd"
            d="M148.809 95.6846C150.88 94.654 152.561 95.9696 152.561 98.6207C152.561 101.272 150.88 104.262 148.809 105.294C146.738 106.325 145.057 105.009 145.057 102.358C145.058 99.7052 146.738 96.7151 148.809 95.6846Z"
            fill="url(#paint29_linear_2797_54661)" fill-opacity="0.3" />
        <path fill-rule="evenodd" clip-rule="evenodd"
            d="M148.658 95.3811C146.491 96.461 144.719 99.5819 144.719 102.356C144.719 103.81 145.203 104.889 145.948 105.471C146.72 106.075 147.786 106.181 148.963 105.594C151.129 104.514 152.902 101.393 152.902 98.6191C152.902 97.1649 152.418 96.0866 151.672 95.5043C150.901 94.9005 149.835 94.7957 148.658 95.3811ZM148.963 95.988C149.857 95.5428 150.667 95.5798 151.253 96.0389C151.867 96.5195 152.223 97.4237 152.223 98.6207C152.223 101.149 150.633 104.008 148.66 104.99C147.766 105.436 146.955 105.399 146.369 104.94C145.755 104.459 145.399 103.555 145.399 102.358C145.399 99.8284 146.988 96.9708 148.963 95.988Z"
            fill="url(#paint30_linear_2797_54661)" fill-opacity="0.3" />
        <path fill-rule="evenodd" clip-rule="evenodd"
            d="M79.5158 3.42799L19.1451 33.4932C12.0044 37.0486 10.8459 42.2461 16.5576 45.0929L82.0786 77.7415C87.7902 80.5882 98.2253 80.0121 105.366 76.4567L165.738 46.3915C172.877 42.8361 174.037 37.6386 168.324 34.7918L102.803 2.14171C97.0901 -0.703529 86.6566 -0.128936 79.5158 3.42799Z"
            fill="url(#paint31_linear_2797_54661)" fill-opacity="0.3" />
        <path fill-rule="evenodd" clip-rule="evenodd"
            d="M79.3644 3.12428L18.9921 33.1895C16.3536 34.5035 14.5178 36.0424 13.514 37.6014C12.8165 38.6843 12.5134 39.7827 12.6062 40.8317C12.7577 42.5632 13.9873 44.1884 16.4062 45.3946L81.9256 78.0431C87.7131 80.9269 98.2842 80.36 105.516 76.7584L165.888 46.6932C168.527 45.3792 170.363 43.8402 171.367 42.2813C172.064 41.1984 172.367 40.1 172.274 39.0509C172.123 37.3195 170.893 35.6943 168.474 34.4881L102.955 1.83953C97.1676 -1.04421 86.5964 -0.477323 79.3644 3.12428ZM79.6676 3.72968C86.714 0.220506 97.0114 -0.364869 102.65 2.44493L168.17 35.0935C170.321 36.1657 171.463 37.569 171.597 39.1079C171.698 40.2571 171.235 41.4633 170.261 42.6387C169.245 43.8634 167.675 45.0464 165.584 46.0878L105.213 76.153C98.1667 79.6622 87.8693 80.2475 82.2303 77.4377L16.7093 44.7907C14.5595 43.7186 13.4166 42.3152 13.282 40.7763C13.1815 39.6271 13.6439 38.4209 14.6183 37.2455C15.636 36.0209 17.2043 34.8378 19.2953 33.7964L79.6676 3.72968Z"
            fill="url(#paint32_linear_2797_54661)" fill-opacity="0.3" />
        <path fill-rule="evenodd" clip-rule="evenodd"
            d="M83.5661 14.8718L42.1167 35.514C37.2139 37.9557 36.419 41.5234 40.3412 43.4782L85.3262 65.8935C89.2484 67.8484 96.4123 67.4525 101.315 65.0108L142.765 44.3686C147.667 41.927 148.462 38.3593 144.54 36.4044L99.5551 13.9892C95.6328 12.0343 88.4689 12.4302 83.5661 14.8718Z"
            fill="url(#paint33_linear_2797_54661)" fill-opacity="0.3" />
        <path fill-rule="evenodd" clip-rule="evenodd"
            d="M171.952 39.4316C171.944 41.7901 169.816 44.358 165.738 46.3899L105.365 76.4567C98.2261 80.012 87.7911 80.5882 82.0779 77.7414L16.5585 45.0928C14.1519 43.8928 12.9641 42.2769 12.9316 40.5408V62.9745V62.9946V62.9976C12.9425 64.7538 14.1287 66.3897 16.56 67.6021L82.0794 100.251C87.7911 103.097 98.2262 102.521 105.367 98.9659L165.739 68.9007C169.813 66.8719 171.94 64.307 171.953 61.9517V61.9209V61.907V61.9054V39.4316H171.952Z"
            fill="url(#paint34_linear_2797_54661)" fill-opacity="0.3" />
        <path fill-rule="evenodd" clip-rule="evenodd"
            d="M12.5898 62.9991V62.996V62.976V40.5422C12.5898 40.3558 12.7399 40.2048 12.927 40.2033C13.1126 40.2018 13.2657 40.3496 13.2688 40.536C13.3013 42.1674 14.4458 43.6632 16.7085 44.7908L82.2279 77.4394C87.8653 80.2492 98.1643 79.6638 105.211 76.1546L165.583 46.0894C169.51 44.1346 171.602 41.7037 171.61 39.4331C171.61 39.2482 171.762 39.0972 171.947 39.0957C172.039 39.0957 172.125 39.1311 172.19 39.1943C172.255 39.2575 172.291 39.3437 172.291 39.4346C172.291 39.4346 172.291 61.9084 172.291 61.9038V61.9084C172.291 61.9084 172.291 61.9223 172.291 61.9207V61.9515V61.9531C172.277 64.3978 170.115 67.0982 165.888 69.2025L105.517 99.2693C98.2834 102.871 87.7122 103.438 81.9263 100.554L16.4069 67.9054C13.8287 66.6207 12.6022 64.8615 12.5914 63.0006V62.9991H12.5898ZM171.612 41.8578C170.67 43.5661 168.754 45.2668 165.889 46.6933L105.517 76.76C98.2834 80.3616 87.7122 80.9285 81.9263 78.0448L16.4069 45.3962C14.9221 44.6568 13.8859 43.7587 13.2719 42.7759V62.9775C13.2719 62.9775 13.2719 62.9975 13.2719 62.9929V62.996V62.9975C13.2812 64.6474 14.4272 66.1616 16.7116 67.3L82.231 99.9486C87.8684 102.758 98.1674 102.173 105.214 98.6639L165.586 68.5986C169.507 66.6453 171.599 64.2176 171.613 61.95V61.9207C171.613 61.9207 171.613 61.9069 171.613 61.9115V61.9069V41.8578H171.612ZM12.5898 62.9991V63.0021C12.5898 62.9975 12.5898 62.9991 12.5898 62.9991Z"
            fill="url(#paint35_linear_2797_54661)" fill-opacity="0.3" />
        <path fill-rule="evenodd" clip-rule="evenodd"
            d="M19.1465 68.8911V73.2137V73.2321V73.2337C19.1558 74.8527 20.2492 76.3608 22.4903 77.4777L82.8889 107.574C88.1551 110.197 97.7735 109.667 104.356 106.389L160.008 78.6731C163.763 76.8029 165.724 74.4399 165.737 72.2663V72.237V72.2247V72.2231V68.8957L105.366 98.9656C98.2267 102.521 87.7917 103.097 82.0784 100.25L19.1465 68.8911Z"
            fill="url(#paint36_linear_2797_54661)" fill-opacity="0.3" />
        <path fill-rule="evenodd" clip-rule="evenodd"
            d="M18.8047 73.2353V73.2322V73.2137V68.8911C18.8047 68.7741 18.865 68.6647 18.9655 68.6031C19.0661 68.5415 19.1913 68.5353 19.2965 68.5877L82.23 99.9469C87.8674 102.757 98.1664 102.171 105.213 98.6621L165.585 68.5969C165.69 68.5445 165.815 68.5492 165.916 68.6123C166.017 68.6739 166.077 68.7833 166.077 68.9004C166.077 68.9004 166.077 72.2278 166.077 72.2232V72.2278V72.2401V72.2694V72.2709C166.065 74.5323 164.069 77.0309 160.16 78.9781L104.506 106.693C97.8307 110.017 88.0747 110.539 82.7357 107.877L22.3372 77.7812C19.9492 76.5919 18.8155 74.9606 18.8047 73.2368V73.2353ZM19.4852 69.4395V73.2137C19.4852 73.2137 19.4852 73.2322 19.4852 73.2275V73.2306V73.2322C19.4945 74.7449 20.5477 76.1313 22.6418 77.1758L83.0404 107.272C88.2324 109.858 97.7132 109.319 104.203 106.087L159.855 78.3712C163.458 76.5765 165.384 74.3505 165.396 72.2663V72.2401C165.396 72.2401 165.396 72.2278 165.396 72.2324V72.2278V69.4488L105.516 99.2691C98.2824 102.871 87.7112 103.438 81.9253 100.554L19.4852 69.4395ZM18.8047 73.2337V73.2368C18.8047 73.2337 18.8047 73.2337 18.8047 73.2337Z"
            fill="url(#paint37_linear_2797_54661)" fill-opacity="0.3" />
        <path fill-rule="evenodd" clip-rule="evenodd"
            d="M159.742 56.0005C161.813 54.9699 163.494 56.2855 163.494 58.9366C163.494 61.5877 161.813 64.5778 159.742 65.6099C157.671 66.6405 155.99 65.3249 155.99 62.6738C155.992 60.0226 157.673 57.0326 159.742 56.0005Z"
            fill="url(#paint38_linear_2797_54661)" fill-opacity="0.3" />
        <path fill-rule="evenodd" clip-rule="evenodd"
            d="M159.592 55.6986C157.425 56.7785 155.652 59.8995 155.652 62.6738C155.652 64.128 156.136 65.2063 156.882 65.7886C157.654 66.3925 158.719 66.4988 159.896 65.9119C162.063 64.832 163.836 61.711 163.836 58.9367C163.836 57.4825 163.351 56.4041 162.606 55.8219C161.834 55.218 160.769 55.1117 159.592 55.6986ZM159.896 56.304C160.79 55.8588 161.601 55.8958 162.187 56.3549C162.801 56.8355 163.157 57.7397 163.157 58.9382C163.157 61.4661 161.567 64.3252 159.593 65.308C158.699 65.7532 157.889 65.7162 157.303 65.2572C156.689 64.7766 156.333 63.8723 156.333 62.6754C156.333 60.1459 157.921 57.2868 159.896 56.304Z"
            fill="url(#paint39_linear_2797_54661)" fill-opacity="0.3" />
        <path fill-rule="evenodd" clip-rule="evenodd"
            d="M148.809 61.4463C150.88 60.4157 152.561 61.7313 152.561 64.3824C152.561 67.0335 150.88 70.0236 148.809 71.0542C146.738 72.0847 145.057 70.7692 145.057 68.118C145.058 65.4669 146.738 62.4769 148.809 61.4463Z"
            fill="url(#paint40_linear_2797_54661)" fill-opacity="0.3" />
        <path fill-rule="evenodd" clip-rule="evenodd"
            d="M148.658 61.1428C146.491 62.2227 144.719 65.3437 144.719 68.118C144.719 69.5722 145.203 70.6506 145.948 71.2329C146.72 71.8367 147.786 71.943 148.963 71.3561C151.129 70.2762 152.902 67.1552 152.902 64.3809C152.902 62.9267 152.418 61.8483 151.672 61.2661C150.901 60.6622 149.835 60.5574 148.658 61.1428ZM148.963 61.7498C149.857 61.3046 150.667 61.3415 151.253 61.8006C151.867 62.2812 152.223 63.1855 152.223 64.384C152.223 66.9119 150.633 69.771 148.66 70.7538C147.766 71.199 146.955 71.162 146.369 70.7029C145.755 70.2223 145.399 69.3181 145.399 68.1196C145.399 65.5901 146.988 62.7326 148.963 61.7498Z"
            fill="url(#paint41_linear_2797_54661)" fill-opacity="0.3" />
        <path fill-rule="evenodd" clip-rule="evenodd"
            d="M106.236 87.4525C106.236 89.0377 107.269 89.8094 108.544 89.1763L119.369 83.7847C120.642 83.15 121.676 81.3492 121.676 79.7641C121.676 78.1789 120.643 77.4056 119.369 78.0403L108.544 83.4304C107.269 84.065 106.236 85.8674 106.236 87.4525Z"
            fill="url(#paint42_linear_2797_54661)" fill-opacity="0.3" />
        <path fill-rule="evenodd" clip-rule="evenodd"
            d="M105.898 87.4521C105.898 88.3764 106.223 89.0542 106.71 89.4178C107.219 89.7983 107.921 89.866 108.698 89.4794L119.523 84.0878C120.894 83.4053 122.017 81.4705 122.017 79.7637C122.017 78.8394 121.693 78.1616 121.205 77.7981C120.696 77.4176 119.994 77.3498 119.218 77.7364L108.393 83.1265C107.023 83.8105 105.898 85.7453 105.898 87.4521ZM106.579 87.4521C106.579 85.9887 107.522 84.3188 108.698 83.7335L119.523 78.3434C120.021 78.0954 120.471 78.0969 120.797 78.3403C121.145 78.6006 121.337 79.1013 121.337 79.7637C121.337 81.2271 120.393 82.897 119.218 83.4824L108.393 88.874C107.895 89.122 107.445 89.1205 107.119 88.8771C106.771 88.6152 106.579 88.113 106.579 87.4521Z"
            fill="url(#paint43_linear_2797_54661)" fill-opacity="0.3" />
        <path fill-rule="evenodd" clip-rule="evenodd"
            d="M147.307 169.38L124.62 158.081C124.451 157.998 124.383 157.794 124.468 157.626C124.552 157.459 124.756 157.391 124.925 157.475L148.221 169.077C148.336 169.134 148.408 169.251 148.408 169.38C148.408 169.51 148.336 169.625 148.221 169.684L135.728 175.906C135.561 175.989 135.355 175.921 135.271 175.755C135.188 175.588 135.256 175.383 135.423 175.3L147.307 169.38Z"
            fill="url(#paint44_linear_2797_54661)" fill-opacity="0.3" />
        <path fill-rule="evenodd" clip-rule="evenodd"
            d="M166.629 159.758L178.231 153.98C178.4 153.897 178.604 153.965 178.688 154.131C178.771 154.299 178.703 154.502 178.536 154.585L166.782 160.439C166.686 160.487 166.573 160.487 166.477 160.439L143.18 148.838C143.012 148.755 142.944 148.551 143.029 148.383C143.112 148.217 143.317 148.148 143.485 148.233L166.629 159.758Z"
            fill="url(#paint45_linear_2797_54661)" fill-opacity="0.3" />
        <path fill-rule="evenodd" clip-rule="evenodd"
            d="M133.766 153.526L171.411 172.273C171.579 172.356 171.783 172.289 171.867 172.122C171.951 171.954 171.882 171.751 171.715 171.668L134.071 152.92C133.902 152.837 133.698 152.905 133.615 153.071C133.529 153.238 133.599 153.443 133.766 153.526Z"
            fill="url(#paint46_linear_2797_54661)" fill-opacity="0.3" />
        <path fill-rule="evenodd" clip-rule="evenodd"
            d="M173.874 169.969C177.366 169.969 180.202 171.381 180.202 173.121C180.202 174.86 177.366 176.272 173.874 176.272C170.381 176.272 167.545 174.86 167.545 173.121C167.545 171.381 170.381 169.969 173.874 169.969Z"
            fill="url(#paint47_linear_2797_54661)" fill-opacity="0.3" />
        <path fill-rule="evenodd" clip-rule="evenodd"
            d="M173.873 169.647C171.701 169.647 169.777 170.183 168.583 170.993C167.713 171.585 167.221 172.33 167.221 173.121C167.221 173.911 167.713 174.655 168.583 175.248C169.777 176.058 171.701 176.594 173.873 176.594C176.044 176.594 177.968 176.058 179.162 175.248C180.034 174.657 180.525 173.911 180.525 173.121C180.525 172.33 180.033 171.586 179.162 170.993C177.968 170.183 176.044 169.647 173.873 169.647ZM173.873 170.291C175.893 170.291 177.687 170.772 178.797 171.526C179.462 171.978 179.878 172.52 179.878 173.121C179.878 173.721 179.462 174.264 178.797 174.715C177.687 175.47 175.893 175.951 173.873 175.951C171.853 175.951 170.059 175.47 168.948 174.715C168.283 174.264 167.867 173.721 167.867 173.121C167.867 172.52 168.283 171.978 168.948 171.526C170.059 170.772 171.853 170.291 173.873 170.291Z"
            fill="url(#paint48_linear_2797_54661)" fill-opacity="0.3" />
        <path fill-rule="evenodd" clip-rule="evenodd"
            d="M180.714 149.97C184.206 149.97 187.042 151.383 187.042 153.122C187.042 154.861 184.207 156.274 180.714 156.274C177.221 156.274 174.385 154.861 174.385 153.122C174.385 151.383 177.22 149.97 180.714 149.97Z"
            fill="url(#paint49_linear_2797_54661)" fill-opacity="0.3" />
        <path fill-rule="evenodd" clip-rule="evenodd"
            d="M180.713 149.65C178.541 149.65 176.617 150.186 175.423 150.996C174.552 151.588 174.061 152.333 174.061 153.124C174.061 153.912 174.552 154.658 175.423 155.251C176.617 156.061 178.541 156.597 180.713 156.597C182.884 156.597 184.808 156.061 186.002 155.251C186.874 154.659 187.365 153.914 187.365 153.124C187.365 152.333 186.873 151.589 186.002 150.996C184.808 150.186 182.884 149.65 180.713 149.65ZM180.713 150.292C182.732 150.292 184.527 150.773 185.637 151.528C186.302 151.979 186.718 152.52 186.718 153.122C186.718 153.724 186.302 154.265 185.637 154.716C184.527 155.471 182.732 155.952 180.713 155.952C178.693 155.952 176.899 155.471 175.788 154.716C175.123 154.265 174.707 153.724 174.707 153.122C174.707 152.52 175.123 151.979 175.788 151.528C176.897 150.773 178.693 150.292 180.713 150.292Z"
            fill="url(#paint50_linear_2797_54661)" fill-opacity="0.3" />
        <path fill-rule="evenodd" clip-rule="evenodd"
            d="M133.719 173.375C137.212 173.375 140.048 174.788 140.048 176.527C140.048 178.266 137.213 179.679 133.719 179.679C130.226 179.679 127.391 178.266 127.391 176.527C127.391 174.788 130.227 173.375 133.719 173.375Z"
            fill="url(#paint51_linear_2797_54661)" fill-opacity="0.3" />
        <path fill-rule="evenodd" clip-rule="evenodd"
            d="M133.718 173.053C131.547 173.053 129.623 173.589 128.429 174.399C127.557 174.991 127.066 175.736 127.066 176.526C127.066 177.317 127.558 178.061 128.429 178.654C129.623 179.464 131.547 180 133.718 180C135.89 180 137.814 179.464 139.008 178.654C139.879 178.062 140.37 177.317 140.37 176.526C140.37 175.736 139.879 174.992 139.008 174.399C137.814 173.589 135.89 173.053 133.718 173.053ZM133.718 173.697C135.738 173.697 137.532 174.177 138.643 174.932C139.308 175.383 139.724 175.926 139.724 176.526C139.724 177.129 139.308 177.67 138.643 178.121C137.532 178.876 135.738 179.356 133.718 179.356C131.699 179.356 129.904 178.876 128.794 178.121C128.129 177.67 127.713 177.129 127.713 176.526C127.713 175.924 128.129 175.383 128.794 174.932C129.904 174.177 131.699 173.697 133.718 173.697Z"
            fill="url(#paint52_linear_2797_54661)" fill-opacity="0.3" />
    </g>
</svg>
