<svg width="25" height="25" viewBox="0 0 25 25" fill="none" xmlns="http://www.w3.org/2000/svg">
    <path fill-rule="evenodd" clip-rule="evenodd"
        d="M0.445681 22.1351L0.439798 22.2057L0.148623 22.1763L0.154505 22.1057C1.32803 10.641 10.4986 1.47044 21.9633 0.293968L22.0339 0.288086L22.0633 0.582204L21.9927 0.588086C10.6663 1.74985 1.6045 10.8116 0.445681 22.1351ZM2.97803 24.9851L2.59568 24.994V24.6999L2.82803 24.694C8.59274 24.6322 14.0222 22.344 18.1133 18.2557C22.2045 14.1675 24.4898 8.73809 24.5516 2.97044L24.5574 2.73514H24.8516L24.8457 3.1175H24.8427C24.7457 8.90867 22.4369 14.3557 18.3251 18.4646C14.2133 22.5734 8.76921 24.8881 2.97803 24.9851ZM16.2398 13.6028C16.2398 12.4469 15.3016 11.5116 14.1486 11.5116C12.9927 11.5116 12.0574 12.4499 12.0574 13.6028C12.0574 14.7587 12.9927 15.694 14.1486 15.694C15.3045 15.694 16.2398 14.7587 16.2398 13.6028ZM2.83686 24.5175L2.68686 24.5204L2.6898 24.3704C2.75156 18.6528 5.01921 13.2734 9.07509 9.2175C13.128 5.16162 18.5104 2.89397 24.228 2.8322L24.378 2.82926V2.97926C24.3133 8.69691 22.0457 14.0793 17.9898 18.1322C13.9369 22.1881 8.5545 24.4557 2.83686 24.5175ZM17.7839 17.9234C21.7486 13.9587 23.981 8.70867 24.081 3.12632C18.4957 3.22632 13.2457 5.45867 9.28391 9.42338C5.31921 13.3881 3.08685 18.6381 2.98686 24.2204C8.56921 24.1204 13.8192 21.8881 17.7839 17.9234Z"
        fill="#00FFC8" />
</svg>
