<svg width="25" height="25" viewBox="0 0 25 25" fill="none" xmlns="http://www.w3.org/2000/svg">
    <path fill-rule="evenodd" clip-rule="evenodd"
        d="M24.5543 22.1351L24.5602 22.2057L24.8514 22.1763L24.8455 22.1057C23.672 10.641 14.5014 1.47044 3.03667 0.293968L2.96608 0.288086L2.93667 0.582204L3.00726 0.588086C14.3337 1.74985 23.3955 10.8116 24.5543 22.1351ZM22.022 24.9851L22.4043 24.994V24.6999L22.172 24.694C16.4073 24.6322 10.9778 22.344 6.88667 18.2557C2.7955 14.1675 0.510202 8.73809 0.448438 2.97044L0.442555 2.73514H0.148438L0.15432 3.1175H0.157261C0.25432 8.90867 2.56314 14.3557 6.67491 18.4646C10.7867 22.5734 16.2308 24.8881 22.022 24.9851ZM8.7602 13.6028C8.7602 12.4469 9.69844 11.5116 10.8514 11.5116C12.0073 11.5116 12.9426 12.4499 12.9426 13.6028C12.9426 14.7587 12.0073 15.694 10.8514 15.694C9.6955 15.694 8.7602 14.7587 8.7602 13.6028ZM22.1631 24.5175L22.3131 24.5204L22.3102 24.3704C22.2484 18.6528 19.9808 13.2734 15.9249 9.2175C11.872 5.16162 6.48961 2.89397 0.771967 2.8322L0.621967 2.82926V2.97926C0.686673 8.69691 2.95432 14.0793 7.0102 18.1322C11.0631 22.1881 16.4455 24.4557 22.1631 24.5175ZM7.21608 17.9234C3.25138 13.9587 1.01903 8.70867 0.919026 3.12632C6.50432 3.22632 11.7543 5.45867 15.7161 9.42338C19.6808 13.3881 21.9131 18.6381 22.0131 24.2204C16.4308 24.1204 11.1808 21.8881 7.21608 17.9234Z"
        fill="#00FFC8" />
</svg>
