<svg width="120" height="121" viewBox="0 0 120 121" fill="none" xmlns="http://www.w3.org/2000/svg">
<circle opacity="0.12" cx="60" cy="60.7559" r="50" transform="rotate(-90 60 60.7559)" fill="#00FFC8"/>
<path fill-rule="evenodd" clip-rule="evenodd" d="M10.75 60.7559C10.75 33.5558 32.8 11.5059 60 11.5059C63.3959 11.5059 66.7115 11.8496 69.9139 12.504C68.8075 12.812 67.6875 13.2794 66.565 13.8885C63.3932 15.6097 60.1367 18.4941 56.9741 22.2747C50.6462 29.8393 44.5924 41.1149 40.2781 54.3053C35.9638 67.4958 34.1846 80.1695 34.8193 90.0114C35.1365 94.9301 36.0591 99.1814 37.6008 102.444C38.1471 103.601 38.7754 104.641 39.4873 105.544C22.5284 97.7641 10.75 80.6355 10.75 60.7559ZM50.0861 109.008C53.2886 109.662 56.6041 110.006 60 110.006C87.2 110.006 109.25 87.9559 109.25 60.7559C109.25 40.8763 97.4716 23.7476 80.5127 15.9678C81.2246 16.871 81.8529 17.9111 82.3992 19.0674C83.9409 22.3304 84.8635 26.5816 85.1807 31.5003C85.8154 41.3423 84.0362 54.0159 79.7219 67.2064C75.4076 80.3969 69.3538 91.6724 63.0259 99.237C59.8633 103.018 56.6068 105.902 53.435 107.623C52.3125 108.232 51.1926 108.7 50.0861 109.008ZM60 10.0059C31.9715 10.0059 9.25 32.7274 9.25 60.7559C9.25 88.7843 31.9715 111.506 60 111.506C88.0285 111.506 110.75 88.7843 110.75 60.7559C110.75 32.7274 88.0285 10.0059 60 10.0059ZM41.7038 54.7717C45.9739 41.7161 51.9471 30.6221 58.1247 23.2371C61.2149 19.543 64.3308 16.8075 67.2805 15.2069C70.2282 13.6073 72.9448 13.1724 75.3102 13.946C77.6757 14.7197 79.6103 16.6759 81.043 19.7082C82.4767 22.7426 83.3739 26.7906 83.6838 31.5969C84.3035 41.205 82.5663 53.6845 78.2962 66.7401C74.0261 79.7956 68.053 90.8896 61.8753 98.2746C58.7851 101.969 55.6692 104.704 52.7196 106.305C49.7718 107.904 47.0552 108.339 44.6898 107.566C42.3243 106.792 40.3898 104.836 38.957 101.803C37.5233 98.7691 36.6261 94.7212 36.3162 89.9148C35.6965 80.3067 37.4337 67.8272 41.7038 54.7717Z" fill="#00FFC8"/>
</svg>
