<svg width="97" height="76" viewBox="0 0 97 76" fill="none" xmlns="http://www.w3.org/2000/svg">
    <path
        d="M96.1303 9.51801C92.6129 11.011 88.8295 12.0207 84.8609 12.4754C88.9132 10.1501 92.0242 6.47191 93.4885 2.08724C89.6992 4.2381 85.4974 5.79977 81.0297 6.64352C77.4495 2.99392 72.3512 0.714355 66.709 0.714355C55.8729 0.714355 47.0899 9.12044 47.0899 19.4915C47.0899 20.9616 47.2632 22.3946 47.5979 23.7703C31.29 22.9866 16.8349 15.5101 7.15826 4.14944C5.46979 6.92382 4.50153 10.1501 4.50153 13.5909C4.50153 20.1036 7.96514 25.8525 13.2278 29.219C10.0122 29.1217 6.98792 28.278 4.34314 26.8708C4.34015 26.9508 4.34015 27.0281 4.34015 27.1082C4.34015 36.2064 11.103 43.7945 20.0803 45.5192C18.4337 45.9482 16.7004 46.177 14.9103 46.177C13.6462 46.177 12.4179 46.0597 11.2196 45.8424C13.7149 53.3017 20.9619 58.7304 29.5477 58.882C22.8327 63.9187 14.3724 66.9191 5.17991 66.9191C3.59603 66.9191 2.03606 66.8304 0.5 66.6588C9.18144 71.9845 19.4946 75.0935 30.5757 75.0935C66.6642 75.0935 86.3969 46.4802 86.3969 21.6681C86.3969 20.8529 86.379 20.0435 86.3402 19.2369C90.1743 16.5912 93.5005 13.2849 96.1303 9.51801"
        stroke="#00FFC8" />
</svg>
