<svg width="24" height="25" viewBox="0 0 24 25" fill="none" xmlns="http://www.w3.org/2000/svg">
<path fill-rule="evenodd" clip-rule="evenodd" d="M20 16.4785H18C16.895 16.4785 16 15.5835 16 14.4785V14.4785C16 13.3735 16.895 12.4785 18 12.4785H20C20.552 12.4785 21 12.9265 21 13.4785V15.4785C21 16.0305 20.552 16.4785 20 16.4785Z" stroke="#00FFC8" stroke-linecap="round" stroke-linejoin="round"/>
<path d="M20 12.4785V9.47852C20 8.37352 19.105 7.47852 18 7.47852H4.5C3.672 7.47852 3 6.80652 3 5.97852V5.97852C3 5.15052 3.672 4.47852 4.5 4.47852H17" stroke="#00FFC8" stroke-linecap="round" stroke-linejoin="round"/>
<path d="M20 16.4785V19.4785C20 20.5835 19.105 21.4785 18 21.4785H5C3.895 21.4785 3 20.5835 3 19.4785V5.97852" stroke="#00FFC8" stroke-linecap="round" stroke-linejoin="round"/>
</svg>
