<svg width="241" height="250" viewBox="0 0 241 250" fill="none" xmlns="http://www.w3.org/2000/svg">
<g opacity="0.2" clip-path="url(#clip0_8906_9339)">
<path d="M117.241 245.523C177.692 245.523 226.697 196.518 226.697 136.067C226.697 75.616 177.692 26.6108 117.241 26.6108C56.7903 26.6108 7.78516 75.616 7.78516 136.067C7.78516 196.518 56.7903 245.523 117.241 245.523Z" stroke="#00FFC8" stroke-width="0.5" stroke-miterlimit="10"/>
<path d="M117.241 245.523C177.692 245.523 226.697 196.518 226.697 136.067C226.697 75.616 177.692 26.6108 117.241 26.6108C56.7903 26.6108 7.78516 75.616 7.78516 136.067C7.78516 196.518 56.7903 245.523 117.241 245.523Z" stroke="#00FFC8" stroke-width="2" stroke-miterlimit="10" stroke-linecap="round"/>
<path d="M117.239 195.173C149.883 195.173 176.345 168.711 176.345 136.067C176.345 103.424 149.883 76.9609 117.239 76.9609C84.5956 76.9609 58.1328 103.424 58.1328 136.067C58.1328 168.711 84.5956 195.173 117.239 195.173Z" stroke="#00FFC8" stroke-miterlimit="10" stroke-linecap="round"/>
<path d="M117.239 168.904C135.375 168.904 150.076 154.203 150.076 136.067C150.076 117.932 135.375 103.23 117.239 103.23C99.1039 103.23 84.4023 117.932 84.4023 136.067C84.4023 154.203 99.1039 168.904 117.239 168.904Z" stroke="#00FFC8" stroke-miterlimit="10" stroke-linecap="round"/>
<path opacity="0.3" d="M108.989 237.314C164.906 237.314 210.236 191.984 210.236 136.067C210.236 80.1501 164.906 34.8203 108.989 34.8203C53.072 34.8203 7.74219 80.1501 7.74219 136.067C7.74219 191.984 53.072 237.314 108.989 237.314Z" stroke="#00FFC8" stroke-miterlimit="10"/>
<path opacity="0.3" d="M89.8551 218.18C135.205 218.18 171.968 181.417 171.968 136.067C171.968 90.7173 135.205 53.9541 89.8551 53.9541C44.5054 53.9541 7.74219 90.7173 7.74219 136.067C7.74219 181.417 44.5054 218.18 89.8551 218.18Z" stroke="#00FFC8" stroke-miterlimit="10"/>
<path opacity="0.3" d="M144.625 218.18C189.974 218.18 226.738 181.417 226.738 136.067C226.738 90.7173 189.974 53.9541 144.625 53.9541C99.2749 53.9541 62.5117 90.7173 62.5117 136.067C62.5117 181.417 99.2749 218.18 144.625 218.18Z" stroke="#00FFC8" stroke-miterlimit="10"/>
<path opacity="0.3" d="M125.407 237.314C181.324 237.314 226.654 191.984 226.654 136.067C226.654 80.1501 181.324 34.8203 125.407 34.8203C69.4899 34.8203 24.1602 80.1501 24.1602 136.067C24.1602 191.984 69.4899 237.314 125.407 237.314Z" stroke="#00FFC8" stroke-miterlimit="10"/>
<path d="M117.24 190.795C147.465 190.795 171.968 166.292 171.968 136.067C171.968 105.841 147.465 81.3389 117.24 81.3389C87.0143 81.3389 62.5117 105.841 62.5117 136.067C62.5117 166.292 87.0143 190.795 117.24 190.795Z" stroke="#00FFC8" stroke-linecap="round" stroke-linejoin="round"/>
<path opacity="0.4" d="M117.24 190.795C147.465 190.795 171.968 166.292 171.968 136.067C171.968 105.841 147.465 81.3389 117.24 81.3389C87.0143 81.3389 62.5117 105.841 62.5117 136.067C62.5117 166.292 87.0143 190.795 117.24 190.795Z" stroke="#00FFC8" stroke-linecap="round" stroke-linejoin="round"/>
<path opacity="0.6" d="M117.241 192.984C148.676 192.984 174.159 167.502 174.159 136.067C174.159 104.633 148.676 79.1499 117.241 79.1499C85.8069 79.1499 60.3242 104.633 60.3242 136.067C60.3242 167.502 85.8069 192.984 117.241 192.984Z" stroke="#00FFC8" stroke-linecap="round" stroke-linejoin="round"/>
<path opacity="0.2" d="M117.239 195.173C149.883 195.173 176.345 168.711 176.345 136.067C176.345 103.424 149.883 76.9609 117.239 76.9609C84.5956 76.9609 58.1328 103.424 58.1328 136.067C58.1328 168.711 84.5956 195.173 117.239 195.173Z" stroke="#00FFC8" stroke-linecap="round" stroke-linejoin="round"/>
<path opacity="0.8" d="M117.242 188.606C146.259 188.606 169.781 165.083 169.781 136.067C169.781 107.05 146.259 83.5278 117.242 83.5278C88.2256 83.5278 64.7031 107.05 64.7031 136.067C64.7031 165.083 88.2256 188.606 117.242 188.606Z" stroke="#00FFC8" stroke-linecap="round" stroke-linejoin="round"/>
<path opacity="0.6" d="M117.24 186.417C145.048 186.417 167.59 163.875 167.59 136.067C167.59 108.26 145.048 85.7173 117.24 85.7173C89.433 85.7173 66.8906 108.26 66.8906 136.067C66.8906 163.875 89.433 186.417 117.24 186.417Z" stroke="#00FFC8" stroke-linecap="round" stroke-linejoin="round"/>
<path opacity="0.4" d="M117.239 184.228C143.837 184.228 165.4 162.665 165.4 136.067C165.4 109.469 143.837 87.9062 117.239 87.9062C90.6404 87.9062 69.0781 109.469 69.0781 136.067C69.0781 162.665 90.6404 184.228 117.239 184.228Z" stroke="#00FFC8" stroke-linecap="round" stroke-linejoin="round"/>
<path opacity="0.2" d="M117.241 182.039C142.631 182.039 163.213 161.457 163.213 136.067C163.213 110.678 142.631 90.0957 117.241 90.0957C91.8517 90.0957 71.2695 110.678 71.2695 136.067C71.2695 161.457 91.8517 182.039 117.241 182.039Z" stroke="#00FFC8" stroke-linecap="round" stroke-linejoin="round"/>
<g opacity="0.5">
<path opacity="0.5" d="M117.24 136.065C147.465 136.065 171.968 111.562 171.968 81.337C171.968 51.1115 147.465 26.6089 117.24 26.6089C87.0143 26.6089 62.5117 51.1115 62.5117 81.337C62.5117 111.562 87.0143 136.065 117.24 136.065Z" stroke="#00FFC8" stroke-linecap="round" stroke-linejoin="round"/>
<path opacity="0.4" d="M117.24 136.065C147.465 136.065 171.968 111.562 171.968 81.337C171.968 51.1115 147.465 26.6089 117.24 26.6089C87.0143 26.6089 62.5117 51.1115 62.5117 81.337C62.5117 111.562 87.0143 136.065 117.24 136.065Z" stroke="#00FFC8" stroke-linecap="round" stroke-linejoin="round"/>
<path opacity="0.6" d="M117.237 138.254C148.672 138.254 174.155 112.771 174.155 81.3366C174.155 49.9021 148.672 24.4194 117.237 24.4194C85.803 24.4194 60.3203 49.9021 60.3203 81.3366C60.3203 112.771 85.803 138.254 117.237 138.254Z" stroke="#00FFC8" stroke-linecap="round" stroke-linejoin="round"/>
<path opacity="0.2" d="M117.239 140.443C149.883 140.443 176.345 113.98 176.345 81.3368C176.345 48.6933 149.883 22.2305 117.239 22.2305C84.5956 22.2305 58.1328 48.6933 58.1328 81.3368C58.1328 113.98 84.5956 140.443 117.239 140.443Z" stroke="#00FFC8" stroke-linecap="round" stroke-linejoin="round"/>
<path opacity="0.8" d="M117.238 133.876C146.255 133.876 169.777 110.353 169.777 81.3368C169.777 52.3203 146.255 28.7979 117.238 28.7979C88.2217 28.7979 64.6992 52.3203 64.6992 81.3368C64.6992 110.353 88.2217 133.876 117.238 133.876Z" stroke="#00FFC8" stroke-linecap="round" stroke-linejoin="round"/>
<path opacity="0.6" d="M117.24 131.686C145.048 131.686 167.59 109.144 167.59 81.3366C167.59 53.5292 145.048 30.9868 117.24 30.9868C89.433 30.9868 66.8906 53.5292 66.8906 81.3366C66.8906 109.144 89.433 131.686 117.24 131.686Z" stroke="#00FFC8" stroke-linecap="round" stroke-linejoin="round"/>
<path opacity="0.4" d="M117.239 129.498C143.837 129.498 165.4 107.935 165.4 81.3369C165.4 54.7385 143.837 33.1763 117.239 33.1763C90.6404 33.1763 69.0781 54.7385 69.0781 81.3369C69.0781 107.935 90.6404 129.498 117.239 129.498Z" stroke="#00FFC8" stroke-linecap="round" stroke-linejoin="round"/>
<path opacity="0.2" d="M117.237 127.308C142.627 127.308 163.209 106.726 163.209 81.3368C163.209 55.9474 142.627 35.3652 117.237 35.3652C91.8478 35.3652 71.2656 55.9474 71.2656 81.3368C71.2656 106.726 91.8478 127.308 117.237 127.308Z" stroke="#00FFC8" stroke-linecap="round" stroke-linejoin="round"/>
</g>
<g opacity="0.5">
<path opacity="0.5" d="M117.24 245.567C147.465 245.567 171.968 221.064 171.968 190.839C171.968 160.613 147.465 136.111 117.24 136.111C87.0143 136.111 62.5117 160.613 62.5117 190.839C62.5117 221.064 87.0143 245.567 117.24 245.567Z" stroke="#00FFC8" stroke-linecap="round" stroke-linejoin="round"/>
<path opacity="0.9" d="M117.239 244.472C146.86 244.472 170.872 220.46 170.872 190.839C170.872 161.218 146.86 137.205 117.239 137.205C87.618 137.205 63.6055 161.218 63.6055 190.839C63.6055 220.46 87.618 244.472 117.239 244.472Z" stroke="#00FFC8" stroke-linecap="round" stroke-linejoin="round"/>
<path opacity="0.6" d="M117.237 247.756C148.672 247.756 174.155 222.274 174.155 190.839C174.155 159.405 148.672 133.922 117.237 133.922C85.803 133.922 60.3203 159.405 60.3203 190.839C60.3203 222.274 85.803 247.756 117.237 247.756Z" stroke="#00FFC8" stroke-linecap="round" stroke-linejoin="round"/>
<path opacity="0.2" d="M117.239 249.945C149.883 249.945 176.345 223.482 176.345 190.839C176.345 158.195 149.883 131.732 117.239 131.732C84.5956 131.732 58.1328 158.195 58.1328 190.839C58.1328 223.482 84.5956 249.945 117.239 249.945Z" stroke="#00FFC8" stroke-linecap="round" stroke-linejoin="round"/>
<path opacity="0.7" d="M117.237 242.283C145.649 242.283 168.682 219.251 168.682 190.839C168.682 162.427 145.649 139.395 117.237 139.395C88.8254 139.395 65.793 162.427 65.793 190.839C65.793 219.251 88.8254 242.283 117.237 242.283Z" stroke="#00FFC8" stroke-linecap="round" stroke-linejoin="round"/>
<path opacity="0.5" d="M117.24 240.094C144.443 240.094 166.495 218.042 166.495 190.839C166.495 163.636 144.443 141.583 117.24 141.583C90.0367 141.583 67.9844 163.636 67.9844 190.839C67.9844 218.042 90.0367 240.094 117.24 240.094Z" stroke="#00FFC8" stroke-linecap="round" stroke-linejoin="round"/>
<path opacity="0.3" d="M117.238 237.905C143.232 237.905 164.304 216.832 164.304 190.839C164.304 164.845 143.232 143.772 117.238 143.772C91.2441 143.772 70.1719 164.845 70.1719 190.839C70.1719 216.832 91.2441 237.905 117.238 237.905Z" stroke="#00FFC8" stroke-linecap="round" stroke-linejoin="round"/>
<path opacity="0.1" d="M117.24 235.716C142.025 235.716 162.117 215.624 162.117 190.839C162.117 166.054 142.025 145.962 117.24 145.962C92.4554 145.962 72.3633 166.054 72.3633 190.839C72.3633 215.624 92.4554 235.716 117.24 235.716Z" stroke="#00FFC8" stroke-linecap="round" stroke-linejoin="round"/>
</g>
<g opacity="0.5">
<path opacity="0.5" d="M62.5132 190.795C92.7387 190.795 117.241 166.293 117.241 136.067C117.241 105.842 92.7387 81.3394 62.5132 81.3394C32.2877 81.3394 7.78516 105.842 7.78516 136.067C7.78516 166.293 32.2877 190.795 62.5132 190.795Z" stroke="#00FFC8" stroke-linecap="round" stroke-linejoin="round"/>
<path opacity="0.4" d="M62.5132 190.795C92.7387 190.795 117.241 166.293 117.241 136.067C117.241 105.842 92.7387 81.3394 62.5132 81.3394C32.2877 81.3394 7.78516 105.842 7.78516 136.067C7.78516 166.293 32.2877 190.795 62.5132 190.795Z" stroke="#00FFC8" stroke-linecap="round" stroke-linejoin="round"/>
<path opacity="0.6" d="M62.5109 192.984C93.9454 192.984 119.428 167.502 119.428 136.067C119.428 104.633 93.9454 79.1499 62.5109 79.1499C31.0764 79.1499 5.59375 104.633 5.59375 136.067C5.59375 167.502 31.0764 192.984 62.5109 192.984Z" stroke="#00FFC8" stroke-linecap="round" stroke-linejoin="round"/>
<path opacity="0.2" d="M62.5126 195.173C95.1561 195.173 121.619 168.711 121.619 136.067C121.619 103.424 95.1561 76.9609 62.5126 76.9609C29.8691 76.9609 3.40625 103.424 3.40625 136.067C3.40625 168.711 29.8691 195.173 62.5126 195.173Z" stroke="#00FFC8" stroke-linecap="round" stroke-linejoin="round"/>
<path opacity="0.8" d="M62.5116 188.606C91.5281 188.606 115.051 165.084 115.051 136.067C115.051 107.051 91.5281 83.5283 62.5116 83.5283C33.4951 83.5283 9.97266 107.051 9.97266 136.067C9.97266 165.084 33.4951 188.606 62.5116 188.606Z" stroke="#00FFC8" stroke-linecap="round" stroke-linejoin="round"/>
<path opacity="0.6" d="M62.5139 186.417C90.3213 186.417 112.864 163.875 112.864 136.067C112.864 108.26 90.3213 85.7173 62.5139 85.7173C34.7064 85.7173 12.1641 108.26 12.1641 136.067C12.1641 163.875 34.7064 186.417 62.5139 186.417Z" stroke="#00FFC8" stroke-linecap="round" stroke-linejoin="round"/>
<path opacity="0.4" d="M62.5123 184.228C89.1107 184.228 110.673 162.666 110.673 136.067C110.673 109.469 89.1107 87.9067 62.5123 87.9067C35.9138 87.9067 14.3516 109.469 14.3516 136.067C14.3516 162.666 35.9138 184.228 62.5123 184.228Z" stroke="#00FFC8" stroke-linecap="round" stroke-linejoin="round"/>
<path opacity="0.2" d="M62.5106 182.039C87.9 182.039 108.482 161.457 108.482 136.067C108.482 110.678 87.9 90.0957 62.5106 90.0957C37.1212 90.0957 16.5391 110.678 16.5391 136.067C16.5391 161.457 37.1212 182.039 62.5106 182.039Z" stroke="#00FFC8" stroke-linecap="round" stroke-linejoin="round"/>
</g>
<g opacity="0.5">
<path opacity="0.5" d="M171.97 190.795C202.196 190.795 226.698 166.293 226.698 136.067C226.698 105.842 202.196 81.3394 171.97 81.3394C141.745 81.3394 117.242 105.842 117.242 136.067C117.242 166.293 141.745 190.795 171.97 190.795Z" stroke="#00FFC8" stroke-linecap="round" stroke-linejoin="round"/>
<path opacity="0.4" d="M171.97 190.795C202.196 190.795 226.698 166.293 226.698 136.067C226.698 105.842 202.196 81.3394 171.97 81.3394C141.745 81.3394 117.242 105.842 117.242 136.067C117.242 166.293 141.745 190.795 171.97 190.795Z" stroke="#00FFC8" stroke-linecap="round" stroke-linejoin="round"/>
<path opacity="0.6" d="M171.968 192.984C203.402 192.984 228.885 167.502 228.885 136.067C228.885 104.633 203.402 79.1499 171.968 79.1499C140.533 79.1499 115.051 104.633 115.051 136.067C115.051 167.502 140.533 192.984 171.968 192.984Z" stroke="#00FFC8" stroke-linecap="round" stroke-linejoin="round"/>
<path opacity="0.2" d="M171.97 195.173C204.613 195.173 231.076 168.711 231.076 136.067C231.076 103.424 204.613 76.9609 171.97 76.9609C139.326 76.9609 112.863 103.424 112.863 136.067C112.863 168.711 139.326 195.173 171.97 195.173Z" stroke="#00FFC8" stroke-linecap="round" stroke-linejoin="round"/>
<path opacity="0.8" d="M171.969 188.606C200.985 188.606 224.508 165.084 224.508 136.067C224.508 107.051 200.985 83.5283 171.969 83.5283C142.952 83.5283 119.43 107.051 119.43 136.067C119.43 165.084 142.952 188.606 171.969 188.606Z" stroke="#00FFC8" stroke-linecap="round" stroke-linejoin="round"/>
<path opacity="0.6" d="M171.971 186.417C199.778 186.417 222.321 163.875 222.321 136.067C222.321 108.26 199.778 85.7173 171.971 85.7173C144.163 85.7173 121.621 108.26 121.621 136.067C121.621 163.875 144.163 186.417 171.971 186.417Z" stroke="#00FFC8" stroke-linecap="round" stroke-linejoin="round"/>
<path opacity="0.4" d="M171.969 184.228C198.568 184.228 220.13 162.666 220.13 136.067C220.13 109.469 198.568 87.9067 171.969 87.9067C145.371 87.9067 123.809 109.469 123.809 136.067C123.809 162.666 145.371 184.228 171.969 184.228Z" stroke="#00FFC8" stroke-linecap="round" stroke-linejoin="round"/>
<path opacity="0.2" d="M171.968 182.039C197.357 182.039 217.939 161.457 217.939 136.067C217.939 110.678 197.357 90.0957 171.968 90.0957C146.578 90.0957 125.996 110.678 125.996 136.067C125.996 161.457 146.578 182.039 171.968 182.039Z" stroke="#00FFC8" stroke-linecap="round" stroke-linejoin="round"/>
</g>
<path d="M24.2426 152.529C33.3103 152.529 40.6611 145.178 40.6611 136.111C40.6611 127.043 33.3103 119.692 24.2426 119.692C15.175 119.692 7.82422 127.043 7.82422 136.111C7.82422 145.178 15.175 152.529 24.2426 152.529Z" stroke="#00FFC8" stroke-linecap="round" stroke-linejoin="round"/>
<path opacity="0.8" d="M24.2418 151.435C32.705 151.435 39.5657 144.574 39.5657 136.111C39.5657 127.648 32.705 120.787 24.2418 120.787C15.7787 120.787 8.91797 127.648 8.91797 136.111C8.91797 144.574 15.7787 151.435 24.2418 151.435Z" stroke="#00FFC8" stroke-linecap="round" stroke-linejoin="round"/>
<path opacity="0.6" d="M24.241 150.34C32.0996 150.34 38.4703 143.97 38.4703 136.111C38.4703 128.252 32.0996 121.882 24.241 121.882C16.3824 121.882 10.0117 128.252 10.0117 136.111C10.0117 143.97 16.3824 150.34 24.241 150.34Z" stroke="#00FFC8" stroke-linecap="round" stroke-linejoin="round"/>
<path opacity="0.4" d="M24.2441 149.246C31.4982 149.246 37.3788 143.365 37.3788 136.111C37.3788 128.857 31.4982 122.976 24.2441 122.976C16.99 122.976 11.1094 128.857 11.1094 136.111C11.1094 143.365 16.99 149.246 24.2441 149.246Z" stroke="#00FFC8" stroke-linecap="round" stroke-linejoin="round"/>
<path opacity="0.2" d="M24.2433 148.151C30.8929 148.151 36.2835 142.761 36.2835 136.111C36.2835 129.461 30.8929 124.071 24.2433 124.071C17.5937 124.071 12.2031 129.461 12.2031 136.111C12.2031 142.761 17.5937 148.151 24.2433 148.151Z" stroke="#00FFC8" stroke-linecap="round" stroke-linejoin="round"/>
<path d="M210.274 152.529C219.342 152.529 226.692 145.178 226.692 136.111C226.692 127.043 219.342 119.692 210.274 119.692C201.206 119.692 193.855 127.043 193.855 136.111C193.855 145.178 201.206 152.529 210.274 152.529Z" stroke="#00FFC8" stroke-linecap="round" stroke-linejoin="round"/>
<path opacity="0.8" d="M210.277 151.435C218.74 151.435 225.601 144.574 225.601 136.111C225.601 127.648 218.74 120.787 210.277 120.787C201.814 120.787 194.953 127.648 194.953 136.111C194.953 144.574 201.814 151.435 210.277 151.435Z" stroke="#00FFC8" stroke-linecap="round" stroke-linejoin="round"/>
<path opacity="0.6" d="M210.276 150.34C218.135 150.34 224.505 143.97 224.505 136.111C224.505 128.252 218.135 121.882 210.276 121.882C202.418 121.882 196.047 128.252 196.047 136.111C196.047 143.97 202.418 150.34 210.276 150.34Z" stroke="#00FFC8" stroke-linecap="round" stroke-linejoin="round"/>
<path opacity="0.4" d="M210.275 149.246C217.529 149.246 223.41 143.365 223.41 136.111C223.41 128.857 217.529 122.976 210.275 122.976C203.021 122.976 197.141 128.857 197.141 136.111C197.141 143.365 203.021 149.246 210.275 149.246Z" stroke="#00FFC8" stroke-linecap="round" stroke-linejoin="round"/>
<path opacity="0.2" d="M210.275 148.151C216.924 148.151 222.315 142.761 222.315 136.111C222.315 129.461 216.924 124.071 210.275 124.071C203.625 124.071 198.234 129.461 198.234 136.111C198.234 142.761 203.625 148.151 210.275 148.151Z" stroke="#00FFC8" stroke-linecap="round" stroke-linejoin="round"/>
<path d="M117.239 152.529C126.306 152.529 133.657 145.178 133.657 136.111C133.657 127.043 126.306 119.692 117.239 119.692C108.171 119.692 100.82 127.043 100.82 136.111C100.82 145.178 108.171 152.529 117.239 152.529Z" stroke="#00FFC8" stroke-linecap="round" stroke-linejoin="round"/>
<path opacity="0.6" d="M117.237 150.34C125.096 150.34 131.466 143.97 131.466 136.111C131.466 128.252 125.096 121.882 117.237 121.882C109.378 121.882 103.008 128.252 103.008 136.111C103.008 143.97 109.378 150.34 117.237 150.34Z" stroke="#00FFC8" stroke-linecap="round" stroke-linejoin="round"/>
<path opacity="0.2" d="M117.239 148.151C123.889 148.151 129.28 142.761 129.28 136.111C129.28 129.461 123.889 124.071 117.239 124.071C110.59 124.071 105.199 129.461 105.199 136.111C105.199 142.761 110.59 148.151 117.239 148.151Z" stroke="#00FFC8" stroke-linecap="round" stroke-linejoin="round"/>
<g opacity="0.5">
<path opacity="0.5" d="M100.821 152.529C109.888 152.529 117.239 145.178 117.239 136.111C117.239 127.043 109.888 119.692 100.821 119.692C91.7531 119.692 84.4023 127.043 84.4023 136.111C84.4023 145.178 91.7531 152.529 100.821 152.529Z" stroke="#00FFC8" stroke-linecap="round" stroke-linejoin="round"/>
<path opacity="0.6" d="M100.819 150.34C108.678 150.34 115.048 143.969 115.048 136.111C115.048 128.252 108.678 121.881 100.819 121.881C92.9605 121.881 86.5898 128.252 86.5898 136.111C86.5898 143.969 92.9605 150.34 100.819 150.34Z" stroke="#00FFC8" stroke-linecap="round" stroke-linejoin="round"/>
<path opacity="0.2" d="M100.821 148.151C107.471 148.151 112.862 142.761 112.862 136.111C112.862 129.461 107.471 124.071 100.821 124.071C94.1718 124.071 88.7812 129.461 88.7812 136.111C88.7812 142.761 94.1718 148.151 100.821 148.151Z" stroke="#00FFC8" stroke-linecap="round" stroke-linejoin="round"/>
</g>
<g opacity="0.5">
<path opacity="0.5" d="M133.657 152.529C142.724 152.529 150.075 145.178 150.075 136.111C150.075 127.043 142.724 119.692 133.657 119.692C124.589 119.692 117.238 127.043 117.238 136.111C117.238 145.178 124.589 152.529 133.657 152.529Z" stroke="#00FFC8" stroke-linecap="round" stroke-linejoin="round"/>
<path opacity="0.6" d="M133.655 150.34C141.514 150.34 147.884 143.969 147.884 136.111C147.884 128.252 141.514 121.881 133.655 121.881C125.796 121.881 119.426 128.252 119.426 136.111C119.426 143.969 125.796 150.34 133.655 150.34Z" stroke="#00FFC8" stroke-linecap="round" stroke-linejoin="round"/>
<path opacity="0.2" d="M133.657 148.151C140.307 148.151 145.698 142.761 145.698 136.111C145.698 129.461 140.307 124.071 133.657 124.071C127.008 124.071 121.617 129.461 121.617 136.111C121.617 142.761 127.008 148.151 133.657 148.151Z" stroke="#00FFC8" stroke-linecap="round" stroke-linejoin="round"/>
</g>
<path d="M62.5082 81.8865C62.8105 81.8865 63.0555 81.6415 63.0555 81.3393C63.0555 81.037 62.8105 80.792 62.5082 80.792C62.206 80.792 61.9609 81.037 61.9609 81.3393C61.9609 81.6415 62.206 81.8865 62.5082 81.8865Z" fill="black" stroke="#00FFC8" stroke-miterlimit="10"/>
<path d="M117.239 59.7629C117.844 59.7629 118.334 59.2728 118.334 58.6683C118.334 58.0638 117.844 57.5737 117.239 57.5737C116.635 57.5737 116.145 58.0638 116.145 58.6683C116.145 59.2728 116.635 59.7629 117.239 59.7629Z" fill="black" stroke="#00FFC8" stroke-miterlimit="10"/>
<path d="M117.239 214.559C117.844 214.559 118.334 214.069 118.334 213.465C118.334 212.86 117.844 212.37 117.239 212.37C116.635 212.37 116.145 212.86 116.145 213.465C116.145 214.069 116.635 214.559 117.239 214.559Z" fill="black" stroke="#00FFC8" stroke-miterlimit="10"/>
<path d="M117.239 246.114C117.541 246.114 117.786 245.869 117.786 245.567C117.786 245.265 117.541 245.02 117.239 245.02C116.936 245.02 116.691 245.265 116.691 245.567C116.691 245.869 116.936 246.114 117.239 246.114Z" fill="black" stroke="#00FFC8" stroke-miterlimit="10"/>
<path d="M117.238 237.328C117.39 237.328 117.512 237.206 117.512 237.055C117.512 236.904 117.39 236.781 117.238 236.781C117.087 236.781 116.965 236.904 116.965 237.055C116.965 237.206 117.087 237.328 117.238 237.328Z" fill="black" stroke="#00FFC8" stroke-miterlimit="10"/>
<path d="M117.239 27.1561C117.541 27.1561 117.786 26.9111 117.786 26.6088C117.786 26.3066 117.541 26.0615 117.239 26.0615C116.936 26.0615 116.691 26.3066 116.691 26.6088C116.691 26.9111 116.936 27.1561 117.239 27.1561Z" fill="black" stroke="#00FFC8" stroke-miterlimit="10"/>
<path d="M117.238 35.4814C117.39 35.4814 117.512 35.3588 117.512 35.2077C117.512 35.0566 117.39 34.9341 117.238 34.9341C117.087 34.9341 116.965 35.0566 116.965 35.2077C116.965 35.3588 117.087 35.4814 117.238 35.4814Z" fill="black" stroke="#00FFC8" stroke-miterlimit="10"/>
<path d="M7.73869 136.612C8.04094 136.612 8.28597 136.367 8.28597 136.065C8.28597 135.763 8.04094 135.518 7.73869 135.518C7.43643 135.518 7.19141 135.763 7.19141 136.065C7.19141 136.367 7.43643 136.612 7.73869 136.612Z" fill="black" stroke="#00FFC8" stroke-miterlimit="10"/>
<path d="M210.274 136.612C210.576 136.612 210.821 136.367 210.821 136.065C210.821 135.763 210.576 135.518 210.274 135.518C209.972 135.518 209.727 135.763 209.727 136.065C209.727 136.367 209.972 136.612 210.274 136.612Z" fill="black" stroke="#00FFC8" stroke-miterlimit="10"/>
<path d="M24.1567 136.612C24.4589 136.612 24.7039 136.367 24.7039 136.065C24.7039 135.763 24.4589 135.518 24.1567 135.518C23.8544 135.518 23.6094 135.763 23.6094 136.065C23.6094 136.367 23.8544 136.612 24.1567 136.612Z" fill="black" stroke="#00FFC8" stroke-miterlimit="10"/>
<path d="M40.6606 136.612C40.9628 136.612 41.2078 136.367 41.2078 136.065C41.2078 135.763 40.9628 135.518 40.6606 135.518C40.3583 135.518 40.1133 135.763 40.1133 136.065C40.1133 136.367 40.3583 136.612 40.6606 136.612Z" fill="black" stroke="#00FFC8" stroke-miterlimit="10"/>
<path d="M62.5082 136.612C62.8105 136.612 63.0555 136.367 63.0555 136.065C63.0555 135.763 62.8105 135.518 62.5082 135.518C62.206 135.518 61.9609 135.763 61.9609 136.065C61.9609 136.367 62.206 136.612 62.5082 136.612Z" fill="black" stroke="#00FFC8" stroke-miterlimit="10"/>
<path d="M171.965 136.612C172.268 136.612 172.513 136.367 172.513 136.065C172.513 135.763 172.268 135.518 171.965 135.518C171.663 135.518 171.418 135.763 171.418 136.065C171.418 136.367 171.663 136.612 171.965 136.612Z" fill="black" stroke="#00FFC8" stroke-miterlimit="10"/>
<path d="M193.856 136.612C194.158 136.612 194.403 136.367 194.403 136.065C194.403 135.763 194.158 135.518 193.856 135.518C193.554 135.518 193.309 135.763 193.309 136.065C193.309 136.367 193.554 136.612 193.856 136.612Z" fill="black" stroke="#00FFC8" stroke-miterlimit="10"/>
<path d="M226.735 136.612C227.037 136.612 227.282 136.367 227.282 136.065C227.282 135.763 227.037 135.518 226.735 135.518C226.433 135.518 226.188 135.763 226.188 136.065C226.188 136.367 226.433 136.612 226.735 136.612Z" fill="black" stroke="#00FFC8" stroke-miterlimit="10"/>
<path d="M62.5082 191.386C62.8105 191.386 63.0555 191.141 63.0555 190.839C63.0555 190.537 62.8105 190.292 62.5082 190.292C62.206 190.292 61.9609 190.537 61.9609 190.839C61.9609 191.141 62.206 191.386 62.5082 191.386Z" fill="black" stroke="#00FFC8" stroke-miterlimit="10"/>
<path d="M171.965 191.386C172.268 191.386 172.513 191.141 172.513 190.839C172.513 190.537 172.268 190.292 171.965 190.292C171.663 190.292 171.418 190.537 171.418 190.839C171.418 191.141 171.663 191.386 171.965 191.386Z" fill="black" stroke="#00FFC8" stroke-miterlimit="10"/>
<path d="M171.965 81.8865C172.268 81.8865 172.513 81.6415 172.513 81.3393C172.513 81.037 172.268 80.792 171.965 80.792C171.663 80.792 171.418 81.037 171.418 81.3393C171.418 81.6415 171.663 81.8865 171.965 81.8865Z" fill="black" stroke="#00FFC8" stroke-miterlimit="10"/>
<path d="M192.87 60.5293C192.87 60.5293 120.308 136.065 7.73828 136.065" stroke="#00FFC8" stroke-miterlimit="10" stroke-linecap="round"/>
<path d="M117.24 49.2638C118.752 49.2638 119.977 48.0387 119.977 46.5274C119.977 45.0161 118.752 43.791 117.24 43.791C115.729 43.791 114.504 45.0161 114.504 46.5274C114.504 48.0387 115.729 49.2638 117.24 49.2638Z" fill="black" stroke="#00FFC8" stroke-miterlimit="10" stroke-linecap="round"/>
<path d="M117.239 227.514C117.995 227.514 118.607 226.902 118.607 226.146C118.607 225.39 117.995 224.778 117.239 224.778C116.484 224.778 115.871 225.39 115.871 226.146C115.871 226.902 116.484 227.514 117.239 227.514Z" fill="black" stroke="#00FFC8" stroke-miterlimit="10" stroke-linecap="round"/>
<path d="M18.7716 229.119C20.2828 229.119 21.508 227.894 21.508 226.382C21.508 224.871 20.2828 223.646 18.7716 223.646C17.2603 223.646 16.0352 224.871 16.0352 226.382C16.0352 227.894 17.2603 229.119 18.7716 229.119Z" fill="black" stroke="#00FFC8" stroke-miterlimit="10" stroke-linecap="round"/>
<path d="M226.763 142.678C230.39 142.678 233.33 139.738 233.33 136.111C233.33 132.484 230.39 129.543 226.763 129.543C223.136 129.543 220.195 132.484 220.195 136.111C220.195 139.738 223.136 142.678 226.763 142.678Z" stroke="#00FFC8" stroke-width="0.5" stroke-miterlimit="10"/>
<path d="M7.73924 142.678C11.3663 142.678 14.3066 139.738 14.3066 136.111C14.3066 132.484 11.3663 129.543 7.73924 129.543C4.11219 129.543 1.17188 132.484 1.17188 136.111C1.17188 139.738 4.11219 142.678 7.73924 142.678Z" stroke="#00FFC8" stroke-width="0.5" stroke-miterlimit="10"/>
<path d="M26.8949 234.193C27.1972 234.193 27.4422 233.948 27.4422 233.646C27.4422 233.344 27.1972 233.099 26.8949 233.099C26.5927 233.099 26.3477 233.344 26.3477 233.646C26.3477 233.948 26.5927 234.193 26.8949 234.193Z" fill="black" stroke="#00FFC8" stroke-miterlimit="10" stroke-linecap="round"/>
<path d="M0.625406 182.586C0.92766 182.586 1.17269 182.341 1.17269 182.038C1.17269 181.736 0.92766 181.491 0.625406 181.491C0.323151 181.491 0.078125 181.736 0.078125 182.038C0.078125 182.341 0.323151 182.586 0.625406 182.586Z" fill="black" stroke="#00FFC8" stroke-miterlimit="10" stroke-linecap="round"/>
<path d="M228.993 60.6966C229.295 60.6966 229.54 60.4516 229.54 60.1493C229.54 59.8471 229.295 59.6021 228.993 59.6021C228.69 59.6021 228.445 59.8471 228.445 60.1493C228.445 60.4516 228.69 60.6966 228.993 60.6966Z" fill="black" stroke="#00FFC8" stroke-miterlimit="10" stroke-linecap="round"/>
<path d="M12.2039 78.0553C12.8084 78.0553 13.2985 77.5653 13.2985 76.9608C13.2985 76.3563 12.8084 75.8662 12.2039 75.8662C11.5994 75.8662 11.1094 76.3563 11.1094 76.9608C11.1094 77.5653 11.5994 78.0553 12.2039 78.0553Z" fill="black" stroke="#00FFC8" stroke-miterlimit="10" stroke-linecap="round"/>
<path d="M48.6258 29.8922C49.2303 29.8922 49.7204 29.4022 49.7204 28.7977C49.7204 28.1932 49.2303 27.7031 48.6258 27.7031C48.0213 27.7031 47.5312 28.1932 47.5312 28.7977C47.5312 29.4022 48.0213 29.8922 48.6258 29.8922Z" fill="black" stroke="#00FFC8" stroke-miterlimit="10" stroke-linecap="round"/>
<path d="M70.1727 24.4196C70.7772 24.4196 71.2673 23.9295 71.2673 23.325C71.2673 22.7205 70.7772 22.2305 70.1727 22.2305C69.5682 22.2305 69.0781 22.7205 69.0781 23.325C69.0781 23.9295 69.5682 24.4196 70.1727 24.4196Z" fill="black" stroke="#00FFC8" stroke-miterlimit="10" stroke-linecap="round"/>
<path d="M183.567 2.24381C184.172 2.24381 184.662 1.75376 184.662 1.14925C184.662 0.544739 184.172 0.0546875 183.567 0.0546875C182.963 0.0546875 182.473 0.544739 182.473 1.14925C182.473 1.75376 182.963 2.24381 183.567 2.24381Z" fill="black" stroke="#00FFC8" stroke-miterlimit="10" stroke-linecap="round"/>
<path d="M239.829 90.0954C240.433 90.0954 240.924 89.6054 240.924 89.0008C240.924 88.3963 240.433 87.9062 239.829 87.9062C239.224 87.9062 238.734 88.3963 238.734 89.0008C238.734 89.6054 239.224 90.0954 239.829 90.0954Z" fill="black" stroke="#00FFC8" stroke-miterlimit="10" stroke-linecap="round"/>
<path d="M233.333 168.904C233.937 168.904 234.427 168.414 234.427 167.809C234.427 167.205 233.937 166.715 233.333 166.715C232.728 166.715 232.238 167.205 232.238 167.809C232.238 168.414 232.728 168.904 233.333 168.904Z" fill="black" stroke="#00FFC8" stroke-miterlimit="10" stroke-linecap="round"/>
<path d="M206.349 227.241C206.953 227.241 207.443 226.751 207.443 226.146C207.443 225.542 206.953 225.052 206.349 225.052C205.744 225.052 205.254 225.542 205.254 226.146C205.254 226.751 205.744 227.241 206.349 227.241Z" fill="black" stroke="#00FFC8" stroke-miterlimit="10" stroke-linecap="round"/>
<path opacity="0.3" d="M50.0977 97.3022L184.399 174.816" stroke="#00FFC8" stroke-width="0.5" stroke-miterlimit="10"/>
<path opacity="0.3" d="M50.0977 174.828L184.377 97.3022" stroke="#00FFC8" stroke-width="0.5" stroke-miterlimit="10"/>
<path opacity="0.3" d="M117.238 58.6685L50.0977 174.828" stroke="#00FFC8" stroke-width="0.5" stroke-miterlimit="10"/>
<path opacity="0.3" d="M184.399 174.816L117.238 58.6685" stroke="#00FFC8" stroke-width="0.5" stroke-miterlimit="10"/>
<path opacity="0.3" d="M50.0977 174.828H184.353" stroke="#00FFC8" stroke-width="0.5" stroke-miterlimit="10"/>
<path opacity="0.3" d="M50.0977 97.3022L117.293 213.581" stroke="#00FFC8" stroke-width="0.5" stroke-miterlimit="10"/>
<path opacity="0.3" d="M184.378 97.3022L117.293 213.581" stroke="#00FFC8" stroke-width="0.5" stroke-miterlimit="10"/>
</g>
<defs>
<clipPath id="clip0_8906_9339">
<rect width="240.956" height="250" fill="white" transform="translate(0.0234375)"/>
</clipPath>
</defs>
</svg>
