<svg width="245" height="250" viewBox="0 0 245 250" fill="none" xmlns="http://www.w3.org/2000/svg">
<g opacity="0.2" clip-path="url(#clip0_8906_14676)">
<path d="M24.7442 154.903C33.953 154.903 41.4182 147.438 41.4182 138.229C41.4182 129.02 33.953 121.555 24.7442 121.555C15.5355 121.555 8.07031 129.02 8.07031 138.229C8.07031 147.438 15.5355 154.903 24.7442 154.903Z" stroke="#FFC000" stroke-linecap="round" stroke-linejoin="round"/>
<path opacity="0.6" d="M24.7476 152.68C32.7285 152.68 39.1984 146.21 39.1984 138.23C39.1984 130.249 32.7285 123.779 24.7476 123.779C16.7667 123.779 10.2969 130.249 10.2969 138.23C10.2969 146.21 16.7667 152.68 24.7476 152.68Z" stroke="#FFC000" stroke-linecap="round" stroke-linejoin="round"/>
<path opacity="0.2" d="M24.7471 150.457C31.5002 150.457 36.9747 144.982 36.9747 138.229C36.9747 131.476 31.5002 126.002 24.7471 126.002C17.994 126.002 12.5195 131.476 12.5195 138.229C12.5195 144.982 17.994 150.457 24.7471 150.457Z" stroke="#FFC000" stroke-linecap="round" stroke-linejoin="round"/>
<path d="M213.674 154.903C222.883 154.903 230.348 147.438 230.348 138.229C230.348 129.02 222.883 121.555 213.674 121.555C204.465 121.555 197 129.02 197 138.229C197 147.438 204.465 154.903 213.674 154.903Z" stroke="#FFC000" stroke-linecap="round" stroke-linejoin="round"/>
<path opacity="0.6" d="M213.673 152.68C221.654 152.68 228.124 146.21 228.124 138.23C228.124 130.249 221.654 123.779 213.673 123.779C205.692 123.779 199.223 130.249 199.223 138.23C199.223 146.21 205.692 152.68 213.673 152.68Z" stroke="#FFC000" stroke-linecap="round" stroke-linejoin="round"/>
<path opacity="0.2" d="M213.673 150.457C220.426 150.457 225.9 144.982 225.9 138.229C225.9 131.476 220.426 126.002 213.673 126.002C206.92 126.002 201.445 131.476 201.445 138.229C201.445 144.982 206.92 150.457 213.673 150.457Z" stroke="#FFC000" stroke-linecap="round" stroke-linejoin="round"/>
<path d="M119.19 154.903C128.398 154.903 135.863 147.438 135.863 138.229C135.863 129.02 128.398 121.555 119.19 121.555C109.981 121.555 102.516 129.02 102.516 138.229C102.516 147.438 109.981 154.903 119.19 154.903Z" stroke="#FFC000" stroke-linecap="round" stroke-linejoin="round"/>
<path opacity="0.8" d="M119.187 153.792C127.782 153.792 134.75 146.824 134.75 138.229C134.75 129.634 127.782 122.667 119.187 122.667C110.592 122.667 103.625 129.634 103.625 138.229C103.625 146.824 110.592 153.792 119.187 153.792Z" stroke="#FFC000" stroke-linecap="round" stroke-linejoin="round"/>
<path opacity="0.6" d="M119.189 152.68C127.17 152.68 133.64 146.21 133.64 138.23C133.64 130.249 127.17 123.779 119.189 123.779C111.208 123.779 104.738 130.249 104.738 138.23C104.738 146.21 111.208 152.68 119.189 152.68Z" stroke="#FFC000" stroke-linecap="round" stroke-linejoin="round"/>
<path opacity="0.4" d="M119.187 151.568C126.554 151.568 132.526 145.596 132.526 138.229C132.526 130.862 126.554 124.89 119.187 124.89C111.82 124.89 105.848 130.862 105.848 138.229C105.848 145.596 111.82 151.568 119.187 151.568Z" stroke="#FFC000" stroke-linecap="round" stroke-linejoin="round"/>
<path opacity="0.2" d="M119.188 150.457C125.942 150.457 131.416 144.982 131.416 138.229C131.416 131.476 125.942 126.002 119.188 126.002C112.435 126.002 106.961 131.476 106.961 138.229C106.961 144.982 112.435 150.457 119.188 150.457Z" stroke="#FFC000" stroke-linecap="round" stroke-linejoin="round"/>
<g opacity="0.5">
<path opacity="0.5" d="M102.514 154.903C111.723 154.903 119.188 147.438 119.188 138.229C119.188 129.02 111.723 121.555 102.514 121.555C93.305 121.555 85.8398 129.02 85.8398 138.229C85.8398 147.438 93.305 154.903 102.514 154.903Z" stroke="#FFC000" stroke-linecap="round" stroke-linejoin="round"/>
<path opacity="0.8" d="M102.515 153.792C111.11 153.792 118.078 146.824 118.078 138.229C118.078 129.634 111.11 122.667 102.515 122.667C93.9206 122.667 86.9531 129.634 86.9531 138.229C86.9531 146.824 93.9206 153.792 102.515 153.792Z" stroke="#FFC000" stroke-linecap="round" stroke-linejoin="round"/>
<path opacity="0.6" d="M102.513 152.68C110.494 152.68 116.964 146.21 116.964 138.229C116.964 130.248 110.494 123.778 102.513 123.778C94.5323 123.778 88.0625 130.248 88.0625 138.229C88.0625 146.21 94.5323 152.68 102.513 152.68Z" stroke="#FFC000" stroke-linecap="round" stroke-linejoin="round"/>
<path opacity="0.4" d="M102.515 151.568C109.882 151.568 115.854 145.596 115.854 138.229C115.854 130.862 109.882 124.89 102.515 124.89C95.1479 124.89 89.1758 130.862 89.1758 138.229C89.1758 145.596 95.1479 151.568 102.515 151.568Z" stroke="#FFC000" stroke-linecap="round" stroke-linejoin="round"/>
<path opacity="0.2" d="M102.513 150.456C109.266 150.456 114.74 144.982 114.74 138.229C114.74 131.476 109.266 126.001 102.513 126.001C95.7596 126.001 90.2852 131.476 90.2852 138.229C90.2852 144.982 95.7596 150.456 102.513 150.456Z" stroke="#FFC000" stroke-linecap="round" stroke-linejoin="round"/>
</g>
<g opacity="0.5">
<path opacity="0.5" d="M135.861 154.903C145.07 154.903 152.535 147.438 152.535 138.229C152.535 129.02 145.07 121.555 135.861 121.555C126.653 121.555 119.188 129.02 119.188 138.229C119.188 147.438 126.653 154.903 135.861 154.903Z" stroke="#FFC000" stroke-linecap="round" stroke-linejoin="round"/>
<path opacity="0.8" d="M135.863 153.792C144.458 153.792 151.425 146.824 151.425 138.229C151.425 129.634 144.458 122.667 135.863 122.667C127.268 122.667 120.301 129.634 120.301 138.229C120.301 146.824 127.268 153.792 135.863 153.792Z" stroke="#FFC000" stroke-linecap="round" stroke-linejoin="round"/>
<path opacity="0.6" d="M135.861 152.68C143.842 152.68 150.312 146.21 150.312 138.229C150.312 130.248 143.842 123.778 135.861 123.778C127.88 123.778 121.41 130.248 121.41 138.229C121.41 146.21 127.88 152.68 135.861 152.68Z" stroke="#FFC000" stroke-linecap="round" stroke-linejoin="round"/>
<path opacity="0.4" d="M135.863 151.568C143.23 151.568 149.202 145.596 149.202 138.229C149.202 130.862 143.23 124.89 135.863 124.89C128.496 124.89 122.523 130.862 122.523 138.229C122.523 145.596 128.496 151.568 135.863 151.568Z" stroke="#FFC000" stroke-linecap="round" stroke-linejoin="round"/>
<path opacity="0.2" d="M135.86 150.456C142.613 150.456 148.088 144.982 148.088 138.229C148.088 131.476 142.613 126.001 135.86 126.001C129.107 126.001 123.633 131.476 123.633 138.229C123.633 144.982 129.107 150.456 135.86 150.456Z" stroke="#FFC000" stroke-linecap="round" stroke-linejoin="round"/>
</g>
<path d="M63.6105 83.1609C63.9174 83.1609 64.1663 82.9121 64.1663 82.6051C64.1663 82.2982 63.9174 82.0493 63.6105 82.0493C63.3035 82.0493 63.0547 82.2982 63.0547 82.6051C63.0547 82.9121 63.3035 83.1609 63.6105 83.1609Z" fill="black" stroke="#FFC000" stroke-miterlimit="10"/>
<path d="M119.19 60.6934C119.804 60.6934 120.301 60.1957 120.301 59.5818C120.301 58.9679 119.804 58.4702 119.19 58.4702C118.576 58.4702 118.078 58.9679 118.078 59.5818C118.078 60.1957 118.576 60.6934 119.19 60.6934Z" fill="black" stroke="#FFC000" stroke-miterlimit="10"/>
<path d="M119.19 217.899C119.804 217.899 120.301 217.401 120.301 216.787C120.301 216.173 119.804 215.675 119.19 215.675C118.576 215.675 118.078 216.173 118.078 216.787C118.078 217.401 118.576 217.899 119.19 217.899Z" fill="black" stroke="#FFC000" stroke-miterlimit="10"/>
<path d="M119.189 249.945C119.496 249.945 119.744 249.696 119.744 249.389C119.744 249.082 119.496 248.833 119.189 248.833C118.882 248.833 118.633 249.082 118.633 249.389C118.633 249.696 118.882 249.945 119.189 249.945Z" fill="black" stroke="#FFC000" stroke-miterlimit="10"/>
<path d="M119.188 241.022C119.342 241.022 119.466 240.897 119.466 240.744C119.466 240.59 119.342 240.466 119.188 240.466C119.035 240.466 118.91 240.59 118.91 240.744C118.91 240.897 119.035 241.022 119.188 241.022Z" fill="black" stroke="#FFC000" stroke-miterlimit="10"/>
<path d="M119.189 27.5789C119.496 27.5789 119.744 27.33 119.744 27.0231C119.744 26.7161 119.496 26.4673 119.189 26.4673C118.882 26.4673 118.633 26.7161 118.633 27.0231C118.633 27.33 118.882 27.5789 119.189 27.5789Z" fill="black" stroke="#FFC000" stroke-miterlimit="10"/>
<path d="M119.188 36.0338C119.342 36.0338 119.466 35.9094 119.466 35.7559C119.466 35.6024 119.342 35.478 119.188 35.478C119.035 35.478 118.91 35.6024 118.91 35.7559C118.91 35.9094 119.035 36.0338 119.188 36.0338Z" fill="black" stroke="#FFC000" stroke-miterlimit="10"/>
<path d="M7.98549 138.739C8.29244 138.739 8.54128 138.49 8.54128 138.183C8.54128 137.876 8.29244 137.627 7.98549 137.627C7.67853 137.627 7.42969 137.876 7.42969 138.183C7.42969 138.49 7.67853 138.739 7.98549 138.739Z" fill="black" stroke="#FFC000" stroke-miterlimit="10"/>
<path d="M213.673 138.739C213.98 138.739 214.229 138.49 214.229 138.183C214.229 137.876 213.98 137.627 213.673 137.627C213.366 137.627 213.117 137.876 213.117 138.183C213.117 138.49 213.366 138.739 213.673 138.739Z" fill="black" stroke="#FFC000" stroke-miterlimit="10"/>
<path d="M24.6613 138.739C24.9682 138.739 25.2171 138.49 25.2171 138.183C25.2171 137.876 24.9682 137.627 24.6613 137.627C24.3543 137.627 24.1055 137.876 24.1055 138.183C24.1055 138.49 24.3543 138.739 24.6613 138.739Z" fill="black" stroke="#FFC000" stroke-miterlimit="10"/>
<path d="M41.4191 138.739C41.726 138.739 41.9749 138.49 41.9749 138.183C41.9749 137.876 41.726 137.627 41.4191 137.627C41.1121 137.627 40.8633 137.876 40.8633 138.183C40.8633 138.49 41.1121 138.739 41.4191 138.739Z" fill="black" stroke="#FFC000" stroke-miterlimit="10"/>
<path d="M63.6105 138.739C63.9174 138.739 64.1663 138.49 64.1663 138.183C64.1663 137.876 63.9174 137.627 63.6105 137.627C63.3035 137.627 63.0547 137.876 63.0547 138.183C63.0547 138.49 63.3035 138.739 63.6105 138.739Z" fill="black" stroke="#FFC000" stroke-miterlimit="10"/>
<path d="M174.767 138.739C175.074 138.739 175.323 138.49 175.323 138.183C175.323 137.876 175.074 137.627 174.767 137.627C174.46 137.627 174.211 137.876 174.211 138.183C174.211 138.49 174.46 138.739 174.767 138.739Z" fill="black" stroke="#FFC000" stroke-miterlimit="10"/>
<path d="M197.001 138.739C197.308 138.739 197.557 138.49 197.557 138.183C197.557 137.876 197.308 137.627 197.001 137.627C196.694 137.627 196.445 137.876 196.445 138.183C196.445 138.49 196.694 138.739 197.001 138.739Z" fill="black" stroke="#FFC000" stroke-miterlimit="10"/>
<path d="M230.392 138.739C230.699 138.739 230.948 138.49 230.948 138.183C230.948 137.876 230.699 137.627 230.392 137.627C230.085 137.627 229.836 137.876 229.836 138.183C229.836 138.49 230.085 138.739 230.392 138.739Z" fill="black" stroke="#FFC000" stroke-miterlimit="10"/>
<path d="M63.6105 194.365C63.9174 194.365 64.1663 194.116 64.1663 193.809C64.1663 193.502 63.9174 193.253 63.6105 193.253C63.3035 193.253 63.0547 193.502 63.0547 193.809C63.0547 194.116 63.3035 194.365 63.6105 194.365Z" fill="black" stroke="#FFC000" stroke-miterlimit="10"/>
<path d="M174.767 194.365C175.074 194.365 175.323 194.116 175.323 193.809C175.323 193.502 175.074 193.253 174.767 193.253C174.46 193.253 174.211 193.502 174.211 193.809C174.211 194.116 174.46 194.365 174.767 194.365Z" fill="black" stroke="#FFC000" stroke-miterlimit="10"/>
<path d="M174.767 83.1609C175.074 83.1609 175.323 82.9121 175.323 82.6051C175.323 82.2982 175.074 82.0493 174.767 82.0493C174.46 82.0493 174.211 82.2982 174.211 82.6051C174.211 82.9121 174.46 83.1609 174.767 83.1609Z" fill="black" stroke="#FFC000" stroke-miterlimit="10"/>
<path d="M24.6602 138.183L119.189 216.787" stroke="#FFC000" stroke-miterlimit="10"/>
<path d="M213.673 138.229L119.188 59.5815" stroke="#FFC000" stroke-miterlimit="10"/>
<path d="M119.188 216.787V59.7026" stroke="#FFC000" stroke-miterlimit="10"/>
<path d="M24.6602 138.183H213.675" stroke="#FFC000" stroke-miterlimit="10"/>
<path d="M119.19 117.869L101.598 128.026V148.339L119.19 158.496L136.781 148.339V128.026L119.19 117.869Z" stroke="#FFC000" stroke-miterlimit="10"/>
<path d="M119.189 59.4502L51.0039 98.8162V177.548L119.189 216.915L187.373 177.548V98.8162L119.189 59.4502Z" stroke="#FFC000" stroke-miterlimit="10"/>
<path opacity="0.8" d="M119.189 62.0171L53.2266 100.099V176.266L119.189 214.348L185.15 176.266V100.099L119.189 62.0171Z" stroke="#FFC000" stroke-miterlimit="10"/>
<path opacity="0.6" d="M119.188 64.5835L55.4492 101.383V174.982L119.188 211.781L182.926 174.982V101.383L119.188 64.5835Z" stroke="#FFC000" stroke-miterlimit="10"/>
<path opacity="0.4" d="M119.188 67.1514L57.6719 102.667V173.698L119.188 209.214L180.702 173.698V102.667L119.188 67.1514Z" stroke="#FFC000" stroke-miterlimit="10"/>
<path opacity="0.2" d="M119.191 69.7178L59.8984 103.95V172.415L119.191 206.646L178.482 172.415V103.95L119.191 69.7178Z" stroke="#FFC000" stroke-miterlimit="10"/>
<path d="M119.245 160.842L94.9688 174.857V202.888L119.245 216.904L143.52 202.888V174.857L119.245 160.842Z" stroke="#FFC000" stroke-miterlimit="10"/>
<path d="M119.245 59.4946L94.9688 73.5096V101.542L119.245 115.557L143.52 101.542V73.5096L119.245 59.4946Z" stroke="#FFC000" stroke-miterlimit="10"/>
<path d="M163.119 135.489L138.844 149.505V177.536L163.119 191.551L187.395 177.536V149.505L163.119 135.489Z" stroke="#FFC000" stroke-miterlimit="10"/>
<path d="M119.185 50.0306C120.72 50.0306 121.964 48.7864 121.964 47.2516C121.964 45.7169 120.72 44.4727 119.185 44.4727C117.65 44.4727 116.406 45.7169 116.406 47.2516C116.406 48.7864 117.65 50.0306 119.185 50.0306Z" fill="black" stroke="#FFC000" stroke-miterlimit="10" stroke-linecap="round"/>
<path d="M119.186 231.055C119.954 231.055 120.576 230.433 120.576 229.666C120.576 228.898 119.954 228.276 119.186 228.276C118.419 228.276 117.797 228.898 117.797 229.666C117.797 230.433 118.419 231.055 119.186 231.055Z" fill="black" stroke="#FFC000" stroke-miterlimit="10" stroke-linecap="round"/>
<path d="M19.1852 232.685C20.72 232.685 21.9642 231.441 21.9642 229.906C21.9642 228.371 20.72 227.127 19.1852 227.127C17.6504 227.127 16.4062 228.371 16.4062 229.906C16.4062 231.441 17.6504 232.685 19.1852 232.685Z" fill="black" stroke="#FFC000" stroke-miterlimit="10" stroke-linecap="round"/>
<path d="M230.416 144.899C234.099 144.899 237.085 141.913 237.085 138.229C237.085 134.546 234.099 131.56 230.416 131.56C226.732 131.56 223.746 134.546 223.746 138.229C223.746 141.913 226.732 144.899 230.416 144.899Z" stroke="#FFC000" stroke-miterlimit="10"/>
<path d="M7.98598 144.899C11.6695 144.899 14.6555 141.913 14.6555 138.229C14.6555 134.546 11.6695 131.56 7.98598 131.56C4.30248 131.56 1.31641 134.546 1.31641 138.229C1.31641 141.913 4.30248 144.899 7.98598 144.899Z" stroke="#FFC000" stroke-miterlimit="10"/>
<path d="M27.4386 237.838C27.7456 237.838 27.9944 237.589 27.9944 237.282C27.9944 236.975 27.7456 236.727 27.4386 236.727C27.1317 236.727 26.8828 236.975 26.8828 237.282C26.8828 237.589 27.1317 237.838 27.4386 237.838Z" fill="black" stroke="#FFC000" stroke-miterlimit="10" stroke-linecap="round"/>
<path d="M0.758923 185.428C1.06588 185.428 1.31472 185.179 1.31472 184.872C1.31472 184.565 1.06588 184.316 0.758923 184.316C0.451964 184.316 0.203125 184.565 0.203125 184.872C0.203125 185.179 0.451964 185.428 0.758923 185.428Z" fill="black" stroke="#FFC000" stroke-miterlimit="10" stroke-linecap="round"/>
<path d="M232.681 61.6414C232.988 61.6414 233.237 61.3925 233.237 61.0856C233.237 60.7786 232.988 60.5298 232.681 60.5298C232.374 60.5298 232.125 60.7786 232.125 61.0856C232.125 61.3925 232.374 61.6414 232.681 61.6414Z" fill="black" stroke="#FFC000" stroke-miterlimit="10" stroke-linecap="round"/>
<path d="M12.5178 79.2701C13.1318 79.2701 13.6294 78.7724 13.6294 78.1585C13.6294 77.5446 13.1318 77.0469 12.5178 77.0469C11.9039 77.0469 11.4062 77.5446 11.4062 78.1585C11.4062 78.7724 11.9039 79.2701 12.5178 79.2701Z" fill="black" stroke="#FFC000" stroke-miterlimit="10" stroke-linecap="round"/>
<path d="M49.5061 30.358C50.12 30.358 50.6177 29.8603 50.6177 29.2464C50.6177 28.6324 50.12 28.1348 49.5061 28.1348C48.8922 28.1348 48.3945 28.6324 48.3945 29.2464C48.3945 29.8603 48.8922 30.358 49.5061 30.358Z" fill="black" stroke="#FFC000" stroke-miterlimit="10" stroke-linecap="round"/>
<path d="M71.3889 24.7999C72.0029 24.7999 72.5005 24.3022 72.5005 23.6883C72.5005 23.0743 72.0029 22.5767 71.3889 22.5767C70.775 22.5767 70.2773 23.0743 70.2773 23.6883C70.2773 24.3022 70.775 24.7999 71.3889 24.7999Z" fill="black" stroke="#FFC000" stroke-miterlimit="10" stroke-linecap="round"/>
<path d="M186.545 2.27885C187.159 2.27885 187.657 1.78118 187.657 1.16726C187.657 0.553342 187.159 0.0556641 186.545 0.0556641C185.931 0.0556641 185.434 0.553342 185.434 1.16726C185.434 1.78118 185.931 2.27885 186.545 2.27885Z" fill="black" stroke="#FFC000" stroke-miterlimit="10" stroke-linecap="round"/>
<path d="M243.686 91.4976C244.3 91.4976 244.797 90.9999 244.797 90.386C244.797 89.7721 244.3 89.2744 243.686 89.2744C243.072 89.2744 242.574 89.7721 242.574 90.386C242.574 90.9999 243.072 91.4976 243.686 91.4976Z" fill="black" stroke="#FFC000" stroke-miterlimit="10" stroke-linecap="round"/>
<path d="M237.088 171.533C237.702 171.533 238.2 171.035 238.2 170.421C238.2 169.807 237.702 169.31 237.088 169.31C236.474 169.31 235.977 169.807 235.977 170.421C235.977 171.035 236.474 171.533 237.088 171.533Z" fill="black" stroke="#FFC000" stroke-miterlimit="10" stroke-linecap="round"/>
<path d="M209.682 230.777C210.296 230.777 210.794 230.28 210.794 229.666C210.794 229.052 210.296 228.554 209.682 228.554C209.068 228.554 208.57 229.052 208.57 229.666C208.57 230.28 209.068 230.777 209.682 230.777Z" fill="black" stroke="#FFC000" stroke-miterlimit="10" stroke-linecap="round"/>
<path d="M119.188 82.8437C119.32 82.8437 119.427 82.7367 119.427 82.6047C119.427 82.4727 119.32 82.3657 119.188 82.3657C119.056 82.3657 118.949 82.4727 118.949 82.6047C118.949 82.7367 119.056 82.8437 119.188 82.8437Z" fill="#FFC000"/>
<path d="M119.187 100.8C119.432 100.8 119.631 100.601 119.631 100.356C119.631 100.11 119.432 99.9111 119.187 99.9111C118.941 99.9111 118.742 100.11 118.742 100.356C118.742 100.601 118.941 100.8 119.187 100.8Z" fill="black" stroke="#FFC000" stroke-miterlimit="10"/>
<path d="M119.187 118.467C119.432 118.467 119.631 118.268 119.631 118.022C119.631 117.777 119.432 117.578 119.187 117.578C118.941 117.578 118.742 117.777 118.742 118.022C118.742 118.268 118.941 118.467 119.187 118.467Z" fill="black" stroke="#FFC000" stroke-miterlimit="10"/>
<path d="M119.188 128.356C119.342 128.356 119.466 128.231 119.466 128.078C119.466 127.924 119.342 127.8 119.188 127.8C119.035 127.8 118.91 127.924 118.91 128.078C118.91 128.231 119.035 128.356 119.188 128.356Z" fill="black" stroke="#FFC000" stroke-miterlimit="10"/>
<path d="M119.189 132.325C119.251 132.325 119.3 132.275 119.3 132.214C119.3 132.153 119.251 132.103 119.189 132.103C119.128 132.103 119.078 132.153 119.078 132.214C119.078 132.275 119.128 132.325 119.189 132.325Z" fill="#FFC000"/>
<path d="M119.189 142.041C119.251 142.041 119.3 141.991 119.3 141.93C119.3 141.868 119.251 141.818 119.189 141.818C119.128 141.818 119.078 141.868 119.078 141.93C119.078 141.991 119.128 142.041 119.189 142.041Z" fill="#FFC000"/>
<path d="M119.188 151.1C119.342 151.1 119.466 150.976 119.466 150.822C119.466 150.669 119.342 150.544 119.188 150.544C119.035 150.544 118.91 150.669 118.91 150.822C118.91 150.976 119.035 151.1 119.188 151.1Z" fill="black" stroke="#FFC000" stroke-miterlimit="10"/>
<path d="M119.188 158.756C119.342 158.756 119.466 158.631 119.466 158.478C119.466 158.324 119.342 158.2 119.188 158.2C119.035 158.2 118.91 158.324 118.91 158.478C118.91 158.631 119.035 158.756 119.188 158.756Z" fill="black" stroke="#FFC000" stroke-miterlimit="10"/>
<path d="M119.188 161.182C119.342 161.182 119.466 161.058 119.466 160.904C119.466 160.751 119.342 160.626 119.188 160.626C119.035 160.626 118.91 160.751 118.91 160.904C118.91 161.058 119.035 161.182 119.188 161.182Z" fill="black" stroke="#FFC000" stroke-miterlimit="10"/>
<path d="M118.075 138.424C118.228 138.424 118.353 138.299 118.353 138.146C118.353 137.992 118.228 137.868 118.075 137.868C117.921 137.868 117.797 137.992 117.797 138.146C117.797 138.299 117.921 138.424 118.075 138.424Z" fill="black" stroke="#FFC000" stroke-miterlimit="10"/>
<path d="M109.581 138.312C109.673 138.312 109.748 138.238 109.748 138.146C109.748 138.054 109.673 137.979 109.581 137.979C109.489 137.979 109.414 138.054 109.414 138.146C109.414 138.238 109.489 138.312 109.581 138.312Z" fill="black" stroke="#FFC000" stroke-miterlimit="10"/>
<path d="M101.571 138.424C101.724 138.424 101.849 138.299 101.849 138.146C101.849 137.992 101.724 137.868 101.571 137.868C101.417 137.868 101.293 137.992 101.293 138.146C101.293 138.299 101.417 138.424 101.571 138.424Z" fill="black" stroke="#FFC000" stroke-miterlimit="10"/>
<path d="M88.4927 138.424C88.6462 138.424 88.7706 138.299 88.7706 138.146C88.7706 137.992 88.6462 137.868 88.4927 137.868C88.3393 137.868 88.2148 137.992 88.2148 138.146C88.2148 138.299 88.3393 138.424 88.4927 138.424Z" fill="black" stroke="#FFC000" stroke-miterlimit="10"/>
<path d="M81.823 138.312C81.9151 138.312 81.9897 138.238 81.9897 138.146C81.9897 138.054 81.9151 137.979 81.823 137.979C81.7309 137.979 81.6562 138.054 81.6562 138.146C81.6562 138.238 81.7309 138.312 81.823 138.312Z" fill="black" stroke="#FFC000" stroke-miterlimit="10"/>
<path d="M8.04051 138.59C8.22469 138.59 8.37399 138.441 8.37399 138.257C8.37399 138.073 8.22469 137.923 8.04051 137.923C7.85633 137.923 7.70703 138.073 7.70703 138.257C7.70703 138.441 7.85633 138.59 8.04051 138.59Z" fill="black" stroke="#FFC000" stroke-miterlimit="10"/>
<path d="M66.2596 138.257C66.321 138.257 66.3708 138.207 66.3708 138.146C66.3708 138.084 66.321 138.035 66.2596 138.035C66.1982 138.035 66.1484 138.084 66.1484 138.146C66.1484 138.207 66.1982 138.257 66.2596 138.257Z" fill="black" stroke="#FFC000" stroke-miterlimit="10"/>
<path d="M136.754 138.424C136.908 138.424 137.032 138.299 137.032 138.146C137.032 137.992 136.908 137.868 136.754 137.868C136.601 137.868 136.477 137.992 136.477 138.146C136.477 138.299 136.601 138.424 136.754 138.424Z" fill="black" stroke="#FFC000" stroke-miterlimit="10"/>
<path d="M140.089 138.312C140.181 138.312 140.255 138.238 140.255 138.146C140.255 138.054 140.181 137.979 140.089 137.979C139.997 137.979 139.922 138.054 139.922 138.146C139.922 138.238 139.997 138.312 140.089 138.312Z" fill="black" stroke="#FFC000" stroke-miterlimit="10"/>
<path d="M163.099 138.257C163.161 138.257 163.211 138.207 163.211 138.146C163.211 138.084 163.161 138.035 163.099 138.035C163.038 138.035 162.988 138.084 162.988 138.146C162.988 138.207 163.038 138.257 163.099 138.257Z" fill="black" stroke="#FFC000" stroke-miterlimit="10"/>
<path d="M128.139 138.312C128.231 138.312 128.306 138.238 128.306 138.146C128.306 138.054 128.231 137.979 128.139 137.979C128.047 137.979 127.973 138.054 127.973 138.146C127.973 138.238 128.047 138.312 128.139 138.312Z" fill="black" stroke="#FFC000" stroke-miterlimit="10"/>
<path d="M120.301 138.424C120.455 138.424 120.579 138.299 120.579 138.146C120.579 137.992 120.455 137.868 120.301 137.868C120.148 137.868 120.023 137.992 120.023 138.146C120.023 138.299 120.148 138.424 120.301 138.424Z" fill="black" stroke="#FFC000" stroke-miterlimit="10"/>
<path d="M119.189 138.98C119.65 138.98 120.023 138.606 120.023 138.146C120.023 137.685 119.65 137.312 119.189 137.312C118.729 137.312 118.355 137.685 118.355 138.146C118.355 138.606 118.729 138.98 119.189 138.98Z" fill="black" stroke="#FFC000" stroke-miterlimit="10"/>
<path d="M119.189 190.522C119.65 190.522 120.023 190.149 120.023 189.688C120.023 189.228 119.65 188.854 119.189 188.854C118.729 188.854 118.355 189.228 118.355 189.688C118.355 190.149 118.729 190.522 119.189 190.522Z" fill="black" stroke="#FFC000" stroke-miterlimit="10"/>
<path d="M119.187 175.049C119.432 175.049 119.631 174.85 119.631 174.605C119.631 174.359 119.432 174.16 119.187 174.16C118.941 174.16 118.742 174.359 118.742 174.605C118.742 174.85 118.941 175.049 119.187 175.049Z" fill="black" stroke="#FFC000" stroke-miterlimit="10"/>
<path d="M119.186 181.441C119.278 181.441 119.353 181.366 119.353 181.274C119.353 181.182 119.278 181.107 119.186 181.107C119.094 181.107 119.02 181.182 119.02 181.274C119.02 181.366 119.094 181.441 119.186 181.441Z" fill="black" stroke="#FFC000" stroke-miterlimit="10"/>
<path d="M119.187 202.107C119.432 202.107 119.631 201.908 119.631 201.662C119.631 201.417 119.432 201.218 119.187 201.218C118.941 201.218 118.742 201.417 118.742 201.662C118.742 201.908 118.941 202.107 119.187 202.107Z" fill="black" stroke="#FFC000" stroke-miterlimit="10"/>
<path d="M119.188 217.065C119.342 217.065 119.466 216.94 119.466 216.787C119.466 216.633 119.342 216.509 119.188 216.509C119.035 216.509 118.91 216.633 118.91 216.787C118.91 216.94 119.035 217.065 119.188 217.065Z" fill="black" stroke="#FFC000" stroke-miterlimit="10"/>
<path d="M119.189 115.837C119.373 115.837 119.522 115.688 119.522 115.503C119.522 115.319 119.373 115.17 119.189 115.17C119.005 115.17 118.855 115.319 118.855 115.503C118.855 115.688 119.005 115.837 119.189 115.837Z" fill="#FFC000"/>
<path d="M119.189 59.8506C119.373 59.8506 119.522 59.7012 119.522 59.5171C119.522 59.3329 119.373 59.1836 119.189 59.1836C119.005 59.1836 118.855 59.3329 118.855 59.5171C118.855 59.7012 119.005 59.8506 119.189 59.8506Z" fill="#FFC000"/>
<path d="M119.189 57.3395C119.251 57.3395 119.3 57.2897 119.3 57.2283C119.3 57.167 119.251 57.1172 119.189 57.1172C119.128 57.1172 119.078 57.167 119.078 57.2283C119.078 57.2897 119.128 57.3395 119.189 57.3395Z" fill="#FFC000"/>
<path d="M119.189 68.5764C119.251 68.5764 119.3 68.5266 119.3 68.4652C119.3 68.4038 119.251 68.354 119.189 68.354C119.128 68.354 119.078 68.4038 119.078 68.4652C119.078 68.5266 119.128 68.5764 119.189 68.5764Z" fill="#FFC000"/>
<path d="M119.189 64.6857C119.251 64.6857 119.3 64.6359 119.3 64.5745C119.3 64.5131 119.251 64.4634 119.189 64.4634C119.128 64.4634 119.078 64.5131 119.078 64.5745C119.078 64.6359 119.128 64.6857 119.189 64.6857Z" fill="#FFC000"/>
<path d="M119.187 52.0037C119.31 52.0037 119.409 51.9042 119.409 51.7814C119.409 51.6586 119.31 51.5591 119.187 51.5591C119.064 51.5591 118.965 51.6586 118.965 51.7814C118.965 51.9042 119.064 52.0037 119.187 52.0037Z" fill="#FFC000"/>
<path d="M119.189 47.446C119.251 47.446 119.3 47.3962 119.3 47.3348C119.3 47.2734 119.251 47.2236 119.189 47.2236C119.128 47.2236 119.078 47.2734 119.078 47.3348C119.078 47.3962 119.128 47.446 119.189 47.446Z" fill="#FFC000"/>
<path d="M119.189 37.2194C119.251 37.2194 119.3 37.1696 119.3 37.1082C119.3 37.0468 119.251 36.9971 119.189 36.9971C119.128 36.9971 119.078 37.0468 119.078 37.1082C119.078 37.1696 119.128 37.2194 119.189 37.2194Z" fill="#FFC000"/>
<path d="M119.189 43.4445C119.251 43.4445 119.3 43.3947 119.3 43.3333C119.3 43.2719 119.251 43.2222 119.189 43.2222C119.128 43.2222 119.078 43.2719 119.078 43.3333C119.078 43.3947 119.128 43.4445 119.189 43.4445Z" fill="#FFC000"/>
<path d="M119.186 107.875C119.278 107.875 119.353 107.801 119.353 107.709C119.353 107.617 119.278 107.542 119.186 107.542C119.094 107.542 119.02 107.617 119.02 107.709C119.02 107.801 119.094 107.875 119.186 107.875Z" fill="#FFC000"/>
<path d="M119.186 74.8379C119.278 74.8379 119.353 74.7632 119.353 74.6711C119.353 74.579 119.278 74.5044 119.186 74.5044C119.094 74.5044 119.02 74.579 119.02 74.6711C119.02 74.7632 119.094 74.8379 119.186 74.8379Z" fill="#FFC000"/>
<path d="M143.528 101.782C143.66 101.782 143.767 101.675 143.767 101.543C143.767 101.411 143.66 101.304 143.528 101.304C143.396 101.304 143.289 101.411 143.289 101.543C143.289 101.675 143.396 101.782 143.528 101.782Z" fill="#FFC000"/>
<path d="M94.9655 101.782C95.0975 101.782 95.2045 101.675 95.2045 101.543C95.2045 101.411 95.0975 101.304 94.9655 101.304C94.8336 101.304 94.7266 101.411 94.7266 101.543C94.7266 101.675 94.8336 101.782 94.9655 101.782Z" fill="#FFC000"/>
<path opacity="0.3" d="M51.0039 98.8164L187.396 177.536" stroke="#FFC000" stroke-miterlimit="10"/>
<path opacity="0.3" d="M51.0039 177.548L187.373 98.8164" stroke="#FFC000" stroke-miterlimit="10"/>
<path opacity="0.3" d="M119.189 59.5815L51.0039 177.548" stroke="#FFC000" stroke-miterlimit="10"/>
<path opacity="0.3" d="M187.394 177.536L119.188 59.5815" stroke="#FFC000" stroke-miterlimit="10"/>
<path opacity="0.3" d="M51.0039 177.548H187.349" stroke="#FFC000" stroke-miterlimit="10"/>
<path opacity="0.3" d="M51.0039 98.8164L119.245 216.905" stroke="#FFC000" stroke-miterlimit="10"/>
<path opacity="0.3" d="M187.375 98.8164L119.246 216.905" stroke="#FFC000" stroke-miterlimit="10"/>
</g>
<defs>
<clipPath id="clip0_8906_14676">
<rect width="244.705" height="250" fill="white" transform="translate(0.148438)"/>
</clipPath>
</defs>
</svg>
