<svg width="599" height="598" viewBox="0 0 599 598" fill="none" xmlns="http://www.w3.org/2000/svg">
<g opacity="0.1" clip-path="url(#clip0_2_114)">
<path d="M299.637 585.68C458.156 585.68 586.662 457.175 586.662 298.655C586.662 140.136 458.156 11.63 299.637 11.63C141.117 11.63 12.6114 140.136 12.6114 298.655C12.6114 457.175 141.117 585.68 299.637 585.68Z" stroke="#FFC000" stroke-miterlimit="10"/>
<path opacity="0.1" d="M299.637 585.68C458.156 585.68 586.662 457.175 586.662 298.655C586.662 140.136 458.156 11.63 299.637 11.63C141.117 11.63 12.6114 140.136 12.6114 298.655C12.6114 457.175 141.117 585.68 299.637 585.68Z" stroke="#FFC000" stroke-miterlimit="10" stroke-linecap="round"/>
<path d="M299.638 453.649C385.239 453.649 454.632 384.256 454.632 298.656C454.632 213.055 385.239 143.662 299.638 143.662C214.038 143.662 144.645 213.055 144.645 298.656C144.645 384.256 214.038 453.649 299.638 453.649Z" stroke="#FFC000" stroke-miterlimit="10" stroke-linecap="round"/>
<path d="M299.639 384.763C347.195 384.763 385.746 346.211 385.746 298.655C385.746 251.099 347.195 212.548 299.639 212.548C252.083 212.548 213.531 251.099 213.531 298.655C213.531 346.211 252.083 384.763 299.639 384.763Z" stroke="#FFC000" stroke-miterlimit="10" stroke-linecap="round"/>
<path opacity="0.3" d="M277.998 564.154C424.628 564.154 543.496 445.286 543.496 298.655C543.496 152.025 424.628 33.1571 277.998 33.1571C131.367 33.1571 12.4992 152.025 12.4992 298.655C12.4992 445.286 131.367 564.154 277.998 564.154Z" stroke="#FFC000" stroke-miterlimit="10"/>
<path opacity="0.3" d="M227.826 513.979C346.746 513.979 443.149 417.575 443.149 298.655C443.149 179.735 346.746 83.3318 227.826 83.3318C108.906 83.3318 12.5025 179.735 12.5025 298.655C12.5025 417.575 108.906 513.979 227.826 513.979Z" stroke="#FFC000" stroke-miterlimit="10"/>
<path opacity="0.3" d="M371.448 513.979C490.368 513.979 586.771 417.575 586.771 298.655C586.771 179.735 490.368 83.3318 371.448 83.3318C252.528 83.3318 156.125 179.735 156.125 298.655C156.125 417.575 252.528 513.979 371.448 513.979Z" stroke="#FFC000" stroke-miterlimit="10"/>
<path opacity="0.3" d="M321.051 564.154C467.681 564.154 586.549 445.286 586.549 298.655C586.549 152.025 467.681 33.1571 321.051 33.1571C174.42 33.1571 55.5525 152.025 55.5525 298.655C55.5525 445.286 174.42 564.154 321.051 564.154Z" stroke="#FFC000" stroke-miterlimit="10"/>
<path d="M299.637 442.168C378.897 442.168 443.15 377.915 443.15 298.655C443.15 219.396 378.897 155.143 299.637 155.143C220.377 155.143 156.125 219.396 156.125 298.655C156.125 377.915 220.377 442.168 299.637 442.168Z" stroke="#FFC000" stroke-linecap="round" stroke-linejoin="round"/>
<path opacity="0.4" d="M299.637 442.168C378.897 442.168 443.15 377.915 443.15 298.655C443.15 219.396 378.897 155.143 299.637 155.143C220.377 155.143 156.125 219.396 156.125 298.655C156.125 377.915 220.377 442.168 299.637 442.168Z" stroke="#FFC000" stroke-linecap="round" stroke-linejoin="round"/>
<path opacity="0.6" d="M299.638 447.909C382.068 447.909 448.891 381.086 448.891 298.655C448.891 216.225 382.068 149.402 299.638 149.402C217.207 149.402 150.385 216.225 150.385 298.655C150.385 381.086 217.207 447.909 299.638 447.909Z" stroke="#FFC000" stroke-linecap="round" stroke-linejoin="round"/>
<path opacity="0.2" d="M299.638 453.649C385.239 453.649 454.632 384.256 454.632 298.656C454.632 213.055 385.239 143.662 299.638 143.662C214.038 143.662 144.645 213.055 144.645 298.656C144.645 384.256 214.038 453.649 299.638 453.649Z" stroke="#FFC000" stroke-linecap="round" stroke-linejoin="round"/>
<path opacity="0.8" d="M299.637 436.427C375.726 436.427 437.409 374.745 437.409 298.655C437.409 222.566 375.726 160.883 299.637 160.883C223.547 160.883 161.865 222.566 161.865 298.655C161.865 374.745 223.547 436.427 299.637 436.427Z" stroke="#FFC000" stroke-linecap="round" stroke-linejoin="round"/>
<path opacity="0.6" d="M299.636 430.687C372.555 430.687 431.668 371.575 431.668 298.656C431.668 225.737 372.555 166.624 299.636 166.624C226.717 166.624 167.605 225.737 167.605 298.656C167.605 371.575 226.717 430.687 299.636 430.687Z" stroke="#FFC000" stroke-linecap="round" stroke-linejoin="round"/>
<path opacity="0.4" d="M299.639 424.947C369.388 424.947 425.93 368.404 425.93 298.655C425.93 228.907 369.388 172.364 299.639 172.364C229.89 172.364 173.348 228.907 173.348 298.655C173.348 368.404 229.89 424.947 299.639 424.947Z" stroke="#FFC000" stroke-linecap="round" stroke-linejoin="round"/>
<path opacity="0.2" d="M299.638 419.206C366.217 419.206 420.189 365.234 420.189 298.655C420.189 232.077 366.217 178.105 299.638 178.105C233.06 178.105 179.088 232.077 179.088 298.655C179.088 365.234 233.06 419.206 299.638 419.206Z" stroke="#FFC000" stroke-linecap="round" stroke-linejoin="round"/>
<path opacity="0.1" d="M299.638 416.336C364.631 416.336 417.318 363.649 417.318 298.656C417.318 233.663 364.631 180.975 299.638 180.975C234.645 180.975 181.958 233.663 181.958 298.656C181.958 363.649 234.645 416.336 299.638 416.336Z" stroke="#FFC000" stroke-linecap="round" stroke-linejoin="round"/>
<g opacity="0.5">
<path opacity="0.5" d="M299.636 298.649C378.896 298.649 443.149 234.397 443.149 155.137C443.149 75.877 378.896 11.6242 299.636 11.6242C220.377 11.6242 156.124 75.877 156.124 155.137C156.124 234.397 220.377 298.649 299.636 298.649Z" stroke="#FFC000" stroke-linecap="round" stroke-linejoin="round"/>
<path opacity="0.4" d="M299.636 298.649C378.896 298.649 443.149 234.397 443.149 155.137C443.149 75.877 378.896 11.6242 299.636 11.6242C220.377 11.6242 156.124 75.877 156.124 155.137C156.124 234.397 220.377 298.649 299.636 298.649Z" stroke="#FFC000" stroke-linecap="round" stroke-linejoin="round"/>
<path opacity="0.9" d="M299.636 295.779C377.311 295.779 440.279 232.812 440.279 155.137C440.279 77.4623 377.311 14.4946 299.636 14.4946C221.962 14.4946 158.994 77.4623 158.994 155.137C158.994 232.812 221.962 295.779 299.636 295.779Z" stroke="#FFC000" stroke-linecap="round" stroke-linejoin="round"/>
<path opacity="0.6" d="M299.637 304.39C382.067 304.39 448.89 237.567 448.89 155.137C448.89 72.7067 382.067 5.88382 299.637 5.88382C217.207 5.88382 150.384 72.7067 150.384 155.137C150.384 237.567 217.207 304.39 299.637 304.39Z" stroke="#FFC000" stroke-linecap="round" stroke-linejoin="round"/>
<path opacity="0.2" d="M299.637 310.131C385.238 310.131 454.631 240.738 454.631 155.137C454.631 69.5364 385.238 0.143402 299.637 0.143402C214.037 0.143402 144.644 69.5364 144.644 155.137C144.644 240.738 214.037 310.131 299.637 310.131Z" stroke="#FFC000" stroke-linecap="round" stroke-linejoin="round"/>
<path opacity="0.8" d="M299.636 292.909C375.725 292.909 437.408 231.227 437.408 155.137C437.408 79.0477 375.725 17.3651 299.636 17.3651C223.547 17.3651 161.864 79.0477 161.864 155.137C161.864 231.227 223.547 292.909 299.636 292.909Z" stroke="#FFC000" stroke-linecap="round" stroke-linejoin="round"/>
<path opacity="0.7" d="M299.639 290.039C374.143 290.039 434.541 229.641 434.541 155.137C434.541 80.6327 374.143 20.235 299.639 20.235C225.135 20.235 164.737 80.6327 164.737 155.137C164.737 229.641 225.135 290.039 299.639 290.039Z" stroke="#FFC000" stroke-linecap="round" stroke-linejoin="round"/>
<path opacity="0.6" d="M299.639 287.169C372.558 287.169 431.67 228.056 431.67 155.137C431.67 82.218 372.558 23.1055 299.639 23.1055C226.72 23.1055 167.607 82.218 167.607 155.137C167.607 228.056 226.72 287.169 299.639 287.169Z" stroke="#FFC000" stroke-linecap="round" stroke-linejoin="round"/>
<path opacity="0.5" d="M299.639 284.299C370.972 284.299 428.8 226.471 428.8 155.137C428.8 83.8034 370.972 25.9759 299.639 25.9759C228.305 25.9759 170.477 83.8034 170.477 155.137C170.477 226.471 228.305 284.299 299.639 284.299Z" stroke="#FFC000" stroke-linecap="round" stroke-linejoin="round"/>
<path opacity="0.4" d="M299.638 281.428C369.387 281.428 425.929 224.886 425.929 155.137C425.929 85.3883 369.387 28.8459 299.638 28.8459C229.89 28.8459 173.347 85.3883 173.347 155.137C173.347 224.886 229.89 281.428 299.638 281.428Z" stroke="#FFC000" stroke-linecap="round" stroke-linejoin="round"/>
<path opacity="0.3" d="M299.638 278.558C367.801 278.558 423.059 223.301 423.059 155.137C423.059 86.9737 367.801 31.7163 299.638 31.7163C231.475 31.7163 176.217 86.9737 176.217 155.137C176.217 223.301 231.475 278.558 299.638 278.558Z" stroke="#FFC000" stroke-linecap="round" stroke-linejoin="round"/>
<path opacity="0.2" d="M299.638 275.687C366.216 275.687 420.188 221.715 420.188 155.137C420.188 88.5586 366.216 34.5863 299.638 34.5863C233.06 34.5863 179.087 88.5586 179.087 155.137C179.087 221.715 233.06 275.687 299.638 275.687Z" stroke="#FFC000" stroke-linecap="round" stroke-linejoin="round"/>
<path opacity="0.1" d="M299.637 272.817C364.631 272.817 417.318 220.13 417.318 155.137C417.318 90.144 364.631 37.4567 299.637 37.4567C234.644 37.4567 181.957 90.144 181.957 155.137C181.957 220.13 234.644 272.817 299.637 272.817Z" stroke="#FFC000" stroke-linecap="round" stroke-linejoin="round"/>
</g>
<g opacity="0.5">
<path opacity="0.5" d="M299.636 585.795C378.896 585.795 443.149 521.542 443.149 442.282C443.149 363.022 378.896 298.77 299.636 298.77C220.377 298.77 156.124 363.022 156.124 442.282C156.124 521.542 220.377 585.795 299.636 585.795Z" stroke="#FFC000" stroke-linecap="round" stroke-linejoin="round"/>
<path opacity="0.4" d="M299.636 585.795C378.896 585.795 443.149 521.542 443.149 442.282C443.149 363.022 378.896 298.77 299.636 298.77C220.377 298.77 156.124 363.022 156.124 442.282C156.124 521.542 220.377 585.795 299.636 585.795Z" stroke="#FFC000" stroke-linecap="round" stroke-linejoin="round"/>
<path opacity="0.9" d="M299.636 582.925C377.311 582.925 440.279 519.957 440.279 442.282C440.279 364.608 377.311 301.64 299.636 301.64C221.962 301.64 158.994 364.608 158.994 442.282C158.994 519.957 221.962 582.925 299.636 582.925Z" stroke="#FFC000" stroke-linecap="round" stroke-linejoin="round"/>
<path opacity="0.6" d="M299.637 591.535C382.067 591.535 448.89 524.713 448.89 442.282C448.89 359.852 382.067 293.029 299.637 293.029C217.207 293.029 150.384 359.852 150.384 442.282C150.384 524.713 217.207 591.535 299.637 591.535Z" stroke="#FFC000" stroke-linecap="round" stroke-linejoin="round"/>
<path opacity="0.2" d="M299.637 597.276C385.238 597.276 454.631 527.883 454.631 442.282C454.631 356.682 385.238 287.289 299.637 287.289C214.037 287.289 144.644 356.682 144.644 442.282C144.644 527.883 214.037 597.276 299.637 597.276Z" stroke="#FFC000" stroke-linecap="round" stroke-linejoin="round"/>
<path opacity="0.8" d="M299.636 580.055C375.725 580.055 437.408 518.372 437.408 442.283C437.408 366.193 375.725 304.51 299.636 304.51C223.547 304.51 161.864 366.193 161.864 442.283C161.864 518.372 223.547 580.055 299.636 580.055Z" stroke="#FFC000" stroke-linecap="round" stroke-linejoin="round"/>
<path opacity="0.7" d="M299.639 577.184C374.143 577.184 434.541 516.786 434.541 442.282C434.541 367.778 374.143 307.38 299.639 307.38C225.135 307.38 164.737 367.778 164.737 442.282C164.737 516.786 225.135 577.184 299.639 577.184Z" stroke="#FFC000" stroke-linecap="round" stroke-linejoin="round"/>
<path opacity="0.6" d="M299.639 574.314C372.558 574.314 431.67 515.201 431.67 442.282C431.67 369.363 372.558 310.251 299.639 310.251C226.72 310.251 167.607 369.363 167.607 442.282C167.607 515.201 226.72 574.314 299.639 574.314Z" stroke="#FFC000" stroke-linecap="round" stroke-linejoin="round"/>
<path opacity="0.5" d="M299.639 571.444C370.972 571.444 428.8 513.616 428.8 442.283C428.8 370.949 370.972 313.121 299.639 313.121C228.305 313.121 170.477 370.949 170.477 442.283C170.477 513.616 228.305 571.444 299.639 571.444Z" stroke="#FFC000" stroke-linecap="round" stroke-linejoin="round"/>
<path opacity="0.4" d="M299.638 568.573C369.387 568.573 425.929 512.031 425.929 442.282C425.929 372.534 369.387 315.991 299.638 315.991C229.89 315.991 173.347 372.534 173.347 442.282C173.347 512.031 229.89 568.573 299.638 568.573Z" stroke="#FFC000" stroke-linecap="round" stroke-linejoin="round"/>
<path opacity="0.3" d="M299.638 565.703C367.801 565.703 423.059 510.446 423.059 442.282C423.059 374.119 367.801 318.862 299.638 318.862C231.475 318.862 176.217 374.119 176.217 442.282C176.217 510.446 231.475 565.703 299.638 565.703Z" stroke="#FFC000" stroke-linecap="round" stroke-linejoin="round"/>
<path opacity="0.2" d="M299.638 562.833C366.216 562.833 420.188 508.86 420.188 442.282C420.188 375.704 366.216 321.732 299.638 321.732C233.06 321.732 179.087 375.704 179.087 442.282C179.087 508.86 233.06 562.833 299.638 562.833Z" stroke="#FFC000" stroke-linecap="round" stroke-linejoin="round"/>
<path opacity="0.1" d="M299.637 559.963C364.631 559.963 417.318 507.275 417.318 442.282C417.318 377.289 364.631 324.602 299.637 324.602C234.644 324.602 181.957 377.289 181.957 442.282C181.957 507.275 234.644 559.963 299.637 559.963Z" stroke="#FFC000" stroke-linecap="round" stroke-linejoin="round"/>
</g>
<g opacity="0.5">
<path opacity="0.5" d="M156.126 442.167C235.386 442.167 299.638 377.915 299.638 298.655C299.638 219.395 235.386 155.142 156.126 155.142C76.866 155.142 12.6132 219.395 12.6132 298.655C12.6132 377.915 76.866 442.167 156.126 442.167Z" stroke="#FFC000" stroke-linecap="round" stroke-linejoin="round"/>
<path opacity="0.4" d="M156.126 442.167C235.386 442.167 299.638 377.915 299.638 298.655C299.638 219.395 235.386 155.142 156.126 155.142C76.866 155.142 12.6132 219.395 12.6132 298.655C12.6132 377.915 76.866 442.167 156.126 442.167Z" stroke="#FFC000" stroke-linecap="round" stroke-linejoin="round"/>
<path opacity="0.9" d="M156.126 439.297C233.8 439.297 296.768 376.33 296.768 298.655C296.768 220.98 233.8 158.013 156.126 158.013C78.451 158.013 15.4832 220.98 15.4832 298.655C15.4832 376.33 78.451 439.297 156.126 439.297Z" stroke="#FFC000" stroke-linecap="round" stroke-linejoin="round"/>
<path opacity="0.6" d="M156.126 447.908C238.557 447.908 305.379 381.085 305.379 298.655C305.379 216.225 238.557 149.402 156.126 149.402C73.6961 149.402 6.87323 216.225 6.87323 298.655C6.87323 381.085 73.6961 447.908 156.126 447.908Z" stroke="#FFC000" stroke-linecap="round" stroke-linejoin="round"/>
<path opacity="0.2" d="M156.127 453.649C241.727 453.649 311.12 384.256 311.12 298.655C311.12 213.054 241.727 143.661 156.127 143.661C70.5262 143.661 1.13324 213.054 1.13324 298.655C1.13324 384.256 70.5262 453.649 156.127 453.649Z" stroke="#FFC000" stroke-linecap="round" stroke-linejoin="round"/>
<path opacity="0.8" d="M156.125 436.427C232.215 436.427 293.897 374.745 293.897 298.655C293.897 222.566 232.215 160.883 156.125 160.883C80.0359 160.883 18.3532 222.566 18.3532 298.655C18.3532 374.745 80.0359 436.427 156.125 436.427Z" stroke="#FFC000" stroke-linecap="round" stroke-linejoin="round"/>
<path opacity="0.7" d="M156.128 433.557C230.633 433.557 291.03 373.159 291.03 298.655C291.03 224.151 230.633 163.753 156.128 163.753C81.6241 163.753 21.2265 224.151 21.2265 298.655C21.2265 373.159 81.6241 433.557 156.128 433.557Z" stroke="#FFC000" stroke-linecap="round" stroke-linejoin="round"/>
<path opacity="0.6" d="M156.128 430.687C229.047 430.687 288.16 371.574 288.16 298.655C288.16 225.736 229.047 166.624 156.128 166.624C83.2091 166.624 24.0965 225.736 24.0965 298.655C24.0965 371.574 83.2091 430.687 156.128 430.687Z" stroke="#FFC000" stroke-linecap="round" stroke-linejoin="round"/>
<path opacity="0.5" d="M156.128 427.817C227.462 427.817 285.289 369.989 285.289 298.655C285.289 227.321 227.462 169.494 156.128 169.494C84.794 169.494 26.9665 227.321 26.9665 298.655C26.9665 369.989 84.794 427.817 156.128 427.817Z" stroke="#FFC000" stroke-linecap="round" stroke-linejoin="round"/>
<path opacity="0.4" d="M156.128 424.946C225.876 424.946 282.419 368.404 282.419 298.655C282.419 228.906 225.876 172.364 156.128 172.364C86.379 172.364 29.8365 228.906 29.8365 298.655C29.8365 368.404 86.379 424.946 156.128 424.946Z" stroke="#FFC000" stroke-linecap="round" stroke-linejoin="round"/>
<path opacity="0.3" d="M156.127 422.076C224.291 422.076 279.548 366.819 279.548 298.655C279.548 230.492 224.291 175.234 156.127 175.234C87.9639 175.234 32.7065 230.492 32.7065 298.655C32.7065 366.819 87.9639 422.076 156.127 422.076Z" stroke="#FFC000" stroke-linecap="round" stroke-linejoin="round"/>
<path opacity="0.2" d="M156.127 419.206C222.705 419.206 276.678 365.233 276.678 298.655C276.678 232.077 222.705 178.104 156.127 178.104C89.5489 178.104 35.5765 232.077 35.5765 298.655C35.5765 365.233 89.5489 419.206 156.127 419.206Z" stroke="#FFC000" stroke-linecap="round" stroke-linejoin="round"/>
<path opacity="0.1" d="M156.127 416.335C221.12 416.335 273.807 363.648 273.807 298.655C273.807 233.662 221.12 180.975 156.127 180.975C91.1338 180.975 38.4465 233.662 38.4465 298.655C38.4465 363.648 91.1338 416.335 156.127 416.335Z" stroke="#FFC000" stroke-linecap="round" stroke-linejoin="round"/>
</g>
<g opacity="0.5">
<path opacity="0.5" d="M443.148 442.167C522.408 442.167 586.661 377.915 586.661 298.655C586.661 219.395 522.408 155.142 443.148 155.142C363.889 155.142 299.636 219.395 299.636 298.655C299.636 377.915 363.889 442.167 443.148 442.167Z" stroke="#FFC000" stroke-linecap="round" stroke-linejoin="round"/>
<path opacity="0.4" d="M443.148 442.167C522.408 442.167 586.661 377.915 586.661 298.655C586.661 219.395 522.408 155.142 443.148 155.142C363.889 155.142 299.636 219.395 299.636 298.655C299.636 377.915 363.889 442.167 443.148 442.167Z" stroke="#FFC000" stroke-linecap="round" stroke-linejoin="round"/>
<path opacity="0.9" d="M443.148 439.297C520.823 439.297 583.79 376.33 583.79 298.655C583.79 220.98 520.823 158.013 443.148 158.013C365.473 158.013 302.506 220.98 302.506 298.655C302.506 376.33 365.473 439.297 443.148 439.297Z" stroke="#FFC000" stroke-linecap="round" stroke-linejoin="round"/>
<path opacity="0.6" d="M443.149 447.908C525.579 447.908 592.402 381.085 592.402 298.655C592.402 216.225 525.579 149.402 443.149 149.402C360.719 149.402 293.896 216.225 293.896 298.655C293.896 381.085 360.719 447.908 443.149 447.908Z" stroke="#FFC000" stroke-linecap="round" stroke-linejoin="round"/>
<path opacity="0.2" d="M443.149 453.649C528.75 453.649 598.143 384.256 598.143 298.655C598.143 213.054 528.75 143.661 443.149 143.661C357.549 143.661 288.156 213.054 288.156 298.655C288.156 384.256 357.549 453.649 443.149 453.649Z" stroke="#FFC000" stroke-linecap="round" stroke-linejoin="round"/>
<path opacity="0.8" d="M443.148 436.427C519.237 436.427 580.92 374.745 580.92 298.655C580.92 222.566 519.237 160.883 443.148 160.883C367.058 160.883 305.376 222.566 305.376 298.655C305.376 374.745 367.058 436.427 443.148 436.427Z" stroke="#FFC000" stroke-linecap="round" stroke-linejoin="round"/>
<path opacity="0.7" d="M443.151 433.557C517.655 433.557 578.053 373.159 578.053 298.655C578.053 224.151 517.655 163.753 443.151 163.753C368.647 163.753 308.249 224.151 308.249 298.655C308.249 373.159 368.647 433.557 443.151 433.557Z" stroke="#FFC000" stroke-linecap="round" stroke-linejoin="round"/>
<path opacity="0.6" d="M443.151 430.687C516.07 430.687 575.182 371.574 575.182 298.655C575.182 225.736 516.07 166.624 443.151 166.624C370.232 166.624 311.119 225.736 311.119 298.655C311.119 371.574 370.232 430.687 443.151 430.687Z" stroke="#FFC000" stroke-linecap="round" stroke-linejoin="round"/>
<path opacity="0.5" d="M443.15 427.817C514.484 427.817 572.312 369.989 572.312 298.655C572.312 227.321 514.484 169.494 443.15 169.494C371.817 169.494 313.989 227.321 313.989 298.655C313.989 369.989 371.817 427.817 443.15 427.817Z" stroke="#FFC000" stroke-linecap="round" stroke-linejoin="round"/>
<path opacity="0.4" d="M443.15 424.946C512.899 424.946 569.441 368.404 569.441 298.655C569.441 228.906 512.899 172.364 443.15 172.364C373.401 172.364 316.859 228.906 316.859 298.655C316.859 368.404 373.401 424.946 443.15 424.946Z" stroke="#FFC000" stroke-linecap="round" stroke-linejoin="round"/>
<path opacity="0.3" d="M443.15 422.076C511.313 422.076 566.571 366.819 566.571 298.655C566.571 230.492 511.313 175.234 443.15 175.234C374.986 175.234 319.729 230.492 319.729 298.655C319.729 366.819 374.986 422.076 443.15 422.076Z" stroke="#FFC000" stroke-linecap="round" stroke-linejoin="round"/>
<path opacity="0.2" d="M443.15 419.206C509.728 419.206 563.7 365.233 563.7 298.655C563.7 232.077 509.728 178.104 443.15 178.104C376.571 178.104 322.599 232.077 322.599 298.655C322.599 365.233 376.571 419.206 443.15 419.206Z" stroke="#FFC000" stroke-linecap="round" stroke-linejoin="round"/>
<path opacity="0.1" d="M443.149 416.335C508.142 416.335 560.83 363.648 560.83 298.655C560.83 233.662 508.142 180.975 443.149 180.975C378.156 180.975 325.469 233.662 325.469 298.655C325.469 363.648 378.156 416.335 443.149 416.335Z" stroke="#FFC000" stroke-linecap="round" stroke-linejoin="round"/>
</g>
<path d="M299.637 246.198L254.213 272.424V324.875L299.637 351.1L345.062 324.875V272.424L299.637 246.198Z" stroke="#FFC000" stroke-miterlimit="10"/>
<path d="M299.637 95.3523L123.578 197.002V400.296L299.637 501.946L475.695 400.296V197.002L299.637 95.3523Z" stroke="#FFC000" stroke-miterlimit="10"/>
<path opacity="0.8" d="M299.636 101.983L129.318 200.315V396.984L299.636 495.316L469.954 396.984V200.315L299.636 101.983Z" stroke="#FFC000" stroke-miterlimit="10"/>
<path opacity="0.6" d="M299.636 108.61L135.058 203.63V393.669L299.636 488.689L464.213 393.669V203.63L299.636 108.61Z" stroke="#FFC000" stroke-miterlimit="10"/>
<path opacity="0.4" d="M299.635 115.24L140.798 206.945V390.354L299.635 482.058L458.472 390.354V206.945L299.635 115.24Z" stroke="#FFC000" stroke-miterlimit="10"/>
<path opacity="0.2" d="M299.638 121.868L146.542 210.257V387.039L299.638 475.431L452.734 387.039V210.257L299.638 121.868Z" stroke="#FFC000" stroke-miterlimit="10"/>
<path d="M299.782 357.156L237.098 393.347V465.727L299.782 501.918L362.465 465.727V393.347L299.782 357.156Z" stroke="#FFC000" stroke-miterlimit="10"/>
<path d="M299.782 95.4698L237.098 131.658V204.04L299.782 240.228L362.465 204.04V131.658L299.782 95.4698Z" stroke="#FFC000" stroke-miterlimit="10"/>
<path d="M413.071 291.695L350.387 327.886V400.265L413.071 436.453L475.751 400.265V327.886L413.071 291.695Z" stroke="#FFC000" stroke-miterlimit="10"/>
<path d="M497.803 100.602L101.467 496.938" stroke="#FFC000" stroke-miterlimit="10" stroke-linecap="round"/>
<path d="M497.974 100.574C497.974 100.574 307.696 298.65 12.5052 298.65" stroke="#FFC000" stroke-miterlimit="10" stroke-linecap="round"/>
<path d="M497.804 100.602C497.804 100.602 299.636 284.628 299.636 585.795" stroke="#FFC000" stroke-miterlimit="10" stroke-linecap="round"/>
<path opacity="0.3" d="M123.578 197.003L475.752 400.265" stroke="#FFC000" stroke-miterlimit="10"/>
<path opacity="0.3" d="M123.578 400.297L475.695 197.003" stroke="#FFC000" stroke-miterlimit="10"/>
<path opacity="0.3" d="M299.637 95.6942L123.578 400.297" stroke="#FFC000" stroke-miterlimit="10"/>
<path opacity="0.3" d="M475.754 400.265L299.638 95.6942" stroke="#FFC000" stroke-miterlimit="10"/>
<path opacity="0.3" d="M123.578 400.297H475.632" stroke="#FFC000" stroke-miterlimit="10"/>
<path opacity="0.3" d="M123.578 197.003L299.78 501.918" stroke="#FFC000" stroke-miterlimit="10"/>
<path opacity="0.3" d="M475.695 197.003L299.78 501.918" stroke="#FFC000" stroke-miterlimit="10"/>
</g>
<g clip-path="url(#clip1_2_114)">
<path d="M299.869 388.25C273.347 388.25 247.912 377.714 229.158 358.961C210.404 340.207 199.869 314.772 199.869 288.25C199.869 261.728 210.404 236.293 229.158 217.539C247.912 198.786 273.347 188.25 299.869 188.25" stroke="#FFC000" stroke-opacity="0.2" stroke-width="0.5" stroke-miterlimit="10"/>
<path d="M303.649 388.17C329.114 387.156 353.23 376.457 371.073 358.26C388.915 340.063 399.136 315.74 399.649 290.26" stroke="#FFC000" stroke-opacity="0.2" stroke-miterlimit="10" stroke-linecap="round"/>
<path d="M329.869 288.1C329.888 292.04 329.132 295.945 327.643 299.592C326.153 303.239 323.96 306.557 321.188 309.357C318.416 312.157 315.12 314.383 311.488 315.909C307.856 317.435 303.958 318.23 300.019 318.25C296.079 318.27 292.174 317.513 288.527 316.024C284.88 314.534 281.561 312.341 278.762 309.569C275.962 306.797 273.736 303.501 272.21 299.869C270.684 296.237 269.888 292.34 269.869 288.4" stroke="#FFC000" stroke-opacity="0.2" stroke-width="0.5" stroke-miterlimit="10"/>
<path d="M329.869 288.1C329.829 280.143 326.63 272.529 320.976 266.931C315.322 261.333 307.675 258.21 299.719 258.25C291.762 258.29 284.147 261.489 278.55 267.143C272.952 272.797 269.829 280.444 269.869 288.4" stroke="#FFC000" stroke-opacity="0.2" stroke-width="0.75" stroke-miterlimit="10" stroke-linecap="round"/>
<path d="M304.539 189.12C324.756 190.127 344.184 197.287 360.219 209.642C376.254 221.997 388.131 238.957 394.259 258.25" stroke="#FFC000" stroke-opacity="0.2" stroke-width="2" stroke-miterlimit="10" stroke-linecap="round"/>
<path d="M169.999 288.25H179.869C179.869 320.076 192.512 350.598 215.016 373.103C237.52 395.607 268.043 408.25 299.869 408.25C331.695 408.25 362.217 395.607 384.722 373.103C407.226 350.598 419.869 320.076 419.869 288.25H429.579" stroke="#FFC000" stroke-opacity="0.2" stroke-width="3" stroke-miterlimit="10"/>
<path d="M299.869 328.1V358.1" stroke="#FFC000" stroke-opacity="0.2" stroke-miterlimit="10"/>
</g>
<defs>
<clipPath id="clip0_2_114">
<rect width="597.299" height="597.42" fill="white" transform="translate(0.987061)"/>
</clipPath>
<clipPath id="clip1_2_114">
<rect width="259.58" height="221.75" fill="white" transform="translate(169.999 188)"/>
</clipPath>
</defs>
</svg>
