<svg width="370" height="384" viewBox="0 0 370 384" fill="none" xmlns="http://www.w3.org/2000/svg">
<path d="M180.715 376.624C273.28 376.624 348.32 301.584 348.32 209.019C348.32 116.453 273.28 41.4142 180.715 41.4142C88.1493 41.4142 13.1101 116.453 13.1101 209.019C13.1101 301.584 88.1493 376.624 180.715 376.624Z" stroke="#FFC000" stroke-width="0.5" stroke-miterlimit="10"/>
<path d="M180.715 376.624C273.28 376.624 348.32 301.584 348.32 209.019C348.32 116.453 273.28 41.4142 180.715 41.4142C88.1493 41.4142 13.1101 116.453 13.1101 209.019C13.1101 301.584 88.1493 376.624 180.715 376.624Z" stroke="#FFC000" stroke-width="2" stroke-miterlimit="10" stroke-linecap="round"/>
<path d="M180.715 299.525C230.7 299.525 271.221 259.004 271.221 209.019C271.221 159.033 230.7 118.512 180.715 118.512C130.729 118.512 90.2083 159.033 90.2083 209.019C90.2083 259.004 130.729 299.525 180.715 299.525Z" stroke="#FFC000" stroke-miterlimit="10" stroke-linecap="round"/>
<path d="M180.715 259.3C208.485 259.3 230.997 236.789 230.997 209.019C230.997 181.249 208.485 158.738 180.715 158.738C152.945 158.738 130.434 181.249 130.434 209.019C130.434 236.789 152.945 259.3 180.715 259.3Z" stroke="#FFC000" stroke-miterlimit="10" stroke-linecap="round"/>
<path opacity="0.3" d="M168.079 364.053C253.702 364.053 323.114 294.642 323.114 209.019C323.114 123.396 253.702 53.9846 168.079 53.9846C82.4562 53.9846 13.0449 123.396 13.0449 209.019C13.0449 294.642 82.4562 364.053 168.079 364.053Z" stroke="#FFC000" stroke-miterlimit="10"/>
<path opacity="0.3" d="M138.78 334.754C208.222 334.754 264.516 278.461 264.516 209.019C264.516 139.577 208.222 83.2836 138.78 83.2836C69.3386 83.2836 13.0449 139.577 13.0449 209.019C13.0449 278.461 69.3386 334.754 138.78 334.754Z" stroke="#FFC000" stroke-miterlimit="10"/>
<path opacity="0.3" d="M222.648 334.754C292.09 334.754 348.383 278.461 348.383 209.019C348.383 139.577 292.09 83.2836 222.648 83.2836C153.206 83.2836 96.9126 139.577 96.9126 209.019C96.9126 278.461 153.206 334.754 222.648 334.754Z" stroke="#FFC000" stroke-miterlimit="10"/>
<path opacity="0.3" d="M193.22 364.053C278.843 364.053 348.254 294.642 348.254 209.019C348.254 123.396 278.843 53.9846 193.22 53.9846C107.597 53.9846 38.1855 123.396 38.1855 209.019C38.1855 294.642 107.597 364.053 193.22 364.053Z" stroke="#FFC000" stroke-miterlimit="10"/>
<path d="M180.715 292.821C226.998 292.821 264.517 255.302 264.517 209.019C264.517 162.736 226.998 125.217 180.715 125.217C134.432 125.217 96.9126 162.736 96.9126 209.019C96.9126 255.302 134.432 292.821 180.715 292.821Z" stroke="#FFC000" stroke-linecap="round" stroke-linejoin="round"/>
<path opacity="0.4" d="M180.715 292.821C226.998 292.821 264.517 255.302 264.517 209.019C264.517 162.736 226.998 125.217 180.715 125.217C134.432 125.217 96.9126 162.736 96.9126 209.019C96.9126 255.302 134.432 292.821 180.715 292.821Z" stroke="#FFC000" stroke-linecap="round" stroke-linejoin="round"/>
<path opacity="0.6" d="M180.715 296.173C228.849 296.173 267.869 257.153 267.869 209.019C267.869 160.885 228.849 121.865 180.715 121.865C132.581 121.865 93.5605 160.885 93.5605 209.019C93.5605 257.153 132.581 296.173 180.715 296.173Z" stroke="#FFC000" stroke-linecap="round" stroke-linejoin="round"/>
<path opacity="0.2" d="M180.715 299.525C230.7 299.525 271.221 259.004 271.221 209.019C271.221 159.033 230.7 118.512 180.715 118.512C130.729 118.512 90.2083 159.033 90.2083 209.019C90.2083 259.004 130.729 299.525 180.715 299.525Z" stroke="#FFC000" stroke-linecap="round" stroke-linejoin="round"/>
<path opacity="0.8" d="M180.715 289.469C225.146 289.469 261.165 253.45 261.165 209.019C261.165 164.587 225.146 128.569 180.715 128.569C136.283 128.569 100.265 164.587 100.265 209.019C100.265 253.45 136.283 289.469 180.715 289.469Z" stroke="#FFC000" stroke-linecap="round" stroke-linejoin="round"/>
<path opacity="0.6" d="M180.715 286.117C223.295 286.117 257.813 251.599 257.813 209.019C257.813 166.439 223.295 131.921 180.715 131.921C138.135 131.921 103.617 166.439 103.617 209.019C103.617 251.599 138.135 286.117 180.715 286.117Z" stroke="#FFC000" stroke-linecap="round" stroke-linejoin="round"/>
<path opacity="0.4" d="M180.715 282.765C221.444 282.765 254.461 249.748 254.461 209.019C254.461 168.29 221.444 135.273 180.715 135.273C139.986 135.273 106.969 168.29 106.969 209.019C106.969 249.748 139.986 282.765 180.715 282.765Z" stroke="#FFC000" stroke-linecap="round" stroke-linejoin="round"/>
<path opacity="0.2" d="M180.715 279.413C219.592 279.413 251.109 247.896 251.109 209.019C251.109 170.141 219.592 138.625 180.715 138.625C141.837 138.625 110.321 170.141 110.321 209.019C110.321 247.896 141.837 279.413 180.715 279.413Z" stroke="#FFC000" stroke-linecap="round" stroke-linejoin="round"/>
<g opacity="0.5">
<path opacity="0.5" d="M180.715 209.016C226.997 209.016 264.517 171.496 264.517 125.213C264.517 78.9305 226.997 41.4109 180.715 41.4109C134.432 41.4109 96.9124 78.9305 96.9124 125.213C96.9124 171.496 134.432 209.016 180.715 209.016Z" stroke="#FFC000" stroke-linecap="round" stroke-linejoin="round"/>
<path opacity="0.4" d="M180.715 209.016C226.997 209.016 264.517 171.496 264.517 125.213C264.517 78.9305 226.997 41.4109 180.715 41.4109C134.432 41.4109 96.9124 78.9305 96.9124 125.213C96.9124 171.496 134.432 209.016 180.715 209.016Z" stroke="#FFC000" stroke-linecap="round" stroke-linejoin="round"/>
<path opacity="0.6" d="M180.715 212.368C228.849 212.368 267.869 173.347 267.869 125.213C267.869 77.0791 228.849 38.0587 180.715 38.0587C132.581 38.0587 93.5603 77.0791 93.5603 125.213C93.5603 173.347 132.581 212.368 180.715 212.368Z" stroke="#FFC000" stroke-linecap="round" stroke-linejoin="round"/>
<path opacity="0.2" d="M180.715 215.72C230.7 215.72 271.221 175.199 271.221 125.213C271.221 75.2278 230.7 34.7067 180.715 34.7067C130.729 34.7067 90.2083 75.2278 90.2083 125.213C90.2083 175.199 130.729 215.72 180.715 215.72Z" stroke="#FFC000" stroke-linecap="round" stroke-linejoin="round"/>
<path opacity="0.8" d="M180.715 205.663C225.146 205.663 261.165 169.645 261.165 125.213C261.165 80.7817 225.146 44.7629 180.715 44.7629C136.283 44.7629 100.265 80.7817 100.265 125.213C100.265 169.645 136.283 205.663 180.715 205.663Z" stroke="#FFC000" stroke-linecap="round" stroke-linejoin="round"/>
<path opacity="0.6" d="M180.715 202.311C223.295 202.311 257.813 167.793 257.813 125.213C257.813 82.633 223.295 48.115 180.715 48.115C138.135 48.115 103.617 82.633 103.617 125.213C103.617 167.793 138.135 202.311 180.715 202.311Z" stroke="#FFC000" stroke-linecap="round" stroke-linejoin="round"/>
<path opacity="0.4" d="M180.715 198.959C221.444 198.959 254.461 165.942 254.461 125.213C254.461 84.4844 221.444 51.4672 180.715 51.4672C139.986 51.4672 106.969 84.4844 106.969 125.213C106.969 165.942 139.986 198.959 180.715 198.959Z" stroke="#FFC000" stroke-linecap="round" stroke-linejoin="round"/>
<path opacity="0.2" d="M180.715 195.607C219.592 195.607 251.109 164.091 251.109 125.213C251.109 86.3357 219.592 54.8192 180.715 54.8192C141.837 54.8192 110.321 86.3357 110.321 125.213C110.321 164.091 141.837 195.607 180.715 195.607Z" stroke="#FFC000" stroke-linecap="round" stroke-linejoin="round"/>
</g>
<g opacity="0.5">
<path opacity="0.5" d="M180.715 376.691C226.997 376.691 264.517 339.171 264.517 292.888C264.517 246.606 226.997 209.086 180.715 209.086C134.432 209.086 96.9124 246.606 96.9124 292.888C96.9124 339.171 134.432 376.691 180.715 376.691Z" stroke="#FFC000" stroke-linecap="round" stroke-linejoin="round"/>
<path opacity="0.9" d="M180.715 375.015C226.072 375.015 262.841 338.246 262.841 292.888C262.841 247.531 226.072 210.762 180.715 210.762C135.358 210.762 98.5884 247.531 98.5884 292.888C98.5884 338.246 135.358 375.015 180.715 375.015Z" stroke="#FFC000" stroke-linecap="round" stroke-linejoin="round"/>
<path opacity="0.6" d="M180.715 380.043C228.849 380.043 267.869 341.022 267.869 292.888C267.869 244.754 228.849 205.734 180.715 205.734C132.581 205.734 93.5603 244.754 93.5603 292.888C93.5603 341.022 132.581 380.043 180.715 380.043Z" stroke="#FFC000" stroke-linecap="round" stroke-linejoin="round"/>
<path opacity="0.2" d="M180.715 383.395C230.7 383.395 271.221 342.874 271.221 292.888C271.221 242.903 230.7 202.382 180.715 202.382C130.729 202.382 90.2083 242.903 90.2083 292.888C90.2083 342.874 130.729 383.395 180.715 383.395Z" stroke="#FFC000" stroke-linecap="round" stroke-linejoin="round"/>
<path opacity="0.7" d="M180.715 371.663C224.221 371.663 259.489 336.394 259.489 292.888C259.489 249.383 224.221 214.114 180.715 214.114C137.209 214.114 101.941 249.383 101.941 292.888C101.941 336.394 137.209 371.663 180.715 371.663Z" stroke="#FFC000" stroke-linecap="round" stroke-linejoin="round"/>
<path opacity="0.5" d="M180.715 368.311C222.369 368.311 256.137 334.543 256.137 292.888C256.137 251.234 222.369 217.466 180.715 217.466C139.06 217.466 105.293 251.234 105.293 292.888C105.293 334.543 139.06 368.311 180.715 368.311Z" stroke="#FFC000" stroke-linecap="round" stroke-linejoin="round"/>
<path opacity="0.3" d="M180.715 364.958C220.518 364.958 252.785 332.692 252.785 292.888C252.785 253.085 220.518 220.818 180.715 220.818C140.912 220.818 108.645 253.085 108.645 292.888C108.645 332.692 140.912 364.958 180.715 364.958Z" stroke="#FFC000" stroke-linecap="round" stroke-linejoin="round"/>
<path opacity="0.1" d="M180.715 361.606C218.667 361.606 249.433 330.84 249.433 292.888C249.433 254.936 218.667 224.17 180.715 224.17C142.763 224.17 111.997 254.936 111.997 292.888C111.997 330.84 142.763 361.606 180.715 361.606Z" stroke="#FFC000" stroke-linecap="round" stroke-linejoin="round"/>
</g>
<g opacity="0.5">
<path opacity="0.5" d="M96.9125 292.821C143.195 292.821 180.715 255.302 180.715 209.019C180.715 162.736 143.195 125.217 96.9125 125.217C50.6297 125.217 13.1101 162.736 13.1101 209.019C13.1101 255.302 50.6297 292.821 96.9125 292.821Z" stroke="#FFC000" stroke-linecap="round" stroke-linejoin="round"/>
<path opacity="0.4" d="M96.9125 292.821C143.195 292.821 180.715 255.302 180.715 209.019C180.715 162.736 143.195 125.217 96.9125 125.217C50.6297 125.217 13.1101 162.736 13.1101 209.019C13.1101 255.302 50.6297 292.821 96.9125 292.821Z" stroke="#FFC000" stroke-linecap="round" stroke-linejoin="round"/>
<path opacity="0.6" d="M96.9125 296.173C145.047 296.173 184.067 257.153 184.067 209.019C184.067 160.885 145.047 121.864 96.9125 121.864C48.7784 121.864 9.75806 160.885 9.75806 209.019C9.75806 257.153 48.7784 296.173 96.9125 296.173Z" stroke="#FFC000" stroke-linecap="round" stroke-linejoin="round"/>
<path opacity="0.2" d="M96.9126 299.525C146.898 299.525 187.419 259.004 187.419 209.019C187.419 159.033 146.898 118.512 96.9126 118.512C46.9272 118.512 6.40601 159.033 6.40601 209.019C6.40601 259.004 46.9272 299.525 96.9126 299.525Z" stroke="#FFC000" stroke-linecap="round" stroke-linejoin="round"/>
<path opacity="0.8" d="M96.9127 289.469C141.344 289.469 177.363 253.45 177.363 209.019C177.363 164.587 141.344 128.569 96.9127 128.569C52.4812 128.569 16.4624 164.587 16.4624 209.019C16.4624 253.45 52.4812 289.469 96.9127 289.469Z" stroke="#FFC000" stroke-linecap="round" stroke-linejoin="round"/>
<path opacity="0.6" d="M96.9126 286.117C139.493 286.117 174.011 251.599 174.011 209.019C174.011 166.439 139.493 131.921 96.9126 131.921C54.3325 131.921 19.8145 166.439 19.8145 209.019C19.8145 251.599 54.3325 286.117 96.9126 286.117Z" stroke="#FFC000" stroke-linecap="round" stroke-linejoin="round"/>
<path opacity="0.4" d="M96.9126 282.765C137.641 282.765 170.659 249.748 170.659 209.019C170.659 168.29 137.641 135.273 96.9126 135.273C56.1838 135.273 23.1665 168.29 23.1665 209.019C23.1665 249.748 56.1838 282.765 96.9126 282.765Z" stroke="#FFC000" stroke-linecap="round" stroke-linejoin="round"/>
<path opacity="0.2" d="M96.9125 279.413C135.79 279.413 167.307 247.896 167.307 209.019C167.307 170.141 135.79 138.625 96.9125 138.625C58.035 138.625 26.5186 170.141 26.5186 209.019C26.5186 247.896 58.035 279.413 96.9125 279.413Z" stroke="#FFC000" stroke-linecap="round" stroke-linejoin="round"/>
</g>
<g opacity="0.5">
<path opacity="0.5" d="M264.517 292.821C310.8 292.821 348.32 255.302 348.32 209.019C348.32 162.736 310.8 125.217 264.517 125.217C218.234 125.217 180.715 162.736 180.715 209.019C180.715 255.302 218.234 292.821 264.517 292.821Z" stroke="#FFC000" stroke-linecap="round" stroke-linejoin="round"/>
<path opacity="0.4" d="M264.517 292.821C310.8 292.821 348.32 255.302 348.32 209.019C348.32 162.736 310.8 125.217 264.517 125.217C218.234 125.217 180.715 162.736 180.715 209.019C180.715 255.302 218.234 292.821 264.517 292.821Z" stroke="#FFC000" stroke-linecap="round" stroke-linejoin="round"/>
<path opacity="0.6" d="M264.517 296.173C312.651 296.173 351.672 257.153 351.672 209.019C351.672 160.885 312.651 121.864 264.517 121.864C216.383 121.864 177.363 160.885 177.363 209.019C177.363 257.153 216.383 296.173 264.517 296.173Z" stroke="#FFC000" stroke-linecap="round" stroke-linejoin="round"/>
<path opacity="0.2" d="M264.517 299.525C314.503 299.525 355.024 259.004 355.024 209.019C355.024 159.033 314.503 118.512 264.517 118.512C214.532 118.512 174.011 159.033 174.011 209.019C174.011 259.004 214.532 299.525 264.517 299.525Z" stroke="#FFC000" stroke-linecap="round" stroke-linejoin="round"/>
<path opacity="0.8" d="M264.517 289.469C308.949 289.469 344.968 253.45 344.968 209.019C344.968 164.587 308.949 128.569 264.517 128.569C220.086 128.569 184.067 164.587 184.067 209.019C184.067 253.45 220.086 289.469 264.517 289.469Z" stroke="#FFC000" stroke-linecap="round" stroke-linejoin="round"/>
<path opacity="0.6" d="M264.517 286.117C307.097 286.117 341.615 251.599 341.615 209.019C341.615 166.439 307.097 131.921 264.517 131.921C221.937 131.921 187.419 166.439 187.419 209.019C187.419 251.599 221.937 286.117 264.517 286.117Z" stroke="#FFC000" stroke-linecap="round" stroke-linejoin="round"/>
<path opacity="0.4" d="M264.517 282.765C305.246 282.765 338.263 249.748 338.263 209.019C338.263 168.29 305.246 135.273 264.517 135.273C223.788 135.273 190.771 168.29 190.771 209.019C190.771 249.748 223.788 282.765 264.517 282.765Z" stroke="#FFC000" stroke-linecap="round" stroke-linejoin="round"/>
<path opacity="0.2" d="M264.517 279.413C303.395 279.413 334.911 247.896 334.911 209.019C334.911 170.141 303.395 138.625 264.517 138.625C225.64 138.625 194.123 170.141 194.123 209.019C194.123 247.896 225.64 279.413 264.517 279.413Z" stroke="#FFC000" stroke-linecap="round" stroke-linejoin="round"/>
</g>
<path d="M38.3165 234.227C52.2013 234.227 63.4572 222.971 63.4572 209.086C63.4572 195.201 52.2013 183.945 38.3165 183.945C24.4317 183.945 13.1758 195.201 13.1758 209.086C13.1758 222.971 24.4317 234.227 38.3165 234.227Z" stroke="#FFC000" stroke-linecap="round" stroke-linejoin="round"/>
<path opacity="0.8" d="M38.3165 232.551C51.2756 232.551 61.7811 222.045 61.7811 209.086C61.7811 196.127 51.2756 185.622 38.3165 185.622C25.3573 185.622 14.8518 196.127 14.8518 209.086C14.8518 222.045 25.3573 232.551 38.3165 232.551Z" stroke="#FFC000" stroke-linecap="round" stroke-linejoin="round"/>
<path opacity="0.6" d="M38.3164 230.875C50.35 230.875 60.1051 221.12 60.1051 209.086C60.1051 197.053 50.35 187.298 38.3164 187.298C26.2829 187.298 16.5278 197.053 16.5278 209.086C16.5278 221.12 26.2829 230.875 38.3164 230.875Z" stroke="#FFC000" stroke-linecap="round" stroke-linejoin="round"/>
<path opacity="0.4" d="M38.3164 229.199C49.4243 229.199 58.429 220.194 58.429 209.086C58.429 197.978 49.4243 188.974 38.3164 188.974C27.2086 188.974 18.2039 197.978 18.2039 209.086C18.2039 220.194 27.2086 229.199 38.3164 229.199Z" stroke="#FFC000" stroke-linecap="round" stroke-linejoin="round"/>
<path opacity="0.2" d="M38.3164 227.523C48.4986 227.523 56.753 219.268 56.753 209.086C56.753 198.904 48.4986 190.65 38.3164 190.65C28.1342 190.65 19.8799 198.904 19.8799 209.086C19.8799 219.268 28.1342 227.523 38.3164 227.523Z" stroke="#FFC000" stroke-linecap="round" stroke-linejoin="round"/>
<path d="M323.179 234.227C337.064 234.227 348.32 222.971 348.32 209.086C348.32 195.201 337.064 183.945 323.179 183.945C309.294 183.945 298.038 195.201 298.038 209.086C298.038 222.971 309.294 234.227 323.179 234.227Z" stroke="#FFC000" stroke-linecap="round" stroke-linejoin="round"/>
<path opacity="0.8" d="M323.179 232.551C336.138 232.551 346.644 222.045 346.644 209.086C346.644 196.127 336.138 185.622 323.179 185.622C310.22 185.622 299.714 196.127 299.714 209.086C299.714 222.045 310.22 232.551 323.179 232.551Z" stroke="#FFC000" stroke-linecap="round" stroke-linejoin="round"/>
<path opacity="0.6" d="M323.179 230.875C335.213 230.875 344.968 221.12 344.968 209.086C344.968 197.053 335.213 187.298 323.179 187.298C311.146 187.298 301.391 197.053 301.391 209.086C301.391 221.12 311.146 230.875 323.179 230.875Z" stroke="#FFC000" stroke-linecap="round" stroke-linejoin="round"/>
<path opacity="0.4" d="M323.179 229.199C334.287 229.199 343.292 220.194 343.292 209.086C343.292 197.978 334.287 188.974 323.179 188.974C312.071 188.974 303.067 197.978 303.067 209.086C303.067 220.194 312.071 229.199 323.179 229.199Z" stroke="#FFC000" stroke-linecap="round" stroke-linejoin="round"/>
<path opacity="0.2" d="M323.179 227.523C333.361 227.523 341.616 219.268 341.616 209.086C341.616 198.904 333.361 190.65 323.179 190.65C312.997 190.65 304.743 198.904 304.743 209.086C304.743 219.268 312.997 227.523 323.179 227.523Z" stroke="#FFC000" stroke-linecap="round" stroke-linejoin="round"/>
<path d="M180.715 234.227C194.6 234.227 205.856 222.971 205.856 209.086C205.856 195.201 194.6 183.945 180.715 183.945C166.83 183.945 155.574 195.201 155.574 209.086C155.574 222.971 166.83 234.227 180.715 234.227Z" stroke="#FFC000" stroke-linecap="round" stroke-linejoin="round"/>
<path opacity="0.6" d="M180.715 230.875C192.749 230.875 202.504 221.12 202.504 209.086C202.504 197.053 192.749 187.298 180.715 187.298C168.682 187.298 158.927 197.053 158.927 209.086C158.927 221.12 168.682 230.875 180.715 230.875Z" stroke="#FFC000" stroke-linecap="round" stroke-linejoin="round"/>
<path opacity="0.2" d="M180.715 227.523C190.897 227.523 199.152 219.268 199.152 209.086C199.152 198.904 190.897 190.65 180.715 190.65C170.533 190.65 162.279 198.904 162.279 209.086C162.279 219.268 170.533 227.523 180.715 227.523Z" stroke="#FFC000" stroke-linecap="round" stroke-linejoin="round"/>
<g opacity="0.5">
<path opacity="0.5" d="M155.575 234.227C169.459 234.227 180.715 222.971 180.715 209.086C180.715 195.201 169.459 183.945 155.575 183.945C141.69 183.945 130.434 195.201 130.434 209.086C130.434 222.971 141.69 234.227 155.575 234.227Z" stroke="#FFC000" stroke-linecap="round" stroke-linejoin="round"/>
<path opacity="0.6" d="M155.574 230.875C167.608 230.875 177.363 221.119 177.363 209.086C177.363 197.053 167.608 187.297 155.574 187.297C143.541 187.297 133.786 197.053 133.786 209.086C133.786 221.119 143.541 230.875 155.574 230.875Z" stroke="#FFC000" stroke-linecap="round" stroke-linejoin="round"/>
<path opacity="0.2" d="M155.574 227.523C165.757 227.523 174.011 219.268 174.011 209.086C174.011 198.904 165.757 190.65 155.574 190.65C145.392 190.65 137.138 198.904 137.138 209.086C137.138 219.268 145.392 227.523 155.574 227.523Z" stroke="#FFC000" stroke-linecap="round" stroke-linejoin="round"/>
</g>
<g opacity="0.5">
<path opacity="0.5" d="M205.856 234.227C219.741 234.227 230.997 222.971 230.997 209.086C230.997 195.201 219.741 183.945 205.856 183.945C191.971 183.945 180.715 195.201 180.715 209.086C180.715 222.971 191.971 234.227 205.856 234.227Z" stroke="#FFC000" stroke-linecap="round" stroke-linejoin="round"/>
<path opacity="0.6" d="M205.856 230.875C217.889 230.875 227.644 221.119 227.644 209.086C227.644 197.053 217.889 187.297 205.856 187.297C193.822 187.297 184.067 197.053 184.067 209.086C184.067 221.119 193.822 230.875 205.856 230.875Z" stroke="#FFC000" stroke-linecap="round" stroke-linejoin="round"/>
<path opacity="0.2" d="M205.856 227.523C216.038 227.523 224.292 219.268 224.292 209.086C224.292 198.904 216.038 190.65 205.856 190.65C195.673 190.65 187.419 198.904 187.419 209.086C187.419 219.268 195.673 227.523 205.856 227.523Z" stroke="#FFC000" stroke-linecap="round" stroke-linejoin="round"/>
</g>
<path d="M96.9127 126.055C97.3756 126.055 97.7507 125.68 97.7507 125.217C97.7507 124.754 97.3756 124.379 96.9127 124.379C96.4499 124.379 96.0747 124.754 96.0747 125.217C96.0747 125.68 96.4499 126.055 96.9127 126.055Z" fill="black" stroke="#FFC000" stroke-miterlimit="10"/>
<path d="M180.715 92.1785C181.641 92.1785 182.391 91.4281 182.391 90.5025C182.391 89.5768 181.641 88.8264 180.715 88.8264C179.789 88.8264 179.039 89.5768 179.039 90.5025C179.039 91.4281 179.789 92.1785 180.715 92.1785Z" fill="black" stroke="#FFC000" stroke-miterlimit="10"/>
<path d="M180.715 329.21C181.641 329.21 182.391 328.46 182.391 327.534C182.391 326.608 181.641 325.858 180.715 325.858C179.789 325.858 179.039 326.608 179.039 327.534C179.039 328.46 179.789 329.21 180.715 329.21Z" fill="black" stroke="#FFC000" stroke-miterlimit="10"/>
<path d="M180.715 377.529C181.178 377.529 181.553 377.154 181.553 376.691C181.553 376.228 181.178 375.853 180.715 375.853C180.252 375.853 179.877 376.228 179.877 376.691C179.877 377.154 180.252 377.529 180.715 377.529Z" fill="black" stroke="#FFC000" stroke-miterlimit="10"/>
<path d="M180.715 364.075C180.947 364.075 181.134 363.888 181.134 363.656C181.134 363.425 180.947 363.237 180.715 363.237C180.484 363.237 180.296 363.425 180.296 363.656C180.296 363.888 180.484 364.075 180.715 364.075Z" fill="black" stroke="#FFC000" stroke-miterlimit="10"/>
<path d="M180.715 42.2491C181.178 42.2491 181.553 41.8739 181.553 41.411C181.553 40.9482 181.178 40.573 180.715 40.573C180.252 40.573 179.877 40.9482 179.877 41.411C179.877 41.8739 180.252 42.2491 180.715 42.2491Z" fill="black" stroke="#FFC000" stroke-miterlimit="10"/>
<path d="M180.715 54.9971C180.947 54.9971 181.134 54.8095 181.134 54.5781C181.134 54.3467 180.947 54.1591 180.715 54.1591C180.484 54.1591 180.296 54.3467 180.296 54.5781C180.296 54.8095 180.484 54.9971 180.715 54.9971Z" fill="black" stroke="#FFC000" stroke-miterlimit="10"/>
<path d="M13.0451 209.854C13.5079 209.854 13.8831 209.478 13.8831 209.016C13.8831 208.553 13.5079 208.178 13.0451 208.178C12.5822 208.178 12.207 208.553 12.207 209.016C12.207 209.478 12.5822 209.854 13.0451 209.854Z" fill="black" stroke="#FFC000" stroke-miterlimit="10"/>
<path d="M323.179 209.854C323.642 209.854 324.017 209.478 324.017 209.016C324.017 208.553 323.642 208.178 323.179 208.178C322.716 208.178 322.341 208.553 322.341 209.016C322.341 209.478 322.716 209.854 323.179 209.854Z" fill="black" stroke="#FFC000" stroke-miterlimit="10"/>
<path d="M38.1857 209.854C38.6485 209.854 39.0237 209.478 39.0237 209.016C39.0237 208.553 38.6485 208.178 38.1857 208.178C37.7229 208.178 37.3477 208.553 37.3477 209.016C37.3477 209.478 37.7229 209.854 38.1857 209.854Z" fill="black" stroke="#FFC000" stroke-miterlimit="10"/>
<path d="M63.4572 209.854C63.92 209.854 64.2952 209.478 64.2952 209.016C64.2952 208.553 63.92 208.178 63.4572 208.178C62.9943 208.178 62.6191 208.553 62.6191 209.016C62.6191 209.478 62.9943 209.854 63.4572 209.854Z" fill="black" stroke="#FFC000" stroke-miterlimit="10"/>
<path d="M96.9127 209.854C97.3756 209.854 97.7507 209.478 97.7507 209.016C97.7507 208.553 97.3756 208.178 96.9127 208.178C96.4499 208.178 96.0747 208.553 96.0747 209.016C96.0747 209.478 96.4499 209.854 96.9127 209.854Z" fill="black" stroke="#FFC000" stroke-miterlimit="10"/>
<path d="M264.517 209.854C264.98 209.854 265.356 209.478 265.356 209.016C265.356 208.553 264.98 208.178 264.517 208.178C264.055 208.178 263.679 208.553 263.679 209.016C263.679 209.478 264.055 209.854 264.517 209.854Z" fill="black" stroke="#FFC000" stroke-miterlimit="10"/>
<path d="M298.038 209.854C298.501 209.854 298.876 209.478 298.876 209.016C298.876 208.553 298.501 208.178 298.038 208.178C297.576 208.178 297.2 208.553 297.2 209.016C297.2 209.478 297.576 209.854 298.038 209.854Z" fill="black" stroke="#FFC000" stroke-miterlimit="10"/>
<path d="M348.384 209.854C348.846 209.854 349.222 209.478 349.222 209.016C349.222 208.553 348.846 208.178 348.384 208.178C347.921 208.178 347.546 208.553 347.546 209.016C347.546 209.478 347.921 209.854 348.384 209.854Z" fill="black" stroke="#FFC000" stroke-miterlimit="10"/>
<path d="M96.9127 293.727C97.3756 293.727 97.7507 293.351 97.7507 292.888C97.7507 292.426 97.3756 292.05 96.9127 292.05C96.4499 292.05 96.0747 292.426 96.0747 292.888C96.0747 293.351 96.4499 293.727 96.9127 293.727Z" fill="black" stroke="#FFC000" stroke-miterlimit="10"/>
<path d="M264.517 293.727C264.98 293.727 265.356 293.351 265.356 292.888C265.356 292.426 264.98 292.05 264.517 292.05C264.055 292.05 263.679 292.426 263.679 292.888C263.679 293.351 264.055 293.727 264.517 293.727Z" fill="black" stroke="#FFC000" stroke-miterlimit="10"/>
<path d="M264.517 126.055C264.98 126.055 265.356 125.68 265.356 125.217C265.356 124.754 264.98 124.379 264.517 124.379C264.055 124.379 263.679 124.754 263.679 125.217C263.679 125.68 264.055 126.055 264.517 126.055Z" fill="black" stroke="#FFC000" stroke-miterlimit="10"/>
<path d="M296.528 93.3518C296.528 93.3518 185.418 209.016 13.0447 209.016" stroke="#FFC000" stroke-miterlimit="10" stroke-linecap="round"/>
<path d="M180.715 76.1017C183.029 76.1017 184.905 74.2257 184.905 71.9116C184.905 69.5974 183.029 67.7214 180.715 67.7214C178.401 67.7214 176.525 69.5974 176.525 71.9116C176.525 74.2257 178.401 76.1017 180.715 76.1017Z" fill="black" stroke="#FFC000" stroke-miterlimit="10" stroke-linecap="round"/>
<path d="M180.715 349.048C181.872 349.048 182.81 348.11 182.81 346.953C182.81 345.796 181.872 344.858 180.715 344.858C179.558 344.858 178.62 345.796 178.62 346.953C178.62 348.11 179.558 349.048 180.715 349.048Z" fill="black" stroke="#FFC000" stroke-miterlimit="10" stroke-linecap="round"/>
<path d="M29.936 351.505C32.2501 351.505 34.1261 349.629 34.1261 347.315C34.1261 345.001 32.2501 343.125 29.936 343.125C27.6218 343.125 25.7458 345.001 25.7458 347.315C25.7458 349.629 27.6218 351.505 29.936 351.505Z" fill="black" stroke="#FFC000" stroke-miterlimit="10" stroke-linecap="round"/>
<path d="M348.425 219.142C353.979 219.142 358.482 214.64 358.482 209.086C358.482 203.532 353.979 199.03 348.425 199.03C342.871 199.03 338.369 203.532 338.369 209.086C338.369 214.64 342.871 219.142 348.425 219.142Z" stroke="#FFC000" stroke-width="0.5" stroke-miterlimit="10"/>
<path d="M13.0448 219.142C18.5987 219.142 23.1011 214.64 23.1011 209.086C23.1011 203.532 18.5987 199.03 13.0448 199.03C7.49088 199.03 2.98853 203.532 2.98853 209.086C2.98853 214.64 7.49088 219.142 13.0448 219.142Z" stroke="#FFC000" stroke-width="0.5" stroke-miterlimit="10"/>
<path d="M42.3756 359.275C42.8384 359.275 43.2136 358.9 43.2136 358.437C43.2136 357.974 42.8384 357.599 42.3756 357.599C41.9128 357.599 41.5376 357.974 41.5376 358.437C41.5376 358.9 41.9128 359.275 42.3756 359.275Z" fill="black" stroke="#FFC000" stroke-miterlimit="10" stroke-linecap="round"/>
<path d="M2.15052 280.251C2.61335 280.251 2.98855 279.876 2.98855 279.413C2.98855 278.95 2.61335 278.575 2.15052 278.575C1.6877 278.575 1.3125 278.95 1.3125 279.413C1.3125 279.876 1.6877 280.251 2.15052 280.251Z" fill="black" stroke="#FFC000" stroke-miterlimit="10" stroke-linecap="round"/>
<path d="M351.839 93.6081C352.302 93.6081 352.677 93.2329 352.677 92.77C352.677 92.3072 352.302 91.932 351.839 91.932C351.376 91.932 351.001 92.3072 351.001 92.77C351.001 93.2329 351.376 93.6081 351.839 93.6081Z" fill="black" stroke="#FFC000" stroke-miterlimit="10" stroke-linecap="round"/>
<path d="M19.8797 120.189C20.8053 120.189 21.5557 119.438 21.5557 118.512C21.5557 117.587 20.8053 116.836 19.8797 116.836C18.954 116.836 18.2036 117.587 18.2036 118.512C18.2036 119.438 18.954 120.189 19.8797 120.189Z" fill="black" stroke="#FFC000" stroke-miterlimit="10" stroke-linecap="round"/>
<path d="M75.6536 46.439C76.5792 46.439 77.3296 45.6886 77.3296 44.763C77.3296 43.8373 76.5792 43.0869 75.6536 43.0869C74.7279 43.0869 73.9775 43.8373 73.9775 44.763C73.9775 45.6886 74.7279 46.439 75.6536 46.439Z" fill="black" stroke="#FFC000" stroke-miterlimit="10" stroke-linecap="round"/>
<path d="M108.645 38.0588C109.57 38.0588 110.321 37.3084 110.321 36.3827C110.321 35.4571 109.57 34.7067 108.645 34.7067C107.719 34.7067 106.969 35.4571 106.969 36.3827C106.969 37.3084 107.719 38.0588 108.645 38.0588Z" fill="black" stroke="#FFC000" stroke-miterlimit="10" stroke-linecap="round"/>
<path d="M282.278 4.10209C283.204 4.10209 283.954 3.3517 283.954 2.42605C283.954 1.50039 283.204 0.75 282.278 0.75C281.353 0.75 280.602 1.50039 280.602 2.42605C280.602 3.3517 281.353 4.10209 282.278 4.10209Z" fill="black" stroke="#FFC000" stroke-miterlimit="10" stroke-linecap="round"/>
<path d="M368.432 138.625C369.358 138.625 370.108 137.875 370.108 136.949C370.108 136.023 369.358 135.273 368.432 135.273C367.506 135.273 366.756 136.023 366.756 136.949C366.756 137.875 367.506 138.625 368.432 138.625Z" fill="black" stroke="#FFC000" stroke-miterlimit="10" stroke-linecap="round"/>
<path d="M358.481 259.3C359.407 259.3 360.158 258.55 360.158 257.624C360.158 256.699 359.407 255.948 358.481 255.948C357.556 255.948 356.805 256.699 356.805 257.624C356.805 258.55 357.556 259.3 358.481 259.3Z" fill="black" stroke="#FFC000" stroke-miterlimit="10" stroke-linecap="round"/>
<path d="M317.162 348.629C318.088 348.629 318.838 347.878 318.838 346.953C318.838 346.027 318.088 345.277 317.162 345.277C316.236 345.277 315.486 346.027 315.486 346.953C315.486 347.878 316.236 348.629 317.162 348.629Z" fill="black" stroke="#FFC000" stroke-miterlimit="10" stroke-linecap="round"/>
<path opacity="0.3" d="M77.9065 149.66L283.556 268.353" stroke="#FFC000" stroke-width="0.5" stroke-miterlimit="10"/>
<path opacity="0.3" d="M77.9065 268.371L283.522 149.66" stroke="#FFC000" stroke-width="0.5" stroke-miterlimit="10"/>
<path opacity="0.3" d="M180.715 90.5023L77.9065 268.371" stroke="#FFC000" stroke-width="0.5" stroke-miterlimit="10"/>
<path opacity="0.3" d="M283.556 268.353L180.715 90.5023" stroke="#FFC000" stroke-width="0.5" stroke-miterlimit="10"/>
<path opacity="0.3" d="M77.9065 268.371H283.485" stroke="#FFC000" stroke-width="0.5" stroke-miterlimit="10"/>
<path opacity="0.3" d="M77.9065 149.66L180.799 327.712" stroke="#FFC000" stroke-width="0.5" stroke-miterlimit="10"/>
<path opacity="0.3" d="M283.522 149.66L180.799 327.712" stroke="#FFC000" stroke-width="0.5" stroke-miterlimit="10"/>
</svg>
