<svg width="41" height="40" viewBox="0 0 41 40" fill="none" xmlns="http://www.w3.org/2000/svg">
<path fill-rule="evenodd" clip-rule="evenodd" d="M20.5007 32.416C20.9149 32.416 21.2507 32.0802 21.2507 31.666V20.7493L32.1673 20.7493C32.5815 20.7493 32.9173 20.4136 32.9173 19.9993C32.9173 19.5851 32.5815 19.2493 32.1673 19.2493L21.2507 19.2493L21.2507 8.33268C21.2507 7.91847 20.9149 7.58268 20.5007 7.58268C20.0864 7.58268 19.7507 7.91847 19.7507 8.33268L19.7507 19.2493H8.83398C8.41977 19.2493 8.08398 19.5851 8.08398 19.9993C8.08398 20.4136 8.41977 20.7493 8.83398 20.7493H19.7507V31.666C19.7507 32.0802 20.0864 32.416 20.5007 32.416Z" fill="#BDFFF1"/>
</svg>
