<svg width="266" height="20" viewBox="0 0 266 20" fill="none" xmlns="http://www.w3.org/2000/svg">
<path opacity="0.2" d="M252.37 19.2309L198.303 19.2309C192.179 19.2367 186.302 16.8797 181.957 12.6754L176.39 7.30931C172.034 3.10074 166.15 0.734851 160.015 0.724771L8.08931e-07 0.724772" stroke="#00FFC8" stroke-miterlimit="10"/>
<path opacity="0.25" d="M259.843 19.6084L259.843 18.8542L260.587 18.8542L260.587 19.6084L259.843 19.6084Z" fill="#00FFC8"/>
<path opacity="0.25" d="M261.332 19.6084L261.332 18.8542L262.076 18.8542L262.076 19.6084L261.332 19.6084Z" fill="#00FFC8"/>
<path opacity="0.5" d="M262.82 19.6084L262.82 18.8542L263.564 18.8542L263.564 19.6084L262.82 19.6084Z" fill="#00FFC8"/>
<path d="M253.888 19.6084L253.888 18.8542L254.632 18.8542L254.632 19.6084L253.888 19.6084Z" fill="#00FFC8"/>
<path d="M252.013 19.6084L252.013 18.8542L252.757 18.8542L252.757 19.6084L252.013 19.6084Z" fill="#00FFC8"/>
<path d="M264.666 19.6084L264.666 18.8542L265.41 18.8542L265.41 19.6084L264.666 19.6084Z" fill="#00FFC8"/>
<path opacity="0.5" d="M255.377 19.6084L255.377 18.8542L256.121 18.8542L256.121 19.6084L255.377 19.6084Z" fill="#00FFC8"/>
<path opacity="0.25" d="M256.866 19.6084L256.866 18.8542L257.61 18.8542L257.61 19.6084L256.866 19.6084Z" fill="#00FFC8"/>
<path opacity="0.25" d="M258.354 19.6084L258.354 18.8542L259.098 18.8542L259.098 19.6084L258.354 19.6084Z" fill="#00FFC8"/>
<path opacity="0.25" d="M196.934 1.52588e-05L196.934 2.90067L193.956 2.90067L193.956 1.51286e-05L196.934 1.52588e-05Z" fill="#00FFC8"/>
<path opacity="0.5" d="M194.313 0.753838L194.313 0.37674L194.701 0.37674L194.701 0.753838L194.313 0.753838Z" fill="#00FFC8"/>
<path d="M192.467 2.20416L192.467 1.82706L192.854 1.82706L192.854 2.20416L192.467 2.20416Z" fill="#00FFC8"/>
<path d="M192.467 1.10235L192.467 0.72525L192.854 0.72525L192.854 1.10235L192.467 1.10235Z" fill="#00FFC8"/>
<path d="M186.87 2.20416L186.87 1.82706L187.257 1.82706L187.257 2.20416L186.87 2.20416Z" fill="#00FFC8"/>
<path d="M186.87 1.10235L186.87 0.72525L187.257 0.72525L187.257 1.10235L186.87 1.10235Z" fill="#00FFC8"/>
<path d="M181.303 2.20416L181.303 1.82706L181.69 1.82706L181.69 2.20416L181.303 2.20416Z" fill="#00FFC8"/>
<path d="M181.303 1.10235L181.303 0.72525L181.69 0.72525L181.69 1.10235L181.303 1.10235Z" fill="#00FFC8"/>
<path opacity="0.5" d="M196.189 2.55267L196.189 2.17557L196.576 2.17557L196.576 2.55267L196.189 2.55267Z" fill="#00FFC8"/>
<path opacity="0.25" d="M194.7 2.20416L194.7 0.37674L196.576 0.37674L196.576 2.20416L194.7 2.20416Z" fill="#00FFC8"/>
<path opacity="0.25" d="M194.313 2.55268L194.313 0.72525L196.189 0.72525L196.189 2.55268L194.313 2.55268Z" fill="#00FFC8"/>
<path opacity="0.25" d="M191.336 1.52588e-05L191.336 2.90067L188.359 2.90067L188.359 1.51287e-05L191.336 1.52588e-05Z" fill="#00FFC8"/>
<path opacity="0.5" d="M188.746 0.753838L188.746 0.37674L189.133 0.37674L189.133 0.753838L188.746 0.753838Z" fill="#00FFC8"/>
<path opacity="0.5" d="M190.592 2.55267L190.592 2.17557L190.979 2.17557L190.979 2.55267L190.592 2.55267Z" fill="#00FFC8"/>
<path opacity="0.25" d="M189.103 2.20416L189.103 0.37674L190.979 0.37674L190.979 2.20416L189.103 2.20416Z" fill="#00FFC8"/>
<path opacity="0.25" d="M188.746 2.55268L188.746 0.72525L190.622 0.72525L190.622 2.55268L188.746 2.55268Z" fill="#00FFC8"/>
<path opacity="0.25" d="M185.769 1.52588e-05L185.769 2.90067L182.791 2.90067L182.791 1.51286e-05L185.769 1.52588e-05Z" fill="#00FFC8"/>
<path opacity="0.5" d="M183.148 0.753838L183.148 0.37674L183.535 0.37674L183.535 0.753838L183.148 0.753838Z" fill="#00FFC8"/>
<path opacity="0.5" d="M185.024 2.55267L185.024 2.17557L185.411 2.17557L185.411 2.55267L185.024 2.55267Z" fill="#00FFC8"/>
<path opacity="0.25" d="M183.536 2.20416L183.536 0.37674L185.411 0.37674L185.411 2.20416L183.536 2.20416Z" fill="#00FFC8"/>
<path opacity="0.25" d="M183.148 2.55268L183.148 0.72525L185.024 0.72525L185.024 2.55268L183.148 2.55268Z" fill="#00FFC8"/>
<path opacity="0.25" d="M180.171 1.52588e-05L180.171 2.90067L177.194 2.90067L177.194 1.51286e-05L180.171 1.52588e-05Z" fill="#00FFC8"/>
<path opacity="0.5" d="M177.581 0.753838L177.581 0.37674L177.968 0.37674L177.968 0.753838L177.581 0.753838Z" fill="#00FFC8"/>
<path opacity="0.5" d="M179.427 2.55267L179.427 2.17557L179.814 2.17557L179.814 2.55267L179.427 2.55267Z" fill="#00FFC8"/>
<path opacity="0.25" d="M177.938 2.20416L177.938 0.37674L179.814 0.37674L179.814 2.20416L177.938 2.20416Z" fill="#00FFC8"/>
<path opacity="0.25" d="M177.581 2.55268L177.581 0.72525L179.457 0.72525L179.457 2.55268L177.581 2.55268Z" fill="#00FFC8"/>
</svg>
