<svg width="42" height="42" viewBox="0 0 42 42" fill="none" xmlns="http://www.w3.org/2000/svg">
<circle opacity="0.2" cx="21" cy="21" r="17.5" fill="#FF0063"/>
<path fill-rule="evenodd" clip-rule="evenodd" d="M21 4C11.6112 4 4 11.6112 4 21C4 30.3888 11.6112 38 21 38C30.3888 38 38 30.3888 38 21C38 11.6112 30.3888 4 21 4ZM3 21C3 11.0589 11.0589 3 21 3C30.9411 3 39 11.0589 39 21C39 30.9411 30.9411 39 21 39C11.0589 39 3 30.9411 3 21ZM21 13.25C21.4142 13.25 21.75 13.5858 21.75 14V22.75C21.75 23.1642 21.4142 23.5 21 23.5C20.5858 23.5 20.25 23.1642 20.25 22.75V14C20.25 13.5858 20.5858 13.25 21 13.25ZM21 29.75C21.9665 29.75 22.75 28.9665 22.75 28C22.75 27.0335 21.9665 26.25 21 26.25C20.0335 26.25 19.25 27.0335 19.25 28C19.25 28.9665 20.0335 29.75 21 29.75Z" fill="#FF0063"/>
</svg>
