<svg width="18" height="18" viewBox="0 0 18 18" fill="none" xmlns="http://www.w3.org/2000/svg">
<path d="M6 3.75H2.25" stroke="#00FFC8" stroke-linecap="round" stroke-linejoin="round"/>
<path fill-rule="evenodd" clip-rule="evenodd" d="M15 5.25H6.75C6.336 5.25 6 4.914 6 4.5V3C6 2.586 6.336 2.25 6.75 2.25H15C15.414 2.25 15.75 2.586 15.75 3V4.5C15.75 4.914 15.414 5.25 15 5.25Z" stroke="#00FFC8" stroke-linecap="round" stroke-linejoin="round"/>
<path d="M6 9H2.25" stroke="#00FFC8" stroke-linecap="round" stroke-linejoin="round"/>
<path fill-rule="evenodd" clip-rule="evenodd" d="M15 10.5H6.75C6.336 10.5 6 10.164 6 9.75V8.25C6 7.836 6.336 7.5 6.75 7.5H15C15.414 7.5 15.75 7.836 15.75 8.25V9.75C15.75 10.164 15.414 10.5 15 10.5Z" stroke="#00FFC8" stroke-linecap="round" stroke-linejoin="round"/>
<path fill-rule="evenodd" clip-rule="evenodd" d="M15 15.75H6.75C6.336 15.75 6 15.414 6 15V13.5C6 13.086 6.336 12.75 6.75 12.75H15C15.414 12.75 15.75 13.086 15.75 13.5V15C15.75 15.414 15.414 15.75 15 15.75Z" stroke="#00FFC8" stroke-linecap="round" stroke-linejoin="round"/>
<path d="M6 14.25H3C2.586 14.25 2.25 13.914 2.25 13.5V2.25" stroke="#00FFC8" stroke-linecap="round" stroke-linejoin="round"/>
</svg>
