<svg width="10" height="13" viewBox="0 0 10 13" fill="none" xmlns="http://www.w3.org/2000/svg">
<path d="M9.13282 3.67421C9.36682 2.63221 9.47882 1.67421 9.24282 1.66421C9.24282 1.66421 9.18282 1.67621 9.07882 2.10021C9.05082 2.21621 8.97683 2.45021 8.87483 2.74021M9.13282 3.67421C8.93082 4.57621 8.63882 5.53821 8.40682 6.00221C7.21682 8.37421 6.52082 9.93421 6.44282 10.1942M9.13282 3.67421C9.19682 2.43421 8.87483 2.74021 8.87483 2.74021M8.87483 2.74021C8.71282 3.20021 8.48082 3.80221 8.24482 4.31421M8.24482 4.31421C8.08882 4.65021 7.93082 4.94821 7.79082 5.13821C7.30282 5.80221 6.47482 6.91621 6.32082 7.38821M8.24482 4.31421C8.24482 4.31421 8.37481 4.96221 8.00681 5.52221C7.64281 6.07621 6.64281 7.52621 6.50681 8.75621C6.50681 8.76821 6.50481 8.78021 6.50281 8.79221M5.72881 7.84221C5.72881 7.84221 6.04481 7.08221 6.19281 7.08221C6.23081 7.08221 6.27681 7.19821 6.32281 7.38821C6.39881 7.70221 6.47681 8.21821 6.50881 8.75821C6.53881 9.26621 6.52881 9.79421 6.44481 10.1962C6.41481 10.3442 6.37281 10.4742 6.31881 10.5782M4.09681 3.33021C4.28681 2.80021 4.46281 2.17821 4.58281 1.70621C4.59481 1.69221 4.87681 1.39821 4.92481 2.61221C5.06481 1.55421 5.09081 0.588208 4.85481 0.600208C4.85481 0.600208 4.79481 0.618208 4.73081 1.05021C4.71281 1.16821 4.66081 1.40821 4.58481 1.70621M4.09681 3.33021C3.97281 3.68021 3.84081 3.99021 3.71881 4.19221C3.29281 4.89821 2.56681 6.08021 2.45681 6.56421M4.09681 3.33021C4.09681 3.33021 4.28479 3.96421 3.96879 4.55421C3.65479 5.14021 2.78879 6.67221 2.76479 7.91221C2.76479 7.92421 2.76479 7.93421 2.76479 7.94621M2.82881 9.34821C2.88481 9.08221 3.43681 7.46621 4.40881 4.99821C4.59881 4.51621 4.80281 3.53021 4.92481 2.61421M2.7408 9.7402C2.7208 9.5782 2.6908 9.4102 2.6688 9.2742C2.6168 8.9582 2.1708 6.9502 1.9088 7.0702C1.6048 7.2082 1.5768 7.5802 1.3368 8.5662C1.0948 9.5522 1.0348 11.0602 1.1728 11.1262C1.6328 11.3482 2.7088 10.4502 2.7568 10.2682C2.7828 10.1642 2.7668 9.9582 2.7388 9.7402H2.7408ZM2.7408 9.7402C2.7828 9.6302 2.81281 9.49821 2.83081 9.34821C2.88081 8.94021 2.84281 8.41421 2.76681 7.91221C2.68681 7.37621 2.56281 6.86821 2.45881 6.56221C2.39481 6.37821 2.33881 6.26621 2.30081 6.27021C2.15281 6.28221 1.90681 7.06821 1.90681 7.06821M6.31881 10.5762C6.32881 10.7962 6.32481 11.0042 6.28881 11.1042C6.22481 11.2802 5.07281 12.0802 4.63281 11.8162C4.50081 11.7362 4.69681 10.2402 5.02481 9.28021C5.35281 8.32021 5.41281 7.95221 5.72881 7.84021C6.00081 7.74421 6.26481 9.78421 6.28881 10.1042C6.29881 10.2402 6.31281 10.4122 6.31881 10.5762Z" stroke="#FFC000" stroke-width="0.4" stroke-linecap="round" stroke-linejoin="round"/>
</svg>
