<svg width="14" height="15" viewBox="0 0 14 15" fill="none" xmlns="http://www.w3.org/2000/svg">
<path d="M1.9977 8.52012C1.88277 7.54521 1.98217 6.63802 2.38853 5.76644C2.92851 4.6083 4.53959 3.56545 6.09068 4.27419C6.77198 4.58551 7.38652 4.58724 8.08311 4.27633C9.52622 3.63222 10.8924 4.24043 11.5277 4.95904C11.721 5.1776 11.7491 5.30129 11.4958 5.51236C9.93502 6.81315 10.0986 8.88771 11.8357 9.97328C11.9851 10.0666 12.0961 10.1505 12.0242 10.3485C11.6726 11.3174 11.147 12.1814 10.4351 12.9244C9.8675 13.5168 9.18282 13.6203 8.45176 13.2738C7.64391 12.8909 6.85325 12.8731 6.0511 13.2734C5.9214 13.3381 5.77407 13.3683 5.63385 13.4111C5.10363 13.5727 4.63493 13.4448 4.24191 13.073C3.23685 12.1222 2.60177 10.9482 2.22613 9.62882C2.12602 9.27721 2.07405 8.9119 1.9977 8.52012Z" fill="#BDFFF1"/>
<path d="M9.53091 1.26438C9.47149 2.50604 8.74154 3.53465 7.71471 3.85828C6.99716 4.08444 6.863 3.971 6.99357 3.24853C7.18436 2.19288 8.17164 1.21537 9.21005 1.04587C9.37925 1.01826 9.50509 1.02887 9.53091 1.26438Z" fill="#BDFFF1"/>
</svg>
