<svg width="14" height="17" viewBox="0 0 14 17" fill="none" xmlns="http://www.w3.org/2000/svg">
<path d="M0.569026 10.3095C0.421268 9.05604 0.549061 7.88965 1.07153 6.76905C1.76579 5.28 3.83717 3.9392 5.83143 4.85044C6.70739 5.2507 7.49751 5.25293 8.39313 4.85318C10.2486 4.02504 12.0051 4.80703 12.8219 5.73097C13.0704 6.01196 13.1066 6.17099 12.7809 6.44237C10.7742 8.11481 10.9845 10.7821 13.2179 12.1778C13.4099 12.2978 13.5527 12.4057 13.4602 12.6603C13.0082 13.9059 12.3324 15.0169 11.4171 15.9722C10.6873 16.7339 9.80704 16.8669 8.8671 16.4214C7.82844 15.9291 6.81188 15.9061 5.78054 16.4209C5.61378 16.5041 5.42437 16.5429 5.24409 16.5978C4.56236 16.8056 3.95975 16.6413 3.45444 16.1632C2.16222 14.9407 1.34569 13.4313 0.862724 11.735C0.734014 11.2829 0.667197 10.8132 0.569026 10.3095Z" fill="white"/>
<path d="M10.2568 0.98124C10.1804 2.57766 9.24191 3.90015 7.92171 4.31625C6.99914 4.60703 6.82664 4.46118 6.99452 3.5323C7.23982 2.17502 8.50918 0.918227 9.84428 0.700304C10.0618 0.664794 10.2236 0.678445 10.2568 0.98124Z" fill="white"/>
</svg>
