<svg width="33" height="32" viewBox="0 0 33 32" fill="none" xmlns="http://www.w3.org/2000/svg">
<defs>
<linearGradient id="paint0_linear_11567_6380" x1="25.4599" y1="18.0409" x2="10.2889" y2="38.5692" gradientUnits="userSpaceOnUse">
<stop stop-color="#FFC000"/>
<stop offset="1" stop-color="#00FFC8"/>
</linearGradient>
<linearGradient id="paint1_linear_11567_6380" x1="25.4599" y1="18.0409" x2="10.2889" y2="38.5692" gradientUnits="userSpaceOnUse">
<stop stop-color="#FFC000"/>
<stop offset="1" stop-color="#00FFC8"/>
</linearGradient>
<linearGradient id="paint2_linear_11567_6380" x1="25.4599" y1="5.99574" x2="10.2889" y2="26.524" gradientUnits="userSpaceOnUse">
<stop stop-color="#FFC000"/>
<stop offset="1" stop-color="#00FFC8"/>
</linearGradient>
<linearGradient id="paint3_linear_11567_6380" x1="25.4599" y1="5.99574" x2="10.2889" y2="26.524" gradientUnits="userSpaceOnUse">
<stop stop-color="#FFC000"/>
<stop offset="1" stop-color="#00FFC8"/>
</linearGradient>
</defs>
<path d="M4.05546 16.3302C4.05456 16.1887 4.09247 16.0501 4.16452 15.9314C4.23657 15.8127 4.33961 15.7191 4.46094 15.6621C4.58227 15.6051 4.71659 15.5872 4.84733 15.6106C4.97808 15.634 5.09954 15.6978 5.19674 15.7939L16.5008 26.7432L26.1338 17.4099C26.2 17.3452 26.2776 17.2951 26.3621 17.2626C26.4466 17.2301 26.5363 17.2158 26.626 17.2205C26.7158 17.2252 26.8037 17.2489 26.8848 17.2901C26.9659 17.3313 27.0385 17.3893 27.0984 17.4606C27.2189 17.603 27.2815 17.7904 27.2726 17.9819C27.2636 18.1735 27.1839 18.3534 27.0509 18.4823L16.956 28.2577C16.8312 28.3779 16.669 28.4444 16.5008 28.4444C16.3327 28.4444 16.1705 28.3779 16.0457 28.2577L4.27285 16.8664C4.20371 16.798 4.14868 16.715 4.11125 16.6227C4.07382 16.5304 4.05483 16.4307 4.05546 16.3302ZM27.5876 16.3302C27.587 16.2348 27.6042 16.1403 27.638 16.052C27.6718 15.9637 27.7216 15.8834 27.7846 15.8157C27.8466 15.7479 27.9204 15.6937 28.002 15.6562C28.0841 15.6216 28.1718 15.6044 28.2601 15.6055C28.3507 15.6034 28.4408 15.6207 28.525 15.6562C28.6051 15.6966 28.6785 15.7504 28.7424 15.8157C28.8096 15.8813 28.8609 15.9634 28.8919 16.0548C28.943 16.1853 28.9571 16.3289 28.9326 16.4678L28.8919 16.6055L28.8307 16.7287C28.8068 16.7696 28.777 16.8063 28.7424 16.8374C28.6822 16.9073 28.6078 16.9618 28.525 16.9968C28.4413 17.0349 28.3512 17.0546 28.2601 17.0548C28.1713 17.0537 28.0836 17.034 28.002 16.9968C27.8387 16.919 27.7081 16.7796 27.6351 16.6055C27.6026 16.5179 27.5865 16.4244 27.5876 16.3302Z" fill="url(#paint0_linear_11567_6380)"/>
<path d="M4.05546 16.3302C4.05456 16.1887 4.09247 16.0501 4.16452 15.9314C4.23657 15.8127 4.33961 15.7191 4.46094 15.6621C4.58227 15.6051 4.71659 15.5872 4.84733 15.6106C4.97808 15.634 5.09954 15.6978 5.19674 15.7939L16.5008 26.7432L26.1338 17.4099C26.2 17.3452 26.2776 17.2951 26.3621 17.2626C26.4466 17.2301 26.5363 17.2158 26.626 17.2205C26.7158 17.2252 26.8037 17.2489 26.8848 17.2901C26.9659 17.3313 27.0385 17.3893 27.0984 17.4606C27.2189 17.603 27.2815 17.7904 27.2726 17.9819C27.2636 18.1735 27.1839 18.3534 27.0509 18.4823L16.956 28.2577C16.8312 28.3779 16.669 28.4444 16.5008 28.4444C16.3327 28.4444 16.1705 28.3779 16.0457 28.2577L4.27285 16.8664C4.20371 16.798 4.14868 16.715 4.11125 16.6227C4.07382 16.5304 4.05483 16.4307 4.05546 16.3302ZM27.5876 16.3302C27.587 16.2348 27.6042 16.1403 27.638 16.052C27.6718 15.9637 27.7216 15.8834 27.7846 15.8157C27.8466 15.7479 27.9204 15.6937 28.002 15.6562C28.0841 15.6216 28.1718 15.6044 28.2601 15.6055C28.3507 15.6034 28.4408 15.6207 28.525 15.6562C28.6051 15.6966 28.6785 15.7504 28.7424 15.8157C28.8096 15.8813 28.8609 15.9634 28.8919 16.0548C28.943 16.1853 28.9571 16.3289 28.9326 16.4678L28.8919 16.6055L28.8307 16.7287C28.8068 16.7696 28.777 16.8063 28.7424 16.8374C28.6822 16.9073 28.6078 16.9618 28.525 16.9968C28.4413 17.0349 28.3512 17.0546 28.2601 17.0548C28.1713 17.0537 28.0836 17.034 28.002 16.9968C27.8387 16.919 27.7081 16.7796 27.6351 16.6055C27.6026 16.5179 27.5865 16.4244 27.5876 16.3302Z" stroke="url(#paint1_linear_11567_6380)"/>
<path d="M4.05546 4.28499C4.05456 4.14358 4.09247 4.00497 4.16452 3.88625C4.23657 3.76754 4.33961 3.67391 4.46094 3.6169C4.58227 3.5599 4.71659 3.542 4.84733 3.56543C4.97808 3.58886 5.09954 3.65259 5.19674 3.74876L16.5008 14.698L26.1338 5.3647C26.2 5.29999 26.2776 5.24994 26.3621 5.21744C26.4466 5.18494 26.5363 5.17063 26.626 5.17535C26.7158 5.18007 26.8037 5.20371 26.8848 5.24492C26.9659 5.28613 27.0385 5.34409 27.0984 5.41543C27.2189 5.55779 27.2815 5.74527 27.2726 5.93678C27.2636 6.12829 27.1839 6.30822 27.0509 6.43717L16.956 16.2125C16.8312 16.3327 16.669 16.3992 16.5008 16.3992C16.3327 16.3992 16.1705 16.3327 16.0457 16.2125L4.27285 4.82122C4.20371 4.75283 4.14868 4.66983 4.11125 4.57751C4.07382 4.48519 4.05483 4.38557 4.05546 4.28499ZM27.5876 4.28499C27.587 4.18962 27.6042 4.09509 27.638 4.0068C27.6718 3.91851 27.7216 3.83821 27.7846 3.7705C27.8466 3.70272 27.9204 3.64856 28.002 3.61108C28.0841 3.57643 28.1718 3.5592 28.2601 3.56035C28.3507 3.55824 28.4408 3.57549 28.525 3.61108C28.6051 3.65139 28.6785 3.70522 28.7424 3.7705C28.8096 3.83616 28.8609 3.91821 28.8919 4.00963C28.943 4.14012 28.9571 4.2837 28.9326 4.42267L28.8919 4.56036L28.8307 4.68354C28.8068 4.72445 28.777 4.76113 28.7424 4.79224C28.6822 4.86217 28.6078 4.91667 28.525 4.95166C28.4413 4.98973 28.3512 5.00944 28.2601 5.00963C28.1713 5.00849 28.0836 4.98879 28.002 4.95166C27.8387 4.8738 27.7081 4.73448 27.6351 4.56036C27.6026 4.47274 27.5865 4.3792 27.5876 4.28499Z" fill="url(#paint2_linear_11567_6380)"/>
<path d="M4.05546 4.28499C4.05456 4.14358 4.09247 4.00497 4.16452 3.88625C4.23657 3.76754 4.33961 3.67391 4.46094 3.6169C4.58227 3.5599 4.71659 3.542 4.84733 3.56543C4.97808 3.58886 5.09954 3.65259 5.19674 3.74876L16.5008 14.698L26.1338 5.3647C26.2 5.29999 26.2776 5.24994 26.3621 5.21744C26.4466 5.18494 26.5363 5.17063 26.626 5.17535C26.7158 5.18007 26.8037 5.20371 26.8848 5.24492C26.9659 5.28613 27.0385 5.34409 27.0984 5.41543C27.2189 5.55779 27.2815 5.74527 27.2726 5.93678C27.2636 6.12829 27.1839 6.30822 27.0509 6.43717L16.956 16.2125C16.8312 16.3327 16.669 16.3992 16.5008 16.3992C16.3327 16.3992 16.1705 16.3327 16.0457 16.2125L4.27285 4.82122C4.20371 4.75283 4.14868 4.66983 4.11125 4.57751C4.07382 4.48519 4.05483 4.38557 4.05546 4.28499ZM27.5876 4.28499C27.587 4.18962 27.6042 4.09509 27.638 4.0068C27.6718 3.91851 27.7216 3.83821 27.7846 3.7705C27.8466 3.70272 27.9204 3.64856 28.002 3.61108C28.0841 3.57643 28.1718 3.5592 28.2601 3.56035C28.3507 3.55824 28.4408 3.57549 28.525 3.61108C28.6051 3.65139 28.6785 3.70522 28.7424 3.7705C28.8096 3.83616 28.8609 3.91821 28.8919 4.00963C28.943 4.14012 28.9571 4.2837 28.9326 4.42267L28.8919 4.56036L28.8307 4.68354C28.8068 4.72445 28.777 4.76113 28.7424 4.79224C28.6822 4.86217 28.6078 4.91667 28.525 4.95166C28.4413 4.98973 28.3512 5.00944 28.2601 5.00963C28.1713 5.00849 28.0836 4.98879 28.002 4.95166C27.8387 4.8738 27.7081 4.73448 27.6351 4.56036C27.6026 4.47274 27.5865 4.3792 27.5876 4.28499Z" stroke="url(#paint3_linear_11567_6380)"/>
</svg>
