<svg width="80" height="80" viewBox="0 0 80 80" fill="none" xmlns="http://www.w3.org/2000/svg">
<path d="M11.2959 18.8996C11.2959 18.8996 14.4959 14.4996 23.6959 18.0996C23.6959 18.0996 52.9959 28.1996 68.4959 55.7996C68.4959 55.7996 70.9959 59.6996 69.5959 60.3996C69.5959 60.3996 68.5959 61.0996 66.8959 59.9996C66.8959 59.9996 66.2959 59.4996 64.9959 60.4996C64.9959 60.4996 55.2959 67.4996 47.2959 52.3996C47.2959 52.3996 38.6959 35.7996 33.2959 31.2996C33.2959 31.2996 25.5959 23.9996 18.2959 21.7996C18.2959 21.7996 14.2959 20.5996 10.8959 21.0996C10.7959 21.1996 9.19591 21.3996 11.2959 18.8996Z" stroke="#FFECB3" stroke-width="0.6" stroke-miterlimit="10" stroke-linecap="round" stroke-linejoin="round"/>
<path d="M10.3984 20.1977C10.3984 20.1977 23.4984 7.39769 59.5984 48.2977C59.5984 48.2977 67.2984 53.4977 62.9984 61.3977" stroke="#FFECB3" stroke-width="0.6" stroke-miterlimit="10" stroke-linecap="round" stroke-linejoin="round"/>
<path d="M64.1922 49L59.9922 48.5" stroke="#FFECB3" stroke-width="0.6" stroke-miterlimit="10" stroke-linecap="round" stroke-linejoin="round"/>
<path d="M11.0993 23.9014C11.0993 23.9014 14.0993 21.5014 19.6993 25.7014C19.6993 25.7014 37.5992 38.3014 42.6992 59.9014C42.6992 59.9014 43.6992 63.0014 42.5992 63.2014C42.5992 63.2014 41.6992 63.5014 40.7992 62.4014C40.7992 62.4014 40.4993 61.9014 39.3993 62.4014C39.3993 62.4014 31.4993 65.2014 28.9993 53.5014C28.9993 53.5014 26.3993 40.6014 23.5993 36.5014C23.5993 36.5014 19.7993 30.1014 15.2993 27.2014C15.2993 27.2014 12.7992 25.6014 10.3992 25.3014C10.2992 25.3014 9.19925 25.1014 11.0993 23.9014Z" stroke="#FFECB3" stroke-width="0.6" stroke-miterlimit="10" stroke-linecap="round" stroke-linejoin="round"/>
</svg>
