<svg width="80" height="80" viewBox="0 0 80 80" fill="none" xmlns="http://www.w3.org/2000/svg">
<path d="M38.7964 38.1773C38.7964 38.1773 35.7856 32.313 29.1295 26.972C24.4797 23.2418 18.414 21.445 16.8895 21.2065C14.7364 20.8664 11.0559 20.2413 9.15545 26.0038C8.30655 28.574 7.16391 34.8425 8.92633 44.0475C11.0794 55.2906 14.24 57.0641 16.1904 57.5875C18.7489 58.2765 19.8739 58.0585 22.8113 57.2589C25.7486 56.4594 31.9494 53.6653 35.3068 48.9378C38.5056 44.4342 39.472 41.6052 38.7964 38.1773Z" stroke="#FFECB3" stroke-width="0.6" stroke-miterlimit="10" stroke-linecap="round" stroke-linejoin="round"/>
<path d="M38.7964 38.1773C38.7964 38.1773 35.7856 32.313 29.1295 26.972C24.4797 23.2418 18.414 21.445 16.8895 21.2065C14.7364 20.8664 11.0559 20.2413 9.15545 26.0038C8.30655 28.574 7.16391 34.8425 8.92633 44.0475C11.0794 55.2906 14.24 57.0641 16.1904 57.5875C18.7489 58.2765 19.8739 58.0585 22.8113 57.2589C25.7486 56.4594 31.9494 53.6653 35.3068 48.9378C38.5056 44.4342 39.472 41.6052 38.7964 38.1773Z" stroke="#FFECB3" stroke-width="0.6" stroke-miterlimit="10" stroke-linecap="round" stroke-linejoin="round"/>
<path d="M20.9639 22.147C20.9639 22.147 19.2044 21.4432 16.9149 23.1156C15.3223 24.279 14 26.5098 14 32.4025C13.9974 45.1506 19.5648 55.3305 22 57" stroke="#FFECB3" stroke-width="0.6" stroke-miterlimit="10" stroke-linecap="round" stroke-linejoin="round"/>
<path d="M38 38C38 38 33.1224 38.6336 27.7613 43.9312C23.6943 47.9499 20.9497 54.0257 22.386 57" stroke="#FFECB3" stroke-width="0.6" stroke-miterlimit="10" stroke-linecap="round" stroke-linejoin="round"/>
<path d="M47 39.0818C47 39.0818 51.2191 32.9637 58.3802 29.3069C64.3658 26.2521 67.1019 26.7584 68.743 27.8357C70.3841 28.9131 71.8551 34.041 70.4139 42.2463C68.9728 50.4515 64.6999 57 64.6999 57C64.6999 57 59.9975 53.8327 54.4178 49.1351C49.2587 44.792 47 39.0818 47 39.0818Z" stroke="#FFECB3" stroke-width="0.6" stroke-miterlimit="10" stroke-linecap="round" stroke-linejoin="round"/>
<path d="M70 30.9523C70 30.9523 69.2252 29.6747 66.6436 30.0791C64.1096 30.4744 60.742 32.5823 57.7101 37.0802C54.681 41.578 53 48 53 48" stroke="#FFECB3" stroke-width="0.6" stroke-miterlimit="10" stroke-linecap="round" stroke-linejoin="round"/>
<path d="M64.9852 56C64.9852 56 66.6662 54.0467 65.7012 50.4675C65.0355 48.0036 63.7097 45.9948 61.9952 44.7462C58.2919 42.0465 53 47.5402 53 47.5402" stroke="#FFECB3" stroke-width="0.6" stroke-miterlimit="10" stroke-linecap="round" stroke-linejoin="round"/>
<path d="M47 39.0818C47 39.0818 51.2191 32.9637 58.3802 29.3069C64.3658 26.2521 67.1019 26.7584 68.743 27.8357C70.3841 28.9131 71.8551 34.041 70.4139 42.2463C68.9728 50.4515 64.6999 57 64.6999 57C64.6999 57 59.9975 53.8327 54.4178 49.1351C49.2587 44.792 47 39.0818 47 39.0818Z" stroke="#FFECB3" stroke-width="0.6" stroke-miterlimit="10" stroke-linecap="round" stroke-linejoin="round"/>
</svg>
