<svg width="80" height="80" viewBox="0 0 80 80" fill="none" xmlns="http://www.w3.org/2000/svg">
<path d="M23.5 50.7002C23.5 50.7002 29.1 37.0002 44.9 28.3002C44.9 28.3002 57.4 21.8002 61.8 23.6002C61.8 23.6002 63.9 42.8002 44.8 51.6002C44.8 51.6002 35.9 49.0002 30.3 51.9002C30.3 51.9002 30.5 53.7002 30.8 54.2002C30.7 54.2002 24.8 54.2002 23.5 50.7002Z" stroke="#FFECB3" stroke-width="0.6" stroke-miterlimit="10" stroke-linecap="round" stroke-linejoin="round"/>
<path d="M33.2031 37.1017C33.2031 37.1017 54.0031 23.6017 61.4031 29.9017" stroke="#FFECB3" stroke-width="0.6" stroke-miterlimit="10" stroke-linecap="round" stroke-linejoin="round"/>
<path d="M24.5 48.3016C24.5 48.3016 51.3 50.3016 61.3 30.1016" stroke="#FFECB3" stroke-width="0.6" stroke-miterlimit="10" stroke-linecap="round" stroke-linejoin="round"/>
<path d="M60.5047 33.8984C60.5047 33.8984 54.5047 47.3984 38.3047 50.6984" stroke="#FFECB3" stroke-width="0.6" stroke-miterlimit="10" stroke-linecap="round" stroke-linejoin="round"/>
<path d="M23.6016 50.8008C23.6016 50.8008 26.9016 52.3008 30.1016 51.9008" stroke="#FFECB3" stroke-width="0.6" stroke-miterlimit="10" stroke-linecap="round" stroke-linejoin="round"/>
<path d="M30.3047 51.8995C30.3047 51.8995 40.9047 46.3995 57.6047 58.4995C57.6047 58.4995 65.1047 64.5995 65.3047 68.5995C65.3047 68.5995 52.0047 73.2995 39.2047 64.7995C39.2047 64.8995 31.1047 60.3995 30.3047 51.8995Z" stroke="#FFECB3" stroke-width="0.6" stroke-miterlimit="10" stroke-linecap="round" stroke-linejoin="round"/>
<path d="M30.3047 52C30.3047 52 55.7047 69.3 65.1047 68.3" stroke="#FFECB3" stroke-width="0.6" stroke-miterlimit="10" stroke-linecap="round" stroke-linejoin="round"/>
<path d="M30.8047 52C30.8047 52 53.4047 61.7 50.7047 54.1" stroke="#FFECB3" stroke-width="0.6" stroke-miterlimit="10" stroke-linecap="round" stroke-linejoin="round"/>
<path d="M58.8047 59.5C58.8047 59.5 64.0047 63.9 62.0047 68.2" stroke="#FFECB3" stroke-width="0.6" stroke-miterlimit="10" stroke-linecap="round" stroke-linejoin="round"/>
<path d="M23.1061 50.8C23.1061 50.8 22.3061 22.7 42.0061 10C42.0061 10 48.8061 15.6 45.6061 27.7C45.6061 27.7 29.8061 36.3 23.1061 50.8Z" stroke="#FFECB3" stroke-width="0.6" stroke-miterlimit="10" stroke-linecap="round" stroke-linejoin="round"/>
<path d="M45.9016 16.6016C45.9016 16.6016 45.2016 25.4016 42.1016 29.8016" stroke="#FFECB3" stroke-width="0.6" stroke-miterlimit="10" stroke-linecap="round" stroke-linejoin="round"/>
<path d="M45.6 16.5C45.6 16.5 30.9 19.1 23.5 49.8" stroke="#FFECB3" stroke-width="0.6" stroke-miterlimit="10" stroke-linecap="round" stroke-linejoin="round"/>
<path d="M30.4047 22.5C30.4047 22.5 26.7047 34.2 23.3047 45.3" stroke="#FFECB3" stroke-width="0.6" stroke-miterlimit="10" stroke-linecap="round" stroke-linejoin="round"/>
<path d="M26.4044 30.6992C26.4044 30.6992 15.9044 36.5992 18.2044 51.4992C18.2044 51.4992 23.7044 55.6992 26.6044 53.5992L22.9044 50.7992C22.9044 50.7992 22.8044 43.7992 26.4044 30.6992Z" stroke="#FFECB3" stroke-width="0.6" stroke-miterlimit="10" stroke-linecap="round" stroke-linejoin="round"/>
<path d="M23.9053 32.6992C23.9053 32.6992 19.7053 43.0992 22.7053 50.6992" stroke="#FFECB3" stroke-width="0.6" stroke-miterlimit="10" stroke-linecap="round" stroke-linejoin="round"/>
<path d="M23.4047 50.6992C22.6047 51.6992 18.3047 51.3992 18.3047 51.3992" stroke="#FFECB3" stroke-width="0.6" stroke-miterlimit="10" stroke-linecap="round" stroke-linejoin="round"/>
<path d="M18 48C18 48 20.5 49.2 22.1 48.6" stroke="#FFECB3" stroke-width="0.6" stroke-miterlimit="10" stroke-linecap="round" stroke-linejoin="round"/>
<path d="M18.2025 51.5C18.2025 51.5 13.1025 52.9 15.2025 62.6C15.2025 62.6 16.6025 68.8 24.1025 68.1C24.1025 68.1 34.0025 66 26.7025 53.6C26.6025 53.6 23.8025 55.9 18.2025 51.5Z" stroke="#FFECB3" stroke-width="0.6" stroke-miterlimit="10" stroke-linecap="round" stroke-linejoin="round"/>
<path d="M24.5 54.3008C24.5 54.3008 28.3 56.7008 28.8 58.5008" stroke="#FFECB3" stroke-width="0.6" stroke-miterlimit="10" stroke-linecap="round" stroke-linejoin="round"/>
<path d="M19.2047 52.1992C19.2047 52.1992 16.2047 52.1992 14.8047 57.2992" stroke="#FFECB3" stroke-width="0.6" stroke-miterlimit="10" stroke-linecap="round" stroke-linejoin="round"/>
</svg>
