<svg width="80" height="80" viewBox="0 0 80 80" fill="none" xmlns="http://www.w3.org/2000/svg">
<path d="M37.9661 48.1812C37.9661 48.1812 37.3661 50.5012 35.4461 51.6212C35.4461 51.6212 30.2861 50.0512 26.5361 51.2612C26.5361 51.2612 27.3461 49.3812 26.9961 48.9512L26.6561 48.5212C26.6561 48.5212 25.7161 49.8112 24.8561 49.8912C24.8561 49.8912 22.0261 41.0912 10.3461 44.5012C10.3461 44.5012 4.59607 46.3712 3.13607 46.0212C1.67607 45.6712 12.3061 35.5612 18.7061 32.2112C25.1161 28.8612 27.0061 27.5812 28.2961 31.1812C29.5861 34.7812 30.8161 46.6312 37.9761 48.1812H37.9661Z" stroke="#FFECB3" stroke-width="0.6" stroke-linecap="round" stroke-linejoin="round"/>
<path d="M13.3295 43.7402C13.3295 43.7402 21.5195 37.3302 30.8995 45.5202L29.4995 43.2902C22.4095 32.1402 9.91947 38.5202 9.91947 38.5202C9.91947 38.5202 2.45947 44.9402 3.11947 46.0402C3.11947 46.0402 6.41947 45.6902 8.75947 45.0002C8.75947 45.0002 12.6095 43.7102 13.3295 43.7502V43.7402Z" stroke="#FFECB3" stroke-width="0.6" stroke-linecap="round" stroke-linejoin="round"/>
<path d="M26.5956 37.1027C28.1256 41.2427 32.6756 50.1527 36.6556 50.2627L36.8556 50.4827C37.7156 49.4027 38.0256 48.2327 38.0256 48.2327C30.8656 46.6827 29.6356 34.8327 28.3456 31.2327C27.0556 27.6327 25.1656 28.9127 18.7656 32.2527C18.7656 32.2527 25.0656 32.9427 26.5956 37.0927V37.1027Z" stroke="#FFECB3" stroke-width="0.6" stroke-linecap="round" stroke-linejoin="round"/>
<path d="M18.7031 32.2109C18.7031 32.2109 25.0031 32.9009 26.5331 37.0509C28.0631 41.2009 32.6131 50.1009 36.5931 50.2109" stroke="#FFECB3" stroke-width="0.6" stroke-linecap="round" stroke-linejoin="round"/>
<path d="M27.0625 49.5722C27.0625 49.5722 32.4325 50.1922 32.8525 47.9922" stroke="#FFECB3" stroke-width="0.6" stroke-linecap="round" stroke-linejoin="round"/>
<path d="M37.9661 48.1812C37.9661 48.1812 37.3661 50.5012 35.4461 51.6212C35.4461 51.6212 30.2861 50.0512 26.5361 51.2612C26.5361 51.2612 27.3461 49.3812 26.9961 48.9512L26.6561 48.5212C26.6561 48.5212 25.7161 49.8112 24.8561 49.8912C24.8561 49.8912 22.0261 41.0912 10.3461 44.5012C10.3461 44.5012 4.59607 46.3712 3.13607 46.0212C1.67607 45.6712 12.3061 35.5612 18.7061 32.2112C25.1161 28.8612 27.0061 27.5812 28.2961 31.1812C29.5861 34.7812 30.8161 46.6312 37.9761 48.1812H37.9661Z" stroke="#FFECB3" stroke-width="0.6" stroke-linecap="round" stroke-linejoin="round"/>
<path d="M43.0256 48.1797C43.0256 48.1797 43.6256 50.4997 45.5456 51.6197C45.5456 51.6197 50.7056 50.0497 54.4556 51.2597C54.4556 51.2597 53.6456 49.3797 53.9956 48.9497L54.3356 48.5197C54.3356 48.5197 55.2756 49.8097 56.1356 49.8897C56.1356 49.8897 58.9656 41.0897 70.6456 44.4997C70.6456 44.4997 76.3956 46.3697 77.8556 46.0197C79.3156 45.6697 68.6856 35.5397 62.2756 32.1897C55.8656 28.8397 53.9756 27.5597 52.6956 31.1697C51.4056 34.7697 50.1756 46.6197 43.0156 48.1697L43.0256 48.1797Z" stroke="#FFECB3" stroke-width="0.6" stroke-linecap="round" stroke-linejoin="round"/>
<path d="M67.6559 43.7402C67.6559 43.7402 59.4659 37.3302 50.0859 45.5202L51.4859 43.2902C58.5859 32.1402 71.0659 38.5202 71.0659 38.5202C71.0659 38.5202 78.5259 44.9402 77.8659 46.0402C77.8659 46.0402 74.5659 45.6902 72.2259 45.0002C72.2259 45.0002 68.3759 43.7102 67.6559 43.7502V43.7402Z" stroke="#FFECB3" stroke-width="0.6" stroke-linecap="round" stroke-linejoin="round"/>
<path d="M54.3988 37.1027C52.8688 41.2427 48.3187 50.1527 44.3387 50.2627L44.1387 50.4827C43.2787 49.4027 42.9688 48.2327 42.9688 48.2327C50.1287 46.6827 51.3588 34.8327 52.6488 31.2327C53.9388 27.6327 55.8287 28.9127 62.2287 32.2527C62.2287 32.2527 55.9288 32.9427 54.3988 37.0927V37.1027Z" stroke="#FFECB3" stroke-width="0.6" stroke-linecap="round" stroke-linejoin="round"/>
<path d="M62.2806 32.2109C62.2806 32.2109 55.9806 32.9009 54.4506 37.0509C52.9206 41.1909 48.3706 50.1009 44.3906 50.2109" stroke="#FFECB3" stroke-width="0.6" stroke-linecap="round" stroke-linejoin="round"/>
<path d="M53.9306 49.5722C53.9306 49.5722 48.5606 50.1922 48.1406 47.9922" stroke="#FFECB3" stroke-width="0.6" stroke-linecap="round" stroke-linejoin="round"/>
<path d="M43.0256 48.1797C43.0256 48.1797 43.6256 50.4997 45.5456 51.6197C45.5456 51.6197 50.7056 50.0497 54.4556 51.2597C54.4556 51.2597 53.6456 49.3797 53.9956 48.9497L54.3356 48.5197C54.3356 48.5197 55.2756 49.8097 56.1356 49.8897C56.1356 49.8897 58.9656 41.0897 70.6456 44.4997C70.6456 44.4997 76.3956 46.3697 77.8556 46.0197C79.3156 45.6697 68.6856 35.5397 62.2756 32.1897C55.8656 28.8397 53.9756 27.5597 52.6956 31.1697C51.4056 34.7697 50.1756 46.6197 43.0156 48.1697L43.0256 48.1797Z" stroke="#FFECB3" stroke-width="0.6" stroke-linecap="round" stroke-linejoin="round"/>
</svg>
