<svg width="80" height="80" viewBox="0 0 80 80" fill="none" xmlns="http://www.w3.org/2000/svg">
<path d="M22.5994 64.2023C17.1994 60.5023 17.3994 59.0023 17.3994 59.0023C17.3994 59.0023 21.0994 51.5023 30.8994 51.7023C30.8994 51.7023 36.6994 51.6023 39.5994 49.8023L55.5994 40.2023C55.5994 40.2023 58.1994 39.0023 55.0994 36.1023L54.1994 35.4023" stroke="#FFECB3" stroke-width="0.6" stroke-miterlimit="10" stroke-linecap="round" stroke-linejoin="round"/>
<path d="M54.8047 15.3008C53.2047 16.2008 52.3047 33.5008 52.3047 33.5008" stroke="#FFECB3" stroke-width="0.6" stroke-miterlimit="10" stroke-linecap="round" stroke-linejoin="round"/>
<path d="M39.3013 15.4007C39.3013 15.4007 34.1013 13.7007 25.7013 23.6007C25.7013 23.6007 21.3013 28.3007 19.1013 35.8007C19.1013 35.8007 9.90129 39.6007 10.0013 53.7007C10.0013 53.7007 9.20129 68.4007 22.6013 64.3007C22.6013 64.3007 31.0013 66.4007 38.1013 64.1007C38.1013 64.1007 60.9013 56.7007 64.7013 51.0007C64.7013 51.0007 62.9013 49.6007 62.6013 48.6007C62.6013 48.6007 74.0013 39.3007 68.5013 28.1007C68.5013 28.1007 66.8013 27.9007 63.9013 30.3007L62.3013 29.2007C62.3013 29.2007 61.3013 16.0007 56.0013 15.0007C56.0013 15.0007 53.0013 14.8007 50.6013 21.3007L47.6013 27.7007C47.6013 27.7007 44.4013 22.9007 41.7013 23.7007C41.7013 23.7007 39.3013 24.5007 38.4013 26.3007L40.3013 17.3007C40.3013 17.2007 40.7013 15.3007 39.3013 15.4007Z" stroke="#FFECB3" stroke-width="0.6" stroke-miterlimit="10" stroke-linecap="round" stroke-linejoin="round"/>
<path d="M62.4984 29.3008C62.4984 29.3008 65.0984 32.6008 64.6984 36.2008L68.7984 33.5008C68.7984 33.5008 70.4984 45.2008 56.2984 50.1008L57.2984 52.9008C57.2984 52.9008 27.2984 69.7008 17.3984 58.9008L16.4984 60.3008C16.4984 60.3008 14.5984 63.0008 11.3984 60.7008" stroke="#FFECB3" stroke-width="0.6" stroke-miterlimit="10" stroke-linecap="round" stroke-linejoin="round"/>
<path d="M10.3047 51.9023C10.3047 51.9023 16.4047 55.6023 17.3047 58.9023" stroke="#FFECB3" stroke-width="0.6" stroke-miterlimit="10" stroke-linecap="round" stroke-linejoin="round"/>
<path d="M37.1031 15.3008C37.1031 15.3008 25.9031 20.3008 22.7031 32.9008" stroke="#FFECB3" stroke-width="0.6" stroke-miterlimit="10" stroke-linecap="round" stroke-linejoin="round"/>
<path d="M18.2031 36.2023C18.2031 36.2023 22.3031 32.2023 24.1031 32.6023C24.1031 32.6023 24.1031 34.9023 25.2031 35.8023" stroke="#FFECB3" stroke-width="0.6" stroke-miterlimit="10" stroke-linecap="round" stroke-linejoin="round"/>
<path d="M21.1063 39.0016C21.1063 39.0016 19.3062 38.8016 19.8062 35.6016C19.8062 35.6016 18.8062 35.7016 16.9062 37.0016" stroke="#FFECB3" stroke-width="0.6" stroke-miterlimit="10" stroke-linecap="round" stroke-linejoin="round"/>
<path d="M14.3047 44.8C14.3047 44.8 18.1047 41 18.6047 41C19.1047 41 19.1047 41 19.1047 41C19.1047 41 21.3047 43.2 20.5047 45.3" stroke="#FFECB3" stroke-width="0.6" stroke-miterlimit="10" stroke-linecap="round" stroke-linejoin="round"/>
<path d="M19.7031 35.6016C19.7031 35.6016 17.2031 39.0016 18.3031 41.2016" stroke="#FFECB3" stroke-width="0.6" stroke-miterlimit="10" stroke-linecap="round" stroke-linejoin="round"/>
<path d="M23.8084 32.6016C23.8084 32.6016 22.5084 34.9016 22.7084 36.7016" stroke="#FFECB3" stroke-width="0.6" stroke-miterlimit="10" stroke-linecap="round" stroke-linejoin="round"/>
<path d="M19.0078 45.6991C19.0078 45.6991 21.5078 45.6991 23.1078 43.3991C23.1078 43.3991 25.7078 39.1991 26.1078 40.0991C26.1078 40.0991 27.4078 42.1991 27.5078 42.8991C27.5078 42.8991 27.9078 43.8991 29.0078 42.9991" stroke="#FFECB3" stroke-width="0.6" stroke-miterlimit="10" stroke-linecap="round" stroke-linejoin="round"/>
<path d="M28.8047 42.9998C28.8047 42.9998 37.2047 34.4998 45.4047 35.4998C45.4047 35.4998 47.0047 37.1998 47.2047 37.2998" stroke="#FFECB3" stroke-width="0.6" stroke-miterlimit="10" stroke-linecap="round" stroke-linejoin="round"/>
<path d="M45.9062 35.9997C45.9062 35.9997 46.6062 35.4997 47.2062 34.5997C47.2062 34.5997 48.9062 31.0997 49.9062 31.5997C49.9062 31.5997 51.1063 31.7997 52.9062 34.6997L54.0062 35.3997" stroke="#FFECB3" stroke-width="0.6" stroke-miterlimit="10" stroke-linecap="round" stroke-linejoin="round"/>
<path d="M48.6041 32.4023C48.6041 32.4023 46.2041 36.0023 47.3041 37.4023" stroke="#FFECB3" stroke-width="0.6" stroke-miterlimit="10" stroke-linecap="round" stroke-linejoin="round"/>
<path d="M42.0078 23.6007C42.0078 23.6007 45.8078 26.6007 45.7078 28.1007C45.7078 28.1007 47.1078 27.3007 47.5078 27.6007C47.6078 27.6007 44.6078 23.4007 42.0078 23.6007Z" stroke="#FFECB3" stroke-width="0.6" stroke-miterlimit="10" stroke-linecap="round" stroke-linejoin="round"/>
</svg>
