<svg width="28" height="62" viewBox="0 0 28 62" fill="none" xmlns="http://www.w3.org/2000/svg">
<path d="M0.5 1C0.5 1 13.6 4.2 18.5 24.8C18.6 25.4 18.6 26 18.5 26.6C17.7 29.4 15.9 38.6 22.2 44.8C22.2 44.8 28.4 49.7 27.5 53.3C27.5 53.3 27.4 59.2 17.4 61.1C17.4 61.1 12.2 58.5 8.8 48.8C8.8 48.8 7 42.8 7.2 34.2C7.2 34.2 8.3 14.2 4.9 8.6C4.8 8.5 2.3 3.5 0.5 1Z" stroke="#FFECB3" stroke-width="0.6" stroke-miterlimit="10" stroke-linecap="square" stroke-linejoin="round"/>
<path d="M18.5 38.7C18.9 41.3 15.8 50.3 12.8 54.1L10.1 51.8" stroke="#FFECB3" stroke-width="0.6" stroke-miterlimit="10" stroke-linecap="round" stroke-linejoin="round"/>
<path d="M13.6 12.5C13.6 12.5 15.8 16.6 13.2 29C13.2 29 10.6 37.6 10.2 43.8L7.20001 32.4" stroke="#FFECB3" stroke-width="0.6" stroke-miterlimit="10" stroke-linecap="square" stroke-linejoin="round"/>
</svg>
