<svg width="18" height="18" viewBox="0 0 18 18" fill="none" xmlns="http://www.w3.org/2000/svg">
<path fill-rule="evenodd" clip-rule="evenodd" d="M9 12C9 10.3431 10.3431 9 12 9C10.3431 9 9 7.65685 9 6C9 7.65685 7.65685 9 6 9C7.65685 9 9 10.3431 9 12Z" stroke="#00FFC8" stroke-linecap="round" stroke-linejoin="round"/>
<path d="M15.75 9C15.75 12.7279 12.7279 15.75 9 15.75C5.27208 15.75 2.25 12.7279 2.25 9C2.25 5.27208 5.27208 2.25 9 2.25" stroke="#00FFC8" stroke-linecap="round" stroke-linejoin="round"/>
<path fill-rule="evenodd" clip-rule="evenodd" d="M14.25 6C14.25 4.75736 15.2574 3.75 16.5 3.75C15.2574 3.75 14.25 2.74264 14.25 1.5C14.25 2.74264 13.2426 3.75 12 3.75C13.2426 3.75 14.25 4.75736 14.25 6Z" stroke="#00FFC8" stroke-linecap="round" stroke-linejoin="round"/>
</svg>
