<svg width="62" height="57" viewBox="0 0 62 57" fill="none" xmlns="http://www.w3.org/2000/svg">
<path d="M32.4874 45.8C31.5874 45.5 31.0874 44.4 31.4874 43.5C34.5874 35.9 44.5874 12.5 58.1874 1.30001C58.1874 1.30001 61.3874 -0.999994 61.1874 1.80001C61.1874 1.80001 60.2874 55.5 45.7874 55.7C45.7874 55.7 42.0874 56.9 37.9874 50.9C37.8874 50.8 35.0874 46.6 32.4874 45.8Z" stroke="#FFC000" stroke-width="0.6" stroke-miterlimit="10" stroke-linecap="round" stroke-linejoin="round"/>
<path d="M31.7875 43.4C35.5875 35.3 47.0875 11.7 53.5875 8.10001C53.5875 8.10001 55.6875 33.2 38.7875 51.4C38.7875 51.4 35.5875 46.8 32.7875 45.8C31.7875 45.6 31.2875 44.4 31.7875 43.4Z" stroke="#FFC000" stroke-width="0.6" stroke-miterlimit="10" stroke-linecap="round" stroke-linejoin="round"/>
<path d="M53.0875 8.60001C53.0875 8.60001 59.0875 0.100011 60.8875 0.800011" stroke="#FFC000" stroke-width="0.6" stroke-miterlimit="10" stroke-linecap="round" stroke-linejoin="round"/>
<path d="M60.6875 1C60.6875 1 52.1875 51.3 44.7875 55.4" stroke="#FFC000" stroke-width="0.6" stroke-miterlimit="10" stroke-linecap="round" stroke-linejoin="round"/>
<path d="M34.8875 47.1C34.8875 47.1 38.7874 32.3 45.4874 33.3C45.4874 33.3 49.0874 34.1 46.9874 39.7" stroke="#FFC000" stroke-width="0.6" stroke-miterlimit="10" stroke-linecap="round" stroke-linejoin="round"/>
<path d="M53.2875 16.3C53.2875 16.3 43.4875 28.6 43.1875 33.2" stroke="#FFC000" stroke-width="0.6" stroke-miterlimit="10" stroke-linecap="round" stroke-linejoin="round"/>
<path d="M4.68748 17.9C4.68748 17.9 1.48748 14.7 1.28748 18.5C1.28748 18.5 -0.412519 36.3 8.78748 51.5C8.78748 51.5 20.3875 46.8 23.0875 46.3C23.9875 46.1 24.3875 45.1 23.8875 44.3C21.0875 39.3 11.4875 23.4 4.68748 17.9Z" stroke="#FFC000" stroke-width="0.6" stroke-miterlimit="10" stroke-linecap="round" stroke-linejoin="round"/>
<path d="M21.4875 46.4C16.2875 33.4 5.18752 23.1 5.18752 23.1C2.08752 20.1 1.38752 22.2 1.38752 22.2C1.38752 22.2 0.687525 40.8 10.1875 50.6" stroke="#FFC000" stroke-width="0.6" stroke-miterlimit="10" stroke-linecap="round" stroke-linejoin="round"/>
<path d="M1.58752 17.3C1.58752 17.3 8.38752 19.2 23.7875 45.4" stroke="#FFC000" stroke-width="0.6" stroke-miterlimit="10" stroke-linecap="round" stroke-linejoin="round"/>
<path d="M12.9875 49.8C12.9875 49.8 8.78752 45.3 10.4875 41.6C10.9875 40.4 12.3875 39.8 13.6875 40.3C15.4875 41 17.8875 43.4 17.6875 48" stroke="#FFC000" stroke-width="0.6" stroke-miterlimit="10" stroke-linecap="round" stroke-linejoin="round"/>
</svg>
