<svg width="30" height="30" viewBox="0 0 30 30" fill="none" xmlns="http://www.w3.org/2000/svg">
<path d="M20.8198 1.2901C20.3348 1.28924 19.8666 1.46727 19.5048 1.7901L6.13477 13.5151C5.92196 13.7028 5.75152 13.9336 5.63477 14.1922C5.51803 14.4508 5.45765 14.7313 5.45765 15.0151C5.45765 15.2989 5.51803 15.5794 5.63477 15.838C5.75152 16.0966 5.92196 16.3274 6.13477 16.5151L19.4598 28.2101C19.8424 28.5448 20.338 28.7213 20.8461 28.7036C21.3541 28.686 21.8363 28.4755 22.1948 28.1151C22.3812 27.9308 22.5289 27.7112 22.6294 27.4691C22.7298 27.227 22.781 26.9672 22.7798 26.7051C22.78 26.4424 22.7284 26.1822 22.628 25.9394C22.5277 25.6966 22.3804 25.476 22.1948 25.2901C22.1384 25.2344 22.0782 25.1826 22.0148 25.1351L21.9798 25.1001L11.3448 15.7751C11.2384 15.6813 11.1531 15.5659 11.0948 15.4365C11.0364 15.3072 11.0062 15.167 11.0062 15.0251C11.0062 14.8832 11.0364 14.743 11.0948 14.6137C11.1531 14.4844 11.2384 14.3689 11.3448 14.2751L22.0248 4.8951L22.0648 4.8651C22.1248 4.8151 22.1848 4.7651 22.2398 4.7101C22.5218 4.43036 22.7142 4.07296 22.7923 3.68346C22.8705 3.29397 22.8308 2.89003 22.6785 2.52314C22.5262 2.15625 22.268 1.84304 21.937 1.62344C21.606 1.40383 21.217 1.28779 20.8198 1.2901ZM20.8198 0.290101C21.4142 0.28864 21.9956 0.463794 22.4903 0.793338C22.985 1.12288 23.3707 1.59196 23.5984 2.14105C23.826 2.69014 23.8855 3.29448 23.7691 3.8774C23.6527 4.46031 23.3658 4.99552 22.9448 5.4151C22.8598 5.5001 22.7748 5.5751 22.6848 5.6501L11.9948 15.0151L22.6398 24.3501C22.7312 24.423 22.818 24.5015 22.8998 24.5851C23.46 25.1474 23.7746 25.9088 23.7746 26.7026C23.7746 27.4964 23.46 28.2578 22.8998 28.8201C22.6205 29.0984 22.289 29.319 21.9244 29.4691C21.5598 29.6193 21.1691 29.6961 20.7748 29.6951C20.0474 29.697 19.3447 29.4319 18.7998 28.9501L5.49477 17.2801C5.17555 16.9986 4.91989 16.6523 4.74477 16.2644C4.56965 15.8765 4.47909 15.4557 4.47909 15.0301C4.47909 14.6045 4.56965 14.1837 4.74477 13.7958C4.91989 13.4079 5.17555 13.0616 5.49477 12.7801L18.8448 1.0151C19.394 0.542949 20.0955 0.285435 20.8198 0.290101Z" fill="#00FFC8"/>
<path d="M25.0397 23.0151C25.1107 23.015 25.1809 22.9998 25.2455 22.9705C25.3102 22.9412 25.3679 22.8984 25.4147 22.8451C25.5021 22.7456 25.5465 22.6155 25.538 22.4833C25.5296 22.3511 25.4691 22.2277 25.3697 22.1401L17.2597 15.0151L25.3697 7.86011C25.4626 7.77087 25.5175 7.6492 25.5229 7.52048C25.5283 7.39176 25.4838 7.26592 25.3987 7.1692C25.3136 7.07248 25.1945 7.01235 25.0661 7.00134C24.9377 6.99033 24.8101 7.0293 24.7097 7.11011L16.1747 14.6501C16.1215 14.697 16.0789 14.7547 16.0497 14.8194C16.0205 14.8841 16.0055 14.9542 16.0055 15.0251C16.0055 15.0961 16.0205 15.1662 16.0497 15.2308C16.0789 15.2955 16.1215 15.3532 16.1747 15.4001L24.7097 22.8701C24.7979 22.9578 24.9155 23.0095 25.0397 23.0151Z" fill="#00FFC8"/>
</svg>
