<svg width="42" height="42" viewBox="0 0 42 42" fill="none" xmlns="http://www.w3.org/2000/svg">
<path opacity="0.2" fill-rule="evenodd" clip-rule="evenodd" d="M10.0052 36.8798C9.14789 36.3848 8.71926 36.1373 8.46634 35.7805C8.24348 35.4661 8.11621 35.094 8.09983 34.709C8.08124 34.272 8.26853 33.8139 8.64311 32.8976L9.53782 30.709C9.80982 30.0436 9.6942 29.2896 9.29888 28.6892C9.00244 28.239 8.73128 27.7707 8.48743 27.2863C8.1645 26.6448 7.5697 26.1684 6.8581 26.0713L4.51764 25.7522L4.51761 25.7522C3.53682 25.6184 3.04642 25.5516 2.6773 25.317C2.35203 25.1103 2.09341 24.814 1.93255 24.4638C1.75 24.0664 1.75 23.5714 1.75 22.5815V19.418C1.75 18.4281 1.75 17.9332 1.93255 17.5358C2.09341 17.1856 2.35203 16.8893 2.6773 16.6826C3.04642 16.448 3.53682 16.3811 4.51762 16.2474L4.51764 16.2474L6.85809 15.9282C7.56969 15.8312 8.16449 15.3547 8.48742 14.7132C8.73128 14.2288 9.00244 13.7605 9.29888 13.3103C9.6942 12.71 9.80982 11.9559 9.53782 11.2906L8.64311 9.10196C8.26853 8.18568 8.08124 7.72754 8.09983 7.29058C8.11621 6.90554 8.24348 6.53343 8.46634 6.21901C8.71926 5.8622 9.14789 5.61473 10.0052 5.11979L12.7448 3.53804C13.6021 3.04309 14.0307 2.79562 14.4662 2.755C14.8499 2.7192 15.2358 2.79503 15.5775 2.97337C15.9652 3.17576 16.2683 3.56702 16.8745 4.34955L18.3233 6.2196C18.7626 6.78678 19.4717 7.06389 20.188 7.02293C20.4567 7.00756 20.7275 6.99977 21 6.99977C21.2725 6.99977 21.5431 7.00756 21.8118 7.02292C22.5281 7.06387 23.2371 6.78676 23.6765 6.21959L25.1255 4.34929C25.7317 3.56676 26.0348 3.1755 26.4225 2.97311C26.7642 2.79478 27.1501 2.71894 27.5338 2.75474C27.9693 2.79536 28.3979 3.04284 29.2552 3.53778L31.9948 5.11953C32.8521 5.61447 33.2807 5.86194 33.5336 6.21876C33.7565 6.53317 33.8838 6.90528 33.9002 7.29032C33.9187 7.72728 33.7315 8.18542 33.3569 9.1017L32.4621 11.2905C32.1901 11.9558 32.3057 12.7099 32.701 13.3102C32.9975 13.7604 33.2687 14.2288 33.5126 14.7132C33.8355 15.3547 34.4303 15.8312 35.1419 15.9282L37.4824 16.2474C38.4632 16.3811 38.9536 16.448 39.3227 16.6826C39.648 16.8893 39.9066 17.1856 40.0674 17.5358C40.25 17.9332 40.25 18.4281 40.25 19.418V22.5815C40.25 23.5714 40.25 24.0664 40.0674 24.4638C39.9066 24.814 39.648 25.1103 39.3227 25.317C38.9536 25.5516 38.4632 25.6184 37.4824 25.7522L35.1419 26.0713C34.4303 26.1684 33.8355 26.6448 33.5126 27.2863C33.2687 27.7708 32.9975 28.2391 32.701 28.6893C32.3057 29.2897 32.1901 30.0437 32.4621 30.7091L33.3569 32.8978L33.3569 32.8979C33.7315 33.8141 33.9187 34.2723 33.9002 34.7092C33.8838 35.0943 33.7565 35.4664 33.5336 35.7808C33.2807 36.1376 32.8521 36.3851 31.9948 36.88L29.2552 38.4618C28.3979 38.9567 27.9693 39.2042 27.5338 39.2448C27.1501 39.2806 26.7642 39.2048 26.4225 39.0264C26.0348 38.824 25.7317 38.4328 25.1255 37.6502L23.6765 35.78C23.2372 35.2128 22.5281 34.9357 21.8118 34.9766C21.5431 34.992 21.2725 34.9998 21 34.9998C20.7275 34.9998 20.4567 34.992 20.188 34.9766C19.4717 34.9357 18.7626 35.2128 18.3233 35.7799L16.8745 37.65C16.2683 38.4325 15.9652 38.8238 15.5775 39.0262C15.2358 39.2045 14.8499 39.2803 14.4662 39.2445C14.0307 39.2039 13.6021 38.9565 12.7448 38.4615L10.0052 36.8798ZM21 26.2497C23.8995 26.2497 26.25 23.8992 26.25 20.9997C26.25 18.1002 23.8995 15.7497 21 15.7497C18.1005 15.7497 15.75 18.1002 15.75 20.9997C15.75 23.8992 18.1005 26.2497 21 26.2497Z" fill="#00FFC8"/>
<path d="M9.97779 12.3663L10.3712 12.6749C10.4821 12.5335 10.5086 12.3434 10.4406 12.1771L9.97779 12.3663ZM8.00897 15.7708L8.07652 16.2662C8.25442 16.2419 8.40566 16.1241 8.47275 15.9576L8.00897 15.7708ZM7.58613 6.51588L7.33613 6.08287C7.11959 6.20789 7.0287 6.47364 7.12331 6.70509L7.58613 6.51588ZM15.1639 2.14088L15.5591 1.83467C15.406 1.63701 15.1304 1.58285 14.9139 1.70787L15.1639 2.14088ZM19.0338 7.13623L18.6385 7.44245C18.7484 7.58424 18.9258 7.65633 19.1034 7.63137L19.0338 7.13623ZM22.966 7.13621L22.8964 7.63134C23.0741 7.6563 23.2514 7.58421 23.3613 7.44242L22.966 7.13621ZM26.8361 2.14062L27.0861 1.70761C26.8696 1.58259 26.594 1.63675 26.4409 1.83441L26.8361 2.14062ZM34.4139 6.51562L34.8767 6.70483C34.9713 6.47338 34.8804 6.20763 34.6639 6.08261L34.4139 6.51562ZM32.0221 12.3662L31.5593 12.177C31.4913 12.3433 31.5178 12.5334 31.6287 12.6748L32.0221 12.3662ZM33.991 15.7708L33.5272 15.9576C33.5943 16.1241 33.7456 16.2419 33.9235 16.2662L33.991 15.7708ZM40.25 16.6243H40.75C40.75 16.3742 40.5653 16.1626 40.3176 16.1288L40.25 16.6243ZM40.25 25.3743L40.3176 25.8697C40.5653 25.8359 40.75 25.6243 40.75 25.3743H40.25ZM33.991 26.2278L33.9235 25.7323C33.7456 25.7566 33.5943 25.8744 33.5272 26.0409L33.991 26.2278ZM32.0221 29.6323L31.6287 29.3237C31.5178 29.4651 31.4913 29.6552 31.5593 29.8215L32.0221 29.6323ZM34.4139 35.4829L34.6639 35.9159C34.8804 35.7909 34.9713 35.5251 34.8767 35.2937L34.4139 35.4829ZM26.8361 39.8579L26.4409 40.1641C26.594 40.3617 26.8696 40.4159 27.0861 40.2909L26.8361 39.8579ZM22.966 34.8623L23.3613 34.5561C23.2514 34.4143 23.0741 34.3422 22.8964 34.3671L22.966 34.8623ZM19.0338 34.8623L19.1034 34.3671C18.9257 34.3422 18.7484 34.4143 18.6385 34.556L19.0338 34.8623ZM15.1639 39.8576L14.9139 40.2906C15.1304 40.4156 15.406 40.3615 15.5591 40.1638L15.1639 39.8576ZM7.58613 35.4826L7.12331 35.2934C7.0287 35.5248 7.1196 35.7906 7.33613 35.9156L7.58613 35.4826ZM9.97779 29.6322L10.4406 29.8214C10.5086 29.6551 10.4821 29.465 10.3712 29.3236L9.97779 29.6322ZM8.00897 26.2278L8.47275 26.0409C8.40566 25.8744 8.25443 25.7566 8.07653 25.7323L8.00897 26.2278ZM1.75 25.3743H1.25C1.25 25.6243 1.4347 25.8359 1.68244 25.8697L1.75 25.3743ZM1.75 16.6243L1.68244 16.1288C1.4347 16.1626 1.25 16.3742 1.25 16.6243H1.75ZM9.58436 12.0577C8.74883 13.123 8.05903 14.3084 7.54518 15.5839L8.47275 15.9576C8.95091 14.7706 9.59302 13.667 10.3712 12.6749L9.58436 12.0577ZM7.12331 6.70509L9.51497 12.5555L10.4406 12.1771L8.04895 6.32668L7.12331 6.70509ZM14.9139 1.70787L7.33613 6.08287L7.83613 6.9489L15.4139 2.5739L14.9139 1.70787ZM19.429 6.83002L15.5591 1.83467L14.7686 2.4471L18.6385 7.44245L19.429 6.83002ZM21 6.49925C20.3093 6.49925 19.6296 6.54757 18.9642 6.6411L19.1034 7.63137C19.7228 7.5443 20.356 7.49925 21 7.49925V6.49925ZM23.0356 6.64107C22.3702 6.54756 21.6906 6.49925 21 6.49925V7.49925C21.6439 7.49925 22.277 7.54429 22.8964 7.63134L23.0356 6.64107ZM26.4409 1.83441L22.5708 6.82999L23.3613 7.44242L27.2314 2.44684L26.4409 1.83441ZM34.6639 6.08261L27.0861 1.70761L26.5861 2.57364L34.1639 6.94864L34.6639 6.08261ZM32.4849 12.5554L34.8767 6.70483L33.951 6.32642L31.5593 12.177L32.4849 12.5554ZM34.4548 15.5839C33.941 14.3084 33.2511 13.1229 32.4156 12.0576L31.6287 12.6748C32.4069 13.667 33.0491 14.7706 33.5272 15.9576L34.4548 15.5839ZM40.3176 16.1288L34.0586 15.2753L33.9235 16.2662L40.1824 17.1197L40.3176 16.1288ZM40.75 25.3743V16.6243H39.75V25.3743H40.75ZM34.0586 26.7232L40.3176 25.8697L40.1824 24.8788L33.9235 25.7323L34.0586 26.7232ZM32.4156 29.9409C33.2511 28.8756 33.9409 27.6901 34.4548 26.4146L33.5272 26.0409C33.0491 27.2279 32.4069 28.3315 31.6287 29.3237L32.4156 29.9409ZM34.8767 35.2937L32.485 29.4431L31.5593 29.8215L33.951 35.6721L34.8767 35.2937ZM27.0861 40.2909L34.6639 35.9159L34.1639 35.0498L26.5861 39.4248L27.0861 40.2909ZM22.5708 35.1685L26.4409 40.1641L27.2314 39.5516L23.3613 34.5561L22.5708 35.1685ZM21 35.4992C21.6906 35.4992 22.3702 35.4509 23.0356 35.3574L22.8964 34.3671C22.277 34.4542 21.6439 34.4992 21 34.4992V35.4992ZM18.9642 35.3574C19.6296 35.4509 20.3093 35.4992 21 35.4992V34.4992C20.356 34.4992 19.7228 34.4542 19.1034 34.3671L18.9642 35.3574ZM15.5591 40.1638L19.429 35.1685L18.6385 34.556L14.7686 39.5514L15.5591 40.1638ZM7.33613 35.9156L14.9139 40.2906L15.4139 39.4246L7.83613 35.0496L7.33613 35.9156ZM9.51497 29.443L7.12331 35.2934L8.04895 35.6718L10.4406 29.8214L9.51497 29.443ZM7.54519 26.4146C8.05903 27.6901 8.74883 28.8755 9.58436 29.9408L10.3712 29.3236C9.59303 28.3315 8.95091 27.2279 8.47275 26.0409L7.54519 26.4146ZM1.68244 25.8697L7.94141 26.7232L8.07653 25.7323L1.81756 24.8788L1.68244 25.8697ZM1.25 16.6243V25.3743H2.25V16.6243H1.25ZM7.94141 15.2753L1.68244 16.1288L1.81756 17.1197L8.07652 16.2662L7.94141 15.2753ZM25.75 20.9992C25.75 23.6225 23.6234 25.7492 21 25.7492V26.7492C24.1756 26.7492 26.75 24.1748 26.75 20.9992H25.75ZM21 16.2492C23.6234 16.2492 25.75 18.3758 25.75 20.9992H26.75C26.75 17.8235 24.1756 15.2492 21 15.2492V16.2492ZM16.25 20.9992C16.25 18.3758 18.3766 16.2492 21 16.2492V15.2492C17.8244 15.2492 15.25 17.8235 15.25 20.9992H16.25ZM21 25.7492C18.3766 25.7492 16.25 23.6225 16.25 20.9992H15.25C15.25 24.1748 17.8244 26.7492 21 26.7492V25.7492Z" fill="#00FFC8"/>
</svg>
