<svg width="14" height="32" viewBox="0 0 14 32" fill="none" xmlns="http://www.w3.org/2000/svg">
    <path
        d="M13.2358 32C13.3839 32.0011 13.5291 31.9524 13.6535 31.8598C13.7778 31.7671 13.8759 31.6346 13.9356 31.4787C13.9953 31.3227 14.0141 31.15 13.9895 30.9819C13.965 30.8138 13.8982 30.6576 13.7975 30.5326L2.32822 15.9988L12.1048 3.61355C12.1726 3.52839 12.225 3.4286 12.2591 3.31996C12.2931 3.21133 12.3081 3.09601 12.3031 2.98066C12.2982 2.86532 12.2734 2.75225 12.2303 2.64799C12.1871 2.54374 12.1264 2.45037 12.0517 2.37329C11.9025 2.21846 11.7062 2.13797 11.5056 2.14943C11.3049 2.16089 11.1165 2.26337 10.9814 2.43443L0.741804 15.4136C0.615924 15.5741 0.546242 15.7826 0.546242 15.9988C0.546242 16.215 0.615924 16.4235 0.741804 16.584L12.6741 31.7205C12.7457 31.8094 12.8327 31.8801 12.9294 31.9283C13.0261 31.9764 13.1304 32.0008 13.2358 32ZM13.2358 1.74442C13.3357 1.74508 13.4347 1.72305 13.5272 1.67958C13.6197 1.63612 13.7038 1.57207 13.7747 1.49112C13.8457 1.41141 13.9024 1.31645 13.9417 1.21163C13.978 1.10602 13.996 0.99328 13.9948 0.879723C13.997 0.763236 13.979 0.647417 13.9417 0.539086C13.8995 0.436183 13.8431 0.341801 13.7747 0.259588C13.7059 0.173186 13.62 0.107253 13.5242 0.0674347C13.3875 0.00176421 13.2371 -0.0164531 13.0916 0.0150287L12.9473 0.0674347L12.8183 0.146043C12.7754 0.176848 12.737 0.215157 12.7044 0.259588C12.6312 0.337087 12.5741 0.432633 12.5375 0.539086C12.4976 0.646801 12.4769 0.762641 12.4767 0.879723C12.4779 0.99386 12.4986 1.10662 12.5375 1.21163C12.619 1.4215 12.7649 1.58943 12.9473 1.68328C13.0391 1.72504 13.1371 1.74581 13.2358 1.74442Z"
        fill="#00FFC8" />
</svg>
