<svg width="20" height="20" viewBox="0 0 20 20" fill="none" xmlns="http://www.w3.org/2000/svg">
<path d="M18.3327 9.99935C18.3327 14.6021 14.6021 18.3327 9.99935 18.3327C5.39657 18.3327 1.66602 14.6021 1.66602 9.99935C1.66602 5.39657 5.39657 1.66602 9.99935 1.66602C11.3447 1.66602 12.6114 1.99287 13.7364 2.55861" stroke="#BDFFF1" stroke-linecap="round" stroke-linejoin="round"/>
<path opacity="0.2" d="M18.3327 9.99935C18.3327 14.6017 14.6017 18.3327 9.99935 18.3327C5.39698 18.3327 1.66602 14.6017 1.66602 9.99935C1.66602 5.39698 5.39698 1.66602 9.99935 1.66602C14.6017 1.66602 18.3327 5.39698 18.3327 9.99935Z" fill="#BDFFF1"/>
<path d="M16.666 5.83398L9.99876 12.5007L6.66602 9.16732" stroke="#BDFFF1" stroke-linecap="round" stroke-linejoin="round"/>
</svg>
