<svg width="18" height="18" viewBox="0 0 18 18" fill="none" xmlns="http://www.w3.org/2000/svg">
<path d="M15.75 8.25V14.25C15.75 15.0788 15.0788 15.75 14.25 15.75H3.75C2.92125 15.75 2.25 15.0788 2.25 14.25V3.75C2.25 2.92125 2.92125 2.25 3.75 2.25H9" stroke="#00FFC8" stroke-linecap="round" stroke-linejoin="round"/>
<path fill-rule="evenodd" clip-rule="evenodd" d="M6.75 11.2498L9.1125 10.9581C9.27825 10.9378 9.43275 10.8621 9.55125 10.7443L15.2745 5.02106C15.9082 4.38731 15.9082 3.35981 15.2745 2.72531V2.72531C14.6407 2.09156 13.6133 2.09156 12.9788 2.72531L7.30875 8.39531C7.194 8.51006 7.11975 8.65856 7.0965 8.81981L6.75 11.2498Z" stroke="#00FFC8" stroke-linecap="round" stroke-linejoin="round"/>
</svg>
