<svg width="22" height="22" viewBox="0 0 22 22" fill="none" xmlns="http://www.w3.org/2000/svg">
<mask id="path-1-inside-1_496_2131" fill="white">
<path d="M6.21236 1.71869C8.01887 1.71869 9.22933 2.80994 9.93542 3.73612C10.0088 3.83699 10.128 3.89201 10.2472 3.89201C10.3664 3.89201 10.4765 3.83699 10.559 3.74529C11.2651 2.85579 12.4755 1.80122 14.2362 1.80122C14.3646 1.80122 14.493 1.80122 14.6305 1.81956C15.9143 1.92961 17.1431 2.59902 18.0051 3.65359C18.7479 4.5706 20.2426 6.97316 18.0876 9.57747C18.0326 9.65084 17.9959 9.73337 17.9959 9.82507L17.9042 19.3436C17.9042 20.0681 17.3082 20.655 16.5746 20.655L3.60805 20.5266C2.88361 20.5266 2.29673 19.9214 2.29673 19.1969L2.38843 9.68752C2.38843 9.59581 2.36092 9.50411 2.29673 9.43075C0.187602 6.78059 1.72818 4.39636 2.4893 3.49769C3.36963 2.46147 4.60759 1.81956 5.90058 1.72786C6.00145 1.72786 6.11149 1.71869 6.20319 1.71869M6.20319 1.48944C6.09315 1.48944 5.99228 1.48944 5.88224 1.49861C4.48838 1.59031 3.21374 2.28724 2.31507 3.35097C1.1688 4.69898 0.132581 7.07404 2.12249 9.56831C2.15 9.59581 2.15917 9.64167 2.15917 9.67835L2.06747 19.1877C2.06747 20.0406 2.74606 20.7467 3.59888 20.7558L16.5654 20.8842H16.5838C17.4366 20.8842 18.1243 20.1965 18.1335 19.3528L18.2252 9.83424C18.2252 9.83424 18.2435 9.76088 18.2619 9.7242C20.2885 7.27578 19.2981 4.88238 18.1793 3.50686C17.299 2.42479 16.0335 1.70952 14.6489 1.59031C14.5113 1.58114 14.3738 1.57197 14.2362 1.57197C12.3472 1.57197 11.0633 2.74575 10.3756 3.59857C10.3756 3.59857 10.2931 3.66276 10.2472 3.66276C10.2014 3.66276 10.1463 3.64442 10.1188 3.59857C9.44024 2.70906 8.15642 1.48944 6.21236 1.48944H6.20319Z"/>
</mask>
<path d="M6.21236 1.71869C8.01887 1.71869 9.22933 2.80994 9.93542 3.73612C10.0088 3.83699 10.128 3.89201 10.2472 3.89201C10.3664 3.89201 10.4765 3.83699 10.559 3.74529C11.2651 2.85579 12.4755 1.80122 14.2362 1.80122C14.3646 1.80122 14.493 1.80122 14.6305 1.81956C15.9143 1.92961 17.1431 2.59902 18.0051 3.65359C18.7479 4.5706 20.2426 6.97316 18.0876 9.57747C18.0326 9.65084 17.9959 9.73337 17.9959 9.82507L17.9042 19.3436C17.9042 20.0681 17.3082 20.655 16.5746 20.655L3.60805 20.5266C2.88361 20.5266 2.29673 19.9214 2.29673 19.1969L2.38843 9.68752C2.38843 9.59581 2.36092 9.50411 2.29673 9.43075C0.187602 6.78059 1.72818 4.39636 2.4893 3.49769C3.36963 2.46147 4.60759 1.81956 5.90058 1.72786C6.00145 1.72786 6.11149 1.71869 6.20319 1.71869M6.20319 1.48944C6.09315 1.48944 5.99228 1.48944 5.88224 1.49861C4.48838 1.59031 3.21374 2.28724 2.31507 3.35097C1.1688 4.69898 0.132581 7.07404 2.12249 9.56831C2.15 9.59581 2.15917 9.64167 2.15917 9.67835L2.06747 19.1877C2.06747 20.0406 2.74606 20.7467 3.59888 20.7558L16.5654 20.8842H16.5838C17.4366 20.8842 18.1243 20.1965 18.1335 19.3528L18.2252 9.83424C18.2252 9.83424 18.2435 9.76088 18.2619 9.7242C20.2885 7.27578 19.2981 4.88238 18.1793 3.50686C17.299 2.42479 16.0335 1.70952 14.6489 1.59031C14.5113 1.58114 14.3738 1.57197 14.2362 1.57197C12.3472 1.57197 11.0633 2.74575 10.3756 3.59857C10.3756 3.59857 10.2931 3.66276 10.2472 3.66276C10.2014 3.66276 10.1463 3.64442 10.1188 3.59857C9.44024 2.70906 8.15642 1.48944 6.21236 1.48944H6.20319Z" fill="#00FFC8"/>
<path d="M9.93542 3.73612L10.7442 3.14795L10.7375 3.13881L10.7307 3.12984L9.93542 3.73612ZM10.559 3.74529L11.3023 4.41425L11.323 4.39126L11.3422 4.36702L10.559 3.74529ZM14.6305 1.81956L14.4984 2.81079L14.5217 2.8139L14.5451 2.81591L14.6305 1.81956ZM18.0051 3.65359L18.7822 3.02416L18.7794 3.02071L18.0051 3.65359ZM18.0876 9.57747L17.3172 8.93996L17.302 8.95836L17.2876 8.97747L18.0876 9.57747ZM17.9959 9.82507L18.9959 9.8347V9.82507H17.9959ZM17.9042 19.3436L16.9042 19.334V19.3436H17.9042ZM16.5746 20.655L16.5647 21.655H16.5746V20.655ZM3.60805 20.5266L3.61795 19.5266H3.60805V20.5266ZM2.29673 19.1969L1.29673 19.1873V19.1969H2.29673ZM2.38843 9.68752L3.38843 9.69716V9.68752H2.38843ZM2.29673 9.43075L1.51427 10.0535L1.52879 10.0717L1.54415 10.0893L2.29673 9.43075ZM2.4893 3.49769L1.72719 2.85024L1.72621 2.8514L2.4893 3.49769ZM5.90058 1.72786V0.727864H5.86516L5.82983 0.730369L5.90058 1.72786ZM5.88224 1.49861L5.94789 2.49645L5.95659 2.49588L5.96528 2.49516L5.88224 1.49861ZM2.31507 3.35097L3.07688 3.99877L3.07895 3.99632L2.31507 3.35097ZM2.12249 9.56831L1.34078 10.1919L1.37575 10.2358L1.41539 10.2754L2.12249 9.56831ZM2.15917 9.67835L3.15917 9.68799V9.67835H2.15917ZM2.06747 19.1877L1.06747 19.1781V19.1877H2.06747ZM3.59888 20.7558L3.58813 21.7558L3.58898 21.7558L3.59888 20.7558ZM16.5654 20.8842L16.5555 21.8842H16.5654V20.8842ZM18.1335 19.3528L19.1334 19.3637L19.1335 19.3624L18.1335 19.3528ZM18.2252 9.83424L17.2551 9.59171L17.2264 9.7064L17.2252 9.8246L18.2252 9.83424ZM18.2619 9.7242L17.4915 9.08657L17.4186 9.17468L17.3675 9.27698L18.2619 9.7242ZM18.1793 3.50686L18.9551 2.87588L18.9551 2.87578L18.1793 3.50686ZM14.6489 1.59031L14.7346 0.593998L14.725 0.593169L14.7154 0.592527L14.6489 1.59031ZM10.3756 3.59857L10.9895 4.38792L11.0811 4.31666L11.154 4.22632L10.3756 3.59857ZM10.1188 3.59857L10.9763 3.08407L10.9477 3.03631L10.9139 2.99203L10.1188 3.59857ZM6.21236 2.71869C7.57036 2.71869 8.52131 3.53064 9.14017 4.3424L10.7307 3.12984C9.93734 2.08923 8.46739 0.718694 6.21236 0.718694V2.71869ZM9.12669 4.32429C9.402 4.70284 9.83222 4.89201 10.2472 4.89201V2.89201C10.4238 2.89201 10.6156 2.97113 10.7442 3.14795L9.12669 4.32429ZM10.2472 4.89201C10.6883 4.89201 11.0574 4.68636 11.3023 4.41425L9.8157 3.07632C9.89553 2.98762 10.0446 2.89201 10.2472 2.89201V4.89201ZM11.3422 4.36702C11.9605 3.5882 12.9136 2.80122 14.2362 2.80122V0.801224C12.0375 0.801224 10.5697 2.12337 9.77577 3.12355L11.3422 4.36702ZM14.2362 2.80122C14.3719 2.80122 14.4362 2.80251 14.4984 2.81079L14.7627 0.828337C14.5497 0.79994 14.3573 0.801224 14.2362 0.801224V2.80122ZM14.5451 2.81591C15.5418 2.90134 16.5282 3.42688 17.2309 4.28646L18.7794 3.02071C17.758 1.77117 16.2869 0.957873 14.7159 0.823218L14.5451 2.81591ZM17.2281 4.28301C17.5498 4.68018 17.997 5.35837 18.1505 6.16891C18.2943 6.9279 18.1982 7.8753 17.3172 8.93996L18.8581 10.215C20.1321 8.67534 20.3661 7.1193 20.1156 5.79668C19.8748 4.5256 19.2033 3.54401 18.7822 3.02416L17.2281 4.28301ZM17.2876 8.97747C17.1473 9.16464 16.9959 9.45306 16.9959 9.82507H18.9959C18.9959 10.0137 18.918 10.137 18.8876 10.1775L17.2876 8.97747ZM16.996 9.81543L16.9043 19.334L18.9042 19.3533L18.9959 9.8347L16.996 9.81543ZM16.9042 19.3436C16.9042 19.5023 16.7695 19.655 16.5746 19.655V21.655C17.8469 21.655 18.9042 20.6339 18.9042 19.3436H16.9042ZM16.5845 19.655L3.61795 19.5266L3.59815 21.5265L16.5647 21.6549L16.5845 19.655ZM3.60805 19.5266C3.45386 19.5266 3.29673 19.3872 3.29673 19.1969H1.29673C1.29673 20.4555 2.31337 21.5266 3.60805 21.5266V19.5266ZM3.29668 19.2066L3.38838 9.69716L1.38847 9.67787L1.29677 19.1873L3.29668 19.2066ZM3.38843 9.68752C3.38843 9.3977 3.29983 9.05856 3.0493 8.77225L1.54415 10.0893C1.422 9.94966 1.38843 9.79393 1.38843 9.68752H3.38843ZM3.07918 8.80804C2.21654 7.72412 2.1374 6.7708 2.29564 6.01141C2.4645 5.20108 2.92513 4.53038 3.25239 4.14399L1.72621 2.8514C1.29234 3.36367 0.602131 4.33443 0.337699 5.60342C0.0626537 6.92335 0.267788 8.48723 1.51427 10.0535L3.07918 8.80804ZM3.2514 4.14515C3.96702 3.30281 4.96051 2.79705 5.97132 2.72536L5.82983 0.730369C4.25468 0.842082 2.77224 1.62014 1.72719 2.85024L3.2514 4.14515ZM5.90058 2.72786C5.97681 2.72786 6.0515 2.72444 6.09972 2.72229C6.15777 2.71971 6.1841 2.71869 6.20319 2.71869V0.718694C6.13058 0.718694 6.05604 0.72226 6.01092 0.724265C5.95599 0.726706 5.92522 0.727864 5.90058 0.727864V2.72786ZM6.20319 0.489441C6.09821 0.489441 5.95694 0.488919 5.79919 0.502065L5.96528 2.49516C6.02762 2.48996 6.08809 2.48944 6.20319 2.48944V0.489441ZM5.81659 0.500768C4.12752 0.611891 2.60875 1.4538 1.55118 2.70562L3.07895 3.99632C3.81872 3.12068 4.84924 2.56873 5.94789 2.49645L5.81659 0.500768ZM1.55325 2.70317C0.899548 3.47193 0.240963 4.57238 0.0527856 5.88822C-0.1408 7.24188 0.178218 8.73472 1.34078 10.1919L2.9042 8.94466C2.07686 7.90762 1.91903 6.9658 2.03264 6.17136C2.15166 5.3391 2.58432 4.57802 3.07688 3.99877L1.55325 2.70317ZM1.41539 10.2754C1.27511 10.1351 1.2166 9.98641 1.19179 9.90205C1.16574 9.81349 1.15917 9.73674 1.15917 9.67835H3.15917C3.15917 9.54987 3.13928 9.17087 2.8296 8.8612L1.41539 10.2754ZM1.15922 9.6687L1.06752 19.1781L3.06743 19.1974L3.15913 9.68799L1.15922 9.6687ZM1.06747 19.1877C1.06747 20.5718 2.17056 21.7405 3.58813 21.7558L3.60963 19.7559C3.32156 19.7528 3.06747 19.5093 3.06747 19.1877H1.06747ZM3.58898 21.7558L16.5555 21.8842L16.5753 19.8843L3.60878 19.7559L3.58898 21.7558ZM16.5654 21.8842H16.5838V19.8842H16.5654V21.8842ZM16.5838 21.8842C17.9871 21.8842 19.1183 20.7529 19.1334 19.3637L17.1336 19.3419C17.1303 19.6401 16.8861 19.8842 16.5838 19.8842V21.8842ZM19.1335 19.3624L19.2252 9.84387L17.2252 9.8246L17.1335 19.3432L19.1335 19.3624ZM18.2252 9.83424C19.1953 10.0768 19.1953 10.0768 19.1953 10.0769C19.1953 10.0769 19.1953 10.0769 19.1953 10.077C19.1953 10.0771 19.1953 10.0771 19.1952 10.0772C19.1952 10.0773 19.1952 10.0775 19.1951 10.0776C19.1951 10.0779 19.195 10.0781 19.1949 10.0784C19.1948 10.0789 19.1947 10.0793 19.1946 10.0797C19.1944 10.0804 19.1943 10.081 19.1942 10.0814C19.194 10.0822 19.1939 10.0824 19.194 10.0822C19.194 10.082 19.1941 10.0815 19.1943 10.081C19.1944 10.0805 19.1945 10.0803 19.1945 10.0803C19.1945 10.0803 19.1942 10.0812 19.1937 10.0829C19.1931 10.0846 19.192 10.0881 19.1902 10.0932C19.1885 10.0978 19.1776 10.1289 19.1563 10.1714L17.3675 9.27698C17.3161 9.37975 17.2863 9.4808 17.2788 9.50563C17.272 9.52834 17.2665 9.54809 17.2627 9.56224C17.2608 9.56949 17.2591 9.57571 17.2579 9.58064C17.2572 9.58312 17.2567 9.58529 17.2562 9.58714C17.256 9.58807 17.2558 9.58891 17.2556 9.58968C17.2555 9.59006 17.2554 9.59042 17.2553 9.59076C17.2553 9.59093 17.2552 9.59109 17.2552 9.59125C17.2552 9.59133 17.2551 9.59141 17.2551 9.59149C17.2551 9.59153 17.2551 9.59158 17.2551 9.5916C17.2551 9.59166 17.2551 9.59171 18.2252 9.83424ZM19.0322 10.3618C20.2175 8.9298 20.5614 7.44514 20.3924 6.08955C20.2283 4.77193 19.592 3.65888 18.9551 2.87588L17.4036 4.13785C17.8855 4.73036 18.3037 5.50177 18.4078 6.33684C18.5071 7.13392 18.3328 8.07018 17.4915 9.08657L19.0322 10.3618ZM18.9551 2.87578C17.9177 1.6007 16.4106 0.738284 14.7346 0.593998L14.5631 2.58663C15.6565 2.68076 16.6803 3.24889 17.4036 4.13795L18.9551 2.87578ZM14.7154 0.592527C14.5834 0.583731 14.4126 0.571972 14.2362 0.571972V2.57197C14.3349 2.57197 14.4392 2.57855 14.5823 2.5881L14.7154 0.592527ZM14.2362 0.571972C11.9007 0.571972 10.3607 2.02406 9.59718 2.97081L11.154 4.22632C11.766 3.46743 12.7936 2.57197 14.2362 2.57197V0.571972ZM10.3756 3.59857C9.76165 2.80921 9.76175 2.80913 9.76186 2.80905C9.76189 2.80902 9.762 2.80894 9.76206 2.80889C9.7622 2.80878 9.76234 2.80868 9.76247 2.80857C9.76274 2.80836 9.76301 2.80816 9.76327 2.80795C9.7638 2.80754 9.76432 2.80714 9.76483 2.80675C9.76584 2.80597 9.76681 2.80523 9.76774 2.80452C9.7696 2.8031 9.77132 2.8018 9.77293 2.80059C9.77611 2.79822 9.7791 2.79603 9.78205 2.79393C9.78694 2.79045 9.79579 2.78429 9.80865 2.77646C9.81854 2.77044 9.84936 2.75196 9.89606 2.73214C9.92303 2.7207 10.0572 2.66276 10.2472 2.66276V4.66276C10.4601 4.66276 10.6218 4.59678 10.6772 4.57331C10.7522 4.54146 10.8123 4.50693 10.8485 4.48486C10.8878 4.46098 10.9201 4.43878 10.9419 4.42326C10.9533 4.41515 10.9631 4.40794 10.971 4.40206C10.9749 4.3991 10.9785 4.39641 10.9816 4.39406C10.9831 4.39287 10.9845 4.39177 10.9859 4.39075C10.9865 4.39024 10.9872 4.38974 10.9878 4.38927C10.9881 4.38904 10.9884 4.38881 10.9887 4.38858C10.9888 4.38847 10.989 4.38836 10.9891 4.38825C10.9892 4.38819 10.9893 4.38811 10.9893 4.38808C10.9894 4.388 10.9895 4.38792 10.3756 3.59857ZM10.2472 2.66276C10.3493 2.66276 10.4662 2.6818 10.5865 2.73593C10.711 2.79197 10.8652 2.89887 10.9763 3.08407L9.26133 4.11306C9.53632 4.57138 10.0029 4.66276 10.2472 4.66276V2.66276ZM10.9139 2.99203C10.157 1.99989 8.61427 0.489441 6.21236 0.489441V2.48944C7.69858 2.48944 8.72348 3.41824 9.32377 4.2051L10.9139 2.99203ZM6.21236 0.489441H6.20319V2.48944H6.21236V0.489441Z" fill="#00FFC8" mask="url(#path-1-inside-1_496_2131)"/>
<path d="M3.60804 20.389C2.95697 20.389 2.4251 19.848 2.43427 19.1878L2.52597 9.67836C2.52597 9.55915 2.48929 9.43994 2.40676 9.33907C0.352657 6.77144 1.85655 4.46057 2.59933 3.58941C3.45215 2.5807 4.66261 1.94796 5.91891 1.86543C6.02895 1.86543 6.14816 1.85626 6.25821 1.85626C7.98219 1.8746 9.15596 2.92916 9.83455 3.81866C9.93542 3.94705 10.0913 4.02958 10.2472 4.02958C10.4031 4.02958 10.559 3.95622 10.669 3.82783C11.366 2.95667 12.5581 1.92045 14.282 1.93879C14.3921 1.93879 14.5113 1.93879 14.6213 1.95713C15.8685 2.06717 17.0698 2.71825 17.9042 3.7453C18.6287 4.6348 20.0776 6.97318 17.9868 9.49496C17.9042 9.58666 17.8676 9.70587 17.8676 9.83425L17.7759 19.3528C17.7759 20.0039 17.2348 20.5358 16.5746 20.5266L3.60804 20.3982V20.389Z" stroke="#00FFC8" stroke-linecap="round" stroke-linejoin="round"/>
<g opacity="0.51">
<path d="M3.60804 20.389C2.95697 20.389 2.4251 19.848 2.43427 19.1878L2.52597 9.67836C2.52597 9.55915 2.48929 9.43994 2.40676 9.33907C0.352657 6.77144 1.85655 4.46057 2.59933 3.58941C3.45215 2.5807 4.66261 1.94796 5.91891 1.86543C6.02895 1.86543 6.14816 1.85626 6.25821 1.85626C7.98219 1.8746 9.15596 2.92916 9.83455 3.81866C9.93542 3.94705 10.0913 4.02958 10.2472 4.02958C10.4031 4.02958 10.559 3.95622 10.669 3.82783C11.366 2.95667 12.5581 1.92045 14.282 1.93879C14.3921 1.93879 14.5113 1.93879 14.6213 1.95713C15.8685 2.06717 17.0698 2.71825 17.9042 3.7453C18.6287 4.6348 20.0776 6.97318 17.9868 9.49496C17.9042 9.58666 17.8676 9.70587 17.8676 9.83425L17.7759 19.3528C17.7759 20.0039 17.2348 20.5358 16.5746 20.5266L3.60804 20.3982V20.389Z" stroke="#00FFC8" stroke-linecap="round" stroke-linejoin="round"/>
</g>
<mask id="path-5-inside-2_496_2131" fill="white">
<path d="M14.2729 2.29643C14.3737 2.29643 14.4838 2.29643 14.5847 2.31477C15.7401 2.41564 16.8405 3.02086 17.62 3.96538C17.9593 4.37804 18.5461 5.24003 18.6837 6.29459C18.8121 7.32164 18.4819 8.31202 17.7025 9.24737C17.5741 9.40326 17.5007 9.605 17.4916 9.81591L17.3999 19.3345C17.3999 19.7838 17.0239 20.1506 16.5746 20.1506L3.60804 20.0222C3.1587 20.0222 2.7919 19.6463 2.7919 19.1969L2.8836 9.68753C2.8836 9.48579 2.81941 9.27488 2.69103 9.11898C1.92991 8.16529 1.61812 7.16575 1.76484 6.1387C1.92074 5.08414 2.52596 4.24049 2.87443 3.82783C3.66306 2.89248 4.78181 2.31477 5.93724 2.23224C6.03811 2.23224 6.14816 2.22307 6.24903 2.22307C7.82628 2.24141 8.90836 3.22261 9.5411 4.04792C9.70616 4.268 9.96292 4.39638 10.238 4.39638C10.5131 4.39638 10.7699 4.27717 10.9441 4.05709C11.586 3.25012 12.6864 2.28726 14.2729 2.3056M14.2729 1.58116C12.3563 1.56282 11.0633 2.74576 10.3756 3.60775C10.3756 3.60775 10.293 3.67194 10.2472 3.67194C10.2013 3.67194 10.1463 3.6536 10.1188 3.60775C9.44939 2.72742 8.17475 1.52614 6.2582 1.49863C6.13899 1.49863 6.01977 1.49863 5.89139 1.5078C4.49754 1.5995 3.22289 2.29643 2.32422 3.36016C1.17796 4.70816 0.141736 7.08322 2.13165 9.57749C2.15916 9.605 2.16833 9.65085 2.16833 9.68753L2.07663 19.1969C2.07663 20.0498 2.75522 20.7558 3.60804 20.765L16.5746 20.8934C17.4274 20.8934 18.1335 20.2148 18.1427 19.362L18.2344 9.84342C18.2344 9.84342 18.2527 9.77006 18.271 9.73338C20.2976 7.28496 19.3073 4.89157 18.1885 3.51605C17.3082 2.43398 16.0427 1.71871 14.658 1.5995C14.5296 1.59033 14.4104 1.58116 14.2912 1.58116H14.2729Z"/>
</mask>
<path d="M14.2729 2.29643C14.3737 2.29643 14.4838 2.29643 14.5847 2.31477C15.7401 2.41564 16.8405 3.02086 17.62 3.96538C17.9593 4.37804 18.5461 5.24003 18.6837 6.29459C18.8121 7.32164 18.4819 8.31202 17.7025 9.24737C17.5741 9.40326 17.5007 9.605 17.4916 9.81591L17.3999 19.3345C17.3999 19.7838 17.0239 20.1506 16.5746 20.1506L3.60804 20.0222C3.1587 20.0222 2.7919 19.6463 2.7919 19.1969L2.8836 9.68753C2.8836 9.48579 2.81941 9.27488 2.69103 9.11898C1.92991 8.16529 1.61812 7.16575 1.76484 6.1387C1.92074 5.08414 2.52596 4.24049 2.87443 3.82783C3.66306 2.89248 4.78181 2.31477 5.93724 2.23224C6.03811 2.23224 6.14816 2.22307 6.24903 2.22307C7.82628 2.24141 8.90836 3.22261 9.5411 4.04792C9.70616 4.268 9.96292 4.39638 10.238 4.39638C10.5131 4.39638 10.7699 4.27717 10.9441 4.05709C11.586 3.25012 12.6864 2.28726 14.2729 2.3056M14.2729 1.58116C12.3563 1.56282 11.0633 2.74576 10.3756 3.60775C10.3756 3.60775 10.293 3.67194 10.2472 3.67194C10.2013 3.67194 10.1463 3.6536 10.1188 3.60775C9.44939 2.72742 8.17475 1.52614 6.2582 1.49863C6.13899 1.49863 6.01977 1.49863 5.89139 1.5078C4.49754 1.5995 3.22289 2.29643 2.32422 3.36016C1.17796 4.70816 0.141736 7.08322 2.13165 9.57749C2.15916 9.605 2.16833 9.65085 2.16833 9.68753L2.07663 19.1969C2.07663 20.0498 2.75522 20.7558 3.60804 20.765L16.5746 20.8934C17.4274 20.8934 18.1335 20.2148 18.1427 19.362L18.2344 9.84342C18.2344 9.84342 18.2527 9.77006 18.271 9.73338C20.2976 7.28496 19.3073 4.89157 18.1885 3.51605C17.3082 2.43398 16.0427 1.71871 14.658 1.5995C14.5296 1.59033 14.4104 1.58116 14.2912 1.58116H14.2729Z" fill="#00FFC8"/>
<path d="M14.5847 2.31477L14.4058 3.29864L14.4514 3.30694L14.4977 3.31098L14.5847 2.31477ZM17.62 3.96538L18.3924 3.33028L18.3912 3.32889L17.62 3.96538ZM18.6837 6.29459L19.676 6.17056L19.6753 6.16525L18.6837 6.29459ZM17.7025 9.24737L16.9343 8.60717L16.9306 8.61166L17.7025 9.24737ZM17.4916 9.81591L16.4925 9.77248L16.4918 9.78937L16.4916 9.80628L17.4916 9.81591ZM17.3999 19.3345L16.3999 19.3249V19.3345H17.3999ZM16.5746 20.1506L16.5647 21.1506H16.5746V20.1506ZM3.60804 20.0222L3.61794 19.0222H3.60804V20.0222ZM2.7919 19.1969L1.7919 19.1873V19.1969H2.7919ZM2.8836 9.68753L3.8836 9.69718V9.68753H2.8836ZM2.69103 9.11898L1.90942 9.74276L1.91421 9.74876L1.9191 9.75469L2.69103 9.11898ZM1.76484 6.1387L0.775584 5.99246L0.774895 5.99728L1.76484 6.1387ZM2.87443 3.82783L3.63846 4.47301L3.63895 4.47243L2.87443 3.82783ZM5.93724 2.23224V1.23224H5.90157L5.866 1.23478L5.93724 2.23224ZM6.24903 2.22307L6.26065 1.22307H6.24903V2.22307ZM9.5411 4.04792L10.3411 3.44788L10.3347 3.43948L9.5411 4.04792ZM10.9441 4.05709L10.1615 3.43456L10.1601 3.43638L10.9441 4.05709ZM14.2729 1.58116L14.2633 2.58116H14.2729V1.58116ZM10.3756 3.60775L10.9895 4.3971L11.0832 4.32422L11.1573 4.23143L10.3756 3.60775ZM10.1188 3.60775L10.9763 3.09326L10.9481 3.04617L10.9148 3.00246L10.1188 3.60775ZM6.2582 1.49863L6.27255 0.49873L6.26537 0.498627H6.2582V1.49863ZM5.89139 1.5078L5.95704 2.50566L5.96264 2.50526L5.89139 1.5078ZM2.32422 3.36016L3.08604 4.00796L3.08811 4.00551L2.32422 3.36016ZM2.13165 9.57749L1.34994 10.2011L1.3849 10.245L1.42454 10.2846L2.13165 9.57749ZM2.16833 9.68753L3.16833 9.69718V9.68753H2.16833ZM2.07663 19.1969L1.07663 19.1873V19.1969H2.07663ZM3.60804 20.765L3.59728 21.765L3.59814 21.765L3.60804 20.765ZM16.5746 20.8934L16.5647 21.8934H16.5746V20.8934ZM18.1427 19.362L19.1426 19.3727L19.1426 19.3716L18.1427 19.362ZM18.2344 9.84342L17.2642 9.6009L17.2355 9.71558L17.2344 9.83379L18.2344 9.84342ZM18.271 9.73338L17.5007 9.09575L17.4278 9.18387L17.3766 9.28617L18.271 9.73338ZM18.1885 3.51605L18.9643 2.88507L18.9642 2.88496L18.1885 3.51605ZM14.658 1.5995L14.7438 0.603183L14.7365 0.602558L14.7293 0.602039L14.658 1.5995ZM14.2729 3.29643C14.3267 3.29643 14.3578 3.29658 14.3853 3.29777C14.4117 3.29892 14.4156 3.30043 14.4058 3.29864L14.7635 1.3309C14.5582 1.29357 14.3555 1.29643 14.2729 1.29643V3.29643ZM14.4977 3.31098C15.3643 3.38663 16.2255 3.84669 16.8487 4.60188L18.3912 3.32889C17.4555 2.19504 16.1159 1.44464 14.6716 1.31856L14.4977 3.31098ZM16.8475 4.60049C17.1352 4.95041 17.5896 5.63797 17.6921 6.42393L19.6753 6.16525C19.5027 4.84209 18.7833 3.80567 18.3924 3.33028L16.8475 4.60049ZM17.6914 6.41863C17.7793 7.12133 17.5712 7.84287 16.9343 8.60718L18.4707 9.88755C19.3927 8.78116 19.8449 7.52196 19.676 6.17056L17.6914 6.41863ZM16.9306 8.61166C16.6531 8.94856 16.5103 9.36282 16.4925 9.77248L18.4906 9.85935C18.4908 9.85514 18.4916 9.85428 18.4905 9.85723C18.4894 9.86023 18.4853 9.86985 18.4744 9.88307L16.9306 8.61166ZM16.4916 9.80628L16.3999 19.3249L18.3998 19.3441L18.4915 9.82555L16.4916 9.80628ZM16.3999 19.3345C16.3999 19.2738 16.4262 19.226 16.4541 19.1985C16.4813 19.1717 16.5234 19.1506 16.5746 19.1506V21.1506C17.5616 21.1506 18.3999 20.3506 18.3999 19.3345H16.3999ZM16.5845 19.1507L3.61794 19.0223L3.59814 21.0222L16.5647 21.1506L16.5845 19.1507ZM3.60804 19.0222C3.66869 19.0222 3.7165 19.0485 3.74399 19.0764C3.77079 19.1037 3.7919 19.1457 3.7919 19.1969H1.7919C1.7919 20.184 2.59197 21.0222 3.60804 21.0222V19.0222ZM3.79185 19.2066L3.88355 9.69717L1.88364 9.67789L1.79194 19.1873L3.79185 19.2066ZM3.8836 9.68753C3.8836 9.29238 3.76155 8.84586 3.46296 8.48328L1.9191 9.75469C1.89533 9.72583 1.88755 9.70467 1.88566 9.69894C1.88375 9.69314 1.8836 9.69054 1.8836 9.68753H3.8836ZM3.47263 8.49521C2.84974 7.71473 2.65409 6.98505 2.75479 6.28012L0.774895 5.99728C0.582156 7.34646 1.01007 8.61586 1.90942 9.74276L3.47263 8.49521ZM2.75409 6.28494C2.86976 5.50251 3.33539 4.83191 3.63846 4.47301L2.1104 3.18265C1.71654 3.64907 0.971716 4.66577 0.775595 5.99246L2.75409 6.28494ZM3.63895 4.47243C4.2616 3.73394 5.13446 3.29212 6.00849 3.22969L5.866 1.23478C4.42916 1.33741 3.06451 2.05103 2.10991 3.18324L3.63895 4.47243ZM5.93724 3.23224C6.01327 3.23224 6.0882 3.22881 6.13657 3.22671C6.19366 3.22422 6.22418 3.22307 6.24903 3.22307V1.22307C6.173 1.22307 6.09807 1.22649 6.0497 1.22859C5.99261 1.23108 5.96209 1.23224 5.93724 1.23224V3.23224ZM6.2374 3.223C7.36775 3.23614 8.19543 3.93627 8.74749 4.65635L10.3347 3.43948C9.62129 2.50895 8.28482 1.24667 6.26065 1.22313L6.2374 3.223ZM8.7411 4.64792C9.09501 5.1198 9.64816 5.39638 10.238 5.39638V3.39638C10.2777 3.39638 10.3173 3.41619 10.3411 3.44792L8.7411 4.64792ZM10.238 5.39638C10.8095 5.39638 11.3586 5.14456 11.7282 4.67779L10.1601 3.43638C10.1679 3.4265 10.1813 3.41481 10.199 3.4064C10.2161 3.39824 10.2304 3.39638 10.238 3.39638V5.39638ZM11.7267 4.67961C12.2849 3.97784 13.1239 3.29238 14.2613 3.30553L14.2844 1.30566C12.249 1.28213 10.8871 2.52239 10.1615 3.43456L11.7267 4.67961ZM14.2824 0.581203C11.914 0.558539 10.3606 2.02319 9.59389 2.98407L11.1573 4.23143C11.7661 3.46833 12.7987 2.5671 14.2633 2.58111L14.2824 0.581203ZM10.3756 3.60775C9.76164 2.8184 9.76174 2.81832 9.76184 2.81824C9.76188 2.81821 9.76198 2.81813 9.76205 2.81808C9.76219 2.81797 9.76232 2.81786 9.76246 2.81776C9.76273 2.81755 9.76299 2.81734 9.76326 2.81714C9.76379 2.81673 9.76431 2.81633 9.76481 2.81594C9.76582 2.81516 9.76679 2.81441 9.76772 2.8137C9.76958 2.81228 9.77131 2.81098 9.77292 2.80977C9.77609 2.8074 9.77909 2.80521 9.78203 2.80311C9.78693 2.79963 9.79577 2.79348 9.80863 2.78565C9.81853 2.77962 9.84934 2.76114 9.89605 2.74133C9.92301 2.72989 10.0572 2.67194 10.2472 2.67194V4.67194C10.4601 4.67194 10.6218 4.60597 10.6771 4.58249C10.7522 4.55065 10.8123 4.51612 10.8485 4.49405C10.8877 4.47017 10.9201 4.44797 10.9419 4.43245C10.9533 4.42433 10.9631 4.41713 10.971 4.41124C10.9749 4.40828 10.9785 4.4056 10.9815 4.40324C10.9831 4.40206 10.9845 4.40096 10.9859 4.39993C10.9865 4.39942 10.9872 4.39893 10.9878 4.39846C10.9881 4.39822 10.9884 4.39799 10.9887 4.39777C10.9888 4.39765 10.989 4.39754 10.9891 4.39743C10.9892 4.39738 10.9893 4.39729 10.9893 4.39727C10.9894 4.39719 10.9895 4.3971 10.3756 3.60775ZM10.2472 2.67194C10.3493 2.67194 10.4662 2.69099 10.5865 2.74512C10.711 2.80116 10.8652 2.90806 10.9763 3.09326L9.26132 4.12225C9.53631 4.58056 10.0029 4.67194 10.2472 4.67194V2.67194ZM10.9148 3.00246C10.1637 2.01466 8.6352 0.532643 6.27255 0.49873L6.24384 2.49852C7.7143 2.51963 8.73511 3.44018 9.32281 4.21304L10.9148 3.00246ZM6.2582 0.498627C6.14288 0.498627 5.98932 0.498254 5.82015 0.510338L5.96264 2.50526C6.05023 2.499 6.13509 2.49863 6.2582 2.49863V0.498627ZM5.82575 0.509954C4.13668 0.621077 2.6179 1.46299 1.56034 2.71481L3.08811 4.00551C3.82788 3.12986 4.8584 2.57792 5.95704 2.50564L5.82575 0.509954ZM1.56241 2.71236C0.908704 3.48112 0.250118 4.58157 0.0619409 5.89741C-0.131645 7.25106 0.187373 8.74391 1.34994 10.2011L2.91336 8.95385C2.08601 7.9168 1.92818 6.97499 2.0418 6.18054C2.16082 5.34828 2.59348 4.5872 3.08603 4.00796L1.56241 2.71236ZM1.42454 10.2846C1.28427 10.1443 1.22575 9.99559 1.20094 9.91123C1.17489 9.82267 1.16833 9.74593 1.16833 9.68753H3.16833C3.16833 9.55906 3.14843 9.18006 2.83876 8.87038L1.42454 10.2846ZM1.16838 9.67789L1.07668 19.1873L3.07658 19.2066L3.16828 9.69717L1.16838 9.67789ZM1.07663 19.1969C1.07663 20.581 2.17972 21.7497 3.59728 21.765L3.61879 19.7651C3.33071 19.762 3.07663 19.5185 3.07663 19.1969H1.07663ZM3.59814 21.765L16.5647 21.8934L16.5845 19.8934L3.61794 19.7651L3.59814 21.765ZM16.5746 21.8934C17.9586 21.8934 19.1274 20.7903 19.1426 19.3727L17.1427 19.3512C17.1396 19.6393 16.8961 19.8934 16.5746 19.8934V21.8934ZM19.1426 19.3716L19.2343 9.85306L17.2344 9.83379L17.1427 19.3524L19.1426 19.3716ZM18.2344 9.84342C19.2045 10.0859 19.2045 10.086 19.2045 10.0861C19.2045 10.0861 19.2045 10.0861 19.2044 10.0862C19.2044 10.0862 19.2044 10.0863 19.2044 10.0864C19.2044 10.0865 19.2043 10.0867 19.2043 10.0868C19.2042 10.0871 19.2042 10.0873 19.2041 10.0876C19.204 10.088 19.2039 10.0885 19.2038 10.0888C19.2036 10.0896 19.2034 10.0902 19.2033 10.0906C19.2031 10.0913 19.2031 10.0915 19.2031 10.0913C19.2032 10.0911 19.2033 10.0907 19.2034 10.0902C19.2036 10.0897 19.2037 10.0894 19.2036 10.0895C19.2036 10.0895 19.2034 10.0904 19.2028 10.0921C19.2023 10.0938 19.2011 10.0973 19.1993 10.1024C19.1977 10.107 19.1867 10.1381 19.1655 10.1806L17.3766 9.28617C17.3252 9.38894 17.2954 9.48999 17.288 9.51482C17.2812 9.53753 17.2757 9.55728 17.2719 9.57143C17.2699 9.57868 17.2683 9.5849 17.267 9.58983C17.2664 9.59231 17.2658 9.59448 17.2654 9.59633C17.2651 9.59726 17.2649 9.5981 17.2647 9.59887C17.2646 9.59925 17.2645 9.59961 17.2645 9.59995C17.2644 9.60012 17.2644 9.60028 17.2643 9.60044C17.2643 9.60052 17.2643 9.6006 17.2643 9.60067C17.2643 9.60071 17.2642 9.60077 17.2642 9.60079C17.2642 9.60085 17.2642 9.6009 18.2344 9.84342ZM19.0414 10.371C20.2267 8.93898 20.5705 7.45433 20.4016 6.09873C20.2374 4.78111 19.6011 3.66807 18.9643 2.88507L17.4127 4.14703C17.8946 4.73955 18.3129 5.51096 18.4169 6.34602C18.5163 7.14311 18.342 8.07936 17.5007 9.09575L19.0414 10.371ZM18.9642 2.88496C17.9269 1.60988 16.4197 0.74747 14.7438 0.603183L14.5722 2.59581C15.6657 2.68995 16.6895 3.25807 17.4128 4.14714L18.9642 2.88496ZM14.7293 0.602039C14.6131 0.593742 14.4539 0.581158 14.2912 0.581158V2.58116C14.3669 2.58116 14.4462 2.58691 14.5868 2.59696L14.7293 0.602039ZM14.2912 0.581158H14.2729V2.58116H14.2912V0.581158Z" fill="#00FFC8" mask="url(#path-5-inside-2_496_2131)"/>
<path d="M15.5292 13.8691C16.0244 13.3647 16.327 12.677 16.3362 11.9067C16.3453 11.1364 16.0794 10.522 15.6393 10.0085C17.134 8.22948 16.1069 6.57886 15.5934 5.95529C15.0065 5.24002 14.172 4.78152 13.2917 4.69899C13.2092 4.69899 13.1358 4.68982 13.0533 4.68982C11.8428 4.68065 11.0083 5.40508 10.5223 6.01948C10.449 6.11118 10.3481 6.15703 10.2289 6.15703C10.1097 6.15703 10.0088 6.10201 9.93545 6.01031C9.4586 5.38674 8.64246 4.64397 7.43201 4.6348C7.34948 4.6348 7.27612 4.6348 7.19358 4.6348C6.31325 4.69899 5.4696 5.13915 4.86438 5.84525C4.35085 6.45048 3.30546 8.05525 4.70849 9.85259C4.24081 10.1552 3.9382 10.6779 3.92903 11.2831C3.92903 11.925 4.26832 12.4936 4.79102 12.787V13.0713C3.97488 13.7224 3.51637 14.8136 3.79147 15.9966C4.0299 17.0144 4.83687 17.8306 5.85475 18.0782C6.6984 18.2799 7.50537 18.1149 8.13811 17.693C8.63329 18.124 9.28437 18.39 9.99047 18.3991C10.5498 18.3991 11.0817 18.2432 11.5219 17.9681C12.0996 18.5092 12.9066 18.8118 13.7869 18.7201C15.0982 18.5825 16.1528 17.528 16.3087 16.2166C16.4095 15.318 16.0978 14.4927 15.5384 13.9058V13.8691H15.5292Z" stroke="#00FFC8" stroke-width="0.25" stroke-linecap="round" stroke-linejoin="round"/>
<path d="M10.5132 6.01947L10.4948 8.28449C10.4948 8.73382 10.1188 9.09146 9.66951 9.09146L8.03723 9.07312" stroke="#00FFC8" stroke-width="0.1" stroke-linecap="round" stroke-linejoin="round"/>
<path d="M7.73461 9.33905C7.89667 9.33905 8.02805 9.20767 8.02805 9.04561C8.02805 8.88355 7.89667 8.75217 7.73461 8.75217C7.57254 8.75217 7.44116 8.88355 7.44116 9.04561C7.44116 9.20767 7.57254 9.33905 7.73461 9.33905Z" stroke="#00FFC8" stroke-width="0.25" stroke-linecap="round" stroke-linejoin="round"/>
<path d="M6.97353 13.8874C7.14572 13.8874 7.28531 13.7478 7.28531 13.5756C7.28531 13.4034 7.14572 13.2639 6.97353 13.2639C6.80133 13.2639 6.66174 13.4034 6.66174 13.5756C6.66174 13.7478 6.80133 13.8874 6.97353 13.8874Z" stroke="#00FFC8" stroke-width="0.25" stroke-linecap="round" stroke-linejoin="round"/>
<path d="M13.2642 17.2987C13.4364 17.2987 13.576 17.1591 13.576 16.9869C13.576 16.8147 13.4364 16.6751 13.2642 16.6751C13.092 16.6751 12.9524 16.8147 12.9524 16.9869C12.9524 17.1591 13.092 17.2987 13.2642 17.2987Z" stroke="#00FFC8" stroke-width="0.25" stroke-linecap="round" stroke-linejoin="round"/>
<path d="M15.5292 13.9149L13.8602 13.8966C13.5301 13.8966 13.2642 14.1534 13.2642 14.4835L13.2458 16.6568" stroke="#00FFC8" stroke-width="0.1" stroke-linecap="round" stroke-linejoin="round"/>
<path d="M3.70898 15.2813L6.13906 15.3088C6.59757 15.3088 6.96437 14.9512 6.97354 14.4927V13.8783" stroke="#00FFC8" stroke-width="0.1" stroke-linecap="round" stroke-linejoin="round"/>
<path d="M7.26697 11.98C7.60123 11.98 7.8722 11.7091 7.8722 11.3748C7.8722 11.0406 7.60123 10.7696 7.26697 10.7696C6.93271 10.7696 6.66174 11.0406 6.66174 11.3748C6.66174 11.7091 6.93271 11.98 7.26697 11.98Z" fill="#00FFC8"/>
<path d="M9.90796 11.9709C10.2422 11.9709 10.5132 11.6999 10.5132 11.3656C10.5132 11.0314 10.2422 10.7604 9.90796 10.7604C9.5737 10.7604 9.30273 11.0314 9.30273 11.3656C9.30273 11.6999 9.5737 11.9709 9.90796 11.9709Z" fill="#00FFC8"/>
<path d="M12.3931 11.9709C12.7273 11.9709 12.9983 11.6999 12.9983 11.3656C12.9983 11.0314 12.7273 10.7604 12.3931 10.7604C12.0588 10.7604 11.7878 11.0314 11.7878 11.3656C11.7878 11.6999 12.0588 11.9709 12.3931 11.9709Z" fill="#00FFC8"/>
<path d="M19.9583 2.98418C19.1055 1.93879 17.8767 1.23269 16.5287 1.12265C16.4003 1.11348 16.272 1.10431 16.1528 1.10431C14.1445 0.985094 12.1271 1.89293 12.1271 1.89293C10.4581 0.719161 8.01887 1.04012 8.01887 1.04012C7.17522 1.02177 6.36825 1.23269 5.63464 1.5353C5.71717 1.52613 5.80888 1.50779 5.89141 1.50779C6.01979 1.50779 6.139 1.49862 6.25821 1.49862C8.17476 1.51696 9.44941 2.72741 10.1188 3.59857C10.1188 3.59857 10.2014 3.66277 10.2472 3.66277C10.2931 3.66277 10.3481 3.64443 10.3756 3.59857C11.0633 2.73658 12.3563 1.55364 14.2729 1.57198C14.3921 1.57198 14.5113 1.57198 14.6397 1.59032C16.0244 1.70953 17.2898 2.43397 18.1702 3.50687C19.2889 4.87322 20.2793 7.27579 18.2527 9.72421C18.2252 9.75172 18.216 9.7884 18.216 9.83425L18.1243 19.3528C18.1243 19.8663 17.8676 20.3065 17.4824 20.5908C18.6745 20.2698 19.2889 19.7471 19.5915 19.2795C19.7658 19.0594 19.8758 18.7843 19.8942 18.4817C19.8942 18.4175 19.8942 18.3808 19.8942 18.3808L19.9859 9.13732C19.9859 9.13732 20.0042 9.06396 20.0225 9.03645C21.9941 6.66139 21.0313 4.33218 19.9492 3.00252L19.9583 2.98418Z" stroke="#00FFC8" stroke-width="0.25" stroke-linecap="round" stroke-linejoin="round"/>
</svg>
