<svg width="32" height="32" viewBox="0 0 32 32" fill="none" xmlns="http://www.w3.org/2000/svg">
<path d="M28.4973 8.0145C30.1046 10.4515 30.9343 13.3035 30.9343 16.311C30.9343 20.4071 29.327 24.2443 26.4751 27.0962C23.5714 29.9998 19.7342 31.5554 15.6898 31.5554C11.5937 31.5554 7.75646 29.9481 4.90459 27.0962C2.00097 24.1926 0.445312 20.3553 0.445312 16.311C0.445312 12.2149 2.05264 8.37765 4.90459 5.52579C7.80822 2.62218 11.6455 1.06653 15.6898 1.06653C18.6973 1.06653 21.5492 1.89625 23.9864 3.50357L22.0675 5.62922L22.2748 6.51066C17.7117 3.39936 11.3859 3.91806 7.34139 7.96251C2.72655 12.5773 2.72655 20.044 7.34139 24.6588C11.9562 29.2736 19.4229 29.2736 24.0378 24.6588C28.0822 20.6144 28.5488 14.2884 25.4896 9.72547L26.3711 9.93272L28.4973 8.0145ZM21.3416 8.63661C17.6083 5.88846 12.3713 6.19957 9.00082 9.56976C5.31913 13.2514 5.31913 19.2661 9.00082 22.9994C12.6825 26.7327 18.6972 26.6811 22.4305 22.9994C25.8007 19.6292 26.1122 14.3401 23.3637 10.6587L20.8749 13.1474C22.275 15.4807 22.0156 18.5399 19.9934 20.5104C17.6602 22.8437 13.8751 22.8437 11.4897 20.5104C9.15642 18.1772 9.15642 14.3921 11.4897 12.0067C13.5119 9.98448 16.5711 9.72513 18.8527 11.1253L21.3416 8.63661ZM17.0899 12.8883C15.7419 12.3179 14.1342 12.5772 13.0455 13.6659C11.5936 15.1178 11.5936 17.451 13.0455 18.8511C14.4973 20.303 16.8306 20.303 18.2307 18.8511C19.3198 17.762 19.5787 16.1547 19.0083 14.8067L17.1933 16.6217C16.6746 17.1403 15.7932 17.1403 15.2228 16.6217C14.6525 16.103 14.7042 15.2216 15.2228 14.6512L17.0899 12.8883ZM23.1049 7.65133L15.6898 15.1181C15.3788 15.4292 15.3788 15.9478 15.6898 16.3106C16.0009 16.6217 16.5195 16.6217 16.8823 16.3106L24.297 8.89596L26.1637 9.31083L31.5048 4.69601L28.2901 3.65906L27.2531 0.444336L22.69 5.78471L23.1049 7.65133Z" fill="#00FFC8"/>
</svg>
