<svg width="35" height="49" viewBox="0 0 35 49" fill="none" xmlns="http://www.w3.org/2000/svg">
<g clip-path="url(#clip0_14630_130590)">
<path d="M17.5659 10.2533C18.9178 4.5105 23.8322 1.48349 24.6786 0.978394C24.9084 1.80362 26.8575 8.96209 25.7813 13.4279" stroke="#FF96BF" stroke-width="0.5" stroke-miterlimit="10"/>
<path d="M24.2545 1.28259C24.2545 1.28259 26.9264 11.1142 21.2256 15.66" stroke="#FF96BF" stroke-width="0.5" stroke-miterlimit="10"/>
<path d="M24.4967 10.0096L21.6622 8.63486L21.0225 5.55627" stroke="#FF96BF" stroke-width="0.5" stroke-linecap="round" stroke-linejoin="round"/>
<path d="M21.1532 5.53498C21.1477 5.5092 21.1348 5.48561 21.1161 5.4672C21.0973 5.4488 21.0735 5.4364 21.0478 5.43157C21.022 5.42675 20.9954 5.42971 20.9714 5.44009C20.9473 5.45047 20.9268 5.4678 20.9125 5.48988C20.8982 5.51197 20.8907 5.53783 20.891 5.56419C20.8913 5.59055 20.8993 5.61624 20.9141 5.638C20.9289 5.65976 20.9498 5.67663 20.9741 5.68646C20.9984 5.6963 21.025 5.69867 21.0507 5.69327C21.0677 5.68967 21.0839 5.68272 21.0983 5.67282C21.1127 5.66291 21.125 5.65024 21.1346 5.63554C21.1441 5.62083 21.1506 5.60438 21.1538 5.58713C21.157 5.56987 21.1568 5.55215 21.1532 5.53498Z" fill="#FF96BF"/>
<path d="M31.005 13.4493C29.8546 15.2118 27.4177 18.3278 23.2897 19.8164" stroke="#FF96BF" stroke-width="0.5" stroke-miterlimit="10"/>
<path d="M18.9231 17.8884C20.2232 16.2884 21.8714 15.0105 23.7403 14.1535C28.4532 12.0816 33.1645 13.9917 33.9367 14.319C33.1503 15.6866 30.3176 20.3196 25.875 21.8064" stroke="#FF96BF" stroke-width="0.5" stroke-miterlimit="10"/>
<path d="M27.7994 17.2392L26.6808 15.7435L26.8787 14.6355" stroke="#FF96BF" stroke-width="0.5" stroke-miterlimit="10"/>
<path d="M27.0077 14.664C27.0107 14.6467 27.0104 14.629 27.0066 14.6118C27.0028 14.5947 26.9957 14.5784 26.9857 14.5641C26.9757 14.5497 26.963 14.5375 26.9482 14.528C26.9335 14.5186 26.9171 14.5122 26.8999 14.5092C26.8653 14.5035 26.8298 14.5117 26.8011 14.5319C26.7723 14.5522 26.7526 14.583 26.7461 14.6177C26.7431 14.635 26.7435 14.6527 26.7473 14.6698C26.7511 14.687 26.7582 14.7032 26.7682 14.7176C26.7782 14.7319 26.7909 14.7442 26.8057 14.7536C26.8204 14.763 26.8368 14.7694 26.8539 14.7724C26.8711 14.7755 26.8887 14.7751 26.9057 14.7713C26.9227 14.7675 26.9389 14.7603 26.9531 14.7503C26.9674 14.7402 26.9796 14.7274 26.989 14.7126C26.9983 14.6978 27.0047 14.6812 27.0077 14.664Z" fill="#FF96BF"/>
<path d="M25.23 18.9573L23.8993 18.3811L22.0067 18.7902" stroke="#FF96BF" stroke-width="0.5" stroke-miterlimit="10"/>
<path d="M21.9837 18.6568C21.9495 18.6644 21.9198 18.6854 21.9009 18.715C21.8821 18.7447 21.8756 18.7806 21.883 18.815C21.8863 18.8323 21.8931 18.8488 21.9029 18.8634C21.9127 18.878 21.9253 18.8905 21.9399 18.9001C21.9546 18.9097 21.971 18.9163 21.9883 18.9194C22.0055 18.9225 22.0232 18.9221 22.0402 18.9182C22.0742 18.9101 22.1039 18.8892 22.123 18.8597C22.142 18.8302 22.1491 18.7945 22.1427 18.7599C22.1351 18.7251 22.1141 18.6947 22.0843 18.6754C22.0545 18.656 22.0184 18.6493 21.9837 18.6568Z" fill="#FF96BF"/>
<path d="M26.6808 18.0538L27.605 19.8217L28.3578 20.0209" stroke="#FF96BF" stroke-width="0.5" stroke-miterlimit="10"/>
<path d="M28.3154 20.1489C28.3411 20.1562 28.3684 20.1556 28.3937 20.1473C28.4191 20.1389 28.4414 20.1231 28.4578 20.1019C28.4742 20.0807 28.484 20.055 28.4858 20.0282C28.4877 20.0014 28.4815 19.9746 28.4682 19.9514C28.4549 19.9281 28.4349 19.9093 28.411 19.8975C28.387 19.8856 28.3601 19.8813 28.3336 19.8849C28.3072 19.8886 28.2824 19.9001 28.2625 19.9179C28.2425 19.9358 28.2284 19.9593 28.2217 19.9853C28.213 20.0195 28.2179 20.0557 28.2354 20.0863C28.2529 20.1169 28.2816 20.1394 28.3154 20.1489Z" fill="#FF96BF"/>
<path d="M18.4389 17.6945C18.8023 15.7722 18.7256 13.7917 18.2145 11.9037C16.8609 7.17113 12.6197 4.81639 11.8881 4.42334C11.722 5.22011 10.0433 13.5844 12.109 16.6328" stroke="#FF96BF" stroke-width="0.5" stroke-miterlimit="10"/>
<path d="M13.1127 13.7303L13.3813 11.2475L15.3128 10.6144" stroke="#FF96BF" stroke-width="0.5" stroke-linecap="round" stroke-linejoin="round"/>
<path d="M15.3463 10.7424C15.3629 10.7371 15.3783 10.7286 15.3915 10.7174C15.4048 10.7061 15.4157 10.6923 15.4236 10.6767C15.4315 10.6611 15.4362 10.6441 15.4375 10.6267C15.4388 10.6093 15.4367 10.5918 15.4312 10.5752C15.4206 10.5415 15.3972 10.5134 15.366 10.497C15.3349 10.4807 15.2986 10.4775 15.2651 10.4881C15.2474 10.4934 15.231 10.5024 15.2169 10.5144C15.2028 10.5265 15.1914 10.5413 15.1833 10.558C15.1751 10.5747 15.1705 10.5929 15.1697 10.6115C15.1689 10.63 15.1718 10.6486 15.1785 10.6659C15.1911 10.6981 15.2157 10.724 15.247 10.7383C15.2784 10.7526 15.314 10.754 15.3463 10.7424Z" fill="#FF96BF"/>
<path d="M14.6943 15.6173L13.4237 16.2219L11.7538 14.8347" stroke="#FF96BF" stroke-width="0.5" stroke-linecap="round" stroke-linejoin="round"/>
<path d="M11.8422 14.7351C11.8218 14.7186 11.797 14.7086 11.7709 14.7062C11.7449 14.7039 11.7187 14.7093 11.6958 14.7219C11.6728 14.7345 11.654 14.7537 11.6418 14.777C11.6297 14.8003 11.6246 14.8267 11.6273 14.8528C11.63 14.879 11.6403 14.9038 11.657 14.9241C11.6737 14.9444 11.6959 14.9593 11.721 14.9668C11.7461 14.9744 11.7728 14.9743 11.7978 14.9667C11.8228 14.959 11.845 14.944 11.8616 14.9236C11.8836 14.8959 11.8939 14.8606 11.8902 14.8254C11.8866 14.7901 11.8693 14.7577 11.8422 14.7351Z" fill="#FF96BF"/>
<path d="M11.8192 4.7666C11.8192 4.7666 9.55371 15.274 18.4265 17.4082" stroke="#FF96BF" stroke-width="0.5" stroke-linecap="round" stroke-linejoin="round"/>
<path d="M1.68291 24.533C-0.476529 32.3975 2.7591 46.5704 9.76403 48.5178C16.769 50.4653 26.7038 39.9544 28.8615 32.0898C31.0192 24.2253 24.5921 19.4091 17.5872 17.4616C10.5822 15.5142 3.84589 16.6684 1.68291 24.533Z" stroke="#FF96BF" stroke-width="0.5" stroke-linecap="round" stroke-linejoin="round"/>
<path d="M2.21301 23.0781C2.21301 23.0781 10.7218 23.0941 16.6735 25.6232L18.8241 17.9596" stroke="#FF96BF" stroke-width="0.5" stroke-linecap="round" stroke-linejoin="round"/>
<path d="M11.1476 24.0758L9.53601 29.4842C9.53601 29.4842 22.1004 32.6855 26.9936 36.4044" stroke="#FF96BF" stroke-width="0.5" stroke-linecap="round" stroke-linejoin="round"/>
<path d="M1.64929 35.6076C1.64929 35.6076 10.5415 37.0713 14.1253 38.5368L15.4524 34.6757C15.4524 34.6757 22.5209 36.2603 25.3113 39.0543" stroke="#FF96BF" stroke-width="0.5" stroke-linecap="round" stroke-linejoin="round"/>
<path d="M21.9678 42.9707C21.9678 42.9707 19.1916 40.5306 17.6047 39.9988L15.6202 45.023" stroke="#FF96BF" stroke-width="0.5" stroke-linecap="round" stroke-linejoin="round"/>
<path d="M3.67444 42.1277C3.67444 42.1277 11.0646 40.431 17.474 46.6202" stroke="#FF96BF" stroke-width="0.5" stroke-linecap="round" stroke-linejoin="round"/>
<path d="M20.9111 25.6232C20.9111 25.6232 26.0676 27.487 29.2414 30.0161" stroke="#FF96BF" stroke-width="0.5" stroke-linecap="round" stroke-linejoin="round"/>
<path d="M20.183 26.0571C20.6212 26.0571 20.9764 25.6995 20.9764 25.2585C20.9764 24.8175 20.6212 24.46 20.183 24.46C19.7448 24.46 19.3895 24.8175 19.3895 25.2585C19.3895 25.6995 19.7448 26.0571 20.183 26.0571Z" stroke="#FF96BF" stroke-width="0.5" stroke-linecap="round" stroke-linejoin="round"/>
<path d="M7.94554 31.9812C8.38375 31.9812 8.73899 31.6237 8.73899 31.1827C8.73899 30.7417 8.38375 30.3842 7.94554 30.3842C7.50734 30.3842 7.1521 30.7417 7.1521 31.1827C7.1521 31.6237 7.50734 31.9812 7.94554 31.9812Z" stroke="#FF96BF" stroke-width="0.5" stroke-linecap="round" stroke-linejoin="round"/>
<path d="M1.09265 30.233C1.09265 30.233 4.8708 30.1654 7.15217 30.8643" stroke="#FF96BF" stroke-width="0.5" stroke-linecap="round" stroke-linejoin="round"/>
<path d="M1.68291 24.533C-0.476529 32.3975 2.7591 46.5704 9.76403 48.5178C16.769 50.4653 26.7038 39.9544 28.8615 32.0898C31.0192 24.2253 24.5921 19.4091 17.5872 17.4616C10.5822 15.5142 3.84589 16.6684 1.68291 24.533Z" stroke="#FF96BF" stroke-width="0.5" stroke-linecap="round" stroke-linejoin="round"/>
</g>
<defs>
<clipPath id="clip0_14630_130590">
<rect width="33.1268" height="48" fill="white" transform="translate(0.937134 0.843262)"/>
</clipPath>
</defs>
</svg>
