<svg width="42" height="42" viewBox="0 0 42 42" fill="none" xmlns="http://www.w3.org/2000/svg">
<path d="M8.17188 30.1157C9.19387 31.5507 10.4486 32.8055 11.8836 33.8275" stroke="#00FFC8" stroke-linecap="round" stroke-linejoin="round"/>
<path d="M5.4858 18.375C5.3423 19.2307 5.24955 20.104 5.24955 21C5.24955 21.896 5.3423 22.7692 5.4858 23.625" stroke="#00FFC8" stroke-linecap="round" stroke-linejoin="round"/>
<path d="M8.17188 11.8844C9.19387 10.4476 10.4469 9.19465 11.8836 8.1709" stroke="#00FFC8" stroke-linecap="round" stroke-linejoin="round"/>
<path d="M18.3745 36.5137C19.2303 36.6572 20.1035 36.75 20.9995 36.75C29.6988 36.75 36.7495 29.6992 36.7495 21C36.7495 12.3007 29.6988 5.25 20.9995 5.25C20.1035 5.25 19.2303 5.34275 18.3745 5.48625" stroke="#00FFC8" stroke-linecap="round" stroke-linejoin="round"/>
<path d="M27.9995 17.5L19.2495 26.25L13.9995 21" stroke="#00FFC8" stroke-linecap="round" stroke-linejoin="round"/>
</svg>
