<svg width="24" height="24" viewBox="0 0 24 24" fill="none" xmlns="http://www.w3.org/2000/svg">
<path d="M22 12C22 17.5233 17.5233 22 12 22C6.47667 22 2 17.5233 2 12C2 6.47667 6.47667 2 12 2C13.6144 2 15.1344 2.39222 16.4844 3.07111" stroke="#00FFC8" stroke-linecap="round" stroke-linejoin="round"/>
<path opacity="0.2" d="M22 12C22 17.5228 17.5228 22 12 22C6.47715 22 2 17.5228 2 12C2 6.47715 6.47715 2 12 2C17.5228 2 22 6.47715 22 12Z" fill="#00FFC8"/>
<path d="M20 7L11.9993 15L8 11" stroke="#00FFC8" stroke-linecap="round" stroke-linejoin="round"/>
</svg>
