<svg width="42" height="43" viewBox="0 0 42 43" fill="none" xmlns="http://www.w3.org/2000/svg">
<circle opacity="0.2" cx="21" cy="21.5" r="17.5" fill="#FFECB3"/>
<path fill-rule="evenodd" clip-rule="evenodd" d="M33.0209 33.5208C26.382 40.1597 15.6182 40.1597 8.97926 33.5208C8.15543 32.697 7.43413 31.81 6.81512 30.8757C6.66261 30.6455 6.35236 30.5825 6.12215 30.7351C5.89195 30.8876 5.82897 31.1978 5.98148 31.428C6.63718 32.4177 7.40081 33.3566 8.27215 34.2279C15.3016 41.2574 26.6986 41.2574 33.728 34.2279C40.7574 27.1985 40.7574 15.8015 33.728 8.77208C26.6986 1.74264 15.3016 1.74264 8.27215 8.77208C7.40084 9.64339 6.63723 10.5822 5.98154 11.5719C5.82903 11.8021 5.89201 12.1123 6.12221 12.2649C6.35241 12.4174 6.66267 12.3544 6.81519 12.1242C7.43417 11.1899 8.15545 10.303 8.97926 9.47918C15.6182 2.84027 26.382 2.84027 33.0209 9.47918C39.6598 16.1181 39.6598 26.8819 33.0209 33.5208ZM3.5 21C3.22386 21 3 21.2239 3 21.5C3 21.7762 3.22386 22 3.5 22L24.7427 22L19.4091 27.3336C19.2138 27.5289 19.2138 27.8455 19.4091 28.0407C19.6043 28.236 19.9209 28.236 20.1162 28.0407L26.3034 21.8536C26.4986 21.6583 26.4986 21.3417 26.3034 21.1464L20.1162 14.9593C19.9209 14.764 19.6043 14.764 19.4091 14.9593C19.2138 15.1545 19.2138 15.4711 19.4091 15.6664L24.7427 21L3.5 21Z" fill="#FFECB3"/>
</svg>
