<svg width="32" height="32" viewBox="0 0 32 32" fill="none" xmlns="http://www.w3.org/2000/svg">
<path d="M15.9998 0.444463C11.8743 0.444463 7.91787 2.08333 5.00041 5.00055C2.08326 7.91795 0.444336 11.8749 0.444336 16C0.444336 20.1251 2.0832 24.0819 5.00041 26.9994C7.91781 29.9165 11.8747 31.5554 15.9998 31.5554C20.1249 31.5554 24.0817 29.9166 26.9992 26.9994C29.9163 24.082 31.5552 20.1251 31.5552 16C31.5552 13.2693 30.8365 10.587 29.4712 8.22215C28.1058 5.85731 26.1423 3.89375 23.7775 2.52841C21.4126 1.16307 18.7303 0.444336 15.9997 0.444336L15.9998 0.444463ZM21.2332 21.2338C21.0249 21.4406 20.7434 21.5569 20.4497 21.5569C20.1563 21.5569 19.8746 21.4406 19.6665 21.2338L15.222 16.7893C15.01 16.5815 14.8899 16.2972 14.8887 16.0003V9.33364C14.8887 8.93657 15.1005 8.56977 15.4442 8.37135C15.788 8.17294 16.2116 8.17294 16.5553 8.37135C16.8991 8.56977 17.1109 8.93658 17.1109 9.33364V15.5447L21.2332 19.667C21.44 19.8751 21.5564 20.1568 21.5564 20.4503C21.5564 20.7439 21.44 21.0254 21.2332 21.2338Z" fill="#00FFC8"/>
</svg>
