<svg width="18" height="18" viewBox="0 0 18 18" fill="none" xmlns="http://www.w3.org/2000/svg">
<path d="M3.50195 12.9062C3.93995 13.5213 4.4777 14.059 5.0927 14.497" stroke="#00FFC8" stroke-linecap="round" stroke-linejoin="round"/>
<path d="M2.35141 7.875C2.28991 8.24175 2.25016 8.616 2.25016 9C2.25016 9.384 2.28991 9.75825 2.35141 10.125" stroke="#00FFC8" stroke-linecap="round" stroke-linejoin="round"/>
<path d="M3.50195 5.09345C3.93995 4.4777 4.47695 3.9407 5.0927 3.50195" stroke="#00FFC8" stroke-linecap="round" stroke-linejoin="round"/>
<path d="M7.875 15.6488C8.24175 15.7103 8.616 15.75 9 15.75C12.7283 15.75 15.75 12.7283 15.75 9C15.75 5.27175 12.7283 2.25 9 2.25C8.616 2.25 8.24175 2.28975 7.875 2.35125" stroke="#00FFC8" stroke-linecap="round" stroke-linejoin="round"/>
<path d="M12 7.5L8.25 11.25L6 9" stroke="#00FFC8" stroke-linecap="round" stroke-linejoin="round"/>
</svg>
