<svg width="18" height="18" viewBox="0 0 18 18" fill="none" xmlns="http://www.w3.org/2000/svg">
<path d="M9.75 11.25H3.75C2.92125 11.25 2.25 10.5788 2.25 9.75V3.75C2.25 2.92125 2.92125 2.25 3.75 2.25H12C12.8288 2.25 13.5 2.92125 13.5 3.75V6.75" stroke="#00FFC8" stroke-linecap="round" stroke-linejoin="round"/>
<path d="M8.625 12.375L9.75 11.25L8.625 10.125" stroke="#00FFC8" stroke-linecap="round" stroke-linejoin="round"/>
<path d="M5.25 9V8.25C5.25 7.42125 5.92125 6.75 6.75 6.75H13.5H14.25C15.0788 6.75 15.75 7.42125 15.75 8.25V14.25C15.75 15.0788 15.0788 15.75 14.25 15.75H6.75C5.92125 15.75 5.25 15.0788 5.25 14.25V14.25V13.5" stroke="#00FFC8" stroke-linecap="round" stroke-linejoin="round"/>
</svg>
