<svg width="18" height="18" viewBox="0 0 18 18" fill="none" xmlns="http://www.w3.org/2000/svg">
<path fill-rule="evenodd" clip-rule="evenodd" d="M15.9188 6.23823L13.7225 2.43333C13.657 2.31989 13.5359 2.25 13.4049 2.25L13.3983 2.25073L13.3947 2.25037H4.60787C4.47683 2.25022 4.35572 2.32014 4.29033 2.4337C4.28758 2.43857 4.2858 2.44369 4.28402 2.44884L4.28402 2.44885C4.28271 2.45261 4.2814 2.45639 4.2797 2.4601L2.08374 6.26354C2.00049 6.409 2.02613 6.59235 2.14607 6.70941L8.71491 14.9448C8.84242 15.1031 9.07417 15.1281 9.23253 15.0006C9.25309 14.984 9.27182 14.9653 9.28838 14.9448L15.8833 6.6753C15.9167 6.63181 15.9397 6.58128 15.9507 6.52754C15.9561 6.51125 15.9595 6.49439 15.961 6.4773C15.9746 6.39514 15.9598 6.31078 15.9188 6.23824L15.9188 6.23823ZM12.7596 2.98369L11.1976 5.68859L9.63597 2.98369H12.7596ZM7.43962 6.07507H10.5629L9.00125 3.37017L7.43962 6.07507ZM8.36618 2.98369L6.80455 5.68859L5.24292 2.98369H8.36618ZM6.15958 6.08019L4.59795 3.37529H4.59793L3.0363 6.08019H6.15958ZM3.16721 6.81353H6.52405L8.19899 13.122L3.16721 6.81353ZM7.28232 6.81353L9.00125 13.2874L10.7195 6.81353H7.28232ZM9.80353 13.1217L11.4781 6.81317H14.8346L9.80353 13.1217ZM13.4049 3.35L11.8429 6.0549H14.9666L13.4049 3.35Z" fill="#00FFC8"/>
<path d="M13.7225 2.43333L13.8091 2.38334L13.8091 2.38333L13.7225 2.43333ZM15.9188 6.23823L15.8322 6.28823L15.8558 6.32911L15.9024 6.33687L15.9188 6.23823ZM13.4049 2.25L13.4049 2.14938L13.3939 2.15061L13.4049 2.25ZM13.3983 2.25073L13.3884 2.35024L13.3989 2.35129L13.4094 2.35012L13.3983 2.25073ZM13.3947 2.25037L13.4047 2.15037H13.3947V2.25037ZM4.60787 2.25037L4.60776 2.35037H4.60787V2.25037ZM4.29033 2.4337L4.20367 2.3838L4.20328 2.3845L4.29033 2.4337ZM4.28402 2.44884L4.18954 2.41608L4.18935 2.41662L4.28402 2.44884ZM4.28402 2.44885L4.3785 2.48161L4.37868 2.48107L4.28402 2.44885ZM4.2797 2.4601L4.36669 2.51032L4.37061 2.50177L4.2797 2.4601ZM2.08374 6.26354L1.99714 6.21354L1.99695 6.21387L2.08374 6.26354ZM2.14607 6.70941L2.22486 6.64657L2.21591 6.63784L2.14607 6.70941ZM8.71491 14.9448L8.63673 15.0071L8.63702 15.0075L8.71491 14.9448ZM9.23253 15.0006L9.29524 15.0785L9.23253 15.0006ZM9.28838 14.9448L9.36627 15.0075L9.36656 15.0071L9.28838 14.9448ZM15.8833 6.6753L15.9615 6.73767L15.9626 6.73623L15.8833 6.6753ZM15.9507 6.52754L15.8551 6.49606L15.8527 6.50753L15.9507 6.52754ZM15.961 6.4773L15.862 6.46087L15.8614 6.4688L15.961 6.4773ZM15.9188 6.23824L16.0059 6.18909L15.9824 6.14746L15.9353 6.1396L15.9188 6.23824ZM11.1976 5.68859L11.111 5.73859L11.1976 5.88858L11.2842 5.7386L11.1976 5.68859ZM12.7596 2.98369L12.8462 3.0337L12.9328 2.88369H12.7596V2.98369ZM9.63597 2.98369V2.88369H9.46277L9.54937 3.03369L9.63597 2.98369ZM10.5629 6.07507V6.17507H10.7361L10.6495 6.02507L10.5629 6.07507ZM7.43962 6.07507L7.35302 6.02507L7.26642 6.17507H7.43962V6.07507ZM9.00125 3.37017L9.08785 3.32017L9.00125 3.17016L8.91464 3.32017L9.00125 3.37017ZM6.80455 5.68859L6.71795 5.73859L6.80455 5.8886L6.89116 5.73859L6.80455 5.68859ZM8.36618 2.98369L8.45279 3.03369L8.53939 2.88369H8.36618V2.98369ZM5.24292 2.98369V2.88369H5.06972L5.15632 3.03369L5.24292 2.98369ZM4.59795 3.37529L4.68455 3.32529L4.65568 3.27529H4.59795V3.37529ZM6.15958 6.08019V6.18019H6.33278L6.24618 6.03019L6.15958 6.08019ZM4.59793 3.37529V3.27529H4.5402L4.51133 3.32529L4.59793 3.37529ZM3.0363 6.08019L2.9497 6.03019L2.8631 6.18019H3.0363V6.08019ZM6.52405 6.81353L6.6207 6.78787L6.60097 6.71353H6.52405V6.81353ZM3.16721 6.81353V6.71353H2.95954L3.08904 6.87588L3.16721 6.81353ZM8.19899 13.122L8.12081 13.1844L8.29564 13.0964L8.19899 13.122ZM9.00125 13.2874L8.90459 13.3131L9.00127 13.6772L9.0979 13.3131L9.00125 13.2874ZM7.28232 6.81353V6.71353H7.1523L7.18567 6.83919L7.28232 6.81353ZM10.7195 6.81353L10.8161 6.83918L10.8495 6.71353H10.7195V6.81353ZM11.4781 6.81317V6.71317H11.4012L11.3814 6.78751L11.4781 6.81317ZM9.80353 13.1217L9.70687 13.096L9.88171 13.184L9.80353 13.1217ZM14.8346 6.81317L14.9127 6.87552L15.0422 6.71317H14.8346V6.81317ZM11.8429 6.0549L11.7563 6.00489L11.6697 6.1549H11.8429V6.0549ZM13.4049 3.35L13.4915 3.3L13.4049 3.15001L13.3183 3.29999L13.4049 3.35ZM14.9666 6.0549V6.1549H15.1398L15.0532 6.0049L14.9666 6.0549ZM13.6359 2.48333L15.8322 6.28823L16.0054 6.18824L13.8091 2.38334L13.6359 2.48333ZM13.4049 2.35C13.5002 2.35 13.5882 2.40083 13.6359 2.48333L13.8091 2.38333C13.7257 2.23895 13.5717 2.15 13.4049 2.15L13.4049 2.35ZM13.4094 2.35012L13.416 2.34939L13.3939 2.15061L13.3873 2.15134L13.4094 2.35012ZM13.3847 2.34987L13.3884 2.35024L13.4083 2.15123L13.4046 2.15086L13.3847 2.34987ZM4.60787 2.35037H13.3947V2.15037H4.60787V2.35037ZM4.377 2.4836C4.42451 2.40108 4.51253 2.35026 4.60776 2.35037L4.60798 2.15037C4.44114 2.15018 4.28693 2.23921 4.20367 2.3838L4.377 2.4836ZM4.3785 2.48161C4.37898 2.48023 4.37924 2.47949 4.37947 2.47884C4.37968 2.47826 4.37973 2.47812 4.37968 2.47825C4.37958 2.47851 4.37885 2.48033 4.37739 2.4829L4.20328 2.3845C4.19536 2.39851 4.19089 2.41219 4.18954 2.41608L4.3785 2.48161ZM4.37868 2.48107L4.37868 2.48107L4.18935 2.41662L4.18935 2.41662L4.37868 2.48107ZM4.37061 2.50177C4.37463 2.49298 4.37743 2.48469 4.3785 2.48161L4.18954 2.41609C4.188 2.42053 4.18817 2.41979 4.1888 2.41843L4.37061 2.50177ZM2.17034 6.31354L4.3663 2.5101L4.1931 2.4101L1.99714 6.21354L2.17034 6.31354ZM2.21591 6.63784C2.12858 6.55261 2.10992 6.41912 2.17053 6.31321L1.99695 6.21387C1.89107 6.39889 1.92367 6.63209 2.07623 6.78097L2.21591 6.63784ZM8.79309 14.8824L2.22425 6.64705L2.06789 6.77176L8.63674 15.0071L8.79309 14.8824ZM9.16981 14.9227C9.05447 15.0156 8.88568 14.9974 8.7928 14.882L8.63702 15.0075C8.79917 15.2088 9.09387 15.2406 9.29524 15.0785L9.16981 14.9227ZM9.21049 14.882C9.19843 14.897 9.18479 14.9107 9.16981 14.9227L9.29524 15.0785C9.3214 15.0574 9.34521 15.0336 9.36627 15.0075L9.21049 14.882ZM15.8051 6.61295L9.2102 14.8824L9.36656 15.0071L15.9614 6.73766L15.8051 6.61295ZM15.8527 6.50753C15.8448 6.54639 15.8281 6.58293 15.804 6.61438L15.9626 6.73623C16.0052 6.6807 16.0347 6.61617 16.0487 6.54755L15.8527 6.50753ZM15.8614 6.4688C15.8606 6.47814 15.8587 6.48736 15.8557 6.49627L16.0457 6.5588C16.0535 6.53514 16.0585 6.51064 16.0606 6.48581L15.8614 6.4688ZM15.8317 6.28738C15.8614 6.34004 15.8722 6.40128 15.8623 6.46092L16.0596 6.49369C16.077 6.389 16.0581 6.28152 16.0059 6.18909L15.8317 6.28738ZM15.9024 6.33687L15.9024 6.33688L15.9353 6.1396L15.9352 6.1396L15.9024 6.33687ZM11.2842 5.7386L12.8462 3.0337L12.673 2.93368L11.111 5.63858L11.2842 5.7386ZM9.54937 3.03369L11.111 5.73859L11.2842 5.63859L9.72257 2.93369L9.54937 3.03369ZM12.7596 2.88369H9.63597V3.08369H12.7596V2.88369ZM10.5629 5.97507H7.43962V6.17507H10.5629V5.97507ZM8.91464 3.42017L10.4763 6.12507L10.6495 6.02507L9.08785 3.32017L8.91464 3.42017ZM7.52622 6.12507L9.08785 3.42017L8.91464 3.32017L7.35302 6.02507L7.52622 6.12507ZM6.89116 5.73859L8.45279 3.03369L8.27958 2.93369L6.71795 5.63859L6.89116 5.73859ZM5.15632 3.03369L6.71795 5.73859L6.89116 5.63859L5.32953 2.93369L5.15632 3.03369ZM8.36618 2.88369H5.24292V3.08369H8.36618V2.88369ZM4.51135 3.42529L6.07297 6.13019L6.24618 6.03019L4.68455 3.32529L4.51135 3.42529ZM4.59793 3.47529H4.59795V3.27529H4.59793V3.47529ZM3.12291 6.13019L4.68454 3.42529L4.51133 3.32529L2.9497 6.03019L3.12291 6.13019ZM6.15958 5.98019H3.0363V6.18019H6.15958V5.98019ZM6.52405 6.71353H3.16721V6.91353H6.52405V6.71353ZM8.29564 13.0964L6.6207 6.78787L6.4274 6.83919L8.10234 13.1477L8.29564 13.0964ZM3.08904 6.87588L8.12081 13.1844L8.27717 13.0597L3.24539 6.75117L3.08904 6.87588ZM9.0979 13.2617L7.37897 6.78786L7.18567 6.83919L8.90459 13.3131L9.0979 13.2617ZM10.6228 6.78787L8.90459 13.2618L9.0979 13.3131L10.8161 6.83918L10.6228 6.78787ZM7.28232 6.91353H10.7195V6.71353H7.28232V6.91353ZM11.3814 6.78751L9.70687 13.096L9.90018 13.1473L11.5747 6.83882L11.3814 6.78751ZM14.8346 6.71317H11.4781V6.91317H14.8346V6.71317ZM9.88171 13.184L14.9127 6.87552L14.7564 6.75082L9.72534 13.0593L9.88171 13.184ZM11.9295 6.1049L13.4915 3.4L13.3183 3.29999L11.7563 6.00489L11.9295 6.1049ZM14.9666 5.9549H11.8429V6.1549H14.9666V5.9549ZM13.3183 3.39999L14.88 6.10489L15.0532 6.0049L13.4915 3.3L13.3183 3.39999Z" fill="#00FFC8"/>
</svg>
