<svg width="18" height="18" viewBox="0 0 18 18" fill="none" xmlns="http://www.w3.org/2000/svg">
<path d="M15.5527 4.15234V5.65234H14.0527H15.5527" stroke="#00FFC8" stroke-linecap="round" stroke-linejoin="round"/>
<path d="M5.68945 8.04706C5.68945 7.43881 6.18295 6.94531 6.7912 6.94531C7.39945 6.94531 7.89295 7.43881 7.89295 8.04706C7.89295 9.42406 5.6902 9.42406 5.6902 11.0546H7.89295" stroke="#00FFC8" stroke-linecap="round" stroke-linejoin="round"/>
<path d="M11.9205 9.02206L10.0365 9.00181C9.93 9.00031 9.84375 8.91406 9.84375 8.80681V6.94531" stroke="#00FFC8" stroke-linecap="round" stroke-linejoin="round"/>
<path d="M11.916 6.99023V11.0552" stroke="#00FFC8" stroke-linecap="round" stroke-linejoin="round"/>
<path d="M15.2247 5.65325C14.0225 3.47675 11.6863 2 8.99975 2C5.1335 2 2 5.13425 2 8.99975C2 12.8653 5.1335 15.9995 8.99975 15.9995C12.866 15.9995 15.9995 12.8653 15.9995 8.99975" stroke="#00FFC8" stroke-linecap="round" stroke-linejoin="round"/>
</svg>
