<svg width="18" height="18" viewBox="0 0 18 18" fill="none" xmlns="http://www.w3.org/2000/svg">
<path fill-rule="evenodd" clip-rule="evenodd" d="M9.53044 16.2802L16.2789 9.53017C16.5722 9.23692 16.5722 8.76142 16.2789 8.46742L9.53044 1.71742C9.23869 1.42492 8.76019 1.42492 8.46844 1.71742L1.71994 8.46742C1.42669 8.76067 1.42669 9.23617 1.71994 9.53017L8.46844 16.2802C8.76019 16.5719 9.23869 16.5719 9.53044 16.2802Z" stroke="#00FFC8" stroke-linecap="round" stroke-linejoin="round"/>
<path fill-rule="evenodd" clip-rule="evenodd" d="M9.17175 16.1845L12 9.64755L9.177 1.6698C9.11775 1.5033 8.88225 1.5033 8.82375 1.6698L6 9.64755L8.82825 16.1853C8.89275 16.3353 9.10725 16.3353 9.17175 16.1845V16.1845Z" stroke="#00FFC8" stroke-linecap="round" stroke-linejoin="round"/>
<path d="M1.50391 8.97852L6.40066 9.77952H11.5997L16.4964 8.97852" stroke="#00FFC8" stroke-linecap="round" stroke-linejoin="round"/>
</svg>
