<svg width="34" height="34" viewBox="0 0 34 34" fill="none" xmlns="http://www.w3.org/2000/svg">
<path d="M32.8332 16.5633L32.8333 16.5697C32.8339 16.6645 32.8083 16.7553 32.7627 16.8304L33.1901 17.0899L32.7627 16.8304C32.7172 16.9053 32.6553 16.9594 32.5885 16.9908C32.522 17.0221 32.4508 17.0311 32.3821 17.0188C32.3132 17.0064 32.2449 16.9721 32.187 16.9149L32.187 16.9149L32.1832 16.9112L17.3466 2.54023L16.9987 2.20323L16.6508 2.54028L4.00754 14.7903L4.00753 14.7903L4.00607 14.7917C3.96662 14.8303 3.92222 14.8583 3.87624 14.876C3.83036 14.8937 3.78271 14.9011 3.73564 14.8986C3.68855 14.8961 3.64126 14.8837 3.59631 14.8609L3.36979 15.3066L3.59631 14.8609C3.55127 14.838 3.5087 14.8046 3.47214 14.7611L3.47214 14.7611L3.47111 14.7599C3.3971 14.6724 3.35428 14.551 3.36029 14.4218C3.3663 14.2927 3.41997 14.1781 3.49975 14.1008L16.7481 1.27181C16.7482 1.27167 16.7484 1.27153 16.7485 1.27139C16.8223 1.2006 16.9118 1.16656 16.9987 1.16656C17.0856 1.16656 17.1751 1.20059 17.2489 1.27136C17.249 1.27151 17.2492 1.27166 17.2493 1.27181L32.6963 16.2182C32.6968 16.2187 32.6973 16.2192 32.6979 16.2197C32.7385 16.2603 32.7727 16.3113 32.7967 16.3704C32.821 16.4303 32.8337 16.4961 32.8332 16.5633ZM1.94742 16.5608L1.94735 16.5608L1.94739 16.5692C1.94774 16.6329 1.93625 16.6954 1.91426 16.7528C1.89228 16.8102 1.86065 16.8604 1.82265 16.9013L1.82264 16.9013L1.81988 16.9043C1.78444 16.9431 1.74415 16.9728 1.70184 16.9933C1.65921 17.0102 1.61502 17.0182 1.57121 17.0176L1.56212 17.0175L1.55303 17.0177C1.51055 17.0187 1.46768 17.0117 1.42617 16.9962C1.37702 16.9695 1.33061 16.9346 1.28881 16.8919L1.28889 16.8918L1.28104 16.8841C1.25075 16.8546 1.22513 16.815 1.20903 16.7675L1.2053 16.7565L1.20107 16.7457C1.17054 16.6677 1.15985 16.5811 1.17083 16.4959L1.2026 16.3886L1.25283 16.2874C1.25719 16.2813 1.26174 16.2763 1.26616 16.2723L1.28969 16.2512L1.31035 16.2272C1.34064 16.192 1.37573 16.1672 1.41158 16.1521L1.41165 16.1522L1.42379 16.1467C1.46861 16.1264 1.51545 16.1161 1.56197 16.1155C1.60588 16.1165 1.65004 16.1262 1.69245 16.1448C1.78623 16.1909 1.86926 16.2746 1.91964 16.3886C1.9385 16.443 1.9481 16.5014 1.94742 16.5608Z" fill="#00FFC8" stroke="#00FFC8"/>
<path d="M32.8332 32.3727L32.8333 32.3791C32.8339 32.4739 32.8083 32.5646 32.7627 32.6398L33.1896 32.8989L32.7627 32.6398C32.7172 32.7147 32.6553 32.7688 32.5885 32.8002C32.522 32.8314 32.4508 32.8404 32.3821 32.8281C32.3132 32.8158 32.2449 32.7815 32.187 32.7242L32.187 32.7242L32.1832 32.7205L17.3466 18.3496L16.9987 18.0126L16.6508 18.3497L4.00754 30.5997L4.00753 30.5997L4.00607 30.6011C3.96662 30.6396 3.92223 30.6677 3.87624 30.6854C3.83036 30.703 3.78271 30.7104 3.73564 30.708C3.68855 30.7055 3.64126 30.6931 3.59631 30.6702C3.55127 30.6473 3.5087 30.614 3.47214 30.5705L3.47214 30.5705L3.47111 30.5693C3.3971 30.4818 3.35428 30.3603 3.36029 30.2311C3.3663 30.1021 3.4199 29.9876 3.49959 29.9103C3.49964 29.9103 3.4997 29.9102 3.49975 29.9102L16.7481 17.0812C16.7482 17.081 16.7484 17.0809 16.7485 17.0808C16.8223 17.01 16.9118 16.9759 16.9987 16.9759C17.0856 16.9759 17.1751 17.01 17.2489 17.0807C17.249 17.0809 17.2492 17.081 17.2493 17.0812L32.6963 32.0275C32.6968 32.028 32.6974 32.0286 32.6979 32.0291C32.7385 32.0697 32.7727 32.1207 32.7967 32.1798C32.821 32.2397 32.8337 32.3055 32.8332 32.3727ZM33.3333 32.3759C33.3345 32.5615 33.2847 32.7434 33.1901 32.8992L33.3333 32.3759ZM1.94742 32.3701L1.94735 32.3701L1.94739 32.3786C1.94774 32.4423 1.93625 32.5048 1.91426 32.5622C1.89228 32.6196 1.86065 32.6698 1.82265 32.7107L1.82264 32.7107L1.81988 32.7137C1.78444 32.7524 1.74415 32.7821 1.70184 32.8027C1.65921 32.8196 1.61502 32.8276 1.57121 32.827L1.56212 32.8269L1.55303 32.8271C1.51055 32.8281 1.46768 32.821 1.42617 32.8056C1.37702 32.7788 1.33061 32.7439 1.28881 32.7013L1.28889 32.7012L1.28104 32.6935C1.25075 32.6639 1.22513 32.6244 1.20903 32.5769L1.2053 32.5659L1.20107 32.555C1.17054 32.477 1.15985 32.3905 1.17083 32.3053L1.2026 32.1979L1.25283 32.0967C1.25719 32.0907 1.26174 32.0857 1.26616 32.0817L1.28969 32.0605L1.31035 32.0365C1.34064 32.0014 1.37573 31.9766 1.41158 31.9614L1.41165 31.9616L1.42379 31.9561C1.46861 31.9357 1.51545 31.9254 1.56197 31.9248C1.60588 31.9259 1.65004 31.9355 1.69246 31.9542C1.78623 32.0002 1.86926 32.084 1.91964 32.198C1.9385 32.2523 1.9481 32.3108 1.94742 32.3701Z" fill="#00FFC8" stroke="#00FFC8"/>
</svg>
