<svg width="18" height="18" viewBox="0 0 18 18" fill="none" xmlns="http://www.w3.org/2000/svg">
<path d="M9.18578 16C9.10623 16.0005 9.02826 15.9792 8.96148 15.9386C8.89471 15.8981 8.84204 15.8402 8.80997 15.7719C8.77791 15.7037 8.76784 15.6281 8.78102 15.5546C8.7942 15.481 8.83005 15.4127 8.88414 15.358L15.0431 8.99946L9.79311 3.58093C9.75671 3.54367 9.72856 3.50001 9.71028 3.45248C9.69199 3.40496 9.68395 3.3545 9.6866 3.30404C9.68925 3.25358 9.70256 3.20411 9.72574 3.1585C9.74892 3.11288 9.78152 3.07204 9.82165 3.03831C9.90173 2.97058 10.0072 2.93536 10.1149 2.94037C10.2226 2.94539 10.3238 2.99022 10.3964 3.06506L15.895 8.74344C15.9626 8.81365 16 8.90488 16 8.99946C16 9.09405 15.9626 9.18527 15.895 9.25548L9.48741 15.8777C9.44893 15.9166 9.40225 15.9476 9.35032 15.9686C9.29839 15.9897 9.24235 16.0003 9.18578 16ZM9.18578 2.76318C9.13213 2.76347 9.07895 2.75383 9.02929 2.73482C8.97963 2.7158 8.93446 2.68778 8.89637 2.65237C8.85825 2.61749 8.82778 2.57595 8.8067 2.53009C8.78721 2.48388 8.77752 2.43456 8.77817 2.38488C8.77698 2.33392 8.78668 2.28324 8.8067 2.23585C8.82937 2.19083 8.85965 2.14954 8.89637 2.11357C8.9333 2.07577 8.97946 2.04692 9.03088 2.0295C9.10428 2.00077 9.18505 1.9928 9.26322 2.00658L9.34067 2.0295L9.40996 2.06389C9.43297 2.07737 9.4536 2.09413 9.4711 2.11357C9.51044 2.14748 9.54109 2.18928 9.56078 2.23585C9.58219 2.28298 9.59328 2.33366 9.59338 2.38488C9.59274 2.43481 9.58166 2.48415 9.56078 2.53009C9.51698 2.62191 9.43861 2.69537 9.34067 2.73643C9.29138 2.75471 9.23877 2.76379 9.18578 2.76318Z" fill="#BDFFF1"/>
<path d="M9.18578 16C9.10623 16.0005 9.02826 15.9792 8.96148 15.9386C8.89471 15.8981 8.84204 15.8402 8.80997 15.7719C8.77791 15.7037 8.76784 15.6281 8.78102 15.5546C8.7942 15.481 8.83005 15.4127 8.88414 15.358L15.0431 8.99946L9.79311 3.58093C9.75671 3.54367 9.72856 3.50001 9.71028 3.45248C9.69199 3.40496 9.68395 3.3545 9.6866 3.30404C9.68925 3.25358 9.70256 3.20411 9.72574 3.1585C9.74892 3.11288 9.78152 3.07204 9.82165 3.03831C9.90173 2.97058 10.0072 2.93536 10.1149 2.94037C10.2226 2.94539 10.3238 2.99022 10.3964 3.06506L15.895 8.74344C15.9626 8.81365 16 8.90488 16 8.99946C16 9.09405 15.9626 9.18527 15.895 9.25548L9.48741 15.8777C9.44893 15.9166 9.40225 15.9476 9.35032 15.9686C9.29839 15.9897 9.24235 16.0003 9.18578 16ZM9.18578 2.76318C9.13213 2.76347 9.07895 2.75383 9.02929 2.73482C8.97963 2.7158 8.93446 2.68778 8.89637 2.65237C8.85825 2.61749 8.82778 2.57595 8.8067 2.53009C8.78721 2.48388 8.77752 2.43456 8.77817 2.38488C8.77698 2.33392 8.78668 2.28324 8.8067 2.23585C8.82937 2.19083 8.85965 2.14954 8.89637 2.11357C8.9333 2.07577 8.97946 2.04692 9.03088 2.0295C9.10428 2.00077 9.18505 1.9928 9.26322 2.00658L9.34067 2.0295L9.40996 2.06389C9.43297 2.07737 9.4536 2.09413 9.4711 2.11357C9.51044 2.14748 9.54109 2.18928 9.56078 2.23585C9.58219 2.28298 9.59328 2.33366 9.59338 2.38488C9.59274 2.43481 9.58166 2.48415 9.56078 2.53009C9.51698 2.62191 9.43861 2.69537 9.34067 2.73643C9.29138 2.75471 9.23877 2.76379 9.18578 2.76318Z" stroke="#BDFFF1"/>
<path d="M2.41035 16C2.33081 16.0005 2.25284 15.9792 2.18606 15.9386C2.11929 15.8981 2.06662 15.8402 2.03455 15.7719C2.00249 15.7037 1.99242 15.6281 2.0056 15.5546C2.01878 15.481 2.05463 15.4127 2.10872 15.358L8.26769 8.99946L3.01769 3.58093C2.98129 3.54367 2.95314 3.50001 2.93486 3.45248C2.91657 3.40496 2.90853 3.3545 2.91118 3.30404C2.91383 3.25358 2.92713 3.20411 2.95031 3.1585C2.97349 3.11288 3.00609 3.07204 3.04622 3.03831C3.12631 2.97058 3.23176 2.93536 3.33948 2.94037C3.44721 2.94539 3.54842 2.99022 3.62095 3.06506L9.1196 8.74344C9.18719 8.81365 9.22461 8.90488 9.22461 8.99946C9.22461 9.09405 9.18719 9.18527 9.1196 9.25548L2.71198 15.8777C2.67351 15.9166 2.62683 15.9476 2.5749 15.9686C2.52297 15.9897 2.46693 16.0003 2.41035 16ZM2.41035 2.76318C2.35671 2.76347 2.30353 2.75383 2.25387 2.73482C2.20421 2.7158 2.15904 2.68778 2.12095 2.65237C2.08282 2.61749 2.05236 2.57595 2.03128 2.53009C2.01179 2.48388 2.0021 2.43456 2.00274 2.38488C2.00156 2.33392 2.01126 2.28324 2.03128 2.23585C2.05395 2.19083 2.08423 2.14954 2.12095 2.11357C2.15788 2.07577 2.20404 2.04692 2.25546 2.0295C2.32886 2.00077 2.40963 1.9928 2.4878 2.00658L2.56525 2.0295L2.63454 2.06389C2.65755 2.07737 2.67818 2.09413 2.69568 2.11357C2.73502 2.14748 2.76567 2.18928 2.78535 2.23585C2.80677 2.28298 2.81786 2.33366 2.81796 2.38488C2.81732 2.43481 2.80624 2.48415 2.78535 2.53009C2.74156 2.62191 2.66319 2.69537 2.56525 2.73643C2.51596 2.75471 2.46335 2.76379 2.41035 2.76318Z" fill="#BDFFF1"/>
<path d="M2.41035 16C2.33081 16.0005 2.25284 15.9792 2.18606 15.9386C2.11929 15.8981 2.06662 15.8402 2.03455 15.7719C2.00249 15.7037 1.99242 15.6281 2.0056 15.5546C2.01878 15.481 2.05463 15.4127 2.10872 15.358L8.26769 8.99946L3.01769 3.58093C2.98129 3.54367 2.95314 3.50001 2.93486 3.45248C2.91657 3.40496 2.90853 3.3545 2.91118 3.30404C2.91383 3.25358 2.92713 3.20411 2.95031 3.1585C2.97349 3.11288 3.00609 3.07204 3.04622 3.03831C3.12631 2.97058 3.23176 2.93536 3.33948 2.94037C3.44721 2.94539 3.54842 2.99022 3.62095 3.06506L9.1196 8.74344C9.18719 8.81365 9.22461 8.90488 9.22461 8.99946C9.22461 9.09405 9.18719 9.18527 9.1196 9.25548L2.71198 15.8777C2.67351 15.9166 2.62683 15.9476 2.5749 15.9686C2.52297 15.9897 2.46693 16.0003 2.41035 16ZM2.41035 2.76318C2.35671 2.76347 2.30353 2.75383 2.25387 2.73482C2.20421 2.7158 2.15904 2.68778 2.12095 2.65237C2.08282 2.61749 2.05236 2.57595 2.03128 2.53009C2.01179 2.48388 2.0021 2.43456 2.00274 2.38488C2.00156 2.33392 2.01126 2.28324 2.03128 2.23585C2.05395 2.19083 2.08423 2.14954 2.12095 2.11357C2.15788 2.07577 2.20404 2.04692 2.25546 2.0295C2.32886 2.00077 2.40963 1.9928 2.4878 2.00658L2.56525 2.0295L2.63454 2.06389C2.65755 2.07737 2.67818 2.09413 2.69568 2.11357C2.73502 2.14748 2.76567 2.18928 2.78535 2.23585C2.80677 2.28298 2.81786 2.33366 2.81796 2.38488C2.81732 2.43481 2.80624 2.48415 2.78535 2.53009C2.74156 2.62191 2.66319 2.69537 2.56525 2.73643C2.51596 2.75471 2.46335 2.76379 2.41035 2.76318Z" stroke="#BDFFF1"/>
</svg>
