<svg width="18" height="18" viewBox="0 0 18 18" fill="none" xmlns="http://www.w3.org/2000/svg">
<path d="M2 4.32223V3.9375C2 3.68886 2.09877 3.4504 2.27459 3.27459C2.4504 3.09877 2.68886 3 2.9375 3H16.0625C16.3111 3 16.5496 3.09877 16.7254 3.27459C16.9012 3.4504 17 3.68886 17 3.9375V4.32223L9.5 9.00973L2 4.32223ZM9.74844 9.96012C9.67392 10.0066 9.58784 10.0313 9.5 10.0313C9.41216 10.0313 9.32608 10.0066 9.25156 9.96012L2 5.42777V13.3125C2 13.5611 2.09877 13.7996 2.27459 13.9754C2.4504 14.1512 2.68886 14.25 2.9375 14.25H16.0625C16.3111 14.25 16.5496 14.1512 16.7254 13.9754C16.9012 13.7996 17 13.5611 17 13.3125V5.42777L9.74844 9.96012Z" fill="#00FFC8"/>
</svg>
