<svg width="39" height="39" viewBox="0 0 39 39" fill="none" xmlns="http://www.w3.org/2000/svg">
<path d="M29.2544 8.91772C31.6207 10.9858 33.2363 13.7786 33.8495 16.8609" stroke="#FFC000" stroke-linecap="round" stroke-linejoin="round"/>
<path d="M10.4779 30.3496C8.11157 28.2816 6.49594 25.4888 5.88281 22.4065" stroke="#FFC000" stroke-linecap="round" stroke-linejoin="round"/>
<path d="M24.4612 33.1258C21.4878 34.1504 18.2571 34.1504 15.2837 33.1258" stroke="#FFC000" stroke-linecap="round" stroke-linejoin="round"/>
<path d="M24.4612 6.14157C21.4878 5.11696 18.2571 5.11696 15.2837 6.14157" stroke="#FFC000" stroke-linecap="round" stroke-linejoin="round"/>
<path d="M29.2544 30.3496C31.6207 28.2816 33.2363 25.4888 33.8495 22.4065" stroke="#FFC000" stroke-linecap="round" stroke-linejoin="round"/>
<path d="M5.87988 16.8609C6.4921 13.7783 8.1079 10.9852 10.475 8.91772" stroke="#FFC000" stroke-linecap="round" stroke-linejoin="round"/>
<path fill-rule="evenodd" clip-rule="evenodd" d="M18.7175 12.1865L13.6677 20.7666C13.4871 21.068 13.481 21.4427 13.6516 21.7499C13.8221 22.057 14.1435 22.2499 14.4948 22.256H19.2229V26.5722C19.2137 27.0103 19.5017 27.3993 19.9234 27.5182C20.3452 27.6372 20.794 27.456 21.015 27.0777L26.0649 18.5007C26.2454 18.1993 26.2515 17.8245 26.0809 17.5174C25.9104 17.2103 25.589 17.0174 25.2377 17.0113H20.5096V12.6967C20.5211 12.2577 20.2338 11.8666 19.8115 11.7463C19.3891 11.6261 18.9389 11.8072 18.7175 12.1865Z" stroke="#FFC000" stroke-linecap="round" stroke-linejoin="round"/>
</svg>
