<svg width="18" height="18" viewBox="0 0 18 18" fill="none" xmlns="http://www.w3.org/2000/svg">
<path fill-rule="evenodd" clip-rule="evenodd" d="M10.9509 5.62852L12.8694 3.71002C12.8949 3.68452 12.8867 3.63952 12.8537 3.62527C11.7647 3.15952 10.4267 3.35452 9.52891 4.25227C8.65741 5.12377 8.42791 6.36277 8.84116 7.41727L5.96641 10.292C5.49166 10.7668 5.49166 11.537 5.96641 12.0125C6.44116 12.4873 7.21141 12.4873 7.68691 12.0125L10.5849 9.11452C11.6402 9.52702 12.8784 9.29827 13.7499 8.42677C14.6492 7.52752 14.8877 6.18727 14.3784 5.09827C14.3634 5.06677 14.3199 5.05852 14.2944 5.08327L12.3272 7.00477L12.001 7L11.6394 6.31702L10.9509 5.62852Z" stroke="#B700FF" stroke-linecap="round" stroke-linejoin="round"/>
<path d="M8.25 1.91455C4.668 2.28955 1.875 5.31805 1.875 8.9998C1.875 12.9351 5.06475 16.1248 9 16.1248C12.6818 16.1248 15.7102 13.3318 16.0852 9.7498" stroke="#B700FF" stroke-linecap="round" stroke-linejoin="round"/>
</svg>
