<svg width="18" height="18" viewBox="0 0 18 18" fill="none" xmlns="http://www.w3.org/2000/svg">
<path d="M12 1.5V4.5" stroke="#00FFC8" stroke-linecap="round" stroke-linejoin="round"/>
<path d="M6 1.5V4.5" stroke="#00FFC8" stroke-linecap="round" stroke-linejoin="round"/>
<path d="M2.25 6.75H15.75" stroke="#00FFC8" stroke-linecap="round" stroke-linejoin="round"/>
<path fill-rule="evenodd" clip-rule="evenodd" d="M14.25 3H3.75C2.92125 3 2.25 3.67125 2.25 4.5V14.25C2.25 15.0788 2.92125 15.75 3.75 15.75H14.25C15.0788 15.75 15.75 15.0788 15.75 14.25V4.5C15.75 3.67125 15.0788 3 14.25 3Z" stroke="#00FFC8" stroke-linecap="round" stroke-linejoin="round"/>
<path d="M9.00902 9.54688C8.90552 9.54688 8.82152 9.63087 8.82227 9.73438C8.82227 9.83788 8.90627 9.92188 9.00977 9.92188C9.11327 9.92188 9.19727 9.83788 9.19727 9.73438C9.19727 9.63087 9.11327 9.54688 9.00902 9.54688" stroke="#00FFC8" stroke-linecap="round" stroke-linejoin="round"/>
<path d="M12.759 9.54688C12.6555 9.54688 12.5715 9.63087 12.5723 9.73438C12.5723 9.83788 12.6563 9.92188 12.7598 9.92188C12.8633 9.92188 12.9473 9.83788 12.9473 9.73438C12.9473 9.63087 12.8633 9.54688 12.759 9.54688" stroke="#00FFC8" stroke-linecap="round" stroke-linejoin="round"/>
<path d="M5.25902 12.5469C5.15552 12.5469 5.07152 12.6309 5.07227 12.7344C5.07227 12.8379 5.15627 12.9219 5.25977 12.9219C5.36327 12.9219 5.44727 12.8379 5.44727 12.7344C5.44727 12.6309 5.36327 12.5469 5.25902 12.5469" stroke="#00FFC8" stroke-linecap="round" stroke-linejoin="round"/>
<path d="M9.00902 12.5469C8.90552 12.5469 8.82152 12.6309 8.82227 12.7344C8.82227 12.8379 8.90627 12.9219 9.00977 12.9219C9.11327 12.9219 9.19727 12.8379 9.19727 12.7344C9.19727 12.6309 9.11327 12.5469 9.00902 12.5469" stroke="#00FFC8" stroke-linecap="round" stroke-linejoin="round"/>
</svg>
