<svg width="42" height="42" viewBox="0 0 42 42" fill="none" xmlns="http://www.w3.org/2000/svg">
<path fill-rule="evenodd" clip-rule="evenodd" d="M21 5.25V5.25C29.6992 5.25 36.75 12.3007 36.75 21V21C36.75 29.6992 29.6992 36.75 21 36.75V36.75C12.3007 36.75 5.25 29.6992 5.25 21V21C5.25 12.3007 12.3007 5.25 21 5.25Z" stroke="#FF0063" stroke-linecap="round" stroke-linejoin="round"/>
<path d="M21 21.875V13.125" stroke="#FF0063" stroke-linecap="round" stroke-linejoin="round"/>
<path d="M20.9983 28C20.7568 28 20.5608 28.196 20.5625 28.4375C20.5625 28.679 20.7585 28.875 21 28.875C21.2415 28.875 21.4375 28.679 21.4375 28.4375C21.4375 28.196 21.2415 28 20.9983 28" stroke="#FF0063" stroke-linecap="round" stroke-linejoin="round"/>
</svg>
