<svg width="18" height="19" viewBox="0 0 18 19" fill="none" xmlns="http://www.w3.org/2000/svg">
    <path
        d="M2.25 11.75H5.5365C5.82075 11.75 6.08025 11.9105 6.207 12.1648L6.54225 12.8353C6.66975 13.0895 6.92925 13.25 7.2135 13.25H10.7865C11.0707 13.25 11.3302 13.0895 11.457 12.8353L11.7922 12.1648C11.9197 11.9105 12.1793 11.75 12.4635 11.75H15.75"
        stroke="#00FFC8" stroke-linecap="round" stroke-linejoin="round" />
    <path
        d="M12.75 2.75H14.25C15.0788 2.75 15.75 3.42125 15.75 4.25V14.75C15.75 15.5788 15.0788 16.25 14.25 16.25H3.75C2.92125 16.25 2.25 15.5788 2.25 14.75V4.25C2.25 3.42125 2.92125 2.75 3.75 2.75H5.25"
        stroke="#00FFC8" stroke-linecap="round" stroke-linejoin="round" />
    <path d="M8.99219 9.5V2.75" stroke="#00FFC8" stroke-linecap="round" stroke-linejoin="round" />
    <path d="M11.6931 5.44325L8.99989 2.75L6.30664 5.44325" stroke="#00FFC8" stroke-linecap="round"
        stroke-linejoin="round" />
</svg>
