<svg width="18" height="18" viewBox="0 0 18 18" fill="none" xmlns="http://www.w3.org/2000/svg">
<path d="M5.15475 12.8468C3.771 11.8643 2.676 10.5863 2.05725 9.77925C1.88423 9.55648 1.79031 9.28244 1.79031 9.00038C1.79031 8.71831 1.88423 8.44427 2.05725 8.2215C3.177 6.75975 5.8635 3.75 9 3.75C10.407 3.75 11.7225 4.35525 12.8475 5.1555" stroke="#BDFFF1" stroke-width="1.25" stroke-linecap="round" stroke-linejoin="round"/>
<path d="M7.5 14.028C7.9869 14.1729 8.49199 14.2477 9 14.25C12.1365 14.25 14.823 11.2403 15.9427 9.7785C16.1157 9.55553 16.2095 9.28132 16.2094 8.99912C16.2093 8.71692 16.1152 8.4428 15.942 8.22C15.5485 7.70662 15.1263 7.21584 14.6775 6.75M10.5975 7.41525C10.3892 7.2035 10.1411 7.03508 9.86738 6.91971C9.59369 6.80435 9.29986 6.74431 9.00285 6.74306C8.70583 6.74182 8.41151 6.79939 8.13686 6.91246C7.86221 7.02554 7.61267 7.19187 7.40262 7.40187C7.19257 7.61186 7.02618 7.86137 6.91304 8.13599C6.79991 8.41062 6.74226 8.70493 6.74344 9.00194C6.74461 9.29895 6.80458 9.59279 6.91989 9.86652C7.03519 10.1402 7.20355 10.3884 7.41525 10.5967L10.5975 7.41525ZM3 15L15 3L3 15Z" stroke="#BDFFF1" stroke-width="1.25" stroke-linecap="round" stroke-linejoin="round"/>
</svg>
