<svg width="18" height="18" viewBox="0 0 18 18" fill="none" xmlns="http://www.w3.org/2000/svg">
<path d="M15.9427 8.2215C16.2982 8.6865 16.2982 9.31425 15.9427 9.7785C14.823 11.2403 12.1365 14.25 9 14.25C5.8635 14.25 3.177 11.2403 2.05725 9.7785C1.88429 9.55585 1.7904 9.28194 1.7904 9C1.7904 8.71806 1.88429 8.44415 2.05725 8.2215C3.177 6.75975 5.8635 3.75 9 3.75C12.1365 3.75 14.823 6.75975 15.9427 8.2215V8.2215Z" stroke="#BDFFF1" stroke-width="1.25" stroke-linecap="round" stroke-linejoin="round"/>
<path d="M9 11.25C10.2426 11.25 11.25 10.2426 11.25 9C11.25 7.75736 10.2426 6.75 9 6.75C7.75736 6.75 6.75 7.75736 6.75 9C6.75 10.2426 7.75736 11.25 9 11.25Z" stroke="#BDFFF1" stroke-width="1.25" stroke-linecap="round" stroke-linejoin="round"/>
</svg>
