<svg width="18" height="18" viewBox="0 0 18 18" fill="none" xmlns="http://www.w3.org/2000/svg">
<path d="M9.90501 5.10669C10.0261 4.95795 10.2709 4.8515 10.6173 4.8515C10.9411 4.8515 11.3281 4.90101 11.6944 5.00767L12 3.29335C11.3706 3.06478 10.7201 3 10.0486 3C9.37644 3 8.84688 3.10665 8.42172 3.36184C7.99397 3.60568 7.7088 3.88377 7.54733 4.28749C7.38446 4.64954 7.30313 5.25502 7.30313 6.01707V6.69145H6V8.6494H7.30313V14.8094C7.85019 14.9389 8.42172 15 9.01114 15C9.23286 15 9.45857 15 9.68129 14.9581V8.6494H11.4088V6.69145H9.68129V6.05916C9.68149 5.57519 9.74294 5.27812 9.90501 5.10669Z" fill="#00FFC8"/>
</svg>
