<svg width="20" height="20" viewBox="0 0 20 20" fill="none" xmlns="http://www.w3.org/2000/svg">
<path opacity="0.12" d="M16.9041 2.73726L16.6668 2.5L10.8335 8.33333L13.3335 10.8333L16.9041 7.26274L16.9041 7.26274C17.6961 6.47071 18.0921 6.07469 18.2405 5.61803C18.371 5.21635 18.371 4.78365 18.2405 4.38197C18.0921 3.92531 17.6961 3.52929 16.9041 2.73726Z" fill="#FFECB3"/>
<path fill-rule="evenodd" clip-rule="evenodd" d="M17.1968 1.96967C16.9039 1.67678 16.4291 1.67678 16.1362 1.96967L10.3028 7.803C10.0099 8.0959 10.0099 8.57077 10.3028 8.86366C10.5957 9.15656 11.0706 9.15656 11.3635 8.86366L16.6661 3.56104C16.9154 3.81233 17.1 4.00398 17.2416 4.17076C17.428 4.39038 17.4955 4.51706 17.5269 4.61373C17.6085 4.86478 17.6085 5.13522 17.5269 5.38627C17.4955 5.48294 17.428 5.60962 17.2416 5.82924C17.0495 6.05555 16.7782 6.32764 16.3734 6.73241L12.8028 10.303C12.5099 10.5959 12.5099 11.0708 12.8028 11.3637C13.0957 11.6566 13.5706 11.6566 13.8635 11.3637L17.4341 7.79307L17.4556 7.77153C17.8333 7.39384 18.1486 7.07859 18.3851 6.8C18.6318 6.50944 18.8365 6.20979 18.9535 5.8498C19.1329 5.29748 19.1329 4.70252 18.9535 4.1502C18.8365 3.79021 18.6318 3.49056 18.3851 3.2C18.1486 2.9214 17.8333 2.60613 17.4556 2.22843L17.4556 2.2284L17.4341 2.20693L17.1968 1.96967ZM9.69734 9.47018C9.69717 9.47001 9.697 9.46984 9.69683 9.46967C9.69666 9.4695 9.6965 9.46933 9.69633 9.46916L8.712 8.48483L8.84936 7.52332L8.86178 7.43664C8.93298 6.94067 8.98898 6.55059 8.93635 6.1668C8.89002 5.82897 8.78126 5.50271 8.61563 5.20465C8.42747 4.86604 8.14862 4.58758 7.79408 4.23353L7.73213 4.17163L5.53017 1.96967C5.23727 1.67678 4.7624 1.67678 4.46951 1.96967C4.17661 2.26256 4.17661 2.73744 4.46951 3.03033L6.67147 5.23229C7.11704 5.67787 7.23146 5.80187 7.30448 5.93326C7.37977 6.06875 7.4292 6.21705 7.45026 6.3706C7.46891 6.50661 7.45624 6.6584 7.38602 7.15886L3.44683 3.21967C3.15394 2.92678 2.67907 2.92678 2.38617 3.21967C2.09328 3.51256 2.09328 3.98744 2.38617 4.28033L6.32536 8.21952C5.82491 8.28973 5.67312 8.30241 5.53711 8.28375C5.38355 8.2627 5.23525 8.21326 5.09977 8.13798C4.96837 8.06496 4.84437 7.95054 4.3988 7.50497L2.19683 5.303C1.90394 5.01011 1.42907 5.01011 1.13617 5.303C0.843281 5.5959 0.843281 6.07077 1.13617 6.36366L3.33814 8.56563L3.40003 8.62757L3.40003 8.62758C3.75408 8.98211 4.03255 9.26096 4.37116 9.44913C4.66922 9.61476 4.99548 9.72351 5.3333 9.76984C5.71709 9.82248 6.10718 9.76648 6.60314 9.69528L6.68982 9.68285L7.65134 9.5455L8.10584 10L6.13617 11.9697L1.13617 16.9697C0.843281 17.2626 0.843281 17.7374 1.13617 18.0303C1.42907 18.3232 1.90394 18.3232 2.19683 18.0303L7.19683 13.0303L9.1665 11.0607L16.1362 18.0303C16.4291 18.3232 16.9039 18.3232 17.1968 18.0303C17.4897 17.7374 17.4897 17.2626 17.1968 16.9697L9.69734 9.47018Z" fill="#FFECB3"/>
</svg>
