<svg width="50" height="49" viewBox="0 0 50 49" fill="none" xmlns="http://www.w3.org/2000/svg">
<g clip-path="url(#clip0_14910_158703)">
<path d="M25.0147 48.1692C38.2595 48.1692 48.9964 37.4322 48.9964 24.1874C48.9964 10.9427 38.2595 0.205658 25.0147 0.205658C11.77 0.205658 1.03296 10.9427 1.03296 24.1874C1.03296 37.4322 11.77 48.1692 25.0147 48.1692Z" stroke="#BDFFF1" stroke-width="0.5" stroke-miterlimit="10"/>
<path d="M23.804 21.2729C21.6416 22.5314 19.4895 23.7667 17.3124 24.9985L17.2029 31.7989" stroke="#BDFFF1" stroke-width="0.5" stroke-linecap="round" stroke-linejoin="round"/>
<path d="M31.9961 31.6477L31.9841 25.0459C29.7675 23.7413 27.5434 22.4493 25.312 21.1699" stroke="#BDFFF1" stroke-width="0.5" stroke-linecap="round" stroke-linejoin="round"/>
<path d="M25.3792 37.2972C27.5842 36.0592 29.7771 34.7992 31.9578 33.5173C31.9612 32.769 31.9919 32.3957 31.997 31.6477" stroke="#BDFFF1" stroke-width="0.5" stroke-linecap="round" stroke-linejoin="round"/>
<path d="M17.2029 31.7989L17.2851 33.4709C19.4538 34.8076 21.6877 36.1135 23.9869 37.3886" stroke="#BDFFF1" stroke-width="0.5" stroke-linecap="round" stroke-linejoin="round"/>
<path d="M6.83972 16.307C7.72692 17.3481 12.0408 22.9016 17.2415 24.9576" stroke="#BDFFF1" stroke-width="0.5" stroke-linecap="round" stroke-linejoin="round"/>
<path d="M4.15149 12.3487C4.84965 13.4748 5.87675 15.1192 6.14735 15.4948" stroke="#BDFFF1" stroke-width="0.5" stroke-linecap="round" stroke-linejoin="round"/>
<path d="M42.3916 15.2976C42.2425 15.5433 38.8343 22.2246 32.056 25.0057" stroke="#BDFFF1" stroke-width="0.5" stroke-linecap="round" stroke-linejoin="round"/>
<path d="M44.6755 10.4535C44.3131 11.4492 43.7408 12.9087 42.927 14.3777" stroke="#BDFFF1" stroke-width="0.5" stroke-linecap="round" stroke-linejoin="round"/>
<path d="M42.1917 38.3987C42.6567 38.5996 43.9111 38.7058 44.1172 38.6921" stroke="#BDFFF1" stroke-width="0.5" stroke-linecap="round" stroke-linejoin="round"/>
<path d="M31.9578 33.5173C33.1057 34.8318 40.7615 37.9711 41.1611 38.1168" stroke="#BDFFF1" stroke-width="0.5" stroke-linecap="round" stroke-linejoin="round"/>
<path d="M6.71789 37.4009C6.51111 37.419 5.94773 37.5354 5.06702 37.5016" stroke="#BDFFF1" stroke-width="0.5" stroke-linecap="round" stroke-linejoin="round"/>
<path d="M17.2851 33.4709C13.3429 36.87 8.08416 37.0955 7.80981 37.2183" stroke="#BDFFF1" stroke-width="0.5" stroke-linecap="round" stroke-linejoin="round"/>
<path d="M4.29175 26.1123C7.11305 7.64038 24.3398 0.212799 24.3398 0.212799C24.3398 0.212799 41.5201 8.74017 45.7933 25.6905" stroke="#BDFFF1" stroke-width="0.5" stroke-linecap="round" stroke-linejoin="round"/>
<path d="M41.3843 38.7358C40.9325 39.6479 39.631 41.5096 36.8186 45.0448" stroke="#BDFFF1" stroke-width="0.5" stroke-linecap="round" stroke-linejoin="round"/>
<path d="M45.7933 25.6909C44.5874 32.6561 42.0623 37.5534 41.9142 37.808" stroke="#BDFFF1" stroke-width="0.5" stroke-linecap="round" stroke-linejoin="round"/>
<path d="M7.5249 37.8172C7.6474 38.0847 9.09627 40.1536 12.341 44.5524" stroke="#BDFFF1" stroke-width="0.5" stroke-linecap="round" stroke-linejoin="round"/>
<path d="M4.29175 26.1123C4.74388 31.4696 6.92742 36.554 7.06016 36.8293" stroke="#BDFFF1" stroke-width="0.5" stroke-linecap="round" stroke-linejoin="round"/>
<path d="M17.2078 1.50575L17.0542 4.0312L24.5555 7.80147L32.1305 4.12095L31.589 1.11948" stroke="#BDFFF1" stroke-width="0.5" stroke-linecap="round" stroke-linejoin="round"/>
<path d="M29.478 47.7753L24.6803 46.0409L20.3378 47.6808" stroke="#BDFFF1" stroke-width="0.5" stroke-linecap="round" stroke-linejoin="round"/>
<path d="M24.6016 12.4767C24.6077 12.9397 24.6248 15.0359 24.6616 20.2028" stroke="#BDFFF1" stroke-width="0.5" stroke-linecap="round" stroke-linejoin="round"/>
<path d="M24.3398 0.213501C24.5084 7.45887 24.5709 10.3904 24.5787 10.9036" stroke="#BDFFF1" stroke-width="0.5" stroke-linecap="round" stroke-linejoin="round"/>
<path d="M24.6797 43.5482C24.678 42.4132 24.6759 38.4764 24.6759 38.4764" stroke="#BDFFF1" stroke-width="0.5" stroke-linecap="round" stroke-linejoin="round"/>
<path d="M24.6937 48.1681C24.6869 46.322 24.6807 45.513 24.6797 45.1212" stroke="#BDFFF1" stroke-width="0.5" stroke-linecap="round" stroke-linejoin="round"/>
<path d="M24.5991 12.4767C25.0337 12.4767 25.386 12.1244 25.386 11.6898C25.386 11.2552 25.0337 10.9029 24.5991 10.9029C24.1646 10.9029 23.8123 11.2552 23.8123 11.6898C23.8123 12.1244 24.1646 12.4767 24.5991 12.4767Z" stroke="#BDFFF1" stroke-width="0.5" stroke-miterlimit="10"/>
<path d="M24.6862 45.1212C25.1208 45.1212 25.4731 44.7689 25.4731 44.3344C25.4731 43.8998 25.1208 43.5475 24.6862 43.5475C24.2516 43.5475 23.8993 43.8998 23.8993 44.3344C23.8993 44.7689 24.2516 45.1212 24.6862 45.1212Z" stroke="#BDFFF1" stroke-width="0.5" stroke-miterlimit="10"/>
<path d="M24.8984 20.2851C27.6064 15.5184 32.2987 10.2819 40.7527 6.0871" stroke="#BDFFF1" stroke-width="0.5" stroke-linecap="round" stroke-linejoin="round"/>
<path d="M6.52405 8.91318C8.77618 9.16876 12.195 9.92356 15.666 11.8478C17.1473 12.6671 21.5543 15.1809 24.4035 20.2311" stroke="#BDFFF1" stroke-width="0.5" stroke-linecap="round" stroke-linejoin="round"/>
<path d="M25.2134 38.2823C28.2845 40.7173 32.2543 43.0971 37.2739 44.7998" stroke="#BDFFF1" stroke-width="0.5" stroke-linecap="round" stroke-linejoin="round"/>
<path d="M24.1817 38.2823C24.1817 38.2823 19.9061 43.0199 10.9078 43.5499" stroke="#BDFFF1" stroke-width="0.5" stroke-linecap="round" stroke-linejoin="round"/>
<path d="M6.46232 16.4633C6.75763 16.4633 6.99703 16.2239 6.99703 15.9286C6.99703 15.6333 6.75763 15.3939 6.46232 15.3939C6.16701 15.3939 5.92761 15.6333 5.92761 15.9286C5.92761 16.2239 6.16701 16.4633 6.46232 16.4633Z" stroke="#BDFFF1" stroke-width="0.5" stroke-miterlimit="10"/>
<path d="M7.27482 37.8793C7.57013 37.8793 7.80953 37.6399 7.80953 37.3446C7.80953 37.0493 7.57013 36.8099 7.27482 36.8099C6.97951 36.8099 6.74011 37.0493 6.74011 37.3446C6.74011 37.6399 6.97951 37.8793 7.27482 37.8793Z" stroke="#BDFFF1" stroke-width="0.5" stroke-miterlimit="10"/>
<path d="M42.6998 15.3952C42.9951 15.3952 43.2345 15.1558 43.2345 14.8605C43.2345 14.5652 42.9951 14.3258 42.6998 14.3258C42.4044 14.3258 42.165 14.5652 42.165 14.8605C42.165 15.1558 42.4044 15.3952 42.6998 15.3952Z" stroke="#BDFFF1" stroke-width="0.5" stroke-miterlimit="10"/>
<path d="M41.6692 38.818C41.9645 38.818 42.2039 38.5786 42.2039 38.2833C42.2039 37.988 41.9645 37.7486 41.6692 37.7486C41.3739 37.7486 41.1345 37.988 41.1345 38.2833C41.1345 38.5786 41.3739 38.818 41.6692 38.818Z" stroke="#BDFFF1" stroke-width="0.5" stroke-miterlimit="10"/>
<path d="M24.5435 21.7916C24.9781 21.7916 25.3304 21.4393 25.3304 21.0047C25.3304 20.5701 24.9781 20.2178 24.5435 20.2178C24.1089 20.2178 23.7566 20.5701 23.7566 21.0047C23.7566 21.4393 24.1089 21.7916 24.5435 21.7916Z" stroke="#BDFFF1" stroke-width="0.5" stroke-miterlimit="10"/>
<path d="M24.697 38.4764C25.1316 38.4764 25.4839 38.1241 25.4839 37.6896C25.4839 37.255 25.1316 36.9027 24.697 36.9027C24.2625 36.9027 23.9102 37.255 23.9102 37.6896C23.9102 38.1241 24.2625 38.4764 24.697 38.4764Z" stroke="#BDFFF1" stroke-width="0.5" stroke-miterlimit="10"/>
<path d="M26.4241 29.6891C28.0019 29.598 41.0288 29.052 48.9972 23.9775" stroke="#BDFFF1" stroke-width="0.5" stroke-linecap="round" stroke-linejoin="round"/>
<path d="M1.00061 24.7491C7.11821 27.5192 14.4018 29.4686 23.0568 29.715" stroke="#BDFFF1" stroke-width="0.5" stroke-linecap="round" stroke-linejoin="round"/>
<path d="M24.74 31.3809C25.6699 31.3809 26.4237 30.6271 26.4237 29.6972C26.4237 28.7674 25.6699 28.0136 24.74 28.0136C23.8102 28.0136 23.0564 28.7674 23.0564 29.6972C23.0564 30.6271 23.8102 31.3809 24.74 31.3809Z" stroke="#BDFFF1" stroke-width="0.5" stroke-miterlimit="10"/>
<path d="M36.4207 30.7186L36.3743 22.5307L24.6445 15.7252L12.9389 22.4553L12.8812 31.3608" stroke="#BDFFF1" stroke-width="0.5" stroke-linecap="round" stroke-linejoin="round"/>
<path d="M12.8812 31.3608L12.8952 35.9858L24.6701 42.7886L36.4589 36.0831L36.4207 30.7186" stroke="#BDFFF1" stroke-width="0.5" stroke-linecap="round" stroke-linejoin="round"/>
</g>
<defs>
<clipPath id="clip0_14910_158703">
<rect width="48.0314" height="48" fill="white" transform="translate(0.983521 0.187561)"/>
</clipPath>
</defs>
</svg>
