<svg width="18" height="18" viewBox="0 0 18 18" fill="none" xmlns="http://www.w3.org/2000/svg">
<path d="M2.25 4.125H4.5525" stroke="#00FFC8" stroke-linecap="round" stroke-linejoin="round"/>
<path d="M7.74379 2.79917C8.47602 3.53141 8.47602 4.71859 7.74379 5.45082C7.01156 6.18306 5.82438 6.18306 5.09214 5.45082C4.35991 4.71859 4.35991 3.53141 5.09214 2.79917C5.82438 2.06694 7.01156 2.06694 7.74379 2.79917" stroke="#00FFC8" stroke-linecap="round" stroke-linejoin="round"/>
<path d="M8.29492 4.125H15.7499" stroke="#00FFC8" stroke-linecap="round" stroke-linejoin="round"/>
<path d="M7.74379 2.79917C8.47602 3.53141 8.47602 4.71859 7.74379 5.45082C7.01156 6.18306 5.82438 6.18306 5.09214 5.45082C4.35991 4.71859 4.35991 3.53141 5.09214 2.79917C5.82438 2.06694 7.01156 2.06694 7.74379 2.79917" stroke="#00FFC8" stroke-linecap="round" stroke-linejoin="round"/>
<path d="M15.7501 9H13.4551" stroke="#00FFC8" stroke-linecap="round" stroke-linejoin="round"/>
<path d="M9.705 9H2.25" stroke="#00FFC8" stroke-linecap="round" stroke-linejoin="round"/>
<path d="M12.9098 7.67417C13.642 8.40641 13.642 9.59359 12.9098 10.3258C12.1776 11.0581 10.9904 11.0581 10.2582 10.3258C9.52593 9.59359 9.52593 8.40641 10.2582 7.67417C10.9904 6.94194 12.1776 6.94194 12.9098 7.67417" stroke="#00FFC8" stroke-linecap="round" stroke-linejoin="round"/>
<path d="M8.29492 13.875H15.7499" stroke="#00FFC8" stroke-linecap="round" stroke-linejoin="round"/>
<path d="M2.25 13.875H4.545" stroke="#00FFC8" stroke-linecap="round" stroke-linejoin="round"/>
<path d="M7.74379 12.5492C8.47602 13.2814 8.47602 14.4686 7.74379 15.2008C7.01156 15.9331 5.82438 15.9331 5.09214 15.2008C4.35991 14.4686 4.35991 13.2814 5.09214 12.5492C5.82438 11.8169 7.01156 11.8169 7.74379 12.5492" stroke="#00FFC8" stroke-linecap="round" stroke-linejoin="round"/>
</svg>
