<svg width="18" height="18" viewBox="0 0 18 18" fill="none" xmlns="http://www.w3.org/2000/svg">
<path fill-rule="evenodd" clip-rule="evenodd" d="M13.0696 7.73308C12.4687 6.73787 12.5813 6.04309 12.5813 6.00555V6.00555C12.608 5.87138 12.5572 5.73359 12.4499 5.64877V5.64877C12.3401 5.55609 12.187 5.53422 12.0556 5.59244V5.59244C11.5146 5.89249 11.1208 6.40173 10.9665 7.00075V7.00075C10.8893 7.25776 10.839 7.52205 10.8163 7.78941C10.7036 7.60163 10.6097 7.41386 10.5346 7.26364C9.72715 5.51732 10.1027 3.48935 10.1215 3.4518V3.4518C10.1427 3.32173 10.1009 3.18932 10.0088 3.09503V3.09503C9.91323 3.00538 9.77567 2.97642 9.65204 3.01992C9.55816 3.05747 7.24852 3.75224 6.72274 6.66276L6.72274 6.66276C6.56199 7.58484 6.58753 8.52978 6.79785 9.44184H6.79785C6.53342 9.25016 6.30997 9.00756 6.14064 8.72829L6.14064 8.72829C5.91093 8.29857 5.72835 7.84528 5.59609 7.37631V7.37631C5.54827 7.17449 5.34589 7.04965 5.14406 7.09748C5.04062 7.12199 4.95241 7.1892 4.90132 7.28242C4.86377 7.33875 4 8.89729 4 10.3244C4 13.0284 6.0092 15 8.84461 15C11.68 15 13.7643 13.0284 13.7643 10.3244C13.7643 9.21651 13.6141 8.6344 13.0696 7.73309V7.73308Z" stroke="#00FFC8" stroke-linejoin="round"/>
</svg>
