<svg width="39" height="39" viewBox="0 0 39 39" fill="none" xmlns="http://www.w3.org/2000/svg">
    <path
        d="M11.9879 2.25499C12.6027 2.25389 13.1962 2.47956 13.6549 2.88879L30.6027 17.7515C30.8725 17.9894 31.0886 18.282 31.2365 18.6098C31.3845 18.9376 31.4611 19.2932 31.4611 19.6529C31.4611 20.0126 31.3845 20.3681 31.2365 20.696C31.0886 21.0238 30.8725 21.3164 30.6027 21.5543L13.7119 36.3789C13.2269 36.8032 12.5986 37.0269 11.9546 37.0045C11.3106 36.9821 10.6994 36.7154 10.245 36.2585C10.0087 36.0249 9.82139 35.7465 9.69406 35.4396C9.56672 35.1327 9.50192 34.8035 9.50344 34.4712C9.50318 34.1382 9.56853 33.8083 9.69577 33.5006C9.82301 33.1928 10.0096 32.9131 10.245 32.6775C10.3165 32.6069 10.3927 32.5413 10.4732 32.481L10.5175 32.4367L23.9985 20.6163C24.1334 20.4973 24.2414 20.351 24.3154 20.1871C24.3894 20.0232 24.4277 19.8454 24.4277 19.6656C24.4277 19.4857 24.3894 19.3079 24.3154 19.144C24.2414 18.9801 24.1334 18.8338 23.9985 18.7148L10.4605 6.82471L10.4098 6.78668C10.3337 6.7233 10.2577 6.65992 10.1879 6.5902C9.83041 6.2356 9.58657 5.78255 9.48752 5.28883C9.38847 4.7951 9.4387 4.28306 9.6318 3.81799C9.8249 3.35293 10.1521 2.9559 10.5717 2.67753C10.9914 2.39916 11.4844 2.25206 11.9879 2.25499ZM11.9879 0.987384C11.2345 0.985531 10.4974 1.20756 9.87032 1.62529C9.24323 2.04302 8.75437 2.63763 8.46578 3.33365C8.17718 4.02968 8.10186 4.79575 8.24937 5.53466C8.39687 6.27356 8.76057 6.952 9.29429 7.48386C9.40203 7.59161 9.50978 7.68668 9.62386 7.78175L23.1746 19.6529L9.68091 31.486C9.565 31.5784 9.45493 31.6779 9.35133 31.7839C8.64112 32.4966 8.24234 33.4618 8.24234 34.468C8.24234 35.4742 8.64112 36.4394 9.35133 37.1522C9.70539 37.505 10.1255 37.7846 10.5877 37.9749C11.0499 38.1652 11.5451 38.2626 12.045 38.2613C12.967 38.2637 13.8578 37.9277 14.5485 37.317L31.414 22.524C31.8187 22.1671 32.1427 21.7283 32.3647 21.2365C32.5867 20.7448 32.7015 20.2114 32.7015 19.6719C32.7015 19.1324 32.5867 18.599 32.3647 18.1073C32.1427 17.6155 31.8187 17.1766 31.414 16.8198L14.4915 1.9064C13.7953 1.30789 12.906 0.981469 11.9879 0.987384Z"
        fill="#00FFC8" />
    <path
        d="M6.63881 29.7937C6.54882 29.7935 6.45989 29.7743 6.37793 29.7371C6.29596 29.7 6.22285 29.6458 6.16346 29.5782C6.05267 29.452 5.99645 29.2871 6.00715 29.1195C6.01784 28.952 6.09457 28.7955 6.2205 28.6845L16.5008 19.6528L6.2205 10.5831C6.10272 10.47 6.03316 10.3157 6.02631 10.1526C6.01946 9.9894 6.07586 9.82988 6.18375 9.70728C6.29164 9.58468 6.44269 9.50846 6.6054 9.49451C6.76812 9.48055 6.92994 9.52995 7.05712 9.63239L17.8761 19.1901C17.9436 19.2496 17.9976 19.3228 18.0346 19.4047C18.0716 19.4867 18.0907 19.5756 18.0907 19.6655C18.0907 19.7554 18.0716 19.8443 18.0346 19.9263C17.9976 20.0082 17.9436 20.0814 17.8761 20.1408L7.05712 29.6099C6.94539 29.721 6.79625 29.7865 6.63881 29.7937Z"
        fill="#00FFC8" />
</svg>
