<svg width="14" height="32" viewBox="0 0 14 32" fill="none" xmlns="http://www.w3.org/2000/svg">
    <path
        d="M0.764219 32C0.616087 32.0011 0.470896 31.9524 0.346545 31.8598C0.222193 31.7671 0.124117 31.6346 0.0644027 31.4787C0.00468853 31.3227 -0.0140522 31.15 0.0104904 30.9819C0.0350331 30.8138 0.101786 30.6576 0.202522 30.5326L11.6718 15.9988L1.8952 3.61355C1.82742 3.52839 1.77499 3.4286 1.74095 3.31996C1.7069 3.21133 1.69192 3.09601 1.69686 2.98066C1.7018 2.86532 1.72657 2.75225 1.76974 2.64799C1.8129 2.54374 1.87361 2.45037 1.94834 2.37329C2.09747 2.21846 2.29384 2.13797 2.49445 2.14943C2.69505 2.16089 2.88353 2.26337 3.0186 2.43443L13.2582 15.4136C13.3841 15.5741 13.4538 15.7826 13.4538 15.9988C13.4538 16.215 13.3841 16.4235 13.2582 16.584L1.32592 31.7205C1.25428 31.8094 1.16734 31.8801 1.07063 31.9283C0.973928 31.9764 0.869576 32.0008 0.764219 32ZM0.764219 1.74442C0.664323 1.74508 0.565296 1.72305 0.472816 1.67958C0.380335 1.63612 0.29622 1.57207 0.225294 1.49112C0.154293 1.41141 0.097559 1.31645 0.0583017 1.21163C0.0220072 1.10602 0.00395935 0.99328 0.00516841 0.879723C0.0029572 0.763236 0.0210227 0.647417 0.0583017 0.539086C0.100525 0.436183 0.156916 0.341801 0.225294 0.259588C0.294068 0.173186 0.380017 0.107253 0.475781 0.0674347C0.612467 0.00176421 0.762865 -0.0164531 0.908439 0.0150287L1.05266 0.0674347L1.1817 0.146043C1.22455 0.176848 1.26297 0.215157 1.29556 0.259588C1.36881 0.337087 1.42589 0.432633 1.46255 0.539086C1.50242 0.646801 1.52307 0.762641 1.52327 0.879723C1.52207 0.99386 1.50144 1.10662 1.46255 1.21163C1.38098 1.4215 1.23505 1.58943 1.05266 1.68328C0.960882 1.72504 0.862906 1.74581 0.764219 1.74442Z"
        fill="#00FFC8" />
</svg>
