<svg width="143" height="25" viewBox="0 0 143 25" fill="none" xmlns="http://www.w3.org/2000/svg">
<path d="M51.0798 3.80661C50.3552 5.36014 49.1958 7.83607 48.5194 9.31678C47.8431 10.7732 46.9252 12.7394 46.4904 13.6861C45.6208 15.5552 44.7513 17.4485 42.9155 21.3809L41.6836 24.0025H52.4325H63.1573L62.8191 23.2257C62.2877 21.9877 53.133 2.35018 52.7465 1.62196C52.4084 0.966568 52.4084 0.966568 51.0798 3.80661ZM54.0026 16.3562C54.7755 18.0311 55.4277 19.439 55.4277 19.5118C55.4277 19.5846 54.075 19.6332 52.4084 19.6332H49.389L49.9687 18.3467C51.3939 15.1911 52.2876 13.322 52.4325 13.322C52.505 13.322 53.2055 14.6813 54.0026 16.3562Z" fill="#BDFFF1"/>
<path d="M112.594 0.7658C112.4 1.24621 110.026 6.50543 107.336 12.4979C104.646 18.4651 102.392 23.522 102.319 23.6737C102.222 23.9266 104.452 24.0024 112.982 24.0024H123.79L122.433 21.0188C120.834 17.5043 119.646 14.8241 118.725 12.7507C118.362 11.9164 117.586 10.197 117.029 8.95804C116.472 7.69381 115.357 5.19062 114.557 3.39541C113.758 1.57491 113.055 0.0578285 113.006 0.0072591C112.982 -0.0433103 112.788 0.310676 112.594 0.7658ZM114.46 15.8355C115.212 17.5296 115.817 19.0466 115.817 19.1731C115.817 19.3501 114.8 19.4512 112.909 19.4512C111.31 19.4512 110.001 19.4006 110.001 19.3248C110.001 19.2489 110.51 18.0858 111.116 16.7204C111.722 15.3804 112.4 13.8886 112.594 13.4082C112.788 12.953 112.982 12.599 113.006 12.6496C113.055 12.7002 113.709 14.1414 114.46 15.8355Z" fill="#BDFFF1"/>
<path d="M72.3303 1.58324C70.2761 2.06486 67.9937 3.36522 66.4467 4.95456C60.8421 10.7099 62.6173 19.5716 70.0986 23.0874C72.0513 24.0025 72.0513 24.0025 75.2467 24.0025C78.4167 24.0025 78.4421 24.0025 80.3441 23.1115C82.1954 22.2446 84.6299 20.3903 84.6299 19.8606C84.6299 19.7161 83.717 18.9455 82.5758 18.1508L80.5216 16.6819L79.3804 17.5247C77.732 18.7047 75.8807 19.1622 74.1055 18.8251C70.2507 18.0545 67.9429 14.5387 69.0081 11.0229C70.3268 6.73653 75.9568 5.09904 79.3804 8.01282L80.4455 8.90381L82.4236 7.43488C83.5141 6.64021 84.4524 5.89371 84.5539 5.7733C84.7821 5.38801 82.6265 3.50971 81.0795 2.71504C78.3406 1.31835 75.1959 0.908981 72.3303 1.58324Z" fill="#BDFFF1"/>
<path d="M0 12.634V24.0025H2.98565H5.97129V20.0482V16.094H9.95215H13.933V13.6226V11.1512H9.95215H5.97129V8.55624V5.96128H11.1962H16.4211V3.61345V1.26562H8.21053H0V12.634Z" fill="#BDFFF1"/>
<path d="M18.9453 12.634V24.0025H21.9395H24.9336V20.0482V16.094H26.1562C26.9297 16.094 27.4287 16.2176 27.5036 16.4153C27.5785 16.5883 28.7013 18.3677 30.0237 20.3695L32.419 24.0025H35.7874H39.1558L37.3344 21.2098C36.3363 19.7022 35.0638 17.7993 34.5399 17.0084C34.0159 16.2423 33.6416 15.5503 33.6915 15.5256C33.7414 15.4762 34.3652 15.2043 35.0888 14.883C36.5859 14.191 37.7336 13.1283 38.2326 11.8926C39.081 9.86608 38.9562 6.65327 37.9332 4.72558C37.2595 3.44045 35.5379 2.32833 33.2923 1.7599C31.5956 1.33977 30.5227 1.26562 25.1332 1.26562H18.9453V12.634ZM31.5956 6.5297C33.3422 7.44412 33.0677 10.1874 31.1714 10.8299C30.6974 11.0029 29.1005 11.1265 27.6284 11.1265L24.9336 11.1512V8.53153V5.88713L27.8779 6.0107C29.8989 6.08485 31.0467 6.25785 31.5956 6.5297Z" fill="#BDFFF1"/>
<path d="M85.8945 3.61345V5.93656L88.7928 6.0107L91.6665 6.08485L91.7401 15.0313L91.7893 24.0025H94.7366H97.684V14.9819V5.96128H100.631H103.579V3.61345V1.26562H94.7366H85.8945V3.61345Z" fill="#BDFFF1"/>
<path d="M126.316 12.634V24.0025H134.527H142.737V21.5311V19.0597H137.655H132.572V10.1627V1.26562H129.444H126.316V12.634Z" fill="#BDFFF1"/>
</svg>
