<svg width="113" height="41" viewBox="0 0 113 41" fill="none" xmlns="http://www.w3.org/2000/svg">
<g clip-path="url(#clip0_9844_21645)">
<path d="M37.9336 22.9682V35.4333L41.4952 35.4233L45.0517 35.408L45.0669 31.1452L45.0771 26.8872H50.6247H56.1722V24.1566V21.4259H50.6247H45.0771V18.6699V15.9138H51.3847H57.6922V13.2084V10.5029H47.8129H37.9336V22.9682Z" fill="#BDFFF1"/>
<path d="M60.3281 13.2842V16.0655H64.1783H68.0287L68.0389 25.7343L68.0542 35.408L71.6157 35.4233L75.1723 35.4333V25.7495V16.0655H79.0226H82.873V13.2842V10.5029H71.6005H60.3281V13.2842Z" fill="#BDFFF1"/>
<path d="M83.827 10.6395C83.8827 10.7204 85.8535 13.4865 88.2093 16.7937L92.5004 22.8063L92.3839 22.9632C92.3231 23.0491 90.2916 25.8404 87.8698 29.1628C85.4481 32.4853 83.4368 35.2564 83.3913 35.3171L83.3203 35.4333H87.3783H91.4365L94.0254 31.5599L96.6092 27.6863L97.8859 29.5776C98.5901 30.6141 99.7655 32.3589 100.505 33.4512L101.843 35.4333H105.941C109.204 35.4333 110.03 35.4183 109.999 35.3677C109.974 35.3374 107.887 32.455 105.354 28.9706C102.825 25.4865 100.738 22.599 100.728 22.5635C100.708 22.5182 102.466 20.0705 105.024 16.5611C107.406 13.2994 109.371 10.599 109.391 10.5636C109.422 10.5181 108.647 10.5029 105.587 10.5029H101.746L99.2691 14.0933L96.7915 17.6787L96.6852 17.5371C96.6244 17.4562 95.4945 15.843 94.1723 13.9517L91.7659 10.508H87.7482L83.7307 10.5029L83.827 10.6395Z" fill="#BDFFF1"/>
<path d="M8.07586 10.4918C14.9063 10.4897 21.7373 10.4897 28.5686 10.4918C28.5707 12.7076 28.5707 14.9229 28.5686 17.1379C21.7378 17.14 14.907 17.14 8.07586 17.1379C8.07367 14.9222 8.07367 12.7068 8.07586 10.4918Z" fill="#BDFFF1"/>
<path d="M0.00857131 19.6385C2.21226 19.627 4.41631 19.627 6.62076 19.6385C6.63219 21.8501 6.63219 24.062 6.62076 26.2743C4.41642 26.2857 2.21235 26.2859 0.00857131 26.2748C-0.0028571 24.063 -0.0028571 21.8509 0.00857131 19.6385Z" fill="#BDFFF1"/>
<path d="M8.08193 19.6383C13.012 19.6277 17.9418 19.6277 22.8713 19.6383C22.8817 21.8499 22.8817 24.0618 22.8713 26.2741C17.9413 26.2845 13.0115 26.2845 8.08193 26.2741C8.07165 24.0625 8.07165 21.8506 8.08193 19.6383Z" fill="#BDFFF1"/>
<path d="M8.0866 28.787C10.2866 28.7631 12.4862 28.7631 14.6854 28.787C14.7082 30.9934 14.7085 33.2008 14.6863 35.4093C12.4864 35.4311 10.2868 35.4308 8.08775 35.4083C8.06489 33.202 8.06451 30.9949 8.0866 28.787Z" fill="#BDFFF1"/>
</g>
<defs>
<clipPath id="clip0_9844_21645">
<rect width="112.554" height="40" fill="white" transform="translate(0 0.793457)"/>
</clipPath>
</defs>
</svg>
