<svg width="21" height="25" viewBox="0 0 21 25" fill="none" xmlns="http://www.w3.org/2000/svg">
    <g clip-path="url(#clip0_1926:42134)">
        <path
            d="M20.6152 6.36776L15.6717 3.50023H15.6696L10.7258 0.631784L10.4991 0.5L10.2714 0.631784L5.32793 3.49931H5.3258L0.382755 6.36776L0.154297 6.50015V18.5L0.382755 18.633L5.32656 21.5005H5.32868L10.2722 24.3681L10.4999 24.4994L10.7265 24.3681L15.6703 21.5005H15.6725L20.6159 18.633L20.8447 18.5V12.0279H15.4573V12.966L19.93 13.0038V17.9721L15.2143 20.7081L14.2428 21.2725C14.2442 20.5053 14.2466 19.4333 14.2484 19.3391C14.2622 18.6748 14.2691 18.3426 14.0814 18.0165H14.0805C13.8911 17.6878 13.6018 17.5275 13.0239 17.2081L13.0067 17.1991L13.0049 17.2031L12.7924 17.0803L12.782 17.0746C12.6427 16.9968 12.5 16.9165 12.3702 16.8413L11.6033 16.396L9.20154 15.0144L9.20655 15.0062L9.09665 14.9423H9.09528C8.78485 14.7626 8.58827 14.6546 8.42448 14.5631C8.35541 14.5248 7.72499 14.1921 7.72499 14.1083C7.66761 14.0085 7.67216 13.7632 7.68279 13.2738L7.68507 13.1545C7.6861 13.1054 7.70624 13.0586 7.74116 13.0242C7.77609 12.9898 7.82303 12.9706 7.87193 12.9705H13.1263C13.1752 12.9705 13.2222 12.9898 13.2571 13.0242C13.292 13.0586 13.312 13.1054 13.3129 13.1545L13.3156 13.2738C13.3259 13.7619 13.3308 14.0073 13.2739 14.1092V14.1083C13.2165 14.2085 13.0023 14.3268 12.5756 14.5628C12.4118 14.6529 12.2196 14.7588 11.9036 14.942H11.9024L11.0297 15.4488C11.0063 15.4619 10.9869 15.4812 10.9735 15.5045C10.9601 15.5278 10.9533 15.5543 10.9538 15.5812C10.9534 15.6081 10.9603 15.6347 10.9736 15.658C10.987 15.6814 11.0063 15.7007 11.0297 15.7139L11.6607 16.0775C11.6836 16.0914 11.7098 16.0987 11.7366 16.0987C11.7633 16.0987 11.7896 16.0914 11.8125 16.0775L12.3696 15.7543V15.7536C12.5721 15.636 12.8185 15.4999 13.0248 15.3864C13.6037 15.0661 13.894 14.906 14.0819 14.5791V14.5783C14.2694 14.2518 14.2625 13.9191 14.2489 13.2565C14.2454 13.0872 14.2411 12.8889 14.2411 12.5011C14.2411 12.1132 14.2454 11.9135 14.2489 11.7451C14.2627 11.0806 14.2695 10.7481 14.0819 10.422H14.081C13.8915 10.0933 13.6022 9.9331 13.0243 9.61356C12.818 9.50038 12.5773 9.36692 12.3696 9.24657L11.433 8.70251L12.3702 8.15859C12.5727 8.04038 12.8191 7.90478 13.0254 7.791C13.6043 7.4716 13.8946 7.31099 14.0825 6.98397V6.98245C14.27 6.65588 14.2631 6.32352 14.2495 5.66064C14.2477 5.56531 14.2452 4.48526 14.2439 3.72826L15.2154 4.29261L19.93 7.0282V8.74323H20.8446V6.50015L20.6152 6.36776ZM11.9019 17.6538H11.9036C12.214 17.8339 12.4109 17.9428 12.5742 18.0327C13.0034 18.2692 13.2179 18.3876 13.274 18.4854V18.487C13.3317 18.5872 13.3267 18.8325 13.3164 19.3217C13.3132 19.4681 13.3094 20.926 13.3077 21.6401C13.3082 21.6937 13.2944 21.7464 13.2677 21.7929C13.241 21.8393 13.2024 21.8776 13.1559 21.904L10.5003 23.4445L7.84521 21.904C7.79852 21.8778 7.75971 21.8395 7.73286 21.7931C7.70601 21.7467 7.69212 21.6938 7.69266 21.6401C7.69053 20.9261 7.68704 19.4686 7.684 19.3226C7.67338 18.8345 7.66882 18.5882 7.72575 18.4867C7.78343 18.387 7.99747 18.2682 8.42403 18.0323C8.58736 17.9425 8.77984 17.8362 9.09544 17.6535H9.09695L10.4994 16.8396L11.9019 17.6538ZM11.6135 9.89009L11.9367 10.0765C12.2278 10.2452 12.416 10.3497 12.5742 10.4363C13.0034 10.6727 13.2179 10.7915 13.274 10.889V10.891C13.3317 10.9909 13.3267 11.2363 13.3164 11.7258L13.3136 11.8447C13.3128 11.8939 13.2928 11.9408 13.2579 11.9753C13.223 12.0098 13.176 12.0292 13.1271 12.0291H7.87193C7.82297 12.0291 7.77598 12.0097 7.74105 11.9753C7.70612 11.9408 7.68602 11.8939 7.68507 11.8447L7.68355 11.7261C7.68355 11.7108 7.66837 10.8474 7.72575 10.8913C7.78343 10.7912 7.99747 10.6727 8.42403 10.4371C8.58736 10.3471 8.77984 10.2411 9.09544 10.0579H9.09695L9.96054 9.55712C9.98394 9.54383 10.0034 9.52453 10.0169 9.50121C10.0305 9.47788 10.0376 9.45135 10.0376 9.42435C10.0376 9.39734 10.0305 9.37081 10.0169 9.34749C10.0034 9.32416 9.98394 9.30486 9.96054 9.29157L9.32905 8.92794C9.30609 8.91423 9.27987 8.907 9.25316 8.907C9.22644 8.907 9.20022 8.91423 9.17726 8.92794L8.62941 9.24581C8.42615 9.36372 8.18024 9.49962 7.97394 9.6134C7.39513 9.93356 7.10459 10.094 6.91666 10.4213V10.4233C6.72949 10.7494 6.73617 11.0816 6.74968 11.7447C6.75317 11.9125 6.75772 12.112 6.75772 12.5005C6.75772 12.8889 6.75317 13.0875 6.74968 13.2559C6.73602 13.9203 6.72903 14.2529 6.91666 14.5791C7.10641 14.9077 7.39604 15.068 7.97379 15.3875C8.17978 15.5005 8.42069 15.634 8.62865 15.7536V15.7543L9.56586 16.2983L8.62911 16.842C8.42585 16.9604 8.17993 17.0961 7.97364 17.2102C7.39452 17.529 7.10443 17.6896 6.91651 18.0171V18.0188C6.72934 18.3453 6.73602 18.6775 6.74953 19.3406C6.7515 19.4347 6.75378 20.5059 6.75545 21.2731L5.78287 20.7088H5.78363L1.06858 17.9721V7.0282L5.78393 4.29246H5.78317L6.75575 3.72811C6.75408 4.48465 6.7518 5.56531 6.74983 5.66109C6.73617 6.32551 6.72919 6.65787 6.91681 6.98428C7.10656 7.31313 7.39619 7.47328 7.97394 7.79268C8.17993 7.906 8.42084 8.03947 8.6288 8.15981C9.62522 8.73652 10.6172 9.31277 11.6132 9.89055L11.6135 9.89009ZM13.2742 6.51342C13.2168 6.61348 13.0026 6.73199 12.5759 6.96796C12.4121 7.05795 12.2199 7.16426 11.9039 7.34699H11.9027L10.5002 8.16073L9.09771 7.34699H9.09528C8.78485 7.16685 8.58827 7.05871 8.42448 6.96719C7.99595 6.73077 7.781 6.61226 7.72499 6.51449V6.51251C7.66761 6.4123 7.67216 6.16718 7.68279 5.67818C7.68583 5.52962 7.68962 4.04948 7.69175 3.35975C7.69113 3.30608 7.7049 3.25324 7.73161 3.20675C7.75832 3.16027 7.79698 3.12187 7.84355 3.09557L10.4987 1.55504L13.1538 3.09557C13.2005 3.12184 13.2392 3.16021 13.2661 3.20668C13.293 3.25315 13.3069 3.30601 13.3065 3.35975C13.3082 4.05162 13.312 5.52931 13.3152 5.67818C13.3259 6.16627 13.3305 6.4123 13.2739 6.51388L13.2742 6.51342Z"
            fill="#00FFC8" />
    </g>
    <defs>
        <clipPath id="clip0_1926:42134">
            <rect width="20.6897" height="24" fill="white" transform="translate(0.154297 0.5)" />
        </clipPath>
    </defs>
</svg>
