<svg width="14" height="14" viewBox="0 0 14 14" fill="none" xmlns="http://www.w3.org/2000/svg">
<g clip-path="url(#clip0_15313_124911)">
<path d="M7.88359 0.0175782C7.90202 0.0291192 7.9116 0.0500793 7.92257 0.0508373C8.2919 0.076356 8.6551 0.142942 9.00834 0.248284C9.33235 0.344912 9.65267 0.457978 9.96624 0.584561C10.3782 0.750852 10.7604 0.976246 11.118 1.23979C11.3207 1.38921 11.5131 1.55267 11.7102 1.70971C11.7371 1.73107 11.7642 1.75205 11.7914 1.77285C11.8516 1.81878 11.8596 1.85595 11.7973 1.91722C11.4169 2.29132 11.0412 2.67014 10.6641 3.0476C10.3964 3.31566 10.129 3.58407 9.8619 3.85187C9.71719 3.73662 9.57866 3.62074 9.43434 3.51258C9.16981 3.31432 8.88234 3.15258 8.56915 3.04907C8.30817 2.96281 8.04062 2.88714 7.77013 2.84139C7.45993 2.78893 7.14434 2.78885 6.82767 2.81399C6.39811 2.84808 5.98791 2.95289 5.59497 3.11986C5.25534 3.26417 4.93291 3.44546 4.65185 3.68861C4.47475 3.84182 4.29967 3.99905 4.1385 4.16856C3.92903 4.38889 3.74357 4.63149 3.60585 4.90363C3.4798 5.15272 3.37153 5.41081 3.24733 5.66933C3.22204 5.66296 3.20375 5.65362 3.18781 5.64124C2.68229 5.24895 2.17739 4.85586 1.67153 4.46402C1.41875 4.26822 1.16427 4.0746 0.910156 3.87388C0.992625 3.71829 1.07252 3.56708 1.15893 3.41968C1.41198 2.98804 1.71505 2.59261 2.05413 2.22619C2.31915 1.93981 2.61106 1.68114 2.92138 1.44351C3.23524 1.20316 3.56618 0.989341 3.91634 0.80687C4.30656 0.603528 4.7092 0.427654 5.13528 0.312656C5.38805 0.244435 5.64187 0.178418 5.89809 0.125241C6.07426 0.0886786 6.25545 0.0765406 6.43407 0.0511699C6.44877 0.0490814 6.46095 0.0291949 6.4743 0.0175781C6.94133 0.0175782 7.40836 0.0175782 7.88359 0.0175782Z" fill="#EA4335"/>
<path d="M3.25483 8.34961C3.41129 8.83389 3.65187 9.27201 3.9714 9.66812C4.26053 10.0265 4.59248 10.3378 4.97993 10.5868C5.42448 10.8725 5.90578 11.067 6.42645 11.1684C6.76483 11.2342 7.1056 11.2526 7.44638 11.2327C7.93022 11.2045 8.4058 11.1171 8.85186 10.9193C9.08268 10.8169 9.30168 10.6879 9.53722 10.5731C10.298 11.1579 11.0476 11.7404 11.7973 12.3229C11.579 12.5014 11.3728 12.6979 11.1395 12.8539C10.851 13.0468 10.5481 13.2225 10.2369 13.3762C9.74897 13.6172 9.23179 13.7819 8.69511 13.8774C8.45203 13.9207 8.20625 13.9487 7.96183 13.9846C7.9493 13.9864 7.93807 13.9971 7.92764 14.011C7.45033 14.0184 6.97163 14.0184 6.4863 14.011C6.46493 13.997 6.45067 13.9861 6.43537 13.9843C6.31808 13.9711 6.19926 13.9671 6.08341 13.9463C5.65132 13.8688 5.22545 13.7687 4.811 13.6187C4.2425 13.4129 3.71002 13.1419 3.21252 12.7983C2.76138 12.4867 2.34137 12.1398 1.9865 11.7212C1.76153 11.4558 1.5415 11.1842 1.34371 10.8985C1.1812 10.6637 1.05473 10.404 0.917969 10.1531C1.2764 9.8783 1.6291 9.60556 1.9819 9.33294C2.40617 9.00511 2.83052 8.67738 3.25483 8.34961Z" fill="#34A853"/>
<path d="M11.7994 12.3192C11.0443 11.7392 10.2947 11.1566 9.54011 10.5708C9.72644 10.4034 9.92792 10.2494 10.1063 10.0722C10.2946 9.88522 10.4468 9.66666 10.5779 9.4336C10.7295 9.16415 10.8334 8.87796 10.9065 8.57919C10.9131 8.55223 10.9157 8.5243 10.9217 8.4878C9.66363 8.4878 8.41409 8.4878 7.16016 8.4878C7.16016 7.60608 7.16016 6.73228 7.16016 5.85156C9.35776 5.85156 11.5575 5.85156 13.771 5.85156C13.788 6.00137 13.8025 6.15693 13.824 6.31151C13.8768 6.69129 13.8867 7.07335 13.8731 7.45515C13.8638 7.71592 13.8417 7.97767 13.8029 8.23561C13.751 8.58139 13.6912 8.92726 13.6091 9.26688C13.5246 9.61658 13.3965 9.95363 13.2494 10.2836C13.0794 10.6648 12.882 11.0295 12.6343 11.3647C12.4763 11.5784 12.3061 11.7836 12.1331 11.9855C12.0322 12.1032 11.9148 12.2068 11.7994 12.3192Z" fill="#4285F4"/>
<path d="M0.917487 10.1518C0.804343 9.90855 0.692533 9.66495 0.590443 9.41735C0.436588 9.0442 0.345038 8.65219 0.266721 8.25803C0.228381 8.06507 0.211142 7.86723 0.195034 7.67073C0.176662 7.44662 0.16212 7.22159 0.160334 6.99684C0.157247 6.60839 0.194523 6.22316 0.260634 5.83946C0.325815 5.46115 0.414737 5.08936 0.546679 4.73012C0.65175 4.44405 0.781804 4.16715 0.906541 3.88281C1.16602 4.07406 1.4205 4.26767 1.67328 4.46348C2.17914 4.85532 2.68405 5.2484 3.18956 5.6407C3.2055 5.65307 3.2238 5.66242 3.24686 5.67553C3.19702 5.89345 3.13637 6.10791 3.08765 6.32505C3.06276 6.43601 3.05419 6.55147 3.04723 6.66544C3.03684 6.83574 3.02223 7.00715 3.03099 7.17697C3.05139 7.57238 3.10936 7.96232 3.2539 8.34152C2.83003 8.67602 2.40568 9.00374 1.98142 9.33158C1.62862 9.60419 1.27592 9.87693 0.917487 10.1518Z" fill="#FBBC05"/>
</g>
<defs>
<clipPath id="clip0_15313_124911">
<rect width="14" height="14" fill="white"/>
</clipPath>
</defs>
</svg>
