<svg width="14" height="15" viewBox="0 0 14 15" fill="none" xmlns="http://www.w3.org/2000/svg">
<g clip-path="url(#clip0_15182_148748)">
<path d="M7.6855 2.06836C7.69984 2.07734 7.70728 2.09364 7.71582 2.09423C8.00307 2.11408 8.28557 2.16586 8.5603 2.2478C8.81231 2.32295 9.06145 2.41089 9.30534 2.50935C9.62574 2.63868 9.92302 2.81399 10.2011 3.01897C10.3588 3.13519 10.5085 3.26232 10.6618 3.38446C10.6826 3.40107 10.7037 3.41739 10.7249 3.43357C10.7717 3.46929 10.7779 3.49821 10.7295 3.54586C10.4336 3.83683 10.1414 4.13146 9.84816 4.42505C9.6399 4.63353 9.43193 4.8423 9.22419 5.05058C9.11163 4.96095 9.00389 4.87082 8.89164 4.78669C8.68589 4.63249 8.46231 4.5067 8.21872 4.42619C8.01573 4.3591 7.80764 4.30024 7.59726 4.26466C7.35599 4.22385 7.11053 4.2238 6.86423 4.24334C6.53013 4.26986 6.21108 4.35138 5.90546 4.48124C5.64131 4.59349 5.39053 4.73449 5.17192 4.92361C5.03418 5.04277 4.89801 5.16506 4.77266 5.2969C4.60973 5.46827 4.46548 5.65696 4.35837 5.86862C4.26033 6.06236 4.17612 6.26309 4.07952 6.46416C4.05985 6.45921 4.04563 6.45195 4.03323 6.44232C3.64005 6.1372 3.24735 5.83147 2.8539 5.5267C2.65729 5.37441 2.45936 5.22382 2.26172 5.0677C2.32586 4.94669 2.38801 4.82908 2.45521 4.71444C2.65203 4.37872 2.88774 4.07116 3.15148 3.78617C3.3576 3.56343 3.58465 3.36224 3.826 3.17742C4.07012 2.99048 4.32752 2.82417 4.59986 2.68225C4.90336 2.5241 5.21653 2.38731 5.54793 2.29786C5.74452 2.2448 5.94194 2.19346 6.14122 2.1521C6.27824 2.12366 6.41917 2.11422 6.55809 2.09449C6.56953 2.09286 6.579 2.07739 6.58938 2.06836C6.95263 2.06836 7.31588 2.06836 7.6855 2.06836Z" fill="#BDFFF1"/>
<path d="M4.08318 8.54883C4.20488 8.92549 4.39199 9.26625 4.64051 9.57434C4.86539 9.85311 5.12358 10.0952 5.42492 10.2889C5.77069 10.5111 6.14503 10.6623 6.55 10.7412C6.81318 10.7924 7.07822 10.8067 7.34328 10.7912C7.7196 10.7693 8.08949 10.7014 8.43643 10.5475C8.61595 10.4678 8.78629 10.3675 8.96948 10.2782C9.56123 10.733 10.1443 11.1861 10.7273 11.6392C10.5575 11.778 10.3971 11.9308 10.2157 12.0522C9.99128 12.2022 9.75571 12.3389 9.51365 12.4584C9.13418 12.6458 8.73193 12.774 8.31451 12.8482C8.12545 12.8819 7.93429 12.9037 7.74418 12.9316C7.73444 12.933 7.72571 12.9413 7.71759 12.9522C7.34635 12.9579 6.97403 12.9579 6.59655 12.9522C6.57993 12.9413 6.56884 12.9327 6.55694 12.9314C6.46571 12.9211 6.37329 12.918 6.28319 12.9018C5.94712 12.8416 5.61589 12.7637 5.29354 12.647C4.85137 12.487 4.43722 12.2762 4.05027 12.0089C3.69939 11.7665 3.37272 11.4967 3.09671 11.1712C2.92173 10.9648 2.75059 10.7535 2.59676 10.5313C2.47036 10.3487 2.37199 10.1467 2.26562 9.95158C2.5444 9.73781 2.81873 9.52568 3.09313 9.31364C3.42311 9.05866 3.75316 8.80376 4.08318 8.54883Z" fill="#BDFFF1"/>
<path d="M10.7333 11.6359C10.146 11.1847 9.563 10.7316 8.97608 10.276C9.121 10.1458 9.27771 10.026 9.41648 9.88818C9.56291 9.74276 9.68128 9.57277 9.78325 9.3915C9.90114 9.18193 9.98197 8.95933 10.0388 8.72696C10.044 8.70599 10.046 8.68427 10.0506 8.65587C9.07215 8.65587 8.10028 8.65587 7.125 8.65587C7.125 7.97009 7.125 7.29047 7.125 6.60547C8.83424 6.60547 10.5451 6.60547 12.2668 6.60547C12.28 6.72199 12.2912 6.84298 12.308 6.96321C12.349 7.25859 12.3567 7.55575 12.3461 7.8527C12.3389 8.05553 12.3218 8.25911 12.2916 8.45973C12.2512 8.72866 12.2047 8.99767 12.1409 9.26183C12.0751 9.53382 11.9755 9.79596 11.8611 10.0526C11.7289 10.3491 11.5753 10.6327 11.3827 10.8934C11.2598 11.0597 11.1274 11.2193 10.9928 11.3763C10.9143 11.4678 10.8231 11.5484 10.7333 11.6359Z" fill="#BDFFF1"/>
<path d="M2.26872 9.95008C2.18072 9.7609 2.09376 9.57144 2.01435 9.37886C1.89469 9.08863 1.82348 8.78373 1.76257 8.47716C1.73275 8.32709 1.71934 8.17321 1.70681 8.02038C1.69253 7.84607 1.68121 7.67105 1.67983 7.49624C1.67742 7.19411 1.70642 6.89449 1.75784 6.59606C1.80853 6.30181 1.87769 6.01264 1.98032 5.73324C2.06204 5.51073 2.16319 5.29537 2.26021 5.07422C2.46203 5.22296 2.65995 5.37355 2.85656 5.52585C3.25001 5.83061 3.64271 6.13635 4.03589 6.44147C4.04829 6.45109 4.06252 6.45836 4.08046 6.46855C4.04169 6.63805 3.99452 6.80485 3.95663 6.97373C3.93727 7.06004 3.9306 7.14984 3.92519 7.23849C3.91711 7.37094 3.90575 7.50426 3.91256 7.63634C3.92842 7.94388 3.97351 8.24717 4.08593 8.5421C3.75626 8.80227 3.42621 9.05716 3.09622 9.31215C2.82182 9.52418 2.5475 9.73631 2.26872 9.95008Z" fill="#BDFFF1"/>
</g>
<defs>
<clipPath id="clip0_15182_148748">
<rect width="10.8889" height="10.8889" fill="white" transform="translate(1.55469 2.05469)"/>
</clipPath>
</defs>
</svg>
