<svg width="18" height="18" viewBox="0 0 18 18" fill="none" xmlns="http://www.w3.org/2000/svg">
<path fill-rule="evenodd" clip-rule="evenodd" d="M5.25 3.75H6.75C7.16421 3.75 7.5 4.08579 7.5 4.5V6H4.5V4.5C4.5 4.08579 4.83579 3.75 5.25 3.75Z" stroke="#00FFC8" stroke-linecap="round" stroke-linejoin="round"/>
<path d="M6 2.25V3.75" stroke="#00FFC8" stroke-linecap="round" stroke-linejoin="round"/>
<path d="M9 11.25V6.75C9 6.33579 8.66421 6 8.25 6H3.75C3.33579 6 3 6.33579 3 6.75V15.75" stroke="#00FFC8" stroke-linecap="round" stroke-linejoin="round"/>
<path d="M13.8691 13.5V15.75" stroke="#00FFC8" stroke-linecap="round" stroke-linejoin="round"/>
<rect x="12" y="8.25" width="3.75" height="5.25" rx="1.875" stroke="#00FFC8" stroke-linecap="round" stroke-linejoin="round"/>
<path d="M6 13.5H10.5" stroke="#00FFC8" stroke-linecap="round" stroke-linejoin="round"/>
<path d="M6.81445 15.75V13.5" stroke="#00FFC8" stroke-linecap="round" stroke-linejoin="round"/>
<path d="M9.75 15.75V13.5" stroke="#00FFC8" stroke-linecap="round" stroke-linejoin="round"/>
<circle cx="12.75" cy="3.75" r="1.5" stroke="#00FFC8" stroke-linecap="round" stroke-linejoin="round"/>
<path d="M4.875 10.5H7.125" stroke="#00FFC8" stroke-linecap="round" stroke-linejoin="round"/>
<path d="M4.875 8.25H7.125" stroke="#00FFC8" stroke-linecap="round" stroke-linejoin="round"/>
<path d="M16.5 15.75H1.5" stroke="#00FFC8" stroke-linecap="round" stroke-linejoin="round"/>
</svg>
