<svg width="18" height="18" viewBox="0 0 18 18" fill="none" xmlns="http://www.w3.org/2000/svg">
<path d="M2 13.6674V9.00043C2 7.1438 2.7375 5.36322 4.05025 4.05038C5.36301 2.73754 7.14348 2 9 2C10.8565 2 12.637 2.73754 13.9497 4.05038C15.2625 5.36322 16 7.1438 16 9.00043V13.6674" stroke="#00FFC8" stroke-linecap="round" stroke-linejoin="round"/>
<path fill-rule="evenodd" clip-rule="evenodd" d="M16 14.4438C16 14.8564 15.8361 15.2521 15.5444 15.5438C15.2527 15.8356 14.857 15.9995 14.4444 15.9995H13.6667C13.2541 15.9995 12.8584 15.8356 12.5667 15.5438C12.275 15.2521 12.1111 14.8564 12.1111 14.4438V12.1103C12.1111 11.6978 12.275 11.3021 12.5667 11.0103C12.8584 10.7186 13.2541 10.5547 13.6667 10.5547H16V14.4438ZM2 14.4438C2 14.8564 2.16389 15.2521 2.45561 15.5438C2.74733 15.8356 3.143 15.9995 3.55556 15.9995H4.33333C4.74589 15.9995 5.14155 15.8356 5.43328 15.5438C5.725 15.2521 5.88889 14.8564 5.88889 14.4438V12.1103C5.88889 11.6978 5.725 11.3021 5.43328 11.0103C5.14155 10.7186 4.74589 10.5547 4.33333 10.5547H2V14.4438Z" stroke="#00FFC8" stroke-linecap="round" stroke-linejoin="round"/>
</svg>
