<svg width="18" height="18" viewBox="0 0 18 18" fill="none" xmlns="http://www.w3.org/2000/svg">
<path d="M6.13636 2C3.855 2 2 3.855 2 6.13636V11.8636C2 14.145 3.855 16 6.13636 16H11.8636C14.145 16 16 14.145 16 11.8636V6.13636C16 3.855 14.145 2 11.8636 2H6.13636ZM12.8182 4.54545C13.1682 4.54545 13.4545 4.83182 13.4545 5.18182C13.4545 5.53182 13.1682 5.81818 12.8182 5.81818C12.4682 5.81818 12.1818 5.53182 12.1818 5.18182C12.1818 4.83182 12.4682 4.54545 12.8182 4.54545ZM9 5.5C10.9314 5.5 12.5 7.06864 12.5 9C12.5 10.9314 10.9314 12.5 9 12.5C7.06864 12.5 5.5 10.9314 5.5 9C5.5 7.06864 7.06864 5.5 9 5.5ZM9 6.13636C7.42182 6.13636 6.13636 7.42182 6.13636 9C6.13636 10.5782 7.42182 11.8636 9 11.8636C10.5782 11.8636 11.8636 10.5782 11.8636 9C11.8636 7.42182 10.5782 6.13636 9 6.13636Z" fill="#00FFC8"/>
</svg>
