<svg width="40" height="40" viewBox="0 0 40 40" fill="none" xmlns="http://www.w3.org/2000/svg">
<path opacity="0.2" fill-rule="evenodd" clip-rule="evenodd" d="M36.6667 10H3.33337V20H5.00004V36.6667H35V20H36.6667V10Z" fill="#00FFC8"/>
<path fill-rule="evenodd" clip-rule="evenodd" d="M19.7107 2.83333H19.7334H20.2667H20.2893C21.3903 2.83333 22.2472 2.83333 22.9346 2.88949C23.6325 2.94651 24.1996 3.06392 24.7097 3.3238C25.5564 3.75523 26.2448 4.44365 26.6762 5.29037C26.9361 5.80043 27.0535 6.3675 27.1105 7.06542C27.1631 7.70833 27.1665 8.49954 27.1667 9.5H36.6667C36.9428 9.5 37.1667 9.72386 37.1667 10V20C37.1667 20.2761 36.9428 20.5 36.6667 20.5H35.5V36.6667C35.5 36.9428 35.2762 37.1667 35 37.1667H5.00004C4.7239 37.1667 4.50004 36.9428 4.50004 36.6667V20.5H3.33337C3.05723 20.5 2.83337 20.2761 2.83337 20V10C2.83337 9.72386 3.05723 9.5 3.33337 9.5H12.8334C12.8336 8.49954 12.837 7.70833 12.8895 7.06542C12.9466 6.3675 13.064 5.80043 13.3238 5.29037C13.7553 4.44365 14.4437 3.75523 15.2904 3.3238C15.8005 3.06392 16.3675 2.94651 17.0655 2.88949C17.7529 2.83333 18.6098 2.83333 19.7107 2.83333ZM13.3334 10.5H3.83337V19.5H4.99864C4.99911 19.5 4.99958 19.5 5.00004 19.5C5.00051 19.5 5.00097 19.5 5.00144 19.5H12.8334V17.5C12.8334 17.2239 13.0572 17 13.3334 17C13.6095 17 13.8334 17.2239 13.8334 17.5V19.5H26.1667V17.5C26.1667 17.2239 26.3906 17 26.6667 17C26.9429 17 27.1667 17.2239 27.1667 17.5V19.5H34.9986C34.9991 19.5 34.9996 19.5 35 19.5C35.0005 19.5 35.001 19.5 35.0014 19.5H36.1667V10.5H26.6667H13.3334ZM26.1667 9.5H13.8334C13.8337 8.49111 13.8374 7.74366 13.8862 7.14686C13.9382 6.51077 14.0388 6.08995 14.2149 5.74437C14.5504 5.0858 15.0858 4.55037 15.7444 4.21481C16.09 4.03872 16.5108 3.93814 17.1469 3.88617C17.7888 3.83372 18.605 3.83333 19.7334 3.83333H20.2667C21.3951 3.83333 22.2113 3.83372 22.8532 3.88617C23.4893 3.93814 23.9101 4.03872 24.2557 4.21481C24.9142 4.55037 25.4497 5.0858 25.7852 5.74437C25.9613 6.08995 26.0619 6.51077 26.1139 7.14686C26.1626 7.74366 26.1664 8.49111 26.1667 9.5ZM34.5 20.5H27.1667V22.5C27.1667 22.7761 26.9429 23 26.6667 23C26.3906 23 26.1667 22.7761 26.1667 22.5V20.5H13.8334V22.5C13.8334 22.7761 13.6095 23 13.3334 23C13.0572 23 12.8334 22.7761 12.8334 22.5V20.5H5.50004V36.1667H34.5V20.5Z" fill="#00FFC8"/>
</svg>
