<svg width="36" height="36" viewBox="0 0 36 36" fill="none" xmlns="http://www.w3.org/2000/svg">
<path d="M1.33331 8H34.6666V18H1.33331V8Z" fill="#00FFC8" fill-opacity="0.2"/>
<path d="M1 8H34.3333V18H1V8Z" fill="#00FFC8" fill-opacity="0.2"/>
<path d="M2.66669 34.6667H32.6667V18H2.66669V34.6667Z" fill="#00FFC8" fill-opacity="0.2"/>
<path d="M33 18V34.6667H3V18M11.3333 8.00004V7.73337C11.3333 5.49316 11.3333 4.37306 11.7693 3.51741C12.1528 2.76476 12.7647 2.15284 13.5174 1.76935C14.373 1.33337 15.4931 1.33337 17.7333 1.33337H18.2666C20.5069 1.33337 21.627 1.33337 22.4826 1.76935C23.2353 2.15284 23.8472 2.76476 24.2307 3.51741C24.6666 4.37306 24.6666 5.49316 24.6666 7.73337V8.00004M11.3333 15.5V20.5M24.6666 15.5V20.5M1.33331 8H34.6666V18H1.33331V8ZM1 8H34.3333V18H1V8ZM32.6667 34.6667H2.66669V18H32.6667V34.6667Z" stroke="#00FFC8" stroke-linecap="round" stroke-linejoin="round"/>
</svg>
