<svg width="137" height="158" viewBox="0 0 137 158" fill="none" xmlns="http://www.w3.org/2000/svg">
<path d="M65.6339 0.755859V60.5387L45.573 70.9533L27.2893 60.843V41.8058L21.3086 45.0181V64.292L39.2506 74.2333L21.3086 83.5321V117.143L27.2893 120.558V87.1163L45.5046 77.6823L65.6339 88.807V139.325L71.6145 142.605V85.3242L51.8271 74.4023L71.6145 64.1229V10.9676L130.977 44.7476V115.689L100.356 133.103V139.934L136.958 119.104V41.3324L65.6339 0.755859Z" fill="#FFC000"/>
<path d="M120.312 67.47L79.3022 43.8003V50.2926V113.017V146.155L69.0496 151.227L6.26973 115.722V44.7133L50.3899 19.6573V12.8945L0.289062 41.3319V119.104L68.6395 157.922L85.112 149.773V116.534L120.449 96.2456L120.312 67.47ZM114.332 92.8304L84.9753 109.737V54.1812L114.195 70.919L114.332 92.8304Z" fill="#FFC000"/>
</svg>
