<svg width="18" height="18" viewBox="0 0 18 18" fill="none" xmlns="http://www.w3.org/2000/svg">
<path fill-rule="evenodd" clip-rule="evenodd" d="M14.9931 1.78395L2.99306 8.7072C2.76794 8.83708 2.76794 9.16199 2.99306 9.29187L14.9931 16.2151C15.2181 16.3449 15.4992 16.1825 15.4992 15.9228L15.4992 2.07628C15.4992 1.81652 15.2181 1.65414 14.9931 1.78395ZM14.8236 15.3374L3.83663 8.99943L14.8236 2.66043L14.8236 15.3374Z" fill="#FF0063"/>
<path d="M10.9889 8.70753C10.8506 8.78754 10.7903 8.95066 10.8347 9.09723L10.8657 9.16868L14.8707 16.0912C14.9641 16.2525 15.1705 16.3076 15.3319 16.2143C15.4702 16.1343 15.5304 15.9712 15.486 15.8246L15.455 15.7532L11.45 8.83065C11.3567 8.66931 11.1502 8.61419 10.9889 8.70753Z" fill="#FF0063"/>
<path d="M2.66211 8.83789C2.66211 9.00099 2.7778 9.13706 2.93159 9.16853L2.99961 9.17539L10.9946 9.17539C11.181 9.17539 11.3321 9.02429 11.3321 8.83789C11.3321 8.67479 11.2164 8.53872 11.0626 8.50725L10.9946 8.50039L2.99961 8.50039C2.81321 8.50039 2.66211 8.65149 2.66211 8.83789Z" fill="#FF0063"/>
<path d="M10.8676 8.82744C10.7725 8.98775 10.8253 9.1948 10.9856 9.28992C11.1231 9.37144 11.2948 9.34426 11.401 9.23388L11.4481 9.17188L15.4531 2.42188C15.5482 2.26158 15.4954 2.05452 15.3351 1.95941C15.1977 1.87788 15.0259 1.90506 14.9198 2.01544L14.8726 2.07744L10.8676 8.82744Z" fill="#FF0063"/>
</svg>
