<svg width="42" height="251" viewBox="0 0 42 251" fill="none" xmlns="http://www.w3.org/2000/svg">
<path opacity="0.2" d="M19.7109 64.9556V118.948C19.7168 125.063 17.3009 130.932 12.9915 135.271L7.49125 140.831C3.17747 145.181 0.752426 151.057 0.742094 157.183V250.57" stroke="#00FFC8" stroke-miterlimit="10"/>
<path opacity="0.2" d="M40.8828 1.00244L26.5224 15.3927C24.3644 17.5464 22.6524 20.1045 21.4841 22.9207C20.3158 25.7368 19.7142 28.7556 19.7139 31.8044V51.9328" stroke="#00FFC8" stroke-miterlimit="10"/>
<path opacity="0.2" d="M20.0973 57.4927H19.3242V56.7494H20.0973V57.4927Z" fill="#00FFC8"/>
<path opacity="0.2" d="M20.0973 56.0063H19.3242V55.2631H20.0973V56.0063Z" fill="#00FFC8"/>
<path opacity="0.2" d="M20.0973 54.5195H19.3242V53.7762H20.0973V54.5195Z" fill="#00FFC8"/>
<path opacity="0.2" d="M20.0973 63.439H19.3242V62.6957H20.0973V63.439Z" fill="#00FFC8"/>
<path opacity="0.2" d="M20.0973 65.312H19.3242V64.5687H20.0973V65.312Z" fill="#00FFC8"/>
<path opacity="0.2" d="M20.0973 52.6763H19.3242V51.933H20.0973V52.6763Z" fill="#00FFC8"/>
<path opacity="0.2" d="M20.0973 61.9526H19.3242V61.2093H20.0973V61.9526Z" fill="#00FFC8"/>
<path opacity="0.2" d="M20.0973 60.4658H19.3242V59.7225H20.0973V60.4658Z" fill="#00FFC8"/>
<path opacity="0.2" d="M20.0973 58.9795H19.3242V58.2362H20.0973V58.9795Z" fill="#00FFC8"/>
<path opacity="0.2" d="M-0.000512838 120.316H2.97266V123.289H-0.000512838V120.316Z" fill="#00FFC8"/>
<path opacity="0.2" d="M0.773245 122.932H0.386719L0.386719 122.546H0.773245V122.932Z" fill="#00FFC8"/>
<path opacity="0.2" d="M2.25762 124.775H1.87109V124.389H2.25762V124.775Z" fill="#00FFC8"/>
<path opacity="0.2" d="M1.12871 124.775H0.742188V124.389H1.12871V124.775Z" fill="#00FFC8"/>
<path opacity="0.2" d="M2.25762 130.365H1.87109V129.979H2.25762V130.365Z" fill="#00FFC8"/>
<path opacity="0.2" d="M1.12871 130.365H0.742188V129.979H1.12871V130.365Z" fill="#00FFC8"/>
<path opacity="0.2" d="M2.25762 135.925H1.87109V135.538H2.25762V135.925Z" fill="#00FFC8"/>
<path opacity="0.2" d="M1.12871 135.925H0.742188V135.538H1.12871V135.925Z" fill="#00FFC8"/>
<path opacity="0.2" d="M2.617 121.059H2.23047V120.673H2.617V121.059Z" fill="#00FFC8"/>
<path opacity="0.2" d="M2.25983 122.546H0.386719L0.386719 120.673H2.25983V122.546Z" fill="#00FFC8"/>
<path opacity="0.2" d="M2.6153 122.932H0.742188L0.742188 121.059H2.6153V122.932Z" fill="#00FFC8"/>
<path opacity="0.2" d="M-0.000512838 125.905H2.97266V128.878H-0.000512838V125.905Z" fill="#00FFC8"/>
<path opacity="0.2" d="M0.773245 128.492H0.386719L0.386719 128.106H0.773245V128.492Z" fill="#00FFC8"/>
<path opacity="0.2" d="M2.617 126.649H2.23047V126.262H2.617V126.649Z" fill="#00FFC8"/>
<path opacity="0.2" d="M2.25983 128.135H0.386719L0.386719 126.262H2.25983V128.135Z" fill="#00FFC8"/>
<path opacity="0.2" d="M2.6153 128.492H0.742188L0.742188 126.619H2.6153V128.492Z" fill="#00FFC8"/>
<path opacity="0.2" d="M-0.000512838 131.465H2.97266V134.439H-0.000512838V131.465Z" fill="#00FFC8"/>
<path opacity="0.2" d="M0.773245 134.082H0.386719L0.386719 133.695H0.773245V134.082Z" fill="#00FFC8"/>
<path opacity="0.2" d="M2.617 132.208H2.23047V131.822H2.617V132.208Z" fill="#00FFC8"/>
<path opacity="0.2" d="M2.25983 133.695H0.386719L0.386719 131.822H2.25983V133.695Z" fill="#00FFC8"/>
<path opacity="0.2" d="M2.6153 134.082H0.742188L0.742188 132.208H2.6153V134.082Z" fill="#00FFC8"/>
<path opacity="0.2" d="M-0.000512838 137.055H2.97266V140.028H-0.000512838V137.055Z" fill="#00FFC8"/>
<path opacity="0.2" d="M0.773245 139.642H0.386719L0.386719 139.255H0.773245V139.642Z" fill="#00FFC8"/>
<path opacity="0.2" d="M2.617 137.798H2.23047V137.411H2.617V137.798Z" fill="#00FFC8"/>
<path opacity="0.2" d="M2.25983 139.285H0.386719L0.386719 137.412H2.25983V139.285Z" fill="#00FFC8"/>
<path opacity="0.2" d="M2.6153 139.642H0.742188L0.742188 137.768H2.6153V139.642Z" fill="#00FFC8"/>
</svg>
