<svg width="21" height="28" viewBox="0 0 21 28" fill="none" xmlns="http://www.w3.org/2000/svg">
<path fill-rule="evenodd" clip-rule="evenodd" d="M4.44343 1.22708C4.56759 0.792411 4.96468 0.492591 5.41673 0.492196L5.41672 0.492188H14.8729C14.9822 0.492101 15.0908 0.509709 15.1945 0.544328C15.7253 0.72152 16.0119 1.29542 15.8347 1.82618L13.5774 8.59747H19.601C19.8626 8.59745 20.1141 8.69865 20.3028 8.87988C20.7064 9.26746 20.7194 9.90883 20.3318 10.3124L4.12125 27.1984C3.86988 27.4599 3.49787 27.5671 3.14588 27.4794C2.60292 27.3442 2.27241 26.7944 2.40766 26.2514L4.79399 16.7027H1.3641C1.27027 16.7027 1.17692 16.6895 1.0867 16.6638C0.54867 16.5101 0.237099 15.9493 0.39079 15.4113L4.44343 1.22708ZM13.4666 2.51851H6.17998L6.18063 2.51853L2.70685 14.6764H6.09216C6.17472 14.6765 6.25697 14.6866 6.33707 14.7065C6.87999 14.842 7.21034 15.3919 7.07493 15.9348L5.29649 23.0485L17.2234 10.6238H12.1711C12.0618 10.6239 11.9532 10.6063 11.8495 10.5717C11.3187 10.3945 11.0321 9.82056 11.2093 9.2898L13.4666 2.51851Z" fill="#FFC000"/>
</svg>
