<svg width="18" height="18" viewBox="0 0 18 18" fill="none" xmlns="http://www.w3.org/2000/svg">
<path fill-rule="evenodd" clip-rule="evenodd" d="M14.9691 3.03032C13.478 1.53938 11.0607 1.53938 9.56957 3.0303L8.90418 3.69644L8.85579 3.75749C8.77517 3.8877 8.79141 4.06083 8.90444 4.17374C9.03632 4.30547 9.25001 4.30535 9.38174 4.17347L10.047 3.50747L10.1919 3.37132C11.4263 2.28208 13.3115 2.32747 14.4918 3.50762C15.7191 4.73508 15.7191 6.72508 14.4918 7.95257L12.2186 10.2258L12.0781 10.3565C11.5959 10.7738 10.9778 11.0057 10.3358 11.0057C9.62967 11.0057 8.95243 10.7252 8.45311 10.2258L7.73836 9.51106L7.67733 9.46264C7.54717 9.38195 7.37403 9.39809 7.26106 9.51106C7.12926 9.64286 7.12926 9.85655 7.26106 9.98836L7.97581 10.7031L8.13682 10.8538C8.74345 11.3852 9.52441 11.6807 10.3358 11.6807C11.221 11.6807 12.07 11.329 12.6959 10.7031L14.9691 8.42986L15.118 8.27238C16.4583 6.77315 16.4086 4.46999 14.9691 3.03032ZM9.86259 6.39558C9.25597 5.86421 8.47501 5.56872 7.66358 5.56872C6.77839 5.56872 5.92946 5.92037 5.30355 6.54631L3.03031 8.81956L2.88139 8.97704C1.54115 10.4763 1.59079 12.7794 3.0303 14.2191C4.52141 15.71 6.93876 15.71 8.42984 14.2191L9.09524 13.553L9.14362 13.4919C9.22425 13.3617 9.20801 13.1886 9.09497 13.0757C8.9631 12.9439 8.7494 12.9441 8.61768 13.0759L7.95243 13.7419L7.80751 13.8781C6.57314 14.9673 4.68787 14.9219 3.50759 13.7418C2.28027 12.5143 2.28027 10.5243 3.50762 9.29684L5.78086 7.02361L5.92134 6.89289C6.40356 6.47557 7.02162 6.24372 7.66358 6.24372C8.36975 6.24372 9.04698 6.52425 9.5463 7.0236L10.2611 7.73836L10.3221 7.78677C10.4522 7.86747 10.6254 7.85133 10.7384 7.73836C10.8702 7.60655 10.8702 7.39286 10.7384 7.26106L10.0236 6.54631L9.86259 6.39558Z" fill="#00FFC8"/>
</svg>
