<svg width="185" height="41" viewBox="0 0 185 41" fill="none" xmlns="http://www.w3.org/2000/svg">
<path d="M133.967 23.2376H130.962C130.73 23.2317 130.509 23.1382 130.344 22.9764C130.179 22.8146 130.084 22.5968 130.079 22.368V21.6724C130.084 21.4436 130.179 21.2258 130.344 21.064C130.509 20.9022 130.73 20.8087 130.962 20.8028H133.531C133.766 20.8028 133.99 20.7112 134.156 20.5481C134.322 20.3851 134.415 20.1639 134.415 19.9332C134.415 19.7027 134.322 19.4814 134.156 19.3184C133.99 19.1553 133.766 19.0637 133.531 19.0637H130.939C130.706 19.0578 130.485 18.9643 130.321 18.8025C130.156 18.6407 130.061 18.4229 130.055 18.1941V17.4985C130.061 17.2697 130.156 17.0519 130.321 16.8901C130.485 16.7282 130.706 16.6348 130.939 16.6289H133.885C134.119 16.6289 134.344 16.5373 134.51 16.3742C134.675 16.2111 134.768 15.9899 134.768 15.7594C134.768 15.5287 134.675 15.3075 134.51 15.1445C134.344 14.9814 134.119 14.8898 133.885 14.8898H130.35C130.212 14.887 130.077 14.9319 129.97 15.0167C129.862 15.1014 129.788 15.2206 129.76 15.3535L127.875 24.1072V24.2811C127.908 24.4843 128.017 24.6681 128.181 24.7966C128.344 24.9252 128.55 24.9894 128.759 24.9767H133.943C134.178 24.9767 134.402 24.8851 134.569 24.7221C134.734 24.5589 134.827 24.3378 134.827 24.1072C134.827 23.8765 134.734 23.6554 134.569 23.4923C134.402 23.3292 134.178 23.2376 133.943 23.2376H133.967Z" fill="#BDFFF1"/>
<path d="M68.5684 14.9473H67.39C67.2168 14.9494 67.0471 14.9995 66.9016 15.0918C66.7555 15.184 66.6394 15.3147 66.5652 15.469L63.9728 21.614C63.9728 21.6293 63.9664 21.6441 63.9558 21.655C63.9446 21.6659 63.9298 21.6719 63.9139 21.6719C63.855 21.6719 63.855 21.6719 63.855 21.614L61.2626 15.469C61.1996 15.3122 61.0983 15.1729 60.9681 15.0632C60.7324 14.8893 60.4378 15.1212 60.3789 15.4111L58.4346 24.2806C58.4193 24.381 58.4399 24.4836 58.4935 24.5705C58.5642 24.7106 58.6732 24.8284 58.8087 24.9104C58.9442 24.9924 59.1004 25.0353 59.2595 25.0343H59.613C59.8416 25.0226 60.0566 24.9266 60.2163 24.7654C60.3759 24.6041 60.4673 24.3896 60.4731 24.1647V18.4835C60.4731 18.4681 60.4796 18.4534 60.4902 18.4426C60.5014 18.4317 60.5162 18.4256 60.5321 18.4256C60.548 18.4256 60.5627 18.4317 60.5739 18.4426C60.5845 18.4534 60.591 18.4681 60.591 18.4835L63.0066 24.4546C63.0708 24.6159 63.1851 24.7531 63.333 24.8468C63.4815 24.9404 63.6559 24.9858 63.8314 24.9763H64.0671C64.2403 24.9741 64.41 24.924 64.5555 24.8318C64.7016 24.7396 64.8177 24.6089 64.8919 24.4546L67.3075 18.5415C67.3075 18.5261 67.314 18.5114 67.3246 18.5005C67.3358 18.4896 67.3506 18.4835 67.3665 18.4835C67.3824 18.4835 67.3971 18.4896 67.4083 18.5005C67.4189 18.5114 67.4254 18.5261 67.4254 18.5415V24.1647C67.4313 24.3934 67.5261 24.6113 67.6911 24.7731C67.8555 24.9349 68.0764 25.0284 68.3091 25.0343H68.6626C68.8954 25.0284 69.1163 24.9349 69.2807 24.7731C69.4457 24.6113 69.5405 24.3934 69.5464 24.1647V15.8169C69.5057 15.585 69.3879 15.3733 69.2106 15.2156C69.0326 15.0579 68.807 14.9634 68.5684 14.9473Z" fill="#BDFFF1"/>
<path d="M95.5537 19.6432H92.9614C92.7428 19.6432 92.5331 19.7287 92.3781 19.8809C92.2232 20.0331 92.1366 20.2395 92.1366 20.4548C92.1366 20.6701 92.2232 20.8765 92.3781 21.0287C92.5331 21.1809 92.7428 21.2664 92.9614 21.2664H93.4327C93.9041 21.2664 94.3754 21.6722 94.1397 22.1359C93.7862 22.8896 93.0792 23.2954 91.9598 23.2954C90.3101 23.2954 89.3085 22.078 89.3085 19.9911C89.3085 17.9041 90.369 16.6867 91.9598 16.6867C92.3286 16.6679 92.6963 16.7435 93.0268 16.9061C93.3573 17.0686 93.6389 17.3126 93.8451 17.6142C93.9371 17.7832 94.0726 17.9257 94.2381 18.0274C94.4037 18.129 94.5928 18.1865 94.7878 18.1939H95.3181C95.4371 18.2035 95.5573 18.1843 95.6669 18.1381C95.777 18.0918 95.8737 18.0199 95.9491 17.9287C96.0245 17.8373 96.0763 17.7293 96.0999 17.6139C96.1235 17.4985 96.1176 17.3792 96.084 17.2664C95.7164 16.5064 95.129 15.8699 94.3954 15.4368C93.6613 15.0038 92.8147 14.7932 91.9598 14.8316C89.2496 14.8316 87.1875 16.7447 87.1875 19.9911C87.1875 23.2374 89.1318 25.1505 92.0187 25.1505C94.6111 25.1505 96.4375 23.5272 96.4375 20.9186V20.5128C96.4399 20.3979 96.4187 20.2838 96.3751 20.1772C96.3315 20.0707 96.2666 19.9738 96.1842 19.8927C96.1017 19.8114 96.0033 19.7474 95.8949 19.7046C95.7865 19.6617 95.6704 19.6408 95.5537 19.6432Z" fill="#BDFFF1"/>
<path d="M80.2318 15.527C80.1711 15.3588 80.0598 15.2129 79.9125 15.1092C79.7646 15.0055 79.5884 14.949 79.407 14.9473H77.8751C77.6937 14.949 77.5175 15.0055 77.3696 15.1092C77.2223 15.2129 77.111 15.3588 77.0503 15.527L74.1044 23.8749C74.0602 24.0053 74.0479 24.1442 74.0679 24.2803C74.0879 24.4164 74.1404 24.546 74.2205 24.6587C74.3006 24.7714 74.4067 24.8641 74.5298 24.9293C74.6524 24.9945 74.7896 25.0304 74.9293 25.0343H75.4006C75.5821 25.0326 75.7582 24.976 75.9061 24.8723C76.0534 24.7686 76.1648 24.6227 76.2254 24.4546L76.5789 23.3531C76.6396 23.1849 76.751 23.039 76.8983 22.9353C77.0462 22.8316 77.2223 22.7751 77.4038 22.7734H79.8194C80.0009 22.7751 80.177 22.8316 80.3249 22.9353C80.4722 23.039 80.5836 23.1849 80.6442 23.3531L80.9977 24.4546C81.0584 24.6227 81.1698 24.7686 81.3171 24.8723C81.465 24.976 81.6411 25.0326 81.8226 25.0343H82.2939C82.4335 25.0304 82.5708 24.9945 82.6934 24.9293C82.8165 24.8641 82.9226 24.7714 83.0027 24.6587C83.0828 24.546 83.1353 24.4164 83.1553 24.2803C83.1753 24.1442 83.1629 24.0053 83.1188 23.8749L80.2318 15.527ZM78.7353 21.0343H78.5586C78.4189 21.0304 78.2817 20.9945 78.1585 20.9293C78.036 20.8641 77.9299 20.7714 77.8498 20.6587C77.7697 20.546 77.7172 20.4164 77.6972 20.2803C77.6772 20.1442 77.6895 20.0053 77.7337 19.8749L78.6175 17.2081C78.6175 17.1928 78.624 17.178 78.6346 17.1671C78.6458 17.1563 78.6605 17.1502 78.6764 17.1502C78.6923 17.1502 78.707 17.1563 78.7182 17.1671C78.7288 17.178 78.7353 17.1928 78.7353 17.2081L79.6191 19.8749C79.6509 20.0094 79.6527 20.1492 79.6238 20.2844C79.5955 20.4197 79.5366 20.5471 79.4523 20.6576C79.3681 20.7681 79.2603 20.8592 79.1365 20.9243C79.0122 20.9893 78.8755 21.0269 78.7353 21.0343Z" fill="#BDFFF1"/>
<path d="M102.386 14.9473H101.974C101.741 14.9531 101.52 15.0467 101.356 15.2085C101.191 15.3703 101.096 15.5881 101.09 15.8169V24.1647C101.096 24.3934 101.191 24.6113 101.356 24.7731C101.52 24.9349 101.741 25.0284 101.974 25.0343H102.386C102.619 25.0284 102.84 24.9349 103.004 24.7731C103.169 24.6113 103.264 24.3934 103.27 24.1647V15.8169C103.254 15.5911 103.157 15.3786 102.994 15.2186C102.831 15.0587 102.615 14.9623 102.386 14.9473Z" fill="#BDFFF1"/>
<path d="M112.698 16.6865C113.095 16.6757 113.488 16.7662 113.84 16.949C114.19 17.1318 114.488 17.4009 114.702 17.73C114.778 17.9318 114.914 18.1063 115.093 18.2305C115.272 18.3546 115.485 18.4227 115.703 18.4256H116.116C116.235 18.4351 116.355 18.416 116.464 18.3697C116.575 18.3235 116.671 18.2516 116.747 18.1603C116.822 18.069 116.874 17.961 116.897 17.8456C116.921 17.7302 116.916 17.6109 116.882 17.4981C116.292 15.759 114.702 14.7734 112.639 14.7734C109.929 14.7734 107.867 16.6285 107.867 19.9328C107.867 23.2372 109.87 25.0923 112.639 25.0923C114.819 25.0923 116.292 23.9328 116.823 22.4836C116.857 22.3707 116.862 22.2514 116.839 22.1361C116.815 22.0207 116.763 21.9127 116.688 21.8214C116.612 21.73 116.516 21.6581 116.405 21.6119C116.296 21.5657 116.176 21.5465 116.057 21.556H115.585C115.371 21.5747 115.165 21.6488 114.989 21.771C114.814 21.8932 114.673 22.0591 114.584 22.2517C114.388 22.5837 114.102 22.8564 113.759 23.0403C113.417 23.2243 113.03 23.3124 112.639 23.2951C111.108 23.2951 110.047 22.1357 110.047 19.9908C110.047 17.8459 111.108 16.6865 112.698 16.6865Z" fill="#BDFFF1"/>
<path d="M143.215 14.9473H140.446C140.214 14.9531 139.993 15.0467 139.828 15.2085C139.663 15.3703 139.568 15.5881 139.562 15.8169V24.1647C139.568 24.3934 139.663 24.6113 139.828 24.7731C139.993 24.9349 140.214 25.0284 140.446 25.0343H143.215C146.338 25.0343 148.223 23.1212 148.223 19.9908C148.223 16.8603 146.279 14.9473 143.215 14.9473ZM143.098 23.1792H142.626C142.393 23.1733 142.173 23.0798 142.008 22.918C141.843 22.7561 141.748 22.5384 141.742 22.3096V17.614C141.748 17.3852 141.843 17.1674 142.008 17.0056C142.173 16.8437 142.393 16.7503 142.626 16.7444H143.098C145.042 16.7444 146.043 17.7299 146.043 19.9328C146.043 22.1357 145.042 23.1792 143.098 23.1792Z" fill="#BDFFF1"/>
<path d="M158.83 23.2375H155.825C155.593 23.2316 155.372 23.1381 155.207 22.9763C155.042 22.8145 154.948 22.5967 154.942 22.3679V21.6722C154.948 21.4435 155.042 21.2257 155.207 21.0639C155.372 20.9021 155.593 20.8085 155.825 20.8027H158.418C158.652 20.8027 158.877 20.7111 159.043 20.548C159.208 20.3849 159.302 20.1638 159.302 19.9331C159.302 19.7025 159.208 19.4813 159.043 19.3182C158.877 19.1552 158.652 19.0635 158.418 19.0635H155.825C155.593 19.0577 155.372 18.9642 155.207 18.8024C155.042 18.6405 154.948 18.4228 154.942 18.194V17.4984C154.948 17.2696 155.042 17.0518 155.207 16.8899C155.372 16.7281 155.593 16.6346 155.825 16.6288H158.771C159.006 16.6288 159.23 16.5372 159.396 16.3741C159.562 16.211 159.655 15.9898 159.655 15.7592C159.655 15.5286 159.562 15.3074 159.396 15.1444C159.23 14.9812 159.006 14.8896 158.771 14.8896H153.645C153.413 14.8955 153.192 14.989 153.027 15.1508C152.862 15.3126 152.768 15.5304 152.762 15.7592V24.1071C152.768 24.3358 152.862 24.5536 153.027 24.7154C153.192 24.8772 153.413 24.9707 153.645 24.9766H158.83C159.063 24.9707 159.284 24.8772 159.448 24.7154C159.613 24.5536 159.708 24.3358 159.714 24.1071C159.716 23.9922 159.695 23.8781 159.652 23.7715C159.608 23.6649 159.543 23.5681 159.461 23.4869C159.378 23.4057 159.28 23.3417 159.171 23.2988C159.063 23.256 158.947 23.2351 158.83 23.2375Z" fill="#BDFFF1"/>
<path d="M172.144 14.9473H171.731C171.499 14.9531 171.278 15.0467 171.113 15.2085C170.948 15.3703 170.853 15.5881 170.848 15.8169V21.2081C170.848 21.2661 170.848 21.2661 170.789 21.2661H170.73L166.606 15.3531C166.525 15.2426 166.419 15.1531 166.296 15.0926C166.173 15.0319 166.036 15.0019 165.899 15.0053H165.345C165.112 15.0111 164.891 15.1046 164.727 15.2664C164.562 15.4283 164.467 15.646 164.461 15.8749V24.2227C164.467 24.4514 164.562 24.6692 164.727 24.831C164.891 24.9929 165.112 25.0863 165.345 25.0922H165.757C165.99 25.0863 166.211 24.9929 166.375 24.831C166.54 24.6692 166.635 24.4514 166.641 24.2227V18.7734C166.641 18.758 166.647 18.7433 166.658 18.7324C166.669 18.7215 166.684 18.7154 166.7 18.7154H166.759L170.942 24.6284C171.022 24.7389 171.128 24.8284 171.251 24.889C171.374 24.9497 171.511 24.9796 171.649 24.9763H172.179C172.412 24.9704 172.633 24.8769 172.797 24.7151C172.962 24.5533 173.057 24.3355 173.063 24.1067V15.7589C173.023 15.5424 172.911 15.3452 172.745 15.1983C172.578 15.0513 172.367 14.963 172.144 14.9473Z" fill="#BDFFF1"/>
<path d="M32.9995 13.1097L35.7274 16.3097C36.0396 16.6691 36.3166 16.9647 36.4285 17.1329C37.2443 17.9423 37.7018 19.0363 37.7011 20.1763C37.6245 21.5213 36.7466 22.4372 35.9336 23.4169L34.0247 25.6546L33.029 26.814C32.9933 26.854 32.9702 26.9034 32.9627 26.9562C32.9552 27.0089 32.9636 27.0626 32.9868 27.1107C33.0099 27.1588 33.0469 27.1992 33.0932 27.2268C33.1394 27.2544 33.1929 27.2681 33.247 27.2662H43.1981C44.7181 27.2662 46.633 28.5416 46.521 30.4778C46.5179 31.3578 46.1612 32.201 45.5288 32.8232C44.8964 33.4455 44.0395 33.7965 43.1451 33.7995H27.5615C26.5363 33.7995 23.779 33.9097 23.0072 31.5619C22.843 31.0712 22.8206 30.5455 22.9424 30.043C23.1667 29.3001 23.5216 28.6016 23.9911 27.9792C24.7747 26.8198 25.6231 25.6604 26.4597 24.5357C27.5379 23.0633 28.6455 21.6372 29.7355 20.1357C29.7742 20.0869 29.7952 20.0267 29.7952 19.9647C29.7952 19.9028 29.7742 19.8426 29.7355 19.7937L25.7763 15.156C25.7505 15.1225 25.7171 15.0952 25.6787 15.0764C25.6404 15.0576 25.5982 15.0479 25.5553 15.0479C25.5125 15.0479 25.4703 15.0576 25.432 15.0764C25.3936 15.0952 25.3602 15.1225 25.3344 15.156C24.2739 16.5647 19.6312 22.8025 18.6414 24.0662C17.6516 25.33 15.2124 25.3995 13.8632 24.0662L7.67102 17.9503C7.63148 17.9112 7.58099 17.8846 7.52608 17.8738C7.47111 17.863 7.41414 17.8685 7.36241 17.8896C7.31062 17.9107 7.26637 17.9465 7.23533 17.9924C7.20428 18.0383 7.18778 18.0922 7.1879 18.1473V29.9097C7.20245 30.7444 6.95129 31.5626 6.46946 32.2498C5.9877 32.9369 5.29948 33.4586 4.50127 33.7416C3.99123 33.9162 3.44618 33.9684 2.91145 33.8937C2.37678 33.819 1.86803 33.6196 1.42756 33.3121C0.987099 33.0047 0.627704 32.598 0.379368 32.1262C0.131091 31.6543 0.00100159 31.1309 0 30.5995V9.45169C0.0355271 8.68957 0.314205 7.95786 0.796502 7.36051C1.2788 6.76316 1.94014 6.33057 2.68662 6.12416C3.32694 5.95632 4.00095 5.95801 4.64038 6.12904C5.27981 6.30004 5.86191 6.63439 6.32771 7.0981L15.8487 16.4778C15.8772 16.5063 15.9117 16.5283 15.9498 16.5422C15.9879 16.556 16.0287 16.5616 16.0691 16.5582C16.1096 16.5549 16.1488 16.5429 16.1841 16.523C16.2193 16.503 16.2496 16.4757 16.2729 16.443L23.0366 7.23139C23.3492 6.85745 23.741 6.55528 24.1848 6.34598C24.6285 6.13669 25.1134 6.02539 25.6054 6.01981H43.1981C43.6796 6.02063 44.1553 6.12251 44.5935 6.31875C45.0317 6.51504 45.4223 6.8011 45.7391 7.15781C46.0559 7.51451 46.2916 7.93369 46.4305 8.38728C46.5694 8.84086 46.6083 9.31839 46.5446 9.78792C46.4206 10.6025 46.0006 11.3452 45.3625 11.8782C44.7243 12.4112 43.9113 12.6984 43.0744 12.6865H33.2234C33.1739 12.6877 33.1257 12.7019 33.0836 12.7277C33.0416 12.7535 33.0074 12.7899 32.9845 12.833C32.9616 12.8763 32.951 12.9247 32.9536 12.9734C32.9563 13.022 32.9721 13.0691 32.9995 13.1097Z" fill="#BDFFF1"/>
</svg>
