<svg width="14" height="15" viewBox="0 0 14 15" fill="none" xmlns="http://www.w3.org/2000/svg">
<rect opacity="0.2" x="1.16797" y="2.83398" width="11.6667" height="8.75" fill="#BDFFF1"/>
<path fill-rule="evenodd" clip-rule="evenodd" d="M1.16797 2.33398H0.667969V2.83398V11.584V12.084H1.16797H12.8346H13.3346V11.584V2.83398V2.33398H12.8346H1.16797ZM1.66797 11.084V3.33398H12.3346V11.084H1.66797ZM3.77865 4.75129C3.54889 4.59812 3.23845 4.6602 3.08528 4.88997C2.9321 5.11973 2.99419 5.43017 3.22395 5.58334L3.80729 5.97223L6.72395 7.91668C6.8919 8.02864 7.1107 8.02864 7.27865 7.91668L10.1953 5.97223L10.7787 5.58334C11.0084 5.43017 11.0705 5.11973 10.9173 4.88997C10.7642 4.6602 10.4537 4.59812 10.224 4.75129L9.64062 5.14018L7.0013 6.89973L4.36199 5.14018L3.77865 4.75129Z" fill="#BDFFF1"/>
</svg>
