<svg width="18" height="18" viewBox="0 0 18 18" fill="none" xmlns="http://www.w3.org/2000/svg">
<path fill-rule="evenodd" clip-rule="evenodd" d="M3.30707 9.698C3.62245 9.87931 3.99855 9.97185 4.42694 9.97185C5.26683 9.96808 6.03421 9.48648 6.48115 8.68193C6.49295 8.65927 6.50307 8.6366 6.51319 8.61394C6.51417 8.61165 6.51514 8.60938 6.5161 8.6071C6.53355 8.56615 6.5502 8.52706 6.57896 8.49307L6.58908 8.48174C6.64474 8.4383 6.82351 8.44207 6.86905 8.50251C6.87074 8.5044 6.87242 8.50676 6.87411 8.50912C6.8758 8.51148 6.87748 8.51384 6.87917 8.51573C6.89435 8.53651 6.91796 8.5875 6.92977 8.61583L6.93145 8.61772C6.9382 8.63471 6.94663 8.65171 6.95506 8.66682C7.39862 9.47326 8.16432 9.95675 9.00253 9.96241H9.00927C9.84074 9.95675 10.5997 9.47326 11.0432 8.6706L11.0433 8.67056C11.0517 8.65357 11.0601 8.63659 11.0685 8.61772C11.071 8.61238 11.0734 8.6072 11.0757 8.60218C11.0955 8.55923 11.1102 8.52728 11.1343 8.49684C11.1368 8.49401 11.139 8.49118 11.1411 8.48835C11.1432 8.48551 11.1453 8.48268 11.1478 8.47985C11.1596 8.46663 11.2085 8.43641 11.281 8.43641C11.3687 8.43641 11.4042 8.46852 11.4244 8.49307L11.4278 8.49684C11.454 8.52792 11.4703 8.56688 11.4845 8.60076C11.4859 8.60394 11.4872 8.60708 11.4885 8.61016C11.4969 8.63094 11.507 8.65171 11.5172 8.6706C11.9641 9.47893 12.7332 9.96241 13.5781 9.96241H13.5815C14.0267 9.95863 14.4163 9.85854 14.7385 9.66023C15.5176 9.18241 16.0017 8.26832 16 7.2768C16 6.98406 15.9561 6.69133 15.8701 6.40614C15.8693 6.40331 15.8684 6.4 15.8676 6.39669C15.8668 6.39339 15.8659 6.39009 15.8651 6.38726C15.8583 6.35704 15.8499 6.32682 15.8398 6.2966L14.5732 2.76489C14.4787 2.46838 14.2932 2.24552 14.0369 2.11898C13.8598 2.03211 13.6827 2.01133 13.5494 2.00189C13.5393 2 13.5292 2 13.5191 2H4.5197C4.02723 2 3.66125 2.26818 3.50946 2.73656L2.15854 6.3136C2.14673 6.34571 2.13661 6.37782 2.12986 6.41181C2.04385 6.69699 2 6.9935 2 7.29002C2 8.29476 2.49247 9.21263 3.28515 9.68478C3.29026 9.68908 3.29633 9.69228 3.30191 9.69523C3.3037 9.69617 3.30543 9.69709 3.30707 9.698ZM3.75435 8.67196C3.7514 8.67055 3.74845 8.66913 3.74592 8.66724C3.2973 8.3915 3.01733 7.86458 3.01902 7.28855C3.01902 7.1148 3.04432 6.94104 3.0966 6.77107C3.10166 6.75407 3.10672 6.73519 3.11178 6.7163L4.45427 3.16381C4.45511 3.16098 4.45637 3.15767 4.45764 3.15437C4.4589 3.15106 4.46017 3.14776 4.46101 3.14492C4.47282 3.14303 4.49306 3.14115 4.51836 3.14115H13.5026C13.565 3.14681 13.5987 3.15437 13.6173 3.16003C13.6181 3.16286 13.6194 3.16617 13.6206 3.16948C13.6219 3.17278 13.6232 3.17609 13.624 3.17892L14.8805 6.68419C14.8855 6.70304 14.8906 6.72377 14.8956 6.7445L14.8957 6.74463C14.8965 6.74841 14.8973 6.75172 14.8982 6.75503C14.899 6.75833 14.8999 6.76163 14.9007 6.7654C14.9513 6.93538 14.9783 7.10724 14.9783 7.27911C14.9783 7.85325 14.6983 8.38206 14.2463 8.65969C14.0743 8.76545 13.8483 8.82022 13.5734 8.82211C13.0944 8.82211 12.6576 8.55204 12.3962 8.09877C12.3608 8.01567 12.2933 7.87213 12.1803 7.73238C11.956 7.45097 11.6356 7.2961 11.278 7.2961C10.9171 7.2961 10.5764 7.46608 10.3639 7.74937C10.2577 7.88346 10.1969 8.01189 10.1615 8.09499C9.90349 8.54637 9.47173 8.81833 9.00287 8.824C8.52727 8.82022 8.09214 8.54826 7.83241 8.0931C7.797 8.01567 7.73628 7.88724 7.64183 7.76637C7.42427 7.4793 7.08527 7.31499 6.71255 7.31499C6.34825 7.31499 6.02275 7.46797 5.81699 7.73615C5.70905 7.87024 5.64328 8.00245 5.59774 8.1101C5.33464 8.55959 4.89783 8.82777 4.42222 8.82966C4.15406 8.82966 3.93312 8.77867 3.76278 8.67668C3.76025 8.6748 3.7573 8.67338 3.75435 8.67196Z" fill="#00FFC8"/>
<path d="M3.85846 15.9995C3.40815 15.9995 3.04048 15.5897 3.04048 15.0873L3.03711 9.40825C3.03711 9.09285 3.26479 8.83789 3.54645 8.83789C3.8281 8.83789 4.05578 9.09285 4.05578 9.40825L4.05915 14.8588L13.9423 14.8512L13.9406 9.40825C13.9406 9.09285 14.1683 8.83789 14.4499 8.83789C14.7316 8.83789 14.9593 9.09285 14.9593 9.40825L14.961 15.0779C14.961 15.5821 14.595 15.992 14.1464 15.9939L3.85846 15.9995Z" fill="#00FFC8"/>
</svg>
