<svg width="18" height="18" viewBox="0 0 18 18" fill="none" xmlns="http://www.w3.org/2000/svg">
<path fill-rule="evenodd" clip-rule="evenodd" d="M15.2581 7.1208C14.6056 7.4973 14.2433 8.20455 14.2501 8.95755C14.2501 8.9718 14.2501 8.98605 14.2501 9.0003C14.2501 9.01455 14.2501 9.02955 14.2501 9.0438C14.2433 9.7968 14.6056 10.5041 15.2581 10.8806L15.2641 10.8843C15.7073 11.1401 16.2841 10.8873 16.3778 10.3841C16.5496 9.46005 16.5413 8.5218 16.3696 7.61655C16.2743 7.1148 15.6998 6.8658 15.2581 7.1208Z" stroke="#00FFC8" stroke-width="0.5" stroke-linecap="round" stroke-linejoin="round"/>
<path fill-rule="evenodd" clip-rule="evenodd" d="M6.48521 4.3946C6.41696 4.4321 6.34946 4.4711 6.28271 4.5116C5.65946 4.8911 4.87571 4.88435 4.24346 4.5191C3.80396 4.2656 3.72671 3.6461 4.11071 3.3146C4.81196 2.7086 5.62571 2.22935 6.51821 1.91585C6.99821 1.7471 7.49921 2.1236 7.49921 2.6321V2.6381C7.49921 3.36335 7.12046 4.04585 6.48521 4.3946Z" stroke="#00FFC8" stroke-width="0.5" stroke-linecap="round" stroke-linejoin="round"/>
<path fill-rule="evenodd" clip-rule="evenodd" d="M11.5212 13.6009C11.588 13.5642 11.654 13.5259 11.7192 13.4862C12.3425 13.1067 13.1262 13.1134 13.7585 13.4787C14.198 13.7322 14.2752 14.3517 13.8912 14.6832C13.19 15.2892 12.3762 15.7684 11.4837 16.0827C11.0037 16.2522 10.502 15.8757 10.502 15.3664C10.502 14.6382 10.883 13.9527 11.5212 13.6009Z" stroke="#00FFC8" stroke-width="0.5" stroke-linecap="round" stroke-linejoin="round"/>
<path fill-rule="evenodd" clip-rule="evenodd" d="M2.74256 10.8782C2.30081 11.1332 1.72631 10.8842 1.63106 10.3832C1.45931 9.47795 1.45106 8.53895 1.62281 7.61495C1.71656 7.1117 2.29256 6.85895 2.73581 7.1147L2.74256 7.11845C3.39506 7.49495 3.75731 8.2022 3.75056 8.9552C3.75056 8.96945 3.75056 8.98445 3.75056 8.9987C3.75056 9.01295 3.75056 9.0272 3.75056 9.04145C3.75731 9.79445 3.39506 10.5017 2.74256 10.8782Z" stroke="#00FFC8" stroke-width="0.5" stroke-linecap="round" stroke-linejoin="round"/>
<path fill-rule="evenodd" clip-rule="evenodd" d="M10.502 2.63837C10.502 2.12837 11.0052 1.75562 11.486 1.92362C12.356 2.22737 13.1735 2.68937 13.8882 3.30137C14.2767 3.63437 14.2077 4.25912 13.7645 4.51487L13.7577 4.51862C13.1255 4.88312 12.3425 4.89062 11.7192 4.51112C11.6525 4.47062 11.585 4.43087 11.516 4.39337C10.8807 4.04537 10.502 3.36287 10.502 2.63837Z" stroke="#00FFC8" stroke-width="0.5" stroke-linecap="round" stroke-linejoin="round"/>
<path fill-rule="evenodd" clip-rule="evenodd" d="M7.49983 15.3605C7.49983 15.8705 6.99658 16.2432 6.51583 16.0752C5.64583 15.7715 4.82833 15.3095 4.11358 14.6975C3.72508 14.3645 3.79408 13.7397 4.23733 13.484C4.87333 13.1165 5.66158 13.1105 6.29008 13.4915C6.35458 13.5305 6.41983 13.5687 6.48658 13.6047C7.12108 13.9535 7.49983 14.636 7.49983 15.3605Z" stroke="#00FFC8" stroke-width="0.5" stroke-linecap="round" stroke-linejoin="round"/>
<path fill-rule="evenodd" clip-rule="evenodd" d="M9 6.75L11.2502 9.00017L9 11.2503L6.74983 9.00017L9 6.75Z" stroke="#00FFC8" stroke-width="0.5" stroke-linecap="round" stroke-linejoin="round"/>
</svg>
