<svg width="22" height="20" viewBox="0 0 22 20" fill="none" xmlns="http://www.w3.org/2000/svg">
    <path fill-rule="evenodd" clip-rule="evenodd"
        d="M19.3441 7.49392C18.4741 7.99592 17.9911 8.93892 18.0001 9.94292C18.0001 9.96192 18.0001 9.98092 18.0001 9.99992C18.0001 10.0189 18.0001 10.0389 18.0001 10.0579C17.9911 11.0619 18.4741 12.0049 19.3441 12.5069L19.3521 12.5119C19.9431 12.8529 20.7121 12.5159 20.8371 11.8449C21.0661 10.6129 21.0551 9.36192 20.8261 8.15492C20.6991 7.48592 19.9331 7.15392 19.3441 7.49392Z"
        stroke="#00FFC8" stroke-width="0.5" stroke-linecap="round" stroke-linejoin="round" />
    <path fill-rule="evenodd" clip-rule="evenodd"
        d="M7.64435 3.85996C7.55335 3.90996 7.46335 3.96196 7.37435 4.01596C6.54335 4.52196 5.49835 4.51296 4.65535 4.02596C4.06935 3.68796 3.96635 2.86196 4.47835 2.41996C5.41335 1.61196 6.49835 0.972961 7.68835 0.554961C8.32835 0.329961 8.99635 0.831961 8.99635 1.50996V1.51796C8.99635 2.48496 8.49135 3.39496 7.64435 3.85996Z"
        stroke="#00FFC8" stroke-width="0.5" stroke-linecap="round" stroke-linejoin="round" />
    <path fill-rule="evenodd" clip-rule="evenodd"
        d="M14.359 16.1358C14.448 16.0868 14.536 16.0358 14.623 15.9828C15.454 15.4768 16.499 15.4858 17.342 15.9728C17.928 16.3108 18.031 17.1368 17.519 17.5788C16.584 18.3868 15.499 19.0258 14.309 19.4448C13.669 19.6708 13 19.1688 13 18.4898C13 17.5188 13.508 16.6048 14.359 16.1358Z"
        stroke="#00FFC8" stroke-width="0.5" stroke-linecap="round" stroke-linejoin="round" />
    <path fill-rule="evenodd" clip-rule="evenodd"
        d="M2.65544 12.5057C2.06644 12.8457 1.30044 12.5137 1.17344 11.8457C0.944443 10.6387 0.933443 9.38673 1.16244 8.15473C1.28744 7.48373 2.05544 7.14673 2.64644 7.48773L2.65544 7.49273C3.52544 7.99473 4.00844 8.93773 3.99944 9.94173C3.99944 9.96073 3.99944 9.98073 3.99944 9.99973C3.99944 10.0187 3.99944 10.0377 3.99944 10.0567C4.00844 11.0607 3.52544 12.0037 2.65544 12.5057Z"
        stroke="#00FFC8" stroke-width="0.5" stroke-linecap="round" stroke-linejoin="round" />
    <path fill-rule="evenodd" clip-rule="evenodd"
        d="M13 1.51913C13 0.839128 13.671 0.342128 14.312 0.566128C15.472 0.971128 16.562 1.58713 17.515 2.40313C18.033 2.84713 17.941 3.68013 17.35 4.02113L17.341 4.02613C16.498 4.51213 15.454 4.52213 14.623 4.01613C14.534 3.96213 14.444 3.90913 14.352 3.85913C13.505 3.39513 13 2.48513 13 1.51913Z"
        stroke="#00FFC8" stroke-width="0.5" stroke-linecap="round" stroke-linejoin="round" />
    <path fill-rule="evenodd" clip-rule="evenodd"
        d="M8.99847 18.4811C8.99847 19.1611 8.32747 19.6581 7.68647 19.4341C6.52647 19.0291 5.43647 18.4131 4.48347 17.5971C3.96547 17.1531 4.05747 16.3201 4.64847 15.9791C5.49647 15.4891 6.54747 15.4811 7.38547 15.9891C7.47147 16.0411 7.55847 16.0921 7.64747 16.1401C8.49347 16.6051 8.99847 17.5151 8.99847 18.4811Z"
        stroke="#00FFC8" stroke-width="0.5" stroke-linecap="round" stroke-linejoin="round" />
    <path fill-rule="evenodd" clip-rule="evenodd"
        d="M11 7.00049L14.0002 10.0007L11 13.0009L7.99978 10.0007L11 7.00049Z" stroke="#00FFC8"
        stroke-width="0.5" stroke-linecap="round" stroke-linejoin="round" />
</svg>
