<svg width="18" height="18" viewBox="0 0 18 18" fill="none" xmlns="http://www.w3.org/2000/svg">
<path fill-rule="evenodd" clip-rule="evenodd" d="M11 7.50227V5.498C11 5.32083 10.9154 5.15719 10.7777 5.06847L9.22206 4.06634C9.08461 3.97789 8.91515 3.97789 8.7777 4.06634L7.2223 5.06874C7.08461 5.15719 7 5.32083 7 5.498V7.502C7 7.67917 7.08461 7.84281 7.2223 7.93153L8.77794 8.93366C8.91539 9.02211 9.08485 9.02211 9.2223 8.93366L10.7779 7.93153C10.9154 7.84308 11 7.67944 11 7.50227Z" stroke="#00FFC8" stroke-linecap="round" stroke-linejoin="round"/>
<path fill-rule="evenodd" clip-rule="evenodd" d="M8 12.5023V10.498C8 10.3208 7.91539 10.1572 7.7777 10.0685L6.22206 9.06634C6.08461 8.97789 5.91515 8.97789 5.7777 9.06634L4.2223 10.0687C4.08461 10.1572 4 10.3208 4 10.498V12.502C4 12.6792 4.08461 12.8428 4.2223 12.9315L5.77794 13.9337C5.91539 14.0221 6.08485 14.0221 6.2223 13.9337L7.77794 12.9315C7.91539 12.8431 8 12.6794 8 12.5023Z" stroke="#00FFC8" stroke-linecap="round" stroke-linejoin="round"/>
<path fill-rule="evenodd" clip-rule="evenodd" d="M14 12.5023V10.498C14 10.3208 13.9154 10.1572 13.7777 10.0685L12.2221 9.06634C12.0846 8.97789 11.9152 8.97789 11.7777 9.06634L10.2223 10.0687C10.0846 10.1572 10 10.3208 10 10.498V12.502C10 12.6792 10.0846 12.8428 10.2223 12.9315L11.7779 13.9337C11.9154 14.0221 12.0848 14.0221 12.2223 13.9337L13.7779 12.9315C13.9154 12.8431 14 12.6794 14 12.5023Z" stroke="#00FFC8" stroke-linecap="round" stroke-linejoin="round"/>
</svg>
