<svg width="18" height="18" viewBox="0 0 18 18" fill="none" xmlns="http://www.w3.org/2000/svg">
<path d="M13.7732 4.22719C16.4545 6.90844 16.4087 11.2832 13.636 13.9067C11.0762 16.3284 6.9242 16.3284 4.36445 13.9067C1.5917 11.2832 1.54595 6.90844 4.2272 4.22719C6.86345 1.59094 11.137 1.59094 13.7732 4.22719" stroke="#00FFC8" stroke-linecap="round" stroke-linejoin="round"/>
<path d="M11.5904 11.7363C10.1602 13.0893 7.84041 13.0893 6.41016 11.7363" stroke="#00FFC8" stroke-linecap="round" stroke-linejoin="round"/>
<path d="M6.16627 8.84663C6.3757 8.57379 6.69764 8.41074 7.04152 8.40338C7.38467 8.41279 7.70555 8.57543 7.91602 8.84663" stroke="#00FFC8" stroke-linecap="round" stroke-linejoin="round"/>
<path d="M10.2502 8.84663C10.4595 8.57399 10.7811 8.41097 11.1248 8.40338C11.4681 8.41267 11.7893 8.57532 12 8.84663" stroke="#00FFC8" stroke-linecap="round" stroke-linejoin="round"/>
</svg>
