<svg width="44" height="44" viewBox="0 0 44 44" fill="none" xmlns="http://www.w3.org/2000/svg">
<path opacity="0.1" d="M11.7745 8.90903C10.6835 9.7653 9.70379 10.7486 8.86033 11.8343L8.58232 12.1926L4.71735 9.91258L5.05834 9.45261C5.97933 8.20937 7.04127 7.06348 8.21617 6.04514L8.52246 5.78027L12.3159 8.48341L11.7745 8.90903Z" stroke="#FFC000" stroke-width="0.422219"/>
<path opacity="0.1" d="M7.77032 13.4238C7.23457 14.3073 6.78203 15.2364 6.42546 16.1851L6.26157 16.6252L1.93909 15.4482L2.12746 14.9227C2.59911 13.6076 3.20462 12.3354 3.9252 11.141L4.18901 10.7033L8.0412 12.9777L7.77032 13.4238Z" stroke="#FFC000" stroke-width="0.422219"/>
<path opacity="0.1" d="M5.37216 22.634C5.36119 22.3327 5.36013 22.0307 5.3665 21.7307L5.37925 21.184L0.894596 21.3437L0.890347 21.8366C0.887515 22.1571 0.888576 22.4765 0.900615 22.7973L0.920091 23.3118L5.3916 23.1507L5.37216 22.634Z" stroke="#FFC000" stroke-width="0.422219"/>
<path opacity="0.1" d="M5.8571 18.0178C5.70909 18.6177 5.59437 19.2182 5.5154 19.8021L5.45623 20.2324L0.946106 20.3935L1.00843 19.8036C1.11111 18.823 1.2871 17.8348 1.53355 16.8645L1.66139 16.3557L5.97643 17.5288L5.8571 18.0178Z" stroke="#FFC000" stroke-width="0.422219"/>
<path opacity="0.1" d="M29.4375 36.9809C33.7557 34.8323 36.9351 30.9361 38.1624 26.2907L38.2359 26.0133L43.0527 24.5724L42.9238 25.3826C41.904 31.7648 37.8989 37.4456 32.2083 40.5789L31.8403 40.7818L28.8469 37.2748L29.4375 36.9809Z" stroke="#FFC000" stroke-width="0.422219"/>
<path opacity="0.1" d="M21.4426 5.37405C21.2822 5.38043 21.1232 5.39247 20.9646 5.40521L20.5287 5.43951L17.5359 1.36033L18.3535 1.21657C19.3492 1.04094 20.3343 0.935778 21.2808 0.902847C23.1331 0.835568 24.9914 1.01439 26.8008 1.43364L27.0462 1.49029L29.7005 7.1764L28.4675 6.65836C26.2328 5.72 23.8685 5.28695 21.4426 5.37405Z" stroke="#FFC000" stroke-width="0.422219"/>
<path opacity="0.1" d="M34.919 11.4629C34.197 10.5879 33.3755 9.77458 32.486 9.0586L32.3935 8.98246L29.1713 2.08148L30.4188 2.62183C32.7633 3.63809 34.8867 5.05628 36.7312 6.83734C36.8902 6.99138 37.0464 7.14718 37.2008 7.30546L37.443 7.55404L35.4537 12.1116L34.919 11.4629Z" stroke="#FFC000" stroke-width="0.422219"/>
<path opacity="0.1" d="M39.1921 9.67649C41.6495 13.0754 43.0273 17.0894 43.1771 21.2822C43.1919 21.6597 43.1933 22.0351 43.1865 22.4076L43.1802 22.7847L38.5915 24.1569L38.6534 23.4037C38.7104 22.7228 38.726 22.0812 38.7026 21.442C38.6106 18.8234 37.923 16.3306 36.6606 14.0347L36.5381 13.8119L38.6627 8.94458L39.1921 9.67649Z" stroke="#FFC000" stroke-width="0.422219"/>
<path opacity="0.1" d="M17.9054 5.8903C16.3254 6.29532 14.8284 6.92104 13.4562 7.7475L13.1658 7.92247L9.29205 5.16051L9.88587 4.74161C11.5813 3.5455 13.453 2.60645 15.4476 1.94819L15.8035 1.83063L18.6448 5.70086L17.9054 5.8903Z" stroke="#FFC000" stroke-width="0.422219"/>
<path opacity="0.1" d="M22.6361 38.7067C24.0709 38.6543 25.4926 38.4185 26.8622 38.0045L27.1849 37.9065L30.2772 41.5307L29.5962 41.792C27.4129 42.629 25.125 43.0957 22.7962 43.1775C17.0164 43.385 11.5326 41.2788 7.35783 37.2468C5.88053 35.8194 4.62106 34.193 3.61577 32.4119L3.19794 31.6737L8.30543 31.4885L8.46619 31.7147C9.05857 32.5412 9.72993 33.3195 10.4629 34.027C13.755 37.2075 18.0778 38.8689 22.6361 38.7067Z" stroke="#FFC000" stroke-width="0.422219"/>
</svg>
