<svg width="24" height="21" viewBox="0 0 24 21" fill="none" xmlns="http://www.w3.org/2000/svg">
<path d="M11.9844 20.3076C11.9944 20.3077 12.0045 20.3077 12.0146 20.3076C12.1302 20.3076 12.2472 20.2732 12.349 20.2013C12.6699 19.9745 20.2456 14.5967 23.037 10.0596C23.0407 10.0535 23.0442 10.0473 23.048 10.0412C23.6708 9.01283 24 7.8322 24 6.62504C24 2.97194 21.014 0 17.3437 0C15.2188 0 13.2455 1.00498 12 2.67394C10.7543 1.00479 8.78075 0 6.65626 0C2.98595 0 0 2.97204 0 6.62504C0 7.8322 0.329163 9.01278 0.952024 10.0412C0.955572 10.0473 0.958934 10.0535 0.963041 10.0596C3.75398 14.5963 11.3298 19.9743 11.651 20.2013C11.752 20.2732 11.8684 20.3076 11.9844 20.3076Z" fill="url(#paint0_linear_14630_131225)"/>
<defs>
<linearGradient id="paint0_linear_14630_131225" x1="24" y1="-6.09231" x2="5.267" y2="28.4445" gradientUnits="userSpaceOnUse">
<stop stop-color="#00FFC8"/>
<stop offset="1" stop-color="#FFC000"/>
</linearGradient>
</defs>
</svg>
