<svg width="20" height="20" viewBox="0 0 20 20" fill="none" xmlns="http://www.w3.org/2000/svg">
<path opacity="0.12" fill-rule="evenodd" clip-rule="evenodd" d="M10.0001 1.6665C5.39771 1.6665 1.66675 5.39747 1.66675 9.99984C1.66675 14.6022 5.39771 18.3332 10.0001 18.3332H12.6431C12.875 18.3332 13.1055 18.319 13.3334 18.2912V18.1332C13.3334 16.453 13.3334 15.6129 13.6604 14.9712C13.948 14.4067 14.407 13.9478 14.9714 13.6602C15.6132 13.3332 16.4533 13.3332 18.1334 13.3332H18.2914C18.3193 13.1053 18.3334 12.8748 18.3334 12.6428V9.99984C18.3334 5.39747 14.6025 1.6665 10.0001 1.6665Z" fill="#FFC000"/>
<path fill-rule="evenodd" clip-rule="evenodd" d="M4.86675 1.1665L4.84535 1.1665C4.30345 1.1665 3.86638 1.1665 3.51244 1.19541C3.14801 1.22519 2.82792 1.28809 2.53177 1.43899C2.06137 1.67867 1.67892 2.06112 1.43923 2.53153C1.28834 2.82767 1.22543 3.14777 1.19566 3.51219C1.16674 3.86613 1.16674 4.30321 1.16675 4.8451L1.16675 4.8665V15.1332L1.16675 15.1546C1.16674 15.6965 1.16674 16.1335 1.19566 16.4875C1.22543 16.8519 1.28834 17.172 1.43923 17.4681C1.67892 17.9386 2.06137 18.321 2.53177 18.5607C2.82792 18.7116 3.14801 18.7745 3.51244 18.8043C3.86637 18.8332 4.30344 18.8332 4.84533 18.8332H4.86675H13.6746L13.7316 18.8332C14.1659 18.8333 14.4666 18.8334 14.7553 18.7641C15.0104 18.7029 15.2542 18.6018 15.4779 18.4648C15.731 18.3097 15.9436 18.097 16.2506 17.7898L16.2506 17.7898L16.2909 17.7495L17.7497 16.2907L17.79 16.2504L17.79 16.2504C18.0972 15.9433 18.3099 15.7308 18.465 15.4777C18.6021 15.254 18.7031 15.0101 18.7643 14.755C18.8336 14.4664 18.8336 14.1657 18.8334 13.7313L18.8334 13.6744V4.8665V4.84509C18.8334 4.3032 18.8334 3.86613 18.8045 3.51219C18.7747 3.14777 18.7118 2.82767 18.5609 2.53153C18.3212 2.06112 17.9388 1.67867 17.4684 1.43899C17.1722 1.28809 16.8522 1.22519 16.4877 1.19541C16.1338 1.1665 15.6967 1.1665 15.1548 1.1665L15.1334 1.1665H4.86675ZM2.98576 2.32999C3.11744 2.2629 3.29128 2.21681 3.59387 2.19209C3.90229 2.16689 4.29845 2.1665 4.86675 2.1665H15.1334C15.7017 2.1665 16.0979 2.16689 16.4063 2.19209C16.7089 2.21681 16.8827 2.2629 17.0144 2.32999C17.2966 2.4738 17.5261 2.70328 17.6699 2.98552C17.737 3.1172 17.7831 3.29104 17.8078 3.59362C17.833 3.90205 17.8334 4.2982 17.8334 4.8665V12.8331C17.1421 12.8332 16.5936 12.8341 16.1481 12.8662C15.6799 12.8999 15.2868 12.9698 14.9238 13.1296C14.1225 13.4821 13.4824 14.1222 13.1298 14.9235C12.9701 15.2866 12.9002 15.6796 12.8665 16.1478C12.8344 16.5934 12.8334 17.1418 12.8334 17.8332H4.86675C4.29844 17.8332 3.90229 17.8328 3.59387 17.8076C3.29128 17.7829 3.11744 17.7368 2.98576 17.6697C2.70352 17.5259 2.47405 17.2964 2.33024 17.0142C2.26315 16.8825 2.21706 16.7086 2.19234 16.4061C2.16714 16.0976 2.16675 15.7015 2.16675 15.1332V4.8665C2.16675 4.2982 2.16714 3.90204 2.19234 3.59362C2.21706 3.29104 2.26315 3.1172 2.33024 2.98552C2.47405 2.70328 2.70352 2.4738 2.98576 2.32999ZM13.8334 17.833C14.2262 17.832 14.3803 17.8257 14.5218 17.7917C14.6749 17.755 14.8212 17.6944 14.9554 17.6121C15.095 17.5266 15.2211 17.4051 15.5838 17.0424L17.0426 15.5835C17.4053 15.2208 17.5268 15.0948 17.6124 14.9552C17.6946 14.821 17.7552 14.6746 17.792 14.5216C17.826 14.38 17.8323 14.226 17.8333 13.8331C17.1314 13.8332 16.6231 13.8346 16.2198 13.8636C15.8056 13.8934 15.5409 13.9505 15.3265 14.0449C14.7542 14.2967 14.297 14.7539 14.0451 15.3263C13.9508 15.5407 13.8937 15.8053 13.8639 16.2196C13.8349 16.6229 13.8335 17.1312 13.8334 17.833Z" fill="#FFC000"/>
</svg>
