<svg width="18" height="18" viewBox="0 0 18 18" fill="none" xmlns="http://www.w3.org/2000/svg">
<path fill-rule="evenodd" clip-rule="evenodd" d="M16.0589 8.65696H14.2674C14.2674 4.98034 11.2974 2 7.63355 2C4.01505 2 1.07317 4.90737 1.00117 8.52103C0.926681 12.2563 4.41896 15.5 8.14181 15.5H8.61009C11.8922 15.5 16.2914 12.9218 16.9786 9.78034C17.1056 9.20126 16.6498 8.65696 16.0589 8.65696ZM4.97073 8.82017C4.97073 9.31184 4.57002 9.71396 4.08007 9.71396C3.59011 9.71396 3.18939 9.31166 3.18939 8.82017V7.37425C3.18939 6.88258 3.59011 6.48047 4.08007 6.48047C4.57002 6.48047 4.97073 6.88258 4.97073 7.37425V8.82017ZM8.06353 8.82017C8.06353 9.31184 7.66282 9.71396 7.17287 9.71396C6.68291 9.71396 6.2822 9.31166 6.2822 8.82017V7.37425C6.2822 6.88258 6.68308 6.48047 7.17287 6.48047C7.66282 6.48047 8.06353 6.88258 8.06353 7.37425V8.82017Z" fill="#00FFC8"/>
</svg>
