<svg width="42" height="43" viewBox="0 0 42 43" fill="none" xmlns="http://www.w3.org/2000/svg">
<g clip-path="url(#clip0_3186_29111)">
<path opacity="0.2" d="M21.9351 35.2647L35.2242 21.9756C38.489 18.6944 38.9648 13.3295 35.8804 9.90064C35.1069 9.03654 34.1653 8.33923 33.1132 7.85131C32.0611 7.36339 30.9205 7.09511 29.7612 7.06287C28.6019 7.03062 27.4482 7.23509 26.3706 7.66377C25.293 8.09245 24.3141 8.73634 23.4937 9.55611L21 12.0663L18.8508 9.90064C15.5695 6.6358 10.2047 6.16002 6.77576 9.24439C5.91166 10.0179 5.21435 10.9595 4.72643 12.0116C4.23851 13.0638 3.97024 14.2043 3.93799 15.3636C3.90575 16.5229 4.11021 17.6766 4.53889 18.7542C4.96757 19.8318 5.61146 20.8107 6.43123 21.6311L20.0648 35.2647C20.3137 35.5112 20.6497 35.6494 21 35.6494C21.3502 35.6494 21.6863 35.5112 21.9351 35.2647Z" fill="#B700FF"/>
<path d="M21 35.6494L35.2242 21.9756C38.489 18.6944 38.9648 13.3295 35.8805 9.90064C35.1069 9.03654 34.1653 8.33923 33.1132 7.85131C32.0611 7.36339 30.9205 7.09511 29.7612 7.06287C28.6019 7.03062 27.4482 7.23509 26.3706 7.66377C25.293 8.09245 24.3141 8.73634 23.4937 9.55611L21 12.0663L18.8508 9.90064C15.5695 6.6358 10.2047 6.16002 6.77576 9.24439C5.91166 10.0179 5.21435 10.9595 4.72643 12.0116C4.23851 13.0638 3.97024 14.2043 3.93799 15.3636C3.90575 16.5229 4.11021 17.6766 4.53889 18.7542C4.96757 19.8318 5.61146 20.8107 6.43123 21.6311L21 35.6494Z" stroke="#B700FF" stroke-linecap="round" stroke-linejoin="round"/>
</g>
<defs>
<clipPath id="clip0_3186_29111">
<rect width="42" height="42" fill="white" transform="translate(0 0.5)"/>
</clipPath>
</defs>
</svg>
