<svg width="18" height="18" viewBox="0 0 18 18" fill="none" xmlns="http://www.w3.org/2000/svg">
<path fill-rule="evenodd" clip-rule="evenodd" d="M11.3428 11.3273C10.7542 11.3273 10.2595 10.8609 10.2595 10.286C10.2595 9.71103 10.7542 9.22933 11.3428 9.22933C11.9315 9.22933 12.4089 9.71103 12.4089 10.286C12.4089 10.8609 11.9315 11.3273 11.3428 11.3273ZM11.5928 13.3483C11.0445 13.8833 10.199 14.1434 9.00787 14.1434C9.00541 14.1434 9.00246 14.1429 8.99951 14.1429C8.99705 14.1429 8.99409 14.1434 8.99114 14.1434C7.80005 14.1434 6.95496 13.8833 6.40716 13.3483C6.23883 13.1838 6.23883 12.918 6.40716 12.7541C6.57499 12.5901 6.84717 12.5901 7.0155 12.7541C7.3935 13.1233 8.03974 13.3031 8.99114 13.3031C8.99409 13.3031 8.99705 13.3035 8.99951 13.3035C9.00246 13.3035 9.00541 13.3031 9.00787 13.3031C9.95927 13.3031 10.606 13.1233 10.9845 12.7541C11.1528 12.5897 11.425 12.5901 11.5928 12.7541C11.7607 12.9185 11.7607 13.1843 11.5928 13.3483ZM5.59111 10.286C5.59111 9.71151 6.08477 9.22933 6.67294 9.22933C7.26159 9.22933 7.73902 9.71151 7.73902 10.286C7.73902 10.8609 7.26159 11.3273 6.67294 11.3273C6.08477 11.3273 5.59111 10.8609 5.59111 10.286ZM14.2487 3.65282C14.6474 3.65282 14.9717 3.96963 14.9717 4.35854C14.9717 4.74793 14.6474 5.06474 14.2487 5.06474C13.85 5.06474 13.5257 4.74793 13.5257 4.35854C13.5257 3.96963 13.85 3.65282 14.2487 3.65282ZM16.875 9.14232C16.875 8.12268 16.026 7.29342 14.982 7.29342C14.5302 7.29342 14.1153 7.44917 13.7895 7.70829C12.6353 6.99969 11.1705 6.5728 9.60047 6.48242L10.4195 3.95328L12.6702 4.47103C12.7293 5.27145 13.4144 5.90506 14.2487 5.90506C15.1213 5.90506 15.8316 5.21136 15.8316 4.35854C15.8316 3.5062 15.1213 2.8125 14.2487 2.8125C13.6384 2.8125 13.1078 3.1519 12.8435 3.64753L10.228 3.04614C10.009 2.99566 9.7875 3.11873 9.71958 3.32833L8.70272 6.46752C7.01107 6.5079 5.42081 6.93623 4.18198 7.68618C3.86058 7.44052 3.45649 7.29342 3.01795 7.29342C1.97402 7.29342 1.125 8.12268 1.125 9.14232C1.125 9.77256 1.44984 10.3297 1.94449 10.6634C1.92382 10.81 1.91299 10.9576 1.91299 11.1071C1.91299 12.3815 2.67145 13.567 4.04859 14.4448C5.36864 15.2866 7.11591 15.75 8.96801 15.75C10.8201 15.75 12.5674 15.2866 13.8874 14.4448C15.2646 13.567 16.023 12.3815 16.023 11.1071C16.023 10.971 16.0137 10.8359 15.9964 10.7018C16.5241 10.3735 16.875 9.79708 16.875 9.14232Z" fill="#D4FFF6"/>
</svg>
