<svg width="20" height="20" viewBox="0 0 20 20" fill="none" xmlns="http://www.w3.org/2000/svg">
<circle opacity="0.12" cx="10.0001" cy="10.0003" r="8.33333" fill="#BDFFF1"/>
<path fill-rule="evenodd" clip-rule="evenodd" d="M1.16675 10.0003C1.16675 5.12288 5.09324 1.16699 10.0001 1.16699C12.9247 1.16699 15.1168 2.37547 16.5683 3.57297C17.0802 3.9953 17.5018 4.41755 17.8334 4.78772V3.33366C17.8334 3.05752 18.0573 2.83366 18.3334 2.83366C18.6096 2.83366 18.8334 3.05752 18.8334 3.33366V6.25033C18.8334 6.52647 18.6096 6.75033 18.3334 6.75033H15.4167C15.1406 6.75033 14.9167 6.52647 14.9167 6.25033C14.9167 5.97418 15.1406 5.75033 15.4167 5.75033H17.3433C17.0144 5.3539 16.5437 4.84906 15.9319 4.34435C14.6056 3.25018 12.631 2.16699 10.0001 2.16699C5.64766 2.16699 2.16675 5.67303 2.16675 10.0003C2.16675 14.3266 5.67385 17.8337 10.0001 17.8337C14.3263 17.8337 17.8334 14.3266 17.8334 10.0003C17.8334 9.72418 18.0573 9.50033 18.3334 9.50033C18.6096 9.50033 18.8334 9.72418 18.8334 10.0003C18.8334 14.8788 14.8786 18.8337 10.0001 18.8337C5.12157 18.8337 1.16675 14.8788 1.16675 10.0003Z" fill="#BDFFF1"/>
</svg>
