<svg width="16" height="15" viewBox="0 0 16 15" fill="none" xmlns="http://www.w3.org/2000/svg">
<path d="M10.7304 0.245762C10.4742 0.142815 10.183 0.267078 10.0801 0.523313C9.9771 0.779548 10.1014 1.07072 10.3576 1.17367L10.7304 0.245762ZM13.8755 3.60097L13.4424 3.85086L13.4425 3.85102L13.8755 3.60097ZM14.2264 7.77751C14.191 8.05139 14.3844 8.30204 14.6583 8.33736C14.9322 8.37268 15.1828 8.17929 15.2181 7.90542L14.2264 7.77751ZM12.4786 12.7326C12.6959 12.5621 12.7338 12.2478 12.5634 12.0306C12.3929 11.8133 12.0786 11.7754 11.8613 11.9459L12.4786 12.7326ZM4.20758 11.995C3.98807 11.8275 3.6743 11.8696 3.50677 12.0891C3.33923 12.3087 3.38137 12.6224 3.60089 12.79L4.20758 11.995ZM5.64175 1.17364C5.89797 1.07064 6.02218 0.77944 5.91918 0.523225C5.81618 0.267009 5.52498 0.142801 5.26877 0.245798L5.64175 1.17364ZM2.12376 3.60097L1.69079 3.3509L1.69078 3.35091L2.12376 3.60097ZM0.781117 7.90542C0.816437 8.17929 1.06709 8.37268 1.34096 8.33736C1.61484 8.30204 1.80822 8.05139 1.7729 7.77751L0.781117 7.90542ZM10.3576 1.17367C11.6131 1.67808 12.7138 2.58806 13.4424 3.85086L14.3086 3.35108C13.4637 1.88687 12.1854 0.830349 10.7304 0.245762L10.3576 1.17367ZM13.4425 3.85102C14.1562 5.08683 14.396 6.46228 14.2264 7.77751L15.2181 7.90542C15.4145 6.38265 15.1368 4.7851 14.3085 3.35091L13.4425 3.85102ZM11.8613 11.9459C10.797 12.7809 9.4581 13.2792 7.99999 13.2792V14.2792C9.69037 14.2792 11.245 13.7005 12.4786 12.7326L11.8613 11.9459ZM7.99999 13.2792C6.57314 13.2792 5.26132 12.7992 4.20758 11.995L3.60089 12.79C4.82115 13.7212 6.34433 14.2792 7.99999 14.2792V13.2792ZM5.26877 0.245798C3.81452 0.830395 2.53635 1.88687 1.69079 3.3509L2.55673 3.85103C3.28617 2.58806 4.387 1.67804 5.64175 1.17364L5.26877 0.245798ZM1.69078 3.35091C0.862494 4.7851 0.584735 6.38265 0.781117 7.90542L1.7729 7.77751C1.60329 6.46228 1.84303 5.08683 2.55674 3.85102L1.69078 3.35091ZM10.2966 4.73108C11.5658 6.00028 11.5658 8.05807 10.2966 9.32727L11.0037 10.0344C12.6634 8.37465 12.6634 5.6837 11.0037 4.02397L10.2966 4.73108ZM10.2966 9.32727C9.02737 10.5965 6.96958 10.5965 5.70038 9.32727L4.99327 10.0344C6.653 11.6941 9.34395 11.6941 11.0037 10.0344L10.2966 9.32727ZM5.70038 9.32727C4.43117 8.05807 4.43117 6.00028 5.70038 4.73108L4.99327 4.02397C3.33354 5.6837 3.33354 8.37465 4.99327 10.0344L5.70038 9.32727ZM5.70038 4.73108C6.96958 3.46187 9.02737 3.46187 10.2966 4.73108L11.0037 4.02397C9.34395 2.36424 6.653 2.36424 4.99327 4.02397L5.70038 4.73108Z" fill="#FFC000"/>
</svg>
