<svg width="19" height="18" viewBox="0 0 19 18" fill="none" xmlns="http://www.w3.org/2000/svg">
<path fill-rule="evenodd" clip-rule="evenodd" d="M3.66881 1.78444L15.6688 8.70769C15.8939 8.83757 15.8939 9.16248 15.6688 9.29236L3.66881 16.2156C3.44381 16.3454 3.16265 16.183 3.16265 15.9233L3.16265 2.07677C3.16265 1.81701 3.44381 1.65463 3.66881 1.78444ZM3.83823 15.3379L14.8252 8.99991L3.83823 2.66091L3.83823 15.3379Z" fill="#FFD600"/>
<path d="M7.67399 8.70802C7.81228 8.78803 7.87253 8.95115 7.82814 9.09772L7.79711 9.16917L3.79211 16.0917C3.69876 16.253 3.4923 16.3081 3.33096 16.2148C3.19267 16.1348 3.13242 15.9717 3.1768 15.8251L3.20784 15.7536L7.21284 8.83114C7.30618 8.6698 7.51265 8.61468 7.67399 8.70802Z" fill="#FFD600"/>
<path d="M16 8.8374C16 9.0005 15.8843 9.13657 15.7305 9.16805L15.6625 9.1749L7.6675 9.1749C7.48111 9.1749 7.33 9.0238 7.33 8.8374C7.33 8.67431 7.44569 8.53823 7.59948 8.50676L7.6675 8.4999L15.6625 8.4999C15.8489 8.4999 16 8.65101 16 8.8374Z" fill="#FFD600"/>
<path d="M7.79523 8.82793C7.89034 8.98824 7.8375 9.19529 7.67719 9.2904C7.53979 9.37193 7.36804 9.34475 7.26188 9.23437L7.21472 9.17237L3.20972 2.42237C3.11461 2.26206 3.16746 2.05501 3.32776 1.9599C3.46516 1.87837 3.63691 1.90555 3.74308 2.01593L3.79023 2.07793L7.79523 8.82793Z" fill="#FFD600"/>
</svg>
