<svg width="29" height="40" viewBox="0 0 29 40" fill="none" xmlns="http://www.w3.org/2000/svg">
<path d="M6.45905 38.2799C7.10563 38.281 7.72992 38.0436 8.21239 37.6132L26.0391 21.9799C26.3228 21.7296 26.5501 21.4219 26.7057 21.077C26.8614 20.7322 26.9419 20.3582 26.9419 19.9799C26.9419 19.6015 26.8614 19.2275 26.7057 18.8827C26.5501 18.5379 26.3228 18.2301 26.0391 17.9799L8.27239 2.38653C7.76227 1.94027 7.10136 1.70498 6.424 1.72851C5.74663 1.75204 5.10364 2.03261 4.62572 2.5132C4.37717 2.75891 4.18016 3.05176 4.04622 3.37458C3.91228 3.6974 3.84412 4.0437 3.84572 4.3932C3.84544 4.74349 3.91419 5.09041 4.04802 5.41413C4.18186 5.73785 4.37816 6.03203 4.62572 6.27987C4.70091 6.35416 4.78109 6.42321 4.86572 6.48653L4.91239 6.5332L19.0924 18.9665C19.2343 19.0917 19.3479 19.2455 19.4257 19.4179C19.5035 19.5904 19.5438 19.7774 19.5438 19.9665C19.5438 20.1557 19.5035 20.3427 19.4257 20.5151C19.3479 20.6875 19.2343 20.8414 19.0924 20.9665L4.85239 33.4732L4.79905 33.5132C4.71905 33.5799 4.63905 33.6465 4.56572 33.7199C4.18964 34.0929 3.93316 34.5694 3.82897 35.0887C3.72479 35.608 3.77762 36.1466 3.98073 36.6358C4.18384 37.125 4.52803 37.5426 4.96942 37.8354C5.4108 38.1282 5.92939 38.2829 6.45905 38.2799ZM6.45905 39.6132C5.6665 39.6151 4.89123 39.3816 4.23163 38.9422C3.57202 38.5028 3.05781 37.8774 2.75425 37.1453C2.45069 36.4132 2.37146 35.6074 2.52662 34.8301C2.68178 34.0529 3.06432 33.3393 3.62572 32.7799C3.73905 32.6665 3.85239 32.5665 3.97239 32.4665L18.2257 19.9799L4.03239 7.5332C3.91047 7.43602 3.79469 7.33137 3.68572 7.21986C2.93869 6.47014 2.51923 5.4549 2.51923 4.39653C2.51923 3.33816 2.93869 2.32293 3.68572 1.5732C4.05814 1.20206 4.50007 0.907997 4.98624 0.707809C5.47241 0.507622 5.99328 0.405243 6.51905 0.406532C7.48885 0.404022 8.42585 0.757473 9.15239 1.39986L26.8924 16.9599C27.318 17.3352 27.6589 17.7969 27.8924 18.3141C28.1259 18.8314 28.2466 19.3924 28.2466 19.9599C28.2466 20.5274 28.1259 21.0884 27.8924 21.6056C27.6589 22.1229 27.318 22.5845 26.8924 22.9599L9.09239 38.6465C8.36008 39.2761 7.42474 39.6194 6.45905 39.6132Z" fill="#00FFC8"/>
<path d="M0.833742 9.31383C0.739086 9.31395 0.64554 9.33423 0.559328 9.37331C0.473117 9.41239 0.396216 9.46939 0.333742 9.5405C0.217207 9.67318 0.158075 9.84667 0.169324 10.0229C0.180573 10.1991 0.261284 10.3637 0.393743 10.4805L11.2071 19.9805L0.393743 29.5205C0.269854 29.6395 0.19668 29.8017 0.189478 29.9733C0.182275 30.145 0.241599 30.3128 0.355082 30.4417C0.468564 30.5707 0.627446 30.6509 0.798598 30.6655C0.96975 30.6802 1.13996 30.6283 1.27374 30.5205L12.6537 20.4672C12.7247 20.4046 12.7815 20.3277 12.8204 20.2415C12.8593 20.1552 12.8795 20.0617 12.8795 19.9672C12.8795 19.8726 12.8593 19.7791 12.8204 19.6929C12.7815 19.6067 12.7247 19.5297 12.6537 19.4672L1.27374 9.50716C1.15621 9.39026 0.999345 9.32133 0.833742 9.31383Z" fill="#00FFC8"/>
</svg>
