<svg width="42" height="250" viewBox="0 0 42 250" fill="none" xmlns="http://www.w3.org/2000/svg">
<path opacity="0.2" d="M22.2852 185.617V131.625C22.2793 125.509 24.6952 119.64 29.0046 115.302L34.5048 109.742C38.8186 105.391 41.2437 99.516 41.254 93.3894V0.00227797" stroke="#00FFC8" stroke-miterlimit="10"/>
<path opacity="0.2" d="M1.11719 249.57L15.4776 235.18C17.6356 233.026 19.3476 230.468 20.5159 227.652C21.6842 224.836 22.2858 221.817 22.2861 218.768V198.64" stroke="#00FFC8" stroke-miterlimit="10"/>
<path opacity="0.2" d="M21.8988 193.08H22.6719V193.823H21.8988V193.08Z" fill="#00FFC8"/>
<path opacity="0.2" d="M21.8988 194.566H22.6719V195.31H21.8988V194.566Z" fill="#00FFC8"/>
<path opacity="0.2" d="M21.8988 196.053H22.6719V196.797H21.8988V196.053Z" fill="#00FFC8"/>
<path opacity="0.2" d="M21.8988 187.134H22.6719V187.877H21.8988V187.134Z" fill="#00FFC8"/>
<path opacity="0.2" d="M21.8988 185.261H22.6719V186.004H21.8988V185.261Z" fill="#00FFC8"/>
<path opacity="0.2" d="M21.8988 197.896H22.6719V198.64H21.8988V197.896Z" fill="#00FFC8"/>
<path opacity="0.2" d="M21.8988 188.62H22.6719V189.363H21.8988V188.62Z" fill="#00FFC8"/>
<path opacity="0.2" d="M21.8988 190.107H22.6719V190.85H21.8988V190.107Z" fill="#00FFC8"/>
<path opacity="0.2" d="M21.8988 191.593H22.6719V192.337H21.8988V191.593Z" fill="#00FFC8"/>
<path opacity="0.2" d="M41.9966 130.257H39.0234V127.284H41.9966V130.257Z" fill="#00FFC8"/>
<path opacity="0.2" d="M41.2268 127.641H41.6133V128.027H41.2268V127.641Z" fill="#00FFC8"/>
<path opacity="0.2" d="M39.7385 125.797H40.125V126.184H39.7385V125.797Z" fill="#00FFC8"/>
<path opacity="0.2" d="M40.8674 125.797H41.2539V126.184H40.8674V125.797Z" fill="#00FFC8"/>
<path opacity="0.2" d="M39.7385 120.208H40.125V120.594H39.7385V120.208Z" fill="#00FFC8"/>
<path opacity="0.2" d="M40.8674 120.208H41.2539V120.594H40.8674V120.208Z" fill="#00FFC8"/>
<path opacity="0.2" d="M39.7385 114.648H40.125V115.034H39.7385V114.648Z" fill="#00FFC8"/>
<path opacity="0.2" d="M40.8674 114.648H41.2539V115.034H40.8674V114.648Z" fill="#00FFC8"/>
<path opacity="0.2" d="M39.383 129.514H39.7695V129.9H39.383V129.514Z" fill="#00FFC8"/>
<path opacity="0.2" d="M39.7402 128.027H41.6133V129.9H39.7402V128.027Z" fill="#00FFC8"/>
<path opacity="0.2" d="M39.3808 127.641H41.2539V129.514H39.3808V127.641Z" fill="#00FFC8"/>
<path opacity="0.2" d="M41.9966 124.667H39.0234V121.694H41.9966V124.667Z" fill="#00FFC8"/>
<path opacity="0.2" d="M41.2268 122.081H41.6133V122.467H41.2268V122.081Z" fill="#00FFC8"/>
<path opacity="0.2" d="M39.383 123.924H39.7695V124.31H39.383V123.924Z" fill="#00FFC8"/>
<path opacity="0.2" d="M39.7402 122.438H41.6133V124.311H39.7402V122.438Z" fill="#00FFC8"/>
<path opacity="0.2" d="M39.3808 122.081H41.2539V123.954H39.3808V122.081Z" fill="#00FFC8"/>
<path opacity="0.2" d="M41.9966 119.107H39.0234V116.134H41.9966V119.107Z" fill="#00FFC8"/>
<path opacity="0.2" d="M41.2268 116.491H41.6133V116.878H41.2268V116.491Z" fill="#00FFC8"/>
<path opacity="0.2" d="M39.383 118.364H39.7695V118.751H39.383V118.364Z" fill="#00FFC8"/>
<path opacity="0.2" d="M39.7402 116.877H41.6133V118.751H39.7402V116.877Z" fill="#00FFC8"/>
<path opacity="0.2" d="M39.3808 116.491H41.2539V118.364H39.3808V116.491Z" fill="#00FFC8"/>
<path opacity="0.2" d="M41.9966 113.518H39.0234V110.545H41.9966V113.518Z" fill="#00FFC8"/>
<path opacity="0.2" d="M41.2268 110.931H41.6133V111.318H41.2268V110.931Z" fill="#00FFC8"/>
<path opacity="0.2" d="M39.383 112.775H39.7695V113.161H39.383V112.775Z" fill="#00FFC8"/>
<path opacity="0.2" d="M39.7402 111.288H41.6133V113.161H39.7402V111.288Z" fill="#00FFC8"/>
<path opacity="0.2" d="M39.3808 110.931H41.2539V112.804H39.3808V110.931Z" fill="#00FFC8"/>
</svg>
