<svg width="18" height="18" viewBox="0 0 18 18" fill="none" xmlns="http://www.w3.org/2000/svg">
<path d="M6.38473 16C6.31015 16.0005 6.23706 15.9792 6.17446 15.9386C6.11186 15.8981 6.06248 15.8402 6.03242 15.7719C6.00236 15.7037 5.99293 15.6281 6.00528 15.5546C6.01764 15.481 6.05124 15.4127 6.10195 15.358L11.8759 8.99946L6.95409 3.58093C6.91997 3.54367 6.89358 3.50001 6.87644 3.45248C6.8593 3.40496 6.85175 3.3545 6.85424 3.30404C6.85673 3.25358 6.8692 3.20411 6.89093 3.1585C6.91266 3.11288 6.94322 3.07204 6.98084 3.03831C7.05592 2.97058 7.15478 2.93536 7.25577 2.94037C7.35676 2.94539 7.45164 2.99022 7.51964 3.06506L12.6745 8.74344C12.7379 8.81365 12.773 8.90488 12.773 8.99946C12.773 9.09405 12.7379 9.18527 12.6745 9.25548L6.6675 15.8777C6.63143 15.9166 6.58767 15.9476 6.53898 15.9686C6.4903 15.9897 6.43777 16.0003 6.38473 16ZM6.38473 2.76318C6.33444 2.76347 6.28458 2.75383 6.23803 2.73482C6.19147 2.7158 6.14912 2.68778 6.11342 2.65237C6.07768 2.61749 6.04911 2.57595 6.02935 2.53009C6.01108 2.48388 6.00199 2.43456 6.0026 2.38488C6.00149 2.33392 6.01058 2.28324 6.02935 2.23585C6.05061 2.19083 6.079 2.14954 6.11342 2.11357C6.14804 2.07577 6.19131 2.04692 6.23952 2.0295C6.30833 2.00077 6.38405 1.9928 6.45733 2.00658L6.52993 2.0295L6.5949 2.06389C6.61647 2.07737 6.63581 2.09413 6.65221 2.11357C6.68909 2.14748 6.71783 2.18928 6.73628 2.23585C6.75636 2.28298 6.76675 2.33366 6.76685 2.38488C6.76625 2.43481 6.75586 2.48415 6.73628 2.53009C6.69522 2.62191 6.62176 2.69537 6.52993 2.73643C6.48373 2.75471 6.43441 2.76379 6.38473 2.76318Z" fill="#D6D6E7"/>
</svg>
