<svg width="18" height="18" viewBox="0 0 18 18" fill="none" xmlns="http://www.w3.org/2000/svg">
<path d="M4.29919 14.11C4.24148 14.11 4.1833 14.0895 4.13816 14.0482C4.04554 13.9633 4.04228 13.8229 4.13071 13.734L7.0246 10.8458C7.11396 10.7574 7.2615 10.7538 7.35365 10.8387C7.44626 10.9236 7.44952 11.064 7.36109 11.1529L4.4672 14.0411C4.42159 14.0869 4.36062 14.11 4.29919 14.11ZM13.1703 6.5551C12.4005 6.5551 11.7741 5.95693 11.7741 5.22189C11.7741 4.48684 12.4005 3.88867 13.1703 3.88867C13.9401 3.88867 14.5665 4.48684 14.5665 5.22189C14.5665 5.95693 13.9401 6.5551 13.1703 6.5551ZM13.1703 4.33308C12.6569 4.33308 12.2395 4.73171 12.2395 5.22189C12.2395 5.71207 12.6569 6.1107 13.1703 6.1107C13.6836 6.1107 14.1011 5.71207 14.1011 5.22189C14.1011 4.73171 13.6836 4.33308 13.1703 4.33308ZM12.0068 14.9988H3.39677C3.26831 14.9988 3.16406 14.8993 3.16406 14.7766C3.16406 14.6539 3.26831 14.5544 3.39677 14.5544H12.0068C12.1352 14.5544 12.2395 14.6539 12.2395 14.7766C12.2395 14.8993 12.1352 14.9988 12.0068 14.9988Z" fill="#FFD600"/>
<path d="M12.0047 14.9968H3.59624C3.2295 14.9968 2.90604 14.7995 2.75199 14.4822C2.59795 14.1649 2.64867 13.8013 2.88557 13.5343L6.24254 9.74259C6.32585 9.64882 6.47245 9.63771 6.57065 9.71637C6.66839 9.79547 6.68095 9.93591 6.59811 10.0297L3.24114 13.8213C3.12106 13.9569 3.09593 14.1342 3.17412 14.2951C3.25184 14.4564 3.41008 14.5524 3.59624 14.5524H12.0047C12.1332 14.5524 12.2374 14.6519 12.2374 14.7746C12.2374 14.8972 12.1332 14.9968 12.0047 14.9968Z" fill="#FFD600"/>
<path d="M8.95911 13.3796C8.88651 13.3796 8.81437 13.3471 8.76922 13.2858C8.69523 13.1854 8.71989 13.0467 8.82461 12.9761L10.9459 11.5424C11.052 11.4611 11.1172 11.3233 11.1102 11.1811C11.1032 11.0389 11.0237 10.9074 10.8989 10.83L9.4073 9.78035C9.35377 9.74258 9.3198 9.68481 9.31375 9.6217C9.3077 9.55859 9.3305 9.49593 9.37611 9.44972L11.2247 7.5721C11.3127 7.48234 11.4602 7.47834 11.5537 7.56233C11.6473 7.64632 11.6519 7.78675 11.5635 7.87652L9.89458 9.57148L11.1642 10.4652C11.403 10.6127 11.5607 10.8754 11.5752 11.1598C11.5896 11.4442 11.4593 11.7202 11.2266 11.8979L9.09454 13.3396C9.05266 13.3663 9.00612 13.3796 8.95911 13.3796Z" fill="#FFD600"/>
<path d="M8.32161 14.1101C8.25505 14.1101 8.18943 14.083 8.14336 14.0306L7.95766 13.8186C7.56905 13.3769 7.59651 12.7342 8.02142 12.3236L9.08673 11.2948L7.58627 10.3776C7.26141 10.1789 7.03523 9.85761 6.96588 9.49542C6.89653 9.13323 6.98822 8.75593 7.21813 8.4604L9.21565 5.88952L8.21456 4.95538L6.46464 5.67532C6.29151 5.74642 6.10162 5.74864 5.92896 5.68287C5.75629 5.6171 5.62086 5.49045 5.54732 5.3269C5.3956 4.99049 5.55849 4.59719 5.91174 4.45143L8.0917 3.55462C8.35372 3.44663 8.65298 3.49996 8.85589 3.68972L10.065 4.50298C10.3736 4.71185 10.6565 4.95449 10.906 5.22425L13.3015 7.81602L14.9671 6.94498C15.3064 6.769 15.7309 6.88765 15.9147 7.20985C16.099 7.53249 15.9747 7.93823 15.6373 8.11466L13.5062 9.22878C13.4462 9.25989 13.3824 9.28255 13.3168 9.29589C13.086 9.34255 12.8509 9.27678 12.6834 9.12079L11.8447 8.4804C11.7442 8.40352 11.7284 8.26398 11.8084 8.16799C11.8899 8.07199 12.036 8.05733 12.1356 8.13332L12.9915 8.78837C13.0646 8.85504 13.1437 8.87681 13.2195 8.86126C13.2423 8.85681 13.2628 8.84926 13.2833 8.83904L15.4139 7.72536C15.5266 7.6667 15.568 7.53115 15.5065 7.42361C15.4446 7.31606 15.3027 7.27562 15.1901 7.33561L13.3615 8.29153C13.2656 8.34175 13.1474 8.32175 13.0753 8.24398L10.5565 5.51889C10.3312 5.27491 10.0753 5.05537 9.79555 4.8665L8.5585 4.03102C8.46309 3.94569 8.36303 3.92792 8.27646 3.96347L6.09604 4.85939C5.97829 4.90783 5.92384 5.03849 5.97457 5.15092C5.99923 5.20603 6.04391 5.24824 6.10116 5.27002C6.1584 5.2918 6.22309 5.29091 6.28034 5.26735L8.17268 4.48876C8.26017 4.45232 8.35977 4.47098 8.42772 4.53364L9.68618 5.70687C9.76948 5.78464 9.77972 5.90908 9.71038 5.9984L7.59139 8.72527C7.43594 8.92525 7.37637 9.17012 7.42337 9.41543C7.47085 9.6603 7.61745 9.86917 7.83712 10.0038L9.5796 11.0691C9.63871 11.1051 9.6778 11.1651 9.68571 11.2317C9.69362 11.2984 9.66942 11.3646 9.61962 11.4126L8.35186 12.6369C8.09682 12.8831 8.08053 13.2689 8.3137 13.5342L8.49939 13.7462C8.58223 13.8404 8.5692 13.9804 8.47054 14.0595C8.42772 14.0932 8.3742 14.1101 8.32161 14.1101ZM3.16351 4.33321H2.2327C2.10425 4.33321 2 4.23367 2 4.11101C2 3.98836 2.10425 3.88881 2.2327 3.88881H3.16351C3.29197 3.88881 3.39622 3.98836 3.39622 4.11101C3.39622 4.23367 3.29197 4.33321 3.16351 4.33321ZM5.95595 8.77727H2.2327C2.10425 8.77727 2 8.67772 2 8.55506C2 8.43241 2.10425 8.33286 2.2327 8.33286H5.95595C6.0844 8.33286 6.18865 8.43241 6.18865 8.55506C6.18865 8.67772 6.0844 8.77727 5.95595 8.77727ZM6.88676 3.4444H3.62892C3.50047 3.4444 3.39622 3.34486 3.39622 3.2222C3.39622 3.09955 3.50047 3 3.62892 3H6.88676C7.01521 3 7.11946 3.09955 7.11946 3.2222C7.11946 3.34486 7.01521 3.4444 6.88676 3.4444Z" fill="#FFD600"/>
<path d="M12.9358 15.001C13.0643 15.001 13.1685 14.9016 13.1685 14.7788C13.1685 14.6561 13.0643 14.5566 12.9358 14.5566C12.8073 14.5566 12.7031 14.6561 12.7031 14.7788C12.7031 14.9016 12.8073 15.001 12.9358 15.001Z" fill="#FFD600"/>
</svg>
