<svg width="26" height="26" viewBox="0 0 26 26" fill="none" xmlns="http://www.w3.org/2000/svg">
<path fill-rule="evenodd" clip-rule="evenodd" d="M6.84719 19.0411C6.54434 18.6122 6.2791 18.1548 6.05626 17.6737L2.89866 17.2432C2.52705 17.1925 2.25 16.8751 2.25 16.5V11.5C2.25 11.125 2.52705 10.8076 2.89867 10.7569L6.05622 10.3263C6.27907 9.84528 6.54433 9.38786 6.8472 8.9589L5.64071 6.00762C5.49879 5.66046 5.63514 5.26183 5.95995 5.0743L10.2901 2.5743C10.6149 2.38678 11.0283 2.46801 11.258 2.7645L13.2107 5.28512C13.4707 5.26188 13.734 5.25001 14 5.25001C14.266 5.25001 14.5292 5.26188 14.7892 5.28511L16.742 2.76435C16.9717 2.46787 17.3851 2.38663 17.7099 2.57416L22.04 5.07416C22.3648 5.26168 22.5012 5.66031 22.3593 6.00748L21.1527 8.95884C21.4556 9.38782 21.7209 9.84525 21.9438 10.3263L25.1013 10.7569C25.4729 10.8076 25.75 11.125 25.75 11.5V16.5C25.75 16.8751 25.4729 17.1925 25.1013 17.2432L21.9437 17.6737C21.7209 18.1548 21.4556 18.6122 21.1528 19.0412L22.3593 21.9926C22.5012 22.3397 22.3649 22.7384 22.0401 22.9259L17.7099 25.4259C17.3851 25.6134 16.9717 25.5322 16.7421 25.2357L14.7892 22.7149C14.5292 22.7381 14.266 22.75 14 22.75C13.734 22.75 13.4707 22.7381 13.2107 22.7149L11.2579 25.2356C11.0282 25.532 10.6148 25.6133 10.29 25.4258L5.95991 22.9258C5.63511 22.7382 5.49876 22.3396 5.64068 21.9924L6.84719 19.0411ZM14 17C15.6568 17 17 15.6569 17 14C17 12.3431 15.6568 11 14 11C12.3431 11 11 12.3431 11 14C11 15.6569 12.3431 17 14 17Z" fill="#B700FF"/>
<path d="M4.95772 16.3423L5.41117 16.1317C5.33942 15.9772 5.194 15.8699 5.02527 15.8469L4.95772 16.3423ZM5.72279 17.665L6.18561 17.8542C6.25015 17.6963 6.22977 17.5165 6.13156 17.377L5.72279 17.665ZM1.88151 15.9229L1.81396 16.4183H1.81396L1.88151 15.9229ZM1.88151 9.55079L1.94907 10.0462H1.94907L1.88151 9.55079ZM4.95768 9.13131L5.02524 9.62673C5.19397 9.60372 5.33939 9.49642 5.41114 9.34198L4.95768 9.13131ZM5.72279 7.8086L6.13156 8.09655C6.22977 7.95713 6.25015 7.77726 6.18562 7.6194L5.72279 7.8086ZM4.54741 4.9334L4.08459 5.1226L4.08459 5.1226L4.54741 4.9334ZM4.86664 4.00008L5.11664 4.43309L4.86664 4.00008ZM9.09788 1.55717L8.84788 1.12416V1.12416L9.09788 1.55717ZM10.0658 1.74737L10.461 1.44116V1.44116L10.0658 1.74737ZM11.9682 4.20303L11.5729 4.50924C11.6772 4.64378 11.8427 4.71606 12.0122 4.70109L11.9682 4.20303ZM13.495 4.20302L13.451 4.70108C13.6206 4.71605 13.786 4.64377 13.8903 4.50924L13.495 4.20302ZM15.3975 1.74723L15.7928 2.05344V2.05344L15.3975 1.74723ZM16.3654 1.55703L16.1154 1.99004V1.99004L16.3654 1.55703ZM20.5967 3.99994L20.8467 3.56693V3.56692L20.5967 3.99994ZM20.9159 4.93326L20.4531 4.74406V4.74406L20.9159 4.93326ZM19.7405 7.80855L19.2777 7.61935C19.2131 7.77721 19.2335 7.95708 19.3317 8.0965L19.7405 7.80855ZM20.5056 9.13131L20.0522 9.34198C20.1239 9.49642 20.2693 9.60372 20.4381 9.62673L20.5056 9.13131ZM23.5818 9.55079L23.6494 9.05538L23.6494 9.05538L23.5818 9.55079ZM23.5818 15.9229L23.5142 15.4274L23.5818 15.9229ZM20.5056 16.3423L20.438 15.8469C20.2693 15.8699 20.1239 15.9772 20.0521 16.1317L20.5056 16.3423ZM19.7405 17.665L19.3317 17.3771C19.2335 17.5165 19.2131 17.6964 19.2777 17.8542L19.7405 17.665ZM20.9159 20.5404L20.4531 20.7296V20.7296L20.9159 20.5404ZM20.5967 21.4737L20.3467 21.0407L20.5967 21.4737ZM16.3654 23.9166L16.6154 24.3496L16.6154 24.3496L16.3654 23.9166ZM15.3975 23.7264L15.0023 24.0326L15.0023 24.0326L15.3975 23.7264ZM13.495 21.2706L13.8903 20.9643C13.786 20.8298 13.6205 20.7575 13.451 20.7725L13.495 21.2706ZM11.9682 21.2705L12.0122 20.7725C11.8427 20.7575 11.6772 20.8298 11.5729 20.9643L11.9682 21.2705ZM10.0658 23.7263L10.461 24.0325H10.461L10.0658 23.7263ZM9.09786 23.9165L9.34786 23.4834H9.34786L9.09786 23.9165ZM4.86662 21.4735L4.61662 21.9066H4.61662L4.86662 21.4735ZM4.54739 20.5402L5.01021 20.7294L4.54739 20.5402ZM4.50427 16.553C4.73298 17.0453 5.00451 17.5135 5.31403 17.9529L6.13156 17.377C5.85608 16.986 5.61454 16.5694 5.41117 16.1317L4.50427 16.553ZM1.81396 16.4183L4.89016 16.8378L5.02527 15.8469L1.94907 15.4274L1.81396 16.4183ZM0.732849 15.1797C0.732849 15.8048 1.1946 16.3338 1.81396 16.4183L1.94907 15.4274C1.8252 15.4106 1.73285 15.3048 1.73285 15.1797H0.732849ZM0.732849 10.2939V15.1797H1.73285V10.2939H0.732849ZM1.81396 9.05538C1.1946 9.13983 0.732849 9.66883 0.732849 10.2939H1.73285C1.73285 10.1689 1.8252 10.0631 1.94907 10.0462L1.81396 9.05538ZM4.89013 8.6359L1.81396 9.05538L1.94907 10.0462L5.02524 9.62673L4.89013 8.6359ZM5.31403 7.52066C5.00449 7.96007 4.73295 8.42833 4.50423 8.92065L5.41114 9.34198C5.61451 8.90421 5.85606 8.48764 6.13156 8.09655L5.31403 7.52066ZM4.08459 5.1226L5.25997 7.99781L6.18562 7.6194L5.01023 4.7442L4.08459 5.1226ZM4.61664 3.56707C4.0753 3.87961 3.84805 4.544 4.08459 5.1226L5.01023 4.7442C4.96292 4.62848 5.00837 4.4956 5.11664 4.43309L4.61664 3.56707ZM8.84788 1.12416L4.61664 3.56707L5.11664 4.43309L9.34788 1.99018L8.84788 1.12416ZM10.461 1.44116C10.0782 0.947006 9.38923 0.811613 8.84788 1.12416L9.34788 1.99018C9.45615 1.92767 9.59395 1.95475 9.67052 2.05358L10.461 1.44116ZM12.3635 3.89682L10.461 1.44116L9.67052 2.05358L11.5729 4.50924L12.3635 3.89682ZM12.7317 3.66948C12.4597 3.66948 12.1903 3.68147 11.9242 3.70497L12.0122 4.70109C12.2491 4.68017 12.4891 4.66948 12.7317 4.66948V3.66948ZM13.539 3.70496C13.2729 3.68146 13.0036 3.66948 12.7317 3.66948V4.66948C12.9742 4.66948 13.2141 4.68017 13.451 4.70108L13.539 3.70496ZM15.0023 1.44101L13.0997 3.89681L13.8903 4.50924L15.7928 2.05344L15.0023 1.44101ZM16.6154 1.12401C16.0741 0.81147 15.3851 0.946864 15.0023 1.44101L15.7928 2.05344C15.8694 1.95461 16.0072 1.92753 16.1154 1.99004L16.6154 1.12401ZM20.8467 3.56692L16.6154 1.12401L16.1154 1.99004L20.3467 4.43295L20.8467 3.56692ZM21.3787 5.12246C21.6153 4.54385 21.388 3.87947 20.8467 3.56693L20.3467 4.43295C20.4549 4.49546 20.5004 4.62834 20.4531 4.74406L21.3787 5.12246ZM20.2033 7.99775L21.3787 5.12246L20.4531 4.74406L19.2777 7.61935L20.2033 7.99775ZM20.9591 8.92065C20.7303 8.42831 20.4588 7.96004 20.1492 7.5206L19.3317 8.0965C19.6072 8.4876 19.8488 8.90419 20.0522 9.34198L20.9591 8.92065ZM23.6494 9.05538L20.5732 8.6359L20.4381 9.62673L23.5142 10.0462L23.6494 9.05538ZM24.7305 10.2939C24.7305 9.66883 24.2687 9.13984 23.6494 9.05538L23.5142 10.0462C23.6381 10.0631 23.7305 10.1689 23.7305 10.2939H24.7305ZM24.7305 15.1797V10.2939H23.7305V15.1797H24.7305ZM23.6494 16.4183C24.2687 16.3338 24.7305 15.8048 24.7305 15.1797H23.7305C23.7305 15.3048 23.6381 15.4106 23.5142 15.4274L23.6494 16.4183ZM20.5731 16.8378L23.6494 16.4183L23.5142 15.4274L20.438 15.8469L20.5731 16.8378ZM20.1492 17.953C20.4588 17.5136 20.7303 17.0453 20.959 16.553L20.0521 16.1317C19.8488 16.5694 19.6072 16.986 19.3317 17.3771L20.1492 17.953ZM21.3787 20.3512L20.2033 17.4758L19.2777 17.8542L20.4531 20.7296L21.3787 20.3512ZM20.8467 21.9067C21.388 21.5942 21.6153 20.9298 21.3787 20.3512L20.4531 20.7296C20.5004 20.8453 20.455 20.9782 20.3467 21.0407L20.8467 21.9067ZM16.6154 24.3496L20.8467 21.9067L20.3467 21.0407L16.1154 23.4836L16.6154 24.3496ZM15.0023 24.0326C15.3851 24.5268 16.0741 24.6621 16.6154 24.3496L16.1154 23.4836C16.0072 23.5461 15.8694 23.519 15.7928 23.4202L15.0023 24.0326ZM13.0997 21.5768L15.0023 24.0326L15.7928 23.4202L13.8903 20.9643L13.0997 21.5768ZM12.7317 21.8041C13.0036 21.8041 13.2729 21.7921 13.539 21.7686L13.451 20.7725C13.2141 20.7934 12.9742 20.8041 12.7317 20.8041V21.8041ZM11.9242 21.7686C12.1903 21.7921 12.4597 21.8041 12.7317 21.8041V20.8041C12.4891 20.8041 12.2491 20.7934 12.0122 20.7725L11.9242 21.7686ZM10.461 24.0325L12.3635 21.5768L11.5729 20.9643L9.6705 23.42L10.461 24.0325ZM8.84786 24.3495C9.38921 24.662 10.0782 24.5266 10.461 24.0325L9.6705 23.42C9.59393 23.5189 9.45613 23.5459 9.34786 23.4834L8.84786 24.3495ZM4.61662 21.9066L8.84786 24.3495L9.34786 23.4834L5.11662 21.0405L4.61662 21.9066ZM4.08457 20.351C3.84803 20.9296 4.07528 21.594 4.61662 21.9066L5.11662 21.0405C5.00835 20.978 4.9629 20.8451 5.01021 20.7294L4.08457 20.351ZM5.25997 17.4758L4.08457 20.351L5.01021 20.7294L6.18561 17.8542L5.25997 17.4758ZM15.1631 12.7368C15.1631 14.0797 14.0745 15.1683 12.7317 15.1683V16.1683C14.6268 16.1683 16.1631 14.6319 16.1631 12.7368H15.1631ZM12.7317 10.3053C14.0745 10.3053 15.1631 11.3939 15.1631 12.7368H16.1631C16.1631 10.8416 14.6268 9.30529 12.7317 9.30529V10.3053ZM10.3002 12.7368C10.3002 11.3939 11.3888 10.3053 12.7317 10.3053V9.30529C10.8365 9.30529 9.30016 10.8416 9.30016 12.7368H10.3002ZM12.7317 15.1683C11.3888 15.1683 10.3002 14.0797 10.3002 12.7368H9.30016C9.30016 14.6319 10.8365 16.1683 12.7317 16.1683V15.1683Z" fill="#B700FF" fill-opacity="0.2"/>
</svg>
