<svg width="24" height="24" viewBox="0 0 24 24" fill="none" xmlns="http://www.w3.org/2000/svg">
<g clip-path="url(#clip0_3939_2427)">
<path opacity="0.12" d="M21.466 6.47824C21.9677 4.68672 22.2185 3.79096 21.9857 3.17628C21.7827 2.64035 21.3596 2.21724 20.8237 2.01427C20.209 1.78147 19.3133 2.03228 17.5217 2.53391L7.29584 5.39716C4.46617 6.18947 3.05133 6.58563 2.64136 7.25828C2.28678 7.84005 2.25275 8.56231 2.55106 9.17484C2.89597 9.88306 4.26729 10.4105 7.00993 11.4654L9.67255 12.4894C10.1614 12.6775 10.4058 12.7715 10.6114 12.9176C10.7936 13.0472 10.9528 13.2064 11.0823 13.3886C11.2285 13.5942 11.3225 13.8386 11.5105 14.3275L12.5345 16.9899C13.5893 19.7326 14.1168 21.1039 14.825 21.4489C15.4375 21.7472 16.1598 21.7132 16.7415 21.3586C17.4142 20.9486 17.8104 19.5338 18.6027 16.7041L21.466 6.47824Z" fill="#FFECB3"/>
<path fill-rule="evenodd" clip-rule="evenodd" d="M17.724 3.25625C18.634 3.00143 19.2666 2.82509 19.7494 2.73647C20.2373 2.64693 20.4473 2.6738 20.5581 2.71576C20.893 2.84262 21.1575 3.10707 21.2843 3.44202C21.3263 3.55281 21.3532 3.7628 21.2636 4.25065C21.175 4.73348 20.9986 5.36608 20.7438 6.27612L17.8805 16.502C17.4805 17.9305 17.1929 18.9551 16.9243 19.6774C16.6396 20.4429 16.4438 20.6618 16.3512 20.7183C15.9876 20.9399 15.5362 20.9611 15.1534 20.7747C15.0559 20.7272 14.8404 20.5276 14.485 19.7923C14.1497 19.0985 13.7671 18.1055 13.2345 16.7208L12.2105 14.0583L12.1826 13.9857L12.1826 13.9857C12.068 13.6871 11.9708 13.4338 11.8509 13.2099L14.5303 10.5304C14.8232 10.2375 14.8232 9.76268 14.5303 9.46978C14.2374 9.17689 13.7626 9.17689 13.4697 9.46978L10.7902 12.1492C10.5663 12.0293 10.3131 11.9321 10.0144 11.8174L9.94178 11.7895L7.27916 10.7655C5.89451 10.2329 4.90152 9.8503 4.20772 9.51496C3.4724 9.15956 3.27282 8.94407 3.22534 8.84657C3.0389 8.46374 3.06017 8.01233 3.28178 7.64872C3.33822 7.55612 3.55718 7.36035 4.32265 7.07566C5.04491 6.80704 6.06948 6.5195 7.49806 6.1195L17.724 3.25625ZM21.0893 1.313C20.5855 1.12216 20.0402 1.15804 19.4786 1.26111C18.92 1.36366 18.2209 1.55942 17.3564 1.80148L17.3564 1.80149L17.3195 1.8118L7.09361 4.67505L7.05625 4.68552L7.05622 4.68552C5.67298 5.07283 4.58775 5.37668 3.79977 5.66975C3.04791 5.94938 2.35446 6.28801 2.00093 6.86806C1.51338 7.668 1.46659 8.66111 1.87676 9.50334C2.17419 10.1141 2.83272 10.5164 3.55496 10.8655C4.31191 11.2313 5.36378 11.6359 6.7045 12.1516L6.74069 12.1655L9.40331 13.1896C9.928 13.3914 10.0663 13.4504 10.1768 13.529C10.2906 13.61 10.3901 13.7095 10.4711 13.8233C10.5497 13.9338 10.6087 14.0721 10.8105 14.5968L11.8345 17.2593L11.8484 17.2955C12.3641 18.6362 12.7686 19.6881 13.1345 20.445C13.4835 21.1673 13.8859 21.8258 14.4966 22.1233C15.3388 22.5334 16.3319 22.4867 17.1319 21.9991C17.7119 21.6456 18.0506 20.9521 18.3302 20.2003C18.6233 19.4123 18.9271 18.3271 19.3144 16.9438L19.3249 16.9064L22.1883 6.68058L22.1986 6.64375L22.1986 6.64369C22.4407 5.77924 22.6364 5.08014 22.739 4.52145C22.842 3.95988 22.8779 3.41465 22.6871 2.91076C22.408 2.17386 21.8262 1.59208 21.0893 1.313Z" fill="#FFECB3"/>
</g>
<defs>
<clipPath id="clip0_3939_2427">
<rect width="24" height="24" fill="white"/>
</clipPath>
</defs>
</svg>
