<svg width="32" height="32" viewBox="0 0 32 32" fill="none" xmlns="http://www.w3.org/2000/svg">
<path d="M24.4857 7.515C29.2524 12.2817 29.171 20.059 24.2417 24.723C19.691 29.0283 12.3097 29.0283 7.75902 24.723C2.82969 20.059 2.74836 12.2817 7.51502 7.515C12.2017 2.82833 19.799 2.82833 24.4857 7.515" stroke="#FFECB3" stroke-width="1.20307" stroke-linecap="round" stroke-linejoin="round"/>
<path d="M20.6039 20.8633C18.0612 23.2686 13.9372 23.2686 11.3945 20.8633" stroke="#FFECB3" stroke-width="1.20307" stroke-linecap="round" stroke-linejoin="round"/>
<path d="M10.9636 15.7273C11.3359 15.2423 11.9082 14.9524 12.5196 14.9393C13.1296 14.9561 13.7001 15.2452 14.0742 15.7273" stroke="#FFECB3" stroke-width="1.20307" stroke-linecap="round" stroke-linejoin="round"/>
<path d="M18.2233 15.7273C18.5954 15.2426 19.1671 14.9528 19.778 14.9393C20.3885 14.9559 20.9594 15.245 21.334 15.7273" stroke="#FFECB3" stroke-width="1.20307" stroke-linecap="round" stroke-linejoin="round"/>
</svg>
