<svg width="18" height="18" viewBox="0 0 18 18" fill="none" xmlns="http://www.w3.org/2000/svg">
<path d="M11.5996 10.9352L13.5996 13.2578L11.0996 11.4191C10.4996 11.032 9.69961 11.3223 9.59961 12.0965L9.19961 16.7417L8.59961 12.1933C8.49961 11.4191 7.59961 11.1288 6.99961 11.6127L1.59961 16.4514L6.29961 11.1288C6.79961 10.5481 6.39961 9.67717 5.69961 9.67717L1.69961 9.1933L5.89961 8.51588C6.59961 8.4191 6.99961 7.54813 6.49961 7.06426L4.49961 4.74168L6.99961 6.58039C7.59961 6.96749 8.39961 6.67717 8.49961 5.90297L8.89961 1.25781L9.39961 5.8062C9.49961 6.58039 10.3996 6.87072 10.9996 6.38684L16.3996 1.54814L11.6996 6.87072C11.1996 7.45136 11.5996 8.32233 12.2996 8.32233L16.3996 8.70942L12.1996 9.38684C11.3996 9.58039 11.0996 10.3546 11.5996 10.9352Z" fill="#00FFC8"/>
</svg>
