<svg width="18" height="18" viewBox="0 0 18 18" fill="none" xmlns="http://www.w3.org/2000/svg">
<path d="M3.54265 12.6124C3.64279 12.5122 3.74292 12.4121 3.94319 12.4121H16.7604C16.9607 12.4121 17.0609 12.7125 16.9607 12.8126L14.4573 15.316C14.3572 15.4162 14.2571 15.5163 14.0568 15.5163H1.23955C1.03928 15.5163 0.939149 15.2159 1.03928 15.1157L3.54265 12.6124Z" fill="#00FFC8"/>
<path d="M3.54265 3.20027C3.64279 3.10013 3.74292 3 3.94319 3H16.7604C16.9607 3 17.0609 3.3004 16.9607 3.40054L14.4573 5.90391C14.3572 6.00404 14.2571 6.10418 14.0568 6.10418H1.23955C1.03928 6.10418 0.939149 5.80377 1.03928 5.70364L3.54265 3.20027Z" fill="#00FFC8"/>
<path d="M14.3572 7.90535C14.2571 7.80521 14.1569 7.70508 13.9567 7.70508H1.23955C1.03928 7.70508 0.939149 8.00548 1.03928 8.10562L3.54265 10.609C3.64279 10.7091 3.74292 10.8093 3.94319 10.8093H16.7604C16.9607 10.8093 17.0609 10.5089 16.9607 10.4087L14.3572 7.90535Z" fill="#00FFC8"/>
</svg>
