<svg width="18" height="18" viewBox="0 0 18 18" fill="none" xmlns="http://www.w3.org/2000/svg">
<path fill-rule="evenodd" clip-rule="evenodd" d="M8.95657 4.40008C8.87248 3.54721 7.84921 3.10976 7.17187 3.68394L4.28209 6.13216H2.62461L2.50615 6.13854C1.96143 6.19761 1.53711 6.65929 1.53711 7.21966V10.7822L1.54349 10.9006C1.60256 11.4453 2.06424 11.8697 2.62461 11.8697H4.28302L7.17195 14.3171L7.26204 14.3864C7.96626 14.8738 8.96211 14.3752 8.96211 13.4874V4.51364L8.95657 4.40008ZM4.56458 11.2342L4.55921 11.2307C4.50394 11.2024 4.44293 11.1906 4.38305 11.1947H2.62461L2.54154 11.1863C2.35367 11.1478 2.21211 10.9813 2.21211 10.7822V7.21966L2.2205 7.13659C2.259 6.94872 2.42546 6.80716 2.62461 6.80716H4.40586L4.40601 6.80714C4.42864 6.80714 4.4513 6.80488 4.47363 6.80033L4.47388 6.8003C4.53165 6.78848 4.58404 6.7619 4.62694 6.72467L7.60827 4.1989L7.67244 4.15373C7.9372 4.00181 8.28711 4.18902 8.28711 4.51364V13.4874L8.28006 13.5655C8.22471 13.8657 7.85542 14.012 7.60854 13.8024L4.62402 11.2739L4.61943 11.2708C4.60245 11.2569 4.58409 11.2446 4.56458 11.2342ZM15.196 7.02985C15.3278 6.89804 15.5415 6.89804 15.6733 7.02985C15.7863 7.14282 15.8025 7.31596 15.7218 7.44612L15.6733 7.50714L14.2245 8.95599L15.6733 10.4048C15.8051 10.5366 15.8051 10.7503 15.6733 10.8821C15.5604 10.9951 15.3872 11.0113 15.2571 10.9306L15.196 10.8821L13.7472 9.43329L12.2983 10.8821C12.1665 11.0139 11.9529 11.0139 11.821 10.8821C11.7081 10.7692 11.6919 10.596 11.7726 10.4659L11.821 10.4048L13.2699 8.95599L11.821 7.50714C11.6892 7.37534 11.6892 7.16165 11.821 7.02985C11.934 6.91687 12.1072 6.90073 12.2373 6.98143L12.2983 7.02985L13.7472 8.4787L15.196 7.02985Z" fill="#FF0063"/>
</svg>
