<svg width="18" height="18" viewBox="0 0 18 18" fill="none" xmlns="http://www.w3.org/2000/svg">
<path fill-rule="evenodd" clip-rule="evenodd" d="M14.0943 3.44661C13.9529 3.32523 13.7398 3.3415 13.6184 3.48296C13.497 3.62441 13.5133 3.83749 13.6548 3.95887C14.9769 5.09337 15.787 6.9595 15.787 9.00299C15.787 11.0436 14.9783 12.9083 13.6582 14.0436C13.5169 14.1652 13.5009 14.3782 13.6224 14.5196C13.744 14.6609 13.957 14.6769 14.0984 14.5554C15.5716 13.2883 16.462 11.2353 16.462 9.00299C16.462 6.76755 15.57 4.71291 14.0943 3.44661ZM4.28161 6.1318L7.17168 3.68402C7.87778 3.08454 8.96211 3.58711 8.96211 4.51356V13.4881C8.96211 14.4145 7.87866 14.9169 7.17195 14.3178L4.28161 11.8688L2.62461 11.8696C2.06424 11.8696 1.60256 11.4452 1.54349 10.9005L1.53711 10.7821V7.21955C1.53711 6.61916 2.02421 6.13205 2.62461 6.13205L4.28161 6.1318ZM8.28719 13.4879V4.51345C8.28719 4.16196 7.87608 3.97141 7.60836 4.19871L4.62411 6.72696C4.56315 6.7786 4.48584 6.80695 4.40595 6.80695H2.6247C2.39709 6.80695 2.2122 6.99184 2.2122 7.21945V10.7819C2.2122 11.0096 2.39709 11.1944 2.6247 11.1944H4.40595C4.48584 11.1944 4.56315 11.2228 4.62411 11.2744L7.60843 13.8027C7.87654 14.03 8.28719 13.8396 8.28719 13.4879ZM11.3667 5.83746C11.466 5.67969 11.6743 5.63225 11.8321 5.7315C12.8302 6.35938 13.4622 7.6137 13.4622 9.00443C13.4622 10.3964 12.8291 11.6504 11.8305 12.2708C11.6722 12.3692 11.4641 12.3206 11.3657 12.1623C11.2674 12.004 11.316 11.7959 11.4743 11.6975C12.2654 11.206 12.7872 10.1724 12.7872 9.00443C12.7872 7.83678 12.2656 6.80169 11.4727 6.30285C11.3149 6.2036 11.2675 5.99523 11.3667 5.83746Z" fill="#00FFC8"/>
</svg>
