<svg width="18" height="18" viewBox="0 0 18 18" fill="none" xmlns="http://www.w3.org/2000/svg">
<path fill-rule="evenodd" clip-rule="evenodd" d="M4.5 15.75H3C2.586 15.75 2.25 15.414 2.25 15V10.5C2.25 10.086 2.586 9.75 3 9.75H4.5C4.914 9.75 5.25 10.086 5.25 10.5V15C5.25 15.414 4.914 15.75 4.5 15.75Z" stroke="#00FFC8" stroke-linecap="round" stroke-linejoin="round"/>
<path d="M9.75 12.7493H11.4998C11.8245 12.7493 12.1403 12.6443 12.3998 12.4493L14.2118 11.0903C14.664 10.7513 15.297 10.7963 15.6967 11.1961V11.1961C16.1407 11.6401 16.1407 12.3593 15.6967 12.8026L14.142 14.3573C13.7235 14.7758 13.1895 15.0616 12.609 15.1778L10.4115 15.6173C9.97575 15.7043 9.5265 15.6938 9.09525 15.5858L7.10775 15.0893C6.87 15.0293 6.62625 14.9993 6.381 14.9993H5.25" stroke="#00FFC8" stroke-linecap="round" stroke-linejoin="round"/>
<path d="M9.75 12.75H10.8637C11.4915 12.75 12 12.2415 12 11.6137V11.3865C12 10.8652 11.6453 10.4107 11.1398 10.2847L9.42075 9.855C9.141 9.78525 8.8545 9.75 8.5665 9.75V9.75C7.87125 9.75 7.191 9.9555 6.61275 10.3418L5.25 11.25" stroke="#00FFC8" stroke-linecap="round" stroke-linejoin="round"/>
<path d="M12.8758 3.86561C13.707 4.69684 13.707 6.04453 12.8758 6.87577C12.0445 7.707 10.6968 7.707 9.86561 6.87577C9.03438 6.04453 9.03438 4.69684 9.86561 3.86561C10.6968 3.03438 12.0445 3.03438 12.8758 3.86561" stroke="#00FFC8" stroke-linecap="round" stroke-linejoin="round"/>
<path d="M10.9732 3.28125C10.9035 2.8575 10.71 2.45025 10.383 2.12325C9.552 1.29225 8.20425 1.29225 7.37325 2.12325C6.54225 2.95425 6.54225 4.302 7.37325 5.133C7.89075 5.6505 8.60775 5.84475 9.276 5.718" stroke="#00FFC8" stroke-linecap="round" stroke-linejoin="round"/>
</svg>
