<svg width="21" height="21" viewBox="0 0 21 21" fill="none" xmlns="http://www.w3.org/2000/svg">
<path d="M10.0393 0.500082H10C7.48048 0.500082 5.06423 1.50096 3.28246 3.28258M10.0393 0.500082L10.741 0.0274917C12.2381 0.138732 13.6943 0.585949 15 1.33977C16.5202 2.21749 17.7825 3.47979 18.6602 5.00005C19.538 6.52031 20 8.24466 20 10.0001C20 12.652 18.9464 15.1957 17.0711 17.0712M10.0393 0.500082C11.6934 0.506936 13.3171 0.945506 14.75 1.77278C16.1942 2.60662 17.3934 3.8058 18.2272 5.25005C19.0611 6.69431 19.5 8.33243 19.5 10.0001C19.5 12.5193 18.4991 14.9359 16.7175 16.7176M10.0393 0.500082L16.7175 16.7176M3.28246 3.28258L2.92892 2.92901M3.28246 3.28258L2.92892 2.92901M3.28246 3.28258C1.50089 5.06431 0.5 7.48085 0.5 10.0001C0.5 12.5193 1.50087 14.9359 3.28246 16.7176C5.06419 18.4992 7.48075 19.5001 10 19.5001C12.5192 19.5001 14.9357 18.4993 16.7175 16.7177C16.7175 16.7177 16.7175 16.7176 16.7175 16.7176M2.92892 2.92901C4.64137 1.21671 6.91061 0.189507 9.31103 0.0238245L17.0711 17.0712M2.92892 2.92901C1.0536 4.8045 0 7.34824 0 10.0001C0 12.652 1.05356 15.1957 2.92892 17.0712C4.80441 18.9465 7.34814 20.0001 10 20.0001C12.6519 20.0001 15.1956 18.9466 17.0711 17.0712M16.7175 16.7176L17.0711 17.0712M13.7166 13.7195L13.7192 13.717C13.9449 13.4896 14.0721 13.1821 14.0721 12.861C14.0721 12.5402 13.945 12.2324 13.719 12.005L13.7179 12.004L11.2143 9.50034V5.71459C11.2143 5.28072 10.9828 4.87982 10.6071 4.66293C10.2314 4.4461 9.76856 4.4461 9.3929 4.66293C9.01716 4.87981 8.78571 5.28071 8.78571 5.71459L8.7857 10.0004L8.78571 10.0024C8.78706 10.3259 8.91746 10.6356 9.148 10.8627L12.0036 13.7183L12.0047 13.7193C12.232 13.9453 12.5398 14.0725 12.8607 14.0725C13.1818 14.0725 13.4893 13.9453 13.7166 13.7195Z" stroke="#00FFC8" stroke-opacity="0.2"/>
<path d="M12 3.00007C9.61307 3.00007 7.324 3.94828 5.63603 5.63611C3.94824 7.32405 3 9.61342 3 12.0001C3 14.3868 3.9482 16.6761 5.63603 18.3641C7.32397 20.0519 9.61333 21.0001 12 21.0001C14.3867 21.0001 16.676 20.0519 18.364 18.3641C20.0518 16.6761 21 14.3868 21 12.0001C21 10.4202 20.5842 8.86828 19.7942 7.50005C19.0043 6.13181 17.8682 4.99574 16.5 4.20579C15.1317 3.41584 13.5798 3 11.9999 3L12 3.00007ZM15.0279 15.0282C14.9074 15.1479 14.7445 15.2152 14.5746 15.2152C14.4049 15.2152 14.2418 15.1479 14.1214 15.0282L11.55 12.4568C11.4273 12.3365 11.3579 12.1721 11.3571 12.0003V8.14313C11.3571 7.91339 11.4797 7.70117 11.6786 7.58638C11.8775 7.47158 12.1225 7.47158 12.3214 7.58638C12.5203 7.70117 12.6429 7.9134 12.6429 8.14313V11.7367L15.0279 14.1218C15.1476 14.2422 15.2149 14.4052 15.2149 14.5749C15.2149 14.7448 15.1476 14.9077 15.0279 15.0282Z" fill="#00FFC8"/>
</svg>
