<svg width="25" height="24" viewBox="0 0 25 24" fill="none" xmlns="http://www.w3.org/2000/svg">
<g opacity="0.2">
<path d="M16.2786 5.94964C16.9349 5.94964 17.5644 5.6889 18.0285 5.22478C18.4927 4.76066 18.7534 4.13118 18.7534 3.47482C18.7534 2.81846 18.4927 2.18898 18.0285 1.72486C17.5644 1.26074 16.9349 1 16.2786 1C15.6222 1 14.9927 1.26074 14.5286 1.72486C14.0645 2.18898 13.8038 2.81846 13.8038 3.47482C13.8038 4.13118 14.0645 4.76066 14.5286 5.22478C14.9927 5.6889 15.6222 5.94964 16.2786 5.94964ZM11.3069 8.30457C10.6211 8.47506 10.1531 8.73134 9.7753 9.04922C9.20884 9.52658 8.75128 10.2151 8.13312 11.2975C7.98836 11.5507 7.7489 11.7361 7.46744 11.8129C7.18598 11.8896 6.88556 11.8514 6.63228 11.7066C6.379 11.5619 6.19359 11.3224 6.11686 11.0409C6.04013 10.7595 6.07834 10.4591 6.22311 10.2058C6.83851 9.12951 7.46052 8.12253 8.35861 7.36689C9.29574 6.57715 10.443 6.13058 11.99 5.95844C12.6367 5.88695 13.3484 5.90125 14.0155 6.19877C14.7156 6.5117 15.2271 7.07211 15.5757 7.82116C16.0454 8.82923 16.3946 9.42924 16.674 9.77681C16.8087 9.944 16.9028 10.0215 16.9561 10.0562C16.9985 10.0837 17.0166 10.0859 17.0232 10.087C17.0711 10.0925 17.2267 10.087 17.6821 9.88516C17.8806 9.79716 18.0973 9.69157 18.3624 9.56233L18.4256 9.53153C18.7498 9.37155 19.0769 9.21754 19.4068 9.06956C19.673 8.95266 19.9748 8.94598 20.246 9.05098C20.5172 9.15598 20.7358 9.36411 20.854 9.62986C20.9721 9.89561 20.9802 10.1973 20.8765 10.469C20.7727 10.7407 20.5656 10.9603 20.3004 11.0797C19.9948 11.2169 19.6917 11.3597 19.3914 11.5081L19.3193 11.5433C19.0658 11.667 18.8106 11.7919 18.5714 11.8975C18.0764 12.1163 17.4439 12.3539 16.7581 12.2709C16.0344 12.1829 15.4767 11.7743 15.0175 11.226L13.5145 14.1259L15.5933 16.8306C15.7171 16.9923 15.7935 17.1848 15.815 17.3872L16.2725 21.7846C16.29 21.9295 16.2784 22.0764 16.2385 22.2168C16.1986 22.3572 16.1312 22.4882 16.0401 22.6022C15.9491 22.7163 15.8362 22.8111 15.7082 22.8811C15.5802 22.9511 15.4395 22.9949 15.2943 23.0101C15.1492 23.0252 15.0025 23.0112 14.8628 22.9691C14.7231 22.9269 14.5932 22.8574 14.4806 22.7645C14.368 22.6717 14.275 22.5574 14.2071 22.4282C14.1391 22.2991 14.0976 22.1577 14.0848 22.0123L13.6591 17.9245L12.3964 16.2812L12.3392 16.2069L10.0063 13.1712C9.8916 13.022 9.81712 12.8458 9.78997 12.6596C9.76282 12.4734 9.7839 12.2833 9.8512 12.1075L11.3069 8.30457Z" fill="#00FFC8"/>
<path d="M9.63844 14.7539L8.82889 16.9317L5.63913 16.6788C5.4941 16.6653 5.34785 16.6808 5.20885 16.7243C5.06985 16.7678 4.94088 16.8385 4.82942 16.9322C4.71796 17.026 4.62622 17.1409 4.55954 17.2704C4.49286 17.3999 4.45256 17.5413 4.44098 17.6865C4.4294 17.8317 4.44677 17.9778 4.49208 18.1162C4.5374 18.2546 4.60975 18.3826 4.70494 18.4929C4.80013 18.6031 4.91627 18.6933 5.04662 18.7583C5.17696 18.8233 5.31891 18.8618 5.46424 18.8715L9.48335 19.1904C9.72187 19.2094 9.96008 19.1501 10.1619 19.0215C10.3636 18.8928 10.5179 18.7019 10.6014 18.4777L11.2201 16.8124L9.63844 14.7539Z" fill="#00FFC8" stroke="#00FFC8"/>
</g>
<path d="M16.2786 5.94964C16.9349 5.94964 17.5644 5.6889 18.0285 5.22478C18.4927 4.76066 18.7534 4.13118 18.7534 3.47482C18.7534 2.81846 18.4927 2.18898 18.0285 1.72486C17.5644 1.26074 16.9349 1 16.2786 1C15.6222 1 14.9927 1.26074 14.5286 1.72486C14.0645 2.18898 13.8038 2.81846 13.8038 3.47482C13.8038 4.13118 14.0645 4.76066 14.5286 5.22478C14.9927 5.6889 15.6222 5.94964 16.2786 5.94964ZM11.3069 8.30457C10.6211 8.47506 10.1531 8.73134 9.7753 9.04922C9.20884 9.52658 8.75128 10.2151 8.13312 11.2975C7.98836 11.5507 7.7489 11.7361 7.46744 11.8129C7.18598 11.8896 6.88556 11.8514 6.63228 11.7066C6.379 11.5619 6.19359 11.3224 6.11686 11.0409C6.04013 10.7595 6.07834 10.4591 6.22311 10.2058C6.83851 9.12951 7.46052 8.12253 8.35861 7.36689C9.29574 6.57715 10.443 6.13058 11.99 5.95844C12.6367 5.88695 13.3484 5.90124 14.0155 6.19877C14.7156 6.5117 15.2271 7.07211 15.5757 7.82116C16.0454 8.82923 16.3946 9.42924 16.674 9.77681C16.8087 9.944 16.9028 10.0215 16.9561 10.0562C16.9985 10.0837 17.0166 10.0859 17.0232 10.087C17.0711 10.0925 17.2267 10.087 17.6821 9.88516C17.8806 9.79716 18.0973 9.69157 18.3624 9.56233L18.4256 9.53153C18.7498 9.37155 19.0769 9.21754 19.4068 9.06956C19.673 8.95266 19.9748 8.94598 20.246 9.05098C20.5172 9.15598 20.7358 9.36411 20.854 9.62986C20.9721 9.8956 20.9802 10.1973 20.8765 10.469C20.7727 10.7407 20.5656 10.9603 20.3004 11.0797C19.9948 11.2169 19.6917 11.3597 19.3914 11.5081L19.3193 11.5433C19.0658 11.667 18.8106 11.7919 18.5714 11.8975C18.0764 12.1163 17.4439 12.3539 16.7581 12.2709C16.0344 12.1829 15.4767 11.7743 15.0175 11.226L13.5145 14.1259L15.5933 16.8306C15.7171 16.9923 15.7935 17.1848 15.815 17.3872L16.2725 21.7846C16.29 21.9295 16.2784 22.0764 16.2385 22.2168C16.1986 22.3572 16.1312 22.4882 16.0401 22.6022C15.9491 22.7163 15.8362 22.8111 15.7082 22.8811C15.5802 22.9511 15.4395 22.9949 15.2943 23.0101C15.1492 23.0252 15.0025 23.0112 14.8628 22.9691C14.7231 22.9269 14.5932 22.8574 14.4806 22.7645C14.368 22.6717 14.275 22.5574 14.2071 22.4282C14.1391 22.2991 14.0976 22.1577 14.0848 22.0123L13.6591 17.9245L12.3964 16.2812L12.3392 16.2069L10.0063 13.1712C9.8916 13.022 9.81712 12.8458 9.78997 12.6596C9.76282 12.4734 9.7839 12.2833 9.8512 12.1075L11.3069 8.30457Z" stroke="#00FFC8"/>
<path d="M9.63844 14.7539L8.82889 16.9317L5.63913 16.6788C5.4941 16.6653 5.34785 16.6808 5.20885 16.7243C5.06985 16.7678 4.94088 16.8385 4.82942 16.9322C4.71796 17.026 4.62622 17.1409 4.55954 17.2704C4.49286 17.3999 4.45256 17.5413 4.44098 17.6865C4.4294 17.8317 4.44677 17.9778 4.49208 18.1162C4.5374 18.2546 4.60975 18.3826 4.70494 18.4929C4.80013 18.6031 4.91627 18.6933 5.04662 18.7583C5.17696 18.8233 5.31891 18.8618 5.46424 18.8715L9.48335 19.1904C9.72187 19.2094 9.96008 19.1501 10.1619 19.0215C10.3636 18.8928 10.5179 18.7019 10.6014 18.4777L11.2201 16.8124L9.63844 14.7539Z" stroke="#00FFC8"/>
</svg>
