<svg width="26" height="26" viewBox="0 0 26 26" fill="none" xmlns="http://www.w3.org/2000/svg">
<path d="M22.9963 6.27049C24.2821 8.22012 24.9459 10.5017 24.9459 12.9077C24.9459 16.1846 23.6601 19.2544 21.3785 21.5358C19.0556 23.8587 15.9858 25.1032 12.7503 25.1032C9.4734 25.1032 6.4036 23.8174 4.12211 21.5358C1.79921 19.2129 0.554688 16.1432 0.554688 12.9077C0.554688 9.63079 1.84055 6.56101 4.12211 4.27952C6.44501 1.95663 9.51481 0.712112 12.7503 0.712112C15.1562 0.712112 17.4378 1.37588 19.3875 2.66174L17.8525 4.36226L18.0183 5.06741C14.3678 2.57837 9.30712 2.99334 6.07155 6.22889C2.37968 9.92075 2.37968 15.8941 6.07155 19.5859C9.76342 23.2778 15.7368 23.2778 19.4287 19.5859C22.6642 16.3504 23.0375 11.2896 20.5901 7.63927L21.2953 7.80507L22.9963 6.27049ZM17.2717 6.76818C14.2851 4.56966 10.0955 4.81854 7.39909 7.51469C4.45374 10.46 4.45374 15.2717 7.39909 18.2584C10.3444 21.2451 15.1562 21.2037 18.1428 18.2584C20.839 15.5623 21.0882 11.331 18.8894 8.38581L16.8983 10.3768C18.0184 12.2434 17.8109 14.6908 16.1932 16.2672C14.3266 18.1338 11.2985 18.1338 9.39017 16.2672C7.52357 14.4006 7.52357 11.3725 9.39017 9.46425C11.008 7.84647 13.4553 7.63899 15.2806 8.7591L17.2717 6.76818ZM13.8704 10.1695C12.7919 9.7132 11.5058 9.92067 10.6348 10.7916C9.47332 11.9531 9.47332 13.8197 10.6348 14.9398C11.7963 16.1013 13.6629 16.1013 14.783 14.9398C15.6542 14.0685 15.8614 12.7827 15.4051 11.7042L13.9531 13.1562C13.5381 13.5711 12.833 13.5711 12.3767 13.1562C11.9204 12.7413 11.9618 12.0361 12.3767 11.5798L13.8704 10.1695ZM18.6823 5.97995L12.7503 11.9534C12.5015 12.2022 12.5015 12.6171 12.7503 12.9074C12.9991 13.1562 13.4141 13.1562 13.7043 12.9074L19.636 6.97566L21.1294 7.30755L25.4023 3.61569L22.8305 2.78614L22.0009 0.214355L18.3505 4.48666L18.6823 5.97995Z" fill="#BDFFF1"/>
</svg>
