<svg width="20" height="20" viewBox="0 0 20 20" fill="none" xmlns="http://www.w3.org/2000/svg">
<g opacity="0.2">
<path d="M12.9808 4.95869C13.5278 4.95869 14.0524 4.7414 14.4391 4.35464C14.8259 3.96787 15.0432 3.4433 15.0432 2.89634C15.0432 2.34937 14.8259 1.8248 14.4391 1.43803C14.0524 1.05127 13.5278 0.833984 12.9808 0.833984C12.4339 0.833984 11.9093 1.05127 11.5225 1.43803C11.1358 1.8248 10.9185 2.34937 10.9185 2.89634C10.9185 3.4433 11.1358 3.96787 11.5225 4.35464C11.9093 4.7414 12.4339 4.95869 12.9808 4.95869ZM8.83781 6.92113C8.26631 7.0632 7.8763 7.27677 7.56145 7.54167C7.0894 7.93947 6.70809 8.51326 6.19297 9.4152C6.07233 9.62627 5.87279 9.78077 5.63823 9.84471C5.40368 9.90866 5.15333 9.87681 4.94226 9.75617C4.7312 9.63554 4.57669 9.43599 4.51275 9.20144C4.4488 8.96689 4.48065 8.71654 4.60129 8.50547C5.11413 7.60858 5.63246 6.76943 6.38087 6.13973C7.16181 5.48161 8.11783 5.10947 9.40702 4.96602C9.94598 4.90644 10.539 4.91836 11.0949 5.1663C11.6784 5.42707 12.1046 5.89408 12.3951 6.51828C12.7865 7.35835 13.0775 7.85835 13.3104 8.148C13.4226 8.28732 13.501 8.35194 13.5455 8.38081C13.5808 8.40373 13.5959 8.40556 13.6014 8.40648C13.6413 8.41106 13.771 8.40648 14.1504 8.23828C14.3159 8.16495 14.4964 8.07696 14.7173 7.96926L14.7701 7.94359C15.0402 7.81028 15.3128 7.68193 15.5877 7.55862C15.8096 7.4612 16.061 7.45563 16.287 7.54313C16.5131 7.63063 16.6952 7.80408 16.7937 8.02553C16.8921 8.24699 16.8989 8.49842 16.8124 8.72484C16.726 8.95125 16.5534 9.13422 16.3324 9.23371C16.0777 9.34803 15.8251 9.46706 15.5748 9.59073L15.5148 9.62006C15.3035 9.72317 15.0909 9.82721 14.8915 9.9152C14.479 10.0976 13.952 10.2956 13.3805 10.2264C12.7774 10.1531 12.3126 9.81254 11.93 9.35562L10.6774 11.7722L12.4098 14.0262C12.5129 14.1609 12.5766 14.3213 12.5945 14.49L12.9758 18.1545C12.9903 18.2753 12.9807 18.3977 12.9474 18.5147C12.9142 18.6316 12.858 18.7408 12.7821 18.8359C12.7063 18.9309 12.6122 19.0099 12.5055 19.0682C12.3988 19.1266 12.2816 19.1631 12.1606 19.1757C12.0397 19.1883 11.9174 19.1767 11.801 19.1416C11.6846 19.1064 11.5763 19.0485 11.4825 18.9711C11.3887 18.8937 11.3112 18.7985 11.2546 18.6908C11.198 18.5832 11.1633 18.4654 11.1527 18.3443L10.798 14.9377L9.74571 13.5683L9.69804 13.5064L7.75394 10.9766C7.65837 10.8523 7.5963 10.7055 7.57367 10.5503C7.55104 10.3951 7.56861 10.2367 7.62469 10.0903L8.83781 6.92113Z" fill="#BDFFF1"/>
<path d="M7.44935 12.2949L6.77473 14.1098L4.11659 13.899C3.99574 13.8877 3.87386 13.9006 3.75803 13.9369C3.6422 13.9732 3.53472 14.0321 3.44183 14.1102C3.34895 14.1883 3.2725 14.2841 3.21694 14.392C3.16137 14.4999 3.12779 14.6178 3.11814 14.7388C3.10849 14.8598 3.12296 14.9815 3.16072 15.0968C3.19848 15.2122 3.25877 15.3189 3.3381 15.4107C3.41743 15.5026 3.51421 15.5778 3.62283 15.6319C3.73145 15.6861 3.84975 15.7181 3.97085 15.7262L7.32011 15.992C7.51888 16.0078 7.71739 15.9584 7.88553 15.8512C8.05367 15.744 8.18227 15.5849 8.25183 15.3981L8.76742 14.0103L7.44935 12.2949Z" fill="#BDFFF1"/>
</g>
<path d="M12.9808 4.95869C13.5278 4.95869 14.0524 4.7414 14.4391 4.35464C14.8259 3.96787 15.0432 3.4433 15.0432 2.89634C15.0432 2.34937 14.8259 1.8248 14.4391 1.43803C14.0524 1.05127 13.5278 0.833984 12.9808 0.833984C12.4339 0.833984 11.9093 1.05127 11.5225 1.43803C11.1358 1.8248 10.9185 2.34937 10.9185 2.89634C10.9185 3.4433 11.1358 3.96787 11.5225 4.35464C11.9093 4.7414 12.4339 4.95869 12.9808 4.95869ZM8.83781 6.92113C8.26631 7.0632 7.8763 7.27677 7.56145 7.54167C7.0894 7.93947 6.70809 8.51326 6.19297 9.4152C6.07233 9.62627 5.87279 9.78077 5.63823 9.84471C5.40368 9.90866 5.15333 9.87681 4.94226 9.75617C4.7312 9.63554 4.57669 9.43599 4.51275 9.20144C4.4488 8.96689 4.48065 8.71654 4.60129 8.50547C5.11413 7.60858 5.63246 6.76943 6.38087 6.13973C7.16181 5.48161 8.11783 5.10947 9.40702 4.96602C9.94598 4.90644 10.539 4.91836 11.0949 5.1663C11.6784 5.42707 12.1046 5.89408 12.3951 6.51828C12.7865 7.35835 13.0775 7.85835 13.3104 8.148C13.4226 8.28732 13.501 8.35194 13.5455 8.38081C13.5808 8.40373 13.5959 8.40556 13.6014 8.40648C13.6413 8.41106 13.771 8.40648 14.1504 8.23828C14.3159 8.16495 14.4964 8.07696 14.7173 7.96926L14.7701 7.94359C15.0402 7.81028 15.3128 7.68193 15.5877 7.55862C15.8096 7.4612 16.061 7.45563 16.287 7.54313C16.5131 7.63063 16.6952 7.80408 16.7937 8.02553C16.8921 8.24699 16.8989 8.49842 16.8124 8.72484C16.726 8.95125 16.5534 9.13422 16.3324 9.23371C16.0777 9.34803 15.8251 9.46706 15.5748 9.59073L15.5148 9.62006C15.3035 9.72317 15.0909 9.82721 14.8915 9.9152C14.479 10.0976 13.952 10.2956 13.3805 10.2264C12.7774 10.1531 12.3126 9.81254 11.93 9.35562L10.6774 11.7722L12.4098 14.0262C12.5129 14.1609 12.5766 14.3213 12.5945 14.49L12.9758 18.1545C12.9903 18.2753 12.9807 18.3977 12.9474 18.5147C12.9142 18.6316 12.858 18.7408 12.7821 18.8359C12.7063 18.9309 12.6122 19.0099 12.5055 19.0682C12.3988 19.1266 12.2816 19.1631 12.1606 19.1757C12.0397 19.1883 11.9174 19.1767 11.801 19.1416C11.6846 19.1064 11.5763 19.0485 11.4825 18.9711C11.3887 18.8937 11.3112 18.7985 11.2546 18.6908C11.198 18.5832 11.1633 18.4654 11.1527 18.3443L10.798 14.9377L9.74571 13.5683L9.69804 13.5064L7.75394 10.9766C7.65837 10.8523 7.5963 10.7055 7.57367 10.5503C7.55104 10.3951 7.56861 10.2367 7.62469 10.0903L8.83781 6.92113Z" stroke="#BDFFF1"/>
<path d="M7.44935 12.2949L6.77473 14.1098L4.11659 13.899C3.99574 13.8877 3.87386 13.9006 3.75803 13.9369C3.6422 13.9732 3.53472 14.0321 3.44183 14.1102C3.34895 14.1883 3.2725 14.2841 3.21694 14.392C3.16137 14.4999 3.12779 14.6178 3.11814 14.7388C3.10849 14.8598 3.12296 14.9815 3.16072 15.0968C3.19848 15.2122 3.25877 15.3189 3.3381 15.4107C3.41743 15.5026 3.51421 15.5778 3.62283 15.6319C3.73145 15.6861 3.84975 15.7181 3.97085 15.7262L7.32011 15.992C7.51888 16.0078 7.71739 15.9584 7.88553 15.8512C8.05367 15.744 8.18227 15.5849 8.25183 15.3981L8.76742 14.0103L7.44935 12.2949Z" stroke="#BDFFF1"/>
</svg>
