<svg width="34" height="34" viewBox="0 0 34 34" fill="none" xmlns="http://www.w3.org/2000/svg">
<path d="M30.1226 8.61517C31.8102 11.1741 32.6815 14.1686 32.6815 17.3265C32.6815 21.6274 30.9938 25.6565 27.9992 28.6509C24.9504 31.6997 20.9213 33.3332 16.6747 33.3332C12.3738 33.3332 8.34467 31.6455 5.35021 28.6509C2.30141 25.6021 0.667969 21.5731 0.667969 17.3265C0.667969 13.0256 2.35566 8.99648 5.35021 6.00203C8.39902 2.95324 12.4281 1.31981 16.6747 1.31981C19.8325 1.31981 22.8271 2.19101 25.3861 3.8787L23.3713 6.11063L23.5889 7.03614C18.7977 3.76928 12.1555 4.31392 7.90885 8.56059C3.06327 13.4061 3.06327 21.2461 7.90885 26.0917C12.7544 30.9373 20.5945 30.9373 25.44 26.0917C29.6867 21.845 30.1766 15.2028 26.9645 10.4117L27.89 10.6293L30.1226 8.61517ZM22.6091 9.26839C18.6891 6.38284 13.1903 6.7095 9.65125 10.2482C5.78548 14.114 5.78548 20.4293 9.65125 24.3493C13.517 28.2693 19.8324 28.2151 23.7524 24.3493C27.2911 20.8106 27.6182 15.2571 24.7322 11.3915L22.119 14.0048C23.5891 16.4547 23.3168 19.6668 21.1935 21.7359C18.7436 24.1858 14.7692 24.1858 12.2645 21.7359C9.81463 19.286 9.81463 15.3116 12.2645 12.807C14.3879 10.6837 17.6 10.4113 19.9957 11.8815L22.6091 9.26839ZM18.1448 13.7326C16.7294 13.1337 15.0413 13.406 13.8981 14.5492C12.3737 16.0736 12.3737 18.5235 13.8981 19.9936C15.4226 21.5181 17.8725 21.5181 19.3426 19.9936C20.4861 18.8501 20.7581 17.1624 20.1591 15.7469L18.2534 17.6527C17.7088 18.1973 16.7833 18.1973 16.1844 17.6527C15.5855 17.1081 15.6398 16.1826 16.1844 15.5837L18.1448 13.7326ZM24.4605 8.23385L16.6747 16.074C16.3481 16.4006 16.3481 16.9452 16.6747 17.3261C17.0013 17.6527 17.5459 17.6527 17.9268 17.3261L25.7122 9.54071L27.6723 9.97632L33.2804 5.13076L29.905 4.04196L28.8162 0.666504L24.0249 6.2739L24.4605 8.23385Z" fill="#00FFC8"/>
</svg>
