<svg width="24" height="24" viewBox="0 0 24 24" fill="none" xmlns="http://www.w3.org/2000/svg">
<path d="M15.201 16.2586V12.3858L11.835 10.4349L8.47998 12.3637V16.2586" stroke="#00FFC8" stroke-width="0.25" stroke-linecap="round" stroke-linejoin="round"/>
<path d="M8.46899 16.2545L11.824 18.2054L15.19 16.2765" stroke="#00FFC8" stroke-width="0.25" stroke-linecap="round" stroke-linejoin="round"/>
<path d="M2.474 6.59922C2.474 6.59922 4.707 10.8647 8.44699 12.3417" stroke="#00FFC8" stroke-width="0.25" stroke-linecap="round" stroke-linejoin="round"/>
<path d="M21.009 5.76153C21.009 5.76153 19.161 11.0411 15.234 12.3637" stroke="#00FFC8" stroke-width="0.1" stroke-linecap="round" stroke-linejoin="round"/>
<path d="M15.223 16.2876C15.223 16.2876 18.787 18.5912 20.668 18.6022" stroke="#00FFC8" stroke-width="0.1" stroke-linecap="round" stroke-linejoin="round"/>
<path d="M8.43606 16.2765C8.43606 16.2765 6.58806 17.996 3.01306 18.1062" stroke="#00FFC8" stroke-width="0.1" stroke-linecap="round" stroke-linejoin="round"/>
<path d="M2.529 12.8928C2.529 12.8928 2.474 12.8597 2.474 12.8377C2.474 12.8377 2.507 12.7826 2.54 12.7936C2.54 12.7936 2.595 12.8156 2.584 12.8487C2.584 12.8487 2.562 12.8928 2.529 12.8928ZM2.573 12.5842C2.573 12.5842 2.529 12.5511 2.529 12.5291C2.529 12.5291 2.562 12.4739 2.595 12.485C2.595 12.485 2.639 12.518 2.639 12.5401C2.639 12.5401 2.606 12.5842 2.584 12.5842H2.573ZM21.46 12.4409C21.46 12.4409 21.46 12.3858 21.493 12.3747C21.493 12.3747 21.548 12.3747 21.559 12.4188C21.559 12.4188 21.548 12.4739 21.526 12.485H21.504C21.504 12.485 21.46 12.4629 21.449 12.4409H21.46ZM2.628 12.2755C2.628 12.2755 2.584 12.2425 2.584 12.2094C2.584 12.2094 2.617 12.1653 2.65 12.1763C2.65 12.1763 2.694 12.2094 2.694 12.2425C2.694 12.2425 2.661 12.2755 2.639 12.2755H2.628ZM21.383 12.1433C21.383 12.1433 21.383 12.0771 21.416 12.0771C21.416 12.0771 21.482 12.0771 21.482 12.1102C21.482 12.1102 21.482 12.1653 21.449 12.1763C21.449 12.1763 21.394 12.1763 21.394 12.1433H21.383ZM2.694 11.9669C2.694 11.9669 2.639 11.9339 2.65 11.9118C2.65 11.9118 2.683 11.8567 2.716 11.8677C2.716 11.8677 2.76 11.9008 2.76 11.9339C2.76 11.9339 2.727 11.978 2.705 11.978C2.705 11.978 2.705 11.978 2.705 11.9669H2.694ZM21.295 11.8457C21.295 11.8457 21.295 11.7796 21.328 11.7685C21.328 11.7685 21.383 11.7685 21.394 11.8126C21.394 11.8126 21.394 11.8677 21.361 11.8788C21.361 11.8788 21.317 11.8567 21.306 11.8457H21.295ZM2.76 11.6693C2.76 11.6693 2.716 11.6363 2.716 11.6032C2.716 11.6032 2.76 11.5591 2.782 11.5591C2.782 11.5591 2.837 11.6032 2.826 11.6252C2.826 11.6252 2.793 11.6693 2.771 11.6693H2.76ZM21.196 11.5481C21.196 11.5481 21.207 11.482 21.24 11.4709C21.24 11.4709 21.295 11.4709 21.306 11.504C21.306 11.504 21.306 11.5701 21.262 11.5812C21.262 11.5812 21.218 11.5812 21.207 11.5481H21.196ZM2.837 11.3607C2.837 11.3607 2.793 11.3277 2.793 11.2946C2.793 11.2946 2.837 11.2505 2.859 11.2615C2.859 11.2615 2.914 11.2946 2.903 11.3277C2.903 11.3277 2.87 11.3607 2.848 11.3607H2.837ZM21.097 11.2505C21.097 11.2505 21.097 11.1844 21.13 11.1844C21.13 11.1844 21.185 11.1844 21.196 11.2174C21.196 11.2174 21.196 11.2725 21.163 11.2836H21.152C21.152 11.2836 21.108 11.2836 21.097 11.2505ZM2.914 11.0631C2.914 11.0631 2.87 11.019 2.881 10.997C2.881 10.997 2.925 10.9529 2.947 10.9529C2.947 10.9529 2.991 10.997 2.98 11.019C2.98 11.019 2.958 11.0631 2.936 11.0631H2.914ZM20.987 10.9529C20.987 10.9529 20.987 10.8978 21.02 10.8868C21.02 10.8868 21.075 10.8868 21.086 10.9198C21.086 10.9198 21.086 10.9749 21.064 10.986H21.042C21.042 10.986 20.998 10.9749 20.987 10.9529ZM3.002 10.7655C3.002 10.7655 2.958 10.7214 2.969 10.6884C2.969 10.6884 3.013 10.6443 3.035 10.6553C3.035 10.6553 3.079 10.6994 3.068 10.7214C3.068 10.7214 3.046 10.7655 3.024 10.7655H3.002ZM20.877 10.6663C20.877 10.6663 20.877 10.6002 20.91 10.6002C20.91 10.6002 20.965 10.6002 20.976 10.6222C20.976 10.6222 20.976 10.6884 20.943 10.6994H20.921C20.921 10.6994 20.888 10.6994 20.877 10.6663ZM3.101 10.4569C3.101 10.4569 3.057 10.4238 3.068 10.3908C3.068 10.3908 3.101 10.3467 3.134 10.3577C3.134 10.3577 3.178 10.4018 3.167 10.4238C3.167 10.4238 3.145 10.4679 3.123 10.4679C3.123 10.4679 3.123 10.4679 3.101 10.4569ZM20.756 10.3798C20.756 10.3798 20.756 10.3136 20.789 10.3026C20.789 10.3026 20.844 10.3026 20.855 10.3357C20.855 10.3357 20.855 10.3908 20.833 10.4018L20.811 10.4128C20.811 10.4128 20.767 10.4018 20.756 10.3798ZM3.2 10.1593C3.2 10.1593 3.156 10.1262 3.167 10.0932C3.167 10.0932 3.211 10.0491 3.233 10.0601C3.233 10.0601 3.277 10.1042 3.266 10.1373C3.266 10.1373 3.244 10.1703 3.222 10.1703C3.222 10.1703 3.211 10.1703 3.2 10.1703V10.1593ZM20.635 10.0932C20.635 10.0932 20.635 10.0381 20.657 10.027C20.657 10.027 20.712 10.027 20.734 10.0491C20.734 10.0491 20.734 10.1042 20.701 10.1152C20.701 10.1152 20.69 10.1152 20.679 10.1152C20.679 10.1152 20.635 10.1152 20.635 10.0822V10.0932ZM3.31 9.87274C3.31 9.87274 3.266 9.82865 3.277 9.80661C3.277 9.80661 3.321 9.76252 3.343 9.77354C3.343 9.77354 3.387 9.81763 3.376 9.83967C3.376 9.83967 3.354 9.87274 3.332 9.87274H3.31ZM20.503 9.80661C20.503 9.80661 20.503 9.7515 20.525 9.74048C20.525 9.74048 20.58 9.74048 20.591 9.76252C20.591 9.76252 20.591 9.81763 20.569 9.82865C20.569 9.82865 20.569 9.83967 20.547 9.83967C20.547 9.83967 20.514 9.82865 20.503 9.80661ZM3.42 9.57514C3.42 9.57514 3.387 9.54208 3.398 9.50901C3.398 9.50901 3.431 9.46492 3.464 9.47595C3.464 9.47595 3.508 9.52003 3.497 9.5531C3.497 9.5531 3.464 9.58617 3.442 9.58617C3.442 9.58617 3.442 9.58617 3.42 9.57514ZM20.36 9.53106C20.36 9.53106 20.36 9.46492 20.382 9.4539C20.382 9.4539 20.448 9.4539 20.459 9.47595C20.459 9.47595 20.459 9.54208 20.437 9.5531L20.415 9.56412C20.415 9.56412 20.371 9.5531 20.36 9.53106ZM3.541 9.28857C3.541 9.28857 3.508 9.24448 3.519 9.22244C3.519 9.22244 3.563 9.17835 3.585 9.18937C3.585 9.18937 3.629 9.23346 3.618 9.26653C3.618 9.26653 3.585 9.29959 3.563 9.29959C3.563 9.29959 3.563 9.29959 3.541 9.29959V9.28857ZM20.217 9.25551C20.217 9.25551 20.217 9.18937 20.239 9.17835C20.239 9.17835 20.294 9.17835 20.316 9.2004C20.316 9.2004 20.316 9.25551 20.294 9.27755H20.272C20.272 9.27755 20.228 9.27755 20.217 9.25551ZM3.673 9.002C3.673 9.002 3.629 8.95791 3.64 8.93587C3.64 8.93587 3.684 8.89178 3.717 8.9028C3.717 8.9028 3.75 8.94689 3.739 8.97995C3.739 8.97995 3.717 9.01302 3.695 9.01302C3.695 9.01302 3.673 9.01302 3.673 9.002ZM20.074 8.97995C20.074 8.97995 20.074 8.91382 20.074 8.9028C20.074 8.9028 20.14 8.9028 20.151 8.92484C20.151 8.92484 20.151 8.97995 20.129 9.002H20.107C20.107 9.002 20.063 9.002 20.063 8.97995H20.074ZM19.92 8.7044C19.92 8.7044 19.909 8.64929 19.92 8.63827C19.92 8.63827 19.986 8.63827 19.997 8.64929C19.997 8.64929 19.997 8.71543 19.975 8.72645C19.975 8.72645 19.975 8.73747 19.953 8.73747C19.953 8.73747 19.909 8.72645 19.909 8.7044H19.92ZM3.805 8.72645C3.805 8.72645 3.772 8.67134 3.783 8.64929C3.783 8.64929 3.827 8.61623 3.849 8.62725C3.849 8.62725 3.882 8.67134 3.871 8.69338C3.871 8.69338 3.849 8.72645 3.827 8.72645H3.805ZM19.755 8.43988C19.755 8.43988 19.755 8.37374 19.777 8.36272C19.777 8.36272 19.832 8.36272 19.843 8.38476C19.843 8.38476 19.843 8.43987 19.843 8.46192H19.81C19.81 8.46192 19.777 8.4509 19.766 8.43988H19.755ZM3.948 8.43988C3.948 8.43988 3.904 8.39579 3.915 8.36272C3.915 8.36272 3.97 8.32965 3.992 8.34068C3.992 8.34068 4.025 8.39579 4.014 8.41783C4.014 8.41783 3.981 8.4509 3.97 8.4509H3.948V8.43988ZM19.59 8.17535C19.59 8.17535 19.59 8.10921 19.612 8.09819C19.612 8.09819 19.667 8.08717 19.678 8.12024C19.678 8.12024 19.689 8.17535 19.678 8.18637C19.678 8.18637 19.656 8.18637 19.645 8.18637C19.645 8.18637 19.612 8.18637 19.601 8.16432L19.59 8.17535ZM4.091 8.17535C4.091 8.17535 4.047 8.13126 4.069 8.09819C4.069 8.09819 4.113 8.06513 4.135 8.07615C4.135 8.07615 4.179 8.13126 4.157 8.1533C4.157 8.1533 4.135 8.17535 4.113 8.17535H4.091ZM19.425 7.92184C19.425 7.92184 19.425 7.86673 19.425 7.84468C19.425 7.84468 19.48 7.84468 19.502 7.86673C19.502 7.86673 19.502 7.92184 19.491 7.93286C19.491 7.93286 19.469 7.94388 19.458 7.94388C19.458 7.94388 19.425 7.93286 19.414 7.92184H19.425ZM4.234 7.89979C4.234 7.89979 4.201 7.85571 4.212 7.82264C4.212 7.82264 4.267 7.78957 4.289 7.8006C4.289 7.8006 4.322 7.85571 4.311 7.87775C4.311 7.87775 4.278 7.91082 4.267 7.91082C4.267 7.91082 4.245 7.91082 4.234 7.91082V7.89979ZM19.249 7.66833C19.249 7.66833 19.249 7.6022 19.249 7.59118C19.249 7.59118 19.304 7.59118 19.326 7.6022C19.326 7.6022 19.326 7.65731 19.326 7.67935C19.326 7.67935 19.304 7.69038 19.293 7.69038C19.293 7.69038 19.26 7.67935 19.249 7.66833ZM4.399 7.62424C4.399 7.62424 4.355 7.58016 4.377 7.55811C4.377 7.55811 4.421 7.52504 4.454 7.53607C4.454 7.53607 4.487 7.58016 4.465 7.61322C4.465 7.61322 4.443 7.63527 4.421 7.63527H4.399V7.62424ZM19.062 7.4038C19.062 7.4038 19.062 7.34869 19.084 7.33767C19.084 7.33767 19.139 7.33767 19.15 7.34869C19.15 7.34869 19.172 7.4038 19.15 7.42585H19.128C19.128 7.42585 19.084 7.42585 19.073 7.4038H19.062ZM4.553 7.35971C4.553 7.35971 4.52 7.31563 4.542 7.28256C4.542 7.28256 4.586 7.24949 4.619 7.27154C4.619 7.27154 4.652 7.31563 4.619 7.34869C4.619 7.34869 4.597 7.37074 4.575 7.37074C4.575 7.37074 4.553 7.37074 4.542 7.35971H4.553ZM18.886 7.16132C18.886 7.16132 18.886 7.09519 18.886 7.08416C18.886 7.08416 18.941 7.08416 18.963 7.09519C18.963 7.09519 18.963 7.1503 18.963 7.16132C18.963 7.16132 18.941 7.17234 18.93 7.17234C18.93 7.17234 18.897 7.17234 18.886 7.16132ZM4.729 7.09519C4.729 7.09519 4.696 7.0511 4.707 7.01803C4.707 7.01803 4.762 6.99599 4.784 7.01803C4.784 7.01803 4.817 7.06212 4.784 7.09519C4.784 7.09519 4.762 7.11723 4.74 7.11723H4.718L4.729 7.09519ZM18.699 6.90781C18.699 6.90781 18.699 6.8527 18.699 6.83066C18.699 6.83066 18.754 6.83066 18.776 6.84168C18.776 6.84168 18.776 6.89679 18.776 6.91883C18.776 6.91883 18.754 6.91883 18.743 6.91883C18.743 6.91883 18.71 6.91883 18.699 6.89679V6.90781ZM4.894 6.84168C4.894 6.84168 4.872 6.78657 4.883 6.76452C4.883 6.76452 4.938 6.73146 4.96 6.76452C4.96 6.76452 4.993 6.80861 4.971 6.83066C4.971 6.83066 4.949 6.8527 4.927 6.8527H4.894V6.84168ZM18.501 6.66533C18.501 6.66533 18.49 6.59919 18.501 6.58817C18.501 6.58817 18.556 6.56613 18.578 6.58817C18.578 6.58817 18.578 6.6543 18.567 6.66533C18.567 6.66533 18.545 6.66533 18.534 6.66533C18.534 6.66533 18.501 6.66533 18.49 6.66533H18.501ZM5.081 6.57715C5.081 6.57715 5.048 6.53306 5.059 6.49999C5.059 6.49999 5.114 6.47795 5.136 6.48897C5.136 6.48897 5.169 6.54408 5.147 6.56613C5.147 6.56613 5.125 6.58817 5.103 6.58817C5.103 6.58817 5.081 6.58817 5.081 6.57715ZM18.303 6.42284C18.303 6.42284 18.303 6.35671 18.314 6.34569C18.314 6.34569 18.369 6.32364 18.391 6.34569C18.391 6.34569 18.391 6.41182 18.391 6.42284C18.391 6.42284 18.369 6.43386 18.358 6.43386C18.358 6.43386 18.325 6.43386 18.314 6.42284H18.303ZM5.257 6.32364C5.257 6.32364 5.235 6.26853 5.257 6.24649C5.257 6.24649 5.312 6.22444 5.334 6.23547C5.334 6.23547 5.367 6.29058 5.345 6.31262C5.345 6.31262 5.323 6.33466 5.301 6.33466C5.301 6.33466 5.279 6.33466 5.268 6.33466L5.257 6.32364ZM18.105 6.18036C18.105 6.18036 18.105 6.12525 18.105 6.1032C18.105 6.1032 18.16 6.08116 18.182 6.1032C18.182 6.1032 18.182 6.16933 18.182 6.18036C18.182 6.18036 18.16 6.2024 18.149 6.2024C18.149 6.2024 18.116 6.19138 18.105 6.18036ZM5.444 6.07014C5.444 6.07014 5.422 6.02605 5.444 6.004C5.444 6.004 5.488 5.97094 5.51 6.004C5.51 6.004 5.543 6.04809 5.521 6.08116C5.521 6.08116 5.499 6.08116 5.488 6.08116C5.488 6.08116 5.455 6.08116 5.444 6.08116V6.07014ZM17.907 5.93787C17.907 5.93787 17.885 5.89378 17.907 5.87174C17.907 5.87174 17.962 5.84969 17.984 5.87174C17.984 5.87174 17.995 5.92685 17.984 5.94889C17.984 5.94889 17.951 5.94889 17.94 5.94889C17.94 5.94889 17.918 5.94889 17.907 5.92685V5.93787ZM5.642 5.82765C5.642 5.82765 5.62 5.77254 5.642 5.7505C5.642 5.7505 5.697 5.72845 5.719 5.7505C5.719 5.7505 5.752 5.79458 5.73 5.82765C5.73 5.82765 5.708 5.83867 5.686 5.83867C5.686 5.83867 5.664 5.83867 5.653 5.82765H5.642ZM17.698 5.70641C17.698 5.70641 17.676 5.6513 17.698 5.62925C17.698 5.62925 17.753 5.61823 17.775 5.62925C17.775 5.62925 17.775 5.68436 17.775 5.70641C17.775 5.70641 17.742 5.70641 17.731 5.70641C17.731 5.70641 17.709 5.70641 17.698 5.68436V5.70641ZM5.84 5.58517C5.84 5.58517 5.818 5.53006 5.84 5.50801C5.84 5.50801 5.884 5.48597 5.906 5.50801C5.906 5.50801 5.939 5.56312 5.906 5.58517C5.906 5.58517 5.884 5.58517 5.862 5.58517C5.862 5.58517 5.84 5.58517 5.829 5.58517H5.84ZM17.478 5.48597C17.478 5.48597 17.478 5.43086 17.478 5.40881C17.478 5.40881 17.544 5.38677 17.555 5.40881C17.555 5.40881 17.577 5.46392 17.555 5.48597C17.555 5.48597 17.533 5.48597 17.522 5.48597C17.522 5.48597 17.489 5.48597 17.478 5.48597ZM6.049 5.3537C6.049 5.3537 6.016 5.29859 6.038 5.27655C6.038 5.27655 6.093 5.24348 6.115 5.27655C6.115 5.27655 6.137 5.33166 6.115 5.3537C6.115 5.3537 6.082 5.37575 6.07099 5.37575C6.07099 5.37575 6.049 5.37575 6.038 5.37575L6.049 5.3537ZM17.269 5.2545C17.269 5.2545 17.247 5.19939 17.269 5.17735C17.269 5.17735 17.324 5.15531 17.346 5.17735C17.346 5.17735 17.357 5.23246 17.346 5.2545C17.346 5.2545 17.313 5.27655 17.302 5.27655C17.302 5.27655 17.28 5.27655 17.269 5.2545ZM6.24699 5.11122C6.24699 5.11122 6.225 5.05611 6.24699 5.04508C6.24699 5.04508 6.30199 5.01202 6.32399 5.04508C6.32399 5.04508 6.34599 5.10019 6.32399 5.12224C6.32399 5.12224 6.302 5.14428 6.29099 5.14428C6.29099 5.14428 6.258 5.14428 6.24699 5.12224V5.11122ZM17.049 5.03406C17.049 5.03406 17.027 4.97895 17.049 4.95691C17.049 4.95691 17.104 4.93486 17.126 4.95691C17.126 4.95691 17.148 5.01202 17.126 5.03406C17.126 5.03406 17.093 5.03406 17.082 5.03406C17.082 5.03406 17.06 5.03406 17.049 5.03406ZM6.46699 4.89078C6.46699 4.89078 6.44499 4.83567 6.46699 4.81362C6.46699 4.81362 6.52199 4.78056 6.53299 4.81362C6.53299 4.81362 6.55499 4.86873 6.54399 4.89078C6.54399 4.89078 6.51099 4.91282 6.49999 4.91282C6.49999 4.91282 6.47799 4.91282 6.46699 4.91282V4.89078ZM16.829 4.81362C16.829 4.81362 16.807 4.75851 16.829 4.73647C16.829 4.73647 16.873 4.71442 16.895 4.73647C16.895 4.73647 16.917 4.79158 16.895 4.81362C16.895 4.81362 16.862 4.83567 16.851 4.83567C16.851 4.83567 16.829 4.83567 16.818 4.81362H16.829ZM6.67599 4.65931C6.67599 4.65931 6.67599 4.6042 6.67599 4.58216C6.67599 4.58216 6.73099 4.56012 6.75299 4.58216C6.75299 4.58216 6.77499 4.63727 6.75299 4.65931C6.75299 4.65931 6.73099 4.65931 6.71999 4.65931C6.71999 4.65931 6.68699 4.65931 6.67599 4.65931ZM16.598 4.6042C16.598 4.6042 16.576 4.54909 16.598 4.52705C16.598 4.52705 16.653 4.505 16.675 4.51603C16.675 4.51603 16.697 4.57114 16.675 4.59318C16.675 4.59318 16.653 4.61523 16.631 4.61523C16.631 4.61523 16.609 4.61523 16.598 4.6042ZM6.90699 4.43887C6.90699 4.43887 6.88499 4.38376 6.90699 4.36172C6.90699 4.36172 6.96199 4.33967 6.97299 4.36172C6.97299 4.36172 6.99499 4.41683 6.97299 4.43887C6.97299 4.43887 6.95099 4.43887 6.93999 4.43887C6.93999 4.43887 6.91799 4.43887 6.90699 4.43887ZM16.367 4.38376C16.367 4.38376 16.345 4.32865 16.367 4.31763C16.367 4.31763 16.422 4.28456 16.444 4.30661C16.444 4.30661 16.466 4.36172 16.444 4.38376C16.444 4.38376 16.422 4.40581 16.411 4.40581C16.411 4.40581 16.378 4.40581 16.367 4.38376ZM7.12699 4.21843C7.12699 4.21843 7.10499 4.16332 7.12699 4.14128C7.12699 4.14128 7.18199 4.11923 7.20399 4.14128C7.20399 4.14128 7.22599 4.19639 7.20399 4.21843C7.20399 4.21843 7.18199 4.24048 7.17099 4.24048C7.17099 4.24048 7.13799 4.24048 7.12699 4.21843ZM16.136 4.17434C16.136 4.17434 16.114 4.13026 16.136 4.10821C16.136 4.10821 16.191 4.07515 16.213 4.09719C16.213 4.09719 16.235 4.1523 16.213 4.17434C16.213 4.17434 16.191 4.19639 16.169 4.19639C16.169 4.19639 16.147 4.19639 16.136 4.17434ZM7.35799 3.99799C7.35799 3.99799 7.33599 3.9539 7.35799 3.93186C7.35799 3.93186 7.41299 3.90981 7.43499 3.93186C7.43499 3.93186 7.45699 3.98697 7.43499 4.00901C7.43499 4.00901 7.40199 4.02003 7.39099 4.02003C7.39099 4.02003 7.36899 4.02003 7.35799 3.99799ZM15.905 3.97595C15.905 3.97595 15.872 3.92084 15.905 3.89879C15.905 3.89879 15.96 3.87675 15.982 3.89879C15.982 3.89879 16.004 3.9539 15.993 3.97595C15.993 3.97595 15.96 3.99799 15.949 3.99799H15.916L15.905 3.97595ZM7.58899 3.79959C7.58899 3.79959 7.56699 3.73346 7.58899 3.72244C7.58899 3.72244 7.64399 3.7004 7.66599 3.72244C7.66599 3.72244 7.68799 3.77755 7.66599 3.79959C7.66599 3.79959 7.64399 3.81062 7.62199 3.81062C7.62199 3.81062 7.59999 3.81062 7.58899 3.79959ZM15.663 3.76653C15.663 3.76653 15.641 3.72244 15.663 3.7004C15.663 3.7004 15.707 3.66733 15.729 3.68937C15.729 3.68937 15.762 3.74448 15.729 3.76653C15.729 3.76653 15.707 3.78857 15.685 3.78857C15.685 3.78857 15.663 3.77755 15.652 3.76653H15.663ZM7.81999 3.59017C7.81999 3.59017 7.81999 3.53506 7.83099 3.51302C7.83099 3.51302 7.88599 3.49098 7.90799 3.51302C7.90799 3.51302 7.91899 3.57915 7.90799 3.59017C7.90799 3.59017 7.88599 3.61222 7.87499 3.61222C7.87499 3.61222 7.84199 3.6012 7.83099 3.59017H7.81999ZM15.421 3.56813C15.421 3.56813 15.399 3.51302 15.421 3.49098C15.421 3.49098 15.476 3.46893 15.498 3.49098C15.498 3.49098 15.531 3.54609 15.498 3.56813C15.498 3.56813 15.476 3.56813 15.454 3.56813C15.454 3.56813 15.432 3.56813 15.421 3.56813ZM8.06199 3.39178C8.06199 3.39178 8.03999 3.32565 8.06199 3.31462C8.06199 3.31462 8.11699 3.29258 8.13899 3.31462C8.13899 3.31462 8.13899 3.38076 8.12799 3.39178C8.12799 3.39178 8.10599 3.4028 8.09499 3.4028C8.09499 3.4028 8.06199 3.4028 8.05099 3.39178H8.06199ZM15.179 3.39178C15.179 3.39178 15.157 3.33667 15.179 3.31462C15.179 3.31462 15.234 3.28156 15.256 3.31462C15.256 3.31462 15.289 3.36973 15.256 3.39178C15.256 3.39178 15.234 3.41382 15.212 3.41382C15.212 3.41382 15.19 3.41382 15.179 3.41382V3.39178ZM8.30399 3.2044C8.30399 3.2044 8.30399 3.13827 8.31499 3.12725C8.31499 3.12725 8.36999 3.10521 8.39199 3.12725C8.39199 3.12725 8.40299 3.19338 8.39199 3.2044C8.39199 3.2044 8.36999 3.2044 8.35899 3.2044C8.35899 3.2044 8.32599 3.2044 8.31499 3.2044H8.30399ZM14.937 3.19338C14.937 3.19338 14.904 3.13827 14.937 3.11623C14.937 3.11623 14.981 3.09418 15.003 3.10521C15.003 3.10521 15.036 3.16032 15.003 3.18236C15.003 3.18236 14.981 3.2044 14.97 3.2044C14.97 3.2044 14.948 3.2044 14.937 3.19338ZM8.55699 3.00601C8.55699 3.00601 8.53499 2.9509 8.55699 2.92885C8.55699 2.92885 8.62299 2.91783 8.63399 2.92885C8.63399 2.92885 8.63399 2.98396 8.62299 3.00601C8.62299 3.00601 8.60099 3.00601 8.58999 3.00601C8.58999 3.00601 8.56799 3.00601 8.55699 2.98396V3.00601ZM14.684 3.00601C14.684 3.00601 14.651 2.9509 14.684 2.92885C14.684 2.92885 14.739 2.90681 14.761 2.91783C14.761 2.91783 14.783 2.97294 14.761 2.99498C14.761 2.99498 14.728 3.01703 14.717 3.01703C14.717 3.01703 14.695 3.01703 14.684 3.00601ZM8.79899 2.81863C8.79899 2.81863 8.78799 2.76352 8.79899 2.74148C8.79899 2.74148 8.85399 2.73046 8.87599 2.74148C8.87599 2.74148 8.87599 2.79659 8.86499 2.81863C8.86499 2.81863 8.84299 2.82965 8.83199 2.82965C8.83199 2.82965 8.79899 2.81863 8.78799 2.80761L8.79899 2.81863ZM14.431 2.81863C14.431 2.81863 14.398 2.77454 14.431 2.74148C14.431 2.74148 14.486 2.71943 14.508 2.73046C14.508 2.73046 14.541 2.78557 14.519 2.80761C14.519 2.80761 14.486 2.82965 14.475 2.82965C14.475 2.82965 14.453 2.82965 14.442 2.82965L14.431 2.81863ZM9.05199 2.63126C9.05199 2.63126 9.05199 2.57615 9.05199 2.5541C9.05199 2.5541 9.10699 2.5541 9.12899 2.56512C9.12899 2.56512 9.12899 2.63126 9.11799 2.64228C9.11799 2.64228 9.09599 2.6533 9.08499 2.6533C9.08499 2.6533 9.05199 2.64228 9.04099 2.63126H9.05199ZM14.178 2.63126C14.178 2.63126 14.145 2.57615 14.178 2.5541C14.178 2.5541 14.222 2.52104 14.255 2.54308C14.255 2.54308 14.277 2.59819 14.255 2.62024C14.255 2.62024 14.222 2.64228 14.211 2.64228C14.211 2.64228 14.189 2.63126 14.178 2.63126ZM9.30499 2.44388C9.30499 2.44388 9.30499 2.38877 9.32699 2.36673C9.32699 2.36673 9.38199 2.35571 9.39299 2.36673C9.39299 2.36673 9.39299 2.42184 9.38199 2.44388H9.35999C9.35999 2.44388 9.31599 2.44388 9.30499 2.42184V2.44388ZM13.925 2.4549C13.925 2.4549 13.903 2.39979 13.914 2.37775C13.914 2.37775 13.969 2.34468 13.991 2.37775C13.991 2.37775 14.024 2.42184 13.991 2.44388C13.991 2.44388 13.969 2.46593 13.947 2.46593H13.925V2.4549ZM9.56899 2.26753C9.56899 2.26753 9.55799 2.21242 9.56899 2.19038C9.56899 2.19038 9.63499 2.19038 9.64599 2.21242C9.64599 2.21242 9.65699 2.26753 9.64599 2.27855C9.64599 2.27855 9.62399 2.27855 9.61299 2.27855C9.61299 2.27855 9.57999 2.27855 9.56899 2.25651V2.26753ZM13.661 2.27855C13.661 2.27855 13.628 2.22344 13.661 2.2014C13.661 2.2014 13.705 2.16833 13.738 2.2014C13.738 2.2014 13.76 2.24549 13.749 2.26753C13.749 2.26753 13.716 2.3006 13.705 2.3006C13.705 2.3006 13.683 2.3006 13.672 2.3006L13.661 2.27855ZM9.83299 2.09118C9.83299 2.09118 9.83299 2.03607 9.84399 2.02504C9.84399 2.02504 9.90999 2.01402 9.92099 2.02504C9.92099 2.02504 9.92099 2.08015 9.89899 2.1022C9.89899 2.1022 9.88799 2.1022 9.87699 2.1022C9.87699 2.1022 9.84399 2.1022 9.83299 2.06913V2.09118ZM13.397 2.09118C13.397 2.09118 13.364 2.04709 13.397 2.01402C13.397 2.01402 13.441 1.99198 13.474 2.003C13.474 2.003 13.507 2.05811 13.474 2.08016C13.474 2.08016 13.452 2.1022 13.43 2.1022C13.43 2.1022 13.408 2.1022 13.397 2.09118ZM10.097 1.91482C10.097 1.91482 10.086 1.85971 10.119 1.83767C10.119 1.83767 10.174 1.83767 10.185 1.85971C10.185 1.85971 10.196 1.91482 10.163 1.93687H10.141C10.141 1.93687 10.108 1.93687 10.097 1.91482ZM13.133 1.92585C13.133 1.92585 13.1 1.88176 13.122 1.84869C13.122 1.84869 13.166 1.81563 13.199 1.83767C13.199 1.83767 13.221 1.88176 13.199 1.91482C13.199 1.91482 13.177 1.93687 13.155 1.93687C13.155 1.93687 13.133 1.93687 13.122 1.93687L13.133 1.92585ZM10.361 1.74949C10.361 1.74949 10.361 1.69438 10.383 1.68336C10.383 1.68336 10.438 1.68336 10.46 1.69438C10.46 1.69438 10.46 1.76052 10.438 1.77154C10.438 1.77154 10.416 1.78256 10.405 1.78256C10.405 1.78256 10.372 1.77154 10.361 1.74949ZM12.869 1.76052C12.869 1.76052 12.836 1.71643 12.858 1.68336C12.858 1.68336 12.902 1.6503 12.924 1.68336C12.924 1.68336 12.957 1.72745 12.946 1.76052C12.946 1.76052 12.913 1.78256 12.902 1.78256C12.902 1.78256 12.88 1.78256 12.869 1.78256V1.76052ZM10.636 1.59519C10.636 1.59519 10.636 1.54007 10.658 1.52905C10.658 1.52905 10.713 1.51803 10.724 1.52905C10.724 1.52905 10.724 1.59518 10.702 1.60621C10.702 1.60621 10.702 1.60621 10.68 1.60621C10.68 1.60621 10.647 1.60621 10.636 1.57314V1.59519ZM12.605 1.59519C12.605 1.59519 12.572 1.54007 12.583 1.51803C12.583 1.51803 12.627 1.48496 12.66 1.49599C12.66 1.49599 12.693 1.5511 12.671 1.57314C12.671 1.57314 12.649 1.59519 12.627 1.59519H12.605ZM10.911 1.42985C10.911 1.42985 10.911 1.37474 10.933 1.36372C10.933 1.36372 10.988 1.3527 10.999 1.38577C10.999 1.38577 10.999 1.44088 10.977 1.4519C10.977 1.4519 10.977 1.4519 10.955 1.4519C10.955 1.4519 10.922 1.4519 10.911 1.41883V1.42985ZM12.33 1.42985C12.33 1.42985 12.297 1.37474 12.308 1.3527C12.308 1.3527 12.363 1.31963 12.385 1.33066C12.385 1.33066 12.418 1.37474 12.407 1.40781C12.407 1.40781 12.374 1.42985 12.352 1.42985H12.33ZM11.186 1.27555C11.186 1.27555 11.186 1.22044 11.208 1.20941C11.208 1.20941 11.263 1.19839 11.285 1.23146C11.285 1.23146 11.285 1.28657 11.263 1.29759H11.241C11.241 1.29759 11.197 1.29759 11.186 1.26452V1.27555ZM12.055 1.27555C12.055 1.27555 12.022 1.23146 12.033 1.19839C12.033 1.19839 12.077 1.16533 12.11 1.17635C12.11 1.17635 12.143 1.23146 12.132 1.2535C12.132 1.2535 12.099 1.28657 12.077 1.28657C12.077 1.28657 12.077 1.28657 12.055 1.28657V1.27555ZM11.472 1.14328C11.472 1.14328 11.472 1.07715 11.494 1.06613C11.494 1.06613 11.549 1.06613 11.56 1.08817C11.56 1.08817 11.56 1.1543 11.538 1.16533H11.516C11.516 1.16533 11.472 1.1543 11.472 1.14328ZM11.78 1.13226C11.78 1.13226 11.747 1.08817 11.758 1.0551C11.758 1.0551 11.802 1.02204 11.824 1.03306C11.824 1.03306 11.868 1.07715 11.846 1.11022C11.846 1.11022 11.824 1.13226 11.802 1.13226H11.78Z" fill="#00FFC8"/>
<path d="M17.522 21.4018C17.522 21.4018 17.5 21.3467 17.522 21.3246C17.522 21.3246 17.577 21.3026 17.599 21.3246C17.599 21.3246 17.621 21.3797 17.599 21.4018C17.599 21.4018 17.577 21.4128 17.566 21.4128C17.566 21.4128 17.533 21.4128 17.522 21.4018ZM17.731 21.1703C17.731 21.1703 17.698 21.1152 17.731 21.0821C17.731 21.0821 17.786 21.0601 17.808 21.0821C17.808 21.0821 17.83 21.1373 17.819 21.1593C17.819 21.1593 17.786 21.1813 17.775 21.1813C17.775 21.1813 17.753 21.1813 17.742 21.1813L17.731 21.1703ZM17.929 20.9168C17.929 20.9168 17.896 20.8727 17.929 20.8507C17.929 20.8507 17.984 20.8176 18.006 20.8507C18.006 20.8507 18.028 20.9058 18.006 20.9278C18.006 20.9278 17.973 20.9499 17.962 20.9499C17.962 20.9499 17.94 20.9499 17.929 20.9278V20.9168ZM18.116 20.6743C18.116 20.6743 18.094 20.6192 18.116 20.5972C18.116 20.5972 18.16 20.5751 18.193 20.5972C18.193 20.5972 18.215 20.6413 18.193 20.6633C18.193 20.6633 18.171 20.6854 18.149 20.6854C18.149 20.6854 18.127 20.6854 18.116 20.6743ZM18.314 20.4318C18.314 20.4318 18.281 20.3767 18.303 20.3547C18.303 20.3547 18.358 20.3216 18.38 20.3547C18.38 20.3547 18.402 20.3988 18.38 20.4318C18.38 20.4318 18.347 20.4539 18.336 20.4539C18.336 20.4539 18.314 20.4539 18.303 20.4539L18.314 20.4318ZM18.501 20.1783C18.501 20.1783 18.468 20.1232 18.49 20.1012C18.49 20.1012 18.534 20.0681 18.567 20.1012C18.567 20.1012 18.589 20.1563 18.567 20.1783C18.567 20.1783 18.534 20.2004 18.523 20.2004C18.523 20.2004 18.501 20.2004 18.49 20.2004L18.501 20.1783ZM18.677 19.9248C18.677 19.9248 18.655 19.8697 18.677 19.8477C18.677 19.8477 18.732 19.8146 18.754 19.8477C18.754 19.8477 18.787 19.8918 18.754 19.9248C18.754 19.9248 18.732 19.9469 18.71 19.9469C18.71 19.9469 18.688 19.9469 18.677 19.9469V19.9248ZM18.864 19.6713C18.864 19.6713 18.831 19.6162 18.842 19.5942C18.842 19.5942 18.897 19.5611 18.919 19.5942C18.919 19.5942 18.952 19.6383 18.919 19.6603C18.919 19.6603 18.897 19.6823 18.875 19.6823H18.853L18.864 19.6713ZM19.04 19.4068C19.04 19.4068 19.007 19.3517 19.018 19.3296C19.018 19.3296 19.073 19.3076 19.095 19.3296C19.095 19.3296 19.128 19.3848 19.095 19.4068C19.095 19.4068 19.073 19.4288 19.051 19.4288H19.029L19.04 19.4068ZM19.205 19.1423C19.205 19.1423 19.172 19.0982 19.183 19.0761C19.183 19.0761 19.238 19.032 19.26 19.0541C19.26 19.0541 19.293 19.0982 19.282 19.1312C19.282 19.1312 19.249 19.1533 19.238 19.1533C19.238 19.1533 19.216 19.1533 19.205 19.1533V19.1423ZM19.37 18.8777C19.37 18.8777 19.337 18.8337 19.359 18.8006C19.359 18.8006 19.403 18.7675 19.425 18.7896C19.425 18.7896 19.458 18.8337 19.447 18.8667C19.447 18.8667 19.414 18.8888 19.403 18.8888C19.403 18.8888 19.381 18.8888 19.37 18.8777ZM19.535 18.6132C19.535 18.6132 19.502 18.5691 19.513 18.5361C19.513 18.5361 19.557 18.503 19.59 18.5361C19.59 18.5361 19.623 18.5801 19.612 18.6022C19.612 18.6022 19.579 18.6353 19.557 18.6353C19.557 18.6353 19.546 18.6353 19.535 18.6353V18.6132ZM19.689 18.3377C19.689 18.3377 19.656 18.2936 19.667 18.2715C19.667 18.2715 19.722 18.2274 19.744 18.2495C19.744 18.2495 19.777 18.2936 19.766 18.3156C19.766 18.3156 19.733 18.3487 19.722 18.3487C19.722 18.3487 19.7 18.3487 19.689 18.3487V18.3377ZM19.843 18.0731C19.843 18.0731 19.81 18.018 19.821 17.996C19.821 17.996 19.865 17.9629 19.898 17.9739C19.898 17.9739 19.931 18.018 19.92 18.0511C19.92 18.0511 19.887 18.0731 19.865 18.0731H19.843ZM19.997 17.7866C19.997 17.7866 19.953 17.7425 19.964 17.7204C19.964 17.7204 20.019 17.6874 20.041 17.6984C20.041 17.6984 20.074 17.7425 20.063 17.7645C20.063 17.7645 20.03 17.7976 20.019 17.7976H19.997V17.7866ZM20.129 17.511C20.129 17.511 20.096 17.4669 20.107 17.4449C20.107 17.4449 20.151 17.4008 20.184 17.4118C20.184 17.4118 20.217 17.4669 20.206 17.489C20.206 17.489 20.173 17.522 20.162 17.522C20.162 17.522 20.14 17.522 20.129 17.522V17.511ZM20.272 17.2355C20.272 17.2355 20.228 17.1914 20.239 17.1583C20.239 17.1583 20.294 17.1252 20.316 17.1363C20.316 17.1363 20.36 17.1803 20.338 17.2024C20.338 17.2024 20.316 17.2355 20.294 17.2355H20.272ZM20.404 16.9489C20.404 16.9489 20.36 16.9048 20.371 16.8717C20.371 16.8717 20.415 16.8387 20.448 16.8497C20.448 16.8497 20.481 16.8938 20.47 16.9158C20.47 16.9158 20.448 16.9489 20.426 16.9489H20.404ZM20.525 16.6623C20.525 16.6623 20.492 16.6182 20.503 16.5852C20.503 16.5852 20.547 16.5521 20.569 16.5631C20.569 16.5631 20.613 16.6072 20.591 16.6292C20.591 16.6292 20.558 16.6623 20.536 16.6623H20.514H20.525ZM20.646 16.3757C20.646 16.3757 20.613 16.3316 20.613 16.2986C20.613 16.2986 20.646 16.2655 20.679 16.2765C20.679 16.2765 20.712 16.3096 20.712 16.3427C20.712 16.3427 20.679 16.3757 20.657 16.3757H20.635H20.646ZM20.767 16.0781C20.767 16.0781 20.723 16.0341 20.734 16.012C20.734 16.012 20.767 15.9679 20.8 15.9789C20.8 15.9789 20.844 16.023 20.833 16.0451C20.833 16.0451 20.8 16.0781 20.778 16.0781H20.767ZM20.866 15.7805C20.866 15.7805 20.822 15.7475 20.844 15.7144C20.844 15.7144 20.877 15.6703 20.91 15.6813C20.91 15.6813 20.954 15.7254 20.943 15.7585C20.943 15.7585 20.91 15.7916 20.888 15.7916C20.888 15.7916 20.877 15.7916 20.866 15.7916V15.7805ZM20.976 15.494C20.976 15.494 20.932 15.4499 20.943 15.4168C20.943 15.4168 20.987 15.3838 21.02 15.3838C21.02 15.3838 21.064 15.4278 21.053 15.4609C21.053 15.4609 21.02 15.494 20.998 15.494H20.976ZM21.064 15.1854C21.064 15.1854 21.02 15.1523 21.031 15.1192C21.031 15.1192 21.075 15.0862 21.097 15.0862C21.097 15.0862 21.141 15.1302 21.13 15.1523C21.13 15.1523 21.097 15.1964 21.075 15.1964C21.075 15.1964 21.075 15.1964 21.053 15.1964L21.064 15.1854ZM21.152 14.8878C21.152 14.8878 21.108 14.8547 21.119 14.8216C21.119 14.8216 21.152 14.7775 21.185 14.7886C21.185 14.7886 21.229 14.8216 21.218 14.8547C21.218 14.8547 21.185 14.8878 21.163 14.8878H21.141H21.152ZM21.24 14.5902C21.24 14.5902 21.185 14.5571 21.196 14.524C21.196 14.524 21.229 14.4799 21.262 14.4799C21.262 14.4799 21.306 14.513 21.295 14.5461C21.295 14.5461 21.262 14.5902 21.24 14.5902H21.229H21.24ZM21.306 14.2815C21.306 14.2815 21.262 14.2485 21.273 14.2154C21.273 14.2154 21.306 14.1713 21.328 14.1824C21.328 14.1824 21.383 14.2154 21.372 14.2375C21.372 14.2375 21.35 14.2815 21.317 14.2815H21.306ZM21.372 13.9729C21.372 13.9729 21.328 13.9399 21.328 13.9178C21.328 13.9178 21.361 13.8627 21.394 13.8737C21.394 13.8737 21.438 13.9068 21.438 13.9288C21.438 13.9288 21.405 13.9729 21.383 13.9729H21.372ZM21.427 13.6643C21.427 13.6643 21.383 13.6423 21.383 13.6092C21.383 13.6092 21.416 13.5541 21.449 13.5651C21.449 13.5651 21.493 13.5982 21.493 13.6202C21.493 13.6202 21.46 13.6643 21.438 13.6643H21.427ZM21.482 13.3557C21.482 13.3557 21.427 13.3226 21.427 13.3006C21.427 13.3006 21.46 13.2455 21.493 13.2565C21.493 13.2565 21.537 13.2785 21.537 13.3116C21.537 13.3116 21.515 13.3557 21.482 13.3557ZM21.515 13.0471C21.515 13.0471 21.46 13.014 21.46 12.992C21.46 12.992 21.493 12.9369 21.515 12.9369C21.515 12.9369 21.57 12.9699 21.57 12.992C21.57 12.992 21.548 13.0471 21.515 13.0471ZM21.482 12.6834C21.482 12.6834 21.504 12.6282 21.526 12.6282C21.526 12.6282 21.581 12.6503 21.581 12.6834C21.581 12.6834 21.559 12.7385 21.526 12.7385C21.526 12.7385 21.482 12.7054 21.482 12.6834Z" fill="#00FFC8"/>
<path d="M5.88402 21.1152C5.88402 21.1152 5.85102 21.0601 5.87302 21.038C5.87302 21.038 5.92802 21.005 5.95002 21.038C5.95002 21.038 5.97202 21.0821 5.95002 21.1152C5.95002 21.1152 5.91702 21.1372 5.90602 21.1372C5.90602 21.1372 5.88402 21.1372 5.87302 21.1372L5.88402 21.1152ZM5.63102 20.9168C5.63102 20.9168 5.60902 20.8617 5.63102 20.8396C5.63102 20.8396 5.68602 20.8176 5.70802 20.8396C5.70802 20.8396 5.73002 20.8948 5.71902 20.9168C5.71902 20.9168 5.68602 20.9388 5.67502 20.9388C5.67502 20.9388 5.64202 20.9388 5.63102 20.9388V20.9168ZM5.41102 20.6964C5.41102 20.6964 5.38902 20.6302 5.41102 20.6192C5.41102 20.6192 5.46602 20.5972 5.48802 20.6192C5.48802 20.6192 5.51002 20.6743 5.48802 20.6964C5.48802 20.6964 5.45502 20.6964 5.44402 20.6964C5.44402 20.6964 5.42202 20.6964 5.41102 20.6964ZM5.20202 20.4539C5.20202 20.4539 5.18002 20.3988 5.20202 20.3767C5.20202 20.3767 5.25702 20.3767 5.27902 20.3767C5.27902 20.3767 5.30102 20.4318 5.27902 20.4539C5.27902 20.4539 5.24602 20.4539 5.23502 20.4539C5.23502 20.4539 5.21302 20.4539 5.20202 20.4318V20.4539ZM5.00402 20.2114C5.00402 20.2114 5.00402 20.1453 5.01502 20.1342C5.01502 20.1342 5.07002 20.1232 5.09202 20.1342C5.09202 20.1342 5.10302 20.1893 5.09202 20.2114C5.09202 20.2114 5.07002 20.2114 5.05902 20.2114C5.05902 20.2114 5.02602 20.2114 5.01502 20.1893L5.00402 20.2114ZM4.81702 19.9469C4.81702 19.9469 4.81702 19.8917 4.82802 19.8807C4.82802 19.8807 4.89402 19.8807 4.90502 19.8807C4.90502 19.8807 4.91602 19.9358 4.90502 19.9579H4.87202C4.87202 19.9579 4.83902 19.9579 4.82802 19.9358L4.81702 19.9469ZM4.65202 19.6823C4.65202 19.6823 4.65202 19.6272 4.65202 19.6162C4.65202 19.6162 4.70702 19.6162 4.72902 19.6272C4.72902 19.6272 4.72902 19.6934 4.70702 19.7044C4.70702 19.7044 4.69602 19.7154 4.68502 19.7154C4.68502 19.7154 4.65202 19.7044 4.64102 19.6823H4.65202ZM4.48702 19.4178C4.48702 19.4178 4.48702 19.3517 4.50902 19.3406C4.50902 19.3406 4.56402 19.3406 4.57502 19.3627C4.57502 19.3627 4.57502 19.4178 4.56402 19.4288C4.56402 19.4288 4.54202 19.4398 4.53102 19.4398C4.53102 19.4398 4.49802 19.4288 4.48702 19.4178ZM4.33302 19.1423C4.33302 19.1423 4.33302 19.0761 4.35502 19.0651C4.35502 19.0651 4.42102 19.0651 4.43202 19.0871C4.43202 19.0871 4.43202 19.1533 4.41002 19.1643H4.38802C4.38802 19.1643 4.34402 19.1533 4.33302 19.1423ZM4.19002 18.8557C4.19002 18.8557 4.19002 18.8006 4.21202 18.7895C4.21202 18.7895 4.27802 18.7895 4.28902 18.8116C4.28902 18.8116 4.28902 18.8667 4.26702 18.8777L4.24502 18.8887C4.24502 18.8887 4.20102 18.8777 4.19002 18.8557ZM4.05802 18.5691C4.05802 18.5691 4.05802 18.514 4.08002 18.503C4.08002 18.503 4.14602 18.503 4.15702 18.525C4.15702 18.525 4.15702 18.5911 4.12402 18.6022H4.10202C4.10202 18.6022 4.06902 18.6022 4.05802 18.5691ZM3.80503 17.996C3.80503 17.996 3.80503 17.9408 3.83802 17.9298C3.83802 17.9298 3.89302 17.9298 3.90402 17.9519C3.90402 17.9519 3.90402 18.018 3.88202 18.029H3.86002C3.86002 18.029 3.81603 18.029 3.80503 17.996ZM3.69503 17.6984C3.69503 17.6984 3.69502 17.6433 3.71703 17.6322C3.71703 17.6322 3.78303 17.6322 3.79403 17.6653C3.79403 17.6653 3.78302 17.7204 3.76102 17.7314H3.73902C3.73902 17.7314 3.69503 17.7314 3.69503 17.6984ZM3.57403 17.4118C3.57403 17.4118 3.57403 17.3567 3.60703 17.3457C3.60703 17.3457 3.67303 17.3457 3.68403 17.3677C3.68403 17.3677 3.67303 17.4338 3.65103 17.4449H3.62903C3.62903 17.4449 3.58503 17.4449 3.57403 17.4118ZM3.47503 17.1142C3.47503 17.1142 3.47503 17.0591 3.50803 17.0481C3.50803 17.0481 3.56303 17.0481 3.57403 17.0811C3.57403 17.0811 3.57403 17.1362 3.54103 17.1473H3.51903C3.51903 17.1473 3.48603 17.1362 3.47503 17.1142ZM3.37603 16.8166C3.37603 16.8166 3.37603 16.7505 3.40903 16.7505C3.40903 16.7505 3.46403 16.7505 3.47503 16.7835C3.47503 16.7835 3.46403 16.8386 3.44203 16.8497H3.42003C3.42003 16.8497 3.37603 16.8497 3.37603 16.8166ZM3.27703 16.519C3.27703 16.519 3.27703 16.4529 3.31003 16.4529C3.31003 16.4529 3.36503 16.4529 3.37603 16.4859C3.37603 16.4859 3.37603 16.541 3.34303 16.5521H3.33203C3.33203 16.5521 3.28803 16.541 3.27703 16.519ZM3.17803 16.2104C3.17803 16.2104 3.17803 16.1553 3.22203 16.1443C3.22203 16.1443 3.27703 16.1443 3.28803 16.1883C3.28803 16.1883 3.28803 16.2435 3.24403 16.2545H3.23303C3.23303 16.2545 3.18903 16.2545 3.17803 16.2104ZM3.09003 15.9128C3.09003 15.9128 3.09003 15.8577 3.13403 15.8467C3.13403 15.8467 3.18903 15.8577 3.20003 15.8797C3.20003 15.8797 3.18903 15.9459 3.15603 15.9459L3.14503 15.9569C3.14503 15.9569 3.10103 15.9348 3.09003 15.9128ZM3.01303 15.6152C3.01303 15.6152 3.01303 15.5491 3.04603 15.5491C3.04603 15.5491 3.10103 15.5491 3.11203 15.5821C3.11203 15.5821 3.10103 15.6372 3.07903 15.6483H3.05703C3.05703 15.6483 3.01303 15.6483 3.01303 15.6152ZM2.92503 15.3066C2.92503 15.3066 2.92503 15.2515 2.96903 15.2404C2.96903 15.2404 3.02403 15.2404 3.03503 15.2845C3.03503 15.2845 3.03503 15.3396 2.99103 15.3507H2.98003C2.98003 15.3507 2.93603 15.3286 2.92503 15.3066ZM2.84803 14.998C2.84803 14.998 2.85903 14.9429 2.89203 14.9318C2.89203 14.9318 2.94703 14.9429 2.95803 14.9759C2.95803 14.9759 2.95803 15.031 2.91403 15.0421C2.91403 15.0421 2.87003 15.0421 2.85903 14.998H2.84803ZM2.77103 14.7004C2.77103 14.7004 2.77103 14.6342 2.81503 14.6342C2.81503 14.6342 2.87003 14.6342 2.88103 14.6783C2.88103 14.6783 2.87003 14.7334 2.83703 14.7334H2.82603C2.82603 14.7334 2.78203 14.7334 2.77103 14.7004ZM2.70503 14.3917C2.70503 14.3917 2.71603 14.3366 2.74903 14.3256C2.74903 14.3256 2.80403 14.3256 2.81503 14.3697C2.81503 14.3697 2.79303 14.4248 2.77103 14.4248C2.77103 14.4248 2.76003 14.4358 2.74903 14.4358C2.74903 14.4358 2.71603 14.4138 2.70503 14.3917ZM2.63903 14.0831C2.63903 14.0831 2.65003 14.028 2.68303 14.017C2.68303 14.017 2.73803 14.028 2.73803 14.0611C2.73803 14.0611 2.73803 14.1162 2.70503 14.1272C2.70503 14.1272 2.65003 14.1052 2.65003 14.0831H2.63903ZM2.57303 13.7745C2.57303 13.7745 2.58403 13.7194 2.61703 13.7084C2.61703 13.7084 2.67203 13.7304 2.68303 13.7525C2.68303 13.7525 2.66103 13.8076 2.63903 13.8186C2.63903 13.8186 2.58403 13.7966 2.58403 13.7745H2.57303ZM2.51803 13.4659C2.51803 13.4659 2.51803 13.4108 2.55103 13.3998C2.55103 13.3998 2.61703 13.3998 2.61703 13.4439C2.61703 13.4439 2.61703 13.499 2.57303 13.51C2.57303 13.51 2.52903 13.4879 2.52903 13.4659H2.51803ZM2.45203 13.1573C2.45203 13.1573 2.47403 13.0911 2.50703 13.0911C2.50703 13.0911 2.56203 13.1132 2.56203 13.1352C2.56203 13.1352 2.55103 13.1903 2.51803 13.2014C2.51803 13.2014 2.46303 13.1793 2.45203 13.1573Z" fill="#00FFC8"/>
<path d="M8.41406 1.66131L8.31506 2.74147L11.7471 4.47194L15.2671 2.78556L15.0471 1.47394" stroke="#00FFC8" stroke-width="0.25" stroke-linecap="round" stroke-linejoin="round"/>
<path d="M14.0569 22.7685L11.8569 21.9749L9.88794 22.7134" stroke="#00FFC8" stroke-width="0.25" stroke-linecap="round" stroke-linejoin="round"/>
<path d="M11.703 1.04406C11.703 1.04406 11.791 5.40879 11.846 10.3908" stroke="#00FFC8" stroke-width="0.25" stroke-linecap="round" stroke-linejoin="round"/>
<path d="M11.857 22.9449C11.857 21.8978 11.813 18.2495 11.813 18.2495" stroke="#00FFC8" stroke-width="0.25" stroke-linecap="round" stroke-linejoin="round"/>
<path d="M11.769 6.62124C11.9695 6.62124 12.132 6.4584 12.132 6.25752C12.132 6.05664 11.9695 5.89379 11.769 5.89379C11.5685 5.89379 11.406 6.05664 11.406 6.25752C11.406 6.4584 11.5685 6.62124 11.769 6.62124Z" fill="#00FFC8"/>
<path d="M11.857 21.6002C12.0575 21.6002 12.22 21.4373 12.22 21.2364C12.22 21.0356 12.0575 20.8727 11.857 20.8727C11.6565 20.8727 11.494 21.0356 11.494 21.2364C11.494 21.4373 11.6565 21.6002 11.857 21.6002Z" fill="#00FFC8"/>
<path d="M11.868 10.3467C11.868 10.3467 11.835 10.3026 11.857 10.2806C11.857 10.2806 11.901 10.2475 11.934 10.2585C11.934 10.2585 11.967 10.3136 11.934 10.3357C11.934 10.3357 11.912 10.3577 11.89 10.3577C11.89 10.3577 11.868 10.3577 11.857 10.3467H11.868ZM11.703 10.2365C11.703 10.2365 11.692 10.1703 11.703 10.1593C11.703 10.1593 11.769 10.1593 11.78 10.1814C11.78 10.1814 11.78 10.2365 11.758 10.2475C11.758 10.2475 11.747 10.2475 11.736 10.2475C11.736 10.2475 11.692 10.2475 11.692 10.2255L11.703 10.2365ZM12.044 10.0932C12.044 10.0932 12.011 10.0381 12.033 10.016C12.033 10.016 12.077 9.98297 12.11 10.005C12.11 10.005 12.132 10.0491 12.121 10.0711C12.121 10.0711 12.099 10.1042 12.077 10.1042C12.077 10.1042 12.055 10.0932 12.044 10.0932ZM11.538 9.96093C11.538 9.96093 11.538 9.90582 11.549 9.89479C11.549 9.89479 11.615 9.89479 11.626 9.90582C11.626 9.90582 11.637 9.97195 11.626 9.98297C11.626 9.98297 11.604 9.99399 11.593 9.99399C11.593 9.99399 11.56 9.98297 11.549 9.96093H11.538ZM12.22 9.82866C12.22 9.82866 12.198 9.78457 12.22 9.75151C12.22 9.75151 12.275 9.72946 12.297 9.75151C12.297 9.75151 12.33 9.80662 12.308 9.82866C12.308 9.82866 12.286 9.85071 12.264 9.85071C12.264 9.85071 12.242 9.85071 12.231 9.85071L12.22 9.82866ZM11.362 9.70742C11.362 9.70742 11.351 9.64129 11.384 9.63027C11.384 9.63027 11.439 9.61924 11.45 9.63027C11.45 9.63027 11.45 9.68538 11.439 9.70742C11.439 9.70742 11.417 9.70742 11.406 9.70742C11.406 9.70742 11.373 9.70742 11.362 9.68538V9.70742ZM12.407 9.57516C12.407 9.57516 12.374 9.52005 12.407 9.498C12.407 9.498 12.451 9.46494 12.473 9.498C12.473 9.498 12.506 9.55311 12.473 9.57516C12.473 9.57516 12.451 9.5972 12.44 9.5972C12.44 9.5972 12.418 9.5972 12.407 9.5972V9.57516ZM11.186 9.45391C11.186 9.45391 11.186 9.38778 11.197 9.37676C11.197 9.37676 11.252 9.36574 11.274 9.37676C11.274 9.37676 11.274 9.43187 11.263 9.45391C11.263 9.45391 11.241 9.45391 11.23 9.45391C11.23 9.45391 11.197 9.45391 11.186 9.43187V9.45391ZM12.594 9.32165C12.594 9.32165 12.561 9.26654 12.583 9.24449C12.583 9.24449 12.627 9.21143 12.649 9.24449C12.649 9.24449 12.682 9.2996 12.649 9.32165C12.649 9.32165 12.627 9.34369 12.605 9.34369H12.583L12.594 9.32165ZM10.999 9.20041C10.999 9.20041 10.988 9.1453 10.999 9.12325C10.999 9.12325 11.054 9.11223 11.076 9.12325C11.076 9.12325 11.076 9.17836 11.065 9.20041C11.065 9.20041 11.043 9.20041 11.032 9.20041C11.032 9.20041 10.999 9.20041 10.988 9.17836L10.999 9.20041ZM12.781 9.06814C12.781 9.06814 12.748 9.01303 12.77 8.99099C12.77 8.99099 12.814 8.96894 12.836 8.99099C12.836 8.99099 12.869 9.0461 12.847 9.06814C12.847 9.06814 12.825 9.09019 12.803 9.09019C12.803 9.09019 12.781 9.09019 12.781 9.07916V9.06814ZM10.801 8.95792C10.801 8.95792 10.801 8.90281 10.812 8.88077C10.812 8.88077 10.867 8.88077 10.889 8.89179C10.889 8.89179 10.9 8.9469 10.889 8.96894C10.889 8.96894 10.867 8.97997 10.856 8.97997C10.856 8.97997 10.823 8.96894 10.812 8.95792H10.801ZM12.968 8.81463C12.968 8.81463 12.935 8.77055 12.957 8.7485C12.957 8.7485 13.012 8.71544 13.034 8.73748C13.034 8.73748 13.056 8.79259 13.034 8.81463C13.034 8.81463 13.001 8.82566 12.99 8.82566C12.99 8.82566 12.968 8.82566 12.957 8.81463H12.968ZM10.603 8.71544C10.603 8.71544 10.581 8.66033 10.603 8.6493C10.603 8.6493 10.658 8.62726 10.68 8.6493C10.68 8.6493 10.702 8.70441 10.68 8.72646C10.68 8.72646 10.658 8.72646 10.647 8.72646C10.647 8.72646 10.614 8.72646 10.603 8.70441V8.71544ZM13.166 8.57215C13.166 8.57215 13.133 8.51704 13.166 8.495C13.166 8.495 13.221 8.47295 13.243 8.495C13.243 8.495 13.265 8.53908 13.243 8.56113C13.243 8.56113 13.221 8.58317 13.21 8.58317H13.177L13.166 8.57215ZM10.394 8.48397C10.394 8.48397 10.372 8.42886 10.394 8.41784C10.394 8.41784 10.449 8.3958 10.471 8.41784C10.471 8.41784 10.493 8.47295 10.471 8.495C10.471 8.495 10.449 8.495 10.438 8.495C10.438 8.495 10.405 8.495 10.394 8.47295V8.48397ZM13.353 8.32967C13.353 8.32967 13.331 8.27455 13.353 8.25251C13.353 8.25251 13.397 8.23047 13.419 8.24149C13.419 8.24149 13.452 8.2966 13.419 8.31864C13.419 8.31864 13.397 8.34069 13.375 8.34069C13.375 8.34069 13.353 8.34069 13.342 8.32967H13.353ZM10.174 8.26353C10.174 8.26353 10.152 8.20842 10.174 8.18638C10.174 8.18638 10.229 8.16433 10.251 8.18638C10.251 8.18638 10.273 8.24149 10.251 8.26353C10.251 8.26353 10.229 8.27455 10.218 8.27455C10.218 8.27455 10.185 8.27455 10.174 8.26353ZM13.551 8.08718C13.551 8.08718 13.529 8.03207 13.551 8.01003C13.551 8.01003 13.606 7.98798 13.628 8.01003C13.628 8.01003 13.65 8.05411 13.628 8.07616C13.628 8.07616 13.606 8.0982 13.584 8.0982C13.584 8.0982 13.562 8.0982 13.551 8.0982V8.08718ZM9.954 8.04309C9.954 8.04309 9.932 7.98798 9.954 7.96594C9.954 7.96594 10.009 7.94389 10.031 7.96594C10.031 7.96594 10.053 8.02105 10.031 8.04309C10.031 8.04309 10.009 8.04309 9.998 8.04309C9.998 8.04309 9.965 8.04309 9.954 8.04309ZM13.76 7.8447C13.76 7.8447 13.738 7.78958 13.76 7.76754C13.76 7.76754 13.804 7.7455 13.826 7.76754C13.826 7.76754 13.859 7.82265 13.826 7.8447C13.826 7.8447 13.793 7.85572 13.782 7.85572C13.782 7.85572 13.76 7.85572 13.749 7.8447H13.76ZM9.734 7.8447C9.734 7.8447 9.701 7.78958 9.723 7.76754C9.723 7.76754 9.778 7.7455 9.8 7.76754C9.8 7.76754 9.822 7.82265 9.8 7.85572C9.8 7.85572 9.778 7.85572 9.767 7.85572H9.734V7.8447ZM9.492 7.62425C9.492 7.62425 9.47 7.56914 9.492 7.5471C9.492 7.5471 9.536 7.52506 9.558 7.5471C9.558 7.5471 9.591 7.60221 9.569 7.62425C9.569 7.62425 9.547 7.62425 9.525 7.62425C9.525 7.62425 9.503 7.62425 9.492 7.62425ZM13.969 7.61323C13.969 7.61323 13.936 7.55812 13.969 7.53608C13.969 7.53608 14.024 7.51403 14.046 7.53608C14.046 7.53608 14.068 7.58017 14.046 7.61323C14.046 7.61323 14.024 7.62425 14.013 7.62425C14.013 7.62425 13.991 7.62425 13.98 7.61323H13.969ZM9.25 7.42586C9.25 7.42586 9.228 7.37075 9.25 7.3487C9.25 7.3487 9.294 7.32666 9.316 7.33768C9.316 7.33768 9.338 7.39279 9.316 7.41483C9.316 7.41483 9.294 7.43688 9.283 7.43688C9.283 7.43688 9.25 7.43688 9.239 7.43688L9.25 7.42586ZM14.178 7.38177C14.178 7.38177 14.156 7.32666 14.178 7.30461C14.178 7.30461 14.233 7.28257 14.255 7.30461C14.255 7.30461 14.277 7.3487 14.255 7.37075C14.255 7.37075 14.233 7.39279 14.222 7.39279L14.189 7.38177H14.178ZM9.008 7.23848C9.008 7.23848 8.986 7.18337 9.008 7.16133C9.008 7.16133 9.063 7.12826 9.085 7.16133C9.085 7.16133 9.118 7.20542 9.085 7.23848C9.085 7.23848 9.063 7.26053 9.041 7.26053C9.041 7.26053 9.019 7.26053 9.008 7.26053V7.23848ZM14.387 7.15031C14.387 7.15031 14.365 7.0952 14.387 7.07315C14.387 7.07315 14.442 7.05111 14.464 7.07315C14.464 7.07315 14.497 7.11724 14.475 7.15031C14.475 7.15031 14.442 7.15031 14.431 7.15031C14.431 7.15031 14.409 7.15031 14.398 7.15031H14.387ZM8.755 7.05111C8.755 7.05111 8.733 6.996 8.755 6.97395C8.755 6.97395 8.81 6.94089 8.832 6.97395C8.832 6.97395 8.865 7.01804 8.832 7.05111C8.832 7.05111 8.81 7.07315 8.788 7.07315C8.788 7.07315 8.766 7.07315 8.755 7.07315V7.05111ZM14.596 6.91884C14.596 6.91884 14.574 6.86373 14.596 6.84169C14.596 6.84169 14.651 6.81964 14.673 6.84169C14.673 6.84169 14.695 6.8968 14.673 6.91884C14.673 6.91884 14.651 6.91884 14.64 6.91884C14.64 6.91884 14.607 6.91884 14.596 6.91884ZM8.502 6.87476C8.502 6.87476 8.469 6.81964 8.502 6.7976C8.502 6.7976 8.546 6.76453 8.579 6.78658C8.579 6.78658 8.601 6.83067 8.579 6.85271C8.579 6.85271 8.546 6.87476 8.535 6.87476H8.502ZM14.816 6.6984C14.816 6.6984 14.794 6.64329 14.816 6.62125C14.816 6.62125 14.871 6.5992 14.893 6.62125C14.893 6.62125 14.915 6.67636 14.893 6.6984C14.893 6.6984 14.871 6.70942 14.86 6.70942C14.86 6.70942 14.827 6.70942 14.816 6.6984ZM8.249 6.6984C8.249 6.6984 8.216 6.65431 8.227 6.62125C8.227 6.62125 8.271 6.5992 8.304 6.61023C8.304 6.61023 8.337 6.65431 8.315 6.68738C8.315 6.68738 8.293 6.70942 8.271 6.70942C8.271 6.70942 8.249 6.70942 8.249 6.6984ZM7.974 6.53307C7.974 6.53307 7.941 6.48898 7.963 6.46694C7.963 6.46694 8.007 6.43387 8.029 6.4449C8.029 6.4449 8.062 6.50001 8.051 6.52205C8.051 6.52205 8.029 6.54409 8.007 6.54409C8.007 6.54409 7.985 6.54409 7.974 6.53307ZM15.047 6.47796C15.047 6.47796 15.025 6.42285 15.047 6.40081C15.047 6.40081 15.102 6.37876 15.113 6.40081C15.113 6.40081 15.135 6.45592 15.113 6.47796C15.113 6.47796 15.091 6.47796 15.08 6.47796H15.047ZM7.71 6.37876C7.71 6.37876 7.677 6.33467 7.688 6.31263C7.688 6.31263 7.732 6.27956 7.765 6.29059C7.765 6.29059 7.798 6.33467 7.787 6.36774C7.787 6.36774 7.754 6.38979 7.732 6.38979C7.732 6.38979 7.732 6.38979 7.71 6.37876ZM15.267 6.25752C15.267 6.25752 15.245 6.20241 15.267 6.18037C15.267 6.18037 15.322 6.15832 15.344 6.18037C15.344 6.18037 15.366 6.23548 15.344 6.25752C15.344 6.25752 15.322 6.26854 15.3 6.26854C15.3 6.26854 15.278 6.26854 15.267 6.25752ZM7.435 6.23548C7.435 6.23548 7.402 6.19139 7.413 6.15832C7.413 6.15832 7.457 6.12526 7.479 6.13628C7.479 6.13628 7.523 6.19139 7.501 6.21343C7.501 6.21343 7.479 6.2465 7.457 6.2465C7.457 6.2465 7.457 6.23548 7.435 6.23548ZM7.16 6.10321C7.16 6.10321 7.116 6.0481 7.127 6.02606C7.127 6.02606 7.171 5.98197 7.204 6.00401C7.204 6.00401 7.237 6.0481 7.226 6.07015C7.226 6.07015 7.204 6.10321 7.182 6.10321H7.16ZM15.498 6.0481C15.498 6.0481 15.476 5.99299 15.498 5.97095C15.498 5.97095 15.553 5.9489 15.575 5.97095C15.575 5.97095 15.597 6.02606 15.575 6.0481C15.575 6.0481 15.553 6.0481 15.531 6.0481C15.531 6.0481 15.509 6.0481 15.498 6.0481ZM6.874 5.97095C6.874 5.97095 6.83 5.92686 6.841 5.89379C6.841 5.89379 6.885 5.86073 6.918 5.87175C6.918 5.87175 6.962 5.91584 6.94 5.93788C6.94 5.93788 6.918 5.97095 6.896 5.97095H6.874ZM15.729 5.83868C15.729 5.83868 15.707 5.78357 15.729 5.76153C15.729 5.76153 15.784 5.73948 15.806 5.76153C15.806 5.76153 15.828 5.81664 15.806 5.83868C15.806 5.83868 15.784 5.83868 15.773 5.83868C15.773 5.83868 15.74 5.83868 15.729 5.83868ZM6.588 5.83868C6.588 5.83868 6.544 5.80562 6.555 5.77255C6.555 5.77255 6.599 5.72846 6.632 5.73948C6.632 5.73948 6.665 5.78357 6.654 5.81664C6.654 5.81664 6.632 5.84971 6.61 5.84971C6.61 5.84971 6.61 5.84971 6.588 5.84971V5.83868ZM6.302 5.72846C6.302 5.72846 6.258 5.68437 6.269 5.66233C6.269 5.66233 6.313 5.61824 6.335 5.62926C6.335 5.62926 6.379 5.67335 6.368 5.6954C6.368 5.6954 6.335 5.72846 6.313 5.72846H6.302ZM15.96 5.62926C15.96 5.62926 15.96 5.57415 15.96 5.55211C15.96 5.55211 16.015 5.55211 16.037 5.56313C16.037 5.56313 16.037 5.61824 16.037 5.64029C16.037 5.64029 16.015 5.65131 16.004 5.65131C16.004 5.65131 15.971 5.64029 15.96 5.62926ZM6.005 5.62926C6.005 5.62926 5.961 5.58518 5.972 5.55211C5.972 5.55211 6.016 5.50802 6.038 5.51904C6.038 5.51904 6.082 5.56313 6.071 5.58518C6.071 5.58518 6.049 5.62926 6.027 5.62926H6.005ZM5.708 5.51904C5.708 5.51904 5.664 5.48598 5.675 5.46393C5.675 5.46393 5.719 5.40882 5.741 5.41984C5.741 5.41984 5.785 5.46393 5.774 5.48598C5.774 5.48598 5.752 5.53007 5.73 5.53007C5.73 5.53007 5.73 5.53007 5.708 5.53007V5.51904ZM16.202 5.43087C16.202 5.43087 16.202 5.37576 16.213 5.35371C16.213 5.35371 16.268 5.34269 16.29 5.35371C16.29 5.35371 16.301 5.40882 16.29 5.43087C16.29 5.43087 16.268 5.43087 16.257 5.43087C16.257 5.43087 16.224 5.43087 16.213 5.40882L16.202 5.43087ZM5.411 5.43087C5.411 5.43087 5.367 5.3978 5.378 5.36474C5.378 5.36474 5.411 5.32065 5.444 5.33167C5.444 5.33167 5.488 5.36473 5.477 5.3978C5.477 5.3978 5.455 5.44189 5.422 5.44189H5.411V5.43087ZM5.114 5.34269C5.114 5.34269 5.07 5.30963 5.07 5.27656C5.07 5.27656 5.114 5.23247 5.136 5.24349C5.136 5.24349 5.18 5.27656 5.18 5.30962C5.18 5.30962 5.147 5.34269 5.125 5.34269H5.114ZM4.806 5.26554C4.806 5.26554 4.762 5.23247 4.773 5.21043C4.773 5.21043 4.806 5.15532 4.828 5.16634C4.828 5.16634 4.883 5.1994 4.872 5.23247C4.872 5.23247 4.85 5.27656 4.828 5.27656C4.828 5.27656 4.817 5.27656 4.806 5.26554ZM16.455 5.23247C16.455 5.23247 16.433 5.16634 16.455 5.15532C16.455 5.15532 16.51 5.13327 16.532 5.15532C16.532 5.15532 16.532 5.21043 16.532 5.22145C16.532 5.22145 16.51 5.22145 16.499 5.22145C16.499 5.22145 16.466 5.22145 16.455 5.22145V5.23247ZM4.465 5.14429C4.465 5.14429 4.498 5.08918 4.531 5.10021C4.531 5.10021 4.575 5.13327 4.564 5.16634C4.564 5.16634 4.531 5.21043 4.509 5.1994C4.509 5.1994 4.454 5.16634 4.465 5.14429ZM4.201 5.14429C4.201 5.14429 4.157 5.11123 4.157 5.08918C4.157 5.08918 4.19 5.03407 4.223 5.0451C4.223 5.0451 4.267 5.07816 4.256 5.10021C4.256 5.10021 4.234 5.14429 4.212 5.14429H4.201ZM3.893 5.10021C3.893 5.10021 3.83801 5.06714 3.849 5.03407C3.849 5.03407 3.882 4.98999 3.904 4.98999C3.904 4.98999 3.959 5.02305 3.948 5.05612C3.948 5.05612 3.926 5.10021 3.904 5.10021H3.893ZM3.58501 5.05612C3.58501 5.05612 3.53001 5.03407 3.54101 5.00101C3.54101 5.00101 3.56301 4.9459 3.59601 4.95692C3.59601 4.95692 3.65101 4.97896 3.64001 5.01203C3.64001 5.01203 3.61801 5.05612 3.59601 5.05612H3.58501ZM16.708 5.03407C16.708 5.03407 16.686 4.97896 16.708 4.95692C16.708 4.95692 16.774 4.9459 16.785 4.97896C16.785 4.97896 16.785 5.03407 16.785 5.0451C16.785 5.0451 16.763 5.0451 16.752 5.0451C16.752 5.0451 16.719 5.0451 16.719 5.02305L16.708 5.03407ZM16.961 4.85772C16.961 4.85772 16.961 4.79159 16.961 4.78057C16.961 4.78057 17.016 4.78057 17.038 4.79159C17.038 4.79159 17.038 4.8467 17.016 4.86874C17.016 4.86874 17.016 4.87977 16.994 4.87977C16.994 4.87977 16.961 4.86874 16.95 4.85772H16.961ZM17.214 4.68137C17.214 4.68137 17.203 4.61524 17.236 4.60421C17.236 4.60421 17.291 4.59319 17.302 4.60421C17.302 4.60421 17.313 4.67035 17.302 4.68137C17.302 4.68137 17.28 4.69239 17.269 4.69239C17.269 4.69239 17.236 4.68137 17.225 4.67035L17.214 4.68137ZM17.478 4.51604C17.478 4.51604 17.478 4.44991 17.5 4.43888C17.5 4.43888 17.555 4.43888 17.577 4.44991C17.577 4.44991 17.577 4.51604 17.555 4.52706C17.555 4.52706 17.533 4.53808 17.522 4.53808C17.522 4.53808 17.489 4.52706 17.478 4.51604ZM17.753 4.35071C17.753 4.35071 17.753 4.2956 17.764 4.27355C17.764 4.27355 17.83 4.27355 17.841 4.2956C17.841 4.2956 17.841 4.35071 17.819 4.37275H17.797C17.797 4.37275 17.764 4.37275 17.753 4.35071ZM18.017 4.1964C18.017 4.1964 18.017 4.14129 18.039 4.13027C18.039 4.13027 18.105 4.11924 18.116 4.13027C18.116 4.13027 18.116 4.1964 18.094 4.20742H18.072C18.072 4.20742 18.028 4.20742 18.017 4.17435V4.1964ZM18.303 4.05311C18.303 4.05311 18.303 3.998 18.325 3.98698C18.325 3.98698 18.38 3.98698 18.391 4.00902C18.391 4.00902 18.391 4.06413 18.369 4.07516C18.369 4.07516 18.369 4.07516 18.347 4.07516C18.347 4.07516 18.303 4.07516 18.303 4.04209V4.05311ZM18.589 3.92085C18.589 3.92085 18.589 3.86574 18.611 3.85471C18.611 3.85471 18.666 3.85471 18.677 3.87676C18.677 3.87676 18.677 3.94289 18.655 3.95391H18.633C18.633 3.95391 18.589 3.95391 18.589 3.92085ZM18.875 3.7996C18.875 3.7996 18.875 3.74449 18.908 3.73347C18.908 3.73347 18.963 3.73347 18.974 3.76654C18.974 3.76654 18.974 3.82165 18.941 3.83267H18.919C18.919 3.83267 18.875 3.82165 18.875 3.7996ZM19.161 3.68938C19.161 3.68938 19.161 3.63427 19.205 3.62325C19.205 3.62325 19.26 3.62325 19.271 3.65632C19.271 3.65632 19.271 3.72245 19.238 3.73347H19.216C19.216 3.73347 19.172 3.71143 19.161 3.68938Z" fill="#00FFC8"/>
<path d="M17.522 21.4569C17.522 21.4569 17.478 21.4238 17.489 21.3907C17.489 21.3907 17.522 21.3467 17.555 21.3577C17.555 21.3577 17.599 21.4018 17.588 21.4238C17.588 21.4238 17.566 21.4569 17.544 21.4569H17.522ZM17.225 21.3577C17.225 21.3577 17.181 21.3136 17.192 21.2915C17.192 21.2915 17.236 21.2475 17.258 21.2585C17.258 21.2585 17.302 21.3026 17.291 21.3246C17.291 21.3246 17.269 21.3577 17.247 21.3577H17.225ZM16.928 21.2585C16.928 21.2585 16.884 21.2144 16.895 21.1813C16.895 21.1813 16.939 21.1372 16.972 21.1593C16.972 21.1593 17.005 21.1923 16.994 21.2254C16.994 21.2254 16.972 21.2585 16.95 21.2585H16.928ZM16.631 21.1372C16.631 21.1372 16.598 21.1042 16.609 21.0711C16.609 21.0711 16.653 21.038 16.675 21.038C16.675 21.038 16.719 21.0821 16.708 21.1152C16.708 21.1152 16.675 21.1483 16.653 21.1483C16.653 21.1483 16.653 21.1483 16.631 21.1483V21.1372ZM16.345 21.027C16.345 21.027 16.301 20.9829 16.312 20.9499C16.312 20.9499 16.356 20.9168 16.389 20.9278C16.389 20.9278 16.422 20.9719 16.411 20.994C16.411 20.994 16.389 21.027 16.367 21.027H16.345ZM16.059 20.9058C16.059 20.9058 16.015 20.8617 16.026 20.8286C16.026 20.8286 16.07 20.7956 16.103 20.8066C16.103 20.8066 16.136 20.8507 16.125 20.8727C16.125 20.8727 16.103 20.9058 16.081 20.9058H16.059ZM15.773 20.7735C15.773 20.7735 15.729 20.7294 15.74 20.6964C15.74 20.6964 15.784 20.6633 15.817 20.6743C15.817 20.6743 15.85 20.7184 15.839 20.7404C15.839 20.7404 15.806 20.7735 15.795 20.7735H15.773ZM15.487 20.6412C15.487 20.6412 15.454 20.5861 15.465 20.5641C15.465 20.5641 15.509 20.531 15.531 20.542C15.531 20.542 15.575 20.5861 15.553 20.6192C15.553 20.6192 15.531 20.6412 15.509 20.6412H15.487ZM15.201 20.498C15.201 20.498 15.168 20.4539 15.179 20.4208C15.179 20.4208 15.223 20.3877 15.256 20.3988C15.256 20.3988 15.289 20.4428 15.278 20.4759C15.278 20.4759 15.245 20.509 15.234 20.509C15.234 20.509 15.212 20.509 15.201 20.509V20.498ZM14.926 20.3547C14.926 20.3547 14.893 20.2996 14.904 20.2775C14.904 20.2775 14.948 20.2445 14.981 20.2555C14.981 20.2555 15.014 20.2996 15.003 20.3326C15.003 20.3326 14.97 20.3657 14.948 20.3657C14.948 20.3657 14.948 20.3547 14.926 20.3547ZM14.651 20.2114C14.651 20.2114 14.618 20.1563 14.629 20.1342C14.629 20.1342 14.673 20.1012 14.706 20.1122C14.706 20.1122 14.739 20.1563 14.728 20.1783C14.728 20.1783 14.695 20.2114 14.673 20.2114H14.651ZM14.376 20.0461C14.376 20.0461 14.343 20.002 14.354 19.9799C14.354 19.9799 14.409 19.9469 14.431 19.9579C14.431 19.9579 14.464 20.002 14.453 20.035C14.453 20.035 14.42 20.0571 14.409 20.0571C14.409 20.0571 14.387 20.0571 14.376 20.0571V20.0461ZM14.101 19.8917C14.101 19.8917 14.068 19.8477 14.09 19.8146C14.09 19.8146 14.134 19.7815 14.167 19.8036C14.167 19.8036 14.2 19.8477 14.189 19.8697C14.189 19.8697 14.156 19.9028 14.145 19.9028C14.145 19.9028 14.123 19.9028 14.112 19.8917H14.101ZM13.837 19.7264C13.837 19.7264 13.804 19.6823 13.815 19.6603C13.815 19.6603 13.87 19.6272 13.892 19.6382C13.892 19.6382 13.925 19.6823 13.914 19.7154C13.914 19.7154 13.881 19.7374 13.87 19.7374C13.87 19.7374 13.848 19.7374 13.837 19.7374V19.7264ZM13.573 19.5611C13.573 19.5611 13.54 19.517 13.551 19.495C13.551 19.495 13.606 19.4619 13.628 19.4729C13.628 19.4729 13.661 19.517 13.65 19.5501C13.65 19.5501 13.617 19.5721 13.595 19.5721C13.595 19.5721 13.584 19.5721 13.573 19.5721V19.5611ZM13.309 19.3958C13.309 19.3958 13.276 19.3406 13.309 19.3186C13.309 19.3186 13.353 19.2855 13.375 19.3186C13.375 19.3186 13.408 19.3627 13.397 19.3847C13.397 19.3847 13.364 19.4178 13.353 19.4178C13.353 19.4178 13.331 19.4178 13.32 19.4178L13.309 19.3958ZM13.045 19.2194C13.045 19.2194 13.012 19.1643 13.045 19.1422C13.045 19.1422 13.089 19.1092 13.122 19.1422C13.122 19.1422 13.144 19.1863 13.122 19.2194C13.122 19.2194 13.1 19.2414 13.078 19.2414C13.078 19.2414 13.056 19.2414 13.045 19.2414V19.2194ZM12.792 19.0431C12.792 19.0431 12.759 18.9879 12.77 18.9659C12.77 18.9659 12.825 18.9328 12.847 18.9659C12.847 18.9659 12.88 19.01 12.847 19.032C12.847 19.032 12.825 19.0651 12.803 19.0651H12.781L12.792 19.0431ZM12.528 18.8557C12.528 18.8557 12.506 18.8116 12.517 18.7785C12.517 18.7785 12.572 18.7565 12.594 18.7785C12.594 18.7785 12.627 18.8336 12.594 18.8557C12.594 18.8557 12.572 18.8777 12.55 18.8777C12.55 18.8777 12.528 18.8777 12.517 18.8777L12.528 18.8557ZM12.275 18.6683C12.275 18.6683 12.253 18.6242 12.264 18.5911C12.264 18.5911 12.319 18.5691 12.341 18.5911C12.341 18.5911 12.374 18.6463 12.341 18.6683C12.341 18.6683 12.319 18.6903 12.308 18.6903C12.308 18.6903 12.275 18.6903 12.264 18.6903L12.275 18.6683ZM12.033 18.4809C12.033 18.4809 12 18.4258 12.033 18.4038C12.033 18.4038 12.088 18.3707 12.11 18.4038C12.11 18.4038 12.132 18.4589 12.11 18.4809C12.11 18.4809 12.077 18.503 12.066 18.503C12.066 18.503 12.044 18.503 12.033 18.503V18.4809ZM11.791 18.2825C11.791 18.2825 11.758 18.2274 11.78 18.2054C11.78 18.2054 11.835 18.1833 11.857 18.1944C11.857 18.1944 11.879 18.2495 11.857 18.2715C11.857 18.2715 11.835 18.2936 11.824 18.2936C11.824 18.2936 11.802 18.2825 11.791 18.2825Z" fill="#00FFC8"/>
<path d="M5.55396 20.8727C5.55396 20.8727 5.57596 20.8176 5.60896 20.8176C5.60896 20.8176 5.66395 20.8397 5.66395 20.8727C5.66395 20.8727 5.66395 20.9278 5.61995 20.9278C5.61995 20.9278 5.57596 20.9058 5.56496 20.8727H5.55396ZM5.87295 20.8507C5.87295 20.8507 5.89495 20.7956 5.91695 20.7956C5.91695 20.7956 5.97195 20.7956 5.98295 20.8397C5.98295 20.8397 5.96095 20.8948 5.92795 20.9058C5.92795 20.9058 5.87295 20.8837 5.87295 20.8507ZM6.18095 20.8176C6.18095 20.8176 6.20295 20.7625 6.22495 20.7625C6.22495 20.7625 6.27995 20.7845 6.29095 20.8066C6.29095 20.8066 6.26895 20.8617 6.24695 20.8617H6.23595C6.23595 20.8617 6.18095 20.8617 6.18095 20.8176ZM6.48895 20.7845C6.48895 20.7845 6.51095 20.7184 6.53295 20.7184C6.53295 20.7184 6.58795 20.7184 6.59895 20.7625C6.59895 20.7625 6.57695 20.8176 6.55495 20.8286C6.55495 20.8286 6.51095 20.8066 6.49995 20.7845H6.48895ZM6.79695 20.7294C6.79695 20.7294 6.81895 20.6743 6.84095 20.6743C6.84095 20.6743 6.89595 20.6743 6.90695 20.7074C6.90695 20.7074 6.90695 20.7735 6.86295 20.7735C6.86295 20.7735 6.81895 20.7515 6.80795 20.7294H6.79695ZM7.10495 20.6743C7.10495 20.6743 7.11595 20.6192 7.14895 20.6082C7.14895 20.6082 7.20395 20.6082 7.21495 20.6523C7.21495 20.6523 7.20395 20.7074 7.17095 20.7184H7.15995C7.15995 20.7184 7.11595 20.6964 7.10495 20.6743ZM7.47895 20.6413C7.47895 20.6413 7.42395 20.6413 7.41295 20.6082C7.41295 20.6082 7.42395 20.5531 7.45695 20.5421C7.45695 20.5421 7.51195 20.5531 7.52295 20.5861C7.52295 20.5861 7.52295 20.6413 7.47895 20.6413ZM7.72095 20.531C7.72095 20.531 7.72095 20.4759 7.75395 20.4649C7.75395 20.4649 7.80895 20.4649 7.81995 20.498C7.81995 20.498 7.81995 20.5641 7.78695 20.5641H7.76495C7.76495 20.5641 7.72095 20.5641 7.72095 20.531ZM8.01795 20.4429C8.01795 20.4429 8.01795 20.3877 8.05095 20.3767C8.05095 20.3767 8.11695 20.3767 8.11695 20.4098C8.11695 20.4098 8.11695 20.4759 8.08395 20.4759H8.07295C8.07295 20.4759 8.02895 20.4759 8.01795 20.4429ZM8.31495 20.3547C8.31495 20.3547 8.31495 20.2886 8.34795 20.2775C8.34795 20.2775 8.40295 20.2775 8.41395 20.3106C8.41395 20.3106 8.41395 20.3767 8.38095 20.3877H8.36995C8.36995 20.3877 8.32595 20.3878 8.31495 20.3547ZM8.61195 20.2445C8.61195 20.2445 8.61195 20.1894 8.64495 20.1783C8.64495 20.1783 8.69995 20.1783 8.71095 20.2114C8.71095 20.2114 8.71095 20.2665 8.67795 20.2775H8.65595C8.65595 20.2775 8.61195 20.2665 8.61195 20.2445ZM8.89795 20.1342C8.89795 20.1342 8.90895 20.0791 8.93095 20.0681C8.93095 20.0681 8.98595 20.0681 8.99695 20.0902C8.99695 20.0902 8.99695 20.1563 8.97495 20.1673H8.95295C8.95295 20.1673 8.90895 20.1673 8.89795 20.1342ZM9.19495 20.013C9.19495 20.013 9.19495 19.9469 9.21695 19.9358C9.21695 19.9358 9.27195 19.9358 9.29395 19.9689C9.29395 19.9689 9.28295 20.024 9.26095 20.035C9.26095 20.035 9.26095 20.0461 9.23895 20.0461C9.23895 20.0461 9.19495 20.035 9.19495 20.013ZM9.46995 19.8807C9.46995 19.8807 9.46995 19.8256 9.50295 19.8036C9.50295 19.8036 9.55795 19.8036 9.56895 19.8366C9.56895 19.8366 9.56895 19.8918 9.54695 19.9028L9.52495 19.9138C9.52495 19.9138 9.48095 19.9028 9.46995 19.8807ZM9.75595 19.7374C9.75595 19.7374 9.75595 19.6823 9.77795 19.6713C9.77795 19.6713 9.83295 19.6713 9.84395 19.6934C9.84395 19.6934 9.84395 19.7485 9.82195 19.7595C9.82195 19.7595 9.81095 19.7705 9.79995 19.7705C9.79995 19.7705 9.76695 19.7595 9.75595 19.7374ZM10.031 19.5942C10.031 19.5942 10.02 19.528 10.053 19.517C10.053 19.517 10.1079 19.517 10.1189 19.5391C10.1189 19.5391 10.119 19.5942 10.097 19.6162H10.0749C10.0749 19.6162 10.0419 19.6162 10.031 19.5942ZM10.295 19.4288C10.295 19.4288 10.295 19.3737 10.3169 19.3627C10.3169 19.3627 10.3719 19.3517 10.3939 19.3627C10.3939 19.3627 10.3939 19.4288 10.372 19.4399H10.3499C10.3499 19.4399 10.306 19.4399 10.295 19.4068V19.4288ZM10.5589 19.2635C10.5589 19.2635 10.5589 19.2084 10.5809 19.1974C10.5809 19.1974 10.636 19.1753 10.6579 19.1974C10.6579 19.1974 10.6579 19.2525 10.6359 19.2745H10.614C10.614 19.2745 10.57 19.2745 10.5589 19.2525V19.2635ZM10.8229 19.0871C10.8229 19.0871 10.8229 19.032 10.8339 19.021C10.8339 19.021 10.8889 18.999 10.9109 19.021C10.9109 19.021 10.9219 19.0761 10.9109 19.0982H10.8779C10.8779 19.0982 10.8449 19.0982 10.8339 19.0761L10.8229 19.0871ZM11.0759 18.8998C11.0759 18.8998 11.0759 18.8447 11.0869 18.8336C11.0869 18.8336 11.1419 18.8116 11.1639 18.8336C11.1639 18.8336 11.1749 18.8888 11.1639 18.8998C11.1639 18.8998 11.1419 18.8998 11.1309 18.8998C11.1309 18.8998 11.0979 18.8998 11.0869 18.8777L11.0759 18.8998ZM11.3179 18.7124C11.3179 18.7124 11.3069 18.6573 11.3179 18.6352C11.3179 18.6352 11.3729 18.6352 11.3949 18.6352C11.3949 18.6352 11.3949 18.6904 11.3839 18.7124C11.3839 18.7124 11.3619 18.7124 11.3509 18.7124C11.3509 18.7124 11.3179 18.7124 11.3069 18.6904L11.3179 18.7124ZM11.5599 18.503C11.5599 18.503 11.5379 18.4479 11.5599 18.4258C11.5599 18.4258 11.6149 18.4258 11.6369 18.4258C11.6369 18.4258 11.6589 18.4809 11.6369 18.503C11.6369 18.503 11.6149 18.503 11.5929 18.503C11.5929 18.503 11.5709 18.503 11.5599 18.4809V18.503ZM11.7909 18.2936C11.7909 18.2936 11.7579 18.2385 11.7799 18.2164C11.7799 18.2164 11.8349 18.1944 11.8569 18.2054C11.8569 18.2054 11.8789 18.2605 11.8569 18.2825C11.8569 18.2825 11.8349 18.3046 11.8239 18.3046L11.7909 18.2936Z" fill="#00FFC8"/>
<path d="M3.86004 8.86975C3.99369 8.86975 4.10204 8.76119 4.10204 8.62727C4.10204 8.49335 3.99369 8.38478 3.86004 8.38478C3.72639 8.38478 3.61804 8.49335 3.61804 8.62727C3.61804 8.76119 3.72639 8.86975 3.86004 8.86975Z" fill="#00FFC8"/>
<path d="M3.893 18.2936C4.02665 18.2936 4.135 18.185 4.135 18.0511C4.135 17.9172 4.02665 17.8086 3.893 17.8086C3.75935 17.8086 3.651 17.9172 3.651 18.0511C3.651 18.185 3.75935 18.2936 3.893 18.2936Z" fill="#00FFC8"/>
<path d="M19.744 8.57214C19.8776 8.57214 19.986 8.46357 19.986 8.32965C19.986 8.19573 19.8776 8.08717 19.744 8.08717C19.6103 8.08717 19.502 8.19573 19.502 8.32965C19.502 8.46357 19.6103 8.57214 19.744 8.57214Z" fill="#00FFC8"/>
<path d="M19.678 18.7235C19.8117 18.7235 19.92 18.6149 19.92 18.481C19.92 18.3471 19.8117 18.2385 19.678 18.2385C19.5444 18.2385 19.436 18.3471 19.436 18.481C19.436 18.6149 19.5444 18.7235 19.678 18.7235Z" fill="#00FFC8"/>
<path d="M11.791 10.8978C11.9915 10.8978 12.154 10.735 12.154 10.5341C12.154 10.3332 11.9915 10.1703 11.791 10.1703C11.5905 10.1703 11.428 10.3332 11.428 10.5341C11.428 10.735 11.5905 10.8978 11.791 10.8978Z" fill="#00FFC8"/>
<path d="M11.868 18.5471C12.0685 18.5471 12.231 18.3843 12.231 18.1834C12.231 17.9825 12.0685 17.8196 11.868 17.8196C11.6675 17.8196 11.505 17.9825 11.505 18.1834C11.505 18.3843 11.6675 18.5471 11.868 18.5471Z" fill="#00FFC8"/>
<path d="M1 12.2535C1 12.2535 11.307 17.5772 22.868 11.9669" stroke="#00FFC8" stroke-width="0.25" stroke-linecap="round" stroke-linejoin="round"/>
<path d="M11.879 15.2956C12.3043 15.2956 12.649 14.9502 12.649 14.5241C12.649 14.0979 12.3043 13.7525 11.879 13.7525C11.4537 13.7525 11.109 14.0979 11.109 14.5241C11.109 14.9502 11.4537 15.2956 11.879 15.2956Z" fill="#00FFC8"/>
<path d="M6.44497 14.987L6.46697 11.2395L11.846 8.10923L17.203 11.1954L17.236 15.2846" stroke="#00FFC8" stroke-width="0.25" stroke-linecap="round" stroke-linejoin="round"/>
<path d="M17.2361 13.4219L17.2141 17.1693L11.8351 20.2996L6.47807 17.2134L6.44507 13.1243" stroke="#00FFC8" stroke-width="0.25" stroke-linecap="round" stroke-linejoin="round"/>
<path d="M12.011 23C18.08 23 23 18.0751 23 12C23 5.92487 18.08 1 12.011 1C5.94191 1 1.02197 5.92487 1.02197 12C1.02197 18.0751 5.94191 23 12.011 23Z" stroke="#00FFC8" stroke-width="0.25" stroke-miterlimit="10"/>
</svg>
