<svg width="20" height="20" viewBox="0 0 20 20" fill="none" xmlns="http://www.w3.org/2000/svg">
<g clip-path="url(#clip0_15834_28592)">
<circle opacity="0.12" cx="9.99984" cy="9.99967" r="8.33333" transform="rotate(-90 9.99984 9.99967)" fill="#FFECB3"/>
<path fill-rule="evenodd" clip-rule="evenodd" d="M9.73585 2.4215C5.66993 2.5606 2.4165 5.90052 2.4165 10.0003C2.4165 12.4172 3.54716 14.57 5.30838 15.9587C5.24501 15.628 5.2027 15.2787 5.17935 14.9165C5.06728 13.1787 5.38139 10.9856 6.11882 8.73095C6.85625 6.47631 7.89886 4.52142 9.01614 3.18579C9.24893 2.9075 9.48942 2.65074 9.73585 2.4215ZM10.2638 17.5792C14.3297 17.4401 17.5832 14.1001 17.5832 10.0003C17.5832 7.58344 16.4525 5.43063 14.6913 4.04197C14.7547 4.37263 14.797 4.722 14.8203 5.08418C14.9324 6.8219 14.6183 9.01506 13.8809 11.2697C13.1434 13.5243 12.1008 15.4792 10.9835 16.8149C10.7507 17.0931 10.5102 17.3499 10.2638 17.5792ZM9.99984 0.916992C4.98325 0.916992 0.916504 4.98374 0.916504 10.0003C0.916504 15.0169 4.98325 19.0837 9.99984 19.0837C15.0164 19.0837 19.0832 15.0169 19.0832 10.0003C19.0832 4.98374 15.0164 0.916992 9.99984 0.916992ZM7.5445 9.19725C8.2378 7.07755 9.19969 5.30418 10.1667 4.14822C10.6516 3.56852 11.1123 3.17469 11.5113 2.95816C11.9084 2.74267 12.179 2.73442 12.3573 2.79272C12.5355 2.85103 12.7489 3.01755 12.9419 3.42606C13.1358 3.83653 13.2748 4.4265 13.3234 5.18072C13.4204 6.68467 13.1485 8.6837 12.4552 10.8034C11.7619 12.9231 10.8 14.6965 9.833 15.8524C9.34808 16.4321 8.88735 16.826 8.48833 17.0425C8.09123 17.258 7.82069 17.2662 7.64242 17.2079C7.46415 17.1496 7.25078 16.9831 7.05777 16.5746C6.86383 16.1641 6.72487 15.5741 6.67624 14.8199C6.57925 13.316 6.8512 11.3169 7.5445 9.19725Z" fill="#FFECB3"/>
</g>
<defs>
<clipPath id="clip0_15834_28592">
<rect width="20" height="20" fill="white"/>
</clipPath>
</defs>
</svg>
