<svg width="42" height="42" viewBox="0 0 42 42" fill="none" xmlns="http://www.w3.org/2000/svg">
<g opacity="0.2">
<path d="M27.257 10.4119C28.4057 10.4119 29.5073 9.95558 30.3195 9.14337C31.1317 8.33116 31.588 7.22957 31.588 6.08094C31.588 4.9323 31.1317 3.83071 30.3195 3.0185C29.5073 2.20629 28.4057 1.75 27.257 1.75C26.1084 1.75 25.0068 2.20629 24.1946 3.0185C23.3824 3.83071 22.9261 4.9323 22.9261 6.08094C22.9261 7.22957 23.3824 8.33116 24.1946 9.14337C25.0068 9.95558 26.1084 10.4119 27.257 10.4119ZM18.5567 14.533C17.3565 14.8314 16.5375 15.2798 15.8763 15.8361C14.885 16.6715 14.0843 17.8765 13.0025 19.7705C12.7492 20.2138 12.3301 20.5382 11.8376 20.6725C11.345 20.8068 10.8193 20.7399 10.376 20.4866C9.93278 20.2333 9.60832 19.8142 9.47404 19.3217C9.33975 18.8291 9.40663 18.3034 9.65997 17.8601C10.7369 15.9766 11.8254 14.2144 13.3971 12.8921C15.0371 11.51 17.0447 10.7285 19.752 10.4273C20.8838 10.3022 22.1292 10.3272 23.2966 10.8479C24.5218 11.3955 25.4169 12.3762 26.0271 13.687C26.849 15.4512 27.4601 16.5012 27.949 17.1094C28.1848 17.402 28.3494 17.5377 28.4428 17.5983C28.5169 17.6465 28.5486 17.6503 28.5602 17.6522C28.6439 17.6619 28.9163 17.6522 29.7132 17.299C30.0606 17.145 30.4398 16.9602 30.9037 16.7341L31.0144 16.6802C31.5817 16.4002 32.1541 16.1307 32.7313 15.8717C33.1974 15.6672 33.7254 15.6555 34.2001 15.8392C34.6747 16.023 35.0572 16.3872 35.264 16.8523C35.4707 17.3173 35.4849 17.8453 35.3034 18.3208C35.1218 18.7963 34.7594 19.1805 34.2953 19.3894C33.7604 19.6295 33.23 19.8795 32.7044 20.1392L32.5783 20.2008C32.1346 20.4173 31.6881 20.6358 31.2694 20.8206C30.4032 21.2036 29.2964 21.6194 28.0963 21.474C26.8297 21.3201 25.8538 20.605 25.0502 19.6454L22.4199 24.7203L26.0579 29.4536C26.2744 29.7365 26.4082 30.0734 26.4457 30.4275L27.2465 38.1231C27.277 38.3767 27.2567 38.6338 27.1869 38.8794C27.1171 39.125 26.999 39.3543 26.8397 39.5539C26.6804 39.7535 26.483 39.9194 26.2589 40.0419C26.0348 40.1644 25.7886 40.2412 25.5346 40.2676C25.2806 40.294 25.0239 40.2697 24.7794 40.1959C24.5349 40.1221 24.3076 40.0005 24.1105 39.838C23.9135 39.6754 23.7508 39.4754 23.6319 39.2494C23.513 39.0234 23.4403 38.776 23.4179 38.5216L22.673 31.3678L20.4633 28.4921L20.3632 28.3622L16.2805 23.0495C16.0798 22.7884 15.9495 22.4802 15.902 22.1543C15.8545 21.8284 15.8914 21.4958 16.0091 21.1882L18.5567 14.533Z" fill="#00FFC8"/>
<path d="M15.6427 25.8184L14.226 29.6296L8.64386 29.1869C8.39007 29.1633 8.13412 29.1904 7.89088 29.2665C7.64763 29.3426 7.42193 29.4663 7.22687 29.6304C7.03181 29.7945 6.87128 29.9956 6.75459 30.2222C6.6379 30.4488 6.56737 30.6964 6.54711 30.9504C6.52684 31.2045 6.55724 31.4601 6.63654 31.7023C6.71584 31.9446 6.84245 32.1686 7.00904 32.3615C7.17563 32.5544 7.37887 32.7124 7.60697 32.8261C7.83507 32.9398 8.08349 33.0071 8.33781 33.0241L15.3712 33.5823C15.7887 33.6155 16.2055 33.5117 16.5586 33.2866C16.9117 33.0615 17.1818 32.7274 17.3279 32.335L18.4106 29.4207L15.6427 25.8184Z" fill="#00FFC8"/>
</g>
<path d="M27.257 10.4119C28.4057 10.4119 29.5073 9.95558 30.3195 9.14337C31.1317 8.33116 31.588 7.22957 31.588 6.08094C31.588 4.9323 31.1317 3.83071 30.3195 3.0185C29.5073 2.20629 28.4057 1.75 27.257 1.75C26.1084 1.75 25.0068 2.20629 24.1946 3.0185C23.3824 3.83071 22.9261 4.9323 22.9261 6.08094C22.9261 7.22957 23.3824 8.33116 24.1946 9.14337C25.0068 9.95558 26.1084 10.4119 27.257 10.4119ZM18.5567 14.533C17.3565 14.8314 16.5375 15.2798 15.8763 15.8361C14.885 16.6715 14.0843 17.8765 13.0025 19.7705C12.7492 20.2138 12.3301 20.5382 11.8376 20.6725C11.345 20.8068 10.8193 20.7399 10.376 20.4866C9.93278 20.2333 9.60832 19.8142 9.47404 19.3217C9.33975 18.8291 9.40663 18.3034 9.65997 17.8601C10.7369 15.9766 11.8254 14.2144 13.3971 12.8921C15.0371 11.51 17.0447 10.7285 19.752 10.4273C20.8838 10.3022 22.1292 10.3272 23.2966 10.8479C24.5218 11.3955 25.4169 12.3762 26.0271 13.687C26.849 15.4512 27.4601 16.5012 27.949 17.1094C28.1848 17.402 28.3494 17.5377 28.4428 17.5983C28.5169 17.6465 28.5486 17.6503 28.5602 17.6522C28.6439 17.6619 28.9163 17.6522 29.7132 17.299C30.0606 17.145 30.4398 16.9602 30.9037 16.7341L31.0144 16.6802C31.5817 16.4002 32.1541 16.1307 32.7313 15.8717C33.1974 15.6672 33.7254 15.6555 34.2001 15.8392C34.6747 16.023 35.0572 16.3872 35.264 16.8523C35.4707 17.3173 35.4849 17.8453 35.3034 18.3208C35.1218 18.7963 34.7594 19.1805 34.2953 19.3894C33.7604 19.6295 33.23 19.8795 32.7044 20.1392L32.5783 20.2008C32.1346 20.4173 31.6881 20.6358 31.2694 20.8206C30.4032 21.2036 29.2964 21.6194 28.0963 21.474C26.8297 21.3201 25.8538 20.605 25.0502 19.6454L22.4199 24.7203L26.0579 29.4536C26.2744 29.7365 26.4082 30.0734 26.4457 30.4275L27.2465 38.1231C27.277 38.3767 27.2567 38.6338 27.1869 38.8794C27.1171 39.125 26.999 39.3543 26.8397 39.5539C26.6804 39.7535 26.483 39.9194 26.2589 40.0419C26.0348 40.1644 25.7886 40.2412 25.5346 40.2676C25.2806 40.294 25.0239 40.2697 24.7794 40.1959C24.5349 40.1221 24.3076 40.0005 24.1105 39.838C23.9135 39.6754 23.7508 39.4754 23.6319 39.2494C23.513 39.0234 23.4403 38.776 23.4179 38.5216L22.673 31.3678L20.4633 28.4921L20.3632 28.3622L16.2805 23.0495C16.0798 22.7884 15.9495 22.4802 15.902 22.1543C15.8545 21.8284 15.8914 21.4958 16.0091 21.1882L18.5567 14.533Z" stroke="#00FFC8"/>
<path d="M15.6427 25.8184L14.226 29.6296L8.64386 29.1869C8.39007 29.1633 8.13412 29.1904 7.89088 29.2665C7.64763 29.3426 7.42193 29.4663 7.22687 29.6304C7.03181 29.7945 6.87128 29.9956 6.75459 30.2222C6.6379 30.4488 6.56737 30.6964 6.54711 30.9504C6.52684 31.2045 6.55724 31.4601 6.63654 31.7023C6.71584 31.9446 6.84245 32.1686 7.00904 32.3615C7.17563 32.5544 7.37887 32.7124 7.60697 32.8261C7.83507 32.9398 8.08349 33.0071 8.33781 33.0241L15.3712 33.5823C15.7887 33.6155 16.2055 33.5117 16.5586 33.2866C16.9117 33.0615 17.1818 32.7274 17.3279 32.335L18.4106 29.4207L15.6427 25.8184Z" stroke="#00FFC8"/>
</svg>
