<svg width="222" height="229" viewBox="0 0 222 229" fill="none" xmlns="http://www.w3.org/2000/svg">
<circle cx="110.69" cy="118.285" r="64.0116" transform="rotate(30.484 110.69 118.285)" fill="url(#paint0_linear_20_2428)"/>
<path d="M165.234 132.324C157.268 162.052 126.711 179.695 96.9818 171.729M57.5766 103.477C65.5424 73.7483 96.0998 56.106 125.828 64.0717" stroke="#00FFC8"/>
<circle opacity="0.2" cx="110.927" cy="117.925" r="70.3226" transform="rotate(30.484 110.927 117.925)" stroke="#00FFC8"/>
<path d="M94.3528 99.6484C93.1768 99.6484 91.6368 99.6344 90.8388 98.5984C90.6288 98.3184 90.4748 98.0104 90.4188 97.6744C90.3628 97.3944 90.3628 97.1284 90.3628 96.8484V96.4564H91.4688V96.9044C91.4688 97.0584 91.4688 97.2264 91.4968 97.3944C91.6648 98.5284 93.1348 98.5284 94.1988 98.5284H96.1728C97.1948 98.5284 98.5808 98.4724 98.7488 97.3944C98.7768 97.2404 98.7768 97.0864 98.7768 96.9324V96.7224C98.7768 95.9384 98.3708 95.5744 97.8108 95.4064C97.5168 95.3084 97.1808 95.2664 96.8448 95.2524C96.4948 95.2384 96.1448 95.2384 95.8368 95.2384H94.2968C93.1208 95.2384 91.5808 95.2244 90.7548 94.1884C90.5308 93.9084 90.3768 93.5724 90.3348 93.2224C90.2928 92.9844 90.2928 92.7324 90.2928 92.4944V92.2844C90.2928 89.9184 92.3928 89.7084 94.2968 89.7084H95.7948C96.9568 89.7084 98.5388 89.7084 99.3368 90.7584C99.5608 91.0384 99.7008 91.3464 99.7568 91.6824C99.7988 91.9764 99.7988 92.2564 99.7988 92.5364V92.9004H98.7068V92.4804C98.7068 92.3124 98.7068 92.1444 98.6788 91.9624C98.4968 90.8424 97.0548 90.8284 96.0048 90.8284H94.1148C93.3028 90.8284 92.0848 90.8424 91.6228 91.4584C91.4128 91.7384 91.3848 92.0604 91.3848 92.4384V92.6484C91.3848 93.4184 91.8048 93.7824 92.3648 93.9504C92.6588 94.0484 92.9808 94.0904 93.3308 94.1044C93.6808 94.1184 94.0308 94.1184 94.3388 94.1184H95.8648C97.0408 94.1184 98.5948 94.1324 99.4068 95.1684C99.6308 95.4484 99.7848 95.7844 99.8408 96.1344C99.8828 96.3724 99.8828 96.6104 99.8828 96.8484V97.0584C99.8828 99.4384 97.7548 99.6484 95.8648 99.6484H94.3528ZM115.427 90.8424H107.293V93.9364H113.495V95.0564H107.293V98.5284H115.399V99.6484H106.201V89.7224H115.427V90.8424ZM131.708 89.7084V90.8424H127.27V99.6484H126.164L126.178 90.8424H121.74V89.7084H131.708Z" fill="#00FFC8"/>
<path d="M62.0414 106.348L70.5014 115.258L78.9014 106.348H82.0814L71.6114 117.478V127.648H69.3014V117.418L58.8914 106.348H62.0414ZM96.978 127.708C89.208 127.708 84.918 124.678 84.918 116.998C84.918 109.408 89.268 106.348 96.978 106.348C104.718 106.348 109.008 109.318 109.008 116.998C109.008 124.618 104.658 127.708 96.978 127.708ZM96.978 125.308C103.308 125.308 106.608 123.268 106.608 116.998C106.608 110.668 103.368 108.748 96.978 108.748C90.588 108.748 87.288 110.668 87.288 116.998C87.288 123.328 90.588 125.308 96.978 125.308ZM134.764 114.808C134.764 121.288 133.114 127.648 124.714 127.648C116.344 127.648 114.724 121.228 114.724 114.808V106.348H117.064V114.808C117.064 117.598 117.454 121.828 119.674 123.718C121.114 124.978 122.794 125.308 124.714 125.308C126.694 125.308 128.314 124.978 129.784 123.718C132.004 121.828 132.424 117.598 132.424 114.808V106.348H134.764V114.808ZM152.757 106.348C156.957 106.348 161.397 106.888 161.397 112.048V112.918C161.397 117.658 157.647 118.558 153.687 118.618L162.087 127.648H158.847L150.447 118.648H142.827L142.887 127.648H140.487V106.348H152.757ZM153.357 116.218C155.697 116.218 158.577 116.098 158.967 113.638C159.027 113.308 159.027 112.978 159.027 112.648V112.078C159.027 108.778 155.847 108.778 152.937 108.778H142.827V116.218H153.357Z" fill="#BDFFF1"/>
<path d="M81.3543 140.664C81.3543 137.122 83.4123 135.708 86.9823 135.708C88.4803 135.708 90.8743 136.044 91.7143 137.472L91.7563 137.528L90.9443 138.312L90.8883 138.2C90.2163 137.052 88.2843 136.828 86.9823 136.828C84.0003 136.828 82.4603 137.724 82.4603 140.664C82.4603 143.618 84.0003 144.528 86.9823 144.528C88.2003 144.528 89.6423 144.36 90.5243 143.562V141.056H84.6023V139.936H91.7563V143.814L91.7143 143.884C90.8743 145.312 88.4803 145.634 86.9823 145.634C83.3843 145.634 81.3543 144.22 81.3543 140.664ZM103.697 145.676C100.071 145.676 98.0692 144.262 98.0692 140.678C98.0692 137.136 100.099 135.708 103.697 135.708C107.309 135.708 109.311 137.094 109.311 140.678C109.311 144.234 107.281 145.676 103.697 145.676ZM103.697 144.556C106.651 144.556 108.191 143.604 108.191 140.678C108.191 137.724 106.679 136.828 103.697 136.828C100.715 136.828 99.1752 137.724 99.1752 140.678C99.1752 143.632 100.715 144.556 103.697 144.556ZM121.797 142.064L116.981 142.078L114.937 145.648H113.677L119.389 135.708L125.129 145.648H123.841L121.797 142.064ZM121.181 141.014L119.389 137.892L117.597 141.014H121.181ZM132.536 144.528H140.642V145.648H131.444V135.708H132.536V144.528Z" fill="#00FFC8"/>
<g opacity="0.12">
<path fill-rule="evenodd" clip-rule="evenodd" d="M110.735 35.3441L105.001 32.0335L110.81 28.6117L110.735 35.3441ZM104.845 24.9245L110.65 28.2759L104.795 31.7244C104.794 31.7107 104.793 31.6968 104.793 31.683C104.801 30.5987 104.837 25.9967 104.845 24.9319C104.845 24.9294 104.845 24.927 104.845 24.9245L104.845 24.9245ZM116.969 31.9245C116.967 31.9256 116.965 31.927 116.963 31.9282C116.045 32.4678 112.077 34.7994 111.143 35.3487C111.131 35.3558 111.118 35.3621 111.106 35.3677L111.182 28.5829L116.969 31.9245ZM110.894 21.1598L110.818 27.9448L105.031 24.6034C105.033 24.602 105.035 24.6008 105.037 24.5995C105.955 24.06 109.923 21.7283 110.857 21.1791C110.87 21.1719 110.882 21.1656 110.894 21.16L110.894 21.1598ZM117.207 24.8442L117.207 24.8445C117.199 25.9288 117.163 30.5308 117.155 31.5956C117.155 31.5981 117.155 31.6005 117.155 31.6031L111.386 28.2725L117.207 24.8442ZM111.265 21.1834L117.009 24.4996C117.017 24.5047 117.026 24.51 117.034 24.5157L111.189 27.9584L111.265 21.1834Z" fill="#BDFFF1"/>
</g>
<g opacity="0.1">
<path d="M35.1695 162.484L33.4141 163.5C41.2376 176.873 52.37 187.995 65.7344 195.791C79.0989 203.586 94.2433 207.792 109.703 208.001V206C77.9858 205.538 50.2797 188.154 35.1695 162.484Z" fill="#00FFC8"/>
<path d="M198.975 117.787C198.994 132.627 195.256 147.228 188.112 160.225L189.867 161.241C197.269 147.746 201.1 132.576 200.996 117.175C200.892 101.775 196.856 86.6581 189.273 73.2656L187.516 74.2837C195.043 87.5387 198.993 102.533 198.975 117.787Z" fill="#00FFC8"/>
<path d="M112.297 206V208.001C127.752 207.77 142.888 203.556 156.249 195.762C169.61 187.968 180.746 176.858 188.586 163.5L186.83 162.484C171.72 188.154 144.014 205.538 112.297 206Z" fill="#00FFC8"/>
<path d="M187.966 71.0214L186.204 72.0416C172.207 48.9902 147.97 32.8466 119.871 30.0112V28C132.471 29.2411 144.698 33.1415 155.735 39.4778C168.974 47.0785 180.066 57.9339 187.966 71.0214Z" fill="#00FFC8"/>
<path d="M34.0273 71.0215C41.9446 57.9502 53.0405 47.1077 66.276 39.5093C76.7168 33.5153 88.2196 29.6947 100.097 28.2363V30.2396C72.8678 33.6296 49.4558 49.5464 35.7889 72.0416L34.0273 71.0215Z" fill="#00FFC8"/>
<path d="M23.0225 117.789C23.0062 102.534 26.9583 87.5387 34.4886 74.2837L32.7311 73.2656C31.0093 76.3092 29.4648 79.4502 28.1051 82.6729C22.8091 95.2225 20.4204 108.813 21.1188 122.422C21.8171 136.031 25.5843 149.304 32.1369 161.243L33.8923 160.227C26.7461 147.231 23.0061 132.63 23.0225 117.789V117.789Z" fill="#00FFC8"/>
</g>
<g opacity="0.2">
<path d="M116.623 5.40657C117.347 6.50324 117.72 7.78662 117.72 9.13999C117.72 10.9832 116.997 12.71 115.713 13.9933C114.407 15.3 112.68 16 110.86 16C109.017 16 107.29 15.2767 106.007 13.9933C104.7 12.6867 104 10.96 104 9.13999C104 7.29674 104.723 5.56999 106.007 4.28666C107.313 2.98003 109.04 2.27999 110.86 2.27999C112.213 2.27999 113.497 2.65336 114.593 3.37666L113.73 4.3332L113.823 4.72984C111.77 3.32976 108.923 3.56318 107.103 5.38318C105.027 7.45985 105.027 10.8198 107.103 12.8965C109.18 14.9732 112.54 14.9732 114.617 12.8965C116.437 11.0765 116.647 8.22985 115.27 6.17651L115.667 6.26977L116.623 5.40657ZM113.403 5.68652C111.723 4.44986 109.367 4.58986 107.85 6.10644C106.193 7.76319 106.193 10.4698 107.85 12.1498C109.507 13.8298 112.213 13.8065 113.893 12.1498C115.41 10.6332 115.55 8.25311 114.313 6.59644L113.193 7.7164C113.823 8.76636 113.707 10.143 112.797 11.0297C111.747 12.0797 110.043 12.0797 108.97 11.0297C107.92 9.97978 107.92 8.27648 108.97 7.20307C109.88 6.29307 111.257 6.17636 112.283 6.80642L113.403 5.68652ZM111.49 7.59978C110.883 7.3431 110.16 7.4598 109.67 7.94971C109.017 8.60304 109.017 9.653 109.67 10.283C110.323 10.9364 111.373 10.9364 112.003 10.283C112.493 9.79296 112.61 9.06967 112.353 8.46304L111.537 9.27979C111.303 9.51319 110.907 9.51319 110.65 9.27979C110.393 9.04639 110.416 8.64975 110.65 8.39308L111.49 7.59978ZM114.197 5.24315L110.86 8.60319C110.72 8.74317 110.72 8.97656 110.86 9.13982C111 9.27979 111.233 9.27979 111.397 9.13982L114.733 5.80323L115.573 5.98992L117.977 3.91325L116.53 3.44663L116.064 2L114.01 4.40317L114.197 5.24315Z" fill="#BDFFF1"/>
</g>
<path d="M119.73 8C127.774 8.63157 135.574 10.1283 143.038 12.3971C149.483 14.3562 155.677 16.891 161.561 19.9416C196.873 38.2497 221 75.1365 221 117.659C221 178.41 171.751 227.659 111 227.659C50.2487 227.659 1 178.41 1 117.659C1 60.541 44.5335 13.5911 100.23 8.1791" stroke="#00FFC8" stroke-width="2"/>
<defs>
<linearGradient id="paint0_linear_20_2428" x1="104.567" y1="545.285" x2="-127.886" y2="360.684" gradientUnits="userSpaceOnUse">
<stop offset="0" stop-color="#00FFC8" stop-opacity="0.4"/>
<stop offset="1" stop-color="#00FFC8" stop-opacity="0"/>
</linearGradient>
</defs>
</svg>
