<svg width="18" height="18" viewBox="0 0 18 18" fill="none" xmlns="http://www.w3.org/2000/svg">
<path fill-rule="evenodd" clip-rule="evenodd" d="M16.9384 4.46728C16.3522 4.71611 15.7216 4.88439 15.0601 4.96018C15.7355 4.57263 16.254 3.95959 16.4981 3.22881C15.8665 3.58729 15.1662 3.84757 14.4216 3.98819C13.8249 3.37993 12.9752 3 12.0348 3C10.2288 3 8.76498 4.40101 8.76498 6.12952C8.76498 6.37454 8.79387 6.61337 8.84965 6.84266C6.13166 6.71204 3.72248 5.46596 2.10971 3.57251C1.8283 4.03491 1.66692 4.57263 1.66692 5.14609C1.66692 6.23153 2.24419 7.1897 3.1213 7.75077C2.58537 7.73456 2.08132 7.59394 1.64052 7.3594C1.64003 7.37275 1.64003 7.38562 1.64003 7.39897C1.64003 8.91534 2.76717 10.18 4.26338 10.4675C3.98895 10.539 3.70006 10.5771 3.40172 10.5771C3.19103 10.5771 2.98632 10.5576 2.78659 10.5213C3.20249 11.7646 4.41032 12.6693 5.84128 12.6946C4.72211 13.5341 3.31206 14.0341 1.77998 14.0341C1.51601 14.0341 1.25601 14.0193 1 13.9907C2.44691 14.8784 4.16576 15.3965 6.01262 15.3965C12.0274 15.3965 15.3162 10.6276 15.3162 6.49229C15.3162 6.35643 15.3132 6.22152 15.3067 6.08709C15.9457 5.64615 16.5001 5.09509 16.9384 4.46728Z" fill="#D4FFF6"/>
</svg>
