<svg width="16" height="13" viewBox="0 0 16 13" fill="none" xmlns="http://www.w3.org/2000/svg">
<path fill-rule="evenodd" clip-rule="evenodd" d="M15.9384 1.4663C15.3522 1.71513 14.7216 1.88341 14.0601 1.9592C14.7355 1.57165 15.254 0.958616 15.4981 0.227838C14.8665 0.586315 14.1662 0.846592 13.4216 0.987218C12.8249 0.378951 11.9752 -0.000976562 11.0348 -0.000976562C9.22882 -0.000976562 7.76498 1.40004 7.76498 3.12854C7.76498 3.37357 7.79387 3.61239 7.84965 3.84168C5.13166 3.71107 2.72248 2.46498 1.10971 0.571537C0.828298 1.03393 0.666922 1.57165 0.666922 2.14512C0.666922 3.23056 1.24419 4.18872 2.1213 4.74979C1.58537 4.73358 1.08132 4.59296 0.640524 4.35842C0.640026 4.37177 0.640026 4.38464 0.640026 4.39799C0.640026 5.91436 1.76717 7.17904 3.26338 7.46649C2.98895 7.538 2.70006 7.57613 2.40172 7.57613C2.19103 7.57613 1.98632 7.55659 1.78659 7.52036C2.20249 8.76359 3.41032 9.66836 4.84128 9.69362C3.72211 10.5331 2.31206 11.0331 0.779985 11.0331C0.516005 11.0331 0.25601 11.0184 0 10.9898C1.44691 11.8774 3.16576 12.3955 5.01262 12.3955C11.0274 12.3955 14.3162 7.62666 14.3162 3.49131C14.3162 3.35545 14.3132 3.22055 14.3067 3.08612C14.9457 2.64517 15.5001 2.09411 15.9384 1.4663" fill="#1C92DE"/>
</svg>
