<svg width="32" height="32" viewBox="0 0 32 32" fill="none" xmlns="http://www.w3.org/2000/svg">
<path d="M20.5227 4.8175C22.932 5.7855 25.0467 7.5335 26.4453 9.9575C27.816 12.3308 28.276 14.9735 27.9507 17.4962" stroke="#BDFFF1" stroke-linecap="round" stroke-linejoin="round"/>
<path d="M23.4133 25.4922C21.3707 27.0948 18.7987 28.0522 16 28.0522C13.26 28.0522 10.74 27.1295 8.71867 25.5868" stroke="#BDFFF1" stroke-linecap="round" stroke-linejoin="round"/>
<path d="M11.476 4.8175C9.06801 5.7855 6.95334 7.5335 5.55334 9.9575C4.18267 12.3308 3.72267 14.9735 4.04801 17.4962" stroke="#BDFFF1" stroke-linecap="round" stroke-linejoin="round"/>
<path d="M20.7113 11.3381C23.3148 13.9416 23.3148 18.1627 20.7113 20.7662C18.1078 23.3697 13.8867 23.3697 11.2832 20.7662C8.67975 18.1627 8.67975 13.9416 11.2832 11.3381C13.8867 8.73462 18.1078 8.73462 20.7113 11.3381" stroke="#BDFFF1" stroke-linecap="round" stroke-linejoin="round"/>
</svg>
