<svg width="67" height="64" viewBox="0 0 67 64" fill="none" xmlns="http://www.w3.org/2000/svg">
<path fill-rule="evenodd" clip-rule="evenodd" d="M32.5583 57.0794L12.1701 45.3082L32.8262 33.1419L32.5583 57.0794ZM11.6164 20.0318L32.2559 31.948L11.4384 44.2093C11.4334 44.1605 11.431 44.1111 11.4313 44.062C11.4612 40.2069 11.5877 23.8442 11.6165 20.0583C11.6166 20.0494 11.6159 20.0408 11.6164 20.0318ZM54.7252 44.9206C54.7177 44.9248 54.7102 44.9298 54.7022 44.9341C51.4376 46.8524 37.33 55.1427 34.0075 57.0956C33.9648 57.121 33.9212 57.1435 33.877 57.1634L34.148 33.0396L54.7252 44.9206ZM33.1243 6.64632L32.8541 30.7706L12.2766 18.8902C12.2841 18.8852 12.2917 18.881 12.299 18.8763C15.5636 16.9581 29.6712 8.66775 32.9937 6.71489C33.0364 6.68943 33.0801 6.66625 33.1243 6.64632ZM55.57 19.7464L55.5698 19.7476C55.5399 23.6027 55.4134 39.9654 55.3845 43.7512C55.3848 43.7603 55.3846 43.7687 55.3844 43.7779L34.8738 31.9361L55.57 19.7464ZM34.442 6.73026L54.8645 18.5212C54.8957 18.5393 54.9256 18.5582 54.9544 18.5782L34.1714 30.8192L34.442 6.73026Z" fill="#FFECB3"/>
</svg>
