<svg width="18" height="18" viewBox="0 0 18 18" fill="none" xmlns="http://www.w3.org/2000/svg">
<path fill-rule="evenodd" clip-rule="evenodd" d="M15.9137 10.6269V11.266C15.9137 11.5601 15.9156 11.8545 15.9174 12.149C15.9211 12.7385 15.9249 13.3284 15.9137 13.9169C15.9037 14.468 15.4892 14.894 14.941 14.9042C14.8564 14.9064 14.7733 14.9057 14.6898 14.9049C14.6478 14.9045 14.6057 14.9042 14.5633 14.9042H9.46894H3.49214C3.34271 14.9042 3.19365 14.9045 3.04471 14.9049C2.74721 14.9057 2.4502 14.9064 2.15171 14.9042C1.63024 14.8974 1.189 14.5153 1.15892 13.9777C1.15445 13.8941 1.15596 13.8074 1.15745 13.7217C1.15819 13.6793 1.15892 13.6371 1.15892 13.5956V8.08776C1.15892 7.61452 1.15484 7.14091 1.15075 6.66718C1.14258 5.71933 1.1344 4.77098 1.15892 3.82413C1.17229 3.26963 1.6035 2.85374 2.14502 2.85036H2.57289H4.67547H11.0166C11.4523 2.85036 11.888 2.84773 12.3236 2.8451C13.195 2.83984 14.0663 2.83458 14.9376 2.85036C15.4792 2.86389 15.9003 3.27977 15.9137 3.8309C15.9182 4.04491 15.9167 4.26043 15.9152 4.47644C15.9145 4.58464 15.9137 4.69296 15.9137 4.80128V7.10716H16.0741C16.1254 7.10716 16.1767 7.10679 16.2279 7.10641C16.3304 7.10566 16.4329 7.10491 16.5354 7.10716C16.8095 7.11392 16.9967 7.30327 17.0034 7.58052C17.0123 7.95045 17.0094 8.32338 17.0064 8.6953C17.0049 8.88089 17.0034 9.06622 17.0034 9.25081V10.0555C17.0034 10.0689 17.0038 10.0827 17.0042 10.0966C17.0049 10.1248 17.0057 10.1535 17.0034 10.1806C16.991 10.4196 16.8339 10.5826 16.613 10.6205C16.5986 10.6247 16.5827 10.6269 16.5655 10.6269H16.5622C16.5517 10.6278 16.5417 10.6277 16.5322 10.6269H16.4853H15.9137ZM15.5761 10.6269V12.8822C15.5761 12.9962 15.5765 13.1098 15.5768 13.2232C15.5776 13.4498 15.5783 13.6758 15.5761 13.9033C15.5728 14.2922 15.2819 14.5559 14.9076 14.5593C14.0274 14.566 13.1488 14.5638 12.2696 14.5615C11.8299 14.5604 11.39 14.5593 10.9498 14.5593H4.72561H2.62303H2.16508C1.79404 14.5559 1.49654 14.3057 1.48985 13.9202C1.46533 12.9755 1.47351 12.0278 1.48169 11.0811C1.48577 10.6081 1.48985 10.1354 1.48985 9.66337V4.20958C1.48985 4.16676 1.48948 4.12393 1.48911 4.0811C1.48836 3.99544 1.48762 3.90979 1.48985 3.82413C1.49988 3.4353 1.80072 3.18848 2.17177 3.18848C2.4793 3.18622 2.78683 3.18697 3.09436 3.18773C3.24812 3.1881 3.40189 3.18848 3.55565 3.18848H9.43551H14.4864H14.9209C15.302 3.19186 15.5761 3.46911 15.5794 3.85794C15.5839 4.44852 15.5824 5.03909 15.5809 5.62967C15.5802 5.92495 15.5794 6.22024 15.5794 6.51553V7.10716H14.1688H12.5676C12.3437 7.10716 12.1197 7.12069 11.9024 7.19169C11.4746 7.3337 11.1069 7.64138 10.8996 8.04374C10.4617 8.88903 10.7826 9.97438 11.6216 10.4207C12.0237 10.6331 12.4499 10.6304 12.8835 10.6276C12.933 10.6273 12.9826 10.6269 13.0323 10.6269H15.5761ZM15.7103 7.44528H15.4223H13.5404C13.4189 7.44528 13.2975 7.4449 13.176 7.44453C12.9331 7.44377 12.6902 7.44302 12.4473 7.44528C11.6283 7.45542 10.9765 8.15194 11.0367 8.9837C11.0901 9.74784 11.7453 10.2854 12.4774 10.2888H13.7175H16.5622C16.6593 10.2823 16.6655 10.2059 16.6719 10.1274C16.6721 10.1249 16.6723 10.1223 16.6725 10.1198C16.6792 9.76349 16.6769 9.40572 16.6747 9.04844C16.6736 8.86999 16.6725 8.69167 16.6725 8.51372V7.73606C16.6725 7.71868 16.6733 7.70038 16.674 7.68175C16.6784 7.57717 16.6832 7.4625 16.5555 7.44528C16.4727 7.43396 16.3854 7.4378 16.2996 7.44157C16.2572 7.44343 16.2153 7.44528 16.1744 7.44528H15.7828C15.759 7.44987 15.7341 7.44987 15.7103 7.44528Z" fill="#00FFC8"/>
<path d="M15.9137 10.6269V10.3269H15.6137V10.6269H15.9137ZM15.9174 12.149L15.6174 12.1509L15.9174 12.149ZM15.9137 13.9169L15.6138 13.9112L15.6138 13.9114L15.9137 13.9169ZM14.941 14.9042L14.9354 14.6042L14.933 14.6043L14.941 14.9042ZM14.6898 14.9049L14.6925 14.6049H14.6925L14.6898 14.9049ZM3.04471 14.9049L3.04396 14.6049H3.04396L3.04471 14.9049ZM2.15171 14.9042L2.14782 15.2041L2.14945 15.2041L2.15171 14.9042ZM1.15892 13.9777L0.859347 13.9937L0.859389 13.9945L1.15892 13.9777ZM1.15745 13.7217L0.857493 13.7165L1.15745 13.7217ZM1.15075 6.66718L1.45074 6.66459L1.15075 6.66718ZM1.15892 3.82413L1.45882 3.8319L1.45883 3.83137L1.15892 3.82413ZM2.14502 2.85036V2.55036L2.14315 2.55037L2.14502 2.85036ZM12.3236 2.8451L12.3254 3.1451L12.3236 2.8451ZM14.9376 2.85036L14.9451 2.55045L14.9431 2.55041L14.9376 2.85036ZM15.9137 3.8309L16.2136 3.82465L16.2136 3.82362L15.9137 3.8309ZM15.9152 4.47644L16.2152 4.47851V4.4785L15.9152 4.47644ZM15.9137 7.10716H15.6137V7.40716H15.9137V7.10716ZM16.2279 7.10641L16.2257 6.80642H16.2257L16.2279 7.10641ZM16.5354 7.10716L16.5428 6.80725L16.542 6.80724L16.5354 7.10716ZM17.0034 7.58052L16.7035 7.58776V7.58776L17.0034 7.58052ZM17.0064 8.6953L17.3064 8.6977V8.6977L17.0064 8.6953ZM17.0042 10.0966L16.7043 10.1045V10.1045L17.0042 10.0966ZM17.0034 10.1806L16.7043 10.156L16.7038 10.165L17.0034 10.1806ZM16.613 10.6205L16.5622 10.3249L16.546 10.3276L16.5301 10.3322L16.613 10.6205ZM16.5622 10.6269V10.3269H16.5503L16.5385 10.3279L16.5622 10.6269ZM16.5322 10.6269L16.5575 10.328L16.5449 10.3269H16.5322V10.6269ZM15.5761 10.6269H15.8761V10.3269H15.5761V10.6269ZM15.5768 13.2232L15.2768 13.2242V13.2242L15.5768 13.2232ZM15.5761 13.9033L15.2761 13.9004L15.2761 13.9008L15.5761 13.9033ZM14.9076 14.5593L14.9099 14.8593L14.9103 14.8593L14.9076 14.5593ZM12.2696 14.5615L12.2704 14.2615H12.2704L12.2696 14.5615ZM2.16508 14.5593L2.16235 14.8593H2.16508V14.5593ZM1.48985 13.9202L1.78982 13.915L1.78975 13.9125L1.48985 13.9202ZM1.48169 11.0811L1.1817 11.0785L1.48169 11.0811ZM1.48911 4.0811L1.7891 4.0785L1.48911 4.0811ZM1.48985 3.82413L1.78975 3.83194L1.78975 3.83187L1.48985 3.82413ZM2.17177 3.18848V3.48849L2.17397 3.48847L2.17177 3.18848ZM3.09436 3.18773L3.09509 2.88773H3.09509L3.09436 3.18773ZM14.9209 3.18848L14.9236 2.88848H14.9209V3.18848ZM15.5794 3.85794L15.8794 3.85568L15.8794 3.85537L15.5794 3.85794ZM15.5794 7.10716V7.40716H15.8794V7.10716H15.5794ZM11.9024 7.19169L11.8092 6.90653L11.8079 6.90696L11.9024 7.19169ZM10.8996 8.04374L11.166 8.18174L11.1663 8.18111L10.8996 8.04374ZM11.6216 10.4207L11.4807 10.6855L11.4815 10.6859L11.6216 10.4207ZM12.8835 10.6276L12.8854 10.9276L12.8835 10.6276ZM15.7103 7.44528L15.7671 7.1507L15.739 7.14528H15.7103V7.44528ZM13.176 7.44453L13.1769 7.14453L13.176 7.44453ZM12.4473 7.44528L12.4445 7.14529L12.4436 7.1453L12.4473 7.44528ZM11.0367 8.9837L11.3359 8.96275L11.3359 8.96205L11.0367 8.9837ZM12.4774 10.2888L12.476 10.5888H12.4774V10.2888ZM16.5622 10.2888V10.5888H16.5723L16.5824 10.5881L16.5622 10.2888ZM16.6719 10.1274L16.3728 10.1032L16.3728 10.1032L16.6719 10.1274ZM16.6725 10.1198L16.9715 10.1444L16.9723 10.1349L16.9724 10.1254L16.6725 10.1198ZM16.6747 9.04844L16.9747 9.04657V9.04657L16.6747 9.04844ZM16.674 7.68175L16.9738 7.69426V7.69426L16.674 7.68175ZM16.5555 7.44528L16.5149 7.74251L16.5154 7.74259L16.5555 7.44528ZM16.2996 7.44157L16.3127 7.74128H16.3127L16.2996 7.44157ZM15.7828 7.44528V7.14528H15.7542L15.7261 7.1507L15.7828 7.44528ZM16.2137 11.266V10.6269H15.6137V11.266H16.2137ZM16.2174 12.1471C16.2156 11.8524 16.2137 11.559 16.2137 11.266H15.6137C15.6137 11.5612 15.6156 11.8565 15.6174 12.1509L16.2174 12.1471ZM16.2137 13.9225C16.2249 13.3297 16.2211 12.7359 16.2174 12.1471L15.6174 12.1509C15.6211 12.741 15.6248 13.3272 15.6138 13.9112L16.2137 13.9225ZM14.9465 15.2041C15.6612 15.1909 16.2008 14.6297 16.2137 13.9223L15.6138 13.9114C15.6066 14.3063 15.3172 14.5971 14.9354 14.6042L14.9465 15.2041ZM14.6871 15.2049C14.7698 15.2056 14.8582 15.2065 14.949 15.204L14.933 14.6043C14.8546 14.6063 14.7769 14.6057 14.6925 14.6049L14.6871 15.2049ZM14.5633 15.2042C14.6042 15.2042 14.6449 15.2045 14.6871 15.2049L14.6925 14.6049C14.6507 14.6045 14.6073 14.6042 14.5633 14.6042V15.2042ZM9.46894 15.2042H14.5633V14.6042H9.46894V15.2042ZM3.49214 15.2042H9.46894V14.6042H3.49214V15.2042ZM3.04547 15.2049C3.19447 15.2045 3.34315 15.2042 3.49214 15.2042V14.6042C3.34227 14.6042 3.19283 14.6045 3.04396 14.6049L3.04547 15.2049ZM2.14945 15.2041C2.4497 15.2064 2.74822 15.2057 3.04547 15.2049L3.04396 14.6049C2.74621 14.6057 2.45071 14.6064 2.15397 14.6042L2.14945 15.2041ZM0.859389 13.9945C0.899015 14.7026 1.48214 15.1955 2.14782 15.2041L2.1556 14.6042C1.77834 14.5993 1.47899 14.328 1.45845 13.961L0.859389 13.9945ZM0.857493 13.7165C0.856038 13.8002 0.854212 13.8976 0.859348 13.9937L1.45849 13.9617C1.45469 13.8905 1.45588 13.8146 1.4574 13.727L0.857493 13.7165ZM0.85892 13.5956C0.85892 13.634 0.85824 13.6736 0.857493 13.7165L1.4574 13.727C1.45813 13.685 1.45892 13.6402 1.45892 13.5956H0.85892ZM0.85892 8.08776V13.5956H1.45892V8.08776H0.85892ZM0.850764 6.66976C0.85485 7.14372 0.85892 7.61603 0.85892 8.08776H1.45892C1.45892 7.61302 1.45482 7.13811 1.45074 6.66459L0.850764 6.66976ZM0.859021 3.81637C0.834348 4.76925 0.842599 5.72278 0.850764 6.66976L1.45074 6.66459C1.44256 5.71588 1.43446 4.77271 1.45882 3.8319L0.859021 3.81637ZM2.14315 2.55037C1.44001 2.55476 0.876299 3.09979 0.859008 3.8169L1.45883 3.83137C1.46828 3.43946 1.767 3.15273 2.1469 3.15036L2.14315 2.55037ZM2.57289 2.55036H2.14502V3.15036H2.57289V2.55036ZM4.67547 2.55036H2.57289V3.15036H4.67547V2.55036ZM11.0166 2.55036H4.67547V3.15036H11.0166V2.55036ZM12.3218 2.54511C11.886 2.54774 11.4512 2.55036 11.0166 2.55036V3.15036C11.4533 3.15036 11.8899 3.14773 12.3254 3.1451L12.3218 2.54511ZM14.9431 2.55041C14.0675 2.53456 13.1925 2.53985 12.3218 2.54511L12.3254 3.1451C13.1974 3.13983 14.0651 3.13461 14.9322 3.15031L14.9431 2.55041ZM16.2136 3.82362C16.1964 3.11223 15.6462 2.56797 14.9451 2.55046L14.9301 3.15027C15.3121 3.15981 15.6043 3.44731 15.6138 3.83817L16.2136 3.82362ZM16.2152 4.4785C16.2167 4.26321 16.2182 4.04352 16.2136 3.82465L15.6138 3.83714C15.6181 4.0463 15.6167 4.25765 15.6152 4.47438L16.2152 4.4785ZM16.2137 4.80128C16.2137 4.69417 16.2144 4.58687 16.2152 4.47851L15.6152 4.47438C15.6145 4.58241 15.6137 4.69176 15.6137 4.80128H16.2137ZM16.2137 7.10716V4.80128H15.6137V7.10716H16.2137ZM16.0741 6.80716H15.9137V7.40716H16.0741V6.80716ZM16.2257 6.80642C16.1743 6.8068 16.1241 6.80716 16.0741 6.80716V7.40716C16.1267 7.40716 16.179 7.40678 16.2301 7.4064L16.2257 6.80642ZM16.542 6.80724C16.4344 6.80487 16.3275 6.80567 16.2257 6.80642L16.2301 7.4064C16.3333 7.40565 16.4315 7.40495 16.5288 7.40709L16.542 6.80724ZM17.3033 7.57329C17.2984 7.36743 17.2249 7.17493 17.083 7.03149C16.941 6.88781 16.7491 6.81234 16.5428 6.80725L16.528 7.40707C16.5959 7.40874 16.6346 7.43133 16.6564 7.45332C16.6784 7.47556 16.7018 7.51636 16.7035 7.58776L17.3033 7.57329ZM17.3064 8.6977C17.3093 8.3266 17.3124 7.94884 17.3033 7.57329L16.7035 7.58776C16.7123 7.95205 16.7094 8.32015 16.7064 8.6929L17.3064 8.6977ZM17.3034 9.25081C17.3034 9.06762 17.3049 8.88349 17.3064 8.6977L16.7064 8.6929C16.7049 8.87829 16.7034 9.06482 16.7034 9.25081H17.3034ZM17.3034 10.0555V9.25081H16.7034V10.0555H17.3034ZM17.304 10.0886C17.3037 10.074 17.3034 10.0643 17.3034 10.0555H16.7034C16.7034 10.0736 16.7039 10.0914 16.7043 10.1045L17.304 10.0886ZM17.3024 10.2053C17.3062 10.1589 17.3047 10.1135 17.304 10.0886L16.7043 10.1045C16.7051 10.136 16.7051 10.148 16.7044 10.156L17.3024 10.2053ZM16.6638 10.9162C17.0174 10.8555 17.283 10.5808 17.303 10.1962L16.7038 10.165C16.699 10.2585 16.6505 10.3097 16.5622 10.3249L16.6638 10.9162ZM16.5655 10.9269C16.6092 10.9269 16.653 10.9212 16.6959 10.9089L16.5301 10.3322C16.5441 10.3282 16.5563 10.3269 16.5655 10.3269V10.9269ZM16.5622 10.9269H16.5655V10.3269H16.5622V10.9269ZM16.5068 10.9259C16.5335 10.9281 16.5599 10.9281 16.5858 10.926L16.5385 10.3279C16.5434 10.3275 16.5499 10.3274 16.5575 10.328L16.5068 10.9259ZM16.4853 10.9269H16.5322V10.3269H16.4853V10.9269ZM15.9137 10.9269H16.4853V10.3269H15.9137V10.9269ZM15.2761 10.6269V12.8822H15.8761V10.6269H15.2761ZM15.2761 12.8822C15.2761 12.9968 15.2765 13.1108 15.2768 13.2242L15.8768 13.2222C15.8765 13.1087 15.8761 12.9956 15.8761 12.8822H15.2761ZM15.2768 13.2242C15.2776 13.4511 15.2783 13.6751 15.2761 13.9004L15.8761 13.9063C15.8783 13.6764 15.8776 13.4485 15.8768 13.2222L15.2768 13.2242ZM15.2761 13.9008C15.2743 14.1141 15.1277 14.2573 14.9048 14.2593L14.9103 14.8593C15.4362 14.8545 15.8712 14.4702 15.8761 13.9059L15.2761 13.9008ZM14.9052 14.2593C14.0269 14.266 13.1498 14.2638 12.2704 14.2615L12.2689 14.8615C13.1478 14.8638 14.0279 14.866 14.9099 14.8593L14.9052 14.2593ZM12.2704 14.2615C11.8307 14.2604 11.3905 14.2593 10.9498 14.2593V14.8593C11.3896 14.8593 11.8291 14.8604 12.2689 14.8615L12.2704 14.2615ZM10.9498 14.2593H4.72561V14.8593H10.9498V14.2593ZM4.72561 14.2593H2.62303V14.8593H4.72561V14.2593ZM2.62303 14.2593H2.16508V14.8593H2.62303V14.2593ZM2.16781 14.2593C1.93617 14.2572 1.79329 14.1157 1.78981 13.915L1.1899 13.9254C1.19979 14.4957 1.65191 14.8546 2.16235 14.8593L2.16781 14.2593ZM1.78975 13.9125C1.76539 12.9738 1.77349 12.0313 1.78167 11.0837L1.1817 11.0785C1.17353 12.0243 1.16527 12.9773 1.18995 13.928L1.78975 13.9125ZM1.78167 11.0837C1.78576 10.6109 1.78985 10.1369 1.78985 9.66337H1.18985C1.18985 10.1338 1.18578 10.6053 1.1817 11.0785L1.78167 11.0837ZM1.78985 9.66337V4.20958H1.18985V9.66337H1.78985ZM1.78985 4.20958C1.78985 4.16524 1.78947 4.12111 1.7891 4.0785L1.18912 4.0837C1.18949 4.12675 1.18985 4.16827 1.18985 4.20958H1.78985ZM1.7891 4.0785C1.78835 3.99198 1.78768 3.91152 1.78975 3.83194L1.18995 3.81633C1.18757 3.90805 1.18838 3.99891 1.18912 4.0837L1.7891 4.0785ZM1.78975 3.83187C1.79501 3.62796 1.94013 3.48848 2.17177 3.48848V2.88848C1.66132 2.88848 1.20475 3.24264 1.18995 3.8164L1.78975 3.83187ZM2.17397 3.48847C2.47979 3.48623 2.78585 3.48697 3.09363 3.48773L3.09509 2.88773C2.78781 2.88698 2.47881 2.88622 2.16957 2.88849L2.17397 3.48847ZM3.09363 3.48773C3.24733 3.4881 3.40146 3.48848 3.55565 3.48848V2.88848C3.40232 2.88848 3.24892 2.8881 3.09509 2.88773L3.09363 3.48773ZM3.55565 3.48848H9.43551V2.88848H3.55565V3.48848ZM9.43551 3.48848H14.4864V2.88848H9.43551V3.48848ZM14.4864 3.48848H14.9209V2.88848H14.4864V3.48848ZM14.9183 3.48847C15.1316 3.49036 15.2775 3.63118 15.2795 3.86052L15.8794 3.85537C15.8747 3.30704 15.4724 2.89336 14.9236 2.88849L14.9183 3.48847ZM15.2794 3.86021C15.2839 4.44902 15.2824 5.03809 15.2809 5.62891L15.8809 5.63042C15.8824 5.0401 15.8839 4.44802 15.8794 3.85568L15.2794 3.86021ZM15.2809 5.62891C15.2802 5.92413 15.2794 6.2198 15.2794 6.51553H15.8794C15.8794 6.22068 15.8802 5.92577 15.8809 5.63042L15.2809 5.62891ZM15.2794 6.51553V7.10716H15.8794V6.51553H15.2794ZM15.5794 6.80716H14.1688V7.40716H15.5794V6.80716ZM14.1688 6.80716H12.5676V7.40716H14.1688V6.80716ZM12.5676 6.80716C12.3344 6.80716 12.0723 6.82056 11.8092 6.90653L11.9956 7.47685C12.1671 7.42081 12.3529 7.40716 12.5676 7.40716V6.80716ZM11.8079 6.90696C11.3079 7.07293 10.8772 7.43216 10.6329 7.90637L11.1663 8.18111C11.3365 7.85061 11.6412 7.59447 11.9969 7.47642L11.8079 6.90696ZM10.6332 7.90574C10.1221 8.8923 10.4919 10.1596 11.4807 10.6855L11.7625 10.1558C11.0733 9.7892 10.8013 8.88575 11.166 8.18174L10.6332 7.90574ZM11.4815 10.6859C11.9604 10.939 12.4632 10.9303 12.8854 10.9276L12.8816 10.3276C12.4366 10.3304 12.0869 10.3272 11.7618 10.1554L11.4815 10.6859ZM12.8854 10.9276C12.9351 10.9272 12.9837 10.9269 13.0323 10.9269V10.3269C12.9815 10.3269 12.9309 10.3273 12.8816 10.3276L12.8854 10.9276ZM13.0323 10.9269H15.5761V10.3269H13.0323V10.9269ZM15.4223 7.74528H15.7103V7.14528H15.4223V7.74528ZM13.5404 7.74528H15.4223V7.14528H13.5404V7.74528ZM13.1751 7.74452C13.2964 7.7449 13.4184 7.74528 13.5404 7.74528V7.14528C13.4194 7.14528 13.2985 7.1449 13.1769 7.14453L13.1751 7.74452ZM12.4501 7.74526C12.6908 7.74303 12.9319 7.74377 13.1751 7.74452L13.1769 7.14453C12.9343 7.14378 12.6896 7.14302 12.4445 7.14529L12.4501 7.74526ZM11.3359 8.96205C11.2883 8.30385 11.8035 7.75327 12.451 7.74525L12.4436 7.1453C11.4532 7.15757 10.6647 8.00002 10.7374 9.00534L11.3359 8.96205ZM12.4788 9.98883C11.8862 9.98609 11.3773 9.55337 11.3359 8.96275L10.7374 9.00465C10.803 9.94231 11.6044 10.5848 12.476 10.5888L12.4788 9.98883ZM13.7175 9.98882H12.4774V10.5888H13.7175V9.98882ZM16.5622 9.98882H13.7175V10.5888H16.5622V9.98882ZM16.3728 10.1032C16.371 10.1253 16.3703 10.1323 16.3696 10.1364C16.369 10.1402 16.3707 10.1255 16.3814 10.1037C16.3937 10.0783 16.4172 10.0455 16.4561 10.0202C16.4937 9.99582 16.5273 9.99049 16.542 9.9895L16.5824 10.5881C16.6456 10.5839 16.7164 10.5666 16.7827 10.5235C16.8503 10.4797 16.8939 10.4216 16.9207 10.3666C16.9651 10.2756 16.9691 10.1737 16.9709 10.1517L16.3728 10.1032ZM16.3735 10.0951C16.3733 10.0979 16.373 10.1007 16.3728 10.1032L16.9709 10.1517C16.9711 10.1491 16.9713 10.1467 16.9715 10.1444L16.3735 10.0951ZM16.3747 9.05031C16.377 9.40822 16.3791 9.76224 16.3725 10.1141L16.9724 10.1254C16.9792 9.76474 16.9769 9.40321 16.9747 9.04657L16.3747 9.05031ZM16.3725 8.51372C16.3725 8.69276 16.3736 8.87202 16.3747 9.05031L16.9747 9.04657C16.9736 8.86796 16.9725 8.69058 16.9725 8.51372H16.3725ZM16.3725 7.73606V8.51372H16.9725V7.73606H16.3725ZM16.3743 7.66924C16.3736 7.68655 16.3725 7.71129 16.3725 7.73606H16.9725C16.9725 7.72607 16.9729 7.7142 16.9738 7.69426L16.3743 7.66924ZM16.5154 7.74259C16.5023 7.74082 16.4689 7.73286 16.4343 7.70348C16.4 7.67429 16.3847 7.64125 16.3789 7.62321C16.374 7.60806 16.3751 7.60189 16.3755 7.61397C16.3759 7.62597 16.3755 7.64086 16.3743 7.66925L16.9738 7.69426C16.9753 7.65796 16.9839 7.5438 16.9497 7.4383C16.9296 7.37636 16.8919 7.30489 16.8227 7.24609C16.7532 7.1871 16.6725 7.15834 16.5956 7.14797L16.5154 7.74259ZM16.3127 7.74128C16.4039 7.73727 16.4636 7.7355 16.5149 7.74251L16.5961 7.14804C16.4818 7.13241 16.3668 7.13832 16.2864 7.14186L16.3127 7.74128ZM16.1744 7.74528C16.223 7.74528 16.2717 7.74309 16.3127 7.74128L16.2864 7.14186C16.2428 7.14378 16.2075 7.14528 16.1744 7.14528V7.74528ZM15.7828 7.74528H16.1744V7.14528H15.7828V7.74528ZM15.6535 7.73986C15.7149 7.75168 15.7783 7.75168 15.8396 7.73986L15.7261 7.1507C15.7397 7.14806 15.7534 7.14806 15.7671 7.1507L15.6535 7.73986Z" fill="#00FFC8"/>
<path d="M13.0588 9C13.043 9.31601 12.5628 9.32233 12.5628 9C12.5628 8.67767 13.043 8.68399 13.0588 9C13.0683 9.20225 13.3843 9.20225 13.3748 9C13.359 8.69347 13.1283 8.4375 12.8124 8.4375C12.5059 8.4375 12.25 8.69663 12.25 9C12.25 9.30653 12.5091 9.5625 12.8124 9.5625C13.1283 9.5625 13.3622 9.30337 13.3748 9C13.3843 8.79775 13.0683 8.79775 13.0588 9Z" fill="#00FFC8"/>
<path d="M13.0588 9C13.043 9.31601 12.5628 9.32233 12.5628 9C12.5628 8.67767 13.043 8.68399 13.0588 9ZM13.0588 9C13.0683 9.20225 13.3843 9.20225 13.3748 9M13.0588 9C13.0683 8.79775 13.3843 8.79775 13.3748 9M13.3748 9C13.359 8.69347 13.1283 8.4375 12.8124 8.4375C12.5059 8.4375 12.25 8.69663 12.25 9C12.25 9.30653 12.5091 9.5625 12.8124 9.5625C13.1283 9.5625 13.3622 9.30337 13.3748 9Z" stroke="#00FFC8" stroke-width="0.1"/>
</svg>
