<svg width="24" height="25" viewBox="0 0 24 25" fill="none" xmlns="http://www.w3.org/2000/svg">
<path fill-rule="evenodd" clip-rule="evenodd" d="M12 3.17676V3.17676C16.971 3.17676 21 7.20576 21 12.1768V12.1768C21 17.1478 16.971 21.1768 12 21.1768V21.1768C7.029 21.1768 3 17.1478 3 12.1768V12.1768C3 7.20576 7.029 3.17676 12 3.17676Z" stroke="#FFECB3" stroke-linecap="round" stroke-linejoin="round"/>
<path d="M12 12.6768V7.67676" stroke="#FFECB3" stroke-linecap="round" stroke-linejoin="round"/>
<path d="M11.999 16.1768C11.861 16.1768 11.749 16.2888 11.75 16.4268C11.75 16.5648 11.862 16.6768 12 16.6768C12.138 16.6768 12.25 16.5648 12.25 16.4268C12.25 16.2888 12.138 16.1768 11.999 16.1768" stroke="#FFECB3" stroke-linecap="round" stroke-linejoin="round"/>
</svg>
