<svg width="18" height="18" viewBox="0 0 18 18" fill="none" xmlns="http://www.w3.org/2000/svg">
<path d="M12.5151 6.51367C14.4561 8.45467 14.4561 11.6017 12.5151 13.5434C10.5741 15.4852 7.42708 15.4844 5.48533 13.5434C3.54358 11.6024 3.54433 8.45542 5.48533 6.51367" stroke="#00FFC8" stroke-linecap="round" stroke-linejoin="round"/>
<path d="M5.48242 6.5175L8.99992 3" stroke="#00FFC8" stroke-linecap="round" stroke-linejoin="round"/>
<path d="M12.5175 6.5175L9 3" stroke="#00FFC8" stroke-linecap="round" stroke-linejoin="round"/>
<path d="M12.5151 6.51367C14.4561 8.45467 14.4561 11.6017 12.5151 13.5434C10.5741 15.4852 7.42708 15.4844 5.48533 13.5434C3.54358 11.6024 3.54433 8.45542 5.48533 6.51367" stroke="#00FFC8" stroke-linecap="round" stroke-linejoin="round"/>
<path d="M5.48242 6.5175L8.99992 3" stroke="#00FFC8" stroke-linecap="round" stroke-linejoin="round"/>
<path d="M12.5175 6.5175L9 3" stroke="#00FFC8" stroke-linecap="round" stroke-linejoin="round"/>
<path d="M6.41907 10.7273C6.26845 10.4958 5.95872 10.4303 5.72727 10.5809C5.49583 10.7315 5.43031 11.0413 5.58093 11.2727L6.41907 10.7273ZM8.87548 13.8655C9.14292 13.9343 9.41547 13.7732 9.48424 13.5058C9.55302 13.2383 9.39196 12.9658 9.12452 12.897L8.87548 13.8655ZM5.58093 11.2727C6.46806 12.6359 7.56182 13.5277 8.87548 13.8655L9.12452 12.897C8.11581 12.6376 7.20957 11.9419 6.41907 10.7273L5.58093 11.2727Z" fill="#00FFC8"/>
</svg>
