<svg width="14" height="13" viewBox="0 0 14 13" fill="none" xmlns="http://www.w3.org/2000/svg">
<path d="M12.672 2.30199C11.976 3.20599 11.156 4.17599 10.192 5.16999C9.108 6.28399 8.046 7.224 7.066 8.004C7.528 8.462 7.6 8.81599 7.588 9.04399C7.542 9.97199 6.02 10.84 3.666 11.292C3.356 11.352 3.034 11.404 2.698 11.448M12.23 0.531995C10.056 1.53599 8.328 2.52799 7.09 3.29599C2.798 5.954 2.132 7.312 1.978 8.27C1.914 8.658 1.76 9.604 2.29 10.278C2.684 10.782 3.536 11.232 3.664 11.29C3.678 11.296 3.684 11.298 3.678 11.294M12.68 2.304C11.166 6.134 9.64 7.45999 9.24 7.75999C9.194 7.79399 9.198 7.86399 9.246 7.89199C9.978 8.328 14.044 10.902 9.138 11.628C6.636 12 4.25 11.996 2.694 11.454C0.914002 10.836 0.218002 9.512 1.668 7.238C3.748 3.98399 10.126 0.143995 12.232 0.527995C12.884 0.645995 13.126 1.166 12.708 2.234C12.698 2.258 12.69 2.28 12.68 2.304Z" stroke="#FFC000" stroke-width="0.3" stroke-miterlimit="10"/>
</svg>
