<svg width="18" height="18" viewBox="0 0 18 18" fill="none" xmlns="http://www.w3.org/2000/svg">
<path fill-rule="evenodd" clip-rule="evenodd" d="M6.10008 11.589H6.09722C6.10103 11.5553 6.12007 11.469 6.21148 11.328L7.95303 8.57031H10.0431L11.7818 11.3301C11.8741 11.4722 11.8941 11.5574 11.9065 11.5701C11.8817 11.5848 11.8103 11.6153 11.6608 11.6153H6.33241C6.19244 11.6153 6.12198 11.589 6.10008 11.589ZM7.05208 7.34283L9.00597 4.25781L10.957 7.34283H7.05208ZM12.6809 10.6203L11.3583 8.52262C11.6602 8.43736 11.8982 8.24264 12.0363 7.9595C12.2105 7.57217 12.1505 7.09852 11.8696 6.66171L9.88339 3.52828C9.80912 3.40407 9.71485 3.29777 9.6044 3.21146C9.37111 3.03147 9.08832 2.96095 8.81123 3.02095C8.53033 3.07884 8.28658 3.25672 8.12756 3.51775L6.1394 6.66066C5.85755 7.09852 5.79661 7.57217 5.97181 7.96161C6.10131 8.24369 6.33745 8.43841 6.64215 8.52367L5.32338 10.613C4.86347 11.3298 4.99392 11.876 5.11294 12.1392C5.23387 12.4023 5.55285 12.8465 6.33745 12.8465H8.45035V14.3853C8.45035 14.7253 8.69697 15 8.99881 15C9.3016 15 9.54727 14.7253 9.54727 14.3853V12.8465H11.6659C12.4467 12.8465 12.7657 12.4023 12.8847 12.1392C13.0047 11.875 13.138 11.3266 12.6809 10.6203Z" fill="#00FFC8"/>
</svg>
