<svg width="42" height="42" viewBox="0 0 42 42" fill="none" xmlns="http://www.w3.org/2000/svg">
<path fill-rule="evenodd" clip-rule="evenodd" d="M15.9434 8.2261C16.0675 7.79143 16.4646 7.49161 16.9167 7.49122L16.9167 7.49121H26.3728C26.4821 7.49112 26.5908 7.50873 26.6945 7.54335C27.2252 7.72054 27.5118 8.29445 27.3346 8.8252L25.0773 15.5965H31.1009C31.3625 15.5965 31.6141 15.6977 31.8028 15.8789C32.2063 16.2665 32.2193 16.9079 31.8317 17.3114L15.6212 34.1974C15.3698 34.4589 14.9978 34.5661 14.6458 34.4785C14.1029 34.3432 13.7723 33.7934 13.9076 33.2504L16.2939 23.7018H12.864C12.7702 23.7017 12.6769 23.6886 12.5866 23.6628C12.0486 23.5091 11.737 22.9484 11.8907 22.4103L15.9434 8.2261ZM24.9666 9.51754H17.6799L17.6806 9.51755L14.2068 21.6755H17.5921C17.6747 21.6755 17.7569 21.6856 17.837 21.7056C18.3799 21.841 18.7103 22.3909 18.5749 22.9338L16.7964 30.0475L28.7233 17.6228H23.6711C23.5617 17.6229 23.4531 17.6053 23.3494 17.5707C22.8187 17.3935 22.5321 16.8196 22.7092 16.2888L24.9666 9.51754Z" fill="#00FFC8"/>
</svg>
