<svg width="24" height="27" viewBox="0 0 24 27" fill="none" xmlns="http://www.w3.org/2000/svg">
<path fill-rule="evenodd" clip-rule="evenodd" d="M11.529 26.0563L1.33486 20.1707L11.6629 14.0876L11.529 26.0563ZM1.05804 7.53248L11.3778 13.4906L0.969041 19.6212C0.966548 19.5969 0.965312 19.5721 0.965467 19.5476C0.980429 17.62 1.04366 9.43869 1.05811 7.54577C1.05813 7.54132 1.05805 7.53703 1.05833 7.53251L1.05804 7.53248ZM22.6124 19.9769C22.6087 19.979 22.6049 19.9815 22.6009 19.9837C20.9686 20.9428 13.9148 25.088 12.2536 26.0644C12.2322 26.0771 12.2105 26.0883 12.1883 26.0983L12.3238 14.0364L22.6124 19.9769ZM11.812 0.839764L11.6769 12.9019L1.38813 6.96168C1.39191 6.95919 1.39566 6.95711 1.39934 6.95478C3.03164 5.99565 10.0855 1.85047 11.7467 0.874048C11.768 0.861319 11.7898 0.850097 11.8119 0.840132L11.812 0.839764ZM23.0349 7.38982L23.0347 7.39039C23.0198 9.31793 22.9565 17.4993 22.9421 19.3922C22.9422 19.3967 22.9421 19.4009 22.942 19.4056L12.6867 13.4846L23.0349 7.38982ZM12.4708 0.881731L22.6821 6.77721C22.6977 6.78623 22.7126 6.7957 22.727 6.80571L12.3355 12.9262L12.4708 0.881731Z" fill="#BDFFF1"/>
</svg>
