<svg width="61" height="61" viewBox="0 0 61 61" fill="none" xmlns="http://www.w3.org/2000/svg">
<path d="M29.406 2.21704V24.0888L22.0667 27.899L15.3775 24.2001V17.2353L13.1895 18.4106V25.462L19.7536 29.099L13.1895 32.501V44.7977L15.3775 46.0472V33.8123L22.0417 30.3609L29.406 34.4309V52.913L31.5941 54.113V33.1567L24.3547 29.1609L31.5941 25.4001V5.95305L53.312 18.3116V44.2658L42.1092 50.6368V53.1357L55.5 45.5152V17.0621L29.406 2.21704Z" fill="#FFC000"/>
<path d="M49.411 26.6248L34.4072 17.9652V20.3404V43.2885V55.4119L30.6563 57.2676L7.68805 44.2781V18.2992L23.8296 9.13238V6.6582L5.5 17.0621V45.5152L30.5063 59.717L36.5328 56.7356V44.575L49.461 37.1525L49.411 26.6248ZM47.2229 35.903L36.4828 42.0885V21.7631L47.1729 27.8867L47.2229 35.903Z" fill="#FFC000"/>
</svg>
