<svg width="375" height="614" viewBox="0 0 375 614" fill="none" xmlns="http://www.w3.org/2000/svg">
<path d="M25.6907 337.35V466.994L3.35156 454.237V323.667L73.0992 287.519L73.9273 287.09L73.1114 286.638L3.35156 247.985V173.364L25.6907 161.365V234.82V235.115L25.9488 235.258L97.3 274.713L97.5345 274.843L97.7723 274.719L176.059 234.077L176.328 233.937V233.633V1.19369L453.665 158.972V461.89L311.829 542.606V517.102L431.073 449.288L431.325 449.144V448.854V172.009V171.718L431.073 171.575L199.415 39.7502L198.667 39.325V40.1848V247.316L121.718 287.291L120.889 287.722L121.706 288.173L198.667 330.652V553.046L176.328 540.795V343.948V343.653L176.07 343.511L97.517 300.097L97.2829 299.968L97.0452 300.091L25.9608 336.906L25.6907 337.046V337.35Z" stroke="#FFC000"/>
<path d="M229.398 568.195L229.676 568.057V567.747V438.43V193.651V169.181L388.717 260.974L389.248 372.691L251.599 451.72L251.348 451.864V452.153V581.556L187.582 613.102L-78.668 461.891V158.973L115.848 48.5658V73.8072L-56.0757 171.443L-56.3288 171.587V171.878V448.986V449.278L-56.0749 449.421L188.92 587.976L189.15 588.106L189.388 587.989L229.398 568.195ZM366.126 360.085L366.378 359.94L366.377 359.649L365.843 274.141L365.841 273.853L365.592 273.71L251.563 208.392L250.815 207.963V208.826V425.63V426.495L251.564 426.063L366.126 360.085Z" stroke="#FFC000"/>
</svg>
