<svg width="26" height="24" viewBox="0 0 26 24" fill="none" xmlns="http://www.w3.org/2000/svg">
<path fill-rule="evenodd" clip-rule="evenodd" d="M18.8847 23.2649H7.11354L13.0163 12.8327L18.8847 23.2649ZM0.554688 12.4583H12.4709L6.52199 22.972C6.50764 22.9521 6.49421 22.9313 6.48207 22.91C5.53126 21.2332 1.49534 14.1163 0.561391 12.4698C0.559184 12.4659 0.556976 12.4622 0.554952 12.4582L0.554688 12.4583ZM25.4436 12.4583C25.4414 12.462 25.4393 12.466 25.437 12.4699C24.5029 14.1167 20.4667 21.2334 19.5163 22.9096C19.5041 22.9313 19.4909 22.9519 19.4767 22.9716L13.5631 12.4579L25.4436 12.4583ZM6.52152 1.28526L12.4356 11.7989H0.555159C0.557182 11.7949 0.55939 11.7912 0.561414 11.7873C1.49546 10.1406 5.53166 3.02383 6.48209 1.34761C6.49423 1.3259 6.50748 1.3053 6.52165 1.28561L6.52152 1.28526ZM19.5158 1.34634L19.516 1.34689C20.4668 3.02367 24.5027 10.1405 25.4367 11.7871C25.4391 11.7909 25.4411 11.7946 25.4433 11.7987H13.6015L19.5158 1.34634ZM7.11307 0.992188H18.904C18.9221 0.992188 18.9397 0.992923 18.9572 0.994395L13.0182 11.4906L7.11307 0.992188Z" fill="#BDFFF1"/>
</svg>
