<svg width="181" height="181" viewBox="0 0 181 181" fill="none" xmlns="http://www.w3.org/2000/svg">
<g opacity="0.1">
<path d="M88.2499 179.993C73.0524 179.701 58.1772 175.526 45.0332 167.859C31.8877 160.191 20.9136 149.286 13.1474 136.181L14.0385 135.665C29.209 161.111 56.7322 178.359 88.2499 178.992V179.993Z" fill="#FFC000" stroke="#FFC000"/>
<path d="M168.72 133.051L167.831 132.536C174.863 119.574 178.54 105.048 178.522 90.2872C178.54 75.1123 174.653 60.1924 167.241 46.9686L168.132 46.4521C175.514 59.6611 179.441 74.5321 179.543 89.6789C179.645 104.823 175.921 119.744 168.72 133.051Z" fill="#FFC000" stroke="#FFC000"/>
<path d="M166.946 136.18C159.163 149.272 148.186 160.164 135.044 167.83C121.904 175.495 107.037 179.679 91.8438 179.992V178.992C123.362 178.359 150.885 161.111 166.055 135.665L166.946 136.18Z" fill="#FFC000" stroke="#FFC000"/>
<path d="M99.418 2.06027V1.05339C111.754 2.34563 123.717 6.20253 134.533 12.4114C147.551 19.8854 158.482 30.5242 166.32 43.3447L165.423 43.8642C151.385 21.0295 127.318 5.02008 99.418 2.06027Z" fill="#FFC000" stroke="#FFC000"/>
<path d="M14.6638 43.8643L13.7673 43.3451C21.6225 30.5407 32.557 19.9146 45.5719 12.4429C55.7902 6.57664 67.0314 2.8038 78.6444 1.30328V2.2991C51.6134 5.80221 28.3683 21.5844 14.6638 43.8643Z" fill="#FFC000" stroke="#FFC000"/>
<path d="M7.6126 55.3673L7.61262 55.3673C8.89935 52.3176 10.3526 49.3414 11.9657 46.4522L12.857 46.9685C5.44236 60.1924 1.55321 75.1131 1.56937 90.2893C1.55318 105.051 5.23241 119.577 12.2665 132.538L11.3773 133.053C5.01195 121.297 1.35072 108.26 0.664969 94.8967C-0.0295304 81.3629 2.34595 67.8475 7.6126 55.3673Z" fill="#FFC000" stroke="#FFC000"/>
</g>
</svg>
