<svg width="355" height="355" viewBox="0 0 355 355" fill="none" xmlns="http://www.w3.org/2000/svg">
<g>
<path d="M87.525 194.335V265.863L75.5791 259.041V186.88L114.147 166.892L114.975 166.462L114.159 166.01L75.5791 144.634V103.507L87.525 97.0903V137.463V137.758L87.7831 137.9L127.361 159.785L127.595 159.915L127.833 159.792L171.257 137.248L171.527 137.108V136.804V8.2557L324.917 95.5202V263.286L246.688 307.805V294.17L312.718 256.619L312.971 256.475V256.184V102.622V102.331L312.718 102.188L184.22 29.0662L183.473 28.6409V29.5007V144.259L140.91 166.37L140.082 166.8L140.899 167.251L183.473 190.751V313.603L171.527 307.051V197.995V197.7L171.269 197.557L127.697 173.476L127.462 173.346L127.225 173.47L87.7951 193.891L87.525 194.031V194.335Z" fill="#00FFC8" fill-opacity="0.2" stroke="#00FFC8"/>
<path d="M200.84 322.581L201.118 322.443V322.132V250.402V114.626V101.439L288.891 152.098L289.185 213.809L212.945 257.58L212.694 257.725V258.014V329.654L177.553 347.038L30.0834 263.286V95.5206L137.533 34.5316V48.0207L42.2824 102.114L42.0293 102.258V102.549V256.257V256.549L42.2832 256.693L178.179 333.547L178.409 333.677L178.646 333.56L200.84 322.581ZM276.694 207.138L276.946 206.993L276.944 206.702L276.648 159.272L276.646 158.984L276.397 158.841L213.147 122.609L212.398 122.181V123.043V243.302V244.167L213.148 243.735L276.694 207.138Z" fill="#00FFC8" fill-opacity="0.2" stroke="#00FFC8"/>
</g>
</svg>
